<?xml version="1.0" encoding="UTF-8"?>
<svg width="106.17mm" height="149.96mm" version="1.1" viewBox="0 0 106.17 149.96" xmlns="http://www.w3.org/2000/svg" xmlns:cc="http://creativecommons.org/ns#" xmlns:dc="http://purl.org/dc/elements/1.1/" xmlns:rdf="http://www.w3.org/1999/02/22-rdf-syntax-ns#">
 <metadata>
  <rdf:RDF>
   <cc:Work rdf:about="">
    <dc:format>image/svg+xml</dc:format>
    <dc:type rdf:resource="http://purl.org/dc/dcmitype/StillImage"/>
    <dc:title/>
   </cc:Work>
  </rdf:RDF>
 </metadata>
 <g transform="translate(-46.589 -34.149)">
  <g>
   <path d="m97.494 174.75s-40.713-27.39-47.561-58.61c-6.8477-31.22 1.5594-54.305 1.5594-54.305s11.902-30.637 51.429-26.671c39.527 3.9661 46.68 37.186 46.68 37.186s19.823 59.018-52.107 102.4z" fill="#ed5f5f" stroke="#000" stroke-width="1.3229"/>
   <path d="m97.494 174.75s3.3336 6.123 4.9438 6.8179c1.6102 0.69492-5.5595 1.7119-5.5595 1.7119s-6.7969 1.0678-5.068-2.1525c1.7289-3.2203 5.6837-6.3772 5.6837-6.3772z" fill="#ed5f5f" stroke="#000" stroke-width="1.3229"/>
   <path d="m55.423 107c-0.28962-2.3752-0.82466-4.7795-0.87768-7.1246-0.05105-2.258 0.0047-4.4934 0.16762-6.6903 0.22177-2.9897 0.34549-6.0364 0.98558-8.8562 0.84174-3.7083 2.2943-7.098 3.4415-10.647 1.8193-3.6132 3.3249-7.466 5.4579-10.84 3.4948-5.5277 8.8888-11.631 14.38-15.223 1.9187-1.2552 4.2677-1.8479 6.4016-2.7719 4.1581-1.454 2.6599-4.3506-1.4982-2.8966-2.6595 0.56462-5.5814 0.60477-7.9784 1.6938-6.7044 3.0462-12.438 9.1088-16.263 15.288-2.2146 3.5782-3.5652 7.7952-5.3478 11.693-0.89219 3.9452-2.1304 7.7401-2.6766 11.836-0.40916 3.0681-0.31563 6.3222-0.17631 9.5568 0.19248 4.469 1.0027 9.3181 2.8312 13.858 0.15048 0.37367 0.3605 0.73208 0.54075 1.0981 0.22131 1.0936 0.83325 1.1195 0.61193 0.0259z" fill="#f9c3c3"/>
  </g>
 </g>
</svg>
