<?xml version="1.0" encoding="UTF-8"?>
<svg width="349.65" height="323.85" fill="none" version="1.1" viewBox="0 0 349.65 323.85" xmlns="http://www.w3.org/2000/svg" xmlns:cc="http://creativecommons.org/ns#" xmlns:dc="http://purl.org/dc/elements/1.1/" xmlns:rdf="http://www.w3.org/1999/02/22-rdf-syntax-ns#">
 <metadata>
  <rdf:RDF>
   <cc:Work rdf:about="">
    <dc:format>image/svg+xml</dc:format>
    <dc:type rdf:resource="http://purl.org/dc/dcmitype/StillImage"/>
    <dc:title/>
   </cc:Work>
  </rdf:RDF>
 </metadata>
 <path d="m211.18 0-0.013 0.8828-3.735-0.27-0.014 0.8828-4.67-0.3376-0.013 0.8827-1.869-0.1351-0.013 0.8827-2.802-0.2025-0.013 0.8828-1.869-0.1351-0.013 0.8828-2.802-0.2025-0.013 0.8828-1.869-0.1351-0.013 0.8828-1.868-0.1351-0.013 0.8828-0.934-0.0675-0.014 0.8827-1.868-0.1351-0.014 0.8828-1.867-0.135-0.014 0.8828-1.867-0.1351-0.014 0.8828-0.934-0.0675-0.013 0.8828-1.869-0.1351-0.013 0.8828-0.934-0.0675-0.013 0.8828-1.868-0.135-0.013 0.8828-0.935-0.0676-0.014 0.8827-0.934-0.0676-0.013 0.8828-1.868-0.135-0.013 0.8828-0.934-0.0675-0.013 0.8828-0.935-0.0676-0.014 0.8828-0.933-0.0675-0.014 0.8828-0.934-0.0675-0.013 0.8827-0.934-0.0675-0.013 0.8827-0.934-0.0675-0.014 0.8828-0.933-0.0675-0.014 0.8828-0.935-0.0676-0.013 0.8828-0.934-0.0675-0.013 0.8828-0.934-0.0676-0.014 0.8828-0.933-0.0675-0.014 0.8828-0.934-0.0675-0.026 1.7655-0.935-0.0676 0.013-0.8828-0.934-0.0675 0.014-0.8827-0.934-0.0675 0.013-0.8828-0.933-0.0675 0.013-0.8828-0.934-0.0675 0.014-0.8828-0.934-0.0675 0.013-0.8828-0.935-0.0676 0.027-1.7655-1.867-0.1351 0.013-0.8826-0.934-0.0675 0.014-0.8828-1.869-0.1351 0.013-0.8828-0.933-0.0675 0.013-0.8828-0.934-0.0675 0.014-0.8828-1.868-0.135 0.013-0.8828-1.868-0.1351 0.013-0.8828-1.867-0.135 0.013-0.8827-1.868-0.135 0.014-0.8828-1.869-0.1351 0.013-0.8828-2.801-0.2025 0.014-0.8828-2.803-0.2026 0.013-0.8828-3.736-0.2701 0.014-0.8828-3.736-0.27 0.014-0.8828-14.944-1.0804-0.014 0.8828-4.67-0.3376-0.013 0.8828-3.737-0.2701-0.013 0.8828-1.868-0.135-0.013 0.8827-1.869-0.1351-0.013 0.8828-1.868-0.135-0.013 0.8828-1.8691-0.1351-0.0134 0.8827-1.8676-0.135-0.0134 0.8828-0.9338-0.0675-0.0135 0.8827-1.8687-0.135-0.0134 0.8827-0.9338-0.0675-0.0134 0.8828-0.9339-0.0675-0.0134 0.8828-1.8676-0.135-0.0134 0.8828-0.9338-0.0675-0.0135 0.8826-0.9349-0.0675-0.0134 0.8827-0.9338-0.0675-0.0134 0.8828-0.9338-0.0675-0.0135 0.8828-0.9338-0.0675-0.0134 0.8828-0.9338-0.0675-0.0134 0.8828-0.9349-0.0676-0.0269 1.7654-0.9338-0.0675-0.0134 0.8828-0.9338-0.0675-0.0269 1.7656-0.9338-0.0675-0.0134 0.8828-0.9338-0.0675-0.0269 1.7655-0.9338-0.0675-0.0269 1.7655-0.9349-0.0676-0.0403 2.6484-0.9338-0.0675-0.0268 1.7655-0.9338-0.0675-0.0537 3.5311-0.9339-0.0675-0.0537 3.5309-0.9338-0.0675-0.2552 16.773 0.9338 0.0675-0.0537 3.5303 0.9338 0.0675-0.0403 2.6488 0.9339 0.0675-0.0403 2.6488 0.9338 0.0675-0.0269 1.7651 0.9349 0.0676-0.0269 1.7652-1.8687-0.1351 0.0135-0.8826-2.8015-0.2025 0.0135-0.8826-3.7363-0.2701 0.0134-0.8826-4.6701-0.3376 0.0134-0.8826-14.944-1.0804-0.0134 0.8826-5.604-0.4051-0.0135 0.8825-2.802-0.2025-0.0135 0.8826-2.8019-0.2026-0.0135 0.8826-1.868-0.1351-0.0134 0.8826-0.9341-0.0675-0.0134 0.8836-1.8679-0.1351-0.0135 0.8826-1.868-0.135-0.0134 0.8826-0.9341-0.0676-0.0134 0.8826-1.868-0.135-0.0135 0.8826-1.8679-0.1351-0.0135 0.8836-1.868-0.135-0.0134 0.8826-0.9341-0.0676-0.0134 0.8826-0.934-0.0675-0.0134 0.8826-0.9341-0.0675-0.0134 0.8825-0.934-0.0675-0.0135 0.8836-1.8679-0.135-0.0134 0.8826-0.934-0.0676-0.0135 0.8826-0.934-0.0675-0.0134 0.8826-0.9341-0.0676-0.0134 0.8826-0.934-0.0675-0.0269 1.7662-1.868-0.1351-0.0134 0.8826-0.934-0.0675-0.0134 0.8826-0.934-0.0675-0.0134 0.8826-0.9341-0.0676-0.0268 1.7662-0.9341-0.0675-0.0268 1.7652-0.934-0.0676-0.02689 1.7654-0.93403-0.068-0.02687 1.766-0.93402-0.067-0.04028 2.648-0.93392-0.068-0.02687 1.766-0.93402-0.067-0.04029 2.648-0.93402-0.068-0.05373 3.531-0.93402-0.067-0.09401 6.179-0.93402-0.068-0.16116 10.593 0.93402 0.068-0.09402 6.18 0.93403 0.068-0.06715 4.414 0.93402 0.067-0.04028 2.648 0.93402 0.067-0.0403 2.649 0.93392 0.068-0.04028 2.647 0.93402 0.068-0.04029 2.649 0.93402 0.067-0.02685 1.765 0.93407 0.068-0.0269 1.766 0.934 0.068-0.0269 1.765 0.9341 0.067-0.0269 1.765 0.934 0.068-0.0268 1.766 0.9339 0.068-0.0269 1.765 0.9341 0.067-0.0269 1.767 0.934 0.067-0.0134 0.883 0.934 0.067-0.0134 0.883 0.934 0.067-0.0269 1.766 0.9341 0.067-0.0135 0.883 0.9341 0.067-0.0269 1.766 0.9339 0.068-0.0134 0.882 0.934 0.068-0.0134 0.883 0.934 0.067-0.0269 1.766 0.9341 0.068-0.0135 0.882 0.9341 0.068-0.0135 0.882 0.9341 0.068-0.0135 0.883 0.9341 0.067-0.0135 0.883 0.9341 0.067-0.0269 1.766 0.9339 0.068-0.0134 0.882 0.934 0.068-0.0134 0.883 0.934 0.067-0.0134 0.883 0.934 0.067-0.0134 0.883 0.934 0.067-0.0135 0.884 0.9341 0.067-0.0135 0.883 0.9341 0.068-0.0135 0.882 0.934 0.068-0.0135 0.882 0.9341 0.068-0.0269 1.766-0.934-0.068-0.0135 0.883-0.9339-0.068-0.0134 0.883-0.934-0.067-0.0135 0.882-0.934-0.067-0.0134 0.882-1.8681-0.135-0.0134 0.884-0.934-0.068-0.0135 0.883-0.934-0.068-0.0134 0.883-0.9339-0.068-0.0135 0.883-0.934-0.068-0.0134 0.883-0.934-0.068-0.0135 0.883-0.934-0.067-0.0134 0.883-0.934-0.067-0.0269 1.765-0.934-0.068-0.0135 0.883-0.934-0.068-0.0134 0.883-0.934-0.068-0.0135 0.884-0.9339-0.068-0.0268 1.766-0.9341-0.068-0.0134 0.883-0.934-0.068-0.0269 1.765-0.934-0.067-0.0134 0.883-0.9341-0.067-0.0268 1.765-0.934-0.068-0.0269 1.766-0.934-0.068-0.0269 1.766-0.9339-0.067-0.0269 1.765-0.934-0.068-0.0269 1.767-0.934-0.068-0.0403 2.648-0.93399-0.068-0.05372 3.532-0.93403-0.068-0.05372 3.532-0.93402-0.068-0.24174 15.89 0.93402 0.067-0.08058 5.297 0.93403 0.067-0.0403 2.649 0.93402 0.067-0.04028 2.648 0.93401 0.068-0.0269 1.766 0.9341 0.067-0.0269 1.766 0.9339 0.067-0.0268 1.765 0.934 0.068-0.0269 1.766 0.9341 0.067-0.0135 0.883 0.934 0.068-0.0268 1.765 0.934 0.067-0.0134 0.883 0.934 0.067-0.0134 0.884 0.934 0.068-0.0134 0.882 0.9339 0.068-0.0134 0.882 0.934 0.068-0.0134 0.882 0.934 0.068-0.0134 0.882 0.934 0.068-0.0135 0.884 0.9341 0.067-0.0135 0.883 0.9341 0.067-0.0135 0.883 0.9341 0.067-0.0135 0.883 1.868 0.135-0.0135 0.882 0.9341 0.068-0.0135 0.883 0.9341 0.067-0.0135 0.884 1.8681 0.135-0.0135 0.882 1.8681 0.135-0.0134 0.883 0.9339 0.067-0.0134 0.883 1.868 0.135-0.0134 0.883 1.868 0.135-0.0134 0.883 1.868 0.135-0.0134 0.883 1.8679 0.135-0.0134 0.883 2.8021 0.202-0.0134 0.883 1.868 0.135-0.0134 0.882 3.736 0.27-0.0135 0.883 3.7361 0.27-0.0134 0.884 7.4716 0.54-0.1208 7.944 0.9349 0.068-0.0672 4.414 0.9338 0.067-0.0537 3.532 0.9338 0.067-0.0403 2.649 0.9338 0.067-0.0268 1.766 0.9338 0.067-0.0269 1.765 0.9338 0.068-0.0268 1.766 0.9348 0.067-0.0268 1.766 0.9338 0.067-0.0134 0.883 0.9338 0.067-0.0134 0.883 0.9338 0.067-0.0269 1.766 0.9338 0.068-0.0134 0.883 0.9349 0.067-0.0135 0.883 0.9338 0.067-0.0134 0.883 0.9338 0.067-0.0134 0.884 0.9338 0.067-0.0134 0.883 0.9338 0.068-0.0135 0.882 0.9349 0.068-0.0134 0.882 0.9338 0.068-0.0134 0.882 0.9338 0.068-0.0134 0.883 1.8676 0.135-0.0135 0.883 0.9338 0.068-0.0134 0.882 1.8687 0.135-0.0134 0.883 1.8676 0.135-0.0134 0.882 1.8687 0.136-0.0135 0.882 1.8677 0.135-0.0135 0.884 2.8014 0.202-0.0134 0.883 3.7363 0.27-0.0134 0.883 15.878 1.147 0.013-0.882 4.67 0.338 0.014-0.883 3.736 0.27 0.013-0.884 2.803 0.203 0.013-0.883 1.868 0.135 0.013-0.882 2.803 0.202 0.013-0.882 1.868 0.135 0.013-0.883 1.868 0.135 0.013-0.883 1.869 0.135 0.014-0.883 1.867 0.135 0.014-0.882 1.867 0.135 0.014-0.883 0.935 0.068 0.013-0.883 1.868 0.135 0.013-0.882 0.934 0.067 0.013-0.884 0.934 0.068 0.013-0.883 1.869 0.135 0.014-0.882 0.933 0.067 0.027-1.765 0.934 0.068 0.014-0.884 0.933 0.068 0.014-0.883 0.934 0.068 0.013-0.883 0.935 0.068 0.013-0.883 0.934 0.068 0.027-1.766 0.934 0.068 0.013-0.884 0.934 0.068 0.027-1.765 0.934 0.067 0.013-0.882 0.935 0.067-0.027 1.765 0.934 0.068-0.013 0.882 0.933 0.068-0.027 1.766 0.934 0.068-0.027 1.765 0.934 0.067-0.013 0.883 0.935 0.067-0.027 1.767 0.934 0.067-0.014 0.883 0.934 0.067-0.013 0.883 0.933 0.067-0.013 0.883 0.934 0.067-0.014 0.883 0.934 0.067-0.013 0.884 0.935 0.068-0.014 0.882 0.934 0.068-0.013 0.882 0.933 0.068-0.013 0.882 0.934 0.068-0.014 0.883 0.934 0.067-0.013 0.883 1.868 0.135-0.013 0.883 1.868 0.135-0.014 0.883 0.934 0.067-0.013 0.883 1.868 0.135-0.013 0.883 1.867 0.135-0.013 0.882 2.802 0.203-0.013 0.883 3.735 0.271-0.013 0.882 15.879 1.148 0.013-0.883 3.736 0.27 0.013-0.883 3.736 0.27 0.014-0.883 2.802 0.203 0.014-0.883 2.801 0.203 0.014-0.883 1.868 0.135 0.014-0.882 1.867 0.135 0.014-0.884 1.867 0.135 0.014-0.882 0.934 0.067 0.013-0.882 1.869 0.135 0.013-0.883 1.868 0.135 0.013-0.882 0.934 0.067 0.013-0.882 0.935 0.067 0.014-0.883 0.934 0.067 0.013-0.883 1.868 0.135 0.026-1.765 0.934 0.068 0.014-0.883 0.933 0.068 0.014-0.884 0.935 0.068 0.013-0.883 0.934 0.068 0.027-1.766 0.934 0.068 0.013-0.883 0.934 0.068 0.027-1.766 0.934 0.067 0.04-2.648 0.935 0.068 0.013-0.883 0.934 0.068 0.04-2.649 0.934 0.068 0.027-1.765 0.934 0.067 0.013-0.884 0.934 0.068-0.013 0.884 1.868 0.135-0.013 0.882 2.801 0.203-0.013 0.882 2.802 0.203-0.013 0.883 2.801 0.202-0.013 0.883 4.67 0.337-0.013 0.884 13.076 0.945 0.014-0.883 4.67 0.337 0.013-0.882 3.736 0.27 0.014-0.883 2.801 0.203 0.014-0.883 1.868 0.135 0.014-0.882 1.868 0.135 0.013-0.884 1.868 0.135 0.013-0.883 1.869 0.136 0.013-0.883 0.934 0.068 0.013-0.883 1.868 0.135 0.013-0.883 0.934 0.068 0.014-0.883 0.935 0.068 0.013-0.884 0.934 0.068 0.013-0.883 0.934 0.068 0.013-0.883 0.934 0.068 0.014-0.883 0.933 0.068 0.014-0.883 0.935 0.068 0.013-0.884 0.934 0.067 0.027-1.765 0.934 0.068 0.013-0.883 0.934 0.068 0.027-1.766 0.934 0.067 0.026-1.765 0.934 0.067 0.027-1.765 0.935 0.068 0.04-2.649 0.934 0.068 0.067-4.414 0.934 0.067 0.054-3.53 0.934 0.067 0.12-7.945 0.934 0.068 0.242-15.891-0.934-0.068 0.121-7.944-0.934-0.067 0.067-4.414-0.933-0.068 0.053-3.531-0.933-0.068 0.013-0.882 4.67 0.337 0.014-0.882 2.801 0.202 0.013-0.882 1.868 0.135 0.013-0.884 1.869 0.135 0.014-0.882 0.933 0.067 0.014-0.882 0.934 0.067 0.013-0.882 0.934 0.067 0.013-0.883 0.935 0.068 0.027-1.766 0.934 0.067 0.027-1.765 0.933 0.068 0.041-2.649 0.934 0.067 0.12-7.944 0.934 0.068-0.013 0.882 8.406 0.608 0.014-0.883 4.67 0.338 0.013-0.884 2.803 0.203 0.013-0.883 1.868 0.135 0.013-0.882 1.868 0.135 0.013-0.883 1.869 0.135 0.013-0.882 0.934 0.067 0.014-0.882 0.933 0.067 0.014-0.883 0.934 0.067 0.013-0.882 0.934 0.067 0.013-0.882 0.935 0.067 0.014-0.882 0.933 0.067 0.014-0.883 0.934 0.068 0.027-1.766 0.933 0.067 0.027-1.765 0.934 0.068 0.027-1.766 0.934 0.068 0.027-1.766 0.934 0.067 0.041-2.647 0.934 0.067 0.04-2.649 0.934 0.068 0.053-3.531 0.934 0.067 0.121-7.944 0.934 0.067 0.054-3.531-0.934-0.068 0.121-7.945-0.934-0.067 0.054-3.532-0.934-0.067 0.04-2.648-0.934-0.068 0.041-2.648-0.935-0.068 0.04-2.648-0.934-0.067 0.027-1.766-0.934-0.068 0.027-1.765-0.934-0.067 0.027-1.766-0.934-0.067 0.027-1.766-0.934-0.068 0.027-1.765-0.935-0.068 0.027-1.765-0.934-0.067 0.014-0.884-0.934-0.067 0.027-1.766-0.934-0.067 0.027-1.765-0.934-0.068 0.014-0.883-0.935-0.068 0.013-0.883-0.934-0.067 0.027-1.765-0.934-0.068 0.014-0.882-0.934-0.068 0.013-0.883-0.933-0.068 0.013-0.882-0.934-0.068 0.014-0.883-0.935-0.067 0.013-0.883-0.934-0.067 0.014-0.883-0.934-0.067 0.013-0.883-0.933-0.067 0.013-0.884-0.934-0.068 0.014-0.882-0.935-0.068 0.013-0.882-0.934-0.068 0.014-0.882-0.934-0.068 0.013-0.882-0.933-0.068 0.013-0.884-0.934-0.067 0.014-0.883-1.869-0.135 0.013-0.882-0.933-0.068 0.013-0.882-0.934-0.068 0.014-0.883-1.868-0.135 0.013-0.883-1.868-0.135 0.013-0.883-0.934-0.067 0.014-0.883-1.868-0.135 0.014-0.883-1.869-0.135 0.013-0.882-2.801-0.203 0.013-0.882 2.802 0.202 0.013-0.883 1.869 0.135 0.013-0.883 1.868 0.135 0.013-0.882 1.868 0.135 0.013-0.883 0.935 0.068 0.014-0.883 0.934 0.068 0.013-0.884 0.934 0.067 0.013-0.882 0.934 0.067 0.014-0.882 0.933 0.067 0.014-0.882 0.934 0.067 0.013-0.882 0.935 0.067 0.013-0.882 0.934 0.067 0.014-0.883 0.933 0.067 0.014-0.883 0.934 0.068 0.026-1.765 0.934 0.067 0.014-0.882 0.935 0.067 0.013-0.883 0.934 0.067 0.027-1.765 0.933 0.068 0.014-0.883 0.934 0.067 0.027-1.766 0.933 0.068 0.027-1.765 0.935 0.067 0.027-1.765 0.934 0.068 0.027-1.767 0.933 0.068 0.027-1.765 0.934 0.067 0.04-2.649 0.934 0.068 0.054-3.53 0.934 0.067 0.107-7.0626-0.934-0.0675 0.054-3.5313-0.934-0.0675 0.027-1.7652-0.934-0.0675 0.027-1.7652-0.934-0.0675 0.027-1.7662-0.934-0.0675 0.014-0.8826-0.935-0.0675 0.013-0.8826-0.933-0.0675 0.026-1.7652-0.933-0.0675 0.013-0.8836-0.934-0.0675 0.014-0.8826-0.934-0.0675 0.013-0.8826-1.868-0.1351 0.013-0.8826-0.934-0.0675 0.014-0.8826-0.934-0.0675 0.013-0.8836-1.868-0.1351 0.013-0.8826-1.868-0.135 0.014-0.8826-1.868-0.135 0.014-0.8826-1.869-0.135 0.013-0.8826-1.867-0.135 0.013-0.8826-2.802-0.2026 0.013-0.8836-2.801-0.2026 0.013-0.8825-4.67-0.3377 0.013-0.8825-7.472-0.5403 0.013-0.8826-14.009-1.0127-0.013 0.8825-6.539-0.4727-0.014 0.8826-3.735-0.27-0.013 0.8826-2.803-0.2026-0.013 0.8836-1.868-0.135-0.013 0.8825-1.869-0.1351-0.013 0.8826-1.868-0.135-0.014 0.8826-1.867-0.135-0.014 0.8826-0.934-0.0676-0.014 0.8825-0.934-0.0675-0.013 0.8837-1.868-0.1351 0.309-20.304-0.934-0.0675 0.068-4.4139-0.935-0.0676 0.04-2.6483-0.934-0.0675 0.04-2.6483-0.933-0.0675 0.04-2.6483-0.934-0.0675 0.027-1.7656-0.934-0.0675 0.027-1.7655-0.934-0.0676 0.014-0.8827-0.935-0.0676 0.027-1.7655-0.934-0.0675 0.013-0.8828-0.934-0.0675 0.014-0.8828-0.934-0.0675 0.013-0.8828-0.933-0.0675 0.013-0.8828-0.935-0.0676 0.027-1.7655-0.934-0.0676 0.014-0.8827-1.868-0.1351 0.013-0.8826-0.933-0.0675 0.013-0.8828-0.935-0.0676 0.014-0.8828-1.868-0.135 0.013-0.8828-0.933-0.0675 0.013-0.8828-1.868-0.135 0.014-0.8828-1.869-0.1351 0.014-0.8828-1.868-0.135 0.013-0.8827-2.802-0.2026 0.013-0.8828-3.736-0.2701 0.013-0.8828zm5.484 8.3502 5.605 0.4052-0.014 0.8826 5.604 0.4052-0.013 0.8828 2.801 0.2025-0.013 0.8828 1.868 0.1351-0.013 0.8827 1.868 0.1351-0.014 0.8828 1.868 0.135-0.014 0.8828 0.935 0.0675-0.013 0.8828 0.934 0.0675-0.014 0.8828 1.868 0.135-0.014 0.8827 0.934 0.0675-0.013 0.8828 0.933 0.0675-0.013 0.8828 0.935 0.0676-0.013 0.8828 0.933 0.0675-0.013 0.8828 0.934 0.0675-0.027 1.7656 0.934 0.0675-0.014 0.8827 0.934 0.0675-0.027 1.7655 0.935 0.0676-0.027 1.7656 0.934 0.0675-0.027 1.7656 0.934 0.0675-0.027 1.7655 0.934 0.0675-0.04 2.6483 0.933 0.0675-0.04 2.6483 0.935 0.0676-0.067 4.4139 0.934 0.0675-0.108 7.0622 0.934 0.0675-0.027 1.7652-0.934-0.0675-0.12 7.9453-0.934-0.0675-0.054 3.5313-0.935-0.0676-0.054 3.5314-0.933-0.0675-0.054 3.5303-0.934-0.0675-0.054 3.5313-0.934-0.0675-0.053 3.5314-0.934-0.0675-0.04 2.6477-0.935-0.0676-0.041 2.6488-0.933-0.0675-0.027 1.7652-0.934-0.0675-0.04 2.6488-0.934-0.068-0.014 0.883 0.934 0.068 0.014-0.883 1.867 0.135 0.027-1.7662 0.935 0.0675 0.014-0.8825 0.933 0.0675 0.027-1.7652 0.934 0.0675 0.013-0.8826 0.934 0.0675 0.027-1.7662 0.934 0.0676 0.027-1.7652 0.935 0.0676 0.027-1.7652 0.933 0.0675 0.027-1.7662 0.934 0.0675 0.04-2.6477 0.934 0.0675 0.054-3.5313 0.934 0.0675 0.04-2.6488 0.934 0.0675 0.027-1.7652 2.802 0.2026 0.013-0.8825 2.803 0.2026 0.013-0.8826 2.802 0.2025 0.013-0.8836 2.803 0.2026 0.013-0.8826 3.735 0.2701 0.014-0.8826 3.736 0.2701 0.014-0.8826 5.604 0.4051 0.013-0.8826 15.878 1.1479-0.013 0.8826 6.538 0.4727-0.013 0.8826 3.735 0.27-0.013 0.8826 2.802 0.2026-0.013 0.8826 2.802 0.2026-0.013 0.8836 1.867 0.135-0.013 0.8826 1.868 0.135-0.014 0.8826 0.935 0.0676-0.013 0.8826 1.867 0.135-0.013 0.8826 0.934 0.0675-0.014 0.8836 0.934 0.0675-0.013 0.8826 1.868 0.1351-0.027 1.7651 0.934 0.0675-0.013 0.8826 0.934 0.0675-0.014 0.8826 0.934 0.0675-0.027 1.7662 0.934 0.0675-0.013 0.8826 0.934 0.0676-0.04 2.6488 0.934 0.0675-0.175 11.476-0.933-0.068-0.041 2.649-0.935-0.068-0.04 2.648-0.934-0.068-0.027 1.766-0.933-0.068-0.027 1.766-0.934-0.067-0.027 1.765-0.934-0.068-0.027 1.767-0.934-0.068-0.027 1.765-0.934-0.067-0.014 0.882-0.933-0.067-0.027 1.766-0.934-0.068-0.013 0.883-0.934-0.067-0.014 0.882-1.868-0.135-0.014 0.883-1.867-0.135-0.014 0.882-0.934-0.067-0.013 0.882-1.869-0.135-0.013 0.884-2.802-0.203-0.013 0.883-2.803-0.203-0.013 0.883-11.208-0.81 0.014-0.883-4.671-0.338-0.013 0.883 1.869 0.135-0.014 0.883 2.802 0.202-0.014 0.883 2.803 0.202-0.014 0.884 2.802 0.202-0.014 0.883 0.934 0.068-0.013 0.882 1.868 0.135-0.013 0.883 0.934 0.067-0.014 0.883 1.868 0.135-0.013 0.882 0.933 0.068-0.013 0.884 0.935 0.067-0.014 0.883 1.868 0.135-0.013 0.882 0.933 0.068-0.013 0.882 1.869 0.136-0.014 0.882 0.934 0.068-0.013 0.883 0.933 0.068-0.013 0.882 0.934 0.068-0.014 0.882 1.869 0.136-0.013 0.882 0.933 0.068-0.013 0.882 0.934 0.068-0.014 0.883 0.934 0.068-0.013 0.882 0.934 0.068-0.014 0.883 0.934 0.067-0.014 0.883 0.935 0.067-0.013 0.883 0.934 0.067-0.014 0.883 0.934 0.067-0.013 0.884 0.934 0.067-0.014 0.883 0.934 0.068-0.014 0.882 0.935 0.068-0.013 0.882 0.934 0.068-0.014 0.882 0.934 0.068-0.027 1.766 0.934 0.068-0.013 0.882 0.933 0.068-0.013 0.882 0.935 0.068-0.027 1.766 0.934 0.068-0.014 0.882 0.934 0.068-0.027 1.765 0.934 0.067-0.027 1.765 0.934 0.068-0.013 0.884 0.933 0.067-0.026 1.765 0.935 0.068-0.027 1.765 0.933 0.068-0.04 2.648 0.934 0.068-0.027 1.765 0.934 0.067-0.027 1.767 0.934 0.067-0.04 2.648 0.934 0.068-0.04 2.648 0.934 0.068-0.04 2.648 0.934 0.067-0.054 3.531 0.934 0.068-0.188 12.359-0.934-0.067-0.054 3.53-0.934-0.068-0.053 3.532-0.934-0.068-0.041 2.649-0.934-0.068-0.027 1.766-0.934-0.068-0.027 1.766-0.934-0.067-0.013 0.882-0.934-0.067-0.027 1.765-0.934-0.067-0.013 0.882-0.935-0.067-0.013 0.882-0.934-0.067-0.014 0.883-1.867-0.135-0.014 0.883-0.934-0.068-0.013 0.883-1.869-0.135-0.013 0.882-1.868-0.135-0.013 0.883-2.803-0.203-0.013 0.884-10.274-0.743 0.013-0.883-4.67-0.338 0.014-0.883-3.736-0.27 0.014-0.882-2.803-0.203 0.014-0.882-2.802-0.203 0.014-0.883-3.737-0.27 0.014-0.883-1.869-0.135-0.013 0.883 0.935 0.068-0.027 1.765 0.934 0.068-0.014 0.882 0.934 0.068-0.013 0.882 0.933 0.068-0.013 0.883 0.934 0.068-0.014 0.882 1.869 0.135-0.013 0.883 0.933 0.068-0.013 0.882 2.801 0.203-0.013 0.882 1.869 0.135-0.054 3.532 0.934 0.067-0.014 0.883-0.934-0.068-0.067 4.414-0.934-0.067-0.04 2.648-0.935-0.067-0.027 1.765-0.933-0.067-0.014 0.882-0.934-0.067-0.013 0.882-1.868-0.135-0.013 0.884-2.803-0.203-0.013 0.883-4.67-0.338 0.013-0.882-0.934-0.068 0.041-2.649-0.934-0.067 0.013-0.883-0.933-0.067 0.026-1.765-0.933-0.068 0.026-1.766-0.934-0.068 0.013-0.882-0.934-0.068 0.014-0.882-0.934-0.068 0.027-1.766-0.934-0.068 0.013-0.882-0.933-0.068 0.013-0.882-0.935-0.068 0.013-0.882-1.867-0.135 0.013-0.883-0.934-0.068 0.014-0.883-0.934-0.068 0.014-0.882-0.935-0.068 0.013-0.882-2.801-0.203-0.014 0.883 0.934 0.067-0.027 1.766 0.934 0.068-0.013 0.882 0.933 0.068-0.013 0.882 0.935 0.068-0.014 0.883 0.934 0.067-0.027 1.766 0.934 0.068-0.013 0.882 0.934 0.068-0.027 1.765 0.933 0.068-0.026 1.766 0.935 0.067-0.014 0.883 0.934 0.067-0.04 2.648 0.933 0.068-0.026 1.766 0.933 0.067-0.04 2.648 0.934 0.068-0.04 2.648 0.934 0.068-0.04 2.648 0.934 0.067-0.067 4.414 0.934 0.068-0.081 5.296 0.934 0.068-0.376 24.718-0.934-0.067-0.081 5.296-0.933-0.067-0.054 3.53-0.934-0.067-0.054 3.531-0.934-0.068-0.027 1.767-0.934-0.068-0.027 1.765-0.934-0.067-0.027 1.765-0.933-0.068-0.014 0.883-0.934-0.068-0.027 1.767-0.935-0.068-0.013 0.883-0.934-0.068-0.013 0.883-0.934-0.068-0.013 0.883-0.934-0.068-0.014 0.884-0.933-0.068-0.014 0.883-1.869-0.135-0.013 0.882-0.934-0.067-0.013 0.882-1.868-0.135-0.013 0.883-1.869-0.135-0.013 0.884-1.868-0.135-0.013 0.882-1.868-0.135-0.014 0.883-3.736-0.27-0.013 0.882-3.737-0.27-0.013 0.883-14.01-1.013 0.013-0.883-3.735-0.27 0.013-0.882-3.736-0.271 0.013-0.882-2.802-0.203 0.013-0.882-1.867-0.135 0.013-0.884-2.802-0.203 0.013-0.882-1.868-0.135 0.014-0.883-2.803-0.202 0.014-0.883-1.868-0.135 0.014-0.883-1.868-0.135 0.013-0.883-1.868-0.135 0.013-0.883-1.867-0.135 0.013-0.882-1.868-0.135-0.013 0.882 0.934 0.068-0.014 0.882 0.934 0.068-0.027 1.766 0.934 0.067-0.013 0.883 0.933 0.068-0.013 0.882 0.934 0.068-0.014 0.882 1.869 0.135-0.013 0.884 0.933 0.067-0.013 0.883 0.934 0.068-0.027 1.765-0.934-0.068-0.013 0.883-0.934-0.068-0.027 1.766-0.934-0.067-0.013 0.883-0.935-0.068-0.013 0.883-0.934-0.068-0.027 1.765-0.934-0.067-0.013 0.883-0.934-0.067-0.014 0.882-0.933-0.067-0.014 0.882-0.934-0.067-0.013 0.882-0.935-0.067-0.013 0.882-0.934-0.067-0.014 0.884-0.933-0.068-0.014 0.883-0.934-0.068-0.013 0.883-0.934-0.068-0.013 0.883-0.935-0.068-0.014 0.883-1.867-0.135-0.014 0.882-0.934-0.067-0.013 0.883-1.868-0.135-0.013 0.883-1.869-0.135-0.013 0.882-1.868-0.135-0.013 0.883-1.869-0.135-0.013 0.883-2.802-0.203-0.013 0.884-2.803-0.203-0.013 0.883-3.735-0.27-0.014 0.882-6.539-0.473-0.013 0.883-5.604-0.405 0.013-0.883-4.67-0.337 0.014-0.883-1.868-0.135 0.014-0.882-1.869-0.136 0.013-0.883-1.867-0.135 0.013-0.883-1.867-0.135 0.013-0.882-0.935-0.068 0.013-0.883-0.933-0.067 0.013-0.883-0.934-0.067 0.014-0.884-1.868-0.135 0.014-0.882-0.934-0.068 0.027-1.765-0.935-0.068 0.013-0.882-0.934-0.068 0.014-0.882-0.934-0.068 0.013-0.883-0.933-0.068 0.026-1.765-0.933-0.068 0.013-0.882-0.935-0.068 0.027-1.766-0.934-0.067 0.027-1.766-0.934-0.067 0.027-1.765-0.934-0.068 0.041-2.649-0.934-0.067 0.054-3.531-0.934-0.068 0.053-3.53-0.934-0.068 0.08-5.297-0.934-0.068 0.202-13.241 0.934 0.068 0.053-3.531 0.935 0.067 0.054-3.531 0.934 0.067 0.027-1.765 0.933 0.068 0.041-2.649 0.933 0.067 0.027-1.765-0.933-0.067 0.013-0.883-0.934-0.067-0.013 0.882-0.934-0.067-0.013 0.882-0.935-0.067-0.014 0.882-0.934-0.067-0.026 1.766-0.934-0.068-0.014 0.883-0.934-0.068-0.026 1.766-0.934-0.068-0.014 0.883-0.935-0.068-0.026 1.766-0.934-0.067-0.04 2.648-0.934-0.068-0.027 1.766-0.934-0.067-0.054 3.53-0.933-0.067-0.068 4.413-0.935-0.067-0.067 4.414 0.935 0.067-0.121 7.946 0.934 0.067-0.054 3.532 0.934 0.067-0.067 4.414-0.934-0.068-0.013 0.883-0.934-0.067-0.027 1.765-0.935-0.068-0.013 0.883-0.934-0.068-0.027 1.766-0.934-0.067-0.013 0.882-0.934-0.067-0.013 0.883-0.934-0.068-0.014 0.883-0.933-0.068-0.014 0.884-1.868-0.135-0.014 0.882-0.934-0.067-0.013 0.882-1.868-0.135-0.013 0.883-0.935-0.068-0.013 0.883-1.868-0.135-0.014 0.882-1.867-0.135-0.014 0.884-1.868-0.135-0.014 0.882-1.867-0.135-0.014 0.883-1.867-0.135-0.014 0.883-1.868-0.135-0.014 0.882-2.801-0.202-0.014 0.883-2.802-0.202-0.014 0.882-2.801-0.202-0.014 0.882-2.802-0.202-0.014 0.882-4.67-0.337-0.013 0.882-12.142-0.878 0.0134-0.882-3.7363-0.27 0.0134-0.883-1.8687-0.135 0.0135-0.883-1.8677-0.135 0.0135-0.882-1.8677-0.135 0.0135-0.884-1.8687-0.135 0.0134-0.882-0.9338-0.068 0.0134-0.883-1.8676-0.135 0.0134-0.882-0.9338-0.068 0.0135-0.882-0.9349-0.068 0.0134-0.883-0.9338-0.068 0.0134-0.883-0.9338-0.067 0.0135-0.883-0.9339-0.067 0.0135-0.883-0.9338-0.067 0.0134-0.883-0.9338-0.067 0.0269-1.767-0.9349-0.067 0.0134-0.883-0.9338-0.067 0.0268-1.765-0.9338-0.068 0.0269-1.766-0.9338-0.068 0.0269-1.765-0.9339-0.067 0.0269-1.765-0.9349-0.068 0.0537-3.531-0.9338-0.068 0.0672-4.414-0.9338-0.067 0.0806-5.297-0.9339-0.067 0.2015-13.242 0.9338 0.067 0.0403-2.647 0.9338 0.067 0.0403-2.649 0.9338 0.068 0.0537-3.531 0.9349 0.067 0.0403-2.648 0.9338 0.068 0.1075-7.063-0.9339-0.067-0.0134 0.882-0.9349-0.067-0.0134 0.883-0.9338-0.067-0.0134 0.882-0.9339-0.067-0.0268 1.765-0.9338-0.067-0.0134 0.882-0.9339-0.067-0.0134 0.882-0.9349-0.067-0.0268 1.766-0.9338-0.068-0.0269 1.765-0.9338-0.067-0.0269 1.766-0.9338-0.067-0.0268 1.765-0.9339-0.068-0.0537 3.532-0.9338-0.068-0.0671 4.414-0.9349-0.068-0.0537 3.531-2.8015-0.203 0.0135-0.882-4.6703-0.338 0.0135-0.883-2.8021-0.202 0.0134-0.883-2.8021-0.202 0.0135-0.883-1.868-0.135 0.0135-0.883-1.8681-0.136 0.0135-0.882-1.8681-0.135 0.0134-0.883-1.868-0.135 0.0134-0.882-0.9339-0.068 0.0134-0.882-1.868-0.136 0.0134-0.882-0.934-0.068 0.0134-0.883-1.868-0.135 0.0134-0.883-0.934-0.067 0.0134-0.883-0.9339-0.067 0.0134-0.883-1.868-0.135 0.0134-0.883-0.934-0.067 0.0134-0.884-0.934-0.067 0.0134-0.883-0.934-0.067 0.0134-0.883-0.934-0.068 0.0134-0.882-0.9339-0.068 0.0134-0.882-0.934-0.068 0.0135-0.883-0.9341-0.068 0.0135-0.882-0.9341-0.068 0.0269-1.765-0.934-0.068 0.0134-0.882-0.934-0.068 0.0268-1.766-0.934-0.068 0.0269-1.765-0.9341-0.067 0.0269-1.765-0.9339-0.068 0.0403-2.649-0.934-0.067 0.0403-2.649-0.9341-0.067 0.1075-7.062-0.9341-0.068 0.1075-7.061 0.934 0.067 0.0806-5.297 0.934 0.067 0.0403-2.648 0.934 0.068 0.0403-2.649 0.9339 0.068 0.0403-2.648 0.934 0.067 0.0269-1.766 0.934 0.068 0.0269-1.765 0.934 0.067 0.0134-0.882 0.9341 0.067 0.0268-1.766 0.9341 0.067 0.0268-1.765 0.934 0.068 0.0135-0.883 0.934 0.068 0.0134-0.883 0.9339 0.068 0.0269-1.767 0.934 0.068 0.0135-0.883 0.934 0.068 0.0134-0.883 0.934 0.068 0.0269-1.765 0.934 0.067 0.0135-0.883 0.934 0.067 0.0134-0.882 0.934 0.067 0.0135-0.882 0.9339 0.067 0.0134-0.883 0.934 0.068 0.0135-0.883 0.934 0.068 0.0134-0.884 0.934 0.068 0.0135-0.883 0.934 0.068 0.0134-0.883 0.934 0.068 0.0135-0.883 0.934 0.068 0.0134-0.883 0.9339 0.068 0.0135-0.883 0.934 0.068-0.0134 0.882 0.934 0.068-0.0134 0.882 0.934 0.068-0.0134 0.882 0.934 0.068-0.0134 0.882 0.934 0.068-0.0134 0.883 0.934 0.067-0.0135 0.884 0.9339 0.067-0.0134 0.883 0.934 0.067-0.0134 0.883 0.934 0.067-0.0134 0.883 0.934 0.067-0.0134 0.883 0.934 0.068-0.0134 0.883 1.868 0.135-0.0134 0.883 0.934 0.067-0.0134 0.883 0.9339 0.067-0.0134 0.883 0.934 0.068-0.0134 0.882 1.868 0.135-0.0134 0.883 0.9343 0.067-0.0135 0.884 0.9338 0.067-0.0134 0.883 1.8676 0.135-0.0134 0.883 1.8687 0.135-0.0134 0.882 0.9338 0.068-0.0135 0.882 1.8677 0.135-0.0135 0.884 1.8687 0.135-0.0134 0.883 1.8676 0.135-0.0134 0.882 5.6039 0.405 0.0134-0.882 0.9338 0.067 0.0269-1.766-0.9338-0.067 0.0134-0.883-1.8676-0.135 0.0134-0.883-1.8687-0.135 0.0135-0.882-0.9338-0.068 0.0134-0.882-1.8676-0.135 0.0134-0.884-0.9338-0.067 0.0134-0.883-0.9349-0.068 0.0135-0.882-1.8676-0.135 0.0134-0.883-0.9338-0.067 0.0134-0.883-0.9338-0.067 0.0134-0.883-0.9338-0.067 0.0135-0.884-1.8687-0.135 0.0134-0.883-0.9338-0.067 0.0134-0.883-0.9338-0.067 0.0134-0.883-0.9342-0.067 0.0134-0.883-0.934-0.068 0.0134-0.883-0.934-0.068 0.0134-0.882-0.934-0.068 0.0134-0.882-0.9339-0.068 0.0134-0.882-0.934-0.068 0.0134-0.883-0.934-0.067 0.0134-0.883-0.934-0.067 0.0135-0.884-0.9341-0.067 0.0135-0.883-0.9341-0.067 0.0135-0.883-0.9341-0.068 0.0135-0.882-0.9341-0.068 0.0135-0.882-0.9339-0.068 0.0134-0.883-0.934-0.068 0.0134-0.882-0.934-0.068 0.0134-0.883-0.934-0.067 0.0134-0.883-0.934-0.067 0.0134-0.883-0.934-0.067 0.0134-0.884-0.934-0.067 0.0269-1.766-0.9339-0.067 0.0134-0.883-0.934-0.067 0.0134-0.883-0.934-0.067 0.0134-0.883-0.934-0.067 0.0134-0.884-0.934-0.068 0.0134-0.882-0.934-0.068 0.0134-0.882-0.934-0.068 0.0268-1.765-0.9339-0.067 0.0135-0.884-0.9341-0.068 0.0135-0.882-0.9341-0.068 0.0269-1.765-0.934-0.067 0.0134-0.883-0.934-0.068 0.0134-0.883-0.934-0.068 0.0134-0.882-0.934-0.068 0.0269-1.765-0.934-0.067 0.0135-0.883-0.9341-0.068 0.0269-1.766-0.934-0.067 0.0268-1.765-0.934-0.068 0.0134-0.883-0.934-0.067 0.0269-1.766-0.934-0.068 0.0134-0.882-0.934-0.068 0.0268-1.765-0.934-0.068 0.0403-2.648-0.9339-0.068 0.0268-1.765-0.934-0.068 0.0269-1.765-0.9341-0.067 0.0269-1.766-0.934-0.068 0.0403-2.648-0.9341-0.067 0.0403-2.649-0.934-0.067 0.0537-3.532-0.934-0.067 0.0672-4.414-0.9339-0.068 0.1208-7.944-0.934-0.068 0.0671-4.414 0.9341 0.068 0.1074-7.063 0.9339 0.068 0.0403-2.648 0.934 0.068 0.0403-2.649 0.9341 0.067 0.0268-1.765 0.934 0.068 0.0403-2.649 0.9341 0.067 0.0268-1.765 0.934 0.068 0.0269-1.765 0.934 0.067 0.0135-0.883 0.9339 0.067 0.0134-0.883 0.934 0.068 0.0135-0.8826 0.934 0.0676 0.0134-0.8826 0.934 0.0675 0.0269-1.7662 0.934 0.0675 0.0135-0.8825 0.934 0.0675 0.0134-0.8826 0.934 0.0675 0.0135-0.8826 1.8679 0.1351 0.0134-0.8826 0.9341 0.0675 0.0134-0.8836 0.934 0.0675 0.0134-0.8825 0.9341 0.0675 0.0134-0.8826 1.868 0.135 0.0135-0.8825 1.8679 0.135 0.0134-0.8826 1.8681 0.1351 0.0134-0.8826 0.934 0.0675 0.0135-0.8836 1.868 0.135 0.0135-0.8825 2.8019 0.2025 0.0135-0.8826 1.868 0.1351 0.0134-0.8826 2.8021 0.2026 0.0134-0.8826 4.67 0.3376 0.0135-0.8836 4.67 0.3376 0.0134-0.8826 10.274 0.7428-0.0135 0.8825 6.5388 0.4728-0.0134 0.8836 3.7352 0.27-0.0134 0.8826 3.7363 0.2701-0.0134 0.8826 1.8676 0.135-0.0134 0.8826 2.8025 0.2026-0.0134 0.8826 1.8676 0.135-0.0135 0.8836 1.8687 0.1351-0.0134 0.8826 1.8676 0.135-0.0134 0.8826 1.8676 0.135-0.0134 0.8826 0.9349 0.0675-0.0135 0.8826 1.8677 0.135-0.0135 0.8826 0.9338 0.0675-0.0134 0.8836 0.9338 0.0675-0.0134 0.8826 1.8687 0.1348-0.0135 0.883 0.9337 0.067-0.013 0.883 0.934 0.068-0.014 0.882 0.934 0.068-0.014 0.883 0.935 0.068 0.027-1.766-0.935-0.068 0.014-0.883-0.934-0.067 0.013-0.883-0.933-0.067 0.013-0.8828-0.9338-0.0675 0.0134-0.8836-0.9338-0.0675 0.0135-0.8826-0.9349-0.0675 0.0134-0.8826-0.9338-0.0675 0.0134-0.8826-0.9338-0.0675 0.0134-0.8826-0.9338-0.0675 0.0135-0.8826-0.9338-0.0675 0.0134-0.8836-1.8687-0.1351 0.0134-0.8826-0.9338-0.0675 0.0134-0.8826-0.9338-0.0675 0.0135-0.8826-0.9338-0.0675 0.0134-0.8826-1.8687-0.1351 0.0134-0.8836-0.9338-0.0675 0.0134-0.8825-1.8676-0.1351 0.0135-0.8825 0.9338 0.0675 0.0134-0.8826-0.9338-0.0675 0.0269-1.7662-0.9339-0.0675 0.0269-1.7652-0.9349-0.0676 0.0403-2.6477-0.9338-0.0675 0.0537-3.5314-0.9338-0.0675 0.0806-5.2965-0.9338-0.0675 0.1746-11.477 0.9338 0.0676 0.0806-5.2966 0.9338 0.0675 0.0403-2.6481 0.9338 0.0675 0.0403-2.6484 0.9348 0.0676 0.0269-1.7654 0.9338 0.0675 0.0269-1.7656 0.9338 0.0675 0.0268-1.7656 0.9339 0.0675 0.0268-1.7655 0.9338 0.0675 0.0135-0.8827 0.9348 0.0676 0.0135-0.8828 0.9338 0.0675 0.0268-1.7656 0.9338 0.0675 0.0135-0.8828 0.9338 0.0675 0.0134-0.8827 0.9338 0.0675 0.0135-0.8828 0.9338 0.0675 0.0134-0.8827 1.8687 0.1351 0.0134-0.8828 0.9338 0.0675 0.0135-0.8828 0.9338 0.0675 0.0134-0.8827 1.8687 0.135 0.0134-0.8827 0.9335 0.0675 0.014-0.8828 1.867 0.135 0.014-0.8828 1.869 0.1351 0.013-0.8827 1.868 0.135 0.013-0.8827 2.801 0.2025 0.014-0.8828 2.802 0.2026 0.014-0.8828 5.604 0.4051 0.013-0.8828 6.538 0.4727-0.014 0.8828 6.539 0.4727-0.013 0.8828 3.735 0.27-0.013 0.8828 2.802 0.2026-0.013 0.8828 1.867 0.135-0.013 0.8827 2.802 0.2026-0.013 0.8828 1.868 0.135-0.014 0.8828 1.869 0.1351-0.014 0.8828 1.868 0.135-0.013 0.8828 0.933 0.0675-0.013 0.8828 1.869 0.135-0.014 0.8828 1.868 0.1351-0.014 0.8826 0.934 0.0675-0.013 0.8828 1.869 0.1351-0.014 0.8828 0.934 0.0675-0.014 0.8828 1.868 0.135-0.013 0.8828 0.933 0.0675-0.013 0.8828 1.869 0.1351-0.014 0.8828 0.934 0.0675-0.013 0.8827 0.933 0.0675-0.013 0.8828 0.934 0.0675-0.014 0.8828 0.934 0.0675-0.013 0.8828 0.935 0.0675-0.014 0.8828 0.934 0.0675-0.013 0.8828 0.933 0.0675-0.013 0.8828 0.934 0.0675-0.014 0.8828 0.934 0.0675-0.013 0.8827 0.935 0.0676-0.014 0.8828 0.934 0.0675-0.013 0.8828 0.933 0.0675-0.013 0.8828 0.934 0.0675-0.027 1.7656 0.934 0.0675-0.014 0.8826 0.934 0.0675 0.014-0.8826-0.934-0.0675 0.04-2.6484-0.934-0.0675 0.041-2.6483-0.934-0.0675 0.027-1.7655-0.934-0.0676 0.027-1.7655-0.934-0.0675 0.013-0.8828-0.935-0.0676 0.027-1.7656-0.934-0.0675 0.014-0.8827 0.934 0.0675 0.013-0.8827 0.935 0.0675 0.013-0.8827 0.934 0.0675 0.014-0.8828 0.933 0.0675 0.014-0.8828 0.934 0.0675 0.013-0.8828 0.934 0.0675 0.013-0.8828 1.869 0.1351 0.013-0.8827 0.934 0.0676 0.014-0.8828 0.934 0.0675 0.013-0.8828 0.934 0.0675 0.013-0.8828 1.869 0.1351 0.013-0.8828 0.934 0.0675 0.014-0.8828 1.867 0.1351 0.014-0.8828 0.933 0.0675 0.014-0.8827 1.869 0.1351 0.013-0.8828 0.934 0.0675 0.013-0.8828 1.868 0.135 0.013-0.8827 1.869 0.135 0.013-0.8827 0.934 0.0675 0.014-0.8828 1.867 0.135 0.014-0.8828 1.868 0.1351 0.014-0.8827 1.867 0.135 0.014-0.8828 1.867 0.1351 0.014-0.8828 2.802 0.2026 0.014-0.8828 1.867 0.135 0.014-0.8828 2.802 0.2026 0.014-0.8828 2.801 0.2026 0.014-0.8828 3.736 0.2701 0.013-0.8828 6.538 0.4726zm-141.14 57.845 0.9339 0.0675-0.0135 0.8826-0.9338-0.0676z" clip-rule="evenodd" fill="#fff" fill-rule="evenodd"/>
 <path d="m222.27 8.7554-5.605-0.4052-0.014 0.8826-6.538-0.4726-0.013 0.8828-3.736-0.2701-0.014 0.8828-2.801-0.2026-0.014 0.8828-2.802-0.2026-0.014 0.8828-1.867-0.135-0.014 0.8828-2.802-0.2026-0.014 0.8828-1.867-0.1351-0.014 0.8828-1.867-0.135-0.014 0.8827-1.868-0.1351-0.014 0.8828-1.867-0.135-0.014 0.8828-0.934-0.0675-0.013 0.8827-1.869-0.135-0.013 0.8827-1.868-0.135-0.013 0.8828-0.934-0.0675-0.013 0.8828-1.869-0.1351-0.014 0.8827-0.933-0.0675-0.014 0.8828-1.867-0.1351-0.014 0.8828-0.934-0.0675-0.013 0.8828-1.869-0.1351-0.013 0.8828-0.934-0.0675-0.013 0.8828-0.934-0.0675-0.014 0.8828-0.934-0.0676-0.013 0.8827-1.869-0.1351-0.013 0.8828-0.934-0.0675-0.013 0.8828-0.934-0.0675-0.014 0.8828-0.933-0.0675-0.014 0.8828-0.934-0.0675-0.013 0.8827-0.935-0.0675-0.013 0.8827-0.934-0.0675-0.014 0.8827 0.934 0.0675-0.027 1.7656 0.935 0.0676-0.013 0.8828 0.934 0.0675-0.027 1.7655 0.934 0.0676-0.027 1.7655 0.934 0.0675-0.041 2.6483 0.934 0.0675-0.04 2.6484 0.934 0.0675-0.014 0.8826-0.934-0.0675 0.014-0.8826-0.934-0.0675 0.027-1.7656-0.934-0.0675 0.013-0.8828-0.933-0.0675 0.013-0.8828-0.934-0.0675 0.014-0.8828-0.935-0.0676 0.013-0.8827-0.934-0.0675 0.014-0.8828-0.934-0.0675 0.013-0.8828-0.933-0.0675 0.013-0.8828-0.934-0.0675 0.014-0.8828-0.935-0.0675 0.013-0.8828-0.934-0.0675 0.014-0.8828-0.934-0.0675 0.013-0.8828-0.933-0.0675 0.013-0.8827-0.934-0.0675 0.014-0.8828-1.869-0.1351 0.013-0.8828-0.933-0.0675 0.013-0.8828-1.868-0.135 0.014-0.8828-0.934-0.0675 0.014-0.8828-1.869-0.1351 0.013-0.8828-0.934-0.0675 0.014-0.8826-1.868-0.1351 0.014-0.8828-1.869-0.135 0.013-0.8828-0.933-0.0675 0.013-0.8828-1.868-0.135 0.014-0.8828-1.869-0.1351 0.014-0.8828-1.868-0.135 0.013-0.8828-2.802-0.2026 0.013-0.8827-1.867-0.135 0.013-0.8828-2.802-0.2026 0.013-0.8828-3.735-0.27 0.013-0.8828-6.539-0.4727 0.014-0.8828-6.538-0.4727-0.013 0.8828-5.604-0.4051-0.014 0.8828-2.802-0.2026-0.014 0.8828-2.801-0.2025-0.013 0.8827-1.868-0.135-0.013 0.8827-1.869-0.1351-0.014 0.8828-1.867-0.135-0.014 0.8828-0.9335-0.0675-0.0134 0.8827-1.8687-0.135-0.0134 0.8827-0.9338-0.0675-0.0135 0.8828-0.9338-0.0675-0.0134 0.8828-1.8687-0.1351-0.0134 0.8827-0.9338-0.0675-0.0135 0.8828-0.9338-0.0675-0.0134 0.8827-0.9338-0.0675-0.0135 0.8828-0.9338-0.0675-0.0268 1.7656-0.9338-0.0675-0.0135 0.8828-0.9348-0.0676-0.0135 0.8827-0.9338-0.0675-0.0268 1.7655-0.9339-0.0675-0.0268 1.7656-0.9338-0.0675-0.0269 1.7656-0.9338-0.0675-0.0269 1.7654-0.9348-0.0676-0.0403 2.6484-0.9338-0.0675-0.0403 2.6481-0.9338-0.0675-0.0806 5.2966-0.9338-0.0676-0.1746 11.477 0.9338 0.0675-0.0806 5.2965 0.9338 0.0675-0.0537 3.5314 0.9338 0.0675-0.0403 2.6477 0.9349 0.0676-0.0269 1.7652 0.9339 0.0675-0.0269 1.7662 0.9338 0.0675-0.0134 0.8826-0.9338-0.0675-0.0135 0.8825 1.8676 0.1351-0.0134 0.8825 0.9338 0.0675-0.0134 0.8836 1.8687 0.1351-0.0134 0.8826 0.9338 0.0675-0.0135 0.8826 0.9338 0.0675-0.0134 0.8826 0.9338 0.0675-0.0134 0.8826 1.8687 0.1351-0.0134 0.8836 0.9338 0.0675-0.0135 0.8826 0.9338 0.0675-0.0134 0.8826 0.9338 0.0675-0.0134 0.8826 0.9338 0.0675-0.0134 0.8826 0.9349 0.0675-0.0135 0.8826 0.9338 0.0675-0.0134 0.8836 0.9338 0.0675-0.013 0.8828 0.933 0.067-0.013 0.883 0.934 0.067-0.014 0.883 0.935 0.068-0.027 1.766-0.935-0.068 0.014-0.883-0.934-0.068 0.014-0.882-0.934-0.068 0.013-0.883-0.9337-0.067 0.0135-0.883-1.8687-0.1348 0.0134-0.8826-0.9338-0.0675 0.0134-0.8836-0.9338-0.0675 0.0135-0.8826-1.8677-0.135 0.0135-0.8826-0.9349-0.0675 0.0134-0.8826-1.8676-0.135 0.0134-0.8826-1.8676-0.135 0.0134-0.8826-1.8687-0.1351 0.0135-0.8836-1.8676-0.135 0.0134-0.8826-2.8025-0.2026 0.0134-0.8826-1.8676-0.135 0.0134-0.8826-3.7363-0.2701 0.0134-0.8826-3.7352-0.27 0.0134-0.8836-6.5388-0.4728 0.0135-0.8825-10.274-0.7428-0.0134 0.8826-4.67-0.3376-0.0135 0.8836-4.67-0.3376-0.0134 0.8826-2.8021-0.2026-0.0134 0.8826-1.868-0.1351-0.0135 0.8826-2.8019-0.2025-0.0135 0.8825-1.868-0.135-0.0135 0.8836-0.934-0.0675-0.0134 0.8826-1.8681-0.1351-0.0134 0.8826-1.8679-0.135-0.0135 0.8825-1.868-0.135-0.0134 0.8826-0.9341-0.0675-0.0134 0.8825-0.934-0.0675-0.0134 0.8836-0.9341-0.0675-0.0134 0.8826-1.8679-0.1351-0.0135 0.8826-0.934-0.0675-0.0134 0.8826-0.934-0.0675-0.0135 0.8825-0.934-0.0675-0.0269 1.7662-0.934-0.0675-0.0134 0.8826-0.934-0.0676-0.0135 0.8826-0.934-0.068-0.0134 0.883-0.9339-0.067-0.0135 0.883-0.934-0.067-0.0269 1.765-0.934-0.068-0.0268 1.765-0.9341-0.067-0.0403 2.649-0.934-0.068-0.0268 1.765-0.9341-0.067-0.0403 2.649-0.934-0.068-0.0403 2.648-0.9339-0.068-0.1074 7.063-0.9341-0.068-0.0671 4.414 0.934 0.068-0.1208 7.944 0.9339 0.068-0.0672 4.414 0.934 0.067-0.0537 3.532 0.934 0.067-0.0403 2.649 0.9341 0.067-0.0403 2.648 0.934 0.068-0.0269 1.766 0.9341 0.067-0.0269 1.765 0.934 0.068-0.0268 1.765 0.9339 0.068-0.0403 2.648 0.934 0.068-0.0268 1.765 0.934 0.068-0.0134 0.882 0.934 0.068-0.0269 1.766 0.934 0.067-0.0134 0.883 0.934 0.068-0.0268 1.765 0.934 0.067-0.0269 1.766 0.9341 0.068-0.0135 0.883 0.934 0.067-0.0269 1.765 0.934 0.068-0.0134 0.882 0.934 0.068-0.0134 0.883 0.934 0.068-0.0134 0.883 0.934 0.067-0.0269 1.765 0.9341 0.068-0.0135 0.882 0.9341 0.068-0.0135 0.884 0.9339 0.067-0.0268 1.765 0.934 0.068-0.0134 0.882 0.934 0.068-0.0134 0.882 0.934 0.068-0.0134 0.884 0.934 0.067-0.0134 0.883 0.934 0.067-0.0134 0.883 0.934 0.067-0.0134 0.883 0.9339 0.067-0.0269 1.766 0.934 0.067-0.0134 0.884 0.934 0.067-0.0134 0.883 0.934 0.067-0.0134 0.883 0.934 0.067-0.0134 0.883 0.934 0.068-0.0134 0.882 0.934 0.068-0.0134 0.883 0.9339 0.068-0.0135 0.882 0.9341 0.068-0.0135 0.882 0.9341 0.068-0.0135 0.883 0.9341 0.067-0.0135 0.883 0.9341 0.067-0.0135 0.884 0.934 0.067-0.0134 0.883 0.934 0.067-0.0134 0.883 0.934 0.068-0.0134 0.882 0.9339 0.068-0.0134 0.882 0.934 0.068-0.0134 0.882 0.934 0.068-0.0134 0.883 0.934 0.068-0.0134 0.883 0.9342 0.067-0.0134 0.883 0.9338 0.067-0.0134 0.883 0.9338 0.067-0.0134 0.883 1.8687 0.135-0.0135 0.884 0.9338 0.067-0.0134 0.883 0.9338 0.067-0.0134 0.883 0.9338 0.067-0.0134 0.883 1.8676 0.135-0.0135 0.882 0.9349 0.068-0.0134 0.883 0.9338 0.067-0.0134 0.884 1.8676 0.135-0.0134 0.882 0.9338 0.068-0.0135 0.882 1.8687 0.135-0.0134 0.883 1.8676 0.135-0.0134 0.883 0.9338 0.067-0.0269 1.766-0.9338-0.067-0.0134 0.882-5.6039-0.405 0.0134-0.882-1.8676-0.135 0.0134-0.883-1.8687-0.135 0.0135-0.884-1.8677-0.135 0.0135-0.882-0.9338-0.068 0.0134-0.882-1.8687-0.135 0.0134-0.883-1.8676-0.135 0.0134-0.883-0.9338-0.067 0.0135-0.884-0.9343-0.067 0.0134-0.883-1.868-0.135 0.0134-0.882-0.934-0.068 0.0134-0.883-0.9339-0.067 0.0134-0.883-0.934-0.067 0.0134-0.883-1.868-0.135 0.0134-0.883-0.934-0.068 0.0134-0.883-0.934-0.067 0.0134-0.883-0.934-0.067 0.0134-0.883-0.934-0.067 0.0134-0.883-0.9339-0.067 0.0135-0.884-0.934-0.067 0.0134-0.883-0.934-0.068 0.0134-0.882-0.934-0.068 0.0134-0.882-0.934-0.068 0.0134-0.882-0.934-0.068 0.0134-0.882-0.934-0.068-0.0135 0.883-0.9339-0.068-0.0134 0.883-0.934-0.068-0.0135 0.883-0.934-0.068-0.0134 0.883-0.934-0.068-0.0135 0.883-0.934-0.068-0.0134 0.884-0.934-0.068-0.0135 0.883-0.934-0.068-0.0134 0.883-0.9339-0.067-0.0135 0.882-0.934-0.067-0.0134 0.882-0.934-0.067-0.0135 0.883-0.934-0.067-0.0269 1.765-0.934-0.068-0.0134 0.883-0.934-0.068-0.0135 0.883-0.934-0.068-0.0269 1.767-0.9339-0.068-0.0134 0.883-0.934-0.068-0.0135 0.883-0.934-0.068-0.0268 1.765-0.9341-0.067-0.0268 1.766-0.9341-0.067-0.0134 0.882-0.934-0.067-0.0269 1.765-0.934-0.068-0.0269 1.766-0.934-0.067-0.0403 2.648-0.9339-0.068-0.0403 2.649-0.934-0.068-0.0403 2.648-0.934-0.067-0.0806 5.297-0.934-0.067-0.1075 7.061 0.9341 0.068-0.1075 7.062 0.9341 0.067-0.0403 2.649 0.934 0.067-0.0403 2.649 0.9339 0.068-0.0269 1.765 0.9341 0.067-0.0269 1.765 0.934 0.068-0.0268 1.766 0.934 0.068-0.0134 0.882 0.934 0.068-0.0269 1.765 0.9341 0.068-0.0135 0.882 0.9341 0.068-0.0135 0.883 0.934 0.068-0.0134 0.882 0.9339 0.068-0.0134 0.882 0.934 0.068-0.0134 0.883 0.934 0.067-0.0134 0.883 0.934 0.067-0.0134 0.884 0.934 0.067-0.0134 0.883 1.868 0.135-0.0134 0.883 0.9339 0.067-0.0134 0.883 0.934 0.067-0.0134 0.883 1.868 0.135-0.0134 0.883 0.934 0.068-0.0134 0.882 1.868 0.136-0.0134 0.882 0.9339 0.068-0.0134 0.882 1.868 0.135-0.0134 0.883 1.8681 0.135-0.0135 0.882 1.8681 0.136-0.0135 0.883 1.868 0.135-0.0135 0.883 2.8021 0.202-0.0134 0.883 2.8021 0.202-0.0135 0.883 4.6703 0.338-0.0135 0.882 2.8015 0.203 0.0537-3.531 0.9349 0.068 0.0671-4.414 0.9338 0.068 0.0537-3.532 0.9339 0.068 0.0268-1.765 0.9338 0.067 0.0269-1.766 0.9338 0.067 0.0269-1.765 0.9338 0.068 0.0268-1.766 0.9349 0.067 0.0134-0.882 0.9339 0.067 0.0134-0.882 0.9338 0.067 0.0268-1.765 0.9339 0.067 0.0134-0.882 0.9338 0.067 0.0134-0.883 0.9349 0.067 0.0134-0.882 0.9339 0.067-0.1075 7.063-0.9338-0.068-0.0403 2.648-0.9349-0.067-0.0537 3.531-0.9338-0.068-0.0403 2.649-0.9338-0.067-0.0403 2.647-0.9338-0.067-0.2015 13.242 0.9339 0.067-0.0806 5.297 0.9338 0.067-0.0672 4.414 0.9338 0.068-0.0537 3.531 0.9349 0.068-0.0269 1.765 0.9339 0.067-0.0269 1.765 0.9338 0.068-0.0269 1.766 0.9338 0.068-0.0268 1.765 0.9338 0.067-0.0134 0.883 0.9349 0.067-0.0269 1.767 0.9338 0.067-0.0134 0.883 0.9338 0.067-0.0135 0.883 0.9339 0.067-0.0135 0.883 0.9338 0.067-0.0134 0.883 0.9338 0.068-0.0134 0.883 0.9349 0.068-0.0135 0.882 0.9338 0.068-0.0134 0.882 1.8676 0.135-0.0134 0.883 0.9338 0.068-0.0134 0.882 1.8687 0.135-0.0135 0.884 1.8677 0.135-0.0135 0.882 1.8677 0.135-0.0135 0.883 1.8687 0.135-0.0134 0.883 3.7363 0.27-0.0134 0.882 12.142 0.878 0.013-0.882 4.67 0.337 0.014-0.882 2.802 0.202 0.014-0.882 2.801 0.202 0.014-0.882 2.802 0.202 0.014-0.883 2.801 0.202 0.014-0.882 1.868 0.135 0.014-0.883 1.867 0.135 0.014-0.883 1.867 0.135 0.014-0.882 1.868 0.135 0.014-0.884 1.867 0.135 0.014-0.882 1.868 0.135 0.013-0.883 0.935 0.068 0.013-0.883 1.868 0.135 0.013-0.882 0.934 0.067 0.014-0.882 1.868 0.135 0.014-0.884 0.933 0.068 0.014-0.883 0.934 0.068 0.013-0.883 0.934 0.067 0.013-0.882 0.934 0.067 0.027-1.766 0.934 0.068 0.013-0.883 0.935 0.068 0.027-1.765 0.934 0.067 0.013-0.883 0.934 0.068 0.067-4.414-0.934-0.067 0.054-3.532-0.934-0.067 0.121-7.946-0.935-0.067 0.067-4.414 0.935 0.067 0.068-4.413 0.933 0.067 0.054-3.53 0.934 0.067 0.027-1.766 0.934 0.068 0.04-2.648 0.934 0.067 0.026-1.766 0.935 0.068 0.014-0.883 0.934 0.068 0.026-1.766 0.934 0.068 0.014-0.883 0.934 0.068 0.026-1.766 0.934 0.067 0.014-0.882 0.935 0.067 0.013-0.882 0.934 0.067 0.013-0.882 0.934 0.067-0.013 0.883 0.933 0.067-0.027 1.765-0.933-0.067-0.041 2.649-0.933-0.068-0.027 1.765-0.934-0.067-0.054 3.531-0.935-0.067-0.053 3.531-0.934-0.068-0.202 13.241 0.934 0.068-0.08 5.297 0.934 0.068-0.053 3.53 0.934 0.068-0.054 3.531 0.934 0.067-0.041 2.649 0.934 0.068-0.027 1.765 0.934 0.067-0.027 1.766 0.934 0.067-0.027 1.766 0.935 0.068-0.013 0.882 0.933 0.068-0.026 1.765 0.933 0.068-0.013 0.883 0.934 0.068-0.014 0.882 0.934 0.068-0.013 0.882 0.935 0.068-0.027 1.765 0.934 0.068-0.014 0.882 1.868 0.135-0.014 0.884 0.934 0.067-0.013 0.883 0.933 0.067-0.013 0.883 0.935 0.068-0.013 0.882 1.867 0.135-0.013 0.883 1.867 0.135-0.013 0.883 1.869 0.136-0.014 0.882 1.868 0.135-0.014 0.883 4.67 0.337-0.013 0.883 5.604 0.405 0.013-0.883 6.539 0.473 0.014-0.882 3.735 0.27 0.013-0.883 2.803 0.203 0.013-0.884 2.802 0.203 0.013-0.883 1.869 0.135 0.013-0.883 1.868 0.135 0.013-0.882 1.869 0.135 0.013-0.883 1.868 0.135 0.013-0.883 0.934 0.067 0.014-0.882 1.867 0.135 0.014-0.883 0.935 0.068 0.013-0.883 0.934 0.068 0.013-0.883 0.934 0.068 0.014-0.883 0.933 0.068 0.014-0.884 0.934 0.067 0.013-0.882 0.935 0.067 0.013-0.882 0.934 0.067 0.014-0.882 0.933 0.067 0.014-0.882 0.934 0.067 0.013-0.883 0.934 0.067 0.027-1.765 0.934 0.068 0.013-0.883 0.935 0.068 0.013-0.883 0.934 0.067 0.027-1.766 0.934 0.068 0.013-0.883 0.934 0.068 0.027-1.765-0.934-0.068 0.013-0.883-0.933-0.067 0.013-0.884-1.869-0.135 0.014-0.882-0.934-0.068 0.013-0.882-0.933-0.068 0.013-0.883-0.934-0.067 0.027-1.766-0.934-0.068 0.014-0.882-0.934-0.068 0.013-0.882 1.868 0.135-0.013 0.882 1.867 0.135-0.013 0.883 1.868 0.135-0.013 0.883 1.868 0.135-0.014 0.883 1.868 0.135-0.014 0.883 2.803 0.202-0.014 0.883 1.868 0.135-0.013 0.882 2.802 0.203-0.013 0.884 1.867 0.135-0.013 0.882 2.802 0.203-0.013 0.882 3.736 0.271-0.013 0.882 3.735 0.27-0.013 0.883 14.01 1.013 0.013-0.883 3.737 0.27 0.013-0.882 3.736 0.27 0.014-0.883 1.868 0.135 0.013-0.882 1.868 0.135 0.013-0.884 1.869 0.135 0.013-0.883 1.868 0.135 0.013-0.882 0.934 0.067 0.013-0.882 1.869 0.135 0.014-0.883 0.933 0.068 0.014-0.884 0.934 0.068 0.013-0.883 0.934 0.068 0.013-0.883 0.934 0.068 0.013-0.883 0.935 0.068 0.027-1.767 0.934 0.068 0.014-0.883 0.933 0.068 0.027-1.765 0.934 0.067 0.027-1.765 0.934 0.068 0.027-1.767 0.934 0.068 0.054-3.531 0.934 0.067 0.054-3.53 0.933 0.067 0.081-5.296 0.934 0.067 0.376-24.718-0.934-0.068 0.081-5.296-0.934-0.068 0.067-4.414-0.934-0.067 0.04-2.648-0.934-0.068 0.04-2.648-0.934-0.068 0.04-2.648-0.933-0.067 0.026-1.766-0.933-0.068 0.04-2.648-0.934-0.067 0.014-0.883-0.935-0.067 0.026-1.766-0.933-0.068 0.027-1.765-0.934-0.068 0.013-0.882-0.934-0.068 0.027-1.766-0.934-0.067 0.014-0.883-0.935-0.068 0.013-0.882-0.933-0.068 0.013-0.882-0.934-0.068 0.027-1.766-0.934-0.067 0.014-0.883 2.801 0.203-0.013 0.882 0.935 0.068-0.014 0.882 0.934 0.068-0.014 0.883 0.934 0.068-0.013 0.883 1.867 0.135-0.013 0.882 0.935 0.068-0.013 0.882 0.933 0.068-0.013 0.882 0.934 0.068-0.027 1.766 0.934 0.068-0.014 0.882 0.934 0.068-0.013 0.882 0.934 0.068-0.026 1.766 0.933 0.068-0.026 1.765 0.933 0.067-0.013 0.883 0.934 0.067-0.041 2.649 0.934 0.068-0.013 0.882 4.67 0.338 0.013-0.883 2.803 0.203 0.013-0.884 1.868 0.135 0.013-0.882 0.934 0.067 0.014-0.882 0.933 0.067 0.027-1.765 0.935 0.067 0.04-2.648 0.934 0.067 0.067-4.414 0.934 0.068 0.014-0.883-0.934-0.067 0.054-3.532-1.869-0.135 0.013-0.882-2.801-0.203 0.013-0.882-0.933-0.068 0.013-0.883-1.869-0.135 0.014-0.882-0.934-0.068 0.013-0.883-0.933-0.068 0.013-0.882-0.934-0.068 0.014-0.882-0.934-0.068 0.027-1.765-0.935-0.068 0.013-0.883 1.869 0.135-0.014 0.883 3.737 0.27-0.014 0.883 2.802 0.203-0.014 0.882 2.803 0.203-0.014 0.882 3.736 0.27-0.014 0.883 4.67 0.338-0.013 0.883 10.274 0.743 0.013-0.884 2.803 0.203 0.013-0.883 1.868 0.135 0.013-0.882 1.869 0.135 0.013-0.883 0.934 0.068 0.014-0.883 1.867 0.135 0.014-0.883 0.934 0.067 0.013-0.882 0.935 0.067 0.013-0.882 0.934 0.067 0.027-1.765 0.934 0.067 0.013-0.882 0.934 0.067 0.027-1.766 0.934 0.068 0.027-1.766 0.934 0.068 0.041-2.649 0.934 0.068 0.053-3.532 0.934 0.068 0.054-3.53 0.934 0.067 0.188-12.359-0.934-0.068 0.054-3.531-0.934-0.067 0.04-2.648-0.934-0.068 0.04-2.648-0.934-0.068 0.04-2.648-0.934-0.067 0.027-1.767-0.934-0.067 0.027-1.765-0.934-0.068 0.04-2.648-0.933-0.068 0.027-1.765-0.935-0.068 0.026-1.765-0.933-0.067 0.013-0.884-0.934-0.068 0.027-1.765-0.934-0.067 0.027-1.765-0.934-0.068 0.014-0.882-0.934-0.068 0.027-1.766-0.935-0.068 0.013-0.882-0.933-0.068 0.013-0.882-0.934-0.068 0.027-1.766-0.934-0.068 0.014-0.882-0.934-0.068 0.013-0.882-0.935-0.068 0.014-0.882-0.934-0.068 0.014-0.883-0.934-0.067 0.013-0.884-0.934-0.067 0.014-0.883-0.934-0.067 0.013-0.883-0.935-0.067 0.014-0.883-0.934-0.067 0.014-0.883-0.934-0.068 0.013-0.882-0.934-0.068 0.014-0.883-0.934-0.068 0.013-0.882-0.933-0.068 0.013-0.882-1.869-0.136 0.014-0.882-0.934-0.068 0.013-0.882-0.933-0.068 0.013-0.883-0.934-0.068 0.014-0.882-1.869-0.136 0.013-0.882-0.933-0.068 0.013-0.882-1.868-0.135 0.014-0.883-0.935-0.067 0.013-0.884-0.933-0.068 0.013-0.882-1.868-0.135 0.014-0.883-0.934-0.067 0.013-0.883-1.868-0.135 0.013-0.882-0.934-0.068 0.014-0.883-2.802-0.202 0.014-0.884-2.803-0.202 0.014-0.883-2.802-0.202 0.014-0.883-1.869-0.135 0.013-0.883 4.671 0.338-0.014 0.883 11.208 0.81 0.013-0.883 2.803 0.203 0.013-0.883 2.802 0.203 0.013-0.884 1.869 0.135 0.013-0.882 0.934 0.067 0.014-0.882 1.867 0.135 0.014-0.883 1.868 0.135 0.014-0.882 0.934 0.067 0.013-0.883 0.934 0.068 0.027-1.766 0.933 0.067 0.014-0.882 0.934 0.067 0.027-1.765 0.934 0.068 0.027-1.767 0.934 0.068 0.027-1.765 0.934 0.067 0.027-1.766 0.933 0.068 0.027-1.766 0.934 0.068 0.04-2.648 0.935 0.068 0.041-2.649 0.933 0.068 0.175-11.476-0.934-0.0675 0.04-2.6488-0.934-0.0676 0.013-0.8826-0.934-0.0675 0.027-1.7662-0.934-0.0675 0.014-0.8826-0.934-0.0675 0.013-0.8826-0.934-0.0675 0.027-1.7651-1.868-0.1351 0.013-0.8826-0.934-0.0675 0.014-0.8836-0.934-0.0675 0.013-0.8826-1.867-0.135 0.013-0.8826-0.935-0.0676 0.014-0.8826-1.868-0.135 0.013-0.8826-1.867-0.135 0.013-0.8836-2.802-0.2026 0.013-0.8826-2.802-0.2026 0.013-0.8826-3.735-0.27 0.013-0.8826-6.538-0.4727 0.013-0.8826-15.878-1.1479-0.013 0.8826-5.604-0.4051-0.014 0.8826-3.736-0.2701-0.014 0.8826-3.735-0.2701-0.013 0.8826-2.803-0.2026-0.013 0.8836-2.802-0.2025-0.013 0.8826-2.803-0.2026-0.013 0.8825-2.802-0.2026-0.027 1.7652-0.934-0.0675-0.04 2.6488-0.934-0.0675-0.054 3.5313-0.934-0.0675-0.04 2.6477-0.934-0.0675-0.027 1.7662-0.933-0.0675-0.027 1.7652-0.935-0.0676-0.027 1.7652-0.934-0.0676-0.027 1.7662-0.934-0.0675-0.013 0.8826-0.934-0.0675-0.027 1.7652-0.933-0.0675-0.014 0.8825-0.935-0.0675-0.027 1.7662-1.867-0.135-0.014 0.883-0.934-0.068 0.014-0.883 0.934 0.068 0.04-2.6488 0.934 0.0675 0.027-1.7652 0.933 0.0675 0.041-2.6488 0.935 0.0676 0.04-2.6477 0.934 0.0675 0.053-3.5314 0.934 0.0675 0.054-3.5313 0.934 0.0675 0.054-3.5303 0.933 0.0675 0.054-3.5314 0.935 0.0676 0.054-3.5313 0.934 0.0675 0.12-7.9453 0.934 0.0675 0.027-1.7652-0.934-0.0675 0.108-7.0622-0.934-0.0675 0.067-4.4139-0.935-0.0676 0.04-2.6483-0.933-0.0675 0.04-2.6483-0.934-0.0675 0.027-1.7655-0.934-0.0675 0.027-1.7656-0.934-0.0675 0.027-1.7656-0.935-0.0676 0.027-1.7655-0.934-0.0675 0.014-0.8827-0.934-0.0675 0.027-1.7656-0.934-0.0675 0.013-0.8828-0.933-0.0675 0.013-0.8828-0.935-0.0676 0.013-0.8828-0.933-0.0675 0.013-0.8828-0.934-0.0675 0.014-0.8827-1.868-0.135 0.014-0.8828-0.934-0.0675 0.013-0.8828-0.935-0.0675 0.014-0.8828-1.868-0.135 0.014-0.8828-1.868-0.1351 0.013-0.8827-1.868-0.1351 0.013-0.8828-2.801-0.2025 0.013-0.8828-5.604-0.4052z" fill="#fff"/>
 <path d="m211.18 0-0.013 0.8828-3.735-0.27-0.014 0.8828-4.67-0.3376-0.013 0.8827-1.869-0.1351-0.013 0.8827-2.802-0.2025-0.013 0.8828-1.869-0.1351-0.013 0.8828-2.802-0.2025-0.013 0.8828-1.869-0.1351-0.013 0.8828-1.868-0.1351-0.013 0.8828-0.934-0.0675-0.014 0.8827-1.868-0.1351-0.014 0.8828-1.867-0.135-0.014 0.8828-1.867-0.1351-0.014 0.8828-0.934-0.0675-0.013 0.8828-1.869-0.1351-0.013 0.8828-0.934-0.0675-0.013 0.8828-1.868-0.135-0.013 0.8828-0.935-0.0676-0.014 0.8827-0.934-0.0676-0.013 0.8828-1.868-0.135-0.013 0.8828-0.934-0.0675-0.013 0.8828-0.935-0.0676-0.014 0.8828-0.933-0.0675-0.014 0.8828-0.934-0.0675-0.013 0.8827-0.934-0.0675-0.013 0.8827-0.934-0.0675-0.014 0.8828-0.933-0.0675-0.014 0.8828-0.935-0.0676-0.013 0.8828-0.934-0.0675-0.013 0.8828-0.934-0.0676-0.014 0.8828-0.933-0.0675-0.014 0.8828-0.934-0.0675-0.026 1.7655-0.935-0.0676 0.013-0.8828-0.934-0.0675 0.014-0.8827-0.934-0.0675 0.013-0.8828-0.933-0.0675 0.013-0.8828-0.934-0.0675 0.014-0.8828-0.934-0.0675 0.013-0.8828-0.935-0.0676 0.027-1.7655-1.867-0.1351 0.013-0.8826-0.934-0.0675 0.014-0.8828-1.869-0.1351 0.013-0.8828-0.933-0.0675 0.013-0.8828-0.934-0.0675 0.014-0.8828-1.868-0.135 0.013-0.8828-1.868-0.1351 0.013-0.8828-1.867-0.135 0.013-0.8827-1.868-0.135 0.014-0.8828-1.869-0.1351 0.013-0.8828-2.801-0.2025 0.014-0.8828-2.803-0.2026 0.013-0.8828-3.736-0.2701 0.014-0.8828-3.736-0.27 0.014-0.8828-14.944-1.0804-0.014 0.8828-4.67-0.3376-0.013 0.8828-3.737-0.2701-0.013 0.8828-1.868-0.135-0.013 0.8827-1.869-0.1351-0.013 0.8828-1.868-0.135-0.013 0.8828-1.8691-0.1351-0.0134 0.8827-1.8676-0.135-0.0134 0.8828-0.9338-0.0675-0.0135 0.8827-1.8687-0.135-0.0134 0.8827-0.9338-0.0675-0.0134 0.8828-0.9339-0.0675-0.0134 0.8828-1.8676-0.135-0.0134 0.8828-0.9338-0.0675-0.0135 0.8826-0.9349-0.0675-0.0134 0.8827-0.9338-0.0675-0.0134 0.8828-0.9338-0.0675-0.0135 0.8828-0.9338-0.0675-0.0134 0.8828-0.9338-0.0675-0.0134 0.8828-0.9349-0.0676-0.0269 1.7654-0.9338-0.0675-0.0134 0.8828-0.9338-0.0675-0.0269 1.7656-0.9338-0.0675-0.0134 0.8828-0.9338-0.0675-0.0269 1.7655-0.9338-0.0675-0.0269 1.7655-0.9349-0.0676-0.0403 2.6484-0.9338-0.0675-0.0268 1.7655-0.9338-0.0675-0.0537 3.5311-0.9339-0.0675-0.0537 3.5309-0.9338-0.0675-0.2552 16.773 0.9338 0.0675-0.0537 3.5303 0.9338 0.0675-0.0403 2.6488 0.9339 0.0675-0.0403 2.6488 0.9338 0.0675-0.0269 1.7651 0.9349 0.0676-0.0269 1.7652-1.8687-0.1351 0.0135-0.8826-2.8015-0.2025 0.0135-0.8826-3.7363-0.2701 0.0134-0.8826-4.6701-0.3376 0.0134-0.8826-14.944-1.0804-0.0134 0.8826-5.604-0.4051-0.0135 0.8825-2.802-0.2025-0.0135 0.8826-2.8019-0.2026-0.0135 0.8826-1.868-0.1351-0.0134 0.8826-0.9341-0.0675-0.0134 0.8836-1.8679-0.1351-0.0135 0.8826-1.868-0.135-0.0134 0.8826-0.9341-0.0676-0.0134 0.8826-1.868-0.135-0.0135 0.8826-1.8679-0.1351-0.0135 0.8836-1.868-0.135-0.0134 0.8826-0.9341-0.0676-0.0134 0.8826-0.934-0.0675-0.0134 0.8826-0.9341-0.0675-0.0134 0.8825-0.934-0.0675-0.0135 0.8836-1.8679-0.135-0.0134 0.8826-0.934-0.0676-0.0135 0.8826-0.934-0.0675-0.0134 0.8826-0.9341-0.0676-0.0134 0.8826-0.934-0.0675-0.0269 1.7662-1.868-0.1351-0.0134 0.8826-0.934-0.0675-0.0134 0.8826-0.934-0.0675-0.0134 0.8826-0.9341-0.0676-0.0268 1.7662-0.9341-0.0675-0.0268 1.7652-0.934-0.0676-0.02689 1.7654-0.93403-0.068-0.02687 1.766-0.93402-0.067-0.04028 2.648-0.93392-0.068-0.02687 1.766-0.93402-0.067-0.04029 2.648-0.93402-0.068-0.05373 3.531-0.93402-0.067-0.09401 6.179-0.93402-0.068-0.16116 10.593 0.93402 0.068-0.09402 6.18 0.93403 0.068-0.06715 4.414 0.93402 0.067-0.04028 2.648 0.93402 0.067-0.0403 2.649 0.93392 0.068-0.04028 2.647 0.93402 0.068-0.04029 2.649 0.93402 0.067-0.02685 1.765 0.93407 0.068-0.0269 1.766 0.934 0.068-0.0269 1.765 0.9341 0.067-0.0269 1.765 0.934 0.068-0.0268 1.766 0.9339 0.068-0.0269 1.765 0.9341 0.067-0.0269 1.767 0.934 0.067-0.0134 0.883 0.934 0.067-0.0134 0.883 0.934 0.067-0.0269 1.766 0.9341 0.067-0.0135 0.883 0.9341 0.067-0.0269 1.766 0.9339 0.068-0.0134 0.882 0.934 0.068-0.0134 0.883 0.934 0.067-0.0269 1.766 0.9341 0.068-0.0135 0.882 0.9341 0.068-0.0135 0.882 0.9341 0.068-0.0135 0.883 0.9341 0.067-0.0135 0.883 0.9341 0.067-0.0269 1.766 0.9339 0.068-0.0134 0.882 0.934 0.068-0.0134 0.883 0.934 0.067-0.0134 0.883 0.934 0.067-0.0134 0.883 0.934 0.067-0.0135 0.884 0.9341 0.067-0.0135 0.883 0.9341 0.068-0.0135 0.882 0.934 0.068-0.0135 0.882 0.9341 0.068-0.0269 1.766-0.934-0.068-0.0135 0.883-0.9339-0.068-0.0134 0.883-0.934-0.067-0.0135 0.882-0.934-0.067-0.0134 0.882-1.8681-0.135-0.0134 0.884-0.934-0.068-0.0135 0.883-0.934-0.068-0.0134 0.883-0.9339-0.068-0.0135 0.883-0.934-0.068-0.0134 0.883-0.934-0.068-0.0135 0.883-0.934-0.067-0.0134 0.883-0.934-0.067-0.0269 1.765-0.934-0.068-0.0135 0.883-0.934-0.068-0.0134 0.883-0.934-0.068-0.0135 0.884-0.9339-0.068-0.0268 1.766-0.9341-0.068-0.0134 0.883-0.934-0.068-0.0269 1.765-0.934-0.067-0.0134 0.883-0.9341-0.067-0.0268 1.765-0.934-0.068-0.0269 1.766-0.934-0.068-0.0269 1.766-0.9339-0.067-0.0269 1.765-0.934-0.068-0.0269 1.767-0.934-0.068-0.0403 2.648-0.93399-0.068-0.05372 3.532-0.93403-0.068-0.05372 3.532-0.93402-0.068-0.24174 15.89 0.93402 0.067-0.08058 5.297 0.93403 0.067-0.0403 2.649 0.93402 0.067-0.04028 2.648 0.93401 0.068-0.0269 1.766 0.9341 0.067-0.0269 1.766 0.9339 0.067-0.0268 1.765 0.934 0.068-0.0269 1.766 0.9341 0.067-0.0135 0.883 0.934 0.068-0.0268 1.765 0.934 0.067-0.0134 0.883 0.934 0.067-0.0134 0.884 0.934 0.068-0.0134 0.882 0.9339 0.068-0.0134 0.882 0.934 0.068-0.0134 0.882 0.934 0.068-0.0134 0.882 0.934 0.068-0.0135 0.884 0.9341 0.067-0.0135 0.883 0.9341 0.067-0.0135 0.883 0.9341 0.067-0.0135 0.883 1.868 0.135-0.0135 0.882 0.9341 0.068-0.0135 0.883 0.9341 0.067-0.0135 0.884 1.8681 0.135-0.0135 0.882 1.8681 0.135-0.0134 0.883 0.9339 0.067-0.0134 0.883 1.868 0.135-0.0134 0.883 1.868 0.135-0.0134 0.883 1.868 0.135-0.0134 0.883 1.8679 0.135-0.0134 0.883 2.8021 0.202-0.0134 0.883 1.868 0.135-0.0134 0.882 3.736 0.27-0.0135 0.883 3.7361 0.27-0.0134 0.884 7.4716 0.54-0.1208 7.944 0.9349 0.068-0.0672 4.414 0.9338 0.067-0.0537 3.532 0.9338 0.067-0.0403 2.649 0.9338 0.067-0.0268 1.766 0.9338 0.067-0.0269 1.765 0.9338 0.068-0.0268 1.766 0.9348 0.067-0.0268 1.766 0.9338 0.067-0.0134 0.883 0.9338 0.067-0.0134 0.883 0.9338 0.067-0.0269 1.766 0.9338 0.068-0.0134 0.883 0.9349 0.067-0.0135 0.883 0.9338 0.067-0.0134 0.883 0.9338 0.067-0.0134 0.884 0.9338 0.067-0.0134 0.883 0.9338 0.068-0.0135 0.882 0.9349 0.068-0.0134 0.882 0.9338 0.068-0.0134 0.882 0.9338 0.068-0.0134 0.883 1.8676 0.135-0.0135 0.883 0.9338 0.068-0.0134 0.882 1.8687 0.135-0.0134 0.883 1.8676 0.135-0.0134 0.882 1.8687 0.136-0.0135 0.882 1.8677 0.135-0.0135 0.884 2.8014 0.202-0.0134 0.883 3.7363 0.27-0.0134 0.883 15.878 1.147 0.013-0.882 4.67 0.338 0.014-0.883 3.736 0.27 0.013-0.884 2.803 0.203 0.013-0.883 1.868 0.135 0.013-0.882 2.803 0.202 0.013-0.882 1.868 0.135 0.013-0.883 1.868 0.135 0.013-0.883 1.869 0.135 0.014-0.883 1.867 0.135 0.014-0.882 1.867 0.135 0.014-0.883 0.935 0.068 0.013-0.883 1.868 0.135 0.013-0.882 0.934 0.067 0.013-0.884 0.934 0.068 0.013-0.883 1.869 0.135 0.014-0.882 0.933 0.067 0.027-1.765 0.934 0.068 0.014-0.884 0.933 0.068 0.014-0.883 0.934 0.068 0.013-0.883 0.935 0.068 0.013-0.883 0.934 0.068 0.027-1.766 0.934 0.068 0.013-0.884 0.934 0.068 0.027-1.765 0.934 0.067 0.013-0.882 0.935 0.067-0.027 1.765 0.934 0.068-0.013 0.882 0.933 0.068-0.027 1.766 0.934 0.068-0.027 1.765 0.934 0.067-0.013 0.883 0.935 0.067-0.027 1.767 0.934 0.067-0.014 0.883 0.934 0.067-0.013 0.883 0.933 0.067-0.013 0.883 0.934 0.067-0.014 0.883 0.934 0.067-0.013 0.884 0.935 0.068-0.014 0.882 0.934 0.068-0.013 0.882 0.933 0.068-0.013 0.882 0.934 0.068-0.014 0.883 0.934 0.067-0.013 0.883 1.868 0.135-0.013 0.883 1.868 0.135-0.014 0.883 0.934 0.067-0.013 0.883 1.868 0.135-0.013 0.883 1.867 0.135-0.013 0.882 2.802 0.203-0.013 0.883 3.735 0.271-0.013 0.882 15.879 1.148 0.013-0.883 3.736 0.27 0.013-0.883 3.736 0.27 0.014-0.883 2.802 0.203 0.014-0.883 2.801 0.203 0.014-0.883 1.868 0.135 0.014-0.882 1.867 0.135 0.014-0.884 1.867 0.135 0.014-0.882 0.934 0.067 0.013-0.882 1.869 0.135 0.013-0.883 1.868 0.135 0.013-0.882 0.934 0.067 0.013-0.882 0.935 0.067 0.014-0.883 0.934 0.067 0.013-0.883 1.868 0.135 0.026-1.765 0.934 0.068 0.014-0.883 0.933 0.068 0.014-0.884 0.935 0.068 0.013-0.883 0.934 0.068 0.027-1.766 0.934 0.068 0.013-0.883 0.934 0.068 0.027-1.766 0.934 0.067 0.04-2.648 0.935 0.068 0.013-0.883 0.934 0.068 0.04-2.649 0.934 0.068 0.027-1.765 0.934 0.067 0.013-0.884 0.934 0.068-0.013 0.884 1.868 0.135-0.013 0.882 2.801 0.203-0.013 0.882 2.802 0.203-0.013 0.883 2.801 0.202-0.013 0.883 4.67 0.337-0.013 0.884 13.076 0.945 0.014-0.883 4.67 0.337 0.013-0.882 3.736 0.27 0.014-0.883 2.801 0.203 0.014-0.883 1.868 0.135 0.014-0.882 1.868 0.135 0.013-0.884 1.868 0.135 0.013-0.883 1.869 0.136 0.013-0.883 0.934 0.068 0.013-0.883 1.868 0.135 0.013-0.883 0.934 0.068 0.014-0.883 0.935 0.068 0.013-0.884 0.934 0.068 0.013-0.883 0.934 0.068 0.013-0.883 0.934 0.068 0.014-0.883 0.933 0.068 0.014-0.883 0.935 0.068 0.013-0.884 0.934 0.067 0.027-1.765 0.934 0.068 0.013-0.883 0.934 0.068 0.027-1.766 0.934 0.067 0.026-1.765 0.934 0.067 0.027-1.765 0.935 0.068 0.04-2.649 0.934 0.068 0.067-4.414 0.934 0.067 0.054-3.53 0.934 0.067 0.12-7.945 0.934 0.068 0.242-15.891-0.934-0.068 0.121-7.944-0.934-0.067 0.067-4.414-0.933-0.068 0.053-3.531-0.933-0.068 0.013-0.882 4.67 0.337 0.014-0.882 2.801 0.202 0.013-0.882 1.868 0.135 0.013-0.884 1.869 0.135 0.014-0.882 0.933 0.067 0.014-0.882 0.934 0.067 0.013-0.882 0.934 0.067 0.013-0.883 0.935 0.068 0.027-1.766 0.934 0.067 0.027-1.765 0.933 0.068 0.041-2.649 0.934 0.067 0.12-7.944 0.934 0.068-0.013 0.882 8.406 0.608 0.014-0.883 4.67 0.338 0.013-0.884 2.803 0.203 0.013-0.883 1.868 0.135 0.013-0.882 1.868 0.135 0.013-0.883 1.869 0.135 0.013-0.882 0.934 0.067 0.014-0.882 0.933 0.067 0.014-0.883 0.934 0.067 0.013-0.882 0.934 0.067 0.013-0.882 0.935 0.067 0.014-0.882 0.933 0.067 0.014-0.883 0.934 0.068 0.027-1.766 0.933 0.067 0.027-1.765 0.934 0.068 0.027-1.766 0.934 0.068 0.027-1.766 0.934 0.067 0.041-2.647 0.934 0.067 0.04-2.649 0.934 0.068 0.053-3.531 0.934 0.067 0.121-7.944 0.934 0.067 0.054-3.531-0.934-0.068 0.121-7.945-0.934-0.067 0.054-3.532-0.934-0.067 0.04-2.648-0.934-0.068 0.041-2.648-0.935-0.068 0.04-2.648-0.934-0.067 0.027-1.766-0.934-0.068 0.027-1.765-0.934-0.067 0.027-1.766-0.934-0.067 0.027-1.766-0.934-0.068 0.027-1.765-0.935-0.068 0.027-1.765-0.934-0.067 0.014-0.884-0.934-0.067 0.027-1.766-0.934-0.067 0.027-1.765-0.934-0.068 0.014-0.883-0.935-0.068 0.013-0.883-0.934-0.067 0.027-1.765-0.934-0.068 0.014-0.882-0.934-0.068 0.013-0.883-0.933-0.068 0.013-0.882-0.934-0.068 0.014-0.883-0.935-0.067 0.013-0.883-0.934-0.067 0.014-0.883-0.934-0.067 0.013-0.883-0.933-0.067 0.013-0.884-0.934-0.068 0.014-0.882-0.935-0.068 0.013-0.882-0.934-0.068 0.014-0.882-0.934-0.068 0.013-0.882-0.933-0.068 0.013-0.884-0.934-0.067 0.014-0.883-1.869-0.135 0.013-0.882-0.933-0.068 0.013-0.882-0.934-0.068 0.014-0.883-1.868-0.135 0.013-0.883-1.868-0.135 0.013-0.883-0.934-0.067 0.014-0.883-1.868-0.135 0.014-0.883-1.869-0.135 0.013-0.882-2.801-0.203 0.013-0.882 2.802 0.202 0.013-0.883 1.869 0.135 0.013-0.883 1.868 0.135 0.013-0.882 1.868 0.135 0.013-0.883 0.935 0.068 0.014-0.883 0.934 0.068 0.013-0.884 0.934 0.067 0.013-0.882 0.934 0.067 0.014-0.882 0.933 0.067 0.014-0.882 0.934 0.067 0.013-0.882 0.935 0.067 0.013-0.882 0.934 0.067 0.014-0.883 0.933 0.067 0.014-0.883 0.934 0.068 0.026-1.765 0.934 0.067 0.014-0.882 0.935 0.067 0.013-0.883 0.934 0.067 0.027-1.765 0.933 0.068 0.014-0.883 0.934 0.067 0.027-1.766 0.933 0.068 0.027-1.765 0.935 0.067 0.027-1.765 0.934 0.068 0.027-1.767 0.933 0.068 0.027-1.765 0.934 0.067 0.04-2.649 0.934 0.068 0.054-3.53 0.934 0.067 0.107-7.0626-0.934-0.0675 0.054-3.5313-0.934-0.0675 0.027-1.7652-0.934-0.0675 0.027-1.7652-0.934-0.0675 0.027-1.7662-0.934-0.0675 0.014-0.8826-0.935-0.0675 0.013-0.8826-0.933-0.0675 0.026-1.7652-0.933-0.0675 0.013-0.8836-0.934-0.0675 0.014-0.8826-0.934-0.0675 0.013-0.8826-1.868-0.1351 0.013-0.8826-0.934-0.0675 0.014-0.8826-0.934-0.0675 0.013-0.8836-1.868-0.1351 0.013-0.8826-1.868-0.135 0.014-0.8826-1.868-0.135 0.014-0.8826-1.869-0.135 0.013-0.8826-1.867-0.135 0.013-0.8826-2.802-0.2026 0.013-0.8836-2.801-0.2026 0.013-0.8825-4.67-0.3377 0.013-0.8825-7.472-0.5403 0.013-0.8826-14.009-1.0127-0.013 0.8825-6.539-0.4727-0.014 0.8826-3.735-0.27-0.013 0.8826-2.803-0.2026-0.013 0.8836-1.868-0.135-0.013 0.8825-1.869-0.1351-0.013 0.8826-1.868-0.135-0.014 0.8826-1.867-0.135-0.014 0.8826-0.934-0.0676-0.014 0.8825-0.934-0.0675-0.013 0.8837-1.868-0.1351 0.309-20.304-0.934-0.0675 0.068-4.4139-0.935-0.0676 0.04-2.6483-0.934-0.0675 0.04-2.6483-0.933-0.0675 0.04-2.6483-0.934-0.0675 0.027-1.7656-0.934-0.0675 0.027-1.7655-0.934-0.0676 0.014-0.8827-0.935-0.0676 0.027-1.7655-0.934-0.0675 0.013-0.8828-0.934-0.0675 0.014-0.8828-0.934-0.0675 0.013-0.8828-0.933-0.0675 0.013-0.8828-0.935-0.0676 0.027-1.7655-0.934-0.0676 0.014-0.8827-1.868-0.1351 0.013-0.8826-0.933-0.0675 0.013-0.8828-0.935-0.0676 0.014-0.8828-1.868-0.135 0.013-0.8828-0.933-0.0675 0.013-0.8828-1.868-0.135 0.014-0.8828-1.869-0.1351 0.014-0.8828-1.868-0.135 0.013-0.8827-2.802-0.2026 0.013-0.8828-3.736-0.2701 0.013-0.8828zm5.484 8.3502 5.605 0.4052-0.014 0.8826 5.604 0.4052-0.013 0.8828 2.801 0.2025-0.013 0.8828 1.868 0.1351-0.013 0.8827 1.868 0.1351-0.014 0.8828 1.868 0.135-0.014 0.8828 0.935 0.0675-0.013 0.8828 0.934 0.0675-0.014 0.8828 1.868 0.135-0.014 0.8827 0.934 0.0675-0.013 0.8828 0.933 0.0675-0.013 0.8828 0.935 0.0676-0.013 0.8828 0.933 0.0675-0.013 0.8828 0.934 0.0675-0.027 1.7656 0.934 0.0675-0.014 0.8827 0.934 0.0675-0.027 1.7655 0.935 0.0676-0.027 1.7656 0.934 0.0675-0.027 1.7656 0.934 0.0675-0.027 1.7655 0.934 0.0675-0.04 2.6483 0.933 0.0675-0.04 2.6483 0.935 0.0676-0.067 4.4139 0.934 0.0675-0.108 7.0622 0.934 0.0675-0.027 1.7652-0.934-0.0675-0.12 7.9453-0.934-0.0675-0.054 3.5313-0.935-0.0676-0.054 3.5314-0.933-0.0675-0.054 3.5303-0.934-0.0675-0.054 3.5313-0.934-0.0675-0.053 3.5314-0.934-0.0675-0.04 2.6477-0.935-0.0676-0.041 2.6488-0.933-0.0675-0.027 1.7652-0.934-0.0675-0.04 2.6488-0.934-0.068-0.014 0.883 0.934 0.068 0.014-0.883 1.867 0.135 0.027-1.7662 0.935 0.0675 0.014-0.8825 0.933 0.0675 0.027-1.7652 0.934 0.0675 0.013-0.8826 0.934 0.0675 0.027-1.7662 0.934 0.0676 0.027-1.7652 0.935 0.0676 0.027-1.7652 0.933 0.0675 0.027-1.7662 0.934 0.0675 0.04-2.6477 0.934 0.0675 0.054-3.5313 0.934 0.0675 0.04-2.6488 0.934 0.0675 0.027-1.7652 2.802 0.2026 0.013-0.8825 2.803 0.2026 0.013-0.8826 2.802 0.2025 0.013-0.8836 2.803 0.2026 0.013-0.8826 3.735 0.2701 0.014-0.8826 3.736 0.2701 0.014-0.8826 5.604 0.4051 0.013-0.8826 15.878 1.1479-0.013 0.8826 6.538 0.4727-0.013 0.8826 3.735 0.27-0.013 0.8826 2.802 0.2026-0.013 0.8826 2.802 0.2026-0.013 0.8836 1.867 0.135-0.013 0.8826 1.868 0.135-0.014 0.8826 0.935 0.0676-0.013 0.8826 1.867 0.135-0.013 0.8826 0.934 0.0675-0.014 0.8836 0.934 0.0675-0.013 0.8826 1.868 0.1351-0.027 1.7651 0.934 0.0675-0.013 0.8826 0.934 0.0675-0.014 0.8826 0.934 0.0675-0.027 1.7662 0.934 0.0675-0.013 0.8826 0.934 0.0676-0.04 2.6488 0.934 0.0675-0.175 11.476-0.933-0.068-0.041 2.649-0.935-0.068-0.04 2.648-0.934-0.068-0.027 1.766-0.933-0.068-0.027 1.766-0.934-0.067-0.027 1.765-0.934-0.068-0.027 1.767-0.934-0.068-0.027 1.765-0.934-0.067-0.014 0.882-0.933-0.067-0.027 1.766-0.934-0.068-0.013 0.883-0.934-0.067-0.014 0.882-1.868-0.135-0.014 0.883-1.867-0.135-0.014 0.882-0.934-0.067-0.013 0.882-1.869-0.135-0.013 0.884-2.802-0.203-0.013 0.883-2.803-0.203-0.013 0.883-11.208-0.81 0.014-0.883-4.671-0.338-0.013 0.883 1.869 0.135-0.014 0.883 2.802 0.202-0.014 0.883 2.803 0.202-0.014 0.884 2.802 0.202-0.014 0.883 0.934 0.068-0.013 0.882 1.868 0.135-0.013 0.883 0.934 0.067-0.014 0.883 1.868 0.135-0.013 0.882 0.933 0.068-0.013 0.884 0.935 0.067-0.014 0.883 1.868 0.135-0.013 0.882 0.933 0.068-0.013 0.882 1.869 0.136-0.014 0.882 0.934 0.068-0.013 0.883 0.933 0.068-0.013 0.882 0.934 0.068-0.014 0.882 1.869 0.136-0.013 0.882 0.933 0.068-0.013 0.882 0.934 0.068-0.014 0.883 0.934 0.068-0.013 0.882 0.934 0.068-0.014 0.883 0.934 0.067-0.014 0.883 0.935 0.067-0.013 0.883 0.934 0.067-0.014 0.883 0.934 0.067-0.013 0.884 0.934 0.067-0.014 0.883 0.934 0.068-0.014 0.882 0.935 0.068-0.013 0.882 0.934 0.068-0.014 0.882 0.934 0.068-0.027 1.766 0.934 0.068-0.013 0.882 0.933 0.068-0.013 0.882 0.935 0.068-0.027 1.766 0.934 0.068-0.014 0.882 0.934 0.068-0.027 1.765 0.934 0.067-0.027 1.765 0.934 0.068-0.013 0.884 0.933 0.067-0.026 1.765 0.935 0.068-0.027 1.765 0.933 0.068-0.04 2.648 0.934 0.068-0.027 1.765 0.934 0.067-0.027 1.767 0.934 0.067-0.04 2.648 0.934 0.068-0.04 2.648 0.934 0.068-0.04 2.648 0.934 0.067-0.054 3.531 0.934 0.068-0.188 12.359-0.934-0.067-0.054 3.53-0.934-0.068-0.053 3.532-0.934-0.068-0.041 2.649-0.934-0.068-0.027 1.766-0.934-0.068-0.027 1.766-0.934-0.067-0.013 0.882-0.934-0.067-0.027 1.765-0.934-0.067-0.013 0.882-0.935-0.067-0.013 0.882-0.934-0.067-0.014 0.883-1.867-0.135-0.014 0.883-0.934-0.068-0.013 0.883-1.869-0.135-0.013 0.882-1.868-0.135-0.013 0.883-2.803-0.203-0.013 0.884-10.274-0.743 0.013-0.883-4.67-0.338 0.014-0.883-3.736-0.27 0.014-0.882-2.803-0.203 0.014-0.882-2.802-0.203 0.014-0.883-3.737-0.27 0.014-0.883-1.869-0.135-0.013 0.883 0.935 0.068-0.027 1.765 0.934 0.068-0.014 0.882 0.934 0.068-0.013 0.882 0.933 0.068-0.013 0.883 0.934 0.068-0.014 0.882 1.869 0.135-0.013 0.883 0.933 0.068-0.013 0.882 2.801 0.203-0.013 0.882 1.869 0.135-0.054 3.532 0.934 0.067-0.014 0.883-0.934-0.068-0.067 4.414-0.934-0.067-0.04 2.648-0.935-0.067-0.027 1.765-0.933-0.067-0.014 0.882-0.934-0.067-0.013 0.882-1.868-0.135-0.013 0.884-2.803-0.203-0.013 0.883-4.67-0.338 0.013-0.882-0.934-0.068 0.041-2.649-0.934-0.067 0.013-0.883-0.933-0.067 0.026-1.765-0.933-0.068 0.026-1.766-0.934-0.068 0.013-0.882-0.934-0.068 0.014-0.882-0.934-0.068 0.027-1.766-0.934-0.068 0.013-0.882-0.933-0.068 0.013-0.882-0.935-0.068 0.013-0.882-1.867-0.135 0.013-0.883-0.934-0.068 0.014-0.883-0.934-0.068 0.014-0.882-0.935-0.068 0.013-0.882-2.801-0.203-0.014 0.883 0.934 0.067-0.027 1.766 0.934 0.068-0.013 0.882 0.933 0.068-0.013 0.882 0.935 0.068-0.014 0.883 0.934 0.067-0.027 1.766 0.934 0.068-0.013 0.882 0.934 0.068-0.027 1.765 0.933 0.068-0.026 1.766 0.935 0.067-0.014 0.883 0.934 0.067-0.04 2.648 0.933 0.068-0.026 1.766 0.933 0.067-0.04 2.648 0.934 0.068-0.04 2.648 0.934 0.068-0.04 2.648 0.934 0.067-0.067 4.414 0.934 0.068-0.081 5.296 0.934 0.068-0.376 24.718-0.934-0.067-0.081 5.296-0.933-0.067-0.054 3.53-0.934-0.067-0.054 3.531-0.934-0.068-0.027 1.767-0.934-0.068-0.027 1.765-0.934-0.067-0.027 1.765-0.933-0.068-0.014 0.883-0.934-0.068-0.027 1.767-0.935-0.068-0.013 0.883-0.934-0.068-0.013 0.883-0.934-0.068-0.013 0.883-0.934-0.068-0.014 0.884-0.933-0.068-0.014 0.883-1.869-0.135-0.013 0.882-0.934-0.067-0.013 0.882-1.868-0.135-0.013 0.883-1.869-0.135-0.013 0.884-1.868-0.135-0.013 0.882-1.868-0.135-0.014 0.883-3.736-0.27-0.013 0.882-3.737-0.27-0.013 0.883-14.01-1.013 0.013-0.883-3.735-0.27 0.013-0.882-3.736-0.271 0.013-0.882-2.802-0.203 0.013-0.882-1.867-0.135 0.013-0.884-2.802-0.203 0.013-0.882-1.868-0.135 0.014-0.883-2.803-0.202 0.014-0.883-1.868-0.135 0.014-0.883-1.868-0.135 0.013-0.883-1.868-0.135 0.013-0.883-1.867-0.135 0.013-0.882-1.868-0.135-0.013 0.882 0.934 0.068-0.014 0.882 0.934 0.068-0.027 1.766 0.934 0.067-0.013 0.883 0.933 0.068-0.013 0.882 0.934 0.068-0.014 0.882 1.869 0.135-0.013 0.884 0.933 0.067-0.013 0.883 0.934 0.068-0.027 1.765-0.934-0.068-0.013 0.883-0.934-0.068-0.027 1.766-0.934-0.067-0.013 0.883-0.935-0.068-0.013 0.883-0.934-0.068-0.027 1.765-0.934-0.067-0.013 0.883-0.934-0.067-0.014 0.882-0.933-0.067-0.014 0.882-0.934-0.067-0.013 0.882-0.935-0.067-0.013 0.882-0.934-0.067-0.014 0.884-0.933-0.068-0.014 0.883-0.934-0.068-0.013 0.883-0.934-0.068-0.013 0.883-0.935-0.068-0.014 0.883-1.867-0.135-0.014 0.882-0.934-0.067-0.013 0.883-1.868-0.135-0.013 0.883-1.869-0.135-0.013 0.882-1.868-0.135-0.013 0.883-1.869-0.135-0.013 0.883-2.802-0.203-0.013 0.884-2.803-0.203-0.013 0.883-3.735-0.27-0.014 0.882-6.539-0.473-0.013 0.883-5.604-0.405 0.013-0.883-4.67-0.337 0.014-0.883-1.868-0.135 0.014-0.882-1.869-0.136 0.013-0.883-1.867-0.135 0.013-0.883-1.867-0.135 0.013-0.882-0.935-0.068 0.013-0.883-0.933-0.067 0.013-0.883-0.934-0.067 0.014-0.884-1.868-0.135 0.014-0.882-0.934-0.068 0.027-1.765-0.935-0.068 0.013-0.882-0.934-0.068 0.014-0.882-0.934-0.068 0.013-0.883-0.933-0.068 0.026-1.765-0.933-0.068 0.013-0.882-0.935-0.068 0.027-1.766-0.934-0.067 0.027-1.766-0.934-0.067 0.027-1.765-0.934-0.068 0.041-2.649-0.934-0.067 0.054-3.531-0.934-0.068 0.053-3.53-0.934-0.068 0.08-5.297-0.934-0.068 0.202-13.241 0.934 0.068 0.053-3.531 0.935 0.067 0.054-3.531 0.934 0.067 0.027-1.765 0.933 0.068 0.041-2.649 0.933 0.067 0.027-1.765-0.933-0.067 0.013-0.883-0.934-0.067-0.013 0.882-0.934-0.067-0.013 0.882-0.935-0.067-0.014 0.882-0.934-0.067-0.026 1.766-0.934-0.068-0.014 0.883-0.934-0.068-0.026 1.766-0.934-0.068-0.014 0.883-0.935-0.068-0.026 1.766-0.934-0.067-0.04 2.648-0.934-0.068-0.027 1.766-0.934-0.067-0.054 3.53-0.933-0.067-0.068 4.413-0.935-0.067-0.067 4.414 0.935 0.067-0.121 7.946 0.934 0.067-0.054 3.532 0.934 0.067-0.067 4.414-0.934-0.068-0.013 0.883-0.934-0.067-0.027 1.765-0.935-0.068-0.013 0.883-0.934-0.068-0.027 1.766-0.934-0.067-0.013 0.882-0.934-0.067-0.013 0.883-0.934-0.068-0.014 0.883-0.933-0.068-0.014 0.884-1.868-0.135-0.014 0.882-0.934-0.067-0.013 0.882-1.868-0.135-0.013 0.883-0.935-0.068-0.013 0.883-1.868-0.135-0.014 0.882-1.867-0.135-0.014 0.884-1.868-0.135-0.014 0.882-1.867-0.135-0.014 0.883-1.867-0.135-0.014 0.883-1.868-0.135-0.014 0.882-2.801-0.202-0.014 0.883-2.802-0.202-0.014 0.882-2.801-0.202-0.014 0.882-2.802-0.202-0.014 0.882-4.67-0.337-0.013 0.882-12.142-0.878 0.0134-0.882-3.7363-0.27 0.0134-0.883-1.8687-0.135 0.0135-0.883-1.8677-0.135 0.0135-0.882-1.8677-0.135 0.0135-0.884-1.8687-0.135 0.0134-0.882-0.9338-0.068 0.0134-0.883-1.8676-0.135 0.0134-0.882-0.9338-0.068 0.0135-0.882-0.9349-0.068 0.0134-0.883-0.9338-0.068 0.0134-0.883-0.9338-0.067 0.0135-0.883-0.9339-0.067 0.0135-0.883-0.9338-0.067 0.0134-0.883-0.9338-0.067 0.0269-1.767-0.9349-0.067 0.0134-0.883-0.9338-0.067 0.0268-1.765-0.9338-0.068 0.0269-1.766-0.9338-0.068 0.0269-1.765-0.9339-0.067 0.0269-1.765-0.9349-0.068 0.0537-3.531-0.9338-0.068 0.0672-4.414-0.9338-0.067 0.0806-5.297-0.9339-0.067 0.2015-13.242 0.9338 0.067 0.0403-2.647 0.9338 0.067 0.0403-2.649 0.9338 0.068 0.0537-3.531 0.9349 0.067 0.0403-2.648 0.9338 0.068 0.1075-7.063-0.9339-0.067-0.0134 0.882-0.9349-0.067-0.0134 0.883-0.9338-0.067-0.0134 0.882-0.9339-0.067-0.0268 1.765-0.9338-0.067-0.0134 0.882-0.9339-0.067-0.0134 0.882-0.9349-0.067-0.0268 1.766-0.9338-0.068-0.0269 1.765-0.9338-0.067-0.0269 1.766-0.9338-0.067-0.0268 1.765-0.9339-0.068-0.0537 3.532-0.9338-0.068-0.0671 4.414-0.9349-0.068-0.0537 3.531-2.8015-0.203 0.0135-0.882-4.6703-0.338 0.0135-0.883-2.8021-0.202 0.0134-0.883-2.8021-0.202 0.0135-0.883-1.868-0.135 0.0135-0.883-1.8681-0.136 0.0135-0.882-1.8681-0.135 0.0134-0.883-1.868-0.135 0.0134-0.882-0.9339-0.068 0.0134-0.882-1.868-0.136 0.0134-0.882-0.934-0.068 0.0134-0.883-1.868-0.135 0.0134-0.883-0.934-0.067 0.0134-0.883-0.9339-0.067 0.0134-0.883-1.868-0.135 0.0134-0.883-0.934-0.067 0.0134-0.884-0.934-0.067 0.0134-0.883-0.934-0.067 0.0134-0.883-0.934-0.068 0.0134-0.882-0.9339-0.068 0.0134-0.882-0.934-0.068 0.0135-0.883-0.9341-0.068 0.0135-0.882-0.9341-0.068 0.0269-1.765-0.934-0.068 0.0134-0.882-0.934-0.068 0.0268-1.766-0.934-0.068 0.0269-1.765-0.9341-0.067 0.0269-1.765-0.9339-0.068 0.0403-2.649-0.934-0.067 0.0403-2.649-0.9341-0.067 0.1075-7.062-0.9341-0.068 0.1075-7.061 0.934 0.067 0.0806-5.297 0.934 0.067 0.0403-2.648 0.934 0.068 0.0403-2.649 0.9339 0.068 0.0403-2.648 0.934 0.067 0.0269-1.766 0.934 0.068 0.0269-1.765 0.934 0.067 0.0134-0.882 0.9341 0.067 0.0268-1.766 0.9341 0.067 0.0268-1.765 0.934 0.068 0.0135-0.883 0.934 0.068 0.0134-0.883 0.9339 0.068 0.0269-1.767 0.934 0.068 0.0135-0.883 0.934 0.068 0.0134-0.883 0.934 0.068 0.0269-1.765 0.934 0.067 0.0135-0.883 0.934 0.067 0.0134-0.882 0.934 0.067 0.0135-0.882 0.9339 0.067 0.0134-0.883 0.934 0.068 0.0135-0.883 0.934 0.068 0.0134-0.884 0.934 0.068 0.0135-0.883 0.934 0.068 0.0134-0.883 0.934 0.068 0.0135-0.883 0.934 0.068 0.0134-0.883 0.9339 0.068 0.0135-0.883 0.934 0.068-0.0134 0.882 0.934 0.068-0.0134 0.882 0.934 0.068-0.0134 0.882 0.934 0.068-0.0134 0.882 0.934 0.068-0.0134 0.883 0.934 0.067-0.0135 0.884 0.9339 0.067-0.0134 0.883 0.934 0.067-0.0134 0.883 0.934 0.067-0.0134 0.883 0.934 0.067-0.0134 0.883 0.934 0.068-0.0134 0.883 1.868 0.135-0.0134 0.883 0.934 0.067-0.0134 0.883 0.9339 0.067-0.0134 0.883 0.934 0.068-0.0134 0.882 1.868 0.135-0.0134 0.883 0.9343 0.067-0.0135 0.884 0.9338 0.067-0.0134 0.883 1.8676 0.135-0.0134 0.883 1.8687 0.135-0.0134 0.882 0.9338 0.068-0.0135 0.882 1.8677 0.135-0.0135 0.884 1.8687 0.135-0.0134 0.883 1.8676 0.135-0.0134 0.882 5.6039 0.405 0.0134-0.882 0.9338 0.067 0.0269-1.766-0.9338-0.067 0.0134-0.883-1.8676-0.135 0.0134-0.883-1.8687-0.135 0.0135-0.882-0.9338-0.068 0.0134-0.882-1.8676-0.135 0.0134-0.884-0.9338-0.067 0.0134-0.883-0.9349-0.068 0.0135-0.882-1.8676-0.135 0.0134-0.883-0.9338-0.067 0.0134-0.883-0.9338-0.067 0.0134-0.883-0.9338-0.067 0.0135-0.884-1.8687-0.135 0.0134-0.883-0.9338-0.067 0.0134-0.883-0.9338-0.067 0.0134-0.883-0.9342-0.067 0.0134-0.883-0.934-0.068 0.0134-0.883-0.934-0.068 0.0134-0.882-0.934-0.068 0.0134-0.882-0.9339-0.068 0.0134-0.882-0.934-0.068 0.0134-0.883-0.934-0.067 0.0134-0.883-0.934-0.067 0.0135-0.884-0.9341-0.067 0.0135-0.883-0.9341-0.067 0.0135-0.883-0.9341-0.068 0.0135-0.882-0.9341-0.068 0.0135-0.882-0.9339-0.068 0.0134-0.883-0.934-0.068 0.0134-0.882-0.934-0.068 0.0134-0.883-0.934-0.067 0.0134-0.883-0.934-0.067 0.0134-0.883-0.934-0.067 0.0134-0.884-0.934-0.067 0.0269-1.766-0.9339-0.067 0.0134-0.883-0.934-0.067 0.0134-0.883-0.934-0.067 0.0134-0.883-0.934-0.067 0.0134-0.884-0.934-0.068 0.0134-0.882-0.934-0.068 0.0134-0.882-0.934-0.068 0.0268-1.765-0.9339-0.067 0.0135-0.884-0.9341-0.068 0.0135-0.882-0.9341-0.068 0.0269-1.765-0.934-0.067 0.0134-0.883-0.934-0.068 0.0134-0.883-0.934-0.068 0.0134-0.882-0.934-0.068 0.0269-1.765-0.934-0.067 0.0135-0.883-0.9341-0.068 0.0269-1.766-0.934-0.067 0.0268-1.765-0.934-0.068 0.0134-0.883-0.934-0.067 0.0269-1.766-0.934-0.068 0.0134-0.882-0.934-0.068 0.0268-1.765-0.934-0.068 0.0403-2.648-0.9339-0.068 0.0268-1.765-0.934-0.068 0.0269-1.765-0.9341-0.067 0.0269-1.766-0.934-0.068 0.0403-2.648-0.9341-0.067 0.0403-2.649-0.934-0.067 0.0537-3.532-0.934-0.067 0.0672-4.414-0.9339-0.068 0.1208-7.944-0.934-0.068 0.0671-4.414 0.9341 0.068 0.1074-7.063 0.9339 0.068 0.0403-2.648 0.934 0.068 0.0403-2.649 0.9341 0.067 0.0268-1.765 0.934 0.068 0.0403-2.649 0.9341 0.067 0.0268-1.765 0.934 0.068 0.0269-1.765 0.934 0.067 0.0135-0.883 0.9339 0.067 0.0134-0.883 0.934 0.068 0.0135-0.8826 0.934 0.0676 0.0134-0.8826 0.934 0.0675 0.0269-1.7662 0.934 0.0675 0.0135-0.8825 0.934 0.0675 0.0134-0.8826 0.934 0.0675 0.0135-0.8826 1.8679 0.1351 0.0134-0.8826 0.9341 0.0675 0.0134-0.8836 0.934 0.0675 0.0134-0.8825 0.9341 0.0675 0.0134-0.8826 1.868 0.135 0.0135-0.8825 1.8679 0.135 0.0134-0.8826 1.8681 0.1351 0.0134-0.8826 0.934 0.0675 0.0135-0.8836 1.868 0.135 0.0135-0.8825 2.8019 0.2025 0.0135-0.8826 1.868 0.1351 0.0134-0.8826 2.8021 0.2026 0.0134-0.8826 4.67 0.3376 0.0135-0.8836 4.67 0.3376 0.0134-0.8826 10.274 0.7428-0.0135 0.8825 6.5388 0.4728-0.0134 0.8836 3.7352 0.27-0.0134 0.8826 3.7363 0.2701-0.0134 0.8826 1.8676 0.135-0.0134 0.8826 2.8025 0.2026-0.0134 0.8826 1.8676 0.135-0.0135 0.8836 1.8687 0.1351-0.0134 0.8826 1.8676 0.135-0.0134 0.8826 1.8676 0.135-0.0134 0.8826 0.9349 0.0675-0.0135 0.8826 1.8677 0.135-0.0135 0.8826 0.9338 0.0675-0.0134 0.8836 0.9338 0.0675-0.0134 0.8826 1.8687 0.1348-0.0135 0.883 0.9337 0.067-0.013 0.883 0.934 0.068-0.014 0.882 0.934 0.068-0.014 0.883 0.935 0.068 0.027-1.766-0.935-0.068 0.014-0.883-0.934-0.067 0.013-0.883-0.933-0.067 0.013-0.8828-0.9338-0.0675 0.0134-0.8836-0.9338-0.0675 0.0135-0.8826-0.9349-0.0675 0.0134-0.8826-0.9338-0.0675 0.0134-0.8826-0.9338-0.0675 0.0134-0.8826-0.9338-0.0675 0.0135-0.8826-0.9338-0.0675 0.0134-0.8836-1.8687-0.1351 0.0134-0.8826-0.9338-0.0675 0.0134-0.8826-0.9338-0.0675 0.0135-0.8826-0.9338-0.0675 0.0134-0.8826-1.8687-0.1351 0.0134-0.8836-0.9338-0.0675 0.0134-0.8825-1.8676-0.1351 0.0135-0.8825 0.9338 0.0675 0.0134-0.8826-0.9338-0.0675 0.0269-1.7662-0.9339-0.0675 0.0269-1.7652-0.9349-0.0676 0.0403-2.6477-0.9338-0.0675 0.0537-3.5314-0.9338-0.0675 0.0806-5.2965-0.9338-0.0675 0.1746-11.477 0.9338 0.0676 0.0806-5.2966 0.9338 0.0675 0.0403-2.6481 0.9338 0.0675 0.0403-2.6484 0.9348 0.0676 0.0269-1.7654 0.9338 0.0675 0.0269-1.7656 0.9338 0.0675 0.0268-1.7656 0.9339 0.0675 0.0268-1.7655 0.9338 0.0675 0.0135-0.8827 0.9348 0.0676 0.0135-0.8828 0.9338 0.0675 0.0268-1.7656 0.9338 0.0675 0.0135-0.8828 0.9338 0.0675 0.0134-0.8827 0.9338 0.0675 0.0135-0.8828 0.9338 0.0675 0.0134-0.8827 1.8687 0.1351 0.0134-0.8828 0.9338 0.0675 0.0135-0.8828 0.9338 0.0675 0.0134-0.8827 1.8687 0.135 0.0134-0.8827 0.9335 0.0675 0.014-0.8828 1.867 0.135 0.014-0.8828 1.869 0.1351 0.013-0.8827 1.868 0.135 0.013-0.8827 2.801 0.2025 0.014-0.8828 2.802 0.2026 0.014-0.8828 5.604 0.4051 0.013-0.8828 6.538 0.4727-0.014 0.8828 6.539 0.4727-0.013 0.8828 3.735 0.27-0.013 0.8828 2.802 0.2026-0.013 0.8828 1.867 0.135-0.013 0.8827 2.802 0.2026-0.013 0.8828 1.868 0.135-0.014 0.8828 1.869 0.1351-0.014 0.8828 1.868 0.135-0.013 0.8828 0.933 0.0675-0.013 0.8828 1.869 0.135-0.014 0.8828 1.868 0.1351-0.014 0.8826 0.934 0.0675-0.013 0.8828 1.869 0.1351-0.014 0.8828 0.934 0.0675-0.014 0.8828 1.868 0.135-0.013 0.8828 0.933 0.0675-0.013 0.8828 1.869 0.1351-0.014 0.8828 0.934 0.0675-0.013 0.8827 0.933 0.0675-0.013 0.8828 0.934 0.0675-0.014 0.8828 0.934 0.0675-0.013 0.8828 0.935 0.0675-0.014 0.8828 0.934 0.0675-0.013 0.8828 0.933 0.0675-0.013 0.8828 0.934 0.0675-0.014 0.8828 0.934 0.0675-0.013 0.8827 0.935 0.0676-0.014 0.8828 0.934 0.0675-0.013 0.8828 0.933 0.0675-0.013 0.8828 0.934 0.0675-0.027 1.7656 0.934 0.0675-0.014 0.8826 0.934 0.0675 0.014-0.8826-0.934-0.0675 0.04-2.6484-0.934-0.0675 0.041-2.6483-0.934-0.0675 0.027-1.7655-0.934-0.0676 0.027-1.7655-0.934-0.0675 0.013-0.8828-0.935-0.0676 0.027-1.7656-0.934-0.0675 0.014-0.8827 0.934 0.0675 0.013-0.8827 0.935 0.0675 0.013-0.8827 0.934 0.0675 0.014-0.8828 0.933 0.0675 0.014-0.8828 0.934 0.0675 0.013-0.8828 0.934 0.0675 0.013-0.8828 1.869 0.1351 0.013-0.8827 0.934 0.0676 0.014-0.8828 0.934 0.0675 0.013-0.8828 0.934 0.0675 0.013-0.8828 1.869 0.1351 0.013-0.8828 0.934 0.0675 0.014-0.8828 1.867 0.1351 0.014-0.8828 0.933 0.0675 0.014-0.8827 1.869 0.1351 0.013-0.8828 0.934 0.0675 0.013-0.8828 1.868 0.135 0.013-0.8827 1.869 0.135 0.013-0.8827 0.934 0.0675 0.014-0.8828 1.867 0.135 0.014-0.8828 1.868 0.1351 0.014-0.8827 1.867 0.135 0.014-0.8828 1.867 0.1351 0.014-0.8828 2.802 0.2026 0.014-0.8828 1.867 0.135 0.014-0.8828 2.802 0.2026 0.014-0.8828 2.801 0.2026 0.014-0.8828 3.736 0.2701 0.013-0.8828 6.538 0.4726zm-141.14 57.845 0.9339 0.0675-0.0135 0.8826-0.9338-0.0676z" clip-rule="evenodd" fill="#000" fill-rule="evenodd"/>
</svg>
