<?xml version="1.0" encoding="UTF-8"?><svg fill="none" xmlns="http://www.w3.org/2000/svg" viewBox="0 0 349.65 323.85"><path d="M211.18 0l-.013.8828-3.735-.27-.014.8828-4.67-.3376-.013.8827-1.869-.1351-.013.8827-2.802-.2025-.013.8828-1.869-.1351-.013.8828-2.802-.2025-.013.8828-1.869-.1351-.013.8828-1.868-.1351-.013.8828-.934-.0675-.014.8827-1.868-.1351-.014.8828-1.867-.135-.014.8828L183 8.5676l-.014.8828-.934-.0675-.013.8828-1.869-.1351-.013.8828-.934-.0675-.013.8828-1.868-.135-.013.8828-.935-.0676-.014.8827-.934-.0676-.013.8828-1.868-.135-.013.8828-.934-.0675-.013.8828-.935-.0676-.014.8828-.933-.0675-.014.8828-.934-.0675-.013.8827-.934-.0675-.013.8827-.934-.0675-.014.8828-.933-.0675-.014.8828-.935-.0676-.013.8828-.934-.0675-.013.8828-.934-.0676-.014.8828-.933-.0675-.014.8828-.934-.0675-.026 1.7655-.935-.0676.013-.8828-.934-.0675.014-.8827-.934-.0675.013-.8828-.933-.0675.013-.8828-.934-.0675.014-.8828-.934-.0675.013-.8828-.935-.0676.027-1.7655-1.867-.1351.013-.8826-.934-.0675.014-.8828-1.869-.1351.013-.8828-.933-.0675.013-.8828-.934-.0675.014-.8828-1.868-.135.013-.8828-1.868-.1351.013-.8828-1.867-.135.013-.8827-1.868-.135.014-.8828-1.869-.1351.013-.8828-2.801-.2025.014-.8828-2.803-.2026.013-.8828-3.736-.2701.014-.8828-3.736-.27.014-.8828-14.944-1.0804-.014.8828-4.67-.3376-.013.8828-3.737-.2701-.013.8828-1.868-.135-.013.8827-1.869-.1351-.013.8828-1.868-.135-.013.8828-1.8691-.1351-.0134.8827-1.8676-.135-.0134.8828-.9338-.0675-.0135.8827-1.8687-.135-.0134.8827-.9338-.0675-.0134.8828-.9339-.0675-.0134.8828-1.8676-.135-.0134.8828-.9338-.0675-.0135.8826-.9349-.0675-.0134.8827-.9338-.0675-.0134.8828-.9338-.0675-.0135.8828-.9338-.0675-.0134.8828-.9338-.0675-.0134.8828-.9349-.0676-.0269 1.7654-.9338-.0675-.0134.8828-.9338-.0675-.0269 1.7656-.9338-.0675-.0134.8828-.9338-.0675-.0269 1.7655-.9338-.0675-.0269 1.7655-.9349-.0676-.0403 2.6484-.9338-.0675-.0268 1.7655-.9338-.0675-.0537 3.5311-.9339-.0675-.0537 3.5309-.9338-.0675-.2552 16.773.9338.0675-.0537 3.5303.9338.0675-.0403 2.6488.9339.0675-.0403 2.6488.9338.0675-.0269 1.7651.9349.0676-.0269 1.7652-1.8687-.1351.0135-.8826-2.8015-.2025.0135-.8826-3.7363-.2701.0134-.8826-4.6701-.3376.0134-.8826-14.944-1.0804-.0134.8826-5.604-.4051-.0135.8825-2.802-.2025-.0135.8826-2.8019-.2026-.0135.8826-1.868-.1351-.0134.8826-.9341-.0675-.0134.8836-1.8679-.1351-.0135.8826-1.868-.135-.0134.8826-.9341-.0676-.0134.8826-1.868-.135-.0135.8826-1.8679-.1351-.0135.8836-1.868-.135-.0134.8826-.9341-.0676-.0134.8826-.934-.0675-.0134.8826-.9341-.0675-.0134.8825-.934-.0675-.0135.8836-1.8679-.135-.0134.8826-.934-.0676-.0135.8826-.934-.0675-.0134.8826-.9341-.0676-.0134.8826-.934-.0675-.0269 1.7662-1.868-.1351-.0134.8826-.934-.0675-.0134.8826-.934-.0675-.0134.8826-.9341-.0676-.0268 1.7662-.9341-.0675-.0268 1.7652-.934-.0676-.02689 1.7654-.93403-.068-.02687 1.766-.93402-.067-.04028 2.648-.93392-.068-.02687 1.766-.93402-.067-.04029 2.648-.93402-.068-.05373 3.531-.93402-.067-.09401 6.179-.93402-.068-.16116 10.593.93402.068-.09402 6.18.93403.068-.06715 4.414.93402.067-.04028 2.648.93402.067-.0403 2.649.93392.068-.04028 2.647.93402.068-.04029 2.649.93402.067-.02685 1.765.93407.068-.0269 1.766.934.068-.0269 1.765.9341.067-.0269 1.765.934.068-.0268 1.766.9339.068-.0269 1.765.9341.067-.0269 1.767.934.067-.0134.883.934.067-.0134.883.934.067-.0269 1.766.9341.067-.0135.883.9341.067-.0269 1.766.9339.068-.0134.882.934.068-.0134.883.934.067-.0269 1.766.9341.068-.0135.882.9341.068-.0135.882.9341.068-.0135.883.9341.067-.0135.883.9341.067-.0269 1.766.9339.068-.0134.882.934.068-.0134.883.934.067-.0134.883.934.067-.0134.883.934.067-.0135.884.9341.067-.0135.883.9341.068-.0135.882.934.068-.0135.882.9341.068-.0269 1.766-.934-.068-.0135.883-.9339-.068-.0134.883-.934-.067-.0135.882-.934-.067-.0134.882-1.8681-.135-.0134.884-.934-.068-.0135.883-.934-.068-.0134.883-.9339-.068-.0135.883-.934-.068-.0134.883-.934-.068-.0135.883-.934-.067-.0134.883-.934-.067-.0269 1.765-.934-.068-.0135.883-.934-.068-.0134.883-.934-.068-.0135.884-.9339-.068-.0268 1.766-.9341-.068-.0134.883-.934-.068-.0269 1.765-.934-.067-.0134.883-.9341-.067-.0268 1.765-.934-.068-.0269 1.766-.934-.068-.0269 1.766-.9339-.067-.0269 1.765-.934-.068-.0269 1.767-.934-.068-.0403 2.648-.93399-.068-.05372 3.532-.93403-.068-.05372 3.532-.93402-.068-.24174 15.89.93402.067-.08058 5.297.93403.067-.0403 2.649.93402.067-.04028 2.648.93401.068-.0269 1.766.9341.067-.0269 1.766.9339.067-.0268 1.765.934.068-.0269 1.766.9341.067-.0135.883.934.068-.0268 1.765.934.067-.0134.883.934.067-.0134.884.934.068-.0134.882.9339.068-.0134.882.934.068-.0134.882.934.068-.0134.882.934.068-.0135.884.9341.067-.0135.883.9341.067-.0135.883.9341.067-.0135.883 1.868.135-.0135.882.9341.068-.0135.883.9341.067-.0135.884 1.8681.135-.0135.882 1.8681.135-.0134.883.9339.067-.0134.883 1.868.135-.0134.883 1.868.135-.0134.883 1.868.135-.0134.883 1.8679.135-.0134.883 2.8021.202-.0134.883 1.868.135-.0134.882 3.736.27-.0135.883 3.7361.27-.0134.884 7.4716.54-.1208 7.944.9349.068-.0672 4.414.9338.067-.0537 3.532.9338.067-.0403 2.649.9338.067-.0268 1.766.9338.067-.0269 1.765.9338.068-.0268 1.766.9348.067-.0268 1.766.9338.067-.0134.883.9338.067-.0134.883.9338.067-.0269 1.766.9338.068-.0134.883.9349.067-.0135.883.9338.067-.0134.883.9338.067-.0134.884.9338.067-.0134.883.9338.068-.0135.882.9349.068-.0134.882.9338.068-.0134.882.9338.068-.0134.883 1.8676.135-.0135.883.9338.068-.0134.882 1.8687.135-.0134.883 1.8676.135-.0134.882 1.8687.136-.0135.882 1.8677.135-.0135.884 2.8014.202-.0134.883 3.7363.27-.0134.883 15.878 1.147.013-.882 4.67.338.014-.883 3.736.27.013-.884 2.803.203.013-.883 1.868.135.013-.882 2.803.202.013-.882 1.868.135.013-.883 1.868.135.013-.883 1.869.135.014-.883 1.867.135.014-.882 1.867.135.014-.883.935.068.013-.883 1.868.135.013-.882.934.067.013-.884.934.068.013-.883 1.869.135.014-.882.933.067.027-1.765.934.068.014-.884.933.068.014-.883.934.068.013-.883.935.068.013-.883.934.068.027-1.766.934.068.013-.884.934.068.027-1.765.934.067.013-.882.935.067-.027 1.765.934.068-.013.882.933.068-.027 1.766.934.068-.027 1.765.934.067-.013.883.935.067-.027 1.767.934.067-.014.883.934.067-.013.883.933.067-.013.883.934.067-.014.883.934.067-.013.884.935.068-.014.882.934.068-.013.882.933.068-.013.882.934.068-.014.883.934.067-.013.883 1.868.135-.013.883 1.868.135-.014.883.934.067-.013.883 1.868.135-.013.883 1.867.135-.013.882 2.802.203-.013.883 3.735.271-.013.882 15.879 1.148.013-.883 3.736.27.013-.883 3.736.27.014-.883 2.802.203.014-.883 2.801.203.014-.883 1.868.135.014-.882 1.867.135.014-.884 1.867.135.014-.882.934.067.013-.882 1.869.135.013-.883 1.868.135.013-.882.934.067.013-.882.935.067.014-.883.934.067.013-.883 1.868.135.026-1.765.934.068.014-.883.933.068.014-.884.935.068.013-.883.934.068.027-1.766.934.068.013-.883.934.068.027-1.766.934.067.04-2.648.935.068.013-.883.934.068.04-2.649.934.068.027-1.765.934.067.013-.884.934.068-.013.884 1.868.135-.013.882 2.801.203-.013.882 2.802.203-.013.883 2.801.202-.013.883 4.67.337-.013.884 13.076.945.014-.883 4.67.337.013-.882 3.736.27.014-.883 2.801.203.014-.883 1.868.135.014-.882 1.868.135.013-.884 1.868.135.013-.883 1.869.136.013-.883.934.068.013-.883 1.868.135.013-.883.934.068.014-.883.935.068.013-.884.934.068.013-.883.934.068.013-.883.934.068.014-.883.933.068.014-.883.935.068.013-.884.934.067.027-1.765.934.068.013-.883.934.068.027-1.766.934.067.026-1.765.934.067.027-1.765.935.068.04-2.649.934.068.067-4.414.934.067.054-3.53.934.067.12-7.945.934.068.242-15.891-.934-.068.121-7.944-.934-.067.067-4.414-.933-.068.053-3.531-.933-.068.013-.882 4.67.337.014-.882 2.801.202.013-.882 1.868.135.013-.884 1.869.135.014-.882.933.067.014-.882.934.067.013-.882.934.067.013-.883.935.068.027-1.766.934.067.027-1.765.933.068.041-2.649.934.067.12-7.944.934.068-.013.882 8.406.608.014-.883 4.67.338.013-.884 2.803.203.013-.883 1.868.135.013-.882 1.868.135.013-.883 1.869.135.013-.882.934.067.014-.882.933.067.014-.883.934.067.013-.882.934.067.013-.882.935.067.014-.882.933.067.014-.883.934.068.027-1.766.933.067.027-1.765.934.068.027-1.766.934.068.027-1.766.934.067.041-2.647.934.067.04-2.649.934.068.053-3.531.934.067.121-7.944.934.067.054-3.531-.934-.068.121-7.945-.934-.067.054-3.532-.934-.067.04-2.648-.934-.068.041-2.648-.935-.068.04-2.648-.934-.067.027-1.766-.934-.068.027-1.765-.934-.067.027-1.766-.934-.067.027-1.766-.934-.068.027-1.765-.935-.068.027-1.765-.934-.067.014-.884-.934-.067.027-1.766-.934-.067.027-1.765-.934-.068.014-.883-.935-.068.013-.883-.934-.067.027-1.765-.934-.068.014-.882-.934-.068.013-.883-.933-.068.013-.882-.934-.068.014-.883-.935-.067.013-.883-.934-.067.014-.883-.934-.067.013-.883-.933-.067.013-.884-.934-.068.014-.882-.935-.068.013-.882-.934-.068.014-.882-.934-.068.013-.882-.933-.068.013-.884-.934-.067.014-.883-1.869-.135.013-.882-.933-.068.013-.882-.934-.068.014-.883-1.868-.135.013-.883-1.868-.135.013-.883-.934-.067.014-.883-1.868-.135.014-.883-1.869-.135.013-.882-2.801-.203.013-.882 2.802.202.013-.883 1.869.135.013-.883 1.868.135.013-.882 1.868.135.013-.883.935.068.014-.883.934.068.013-.884.934.067.013-.882.934.067.014-.882.933.067.014-.882.934.067.013-.882.935.067.013-.882.934.067.014-.883.933.067.014-.883.934.068.026-1.765.934.067.014-.882.935.067.013-.883.934.067.027-1.765.933.068.014-.883.934.067.027-1.766.933.068.027-1.765.935.067.027-1.765.934.068.027-1.767.933.068.027-1.765.934.067.04-2.649.934.068.054-3.53.934.067.107-7.0626-.934-.0675.054-3.5313-.934-.0675.027-1.7652-.934-.0675.027-1.7652-.934-.0675.027-1.7662-.934-.0675.014-.8826-.935-.0675.013-.8826-.933-.0675.026-1.7652-.933-.0675.013-.8836-.934-.0675.014-.8826-.934-.0675.013-.8826-1.868-.1351.013-.8826-.934-.0675.014-.8826-.934-.0675.013-.8836-1.868-.1351.013-.8826-1.868-.135.014-.8826-1.868-.135.014-.8826-1.869-.135.013-.8826-1.867-.135.013-.8826-2.802-.2026.013-.8836-2.801-.2026.013-.8825-4.67-.3377.013-.8825-7.472-.5403.013-.8826-14.009-1.0127-.013.8825-6.539-.4727-.014.8826-3.735-.27-.013.8826-2.803-.2026-.013.8836-1.868-.135-.013.8825-1.869-.1351-.013.8826-1.868-.135-.014.8826-1.867-.135-.014.8826-.934-.0676-.014.8825-.934-.0675-.013.8837-1.868-.1351.309-20.304-.934-.0675.068-4.4139-.935-.0676.04-2.6483-.934-.0675.04-2.6483-.933-.0675.04-2.6483-.934-.0675.027-1.7656-.934-.0675.027-1.7655-.934-.0676.014-.8827-.935-.0676.027-1.7655-.934-.0675.013-.8828-.934-.0675.014-.8828-.934-.0675.013-.8828-.933-.0675.013-.8828-.935-.0676.027-1.7655-.934-.0676.014-.8827-1.868-.1351.013-.8826-.933-.0675.013-.8828-.935-.0676.014-.8828-1.868-.135.013-.8828-.933-.0675.013-.8828-1.868-.135.014-.8828-1.869-.1351.014-.8828-1.868-.135.013-.8827-2.802-.2026.013-.8828-3.736-.2701.013-.8828zm5.484 8.3502l5.605.4052-.014.8826 5.604.4052-.013.8828 2.801.2025-.013.8828 1.868.1351-.013.8827 1.868.1351-.014.8828 1.868.135-.014.8828.935.0675-.013.8828.934.0675-.014.8828 1.868.135-.014.8827.934.0675-.013.8828.933.0675-.013.8828.935.0676-.013.8828.933.0675-.013.8828.934.0675-.027 1.7656.934.0675-.014.8827.934.0675-.027 1.7655.935.0676-.027 1.7656.934.0675-.027 1.7656.934.0675-.027 1.7655.934.0675-.04 2.6483.933.0675-.04 2.6483.935.0676-.067 4.4139.934.0675-.108 7.0622.934.0675-.027 1.7652-.934-.0675-.12 7.9453-.934-.0675-.054 3.5313-.935-.0676-.054 3.5314-.933-.0675-.054 3.5303-.934-.0675-.054 3.5313-.934-.0675-.053 3.5314-.934-.0675-.04 2.6477-.935-.0676-.041 2.6488-.933-.0675-.027 1.7652-.934-.0675-.04 2.6488-.934-.068-.014.883.934.068.014-.883 1.867.135.027-1.7662.935.0675.014-.8825.933.0675.027-1.7652.934.0675.013-.8826.934.0675.027-1.7662.934.0676.027-1.7652.935.0676.027-1.7652.933.0675.027-1.7662.934.0675.04-2.6477.934.0675.054-3.5313.934.0675.04-2.6488.934.0675.027-1.7652 2.802.2026.013-.8825 2.803.2026.013-.8826 2.802.2025.013-.8836 2.803.2026.013-.8826 3.735.2701.014-.8826 3.736.2701.014-.8826 5.604.4051.013-.8826 15.878 1.1479-.013.8826 6.538.4727-.013.8826 3.735.27-.013.8826 2.802.2026-.013.8826 2.802.2026-.013.8836 1.867.135-.013.8826 1.868.135-.014.8826.935.0676-.013.8826 1.867.135-.013.8826.934.0675-.014.8836.934.0675-.013.8826 1.868.1351-.027 1.7651.934.0675-.013.8826.934.0675-.014.8826.934.0675-.027 1.7662.934.0675-.013.8826.934.0676-.04 2.6488.934.0675-.175 11.476-.933-.068-.041 2.649-.935-.068-.04 2.648-.934-.068-.027 1.766-.933-.068-.027 1.766-.934-.067-.027 1.765-.934-.068-.027 1.767-.934-.068-.027 1.765-.934-.067-.014.882-.933-.067-.027 1.766-.934-.068-.013.883-.934-.067-.014.882-1.868-.135-.014.883-1.867-.135-.014.882-.934-.067-.013.882-1.869-.135-.013.884-2.802-.203-.013.883-2.803-.203-.013.883-11.208-.81.014-.883-4.671-.338-.013.883 1.869.135-.014.883 2.802.202-.014.883 2.803.202-.014.884 2.802.202-.014.883.934.068-.013.882 1.868.135-.013.883.934.067-.014.883 1.868.135-.013.882.933.068-.013.884.935.067-.014.883 1.868.135-.013.882.933.068-.013.882 1.869.136-.014.882.934.068-.013.883.933.068-.013.882.934.068-.014.882 1.869.136-.013.882.933.068-.013.882.934.068-.014.883.934.068-.013.882.934.068-.014.883.934.067-.014.883.935.067-.013.883.934.067-.014.883.934.067-.013.884.934.067-.014.883.934.068-.014.882.935.068-.013.882.934.068-.014.882.934.068-.027 1.766.934.068-.013.882.933.068-.013.882.935.068-.027 1.766.934.068-.014.882.934.068-.027 1.765.934.067-.027 1.765.934.068-.013.884.933.067-.026 1.765.935.068-.027 1.765.933.068-.04 2.648.934.068-.027 1.765.934.067-.027 1.767.934.067-.04 2.648.934.068-.04 2.648.934.068-.04 2.648.934.067-.054 3.531.934.068-.188 12.359-.934-.067-.054 3.53-.934-.068-.053 3.532-.934-.068-.041 2.649-.934-.068-.027 1.766-.934-.068-.027 1.766-.934-.067-.013.882-.934-.067-.027 1.765-.934-.067-.013.882-.935-.067-.013.882-.934-.067-.014.883-1.867-.135-.014.883-.934-.068-.013.883-1.869-.135-.013.882-1.868-.135-.013.883-2.803-.203-.013.884-10.274-.743.013-.883-4.67-.338.014-.883-3.736-.27.014-.882-2.803-.203.014-.882-2.802-.203.014-.883-3.737-.27.014-.883-1.869-.135-.013.883.935.068-.027 1.765.934.068-.014.882.934.068-.013.882.933.068-.013.883.934.068-.014.882 1.869.135-.013.883.933.068-.013.882 2.801.203-.013.882 1.869.135-.054 3.532.934.067-.014.883-.934-.068-.067 4.414-.934-.067-.04 2.648-.935-.067-.027 1.765-.933-.067-.014.882-.934-.067-.013.882-1.868-.135-.013.884-2.803-.203-.013.883-4.67-.338.013-.882-.934-.068.041-2.649-.934-.067.013-.883-.933-.067.026-1.765-.933-.068.026-1.766-.934-.068.013-.882-.934-.068.014-.882-.934-.068.027-1.766-.934-.068.013-.882-.933-.068.013-.882-.935-.068.013-.882-1.867-.135.013-.883-.934-.068.014-.883-.934-.068.014-.882-.935-.068.013-.882-2.801-.203-.014.883.934.067-.027 1.766.934.068-.013.882.933.068-.013.882.935.068-.014.883.934.067-.027 1.766.934.068-.013.882.934.068-.027 1.765.933.068-.026 1.766.935.067-.014.883.934.067-.04 2.648.933.068-.026 1.766.933.067-.04 2.648.934.068-.04 2.648.934.068-.04 2.648.934.067-.067 4.414.934.068-.081 5.296.934.068-.376 24.718-.934-.067-.081 5.296-.933-.067-.054 3.53-.934-.067-.054 3.531-.934-.068-.027 1.767-.934-.068-.027 1.765-.934-.067-.027 1.765-.933-.068-.014.883-.934-.068-.027 1.767-.935-.068-.013.883-.934-.068-.013.883-.934-.068-.013.883-.934-.068-.014.884-.933-.068-.014.883-1.869-.135-.013.882-.934-.067-.013.882-1.868-.135-.013.883-1.869-.135-.013.884-1.868-.135-.013.882-1.868-.135-.014.883-3.736-.27-.013.882-3.737-.27-.013.883-14.01-1.013.013-.883-3.735-.27.013-.882-3.736-.271.013-.882-2.802-.203.013-.882-1.867-.135.013-.884-2.802-.203.013-.882-1.868-.135.014-.883-2.803-.202.014-.883-1.868-.135.014-.883-1.868-.135.013-.883-1.868-.135.013-.883-1.867-.135.013-.882-1.868-.135-.013.882.934.068-.014.882.934.068-.027 1.766.934.067-.013.883.933.068-.013.882.934.068-.014.882 1.869.135-.013.884.933.067-.013.883.934.068-.027 1.765-.934-.068-.013.883-.934-.068-.027 1.766-.934-.067-.013.883-.935-.068-.013.883-.934-.068-.027 1.765-.934-.067-.013.883-.934-.067-.014.882-.933-.067-.014.882-.934-.067-.013.882-.935-.067-.013.882-.934-.067-.014.884-.933-.068-.014.883-.934-.068-.013.883-.934-.068-.013.883-.935-.068-.014.883-1.867-.135-.014.882-.934-.067-.013.883-1.868-.135-.013.883-1.869-.135-.013.882-1.868-.135-.013.883-1.869-.135-.013.883-2.802-.203-.013.884-2.803-.203-.013.883-3.735-.27-.014.882-6.539-.473-.013.883-5.604-.405.013-.883-4.67-.337.014-.883-1.868-.135.014-.882-1.869-.136.013-.883-1.867-.135.013-.883-1.867-.135.013-.882-.935-.068.013-.883-.933-.067.013-.883-.934-.067.014-.884-1.868-.135.014-.882-.934-.068.027-1.765-.935-.068.013-.882-.934-.068.014-.882-.934-.068.013-.883-.933-.068.026-1.765-.933-.068.013-.882-.935-.068.027-1.766-.934-.067.027-1.766-.934-.067.027-1.765-.934-.068.041-2.649-.934-.067.054-3.531-.934-.068.053-3.53-.934-.068.08-5.297-.934-.068.202-13.241.934.068.053-3.531.935.067.054-3.531.934.067.027-1.765.933.068.041-2.649.933.067.027-1.765-.933-.067.013-.883-.934-.067-.013.882-.934-.067-.013.882-.935-.067-.014.882-.934-.067-.026 1.766-.934-.068-.014.883-.934-.068-.026 1.766-.934-.068-.014.883-.935-.068-.026 1.766-.934-.067-.04 2.648-.934-.068-.027 1.766-.934-.067-.054 3.53-.933-.067-.068 4.413-.935-.067-.067 4.414.935.067-.121 7.946.934.067-.054 3.532.934.067-.067 4.414-.934-.068-.013.883-.934-.067-.027 1.765-.935-.068-.013.883-.934-.068-.027 1.766-.934-.067-.013.882-.934-.067-.013.883-.934-.068-.014.883-.933-.068-.014.884-1.868-.135-.014.882-.934-.067-.013.882-1.868-.135-.013.883-.935-.068-.013.883-1.868-.135-.014.882-1.867-.135-.014.884-1.868-.135-.014.882-1.867-.135-.014.883-1.867-.135-.014.883-1.868-.135-.014.882-2.801-.202-.014.883-2.802-.202-.014.882-2.801-.202-.014.882-2.802-.202-.014.882-4.67-.337-.013.882-12.142-.878.0134-.882-3.7363-.27.0134-.883-1.8687-.135.0135-.883-1.8677-.135.0135-.882-1.8677-.135.0135-.884-1.8687-.135.0134-.882-.9338-.068.0134-.883-1.8676-.135.0134-.882-.9338-.068.0135-.882-.9349-.068.0134-.883-.9338-.068.0134-.883-.9338-.067.0135-.883-.9339-.067.0135-.883-.9338-.067.0134-.883-.9338-.067.0269-1.767-.9349-.067.0134-.883-.9338-.067.0268-1.765-.9338-.068.0269-1.766-.9338-.068.0269-1.765-.9339-.067.0269-1.765-.9349-.068.0537-3.531-.9338-.068.0672-4.414-.9338-.067.0806-5.297-.9339-.067.2015-13.242.9338.067.0403-2.647.9338.067.0403-2.649.9338.068.0537-3.531.9349.067.0403-2.648.9338.068.1075-7.063-.9339-.067-.0134.882-.9349-.067-.0134.883-.9338-.067-.0134.882-.9339-.067-.0268 1.765-.9338-.067-.0134.882-.9339-.067-.0134.882-.9349-.067-.0268 1.766-.9338-.068-.0269 1.765-.9338-.067-.0269 1.766-.9338-.067-.0268 1.765-.9339-.068-.0537 3.532-.9338-.068-.0671 4.414-.9349-.068-.0537 3.531-2.8015-.203.0135-.882-4.6703-.338.0135-.883-2.8021-.202.0134-.883-2.8021-.202.0135-.883-1.868-.135.0135-.883-1.8681-.136.0135-.882-1.8681-.135.0134-.883-1.868-.135.0134-.882-.9339-.068.0134-.882-1.868-.136.0134-.882-.934-.068.0134-.883-1.868-.135.0134-.883-.934-.067.0134-.883-.9339-.067.0134-.883-1.868-.135.0134-.883-.934-.067.0134-.884-.934-.067.0134-.883-.934-.067.0134-.883-.934-.068.0134-.882-.9339-.068.0134-.882-.934-.068.0135-.883-.9341-.068.0135-.882-.9341-.068.0269-1.765-.934-.068.0134-.882-.934-.068.0268-1.766-.934-.068.0269-1.765-.9341-.067.0269-1.765-.9339-.068.0403-2.649-.934-.067.0403-2.649-.9341-.067.1075-7.062-.9341-.068.1075-7.061.934.067.0806-5.297.934.067.0403-2.648.934.068.0403-2.649.9339.068.0403-2.648.934.067.0269-1.766.934.068.0269-1.765.934.067.0134-.882.9341.067.0268-1.766.9341.067.0268-1.765.934.068.0135-.883.934.068.0134-.883.9339.068.0269-1.767.934.068.0135-.883.934.068.0134-.883.934.068.0269-1.765.934.067.0135-.883.934.067.0134-.882.934.067.0135-.882.9339.067.0134-.883.934.068.0135-.883.934.068.0134-.884.934.068.0135-.883.934.068.0134-.883.934.068.0135-.883.934.068.0134-.883.9339.068.0135-.883.934.068-.0134.882.934.068-.0134.882.934.068-.0134.882.934.068-.0134.882.934.068-.0134.883.934.067-.0135.884.9339.067-.0134.883.934.067-.0134.883.934.067-.0134.883.934.067-.0134.883.934.068-.0134.883 1.868.135-.0134.883.934.067-.0134.883.9339.067-.0134.883.934.068-.0134.882 1.868.135-.0134.883.9343.067-.0135.884.9338.067-.0134.883 1.8676.135-.0134.883 1.8687.135-.0134.882.9338.068-.0135.882 1.8677.135-.0135.884 1.8687.135-.0134.883 1.8676.135-.0134.882 5.6039.405.0134-.882.9338.067.0269-1.766-.9338-.067.0134-.883-1.8676-.135.0134-.883-1.8687-.135.0135-.882-.9338-.068.0134-.882-1.8676-.135.0134-.884-.9338-.067.0134-.883-.9349-.068.0135-.882-1.8676-.135.0134-.883-.9338-.067.0134-.883-.9338-.067.0134-.883-.9338-.067.0135-.884-1.8687-.135.0134-.883-.9338-.067.0134-.883-.9338-.067.0134-.883-.9342-.067.0134-.883-.934-.068.0134-.883-.934-.068.0134-.882-.934-.068.0134-.882-.9339-.068.0134-.882-.934-.068.0134-.883-.934-.067.0134-.883-.934-.067.0135-.884-.9341-.067.0135-.883-.9341-.067.0135-.883-.9341-.068.0135-.882-.9341-.068.0135-.882-.9339-.068.0134-.883-.934-.068.0134-.882-.934-.068.0134-.883-.934-.067.0134-.883-.934-.067.0134-.883-.934-.067.0134-.884-.934-.067.0269-1.766-.9339-.067.0134-.883-.934-.067.0134-.883-.934-.067.0134-.883-.934-.067.0134-.884-.934-.068.0134-.882-.934-.068.0134-.882-.934-.068.0268-1.765-.9339-.067.0135-.884-.9341-.068.0135-.882-.9341-.068.0269-1.765-.934-.067.0134-.883-.934-.068.0134-.883-.934-.068.0134-.882-.934-.068.0269-1.765-.934-.067.0135-.883-.9341-.068.0269-1.766-.934-.067.0268-1.765-.934-.068.0134-.883-.934-.067.0269-1.766-.934-.068.0134-.882-.934-.068.0268-1.765-.934-.068.0403-2.648-.9339-.068.0268-1.765-.934-.068.0269-1.765-.9341-.067.0269-1.766-.934-.068.0403-2.648-.9341-.067.0403-2.649-.934-.067.0537-3.532-.934-.067.0672-4.414-.9339-.068.1208-7.944-.934-.068.0671-4.414.9341.068.1074-7.063.9339.068.0403-2.648.934.068.0403-2.649.9341.067.0268-1.765.934.068.0403-2.649.9341.067.0268-1.765.934.068.0269-1.765.934.067.0135-.883.9339.067.0134-.883.934.068.0135-.8826.934.0676.0134-.8826.934.0675.0269-1.7662.934.0675.0135-.8825.934.0675.0134-.8826.934.0675.0135-.8826 1.8679.1351.0134-.8826.9341.0675.0134-.8836.934.0675.0134-.8825.9341.0675.0134-.8826 1.868.135.0135-.8825 1.8679.135.0134-.8826 1.8681.1351.0134-.8826.934.0675.0135-.8836 1.868.135.0135-.8825 2.8019.2025.0135-.8826 1.868.1351.0134-.8826 2.8021.2026.0134-.8826 4.67.3376.0135-.8836 4.67.3376.0134-.8826 10.274.7428-.0135.8825 6.5388.4728-.0134.8836 3.7352.27-.0134.8826 3.7363.2701-.0134.8826 1.8676.135-.0134.8826 2.8025.2026-.0134.8826 1.8676.135-.0135.8836 1.8687.1351-.0134.8826 1.8676.135-.0134.8826 1.8676.135-.0134.8826.9349.0675-.0135.8826 1.8677.135-.0135.8826.9338.0675-.0134.8836.9338.0675-.0134.8826 1.8687.1348-.0135.883.9337.067-.013.883.934.068-.014.882.934.068-.014.883.935.068.027-1.766-.935-.068.014-.883-.934-.067.013-.883-.933-.067.013-.8828-.9338-.0675.0134-.8836-.9338-.0675.0135-.8826-.9349-.0675.0134-.8826-.9338-.0675.0134-.8826-.9338-.0675.0134-.8826-.9338-.0675.0135-.8826-.9338-.0675.0134-.8836-1.8687-.1351.0134-.8826-.9338-.0675.0134-.8826-.9338-.0675.0135-.8826-.9338-.0675.0134-.8826-1.8687-.1351.0134-.8836-.9338-.0675.0134-.8825-1.8676-.1351.0135-.8825.9338.0675.0134-.8826-.9338-.0675.0269-1.7662-.9339-.0675.0269-1.7652-.9349-.0676.0403-2.6477-.9338-.0675.0537-3.5314-.9338-.0675.0806-5.2965-.9338-.0675.1746-11.477.9338.0676.0806-5.2966.9338.0675.0403-2.6481.9338.0675.0403-2.6484.9348.0676.0269-1.7654.9338.0675.0269-1.7656.9338.0675.0268-1.7656.9339.0675.0268-1.7655.9338.0675.0135-.8827.9348.0676.0135-.8828.9338.0675.0268-1.7656.9338.0675.0135-.8828.9338.0675.0134-.8827.9338.0675.0135-.8828.9338.0675.0134-.8827 1.8687.1351.0134-.8828.9338.0675.0135-.8828.9338.0675.0134-.8827 1.8687.135.0134-.8827.9335.0675.014-.8828 1.867.135.014-.8828 1.869.1351.013-.8827 1.868.135.013-.8827 2.801.2025.014-.8828 2.802.2026.014-.8828 5.604.4051.013-.8828 6.538.4727-.014.8828 6.539.4727-.013.8828 3.735.27-.013.8828 2.802.2026-.013.8828 1.867.135-.013.8827 2.802.2026-.013.8828 1.868.135-.014.8828 1.869.1351-.014.8828 1.868.135-.013.8828.933.0675-.013.8828 1.869.135-.014.8828 1.868.1351-.014.8826.934.0675-.013.8828 1.869.1351-.014.8828.934.0675-.014.8828 1.868.135-.013.8828.933.0675-.013.8828 1.869.1351-.014.8828.934.0675-.013.8827.933.0675-.013.8828.934.0675-.014.8828.934.0675-.013.8828.935.0675-.014.8828.934.0675-.013.8828.933.0675-.013.8828.934.0675-.014.8828.934.0675-.013.8827.935.0676-.014.8828.934.0675-.013.8828.933.0675-.013.8828.934.0675-.027 1.7656.934.0675-.014.8826.934.0675.014-.8826-.934-.0675.04-2.6484-.934-.0675.041-2.6483-.934-.0675.027-1.7655-.934-.0676.027-1.7655-.934-.0675.013-.8828-.935-.0676.027-1.7656-.934-.0675.014-.8827.934.0675.013-.8827.935.0675.013-.8827.934.0675.014-.8828.933.0675.014-.8828.934.0675.013-.8828.934.0675.013-.8828 1.869.1351.013-.8827.934.0676.014-.8828.934.0675.013-.8828.934.0675.013-.8828 1.869.1351.013-.8828.934.0675.014-.8828 1.867.1351.014-.8828.933.0675.014-.8827 1.869.1351.013-.8828.934.0675.013-.8828 1.868.135.013-.8827 1.869.135.013-.8827.934.0675.014-.8828 1.867.135.014-.8828 1.868.1351.014-.8827 1.867.135.014-.8828 1.867.1351.014-.8828 2.802.2026.014-.8828 1.867.135.014-.8828 2.802.2026.014-.8828 2.801.2026.014-.8828 3.736.2701.013-.8828 6.538.4726zm-141.14 57.845l.9339.0675-.0135.8826-.9338-.0676z" clip-rule="evenodd" fill="#fff" fill-rule="evenodd"/><path d="M222.27 8.7554l-5.605-.4052-.014.8826-6.538-.4726-.013.8828-3.736-.2701-.014.8828-2.801-.2026-.014.8828-2.802-.2026-.014.8828-1.867-.135-.014.8828-2.802-.2026-.014.8828-1.867-.1351-.014.8828-1.867-.135-.014.8827-1.868-.1351-.014.8828-1.867-.135-.014.8828-.934-.0675-.013.8827-1.869-.135-.013.8827-1.868-.135-.013.8828-.934-.0675-.013.8828-1.869-.1351-.014.8827-.933-.0675-.014.8828-1.867-.1351-.014.8828-.934-.0675-.013.8828-1.869-.1351-.013.8828-.934-.0675-.013.8828-.934-.0675-.014.8828-.934-.0676-.013.8827-1.869-.1351-.013.8828-.934-.0675-.013.8828-.934-.0675-.014.8828-.933-.0675-.014.8828-.934-.0675-.013.8827-.935-.0675-.013.8827-.934-.0675-.014.8827.934.0675-.027 1.7656.935.0676-.013.8828.934.0675-.027 1.7655.934.0676-.027 1.7655.934.0675-.041 2.6483.934.0675-.04 2.6484.934.0675-.014.8826-.934-.0675.014-.8826-.934-.0675.027-1.7656-.934-.0675.013-.8828-.933-.0675.013-.8828-.934-.0675.014-.8828-.935-.0676.013-.8827-.934-.0675.014-.8828-.934-.0675.013-.8828-.933-.0675.013-.8828-.934-.0675.014-.8828-.935-.0675.013-.8828-.934-.0675.014-.8828-.934-.0675.013-.8828-.933-.0675.013-.8827-.934-.0675.014-.8828-1.869-.1351.013-.8828-.933-.0675.013-.8828-1.868-.135.014-.8828-.934-.0675.014-.8828-1.869-.1351.013-.8828-.934-.0675.014-.8826-1.868-.1351.014-.8828-1.869-.135.013-.8828-.933-.0675.013-.8828-1.868-.135.014-.8828-1.869-.1351.014-.8828-1.868-.135.013-.8828-2.802-.2026.013-.8827-1.867-.135.013-.8828-2.802-.2026.013-.8828-3.735-.27.013-.8828-6.539-.4727.014-.8828-6.538-.4727-.013.8828-5.604-.4051-.014.8828-2.802-.2026-.014.8828-2.801-.2025-.013.8827-1.868-.135-.013.8827-1.869-.1351-.014.8828-1.867-.135-.014.8828-.9335-.0675-.0134.8827-1.8687-.135-.0134.8827-.9338-.0675-.0135.8828-.9338-.0675-.0134.8828-1.8687-.1351-.0134.8827-.9338-.0675-.0135.8828-.9338-.0675-.0134.8827-.9338-.0675-.0135.8828-.9338-.0675-.0268 1.7656-.9338-.0675-.0135.8828-.9348-.0676-.0135.8827-.9338-.0675-.0268 1.7655-.9339-.0675-.0268 1.7656-.9338-.0675-.0269 1.7656-.9338-.0675-.0269 1.7654-.9348-.0676-.0403 2.6484-.9338-.0675-.0403 2.6481-.9338-.0675-.0806 5.2966-.9338-.0676-.1746 11.477.9338.0675-.0806 5.2965.9338.0675-.0537 3.5314.9338.0675-.0403 2.6477.9349.0676-.0269 1.7652.9339.0675-.0269 1.7662.9338.0675-.0134.8826-.9338-.0675-.0135.8825 1.8676.1351-.0134.8825.9338.0675-.0134.8836 1.8687.1351-.0134.8826.9338.0675-.0135.8826.9338.0675-.0134.8826.9338.0675-.0134.8826 1.8687.1351-.0134.8836.9338.0675-.0135.8826.9338.0675-.0134.8826.9338.0675-.0134.8826.9338.0675-.0134.8826.9349.0675-.0135.8826.9338.0675-.0134.8836.9338.0675-.013.8828.933.067-.013.883.934.067-.014.883.935.068-.027 1.766-.935-.068.014-.883-.934-.068.014-.882-.934-.068.013-.883-.9337-.067.0135-.883-1.8687-.1348.0134-.8826-.9338-.0675.0134-.8836-.9338-.0675.0135-.8826-1.8677-.135.0135-.8826-.9349-.0675.0134-.8826-1.8676-.135.0134-.8826-1.8676-.135.0134-.8826-1.8687-.1351.0135-.8836-1.8676-.135.0134-.8826-2.8025-.2026.0134-.8826-1.8676-.135.0134-.8826-3.7363-.2701.0134-.8826-3.7352-.27.0134-.8836-6.5388-.4728.0135-.8825-10.274-.7428-.0134.8826-4.67-.3376-.0135.8836-4.67-.3376-.0134.8826-2.8021-.2026-.0134.8826-1.868-.1351-.0135.8826-2.8019-.2025-.0135.8825-1.868-.135-.0135.8836-.934-.0675-.0134.8826-1.8681-.1351-.0134.8826-1.8679-.135-.0135.8825-1.868-.135-.0134.8826-.9341-.0675-.0134.8825-.934-.0675-.0134.8836-.9341-.0675-.0134.8826-1.8679-.1351-.0135.8826-.934-.0675-.0134.8826-.934-.0675-.0135.8825-.934-.0675-.0269 1.7662-.934-.0675-.0134.8826-.934-.0676-.0135.8826-.934-.068-.0134.883-.9339-.067-.0135.883-.934-.067-.0269 1.765-.934-.068-.0268 1.765-.9341-.067-.0403 2.649-.934-.068-.0268 1.765-.9341-.067-.0403 2.649-.934-.068-.0403 2.648-.9339-.068-.1074 7.063-.9341-.068-.0671 4.414.934.068-.1208 7.944.9339.068-.0672 4.414.934.067-.0537 3.532.934.067-.0403 2.649.9341.067-.0403 2.648.934.068-.0269 1.766.9341.067-.0269 1.765.934.068-.0268 1.765.9339.068-.0403 2.648.934.068-.0268 1.765.934.068-.0134.882.934.068-.0269 1.766.934.067-.0134.883.934.068-.0268 1.765.934.067-.0269 1.766.9341.068-.0135.883.934.067-.0269 1.765.934.068-.0134.882.934.068-.0134.883.934.068-.0134.883.934.067-.0269 1.765.9341.068-.0135.882.9341.068-.0135.884.9339.067-.0268 1.765.934.068-.0134.882.934.068-.0134.882.934.068-.0134.884.934.067-.0134.883.934.067-.0134.883.934.067-.0134.883.9339.067-.0269 1.766.934.067-.0134.884.934.067-.0134.883.934.067-.0134.883.934.067-.0134.883.934.068-.0134.882.934.068-.0134.883.9339.068-.0135.882.9341.068-.0135.882.9341.068-.0135.883.9341.067-.0135.883.9341.067-.0135.884.934.067-.0134.883.934.067-.0134.883.934.068-.0134.882.9339.068-.0134.882.934.068-.0134.882.934.068-.0134.883.934.068-.0134.883.9342.067-.0134.883.9338.067-.0134.883.9338.067-.0134.883 1.8687.135-.0135.884.9338.067-.0134.883.9338.067-.0134.883.9338.067-.0134.883 1.8676.135-.0135.882.9349.068-.0134.883.9338.067-.0134.884 1.8676.135-.0134.882.9338.068-.0135.882 1.8687.135-.0134.883 1.8676.135-.0134.883.9338.067-.0269 1.766-.9338-.067-.0134.882-5.6039-.405.0134-.882-1.8676-.135.0134-.883-1.8687-.135.0135-.884-1.8677-.135.0135-.882-.9338-.068.0134-.882-1.8687-.135.0134-.883-1.8676-.135.0134-.883-.9338-.067.0135-.884-.9343-.067.0134-.883-1.868-.135.0134-.882-.934-.068.0134-.883-.9339-.067.0134-.883-.934-.067.0134-.883-1.868-.135.0134-.883-.934-.068.0134-.883-.934-.067.0134-.883-.934-.067.0134-.883-.934-.067.0134-.883-.9339-.067.0135-.884-.934-.067.0134-.883-.934-.068.0134-.882-.934-.068.0134-.882-.934-.068.0134-.882-.934-.068.0134-.882-.934-.068-.0135.883-.9339-.068-.0134.883-.934-.068-.0135.883-.934-.068-.0134.883-.934-.068-.0135.883-.934-.068-.0134.884-.934-.068-.0135.883-.934-.068-.0134.883-.9339-.067-.0135.882-.934-.067-.0134.882-.934-.067-.0135.883-.934-.067-.0269 1.765-.934-.068-.0134.883-.934-.068-.0135.883-.934-.068-.0269 1.767-.9339-.068-.0134.883-.934-.068-.0135.883-.934-.068-.0268 1.765-.9341-.067-.0268 1.766-.9341-.067-.0134.882-.934-.067-.0269 1.765-.934-.068-.0269 1.766-.934-.067-.0403 2.648-.9339-.068-.0403 2.649-.934-.068-.0403 2.648-.934-.067-.0806 5.297-.934-.067-.1075 7.061.9341.068-.1075 7.062.9341.067-.0403 2.649.934.067-.0403 2.649.9339.068-.0269 1.765.9341.067-.0269 1.765.934.068-.0268 1.766.934.068-.0134.882.934.068-.0269 1.765.9341.068-.0135.882.9341.068-.0135.883.934.068-.0134.882.9339.068-.0134.882.934.068-.0134.883.934.067-.0134.883.934.067-.0134.884.934.067-.0134.883 1.868.135-.0134.883.9339.067-.0134.883.934.067-.0134.883 1.868.135-.0134.883.934.068-.0134.882 1.868.136-.0134.882.9339.068-.0134.882 1.868.135-.0134.883 1.8681.135-.0135.882 1.8681.136-.0135.883 1.868.135-.0135.883 2.8021.202-.0134.883 2.8021.202-.0135.883 4.6703.338-.0135.882 2.8015.203.0537-3.531.9349.068.0671-4.414.9338.068.0537-3.532.9339.068.0268-1.765.9338.067.0269-1.766.9338.067.0269-1.765.9338.068.0268-1.766.9349.067.0134-.882.9339.067.0134-.882.9338.067.0268-1.765.9339.067.0134-.882.9338.067.0134-.883.9349.067.0134-.882.9339.067-.1075 7.063-.9338-.068-.0403 2.648-.9349-.067-.0537 3.531-.9338-.068-.0403 2.649-.9338-.067-.0403 2.647-.9338-.067-.2015 13.242.9339.067-.0806 5.297.9338.067-.0672 4.414.9338.068-.0537 3.531.9349.068-.0269 1.765.9339.067-.0269 1.765.9338.068-.0269 1.766.9338.068-.0268 1.765.9338.067-.0134.883.9349.067-.0269 1.767.9338.067-.0134.883.9338.067-.0135.883.9339.067-.0135.883.9338.067-.0134.883.9338.068-.0134.883.9349.068-.0135.882.9338.068-.0134.882 1.8676.135-.0134.883.9338.068-.0134.882 1.8687.135-.0135.884 1.8677.135-.0135.882 1.8677.135-.0135.883 1.8687.135-.0134.883 3.7363.27-.0134.882 12.142.878.013-.882 4.67.337.014-.882 2.802.202.014-.882 2.801.202.014-.882 2.802.202.014-.883 2.801.202.014-.882 1.868.135.014-.883 1.867.135.014-.883 1.867.135.014-.882 1.868.135.014-.884 1.867.135.014-.882 1.868.135.013-.883.935.068.013-.883 1.868.135.013-.882.934.067.014-.882 1.868.135.014-.884.933.068.014-.883.934.068.013-.883.934.067.013-.882.934.067.027-1.766.934.068.013-.883.935.068.027-1.765.934.067.013-.883.934.068.067-4.414-.934-.067.054-3.532-.934-.067.121-7.946-.935-.067.067-4.414.935.067.068-4.413.933.067.054-3.53.934.067.027-1.766.934.068.04-2.648.934.067.026-1.766.935.068.014-.883.934.068.026-1.766.934.068.014-.883.934.068.026-1.766.934.067.014-.882.935.067.013-.882.934.067.013-.882.934.067-.013.883.933.067-.027 1.765-.933-.067-.041 2.649-.933-.068-.027 1.765-.934-.067-.054 3.531-.935-.067-.053 3.531-.934-.068-.202 13.241.934.068-.08 5.297.934.068-.053 3.53.934.068-.054 3.531.934.067-.041 2.649.934.068-.027 1.765.934.067-.027 1.766.934.067-.027 1.766.935.068-.013.882.933.068-.026 1.765.933.068-.013.883.934.068-.014.882.934.068-.013.882.935.068-.027 1.765.934.068-.014.882 1.868.135-.014.884.934.067-.013.883.933.067-.013.883.935.068-.013.882 1.867.135-.013.883 1.867.135-.013.883 1.869.136-.014.882 1.868.135-.014.883 4.67.337-.013.883 5.604.405.013-.883 6.539.473.014-.882 3.735.27.013-.883 2.803.203.013-.884 2.802.203.013-.883 1.869.135.013-.883 1.868.135.013-.882 1.869.135.013-.883 1.868.135.013-.883.934.067.014-.882 1.867.135.014-.883.935.068.013-.883.934.068.013-.883.934.068.014-.883.933.068.014-.884.934.067.013-.882.935.067.013-.882.934.067.014-.882.933.067.014-.882.934.067.013-.883.934.067.027-1.765.934.068.013-.883.935.068.013-.883.934.067.027-1.766.934.068.013-.883.934.068.027-1.765-.934-.068.013-.883-.933-.067.013-.884-1.869-.135.014-.882-.934-.068.013-.882-.933-.068.013-.883-.934-.067.027-1.766-.934-.068.014-.882-.934-.068.013-.882 1.868.135-.013.882 1.867.135-.013.883 1.868.135-.013.883 1.868.135-.014.883 1.868.135-.014.883 2.803.202-.014.883 1.868.135-.013.882 2.802.203-.013.884 1.867.135-.013.882 2.802.203-.013.882 3.736.271-.013.882 3.735.27-.013.883 14.01 1.013.013-.883 3.737.27.013-.882 3.736.27.014-.883 1.868.135.013-.882 1.868.135.013-.884 1.869.135.013-.883 1.868.135.013-.882.934.067.013-.882 1.869.135.014-.883.933.068.014-.884.934.068.013-.883.934.068.013-.883.934.068.013-.883.935.068.027-1.767.934.068.014-.883.933.068.027-1.765.934.067.027-1.765.934.068.027-1.767.934.068.054-3.531.934.067.054-3.53.933.067.081-5.296.934.067.376-24.718-.934-.068.081-5.296-.934-.068.067-4.414-.934-.067.04-2.648-.934-.068.04-2.648-.934-.068.04-2.648-.933-.067.026-1.766-.933-.068.04-2.648-.934-.067.014-.883-.935-.067.026-1.766-.933-.068.027-1.765-.934-.068.013-.882-.934-.068.027-1.766-.934-.067.014-.883-.935-.068.013-.882-.933-.068.013-.882-.934-.068.027-1.766-.934-.067.014-.883 2.801.203-.013.882.935.068-.014.882.934.068-.014.883.934.068-.013.883 1.867.135-.013.882.935.068-.013.882.933.068-.013.882.934.068-.027 1.766.934.068-.014.882.934.068-.013.882.934.068-.026 1.766.933.068-.026 1.765.933.067-.013.883.934.067-.041 2.649.934.068-.013.882 4.67.338.013-.883 2.803.203.013-.884 1.868.135.013-.882.934.067.014-.882.933.067.027-1.765.935.067.04-2.648.934.067.067-4.414.934.068.014-.883-.934-.067.054-3.532-1.869-.135.013-.882-2.801-.203.013-.882-.933-.068.013-.883-1.869-.135.014-.882-.934-.068.013-.883-.933-.068.013-.882-.934-.068.014-.882-.934-.068.027-1.765-.935-.068.013-.883 1.869.135-.014.883 3.737.27-.014.883 2.802.203-.014.882 2.803.203-.014.882 3.736.27-.014.883 4.67.338-.013.883 10.274.743.013-.884 2.803.203.013-.883 1.868.135.013-.882 1.869.135.013-.883.934.068.014-.883 1.867.135.014-.883.934.067.013-.882.935.067.013-.882.934.067.027-1.765.934.067.013-.882.934.067.027-1.766.934.068.027-1.766.934.068.041-2.649.934.068.053-3.532.934.068.054-3.53.934.067.188-12.359-.934-.068.054-3.531-.934-.067.04-2.648-.934-.068.04-2.648-.934-.068.04-2.648-.934-.067.027-1.767-.934-.067.027-1.765-.934-.068.04-2.648-.933-.068.027-1.765-.935-.068.026-1.765-.933-.067.013-.884-.934-.068.027-1.765-.934-.067.027-1.765-.934-.068.014-.882-.934-.068.027-1.766-.935-.068.013-.882-.933-.068.013-.882-.934-.068.027-1.766-.934-.068.014-.882-.934-.068.013-.882-.935-.068.014-.882-.934-.068.014-.883-.934-.067.013-.884-.934-.067.014-.883-.934-.067.013-.883-.935-.067.014-.883-.934-.067.014-.883-.934-.068.013-.882-.934-.068.014-.883-.934-.068.013-.882-.933-.068.013-.882-1.869-.136.014-.882-.934-.068.013-.882-.933-.068.013-.883-.934-.068.014-.882-1.869-.136.013-.882-.933-.068.013-.882-1.868-.135.014-.883-.935-.067.013-.884-.933-.068.013-.882-1.868-.135.014-.883-.934-.067.013-.883-1.868-.135.013-.882-.934-.068.014-.883-2.802-.202.014-.884-2.803-.202.014-.883-2.802-.202.014-.883-1.869-.135.013-.883 4.671.338-.014.883 11.208.81.013-.883 2.803.203.013-.883 2.802.203.013-.884 1.869.135.013-.882.934.067.014-.882 1.867.135.014-.883 1.868.135.014-.882.934.067.013-.883.934.068.027-1.766.933.067.014-.882.934.067.027-1.765.934.068.027-1.767.934.068.027-1.765.934.067.027-1.766.933.068.027-1.766.934.068.04-2.648.935.068.041-2.649.933.068.175-11.476-.934-.0675.04-2.6488-.934-.0676.013-.8826-.934-.0675.027-1.7662-.934-.0675.014-.8826-.934-.0675.013-.8826-.934-.0675.027-1.7651-1.868-.1351.013-.8826-.934-.0675.014-.8836-.934-.0675.013-.8826-1.867-.135.013-.8826-.935-.0676.014-.8826-1.868-.135.013-.8826-1.867-.135.013-.8836-2.802-.2026.013-.8826-2.802-.2026.013-.8826-3.735-.27.013-.8826-6.538-.4727.013-.8826-15.878-1.1479-.013.8826-5.604-.4051-.014.8826-3.736-.2701-.014.8826-3.735-.2701-.013.8826-2.803-.2026-.013.8836-2.802-.2025-.013.8826-2.803-.2026-.013.8825-2.802-.2026-.027 1.7652-.934-.0675-.04 2.6488-.934-.0675-.054 3.5313-.934-.0675-.04 2.6477-.934-.0675-.027 1.7662-.933-.0675-.027 1.7652-.935-.0676-.027 1.7652-.934-.0676-.027 1.7662-.934-.0675-.013.8826-.934-.0675-.027 1.7652-.933-.0675-.014.8825-.935-.0675-.027 1.7662-1.867-.135-.014.883-.934-.068.014-.883.934.068.04-2.6488.934.0675.027-1.7652.933.0675.041-2.6488.935.0676.04-2.6477.934.0675.053-3.5314.934.0675.054-3.5313.934.0675.054-3.5303.933.0675.054-3.5314.935.0676.054-3.5313.934.0675.12-7.9453.934.0675.027-1.7652-.934-.0675.108-7.0622-.934-.0675.067-4.4139-.935-.0676.04-2.6483-.933-.0675.04-2.6483-.934-.0675.027-1.7655-.934-.0675.027-1.7656-.934-.0675.027-1.7656-.935-.0676.027-1.7655-.934-.0675.014-.8827-.934-.0675.027-1.7656-.934-.0675.013-.8828-.933-.0675.013-.8828-.935-.0676.013-.8828-.933-.0675.013-.8828-.934-.0675.014-.8827-1.868-.135.014-.8828-.934-.0675.013-.8828-.935-.0675.014-.8828-1.868-.135.014-.8828-1.868-.1351.013-.8827-1.868-.1351.013-.8828-2.801-.2025.013-.8828-5.604-.4052z" fill="#fff"/><path d="M211.18 0l-.013.8828-3.735-.27-.014.8828-4.67-.3376-.013.8827-1.869-.1351-.013.8827-2.802-.2025-.013.8828-1.869-.1351-.013.8828-2.802-.2025-.013.8828-1.869-.1351-.013.8828-1.868-.1351-.013.8828-.934-.0675-.014.8827-1.868-.1351-.014.8828-1.867-.135-.014.8828L183 8.5676l-.014.8828-.934-.0675-.013.8828-1.869-.1351-.013.8828-.934-.0675-.013.8828-1.868-.135-.013.8828-.935-.0676-.014.8827-.934-.0676-.013.8828-1.868-.135-.013.8828-.934-.0675-.013.8828-.935-.0676-.014.8828-.933-.0675-.014.8828-.934-.0675-.013.8827-.934-.0675-.013.8827-.934-.0675-.014.8828-.933-.0675-.014.8828-.935-.0676-.013.8828-.934-.0675-.013.8828-.934-.0676-.014.8828-.933-.0675-.014.8828-.934-.0675-.026 1.7655-.935-.0676.013-.8828-.934-.0675.014-.8827-.934-.0675.013-.8828-.933-.0675.013-.8828-.934-.0675.014-.8828-.934-.0675.013-.8828-.935-.0676.027-1.7655-1.867-.1351.013-.8826-.934-.0675.014-.8828-1.869-.1351.013-.8828-.933-.0675.013-.8828-.934-.0675.014-.8828-1.868-.135.013-.8828-1.868-.1351.013-.8828-1.867-.135.013-.8827-1.868-.135.014-.8828-1.869-.1351.013-.8828-2.801-.2025.014-.8828-2.803-.2026.013-.8828-3.736-.2701.014-.8828-3.736-.27.014-.8828-14.944-1.0804-.014.8828-4.67-.3376-.013.8828-3.737-.2701-.013.8828-1.868-.135-.013.8827-1.869-.1351-.013.8828-1.868-.135-.013.8828-1.8691-.1351-.0134.8827-1.8676-.135-.0134.8828-.9338-.0675-.0135.8827-1.8687-.135-.0134.8827-.9338-.0675-.0134.8828-.9339-.0675-.0134.8828-1.8676-.135-.0134.8828-.9338-.0675-.0135.8826-.9349-.0675-.0134.8827-.9338-.0675-.0134.8828-.9338-.0675-.0135.8828-.9338-.0675-.0134.8828-.9338-.0675-.0134.8828-.9349-.0676-.0269 1.7654-.9338-.0675-.0134.8828-.9338-.0675-.0269 1.7656-.9338-.0675-.0134.8828-.9338-.0675-.0269 1.7655-.9338-.0675-.0269 1.7655-.9349-.0676-.0403 2.6484-.9338-.0675-.0268 1.7655-.9338-.0675-.0537 3.5311-.9339-.0675-.0537 3.5309-.9338-.0675-.2552 16.773.9338.0675-.0537 3.5303.9338.0675-.0403 2.6488.9339.0675-.0403 2.6488.9338.0675-.0269 1.7651.9349.0676-.0269 1.7652-1.8687-.1351.0135-.8826-2.8015-.2025.0135-.8826-3.7363-.2701.0134-.8826-4.6701-.3376.0134-.8826-14.944-1.0804-.0134.8826-5.604-.4051-.0135.8825-2.802-.2025-.0135.8826-2.8019-.2026-.0135.8826-1.868-.1351-.0134.8826-.9341-.0675-.0134.8836-1.8679-.1351-.0135.8826-1.868-.135-.0134.8826-.9341-.0676-.0134.8826-1.868-.135-.0135.8826-1.8679-.1351-.0135.8836-1.868-.135-.0134.8826-.9341-.0676-.0134.8826-.934-.0675-.0134.8826-.9341-.0675-.0134.8825-.934-.0675-.0135.8836-1.8679-.135-.0134.8826-.934-.0676-.0135.8826-.934-.0675-.0134.8826-.9341-.0676-.0134.8826-.934-.0675-.0269 1.7662-1.868-.1351-.0134.8826-.934-.0675-.0134.8826-.934-.0675-.0134.8826-.9341-.0676-.0268 1.7662-.9341-.0675-.0268 1.7652-.934-.0676-.02689 1.7654-.93403-.068-.02687 1.766-.93402-.067-.04028 2.648-.93392-.068-.02687 1.766-.93402-.067-.04029 2.648-.93402-.068-.05373 3.531-.93402-.067-.09401 6.179-.93402-.068-.16116 10.593.93402.068-.09402 6.18.93403.068-.06715 4.414.93402.067-.04028 2.648.93402.067-.0403 2.649.93392.068-.04028 2.647.93402.068-.04029 2.649.93402.067-.02685 1.765.93407.068-.0269 1.766.934.068-.0269 1.765.9341.067-.0269 1.765.934.068-.0268 1.766.9339.068-.0269 1.765.9341.067-.0269 1.767.934.067-.0134.883.934.067-.0134.883.934.067-.0269 1.766.9341.067-.0135.883.9341.067-.0269 1.766.9339.068-.0134.882.934.068-.0134.883.934.067-.0269 1.766.9341.068-.0135.882.9341.068-.0135.882.9341.068-.0135.883.9341.067-.0135.883.9341.067-.0269 1.766.9339.068-.0134.882.934.068-.0134.883.934.067-.0134.883.934.067-.0134.883.934.067-.0135.884.9341.067-.0135.883.9341.068-.0135.882.934.068-.0135.882.9341.068-.0269 1.766-.934-.068-.0135.883-.9339-.068-.0134.883-.934-.067-.0135.882-.934-.067-.0134.882-1.8681-.135-.0134.884-.934-.068-.0135.883-.934-.068-.0134.883-.9339-.068-.0135.883-.934-.068-.0134.883-.934-.068-.0135.883-.934-.067-.0134.883-.934-.067-.0269 1.765-.934-.068-.0135.883-.934-.068-.0134.883-.934-.068-.0135.884-.9339-.068-.0268 1.766-.9341-.068-.0134.883-.934-.068-.0269 1.765-.934-.067-.0134.883-.9341-.067-.0268 1.765-.934-.068-.0269 1.766-.934-.068-.0269 1.766-.9339-.067-.0269 1.765-.934-.068-.0269 1.767-.934-.068-.0403 2.648-.93399-.068-.05372 3.532-.93403-.068-.05372 3.532-.93402-.068-.24174 15.89.93402.067-.08058 5.297.93403.067-.0403 2.649.93402.067-.04028 2.648.93401.068-.0269 1.766.9341.067-.0269 1.766.9339.067-.0268 1.765.934.068-.0269 1.766.9341.067-.0135.883.934.068-.0268 1.765.934.067-.0134.883.934.067-.0134.884.934.068-.0134.882.9339.068-.0134.882.934.068-.0134.882.934.068-.0134.882.934.068-.0135.884.9341.067-.0135.883.9341.067-.0135.883.9341.067-.0135.883 1.868.135-.0135.882.9341.068-.0135.883.9341.067-.0135.884 1.8681.135-.0135.882 1.8681.135-.0134.883.9339.067-.0134.883 1.868.135-.0134.883 1.868.135-.0134.883 1.868.135-.0134.883 1.8679.135-.0134.883 2.8021.202-.0134.883 1.868.135-.0134.882 3.736.27-.0135.883 3.7361.27-.0134.884 7.4716.54-.1208 7.944.9349.068-.0672 4.414.9338.067-.0537 3.532.9338.067-.0403 2.649.9338.067-.0268 1.766.9338.067-.0269 1.765.9338.068-.0268 1.766.9348.067-.0268 1.766.9338.067-.0134.883.9338.067-.0134.883.9338.067-.0269 1.766.9338.068-.0134.883.9349.067-.0135.883.9338.067-.0134.883.9338.067-.0134.884.9338.067-.0134.883.9338.068-.0135.882.9349.068-.0134.882.9338.068-.0134.882.9338.068-.0134.883 1.8676.135-.0135.883.9338.068-.0134.882 1.8687.135-.0134.883 1.8676.135-.0134.882 1.8687.136-.0135.882 1.8677.135-.0135.884 2.8014.202-.0134.883 3.7363.27-.0134.883 15.878 1.147.013-.882 4.67.338.014-.883 3.736.27.013-.884 2.803.203.013-.883 1.868.135.013-.882 2.803.202.013-.882 1.868.135.013-.883 1.868.135.013-.883 1.869.135.014-.883 1.867.135.014-.882 1.867.135.014-.883.935.068.013-.883 1.868.135.013-.882.934.067.013-.884.934.068.013-.883 1.869.135.014-.882.933.067.027-1.765.934.068.014-.884.933.068.014-.883.934.068.013-.883.935.068.013-.883.934.068.027-1.766.934.068.013-.884.934.068.027-1.765.934.067.013-.882.935.067-.027 1.765.934.068-.013.882.933.068-.027 1.766.934.068-.027 1.765.934.067-.013.883.935.067-.027 1.767.934.067-.014.883.934.067-.013.883.933.067-.013.883.934.067-.014.883.934.067-.013.884.935.068-.014.882.934.068-.013.882.933.068-.013.882.934.068-.014.883.934.067-.013.883 1.868.135-.013.883 1.868.135-.014.883.934.067-.013.883 1.868.135-.013.883 1.867.135-.013.882 2.802.203-.013.883 3.735.271-.013.882 15.879 1.148.013-.883 3.736.27.013-.883 3.736.27.014-.883 2.802.203.014-.883 2.801.203.014-.883 1.868.135.014-.882 1.867.135.014-.884 1.867.135.014-.882.934.067.013-.882 1.869.135.013-.883 1.868.135.013-.882.934.067.013-.882.935.067.014-.883.934.067.013-.883 1.868.135.026-1.765.934.068.014-.883.933.068.014-.884.935.068.013-.883.934.068.027-1.766.934.068.013-.883.934.068.027-1.766.934.067.04-2.648.935.068.013-.883.934.068.04-2.649.934.068.027-1.765.934.067.013-.884.934.068-.013.884 1.868.135-.013.882 2.801.203-.013.882 2.802.203-.013.883 2.801.202-.013.883 4.67.337-.013.884 13.076.945.014-.883 4.67.337.013-.882 3.736.27.014-.883 2.801.203.014-.883 1.868.135.014-.882 1.868.135.013-.884 1.868.135.013-.883 1.869.136.013-.883.934.068.013-.883 1.868.135.013-.883.934.068.014-.883.935.068.013-.884.934.068.013-.883.934.068.013-.883.934.068.014-.883.933.068.014-.883.935.068.013-.884.934.067.027-1.765.934.068.013-.883.934.068.027-1.766.934.067.026-1.765.934.067.027-1.765.935.068.04-2.649.934.068.067-4.414.934.067.054-3.53.934.067.12-7.945.934.068.242-15.891-.934-.068.121-7.944-.934-.067.067-4.414-.933-.068.053-3.531-.933-.068.013-.882 4.67.337.014-.882 2.801.202.013-.882 1.868.135.013-.884 1.869.135.014-.882.933.067.014-.882.934.067.013-.882.934.067.013-.883.935.068.027-1.766.934.067.027-1.765.933.068.041-2.649.934.067.12-7.944.934.068-.013.882 8.406.608.014-.883 4.67.338.013-.884 2.803.203.013-.883 1.868.135.013-.882 1.868.135.013-.883 1.869.135.013-.882.934.067.014-.882.933.067.014-.883.934.067.013-.882.934.067.013-.882.935.067.014-.882.933.067.014-.883.934.068.027-1.766.933.067.027-1.765.934.068.027-1.766.934.068.027-1.766.934.067.041-2.647.934.067.04-2.649.934.068.053-3.531.934.067.121-7.944.934.067.054-3.531-.934-.068.121-7.945-.934-.067.054-3.532-.934-.067.04-2.648-.934-.068.041-2.648-.935-.068.04-2.648-.934-.067.027-1.766-.934-.068.027-1.765-.934-.067.027-1.766-.934-.067.027-1.766-.934-.068.027-1.765-.935-.068.027-1.765-.934-.067.014-.884-.934-.067.027-1.766-.934-.067.027-1.765-.934-.068.014-.883-.935-.068.013-.883-.934-.067.027-1.765-.934-.068.014-.882-.934-.068.013-.883-.933-.068.013-.882-.934-.068.014-.883-.935-.067.013-.883-.934-.067.014-.883-.934-.067.013-.883-.933-.067.013-.884-.934-.068.014-.882-.935-.068.013-.882-.934-.068.014-.882-.934-.068.013-.882-.933-.068.013-.884-.934-.067.014-.883-1.869-.135.013-.882-.933-.068.013-.882-.934-.068.014-.883-1.868-.135.013-.883-1.868-.135.013-.883-.934-.067.014-.883-1.868-.135.014-.883-1.869-.135.013-.882-2.801-.203.013-.882 2.802.202.013-.883 1.869.135.013-.883 1.868.135.013-.882 1.868.135.013-.883.935.068.014-.883.934.068.013-.884.934.067.013-.882.934.067.014-.882.933.067.014-.882.934.067.013-.882.935.067.013-.882.934.067.014-.883.933.067.014-.883.934.068.026-1.765.934.067.014-.882.935.067.013-.883.934.067.027-1.765.933.068.014-.883.934.067.027-1.766.933.068.027-1.765.935.067.027-1.765.934.068.027-1.767.933.068.027-1.765.934.067.04-2.649.934.068.054-3.53.934.067.107-7.0626-.934-.0675.054-3.5313-.934-.0675.027-1.7652-.934-.0675.027-1.7652-.934-.0675.027-1.7662-.934-.0675.014-.8826-.935-.0675.013-.8826-.933-.0675.026-1.7652-.933-.0675.013-.8836-.934-.0675.014-.8826-.934-.0675.013-.8826-1.868-.1351.013-.8826-.934-.0675.014-.8826-.934-.0675.013-.8836-1.868-.1351.013-.8826-1.868-.135.014-.8826-1.868-.135.014-.8826-1.869-.135.013-.8826-1.867-.135.013-.8826-2.802-.2026.013-.8836-2.801-.2026.013-.8825-4.67-.3377.013-.8825-7.472-.5403.013-.8826-14.009-1.0127-.013.8825-6.539-.4727-.014.8826-3.735-.27-.013.8826-2.803-.2026-.013.8836-1.868-.135-.013.8825-1.869-.1351-.013.8826-1.868-.135-.014.8826-1.867-.135-.014.8826-.934-.0676-.014.8825-.934-.0675-.013.8837-1.868-.1351.309-20.304-.934-.0675.068-4.4139-.935-.0676.04-2.6483-.934-.0675.04-2.6483-.933-.0675.04-2.6483-.934-.0675.027-1.7656-.934-.0675.027-1.7655-.934-.0676.014-.8827-.935-.0676.027-1.7655-.934-.0675.013-.8828-.934-.0675.014-.8828-.934-.0675.013-.8828-.933-.0675.013-.8828-.935-.0676.027-1.7655-.934-.0676.014-.8827-1.868-.1351.013-.8826-.933-.0675.013-.8828-.935-.0676.014-.8828-1.868-.135.013-.8828-.933-.0675.013-.8828-1.868-.135.014-.8828-1.869-.1351.014-.8828-1.868-.135.013-.8827-2.802-.2026.013-.8828-3.736-.2701.013-.8828zm5.484 8.3502l5.605.4052-.014.8826 5.604.4052-.013.8828 2.801.2025-.013.8828 1.868.1351-.013.8827 1.868.1351-.014.8828 1.868.135-.014.8828.935.0675-.013.8828.934.0675-.014.8828 1.868.135-.014.8827.934.0675-.013.8828.933.0675-.013.8828.935.0676-.013.8828.933.0675-.013.8828.934.0675-.027 1.7656.934.0675-.014.8827.934.0675-.027 1.7655.935.0676-.027 1.7656.934.0675-.027 1.7656.934.0675-.027 1.7655.934.0675-.04 2.6483.933.0675-.04 2.6483.935.0676-.067 4.4139.934.0675-.108 7.0622.934.0675-.027 1.7652-.934-.0675-.12 7.9453-.934-.0675-.054 3.5313-.935-.0676-.054 3.5314-.933-.0675-.054 3.5303-.934-.0675-.054 3.5313-.934-.0675-.053 3.5314-.934-.0675-.04 2.6477-.935-.0676-.041 2.6488-.933-.0675-.027 1.7652-.934-.0675-.04 2.6488-.934-.068-.014.883.934.068.014-.883 1.867.135.027-1.7662.935.0675.014-.8825.933.0675.027-1.7652.934.0675.013-.8826.934.0675.027-1.7662.934.0676.027-1.7652.935.0676.027-1.7652.933.0675.027-1.7662.934.0675.04-2.6477.934.0675.054-3.5313.934.0675.04-2.6488.934.0675.027-1.7652 2.802.2026.013-.8825 2.803.2026.013-.8826 2.802.2025.013-.8836 2.803.2026.013-.8826 3.735.2701.014-.8826 3.736.2701.014-.8826 5.604.4051.013-.8826 15.878 1.1479-.013.8826 6.538.4727-.013.8826 3.735.27-.013.8826 2.802.2026-.013.8826 2.802.2026-.013.8836 1.867.135-.013.8826 1.868.135-.014.8826.935.0676-.013.8826 1.867.135-.013.8826.934.0675-.014.8836.934.0675-.013.8826 1.868.1351-.027 1.7651.934.0675-.013.8826.934.0675-.014.8826.934.0675-.027 1.7662.934.0675-.013.8826.934.0676-.04 2.6488.934.0675-.175 11.476-.933-.068-.041 2.649-.935-.068-.04 2.648-.934-.068-.027 1.766-.933-.068-.027 1.766-.934-.067-.027 1.765-.934-.068-.027 1.767-.934-.068-.027 1.765-.934-.067-.014.882-.933-.067-.027 1.766-.934-.068-.013.883-.934-.067-.014.882-1.868-.135-.014.883-1.867-.135-.014.882-.934-.067-.013.882-1.869-.135-.013.884-2.802-.203-.013.883-2.803-.203-.013.883-11.208-.81.014-.883-4.671-.338-.013.883 1.869.135-.014.883 2.802.202-.014.883 2.803.202-.014.884 2.802.202-.014.883.934.068-.013.882 1.868.135-.013.883.934.067-.014.883 1.868.135-.013.882.933.068-.013.884.935.067-.014.883 1.868.135-.013.882.933.068-.013.882 1.869.136-.014.882.934.068-.013.883.933.068-.013.882.934.068-.014.882 1.869.136-.013.882.933.068-.013.882.934.068-.014.883.934.068-.013.882.934.068-.014.883.934.067-.014.883.935.067-.013.883.934.067-.014.883.934.067-.013.884.934.067-.014.883.934.068-.014.882.935.068-.013.882.934.068-.014.882.934.068-.027 1.766.934.068-.013.882.933.068-.013.882.935.068-.027 1.766.934.068-.014.882.934.068-.027 1.765.934.067-.027 1.765.934.068-.013.884.933.067-.026 1.765.935.068-.027 1.765.933.068-.04 2.648.934.068-.027 1.765.934.067-.027 1.767.934.067-.04 2.648.934.068-.04 2.648.934.068-.04 2.648.934.067-.054 3.531.934.068-.188 12.359-.934-.067-.054 3.53-.934-.068-.053 3.532-.934-.068-.041 2.649-.934-.068-.027 1.766-.934-.068-.027 1.766-.934-.067-.013.882-.934-.067-.027 1.765-.934-.067-.013.882-.935-.067-.013.882-.934-.067-.014.883-1.867-.135-.014.883-.934-.068-.013.883-1.869-.135-.013.882-1.868-.135-.013.883-2.803-.203-.013.884-10.274-.743.013-.883-4.67-.338.014-.883-3.736-.27.014-.882-2.803-.203.014-.882-2.802-.203.014-.883-3.737-.27.014-.883-1.869-.135-.013.883.935.068-.027 1.765.934.068-.014.882.934.068-.013.882.933.068-.013.883.934.068-.014.882 1.869.135-.013.883.933.068-.013.882 2.801.203-.013.882 1.869.135-.054 3.532.934.067-.014.883-.934-.068-.067 4.414-.934-.067-.04 2.648-.935-.067-.027 1.765-.933-.067-.014.882-.934-.067-.013.882-1.868-.135-.013.884-2.803-.203-.013.883-4.67-.338.013-.882-.934-.068.041-2.649-.934-.067.013-.883-.933-.067.026-1.765-.933-.068.026-1.766-.934-.068.013-.882-.934-.068.014-.882-.934-.068.027-1.766-.934-.068.013-.882-.933-.068.013-.882-.935-.068.013-.882-1.867-.135.013-.883-.934-.068.014-.883-.934-.068.014-.882-.935-.068.013-.882-2.801-.203-.014.883.934.067-.027 1.766.934.068-.013.882.933.068-.013.882.935.068-.014.883.934.067-.027 1.766.934.068-.013.882.934.068-.027 1.765.933.068-.026 1.766.935.067-.014.883.934.067-.04 2.648.933.068-.026 1.766.933.067-.04 2.648.934.068-.04 2.648.934.068-.04 2.648.934.067-.067 4.414.934.068-.081 5.296.934.068-.376 24.718-.934-.067-.081 5.296-.933-.067-.054 3.53-.934-.067-.054 3.531-.934-.068-.027 1.767-.934-.068-.027 1.765-.934-.067-.027 1.765-.933-.068-.014.883-.934-.068-.027 1.767-.935-.068-.013.883-.934-.068-.013.883-.934-.068-.013.883-.934-.068-.014.884-.933-.068-.014.883-1.869-.135-.013.882-.934-.067-.013.882-1.868-.135-.013.883-1.869-.135-.013.884-1.868-.135-.013.882-1.868-.135-.014.883-3.736-.27-.013.882-3.737-.27-.013.883-14.01-1.013.013-.883-3.735-.27.013-.882-3.736-.271.013-.882-2.802-.203.013-.882-1.867-.135.013-.884-2.802-.203.013-.882-1.868-.135.014-.883-2.803-.202.014-.883-1.868-.135.014-.883-1.868-.135.013-.883-1.868-.135.013-.883-1.867-.135.013-.882-1.868-.135-.013.882.934.068-.014.882.934.068-.027 1.766.934.067-.013.883.933.068-.013.882.934.068-.014.882 1.869.135-.013.884.933.067-.013.883.934.068-.027 1.765-.934-.068-.013.883-.934-.068-.027 1.766-.934-.067-.013.883-.935-.068-.013.883-.934-.068-.027 1.765-.934-.067-.013.883-.934-.067-.014.882-.933-.067-.014.882-.934-.067-.013.882-.935-.067-.013.882-.934-.067-.014.884-.933-.068-.014.883-.934-.068-.013.883-.934-.068-.013.883-.935-.068-.014.883-1.867-.135-.014.882-.934-.067-.013.883-1.868-.135-.013.883-1.869-.135-.013.882-1.868-.135-.013.883-1.869-.135-.013.883-2.802-.203-.013.884-2.803-.203-.013.883-3.735-.27-.014.882-6.539-.473-.013.883-5.604-.405.013-.883-4.67-.337.014-.883-1.868-.135.014-.882-1.869-.136.013-.883-1.867-.135.013-.883-1.867-.135.013-.882-.935-.068.013-.883-.933-.067.013-.883-.934-.067.014-.884-1.868-.135.014-.882-.934-.068.027-1.765-.935-.068.013-.882-.934-.068.014-.882-.934-.068.013-.883-.933-.068.026-1.765-.933-.068.013-.882-.935-.068.027-1.766-.934-.067.027-1.766-.934-.067.027-1.765-.934-.068.041-2.649-.934-.067.054-3.531-.934-.068.053-3.53-.934-.068.08-5.297-.934-.068.202-13.241.934.068.053-3.531.935.067.054-3.531.934.067.027-1.765.933.068.041-2.649.933.067.027-1.765-.933-.067.013-.883-.934-.067-.013.882-.934-.067-.013.882-.935-.067-.014.882-.934-.067-.026 1.766-.934-.068-.014.883-.934-.068-.026 1.766-.934-.068-.014.883-.935-.068-.026 1.766-.934-.067-.04 2.648-.934-.068-.027 1.766-.934-.067-.054 3.53-.933-.067-.068 4.413-.935-.067-.067 4.414.935.067-.121 7.946.934.067-.054 3.532.934.067-.067 4.414-.934-.068-.013.883-.934-.067-.027 1.765-.935-.068-.013.883-.934-.068-.027 1.766-.934-.067-.013.882-.934-.067-.013.883-.934-.068-.014.883-.933-.068-.014.884-1.868-.135-.014.882-.934-.067-.013.882-1.868-.135-.013.883-.935-.068-.013.883-1.868-.135-.014.882-1.867-.135-.014.884-1.868-.135-.014.882-1.867-.135-.014.883-1.867-.135-.014.883-1.868-.135-.014.882-2.801-.202-.014.883-2.802-.202-.014.882-2.801-.202-.014.882-2.802-.202-.014.882-4.67-.337-.013.882-12.142-.878.0134-.882-3.7363-.27.0134-.883-1.8687-.135.0135-.883-1.8677-.135.0135-.882-1.8677-.135.0135-.884-1.8687-.135.0134-.882-.9338-.068.0134-.883-1.8676-.135.0134-.882-.9338-.068.0135-.882-.9349-.068.0134-.883-.9338-.068.0134-.883-.9338-.067.0135-.883-.9339-.067.0135-.883-.9338-.067.0134-.883-.9338-.067.0269-1.767-.9349-.067.0134-.883-.9338-.067.0268-1.765-.9338-.068.0269-1.766-.9338-.068.0269-1.765-.9339-.067.0269-1.765-.9349-.068.0537-3.531-.9338-.068.0672-4.414-.9338-.067.0806-5.297-.9339-.067.2015-13.242.9338.067.0403-2.647.9338.067.0403-2.649.9338.068.0537-3.531.9349.067.0403-2.648.9338.068.1075-7.063-.9339-.067-.0134.882-.9349-.067-.0134.883-.9338-.067-.0134.882-.9339-.067-.0268 1.765-.9338-.067-.0134.882-.9339-.067-.0134.882-.9349-.067-.0268 1.766-.9338-.068-.0269 1.765-.9338-.067-.0269 1.766-.9338-.067-.0268 1.765-.9339-.068-.0537 3.532-.9338-.068-.0671 4.414-.9349-.068-.0537 3.531-2.8015-.203.0135-.882-4.6703-.338.0135-.883-2.8021-.202.0134-.883-2.8021-.202.0135-.883-1.868-.135.0135-.883-1.8681-.136.0135-.882-1.8681-.135.0134-.883-1.868-.135.0134-.882-.9339-.068.0134-.882-1.868-.136.0134-.882-.934-.068.0134-.883-1.868-.135.0134-.883-.934-.067.0134-.883-.9339-.067.0134-.883-1.868-.135.0134-.883-.934-.067.0134-.884-.934-.067.0134-.883-.934-.067.0134-.883-.934-.068.0134-.882-.9339-.068.0134-.882-.934-.068.0135-.883-.9341-.068.0135-.882-.9341-.068.0269-1.765-.934-.068.0134-.882-.934-.068.0268-1.766-.934-.068.0269-1.765-.9341-.067.0269-1.765-.9339-.068.0403-2.649-.934-.067.0403-2.649-.9341-.067.1075-7.062-.9341-.068.1075-7.061.934.067.0806-5.297.934.067.0403-2.648.934.068.0403-2.649.9339.068.0403-2.648.934.067.0269-1.766.934.068.0269-1.765.934.067.0134-.882.9341.067.0268-1.766.9341.067.0268-1.765.934.068.0135-.883.934.068.0134-.883.9339.068.0269-1.767.934.068.0135-.883.934.068.0134-.883.934.068.0269-1.765.934.067.0135-.883.934.067.0134-.882.934.067.0135-.882.9339.067.0134-.883.934.068.0135-.883.934.068.0134-.884.934.068.0135-.883.934.068.0134-.883.934.068.0135-.883.934.068.0134-.883.9339.068.0135-.883.934.068-.0134.882.934.068-.0134.882.934.068-.0134.882.934.068-.0134.882.934.068-.0134.883.934.067-.0135.884.9339.067-.0134.883.934.067-.0134.883.934.067-.0134.883.934.067-.0134.883.934.068-.0134.883 1.868.135-.0134.883.934.067-.0134.883.9339.067-.0134.883.934.068-.0134.882 1.868.135-.0134.883.9343.067-.0135.884.9338.067-.0134.883 1.8676.135-.0134.883 1.8687.135-.0134.882.9338.068-.0135.882 1.8677.135-.0135.884 1.8687.135-.0134.883 1.8676.135-.0134.882 5.6039.405.0134-.882.9338.067.0269-1.766-.9338-.067.0134-.883-1.8676-.135.0134-.883-1.8687-.135.0135-.882-.9338-.068.0134-.882-1.8676-.135.0134-.884-.9338-.067.0134-.883-.9349-.068.0135-.882-1.8676-.135.0134-.883-.9338-.067.0134-.883-.9338-.067.0134-.883-.9338-.067.0135-.884-1.8687-.135.0134-.883-.9338-.067.0134-.883-.9338-.067.0134-.883-.9342-.067.0134-.883-.934-.068.0134-.883-.934-.068.0134-.882-.934-.068.0134-.882-.9339-.068.0134-.882-.934-.068.0134-.883-.934-.067.0134-.883-.934-.067.0135-.884-.9341-.067.0135-.883-.9341-.067.0135-.883-.9341-.068.0135-.882-.9341-.068.0135-.882-.9339-.068.0134-.883-.934-.068.0134-.882-.934-.068.0134-.883-.934-.067.0134-.883-.934-.067.0134-.883-.934-.067.0134-.884-.934-.067.0269-1.766-.9339-.067.0134-.883-.934-.067.0134-.883-.934-.067.0134-.883-.934-.067.0134-.884-.934-.068.0134-.882-.934-.068.0134-.882-.934-.068.0268-1.765-.9339-.067.0135-.884-.9341-.068.0135-.882-.9341-.068.0269-1.765-.934-.067.0134-.883-.934-.068.0134-.883-.934-.068.0134-.882-.934-.068.0269-1.765-.934-.067.0135-.883-.9341-.068.0269-1.766-.934-.067.0268-1.765-.934-.068.0134-.883-.934-.067.0269-1.766-.934-.068.0134-.882-.934-.068.0268-1.765-.934-.068.0403-2.648-.9339-.068.0268-1.765-.934-.068.0269-1.765-.9341-.067.0269-1.766-.934-.068.0403-2.648-.9341-.067.0403-2.649-.934-.067.0537-3.532-.934-.067.0672-4.414-.9339-.068.1208-7.944-.934-.068.0671-4.414.9341.068.1074-7.063.9339.068.0403-2.648.934.068.0403-2.649.9341.067.0268-1.765.934.068.0403-2.649.9341.067.0268-1.765.934.068.0269-1.765.934.067.0135-.883.9339.067.0134-.883.934.068.0135-.8826.934.0676.0134-.8826.934.0675.0269-1.7662.934.0675.0135-.8825.934.0675.0134-.8826.934.0675.0135-.8826 1.8679.1351.0134-.8826.9341.0675.0134-.8836.934.0675.0134-.8825.9341.0675.0134-.8826 1.868.135.0135-.8825 1.8679.135.0134-.8826 1.8681.1351.0134-.8826.934.0675.0135-.8836 1.868.135.0135-.8825 2.8019.2025.0135-.8826 1.868.1351.0134-.8826 2.8021.2026.0134-.8826 4.67.3376.0135-.8836 4.67.3376.0134-.8826 10.274.7428-.0135.8825 6.5388.4728-.0134.8836 3.7352.27-.0134.8826 3.7363.2701-.0134.8826 1.8676.135-.0134.8826 2.8025.2026-.0134.8826 1.8676.135-.0135.8836 1.8687.1351-.0134.8826 1.8676.135-.0134.8826 1.8676.135-.0134.8826.9349.0675-.0135.8826 1.8677.135-.0135.8826.9338.0675-.0134.8836.9338.0675-.0134.8826 1.8687.1348-.0135.883.9337.067-.013.883.934.068-.014.882.934.068-.014.883.935.068.027-1.766-.935-.068.014-.883-.934-.067.013-.883-.933-.067.013-.8828-.9338-.0675.0134-.8836-.9338-.0675.0135-.8826-.9349-.0675.0134-.8826-.9338-.0675.0134-.8826-.9338-.0675.0134-.8826-.9338-.0675.0135-.8826-.9338-.0675.0134-.8836-1.8687-.1351.0134-.8826-.9338-.0675.0134-.8826-.9338-.0675.0135-.8826-.9338-.0675.0134-.8826-1.8687-.1351.0134-.8836-.9338-.0675.0134-.8825-1.8676-.1351.0135-.8825.9338.0675.0134-.8826-.9338-.0675.0269-1.7662-.9339-.0675.0269-1.7652-.9349-.0676.0403-2.6477-.9338-.0675.0537-3.5314-.9338-.0675.0806-5.2965-.9338-.0675.1746-11.477.9338.0676.0806-5.2966.9338.0675.0403-2.6481.9338.0675.0403-2.6484.9348.0676.0269-1.7654.9338.0675.0269-1.7656.9338.0675.0268-1.7656.9339.0675.0268-1.7655.9338.0675.0135-.8827.9348.0676.0135-.8828.9338.0675.0268-1.7656.9338.0675.0135-.8828.9338.0675.0134-.8827.9338.0675.0135-.8828.9338.0675.0134-.8827 1.8687.1351.0134-.8828.9338.0675.0135-.8828.9338.0675.0134-.8827 1.8687.135.0134-.8827.9335.0675.014-.8828 1.867.135.014-.8828 1.869.1351.013-.8827 1.868.135.013-.8827 2.801.2025.014-.8828 2.802.2026.014-.8828 5.604.4051.013-.8828 6.538.4727-.014.8828 6.539.4727-.013.8828 3.735.27-.013.8828 2.802.2026-.013.8828 1.867.135-.013.8827 2.802.2026-.013.8828 1.868.135-.014.8828 1.869.1351-.014.8828 1.868.135-.013.8828.933.0675-.013.8828 1.869.135-.014.8828 1.868.1351-.014.8826.934.0675-.013.8828 1.869.1351-.014.8828.934.0675-.014.8828 1.868.135-.013.8828.933.0675-.013.8828 1.869.1351-.014.8828.934.0675-.013.8827.933.0675-.013.8828.934.0675-.014.8828.934.0675-.013.8828.935.0675-.014.8828.934.0675-.013.8828.933.0675-.013.8828.934.0675-.014.8828.934.0675-.013.8827.935.0676-.014.8828.934.0675-.013.8828.933.0675-.013.8828.934.0675-.027 1.7656.934.0675-.014.8826.934.0675.014-.8826-.934-.0675.04-2.6484-.934-.0675.041-2.6483-.934-.0675.027-1.7655-.934-.0676.027-1.7655-.934-.0675.013-.8828-.935-.0676.027-1.7656-.934-.0675.014-.8827.934.0675.013-.8827.935.0675.013-.8827.934.0675.014-.8828.933.0675.014-.8828.934.0675.013-.8828.934.0675.013-.8828 1.869.1351.013-.8827.934.0676.014-.8828.934.0675.013-.8828.934.0675.013-.8828 1.869.1351.013-.8828.934.0675.014-.8828 1.867.1351.014-.8828.933.0675.014-.8827 1.869.1351.013-.8828.934.0675.013-.8828 1.868.135.013-.8827 1.869.135.013-.8827.934.0675.014-.8828 1.867.135.014-.8828 1.868.1351.014-.8827 1.867.135.014-.8828 1.867.1351.014-.8828 2.802.2026.014-.8828 1.867.135.014-.8828 2.802.2026.014-.8828 2.801.2026.014-.8828 3.736.2701.013-.8828 6.538.4726zm-141.14 57.845l.9339.0675-.0135.8826-.9338-.0676z" clip-rule="evenodd" fill="#000" fill-rule="evenodd"/></svg>