<?xml version="1.0" encoding="UTF-8"?><svg clip-rule="evenodd" fill-rule="evenodd" stroke-linejoin="round" stroke-miterlimit="2" xmlns="http://www.w3.org/2000/svg" viewBox="0 0 138.7 157.94"><path d="M120.92144 1.9995H17.77964c-8.69828 0-15.77961 7.08133-15.77961 15.85643v104.06788c0 8.7751 7.08133 15.85644 15.7796 15.85644h87.288l-4.08-14.24001 9.85273 9.15974 9.31391 8.62093 16.54889 14.62465V17.85488c0-8.7751-7.08133-15.85643-15.77961-15.85643z" fill="#5cbff2" stroke="#000" stroke-width="3.9989679999999996"/><path d="M91.20806 102.52619s-2.77087-3.30967-5.08027-6.2347c10.08371-2.84822 13.9322-9.15975 13.9322-9.15975-3.15603 2.07841-6.1579 3.54067-8.85193 4.54146-3.84848 1.61643-7.54332 2.69404-11.1608 3.30967-7.38968 1.38543-14.1632 1.0008-19.93591-.07682-4.38782-.84662-8.15948-2.07841-11.31498-3.30967-1.7706-.69298-3.69484-1.5396-5.61908-2.61722-.23099-.15417-.46198-.231-.69297-.38517-.15365-.07682-.231-.15364-.30782-.23046-1.38543-.7698-2.15523-1.30861-2.15523-1.30861s3.69483 6.15788 13.4702 9.0824c-2.30887 2.92503-5.15709 6.38887-5.15709 6.38887-17.01087-.5388-23.47657-11.69961-23.47657-11.69961 0-24.78519 11.08398-44.87526 11.08398-44.87526 11.08398-8.31312 21.62916-8.08213 21.62916-8.08213l.7698.92397C44.4859 42.7953 38.09703 48.87635 38.09703 48.87635s1.69324-.92345 4.54146-2.23206c8.23577-3.618 14.77881-4.61828 17.47286-4.84927.46146-.07735.84662-.15417 1.3086-.15417 4.6951-.61563 10.00637-.7698 15.5481-.15365 7.31232.84663 15.16398 3.00186 23.16876 7.38915 0 0-6.08054-5.77272-19.16611-9.77537l1.07762-1.23179s10.54517-.231 21.62915 8.08213c0 0 11.0845 20.09007 11.0845 44.87526 0 0-6.54304 11.1608-23.55391 11.6996z" fill="#fff"/><path d="M55.4173 66.57757c-4.3873 0-7.85114 3.84848-7.85114 8.54359 0 4.69563 3.54067 8.5441 7.85113 8.5441 4.38782 0 7.85114-3.84847 7.85114-8.5441.07734-4.6951-3.46332-8.54359-7.85114-8.54359zM83.5153 66.57757c-4.3878 0-7.85165 3.84848-7.85165 8.54359 0 4.69563 3.54119 8.5441 7.85166 8.5441 4.38728 0 7.85113-3.84847 7.85113-8.5441 0-4.6951-3.46385-8.54359-7.85113-8.54359z" fill="#5cbff2"/></svg>