<?xml version="1.0" encoding="UTF-8" standalone="no"?><svg xmlns="http://www.w3.org/2000/svg" viewBox="0 0 128.04 118.07"><path d="M80.862882 30.783c.13-2.8-2.9-5.09-6.7-4.93-3.55.14-6.29 2.5-6.29 5.2 0 2.8 3.08 4.93 6.7 4.78 3.38-.15 6.17-2.36 6.3-5.05zm1.07-9.18a-5.5 5.5 0 00-1.06 3.68-4.6 4.6 0 001.26 3.05c.72.68 1.64.93 2.69 1.03.98.08 2.45.06 3.66-.43a-3.65 3.65 0 002.4-3.02c.2-1.47-.35-3.2-1.54-4.51a-4.94 4.94 0 00-4.03-1.69c-1.34.1-2.56.8-3.38 1.89zm26.789998 9.64c-.06 2.76-3.7 4.9-7.76 4.03-4.149998-.9-6.289998-4.16-5.439998-6.72.88-2.64 4.42-3.75 7.589998-3.03 2.98.67 5.67 3.04 5.61 5.72z" fill="#52863a"/><path d="M105.27288 19.483c-.96-.07-1.97.54-2.5 2.16-.5 1.58-.42 3.98.86 6.28.9 1.8 1.97 3.13 2.87 4.29l.52.68c1.3 1.55 2.24 2.23 2.7 2.33.32.32.23-.1-.24-.83.6.59 1.38 1.76 2.34 2.72a-5.22 5.22 0 003.32 1.86c1.1.1 1.68-.37 1.94-1.01.26-.63.28-1.3.48-1.9.16-.49.62-1.34.56-2.02.08-.78.11-2-.46-3.74-.96-1.7-1.93-2.78-2.57-3.1-.43-.5-.47-.42.2.18a-17.75 17.75 0 00-4.5-4.8c-.66-.48-2.29-1.5-2.83-1.85-.81-.53-1.77-1.2-2.69-1.25z" fill="#52863a"/><path d="M90.612882 39.223c-2.66-.73-5.16-.13-5.2 1.31-.06 1.71 2.47 2.13 5.12 1.6 2.7-.54 4.86-1.15 4.86-1.33 0-.18-2.12-.86-4.78-1.58zm.1 8.19c-2.15-1.73-4.69-2.07-5.27-.96-.62 1.15 1.31 2.63 3.84 3.64 2.56 1.03 4.9 1.25 5.08.86.17-.4-1.51-1.8-3.65-3.54z"/><path d="M43.962882 88.443a-6.63 6.63 0 00-3.52.58c-.89.47-1.4 1.16-1.34 1.61.06.47.66.58 1.57.66.55.05 2.52.2 3.53.2 1.44 0 2.57-.2 3.5-.7.88-.48 1.38-1.12 1.32-1.5-.06-.39-.65-.45-1.55-.53-.9-.08-2.14-.25-3.51-.32zm-37.1799998 1.22c1.74.54 2.14.35 3.2999998 1.06.79.48 1.2 1.08 1.49.76.54-.25 1.4-1.33 1.7-2.67.3-1.4-.14-2.52-1.17-3.54-.47-.48-2.5399998-2.12-2.7399998-2.27-.76-.57-1.5-.96-2.67-.24l-.03.02c-1.47.66-2.35 2.43-2.29 3.99.07 1.63 1.05 2.47 2.4 2.89zm61.3699998 4.35c-1.9 2-3.36 3.68-3.26 3.83.1.15 2.2-.66 4.67-1.9 2.47-1.22 4.1-3.02 3.43-3.94-.68-.93-2.95 0-4.84 2.01zm41.339998-13.85c-1.3-.52-2.76-.18-4.03 1.14a-9.11 9.11 0 00-2.3 5.68-8.4 8.4 0 001.42 5.45c.93 1.29 2.22 2.09 3.58 2.09 1.38 0 2.62-.83 3.53-2.2a-9.34 9.34 0 001.46-4.89c.04-1.7-.35-3.2-.93-4.4-.57-1.18-1.48-2.38-2.73-2.87zm-25.219998 1.51c-2.7-.2-5.22 1.65-4.9 4.63.3 3 3.16 4.31 5.76 3.52 2.6-.8 4.32-3.01 4.16-4.55-.17-1.76-2.27-3.4-5.02-3.6zm-11.31-2.32c-1.35-.51-2.47-.7-3.52-.35-1 .33-1.67 1.1-1.72 1.78-.06.66.54 1.05 1.47 1.27.83.2 2.29.34 3.56.34 1.44 0 2.58-.19 3.55-.55.93-.35 1.46-.75 1.43-.92-.04-.18-.64-.16-1.5-.37-1.23-.3-1.62-.58-3.27-1.2z" fill="#52863a"/><path d="M71.312882 89.603c.32 1.35.8 2.48 1.03 3.34.23.85.32 1.46.71 1.6.39.12 1.12-.25 1.84-1.03a-7.33 7.33 0 001.69-3.25-8.38 8.38 0 00.15-3.65c-.24-1.03-.84-1.78-1.9-1.92-1.07-.13-2.3.4-3.02 1.34-.76.99-.83 2.19-.5 3.58zm-26.91-1.78c-1.5.18-2.46.29-3.46-.04-.86-.28-1.38-.84-1.39-1 0-.17.5.14 1.33.57.98.5 1.87.83 3.34 1.27 1.32.39 2.53.75 3.41 1.04.89.28 1.46.4 1.52.01.06-.39-.42-1.14-1.28-1.57-.96-.48-2-.45-3.47-.28zm5.05-7.08c-.95.13-3 .47-3.5.57-.9.17-1.45.36-1.39.7.06.35.72.74 1.67.82a-8.02 8.02 0 003.45-.7c1.49-.56 2.24-.9 3.32-1.1.89-.17 1.48-.11 1.5-.16.01-.05-.57-.21-1.5-.3-1.02-.08-2.1-.03-3.55.17zm22.37-2.19c-.6.99-1.37 2.52-1.64 3.26-.35.93-.31 1.67.54 1.95.86.28 2.25 0 3.08-.77.9-.83.93-1.93.64-3.36-.3-1.51-.56-2.36-.18-3.3.32-.8 1.06-1.28 1.2-1.39.47-.38-.79.44-1.26.82-.89.7-1.62 1.54-2.38 2.79zm-1.56-27.07c-.68 1.33-1 2.34-1.14 3.56-.12 1.03-.06 1.83-.16 1.42-.1-.34-.24-1.52.17-2.34.49-.95 1.4-1.1 2.88-1.4 1.44-.3 2.4-.72 2.65-1.98.23-1.14-.3-2.66-.96-3.3-.64-.63-1.18-.14-1.7.75zm-10.8-5.01c-.74 1.31-1.23 2.15-2.22 2.54-.87.35-1.85.12-2.1-.1-.25-.23.35-.35 1.33-.51 1.18-.2 2.06-.4 3.54-.9a-92.92 92.92 0 003.44-1.22c.91-.38 1.42-.8 1.04-1.35-.38-.55-1.52-1-2.54-.8-1.13.22-1.77 1.06-2.5 2.34zm-10.05-5.29c-1.02.7-2.22 1.9-1.81 3.56-.38.86-.69 1.38-.59 1.71a-.47.47 0 00.1.18c.15-.68.31-.01.85 1.05-.22.58 1.3 1.94 2.35 2.36 1.23.5 1.8.02 2.2-.74.42-.83.57-1.3 1.53-1.38.74-.06 2.12.25 1.93-.3.48-.13.97-.75.82-2.92-.04-.4-.12-.8-.24-1.19a-5.24 5.24 0 00-3.69-3.66c-.69.66-2.28.53-3.45 1.33z" fill="#52863a"/><path d="M73.012882 55.463c.24-1.41.14-2.59-.61-3.52a-3.08 3.08 0 00-2.91-1.12c-.99.2-1.48 1.01-1.55 2.05a-10.14 10.14 0 002.74 6.6c.7.72 1.28 1.07 1.47.96.2-.11.1-.71.18-1.57.08-.87.44-2.05.68-3.4zm20.2 4.05c-.16-.9-.85-1.7-1.7-2.37a-9.66 9.66 0 00-3.82-1.77c-1.05-.42-2.8-.97-5.38-.81-1.06.06-2.2.25-3.36.58-3.63 1.65-4.6 3.42-4.83 4.52-.44.85-.6 1.62-.69 2.22-.47.97.07 1.86.07 2.86 0 .51.18.98.83 1.29.64.3 1.61.37 2.3.2.98-.13 1.94-.48 2.87-.89 1.75-.7 2.53-1.47 2.12-.81a-3.6 3.6 0 011.03-.06c1.26.03 2.93.12 5.04-.36a-11.62 11.62 0 004.18-1.86c1.08-.85 1.5-1.8 1.34-2.74z" fill="#b15228"/><path d="M71.252882 57.633c-.5.75-1.55 2.7-1.75 3.06-.44.79-.75 1.3-.57 1.56.39.55 2.86.1 5.1-1.5 2.2-1.58 3.7-3.65 2.58-4.9-.56-.63-1.6-.86-2.64-.55-1.08.33-1.94 1.15-2.72 2.33z" fill="#b15228"/><path d="M48.822882 78.303c-2.56 1.03-4.07 3.2-3.4 4.54.65 1.28 3.14 1.17 5.59-.05 2.48-1.24 3.9-3.32 3.3-4.49-.57-1.13-2.94-1.02-5.5 0z" fill="#e44a69"/><path d="M43.522882 85.853c-2.35 1.44-3.5 3.8-2.58 4.86.94 1.08 3.17.04 5.1-1.89 1.95-1.95 2.9-4.16 2.4-4.72-.52-.55-2.58.3-4.92 1.75zm28.93-10.69a-3.17 3.17 0 00-2.55-.51-6.3 6.3 0 00-4.36 4.08c-.36 1.02-.2 1.71.05 2.4-.1.3.8.77 1.24 1.32.51.65.37 1.13.37 2.03 0 .8.27 1.5 1.41 1.79 1.03.25 2.73.02 3.37-.75a-7.08 7.08 0 002.77-3.01l.2-.44a-5.5 5.5 0 00.35-3.01c-.07-.9-.55-1.57-1.03-2.15a-9.7 9.7 0 00-1.82-1.75zm-66.5799998 7.31c-.16 2.7 1.08 5.17 3.33 5.06 2.1799998-.12 3.6399998-2.8 2.8899998-5.44-.72-2.58-2.3399998-4.56-3.2699998-4.55-1.27.02-2.78 2.17-2.95 4.93zm8.1199998 10.81c1.32 2.45 4.68 3.13 7.4 1.16 2.55-1.85 2.93-5.12 1.26-7.26-1.7-2.2-4.97-2.41-7.16-.8a-5.51 5.51 0 00-1.5 6.9zm34.17 3.62a-8.08 8.08 0 00-3.32-1.4c-1-.15-1.74.01-1.85.27-.13.26.35.62.95 1.27.6.66 1.27 1.69 2.13 2.76.9 1.13 1.8 1.85 2.91 2.05 1.05.2 2.06-.15 2.48-.74.4-.57.11-1.22-.54-1.93-.57-.62-1.71-1.59-2.76-2.29z" fill="#e44a69"/><path d="M67.732882 48.433c-1.22.78-1.99 1.65-2.13 2.88-.13 1.15.37 2.35 1.08 2.87.72.54 1.42.25 2.18-.36a-17.52 17.52 0 002.49-2.62-6.11 6.11 0 001.37-3.39c.06-1.08-.26-1.92-.62-2.08-.37-.17-.76.33-1.44.87-.69.54-1.78 1.08-2.94 1.83z" fill="#fafafb"/><path d="M67.062882 48.943c-.59 1.25-1.02 2.4-1.48 3.19-.46.78-.85 1.31-.35 1.79.48.45 1.72.7 2.86.36 1.23-.37 1.93-1.26 2.47-2.6.72-1.8.6-1.98 1.33-3.22.45-.77.9-1.26.48-1.7-.4-.42-1.58-.67-2.71-.34-1.22.36-1.98 1.2-2.6 2.52z" fill="#fafafb"/><path d="M21.90288 41.3732309c5.15-.12 10.68 2.1 13.12 6.87.46 1.3 1.86 2.7 1.38 4.14-.28.42-1.57.63-1.14 1.22 3.13-.67 6.1-2.15 9.3-2.68 7.44-1.66 16.11-1.9 22.4 3.07 5.19 3.78 7.42 10.6 6.35 16.81-.55 2.56-.77 5.51-2.57 7.53-2.2 1.08-2.44 4.68-5.28 4.7-5.23-.04-8.38-5.04-12.72-7.17-1.8-.6-2.82 1.74-3.02 3.17-.08 1.44-1.63.29-2.42.35-1.82-.47-3.28 1.22-3.19 2.95-.37 1.94.84 4.4-.95 5.85a9.45 9.45 0 002.21 9.05c1.29 1.69 3.22 2.57 4.97 3.61.7.88-1.03 1.5-1.48 2.04-5.22 3.84-11.85 5-18.15 5.66-3.56.49-7.13-.56-10.03-2.64a27.47 27.47 0 01-4.71-3.68c1.12-2.7 3.7-5.68 2.48-8.75-.7-1.18-2.48-.14-3.23-.96.45-1.95 1.9-4.78-.06-6.34-.7-.5-1.7-.27-2.43-.44.86-1.67 2.3-4.17.92-5.92-2.65-1.1-4.76 1.7-7.1 2.42-1.49-1.3-1.72-3.61-2.53-5.37-2.07-5.52-3.36-11.38-2.97-17.31-.03-8.08 5.94-15.79 13.87-17.53a29.84 29.84 0 016.98-.65z" fill="#e44a69"/><path d="M115.02288 64.9132309c.2 4.64.3 9.35 1.2 13.89-3.3.76-5.47 3.54-7.85 5.72-.78.54-1.36-.83-1.96-1.12-4.02-3.61-9.89-4.61-14.98-3.06-2.5.66-4.63 2.18-6.55 3.86-.73.18-1.21-.93-1.78-1.24-2.7-2.45-6.4-3.1-9.86-3.62-.79-.06-1.55-.85-.94-1.6 1.26-3.32 2.2-6.8 2.01-10.4-.22-1.5-.02-2.65 1.75-2.03 12.21.43 24.49 1 36.68-.11.76-.05 1.55-.28 2.28-.29zm-62.73 11.72c1.93.6 3.23 2.37 4.9 3.44 2.57 2.01 5.58 4.23 9.04 3.67 2.27-.16 2.8-2.69 4.08-4.1.75-.99 1.79.2 2.1.94 1.13 2.7.93 5.77.7 8.62-.19 1.25-1.8 1.23-2.4 2.22a5.4 5.4 0 00-1.51 3.2c-.74.4-1.48-.6-2.09-.92-1.94-1.6-4.92-1.9-6.88-.17a9.25 9.25 0 00-3.63 7.04c-.47.71-1.62-.07-2.29.07-4.05-.34-8.22-2.45-9.88-6.34-.63-1.65-1.16-3.6-.6-5.34.65-.55 1.19.75 1.46 1.18.61 1.07 1.22 2.47 2.43 2.94.9-.42-.22-1.12-.55-1.52-2.23-2.78-2.45-6.63-2.11-10.03.28-1.12 1.56-1.91 2.62-1.25 1.08.4 2.18 1.08 2.28 2.34.41 1.36 1.05 3.07 2.48 3.6.65-.3-.31-1.02-.5-1.36-1.43-2.12-2-5.14-.8-7.49.25-.39.64-.8 1.15-.74zm-38.5 10c1.4-.12 1.74 1.53 1.45 2.58-.55 3.9-3.61 6.9-6.96 8.65-1.38.82-3.8-.35-3.27-2.11.65-2.63 1.74-5.5 4.24-6.9 1.4-.88 2.78-2.22 4.54-2.22zm-1.27-6.43c1.4.43.88 2.33.38 3.29a10.47 10.47 0 01-6.92 5.83c-.99.06-2.47.33-3.09-.63-.04-1.7 1.54-2.94 2.64-4.06 2.08-1.76 4.31-3.71 6.99-4.42zm4.26 13.42c1.44-.02 1.4 1.78 1.02 2.74-.8 2.22-1.75 4.58-3.56 6.17-1.58 1.05-3.64 2.4-5.6 1.58-1.4-.87-.5-2.77-.1-3.95.33-1.41 1.42-2.34 2.57-3.09 1.79-1.3 3.16-3.67 5.67-3.45zm73.72-45.37c2.88 1.53 5.82 3.27 9.13 3.68 5.4.63 10.93.01 16.29-.33-.3.96.75 3.12-.88 2.9-12.77.6-25.56.6-38.33.43-2.49-.16-5.07.07-7.5-.49-.45-.3-.23-1.12.38-.91 1.64.69.43-1.47 1.16-1.82h15.19c1.73-.8 3-2.23 4.43-3.44a.2.2 0 01.13-.02z" fill="#52863a"/><path d="M57.39288 24.7332309c1.96.77 3.7 2.08 5.7 2.82 2.54 1.22 5.33 1.75 7.97 2.68.65.36.11 1.13-.49 1.08-3.73.77-7.33 2.68-9.8 5.61-.34.65.66.64.9.2a17.82 17.82 0 0113.08-5.33c4.12-.19 8.21.57 12.1 1.9.34.2 1.34.2.92-.4a29.6 29.6 0 00-7.97-2.16c-.57.21-1.07-.55-.38-.77 2.04-.45 4.51-1.23 5.08-3.52.11-.54.64-1.21 1.16-.6 3.69 3.2 8.6 4.66 13.43 4.6.86.09.23 1.08-.29 1.2-1.01.79-2.57 1.06-3.23 2.21.03.78 1.09 0 1.37-.21a19.8 19.8 0 0112.09-2.7c2.75.1 5.65 1.35 6.82 4 .14.44.8 1.27.32 1.63-2.18-.72-4.4-1.36-6.72-1.37-3.86-.15-7.8 0-11.53 1.05-2.63.98-4.88 2.73-6.92 4.62-.84.54-1.26-.86-1.74-1.31-2.65-3.1-6.8-4.44-10.79-4.46-5.68-.3-11.85.58-16.22 4.55-1.59 1.4-2.79 3.48-2.35 5.66.53 1.58-.29 1.81-1.64 1.37-.46-.27-1.16.06-.72.57 2.48.71 5.13.95 7.58 1.83 1.79.68 4.1 1.46 4.7 3.48-.29.57.71 1.1.13 1.61-1.37-.02-2.3-1.41-3.44-2-3.92-2.74-8.78-3.48-13.45-3.65-1.08.06-.56-1.26-.9-1.88-.26-1.48-1.07-2.85-1.44-4.29 1.27-.22 2.74.32 3.9-.56 2.3-1.56 2.55-4.7 2.85-7.22.31-3.34-.14-6.68-.42-9.98a.3.3 0 01.34-.26z" fill="#52863a"/><path d="M107.37288 24.9632309c2.06.91 3.42 2.95 4.5 4.85.24.35.51 1.26-.25 1.05-2.49-.56-5.05-.5-7.58-.44-.6-.41.45-.88.8-1.04 1.48-.89 2.17-2.62 2.25-4.27a.3.3 0 01.28-.15z" fill="#4d8036"/><path d="M117.18288 59.9032309c1.28-.17 2.36 1.44 1.88 2.56-1.3 1.4-3.48 1.33-5.23 1.7-9.76 1.25-19.63.67-29.44.6-3.27-.17-6.61.02-9.85-.5-.95-.87-.76-2.43-1.32-3.55.02-.59 1-.1 1.35-.17 14.2.95 28.44.2 42.61-.65z" fill="#b15228"/><path d="M116.91288 55.4132309c.96-.14 2.1.18 2.26 1.28-.08 1.2-1.12 2.37-2.4 2.25-13.62 1.36-27.34 1.17-41 .86-1.05-.12-2.27.02-3.18-.54-.6-1.23-1.63-2.27-2.1-3.54 5.67-.09 11.38.36 17.06.23 9.79-.05 19.57-.44 29.36-.54z" fill="#b15228"/><path d="M73.12288 37.1332309a7.25 7.25 0 016.48 3.98 6.05 6.05 0 01.31 4.24c-.4 1.3-1.2 2.45-2.28 3.26a7.51 7.51 0 01-3.88 1.5c-1.11.02-2.26.03-3.3-.4a6.7 6.7 0 01-4.5-5.22 6.25 6.25 0 012.53-5.86 7.59 7.59 0 014.64-1.5zm-2.19 1.72c-1.62-.05-3.22 1.26-3.35 2.89a2.53 2.53 0 001.93 2.62c1.74.47 3.78-.71 4.13-2.51a2.5 2.5 0 00-1.55-2.8c-.37-.14-.76-.2-1.16-.2zm32.59-1.57a7.2 7.2 0 016.2 3.53 6.02 6.02 0 01-.13 6.14 7.4 7.4 0 01-7.51 3.22 7.2 7.2 0 01-4.8-3.01 6.11 6.11 0 01-1-4.08c.28-2.56 2.3-4.7 4.73-5.45a7.37 7.37 0 012.51-.35zm-1.58 1.28c-1.37-.04-2.8.94-3.06 2.34-.24 1.28.72 2.52 1.9 2.92 1.01.36 2.19.26 3.08-.35 1-.61 1.53-1.93 1.08-3.03a3.14 3.14 0 00-3-1.88z"/><g fill="#fafafb"><path d="M15.46288 102.9432309c1.1.94 2.2 1.95 3.33 2.86-.8.91-2.18 1.3-3.39 1.22a6.2 6.2 0 01-3.84-1.83c.25-.54 1.12-.56 1.57-.93.81-.37 1.5-1 2.33-1.32zm94.1-101.98c2.87.06 6.16.7 8 3.13 1.6 2.68 1.2 6.16-.18 8.85-1.03 2.13-2.75 3.78-4.4 5.42-.41.42.35.81.65.44.62-.38 1.12-1.02 1.73-1.36 1.95 2.48 3.68 5.23 4.32 8.36.54 2.39.48 4.85.58 7.27-.25-.11-1.1-.62-1.23 0 1.19 1.97 2.53 3.92 3.02 6.21 1.19 4.6-.5 9.46-3.28 13.14.13.58.8 1.06 1.11 1.6 3.75 4.9 3.8 11.84 1.3 17.3-.38.83-.83 1.63-1.24 2.43 2.13 2.07 3.88 4.96 3.4 8.04-.31 2.37-1.74 4.36-3.27 6.11 1.24 2.07 2.5 4.28 2.48 6.77-.02 2.1-.06 4.47-1.56 6.12-.6-.43-.69-1.65-1.5-1.89-.62-.03-.39.75-.12 1.03 1.97 2.83 1.24 6.92-1.3 9.15-1.95 1.86-4.85 2.13-7.39 1.73-.65-.13.16-.66.06-1.06.06-.47-.6-.59-.77-.16-1.66 2.32-3.47 4.77-6.12 6-2.45 1.2-5.47.6-7.48-1.16-.54-.46-1.1-.93-1.55-1.45.16-.78.89-1.62.6-2.43-.68-.4-.87.71-1.06 1.12-1 2.65-3.27 5-6.2 5.27-3.93.36-7.83-1.07-11.1-3.15-3.24 1.6-7.33 2.38-10.62.48a13.58 13.58 0 01-4.91-4.57c-.14-.91-1.3-.66-1.93-.94-2.57-.64-5.5-1.89-6.34-4.64-.26-.87-.33-1.86-.25-2.72 1.19.2 2.41.17 3.6.23a5.7 5.7 0 004.44 4.23c.58 0 .36-.76-.1-.82-1.63-.68-3.37-1.96-3.41-3.9-.3-2.79 1.25-5.51 3.45-7.11a4.37 4.37 0 015.31.16c1.1.86 2.25 1.84 2.87 3.11.27 1.7.3 3.44.7 5.1.39.47.92-.13.72-.6-.27-2.8-1.06-5.75-.13-8.52 1.04-2.63 4.74-3.5 6.95-1.78a12.87 12.87 0 014.67 6.04c.43 1.1.3 2.36.72 3.46.38.36.74-.34.61-.69-.04-2.54-1-5-2.67-6.9-1.62-2.02-3.9-3.85-6.62-3.77-.4-.2.07-.8-.05-1.13.2-2.7.22-5.5-.7-8.09 1.43-.15 3 .28 4.44.65a11.83 11.83 0 018.11 7.66c.36.79.34 1.8.86 2.49.45.25.81-.2.6-.61-.39-1.9-1.24-3.65-2.04-5.37a13.35 13.35 0 0110.6-4.65c2-.08 4.05.07 5.88.96 4.37 1.83 7.36 5.83 9.54 9.88.08.47.8.67.82.07-.25-1.23-1.12-2.26-1.7-3.35-.45-.8-1.17-1.48-1.56-2.28a13.75 13.75 0 015.34-5.32c1.94-1.15 4.32-1.28 6.48-.83.47-.08.5-.7 0-.8-1.13-.46-2.4-.31-3.57-.43-.88-2.88-.87-5.95-1.06-8.94-.04-1.6-.11-3.25-.04-4.83 1.51-.32 3.53-.8 3.97-2.52.15-1.14-.62-2.14-1.3-2.92.98-.89 1.87-2.55.86-3.75-.55-.84-1.56-1.14-2.52-1.1-.53-.4-.26-1.3-.38-1.89-.13-.8.01-1.49.86-1.78 2-1.53 3.92-3.83 3.5-6.5-.31-2.35-1.96-4.15-3.3-5.98-.33-.83-.36-1.77-.78-2.58a8.51 8.51 0 00-3.36-4.13c-.79-.93-.83-2.26-1.56-3.24-1.2-2.1-3.15-3.6-5.14-4.92-.87-.85-.78-2.46-1.9-3.1-.67-.11-.36.78-.15 1.07.5.83.74 1.75 1.01 2.66.54 1.55.18 3.55-1.32 4.44-2.44 1.61-5.55 1.45-8.35 1.3-4.32-.34-8.63-2.3-11.23-5.87-.5-.5-.73-1.22-1.15-1.75-.35-.22-.9.04-.65.48.6 1.6 1.08 3.63-.11 5.1-1.63 1.86-4.38 1.8-6.65 1.84-2.7.13-5.4-.23-7.99-1.03a43.6 43.6 0 01-11.97-5.63c-.48-.25-.99.55-.4.77.03.28-.14.63-.01.98.65 4.76 1.19 9.74-.2 14.41-.5 1.86-2.57 3.48-4.5 2.64-1.15-.32-1.95-1.26-2.98-1.75-.59-.01-.36.73-.1 1 1.6 2.33 3.11 4.95 3.27 7.83-.6.54-1.62.26-2.36.46a56.1 56.1 0 00-11.49 2.7c-.48-.03-.29-.83-.54-1.13-1.28-4.08-4.32-7.68-8.4-9.14-2.82-1.13-5.89-1.22-8.88-1.3-.73.04-.65-.77-.42-1.22.88-2.22 2.7-3.96 4.6-5.3a36.43 36.43 0 008.2 2.11c2.15.19 4.35.3 6.5.09.36-.35-.18-.7-.55-.57-4.9-.2-9.99-.6-14.46-2.8a17.47 17.47 0 01-7.3-7.52c.25-3.45.49-6.97 1.95-10.16 2.02-5.05 5.66-9.77 10.87-11.74 4.19-1.66 8.93-1.45 13.2-.23 2.21.7 4.4 1.7 6.13 3.24.53.38 1.11.75 1.55 1.28a21.7 21.7 0 014.93 7.54c.17.5 1.03.39.77-.2-1.13-3.5-3.45-6.5-6.1-9.01a10.04 10.04 0 015.4-2.86 14.2 14.2 0 019.89 2.49c1.23 1.14 2.53 2.26 3.25 3.82.48.6.45 1.69 1.17 2.07.72-.18.25-1.06.08-1.5-.6-1.65-1.81-3.02-2.86-4.37 2.38-2.62 5.77-4.54 9.39-4.4 5.27-.21 10.74 2.3 13.47 6.91 1.13 1.67 1.67 3.62 2.26 5.51.18.32.77.17.62-.25-.05-1.78-.96-3.4-1.6-5 3.69-4.03 9.06-6 14.3-6.96a25.38 25.38 0 014.45-.41z"/><path d="M119.49288 10.5532309c2.81 1.26 4.89 3.79 6.34 6.45 1.3 2.3 1.36 5.09.89 7.63-.72 2.6-3.07 4.55-5.5 5.43-.4-3.58-1.12-7.2-3.1-10.28-.64-.87-1.15-1.93-2.05-2.54-.25.1-.78 0-.42-.33a15.77 15.77 0 003.54-5.98c.09-.1.13-.37.3-.37zm-12 25.77c2.36.16 4.84.16 7.07 1.05 2.5 1.42 4.76 3.67 5.54 6.5.2 1.47 0 3.06-1.04 4.19-1.06 1.3-2.37 2.7-4.18 2.74-3.64.38-7.31.52-10.98.52.61-.34 1.68-.3 2.43-.67 3.02-1.08 5.4-4.18 5-7.48-.18-3.22-2.88-5.83-5.9-6.59-.15-.3 1.03-.22 1.47-.27zm-8.31 1.05c-1.8 1.26-3.47 3.02-3.73 5.3-.63 3.68 2.1 7.34 5.66 8.21.4.15 2.3.41 1.16.44-4.08-.1-8.12-1.58-11.32-4.1-.45-.4.18-1.01.07-1.52a7.9 7.9 0 00-.15-2.65c1.94-2.42 4.42-4.57 7.38-5.61.28-.03.77-.28.93-.07zm-22.62-1.11c3.59.1 7.45.4 10.4 2.7a7.33 7.33 0 013.16 6.61c-.14 2-1.78 3.51-3.33 4.6-1.66.97-3.69.58-5.51.79-1.96 0-3.96.21-5.9-.06.18-.35.89-.38 1.22-.64 3.08-1.32 5.14-4.9 4.27-8.21-.67-2.86-3.19-4.93-5.95-5.69.34-.23 1.15-.05 1.64-.1zm-8.81 1.47c.13.35-.54.7-.72 1-2.02 2.1-2.7 5.52-1.21 8.1.47 1.02 1.39 1.73 2 2.64-.4.13-.99-.41-1.44-.47-1.62-.74-3.45-.87-5.05-1.62-.72-.71-.7-1.9-.68-2.85.2-2.32 2.22-3.83 3.89-5.19 1-.64 2.06-1.28 3.2-1.6z"/><path d="M102.08288 38.5732309c1.6-.03 3.28 1.3 2.97 3.02-.2 2.03-2.8 3.04-4.5 2.14a2.69 2.69 0 01-1.55-3.34c.45-1.23 1.83-1.87 3.08-1.82zm-30.88.23c1.87.02 3.25 2.4 2.1 3.96-.97 1.7-3.52 2.38-5 .93-1.37-1.21-.7-3.46.77-4.28a3.54 3.54 0 012.13-.6z"/></g><g transform="matrix(-1 0 0 1 183.32288 -46.407)" fill="none" stroke="#000" stroke-linecap="round"><g stroke-width="1.06"><path d="M60.38 143.04s-1.09-3.85 2.35-8.66c0 0-7.52-6.88.1-14.27 0 0-7.38-11.24 1.2-21.2m.01-.01S56 89.59 63.8 79.57M62.83 81s-1.87-9.95 4.5-16.97"/><path d="M62.6 77.12s-4.34-.93-6.23-5.17c0 0-2.28-5.89 2.3-11.24m0-.01s2.32-3.4 5.6-4.35M70.04 65s-7.9-5.7-5.28-13.65c0 0 1.77-5.74 12.74-4.13 10.98 1.62 15.34 7.25 15.34 7.25"/><path d="M91.2 59.84s1.28-9.8 11.54-12.25c10.26-2.47 14.6 4.74 14.6 4.74"/><path d="M113.85 57.44s1.24-6.12 9.05-8.11c7.8-2 11.44 3.2 11.44 3.2"/><path d="M127.83 61.5s3.94-13.57 19.9-13.43c15.97.13 19.11 18.16 19.11 18.16l.45 5.52s-2.95 6.62-9.98 8.82-12.47 1.67-12.47 1.67m14.51-2.36c.21-.1 5.86 4.22 4.97 7.04m-63.34 56.1s3.75-7.5 8.75-6.35c4.99 1.16 3.93 6.72 3.93 6.72s5.85-9.29 11.56-.38m-15.38-6.37s-1.48-9.74 2.08-11.4c0 0 1.26-.64 2.86 2.86 1.6 3.5 7.44.75 7.44.75s4.23-3.04 7.17-5.55c2.93-2.5 3.76 1.89 3.76 1.89s.78 4.6-2.17 7.14"/><path d="M133.23 127.52s5.96-5.02 5.67 3.27c0 0-.28 6.28-3.32 8.33m2.97-4.95s2.23-1.3 1.34 5.2m0-.01s-.69 2.74-2.57 4.42m-26.62-17.4s-12.15-.98-14.42 11"/><path d="M98.62 131.87s-3.72-6.1-13.23-5.33c-9.52.77-13.9 11.34-13.9 11.34m3.5-5.61s-4.84-8.6-12.4-6.53m49.33-.5s-8-15.5 3.9-25.05 31.98-.39 31.98-.39m-1.64-.88s1.95-14.91 21.96-10.97m-.09-.05s18.35 2.82 14.14 26.73c0 0-1.2 7.06-5 14.93m-64.09-29.75s-1.53-4.06 12.53-5.99m-16.31 17.4s-32.51 1.9-43.17-.78"/><path d="M66.13 110.44s-2.71-.61-2.46-2.32c.25-1.7 1.73-2.31 1.73-2.31s26.6 2.22 45.25.6m-45.25-.61s-1.88-1.24-1.73-2.67c.15-1.43 1.62-1.84 1.62-1.84s38.1 1.47 49.26.04m-17.23-3.77s-5.95-2.46-4.45-8.02c1.5-5.57 8.1-6.76 8.1-6.76s13.07-2.7 20 4.23m-.12-.07s3.78 2.65 1.6 7.25m-25.13 3.37s8.08.75 16.5 0m-46.75-.01s-5.54-2.96-4.3-7.47c1.24-4.5 5.97-6.84 5.97-6.84.07 0 6.24-2.13 15.77.02-.22-.16 4.8 1.11 8.32 6.06"/><path d="M93.12 93.66s-4.88 4.26-11.4 4.51c-6.53.26-14.65-.62-14.65-.62l-.16 3.75m.88 9.58s-.02 11.62-1.38 14.57m-.38-40.35s.3-7.09 7.22-7.64c0 0 7.17-1.63 14.19 3.2M78.33 67.1s-6.27 9.3 5.86 9.66c12.13.36 15.55-7.84 15.55-7.84"/><path d="M99.74 68.92s-2.98 5.92 3.17 7.2c11.96 2.5 24.17-6.44 24.15-6.44"/><path d="M127.06 69.68c0-.05-2.43 11.79.5 17.2 0 0 2.34 4.38 7.33-.04 0 0-3.74 4.53-3.6 8.9M95.86 79.93s16.76-6.95 26.3 3.57"/><ellipse cx="79.919998" cy="90.199997" rx="7.5999999" ry="6.98"/><ellipse cx="110.26" cy="90.07" rx="7.5999999" ry="6.98"/></g><ellipse cx="81.309998" cy="87.720001" rx="3.1400001" ry="2.76" stroke-width=".11"/><ellipse transform="rotate(25.2)" cx="139.44" cy="31.74" rx="3.1400001" ry="2.76" stroke-width=".11"/><g stroke-width="1.06"><path d="M70.42 78.01s.76-5.17 6.79-7.99m48.01 72.99s3.82 6.7-2.99 8.95m-8.57-8.56s-.05 2.11-.6 5.18m-12.08-5.56s-.77 2.64-.71 4.06m37.05-3.3s-2.8 4-11.1 3.87m4.53.35s1.33 6.52-8.52 7.95m.23.03s-5.67 10.16-16.15 4.73c0 0-14.08 9.2-18.16-3.42m.96 2.07s-7.62 10.3-16.2-3.18m.69 1.29s-6.6 1.99-9.87-2.96c0 0-3.3-4.15.08-8.83m-1.18 2.33s-2.28-1.19-2.26-5.1m115.79-6.68s4.1 6.26 2.03 7.94c-2.07 1.68-3.82.3-3.82.3s-5.77-2.95-6.74-8.37c-.96-5.41 4.04-2.97 4.04-2.97zm-4.31-3.23s-3.74-4.22-2.05-6.35c1.7-2.12 8.96 4.71 8.96 4.71s2.88 2.8 1.98 4.15c-.9 1.36-4.41.51-4.41.51"/><path d="M131.35 147.3s7.01 8.51 25.68 8.12c0 0 5.87-1.47 10.81-6.77 0 0 4.21 3.54 6.87 2.4 2.65-1.15-.2-5.92-.2-5.92"/><path d="M168 148.7s-3.69-5.33-3.14-7.85c.55-2.53 4.59-.51 4.59-.51m3.21 11.08s-4.53 5.18-9.02.71"/></g></g></svg>