<?xml version="1.0" encoding="UTF-8"?>
<svg width="406" height="406" fill="none" version="1.1" viewBox="0 0 406 406" xmlns="http://www.w3.org/2000/svg" xmlns:cc="http://creativecommons.org/ns#" xmlns:dc="http://purl.org/dc/elements/1.1/" xmlns:rdf="http://www.w3.org/1999/02/22-rdf-syntax-ns#">
 <metadata>
  <rdf:RDF>
   <cc:Work rdf:about="">
    <dc:format>image/svg+xml</dc:format>
    <dc:type rdf:resource="http://purl.org/dc/dcmitype/StillImage"/>
    <dc:title/>
   </cc:Work>
  </rdf:RDF>
 </metadata>
 <circle cx="203" cy="203" r="201" fill="#c0dfe6" stroke="#000" stroke-linecap="round" stroke-linejoin="round" stroke-miterlimit="2.2828" stroke-width="4"/>
 <mask id="mask0" x="4" y="4" width="398" height="398" mask-type="alpha" maskUnits="userSpaceOnUse">
  <circle cx="203" cy="203" r="199" fill="#fff"/>
 </mask>
 <g mask="url(#mask0)">
  <path d="m60.5 252c-20 24-14 55.333-8.5 68-23.833 12.167-56.2 48 5 94 61.2 46 176.5 25.833 226.5 10 20.167-8.833 62.3-31.2 69.5-50s0.333-44.167-4-54.5c3.2-14.8-2-22.833-5-25 10.8-21.6 2.5-43.667-3-52 7.6-17.6 1.5-37.667-2.5-45.5 15.465-20.141 7.566-42.33 0-53.628 13.463-33.981-3.217-42.854-18.433-41.372 4.723-6.9584 5.678-15.605-5.567-23.5-1.663-1.1677-3.381-2.164-5.138-3.006-18.103-8.6759-40.37-0.9632-49.975 4.506-25.625-46.26-62.324-25.696-78.387-8.3321-18.304-11.877-37.301-4.7115-45 0.8321-27.02-19.078-72.001 1.0408-83.5 33-2 6.8-0.8333 13.333 0 15.5 8.4 14.4 19.5 22.5 24.5 24.5-14 19.6-12.167 35.167-9.5 40.5-31.6 27.6-17.833 55.5-7 66zm85-40.5c1.6-32.4-8.333-47.5-13.5-51 25.6 15.2 28.333-24.333 26.5-46 3.644 4.538 10.804 14.018 26 19.633 3.232 1.194 6.828 2.213 10.83 2.973 3.837 0.728 8.047 1.217 12.67 1.394 7.812 0.298 13.615-0.439 17.827-1.876 6.611-2.254 9.304-6.23 9.705-10.624 42.532 14.574 55.614 6.553 57.197-4 5.09 1.394 15.271 6.113 15.271 13.841 9.262 2.743 18.522 8.423 20.5 19.659 3.973 2.203 12.228 10.608 11.5 19.5 0.104 3.029-2.26 8.248-10 12.29-1.6 6.632-2.164 13.834-2.246 16.606 2.325 0.092 3.772 1.392 4.246 2.104 2.753 4.129-3.176 7.937-6.267 9.133 3.893-1.007 5.464 0.109 5.767 0.867 3.387 3.726-1.113 6.997-5 8.722-0.497 14.231-0.943 43.352 1.254 45.986-3.429-0.254-6.239 0.519-7.754 1.292-12.8 5.6-12.667 18.667-11 24.5-34.4-33.6-67.333-16.333-79.5-3.5-26.8-36.8-59.167-10-72 8 8-30.4-13.333-51.108-25-57.662 9.165-5.019 12.528-21.453 13-31.838z" clip-rule="evenodd" fill="#e7e7e7" fill-rule="evenodd"/>
  <path d="m309.36 75.494c1.757 0.842 3.475 1.8383 5.138 3.006 11.245 7.8952 10.29 16.542 5.567 23.5 15.216-1.482 31.896 7.391 18.433 41.372 40.077-51.281-0.791-68.861-29.138-67.878z" fill="#e7e7e7"/>
  <path d="m145.5 211.5c1.6-32.4-8.333-47.5-13.5-51 25.6 15.2 28.333-24.333 26.5-46 3.644 4.538 10.804 14.018 26 19.633 3.232 1.194 6.828 2.213 10.83 2.973 3.837 0.728 8.047 1.217 12.67 1.394 7.812 0.298 13.615-0.439 17.827-1.876 6.611-2.254 9.304-6.23 9.705-10.624 42.532 14.574 55.614 6.553 57.197-4 5.09 1.394 15.271 6.113 15.271 13.841 9.262 2.743 18.522 8.423 20.5 19.659 3.973 2.203 12.228 10.608 11.5 19.5 0.104 3.029-2.26 8.248-10 12.29-1.6 6.632-2.164 13.834-2.246 16.606 2.325 0.092 3.772 1.392 4.246 2.104 2.753 4.129-3.176 7.937-6.267 9.133 3.893-1.007 5.464 0.109 5.767 0.867 3.387 3.726-1.113 6.997-5 8.722-0.497 14.231-0.943 43.352 1.254 45.986-3.429-0.254-6.239 0.519-7.754 1.292-12.8 5.6-12.667 18.667-11 24.5-34.4-33.6-67.333-16.333-79.5-3.5-26.8-36.8-59.167-10-72 8 8-30.4-13.333-51.108-25-57.662 9.165-5.019 12.528-21.453 13-31.838z" fill="#4c8e34"/>
  <path d="m328.5 155.5c3.973 2.203 12.228 10.608 11.5 19.5 0.104 3.029-2.26 8.248-10 12.29-6.418 3.352-16.532 5.895-32 5.71-10.985-0.088-35.272-4.404-44.5-11.5-4.918 10.487-41.443 10.959-60 9-16.743-0.88-23.874-7.135-26-12.5-1.04-2.624-0.832-5.535-1-7 1.833-7.833 12.3-20.6 39.5-23s43.333 9.667 48 16c31.2-26.4 62.833-17.167 74.5-8.5z" fill="#e7e7e7"/>
  <path d="m332 206c2.753 4.129-4.409 8.304-7.5 9.5 3.893-1.007 6.697-0.258 7 0.5 3.387 3.726-3.113 7.775-7 9.5-74 7.5-116 1-133 0-13.6-0.8-19.333-7-20.5-10-2.8-8.4 4-10.833 7-11 70.831 9.307 140.1 2.505 146.5 0 1.225-0.479 2.312-0.641 3.254-0.604 2.325 0.092 3.772 1.392 4.246 2.104z" fill="#b25328"/>
  <path d="m77 145.5c-14 19.6-12.167 35.167-9.5 40.5-31.6 27.6-17.833 55.5-7 66-20 24-14 55.333-8.5 68-23.833 12.167-56.2 48 5 94 61.2 46 176.5 25.833 226.5 10 20.167-8.833 62.3-31.2 69.5-50s0.333-44.167-4-54.5c3.2-14.8-2-22.833-5-25 10.8-21.6 2.5-43.667-3-52 7.6-17.6 1.5-37.667-2.5-45.5 15.465-20.141 7.566-42.33 0-53.628m-261.5 2.128c14.8 6 38.167 5.167 48 4m-48-4c-5-2-16.1-10.1-24.5-24.5-0.8333-2.167-2-8.7 0-15.5 11.499-31.959 56.48-52.078 83.5-33m0 0c6.667 3.8333 19.4 15.4 17 31m-17-31c7.699-5.5436 26.696-12.709 45-0.8321m0 0c1.507 0.9778 3.009 2.0847 4.5 3.3321m-4.5-3.3321c16.063-17.363 52.762-37.928 78.387 8.3321m0 0c1.76 3.1772 3.468 6.6697 5.113 10.5m-5.113-10.5c9.605-5.4692 31.872-13.182 49.975-4.506m0 0c1.757 0.842 3.475 1.8383 5.138 3.006 11.245 7.8952 10.29 16.542 5.567 23.5m-10.705-26.506c28.926-0.5214 70.647 17.738 29.138 67.878m0 0c13.463-33.981-3.217-42.854-18.433-41.372m18.433 41.372c-0.849-1.267-1.693-2.397-2.5-3.372m-15.933-38c-3.173 4.675-8.048 8.589-12.067 11m-175.5 130.34c9.165-5.019 12.528-21.453 13-31.838 1.6-32.4-8.333-47.5-13.5-51 25.6 15.2 28.333-24.333 26.5-46 3.644 4.538 10.804 14.018 26 19.633m-52 109.2c-3.779 2.07-8.544 2.198-14.5-0.838m14.5 0.838c11.667 6.554 33 27.262 25 57.662 12.833-18 45.2-44.8 72-8 12.167-12.833 45.1-30.1 79.5 3.5-1.667-5.833-1.8-18.9 11-24.5 1.515-0.773 4.325-1.546 7.754-1.292m10.746 4.292c-3.753-2.907-7.523-4.054-10.746-4.292m-72.254-122.71c4.667-5 18.6-15.7 37-14.5 4.01 0.067 9.756 0.639 15.5 2.341m20.5 19.659c3.973 2.203 12.228 10.608 11.5 19.5 0.104 3.029-2.26 8.248-10 12.29m-1.5-31.79c-11.667-8.667-43.3-17.9-74.5 8.5m74.5-8.5c-1.978-11.236-11.238-16.916-20.5-19.659m-54.5 45.659c9.228 7.096 33.515 11.412 44.5 11.5 15.468 0.185 25.582-2.358 32-5.71m-76.5-5.79c3.362-7.536 2.159-14.496 0.5-17.5m-0.5 17.5c-4.918 10.487-41.443 10.959-60 9-16.743-0.88-23.874-7.135-26-12.5-1.04-2.624-0.832-5.535-1-7 1.833-7.833 12.3-20.6 39.5-23s43.333 9.667 48 16m37-53c1.453 3.419 2.275 7.36 1.729 11m-64.229-13c6.695 7.352 12.951 22.296-2.673 27.624m-58.327 16.876c5.156-5.711 14.918-12.872 27.83-16.394m52.17 8.394c-7.528-4.437-14.787-7.274-21.673-8.876m0 0c-4.212 1.437-10.015 2.174-17.827 1.876-4.623-0.177-8.833-0.666-12.67-1.394m30.497-0.482c6.611-2.254 9.304-6.23 9.705-10.624 42.532 14.574 55.614 6.553 57.197-4m-96.729 14.927c-0.224 0.058-0.448 0.118-0.67 0.179m-32.33 8.394c2.333-2.912 9.9-9.261 21.5-11.367m0 0c3.232 1.194 6.828 2.213 10.83 2.973m-10.83 78.394c74.468 5.133 114.97 3.457 140 0m0 0c0.303-0.047 0.73-0.172 1.233-0.367m-1.233 0.367c0.435-0.145 0.845-0.266 1.233-0.367m0 0c3.091-1.196 9.02-5.004 6.267-9.133-0.474-0.712-1.921-2.012-4.246-2.104m-2.021 11.237c3.893-1.007 5.464 0.109 5.767 0.867 3.387 3.726-1.113 6.997-5 8.722m1.254-20.826c-0.942-0.037-2.029 0.125-3.254 0.604-6.399 2.505-75.669 9.307-146.5 0-3 0.167-9.8 2.6-7 11 1.167 3 6.9 9.2 20.5 10 17 1 59 7.5 133 0 0.613-0.204 1.296-0.466 2-0.778m1.254-20.826c0.082-2.772 0.646-9.974 2.246-16.606m-3.5 37.432c-0.497 14.231-0.943 43.352 1.254 45.986m-35.025-148.71c5.09 1.394 15.271 6.113 15.271 13.841" stroke="#000" stroke-linecap="round" stroke-linejoin="round" stroke-width="4"/>
  <path d="m185 171c0-11.598 9.626-21 21.5-21s21.5 9.402 21.5 21-9.626 21-21.5 21-21.5-9.402-21.5-21zm27.268-15.878c-4.054 0-7.341 3.21-7.341 7.171 0 3.96 3.287 7.17 7.341 7.17 4.055 0 7.342-3.21 7.342-7.17 0-3.961-3.287-7.171-7.342-7.171zm-17.829 11.268c-2.896 0-5.244 2.293-5.244 5.122s2.348 5.122 5.244 5.122 5.244-2.293 5.244-5.122-2.348-5.122-5.244-5.122zm13.11 11.269c-2.028 0-3.671 1.605-3.671 3.585s1.643 3.585 3.671 3.585c2.027 0 3.671-1.605 3.671-3.585s-1.644-3.585-3.671-3.585z" clip-rule="evenodd" fill="#000" fill-rule="evenodd"/>
  <path d="m275 170c0-11.598 9.626-21 21.5-21s21.5 9.402 21.5 21-9.626 21-21.5 21-21.5-9.402-21.5-21zm27.268-15.878c-4.054 0-7.341 3.21-7.341 7.171 0 3.96 3.287 7.17 7.341 7.17 4.055 0 7.342-3.21 7.342-7.17 0-3.961-3.287-7.171-7.342-7.171zm-17.829 11.268c-2.896 0-5.244 2.293-5.244 5.122s2.348 5.122 5.244 5.122 5.244-2.293 5.244-5.122-2.348-5.122-5.244-5.122zm13.11 11.269c-2.028 0-3.671 1.605-3.671 3.585s1.643 3.585 3.671 3.585c2.027 0 3.671-1.605 3.671-3.585s-1.644-3.585-3.671-3.585z" clip-rule="evenodd" fill="#000" fill-rule="evenodd"/>
 </g>
</svg>
