<?xml version="1.0" encoding="UTF-8" standalone="no"?>
<svg
   xmlns:dc="http://purl.org/dc/elements/1.1/"
   xmlns:cc="http://creativecommons.org/ns#"
   xmlns:rdf="http://www.w3.org/1999/02/22-rdf-syntax-ns#"
   xmlns:svg="http://www.w3.org/2000/svg"
   xmlns="http://www.w3.org/2000/svg"
   xmlns:xlink="http://www.w3.org/1999/xlink"
   xmlns:sodipodi="http://sodipodi.sourceforge.net/DTD/sodipodi-0.dtd"
   xmlns:inkscape="http://www.inkscape.org/namespaces/inkscape"
   width="485.36749"
   height="431.6275"
   viewBox="0 0 128.4206 114.20187"
   version="1.1"
   id="svg64"
   sodipodi:docname="mascot-amazed.svg"
   inkscape:version="1.0.1 (3bc2e813f5, 2020-09-07)">
  <metadata
     id="metadata68">
    <rdf:RDF>
      <cc:Work
         rdf:about="">
        <dc:format>image/svg+xml</dc:format>
        <dc:type
           rdf:resource="http://purl.org/dc/dcmitype/StillImage" />
        <dc:title></dc:title>
      </cc:Work>
    </rdf:RDF>
  </metadata>
  <sodipodi:namedview
     pagecolor="#ffffff"
     bordercolor="#666666"
     borderopacity="1"
     objecttolerance="10"
     gridtolerance="10"
     guidetolerance="10"
     inkscape:pageopacity="0"
     inkscape:pageshadow="2"
     inkscape:window-width="2351"
     inkscape:window-height="1002"
     id="namedview66"
     showgrid="false"
     inkscape:zoom="0.84041301"
     inkscape:cx="18.667581"
     inkscape:cy="136.43861"
     inkscape:window-x="365"
     inkscape:window-y="100"
     inkscape:window-maximized="0"
     inkscape:current-layer="svg64" />
  <defs
     id="defs8">
    <radialGradient
       xlink:href="#a"
       id="b"
       cx="340.41199"
       cy="515.96301"
       fx="340.41199"
       fy="515.96301"
       r="85.519997"
       gradientTransform="matrix(0.43102728,-0.14198157,-0.17586633,-0.53388804,13.594826,391.56808)"
       gradientUnits="userSpaceOnUse" />
    <linearGradient
       id="a">
      <stop
         offset="0"
         stop-color="#79133d"
         id="stop3" />
      <stop
         offset="1"
         stop-color="#de3278"
         id="stop5" />
    </linearGradient>
  </defs>
  <path
     d="m 49.79879,31.712861 c 1.258,1.386 2.994,2.26 4.357,3.452 -0.778,1.027 -2.297,1.449 -3.097,2.565 -0.668,0.777 -1.94,1.791 -1.48,2.88 1.441,-2.11 3.414,-3.929 5.702,-5.073 2.25,0.595 3.477,1.65 0.663,2.632 -3.832,2.416 -7.783,5.506 -9.39,9.904 0.121,1.494 1.9,2.275 2.786,3.34 3.632,3.206 7.786,6.16 12.7,6.84 5.67,0.803 11.763,1.518 17.209,-0.64 2.429,-1.015 4.351,-3.091 5.896,-5.062 4.237,3.434 9.386,5.54 14.78,6.253 0.217,0.666 -1.315,0.231 -1.71,0.392 -10.795,-0.003 -21.667,0.336 -32.292,2.277 -3.23,1.716 -4.416,5.753 -4.174,9.202 -0.054,3.482 -0.278,7.174 1.71,10.229 4.241,7.73 12.562,12.002 20.65,14.625 -0.293,1.03 -1.946,1.26 -2.759,1.906 -1.988,1.003 -3.684,2.594999 -5.48,3.773999 -3.573,-3.751999 -8.226,-7.509999 -13.714,-7.014999 -6.004,0.62 -10.877,4.934 -14.414,9.576999 -0.635,-1.73 -0.29,-4.132999 -0.72,-6.124999 -0.816,-6.413 -4.886,-12.13 -10.332,-15.521 1.558,-1.957 3.578,-4.001 4.181,-6.606 1.75,-7.306 0.617,-14.979 -1.093,-22.181 -0.217,-1.56 -1.045,-3.219 -0.936,-4.748 2.191,-0.381 4.82,-0.998 5.867,-3.23 2.356,-4.795 2.269,-10.336 2.767,-15.547 0.824,0.09 1.573,1.386 2.323,1.9 z m 30.857,2.195 c 3.49,1.331 7.15,2.135 10.855,2.52 -0.089,0.679 -1.61,0.938 -2.246,1.474 -1.65,0.838 -2.927,2.196 -4.333,3.34 -0.535,0.116 -0.497,-0.768 -0.925,-0.98 -1.857,-2.395 -4.725,-3.575 -7.316,-4.95 -0.29,-0.552 0.65,-1.037 0.89,-1.499 0.696,-1.51 1.989,-0.084 3.075,0.095 z m 24.458,-3.598 c 2.81,-0.096 5.526,1.22 7.241,3.44 0.345,0.596 1.377,1.26 1.144,1.992 -1.299,-0.158 -2.491,-1.085 -3.86,-1.152 -3.058,-0.301 -6.188,-0.006 -9.239,-0.196 0.846,-1.019 2.138,-1.943 2.581,-3.34 0.376,-0.822 1.376,-0.773 2.133,-0.744 z m 6.902,59.554 c -0.154,1.058 0.484,2.432 -0.242,3.342 -2.02,1.209 -3.212,3.356 -3.579,5.615 -0.341,1.246999 -0.348,2.549999 -0.589,3.794999 -2.13,-1.825 -4.393,-3.742999 -6.943,-5.084999 -1.022,-0.59 -2.168,-1.01 -3.14,-1.648 1.539,-0.532 3.435,-0.619 5.055,-1.213 a -26.127,26.127 0 0 0 9.226,-4.906 l 0.19,0.09 z m 0.442,-32.079 c 0.638,0.369 0.554,1.358 0.831,1.977 0.262,0.48 -0.279,0.667 -0.645,0.473 -2.586,-0.356 -5.224,-0.506 -7.788,-0.883 0.377,-0.478 1.442,-0.165 2.089,-0.335 1.89,-0.136 3.743,-0.58 5.513,-1.232 z"
     fill="#4c8e34"
     id="path10" />
  <path
     d="m 72.29779,0.90486056 c 7.035,0.13400004 12.382,5.87700004 15.554,11.64000044 1.032,1.762 1.193,3.952 1.763,5.79 0.917,0.098 0.145,-1.44 0.206,-1.925 -0.194,-1.2 -1.21,-2.917 0.26,-3.74 6.05,-4.2580004 15.112,-5.3070004 21.082,-0.352 2.194,1.617 3.685,4.426 2.749,7.156 -0.888,3.353 -3.884,5.331 -6.155,7.672 -0.606,0.875 0.688,0.078 0.909,-0.173 1.97,-1.446 3.61,-3.29 5.229,-5.076 3.114,0.112 6.606,1.449 7.682,4.647 1.098,3.383 1.359,7.33 -0.096,10.643 -0.783,0.907 -1.245,1.7 -0.17,2.697 2.866,5.006 4.384,11.26 2.105,16.798 -0.662,1.426 -1.048,3.496 -2.628,4.173 -0.347,-0.121 -1.304,-0.592 -0.89,0.197 3.892,4.135 3.885,10.428 2.689,15.652 -0.178,1.46 -1.06,3.012 -0.854,4.388 4.155,5.595 3.882,13.185 1.945,19.564999 -0.094,1.045 -1.112,1.952 -1.134,2.917 0.614,0.327 0.816,-1.1 1.37,-0.3 1.476,2.71 1.02,6.014 0.955,8.985 0.007,1.496 -2.057,0.784 -2.954,1.036 -29.29,0.232 -58.584,-0.102 -87.875,-0.15 -10.471004,-0.11 -21.014004,0.038 -31.4420036,-0.25 -1.49,-5.403 -1.457,-11.149 -0.865,-16.684999 0.719,-4.098 2.098,-8.096 4.253,-11.666 -3.134,-2.544 -5.43,-6.381 -5.063,-10.529 0.425,-6.23 3.775,-11.788 7.346,-16.733 0.029,-3.687 -0.321,-7.58 1.532,-10.941 0.9789996,-1.873 1.7109996,-4.083 3.2499996,-5.549 2.93,0.477 5.732,1.724 8.777,1.444 3.671,-0.128 7.539004,0.398 11.089004,-0.513 0.6,-0.684 -1.094,-0.316 -1.377,-0.295 -5.134004,0.177 -10.430004,0.7 -15.463004,-0.59 -6.1269996,-1.709 -11.3519996,-6.528 -12.9869996,-12.751 -0.764,-2.059 -0.86,-4.472 0.636,-6.24 4.775,-7.395 12.4049996,-13.5170004 21.2919996,-14.7920004 3.295,-0.219 6.908004,-0.515 9.707004,1.608 4.933,3.1620004 7.401,8.7380004 9.412,14.0080004 0.259,0.772 0.669,0.213 0.386,-0.32 -1.3,-4.592 -3.786,-8.82 -6.78,-12.4880004 1.096,-1.494 3.294,-1.805 4.944,-2.464 5.132,-1.492 10.887,0.004 14.899,3.4300004 0.962,0.439 0.095,-1.0770004 -0.393,-1.0880004 -1.025,-0.805 1.165,-1.848 1.7,-2.67 3.682,-3.22 8.348,-6.17400004 13.404,-6.16600004 z m 2.965,24.39000044 c -0.358,0.748 0.952,1.422 1.253,2.082 1.676,1.82 2.023,4.94 -0.042,6.621 -2.75,2.549 -6.597,3.476 -10.27,3.153 -7.846,0.381 -15.57,-3.787 -19.802,-10.361 -0.533,-0.91 -0.584,0.639 -0.174,0.883 1.264,1.92 0.17,4.402 0.271,6.526 -0.542,4.022 -0.408,8.657 -3.185,11.915 -1.863,1.905 -5.49,2.363 -7.363,0.283 -0.6,1.605 2.022,1.552 2.128,3.015 2.034,6.475 3.158,13.244 2.847,20.045 0.18,4.252 -1.021,9.11 -4.645,11.7 -2.031,1.275 -4.505,0.66 -6.506,-0.318 -0.776,-0.312 -0.566,0.246 -0.024,0.506 1.92,1.694 4.568,0.766 6.77,1.535 6.354,3.756 10.165,11.014 10.174,18.334999 0.117,1.503 -0.247,3.356 0.215,4.662 3.465,-4.279 7.327,-8.885999 12.778,-10.605999 3.066,-0.714 6.467,-0.693 9.181,1.092 2.928,1.271 4.775,4.047999 7.278,5.847999 3.82,-3.872999 9.054,-6.675999 14.615,-6.546999 6.496,-0.33 12.351,3.566 16.717,8.036999 1.62,2.285 0.946,-0.745 1.082,-1.98 -0.005,-3.349999 1.258,-7.655999 5.046,-8.329999 2.354,-0.551 4.654,0.677 6.826,1.117 -0.534,-1.285 -2.448,-1.196 -3.611,-1.592 -1.294,-0.316 -2.757,-0.066 -3.964,-0.437 0.025,-1.916 -0.007,-3.98 1.226,-5.56 0.555,-5.008 -0.249,-10.134 0.691,-15.13 0.259,-3.322 3.06,-6.344 1.666,-9.727 -0.501,-1.329 -2.431,-1.324 -2.6,-2.895 -0.442,-0.88 -0.54,-2.04 0.588,-2.433 2.709,-2.096 4.879,-5.13 4.98,-8.654 0.435,-4.06 -0.988,-8.315 -4.08,-11.058 -1.456,-2.165 -2.552,-4.774 -5.037,-6.006 -2.154,-1.342 -4.75,-1.32 -7.138,-1.63 -0.405,-1.151 -0.835,-2.78 -1.957,-3.272 0.505,1.738 1.93,3.557 0.744,5.38 -2.45,3.796 -7.615,4.309 -11.735,3.98 -3.996,-0.37 -7.964,-1.514 -11.588,-3.122 0.327,-2.691 -0.974,-5.56 -3.226,-7.05 a -0.294,0.294 0 0 0 -0.13,-0.008 z"
     fill="#e7e7e7"
     id="path12" />
  <path
     d="m 112.05679,10.775861 c 5.637,1.037 10.913,3.845 14.806,8.073 1.475,1.014 0.358,3.059 0.487,4.562 -0.39,3.841 -2.14,7.341 -3.844,10.742 -0.661,-1.32 -0.308,-3.478 -0.64,-5.141 -0.225,-3.641 -2.947,-7.007 -6.653,-7.454 -0.803,-0.059 -2.497,-0.214 -1.731,-1.439 1.126,-2.942 -0.14,-6.22 -2.565,-8.086 -1.06,-0.922 -2.358,-1.84 0.14,-1.257 z m -36.519,25.186 c 3.565,0.88 7.076,3.043 8.956,6.281 1.137,2.358 0.665,5.125 0.574,7.653 -1.122,5.457 -6.944,8.48 -12.162,8.43 -7.279,0.127 -15.404,-0.413 -21.027,-5.634 -1.565,-1.51 -3.512,-2.87 -4.518,-4.821 2.167,-4.762 6.652,-8.094 11.231,-10.383 1.766,-0.666 3.63,0.44 5.456,0.304 1.385,0.242 3.205,-0.102 4.281,0.51 -4.254,2.285 -6.114,7.923 -4.04,12.238 1.39,3.14 4.595,5.422 8.095,5.21 3.199,0.333 6.393,-1.706 7.944,-4.428 2.268,-4.03 1.236,-9.694 -2.74,-12.256 -1.366,-1.025 -2.972,-1.587 -4.67,-1.806 0.305,-0.631 1.72,-1.288 2.62,-1.298 z m 34.538,-0.798 c 4.059,1.462 8.005,4.638 8.587,9.154 0.35,3.72 -0.045,7.955 -3.06,10.56 -4.81,4.276 -11.863,3.926 -17.795,2.85 -4.496,-0.855 -9,-2.72 -12.236,-6.006 -0.034,-1.84 0.41,-3.735 0.243,-5.62 0.187,-1.445 -0.462,-2.902 -0.222,-4.294 3.39,-3.938 8.68,-5.715 13.68,-6.493 3.592,-0.264 7.207,-0.12 10.803,-0.151 z m -1.993,1.291 c -5.107,-0.108 -9.486,4.93 -8.779,10.01 0.127,5.419 5.924,9.581 11.083,8.182 5.921,-1.283 9.03,-9.219 5.38,-14.126 -1.74,-2.58 -4.528,-4.274 -7.684,-4.066 z"
     fill="#e7e7e7"
     id="path14" />
  <path
     d="m 72.71579,38.072861 c 4.427,-0.01 8.3,4.11 8.141,8.509 0.214,4.1 -3.082,7.95 -7.107,8.557 -3.771,0.664 -7.705,-1.729 -9.043,-5.28 -1.107,-2.813 -0.698,-6.22 1.229,-8.585 1.604,-2.053 4.15,-3.352 6.78,-3.2 z m -2.368,2.626 c -1.937,-0.19 -3.638,1.7 -3.56,3.598 -0.073,1.887 1.548,3.646 3.458,3.63 2.093,0.175 3.931,-1.844 3.692,-3.899 -0.04,-1.776 -1.781,-3.531 -3.59,-3.33 z m 6.878,2.374 c -0.994,0.003 -1.631,1.384 -0.833,2.076 0.646,0.743 2.035,0.236 2.011,-0.747 0.08,-0.686 -0.508,-1.305 -1.178,-1.33 z m -0.25,4.734 c -1.355,-0.068 -2.302,1.63 -1.574,2.762 0.559,1.123 2.382,1.277 3.048,0.148 0.912,-1.172 -0.041,-2.918 -1.474,-2.91 z m 31.569,-10.726 c 3.834,-0.03 7.245,3.12 7.941,6.82 0.863,3.814 -1.25,8.038 -4.837,9.605 -1.927,0.865 -4.205,0.909 -6.193,0.223 -3.462,-1.225 -5.876,-4.905 -5.555,-8.576 0.015,-1.83 0.806,-3.602 1.932,-5.016 1.585,-1.913 4.007,-3.212 6.532,-3.058 l 0.105,10e-4 z m -2.227,2.147 c -1.639,-0.19 -3.128,1.165 -3.509,2.676 -0.098,1.043 -0.102,2.182 0.573,3.042 1.124,1.691 3.808,2.043 5.287,0.61 0.945,-0.751 1.318,-2.002 1.183,-3.175 -0.067,-1.513 -1.355,-2.887 -2.83,-3.138 -0.234,-0.016 -0.47,-0.013 -0.704,-0.015 z m 7.149,3.3 c -1.24,-0.06 -1.483,2.026 -0.312,2.307 0.74,0.267 1.65,-0.242 1.585,-1.086 0.033,-0.707 -0.535,-1.345 -1.273,-1.221 z m -1.814,4.988 c -1.186,-0.079 -1.994,1.158 -1.797,2.247 0.193,1.08 1.469,1.769 2.472,1.286 1.29,-0.418 1.535,-2.316 0.453,-3.1 a -1.847,1.847 0 0 0 -1.128,-0.433 z"
     id="path16" />
  <path
     d="m 95.05079,59.866861 c 6.352,0.05 12.728,0.32 19.006,1.34 0.916,0.11 1.753,0.674 2.05,1.573 0.386,1.193 -0.044,2.486 -0.406,3.637 -0.536,1.205 -1.036,2.424 -1.278,3.723 -0.608,2.493 -1.032,5.029 -0.889,7.602 0.032,2.934 0.08,5.877 0.036,8.806 -1.014,1.577 -2.49,2.797 -3.922,3.979 -4.147,2.936 -9.204,4.36 -14.23,4.703 -1.58,-0.192 -3.14,-0.51 -4.74,-0.434 -1.49,-0.05 -2.946,0.312 -4.425,0.421 -1.628,-0.129 -3.143,-0.848 -4.688,-1.327 -6.02,-2.181 -11.925,-5.471 -15.824,-10.685 -1.756,-2.401 -3.098,-5.19 -3.506,-8.155 -0.063,-3.506 -0.249,-7.24 1.406,-10.453 0.732,-1.314 1.919,-2.57 3.508,-2.684 8.967,-1.418 18.054,-2.013 27.128,-2.047 l 0.773,10e-4 z m -0.482,3.319 c -8.297,0.012 -16.608,0.577 -24.823,1.602 -1.413,0.183 -2.824,1.086 -3.155,2.546 -0.42,2.488 -0.332,5.088 -0.234,7.608 0.125,2.295 1.223,4.386 2.336,6.344 1.133,1.629 2.807,2.87 4.32,4.167 4.673,3.626 10.237,6.424 16.217,6.77 4.218,0.07 8.456,-0.513 12.52,-1.632 3.455,-1.007 6.966,-2.557 9.355,-5.346 0.231,-0.585 -0.082,-1.267 -0.065,-1.887 -0.485,-4.884 -0.62,-9.915 0.652,-14.697 a -11.296,11.296 0 0 1 1.857,-3.84 c 0.125,-0.518 -0.673,-0.42 -0.974,-0.532 -5.954,-0.85 -11.99,-1.097 -18.006,-1.103 z"
     fill="#b45328"
     id="path18" />
  <path
     d="m 95.899313,63.909034 c 5.433417,0.0598 10.895937,0.231508 16.265317,1.110443 0.14817,0.811996 -0.69743,1.629813 -0.85724,2.455831 -1.93831,5.59719 -1.00963,11.613475 -1.03477,17.401427 -0.78712,1.429526 -2.4508,2.188606 -3.78561,3.047168 -4.50209,2.301846 -9.608751,3.271267 -14.628098,3.488487 C 87.99234,91.55447 84.069941,90.986681 80.585952,89.230663 76.36643,87.209272 72.303804,84.53331 69.349239,80.861469 66.743126,77.183278 66.6238,72.40655 67.231541,68.103686 c 0.07832,-1.45863 1.354649,-2.469855 2.754277,-2.56431 8.57398,-1.179233 17.26067,-1.6441 25.913495,-1.630342 z"
     fill="url(#b)"
     id="path20"
     style="fill:url(#b);stroke-width:0.26458" />
  <g
     transform="matrix(-1,0,0,1,165.86379,-69.128139)"
     fill="none"
     stroke="#000000"
     stroke-linecap="round"
     id="g60">
    <path
       d="m 42.223,171.221 0.908,1.232 M 40.945,182.8 c 0,0 -1.734,-7.91 1.278,-11.579 0,0 -4.91,-13.504 1.791,-21.353 m 0,0 c 0,0 -4.598,-11.926 0.896,-19.051 m 0,0 c 0,0 -8.811,-9 0.022,-23.165 0,0 -8.216,-10.465 -6.792,-19.098 0,0 5.578,-8.517 19.642,-9.543 M 44.91,130.817 45.802,129.99 M 43.52,105.598 c 0,0 -3.66,-15.596 9.02,-14.706"
       stroke-width="1.058"
       id="path22" />
    <path
       d="m 58.071,96.298 c 0,0 -15.198,-9.491 -0.289,-17.287 0,0 9.226,-4.371 19.46,3.354 m -1.096,4.945 c 0.02,0.082 -0.031,-1.931 1.096,-4.945 m 0,0 c 0,0 11.8,-25.737 32.487,-3.96 m -1.583,1.376 c 0,0 8.535,-8.835 20.923,-0.963"
       stroke-width="1.058"
       id="path24" />
    <path
       d="m 121.38,92.092 c 0.318,-0.032 4.113,-17.368 17.156,-16.528 17.748,1.143 25.77,18.524 25.239,17.463 m 0,0 c 0,0 0.149,22.53 -30.77,17.66"
       stroke-width="1.058"
       id="path26" />
    <path
       d="m 152.933,109.209 c 0,0 6.94,8.97 4.758,16.876 0,0 15.329,18.191 2.57,27.622 0,0 8.034,11.35 3.191,28.894 l -122.507,0.2 m 78.826,-86.87 c 0,0 -6.549,12.886 -24.564,10.543 0,0 -13.589,-3.305 -4.744,-11.775"
       stroke-width="1.058"
       id="path28" />
    <path
       d="m 87.913,101.553 c 0,0 -11.966,5.913 -20.13,2.534 -8.164,-3.38 -3.286,-8.529 -3.286,-8.529 m 54.409,1.743 c -0.164,-0.044 -0.321,15.665 3.705,18.549 3.981,2.852 7.314,0.876 7.229,-0.02 v 0"
       stroke-width="1.058"
       id="path30" />
    <path
       d="m 127.846,117.038 c 0,0 -6.159,18.875 -2.178,28.553 3.98,9.679 10.578,4.458 10.578,4.458 m -5.873,1.016 c 0,0 -13.342,5.656 -11.434,23.614"
       stroke-width="1.058"
       id="path32" />
    <path
       d="m 118.94,174.68 c 0,0 -13.766,-22.435 -29.005,-3.588 0,0 -14.379,-16.532 -32.254,1.839 0,0 1.598,-15.435 -12.04,-9.512 m 7.705,-1.299 c 0,0 0.073,-1.922 -0.1,-4.043 m -1.251,-2.17 c 0,0 4.434,7.86 18.647,8.854"
       stroke-width="1.058"
       id="path34" />
    <path
       d="m 79.188,164.936 c 0,0 21.788,-4.442 24.766,-20.248 0,0 1.564,-13.806 -5.727,-14.114 0,0 -23.558,-3.938 -46.338,-0.674 0,0 -4.986,0.327 -1.351,7.398 m 0,0 c 0,0 1.866,5.847 1.46,10.715 -0.406,4.868 -0.003,7.894 -0.003,7.894 m 0.689,-22.022 c 0,0 15.745,-2.907 42.199,0.254"
       stroke-width="1.058"
       id="path36" />
    <path
       d="m 94.883,134.14 c 0,0 4.4,-0.25 4.18,3.83 0.238,-0.128 0.226,4.393 0.062,6.657 -0.144,2 -2.642,6.79 -3.34,6.848 0,0 -10.706,11.499 -23.83,9.28 m -0.001,-0.001 c 0,0 -12.064,-0.662 -16.928,-6.637 m -2.342,-20.232 c 0,0 4.333,3.938 2.342,20.232 m -8.267,-38.431 c 0,0 -1.551,13.263 16.778,12.162 0.744,-0.395 8.847,0.351 16.862,-6.406 m -33.64,-5.756 c 0,0 -1.072,-9.018 9.427,-11.66 0,0 16.548,-2.426 24.475,6.742"
       stroke-width="1.058"
       id="path38" />
    <path
       d="m 90.512,104.576 c 0,0 -11.267,2.714 -10.267,11.475 0,0 -2.06,16.74 25.98,10.506 m 0.001,0 c 0,0 4.798,-0.463 12.897,-9.076 M 106.33,105.765 c 0,0 10.193,4.266 12.793,11.716 M 51.358,105.682 c 0,0 3,-8.364 11.82,-6.32 m 47.547,5.078 c 0,0 4.198,1.799 5.566,4.927"
       stroke-width="1.058"
       id="path40" />
    <ellipse
       cx="93.375"
       cy="115.763"
       rx="8.79"
       ry="8.9779997"
       stroke-width="1.058"
       id="ellipse42" />
    <ellipse
       cx="57.597"
       cy="114.766"
       rx="8.79"
       ry="8.9779997"
       stroke-width="1.058"
       id="ellipse44" />
    <ellipse
       cx="59.563"
       cy="111.939"
       rx="3.513"
       ry="3.563"
       stroke-width="0.529"
       id="ellipse46" />
    <ellipse
       cx="54.222"
       cy="118.492"
       rx="1.864"
       ry="1.89"
       stroke-width="0.265"
       id="ellipse48" />
    <ellipse
       cx="52.301998"
       cy="112.838"
       rx="1.2410001"
       ry="1.2589999"
       stroke-width="0.265"
       id="ellipse50" />
    <ellipse
       cx="95.499001"
       cy="113.424"
       rx="3.513"
       ry="3.563"
       stroke-width="0.529"
       id="ellipse52" />
    <ellipse
       cx="88.886002"
       cy="118.781"
       rx="1.864"
       ry="1.89"
       stroke-width="0.265"
       id="ellipse54" />
    <ellipse
       cx="88.639"
       cy="113.428"
       rx="1.2410001"
       ry="1.2589999"
       stroke-width="0.265"
       id="ellipse56" />
    <path
       d="m 52.915,126.38 -1.026,3.52"
       stroke-width="1.058"
       id="path58" />
  </g>
  <path
     d="m 70.53379,40.881861 c 2.38,0.022 3.966,2.87 2.88,4.938 -0.935,2.217 -4.382,2.583 -5.7,0.534 -1.343,-1.617 -0.756,-4.364 1.229,-5.165 a -3.404,3.404 0 0 1 1.591,-0.307 z m 6.525,6.923 c 1.916,-0.13 2.4,2.88 0.726,3.58 -1.446,0.787 -3.22,-0.953 -2.53,-2.43 a -1.753,1.753 0 0 1 1.804,-1.15 z m 0.235,-4.775 c 1.091,0.02 1.599,1.644 0.686,2.263 -0.732,0.615 -1.944,0.041 -1.986,-0.897 -0.083,-0.733 0.558,-1.42 1.3,-1.367 z m 29.274,-3.594 c 1.328,-0.006 2.52,1.042 2.942,2.26 0.351,1.26 0.11,2.754 -0.931,3.627 -1.22,1.237 -3.435,1.223 -4.618,-0.054 -0.655,-0.642 -1.089,-1.532 -0.985,-2.465 -0.16,-1.56 1.113,-2.999 2.584,-3.34 0.334,-0.042 0.672,-0.026 1.008,-0.028 z m 5.126,8.037 c 1.343,0 2.321,1.67 1.575,2.82 -0.528,1.007 -2.016,1.304 -2.841,0.494 -0.84,-0.682 -0.875,-2.062 -0.069,-2.784 a -1.854,1.854 0 0 1 1.335,-0.53 z m 1.904,-5.046 c 0.974,0.01 1.562,1.261 0.96,2.024 -0.495,0.74 -1.737,0.64 -2.092,-0.189 -0.457,-0.843 0.201,-1.834 1.132,-1.835 z"
     fill="#e7e7e7"
     id="path62" />
</svg>
