<?xml version="1.0" encoding="UTF-8"?>
<svg width="128.42" height="114.2" version="1.1" viewBox="0 0 128.42 114.2" xmlns="http://www.w3.org/2000/svg" xmlns:cc="http://creativecommons.org/ns#" xmlns:dc="http://purl.org/dc/elements/1.1/" xmlns:rdf="http://www.w3.org/1999/02/22-rdf-syntax-ns#">
 <metadata>
  <rdf:RDF>
   <cc:Work rdf:about="">
    <dc:format>image/svg+xml</dc:format>
    <dc:type rdf:resource="http://purl.org/dc/dcmitype/StillImage"/>
    <dc:title/>
   </cc:Work>
  </rdf:RDF>
 </metadata>
 <g transform="matrix(-1 0 0 1 168.42 -66.611)">
  <g fill="none" stroke="#000" stroke-linecap="round">
   <g stroke-width="1.0583">
    <path d="m43.503 180.28s-1.7342-7.9099 1.2774-11.579c0 0-4.909-13.505 1.7914-21.353 0 0-4.5985-11.926 0.8956-19.051 0 0-8.8108-9.0007 0.0227-23.165 0 0-8.2161-10.465-6.792-19.098 0 0 5.5777-8.5172 19.642-9.5435m-12.872 51.806 0.892-0.8274m-2.282-24.392s-3.659-15.596 9.0197-14.706"/>
    <path d="m60.628 93.781s-15.198-9.4914-0.2891-17.287c0 0 9.2262-4.371 19.46 3.3542m-1.0963 4.9451c0.0206 0.082-0.031-1.9317 1.0963-4.945m0-1e-4s11.801-25.737 32.487-3.96m-1.5824 1.3759s8.5348-8.835 20.922-0.963"/>
    <path d="m123.94 89.575c0.317-0.0315 4.1128-17.368 17.155-16.528 17.748 1.1428 25.77 18.524 25.239 17.464 0 0 0.1488 22.529-30.77 17.66"/>
    <path d="m155.49 106.69s6.9411 8.971 4.758 16.876c0 0 15.329 18.191 2.5707 27.623 0 0 8.0334 11.349 3.1907 28.894l-122.51 0.1999m78.826-86.869s-6.5488 12.885-24.564 10.542c0 0-13.589-3.3049-4.7441-11.774"/>
    <path d="m90.47 99.036s-11.966 5.9135-20.13 2.5342c-8.164-3.3792-3.2858-8.5286-3.2858-8.5286m54.408 1.7431c-0.1639-0.0443-0.3212 15.665 3.7047 18.548 3.9816 2.8521 7.315 0.8761 7.2292-0.0206"/>
    <path d="m130.4 114.52s-6.1584 18.875-2.1778 28.554c3.9807 9.6784 10.578 4.4576 10.578 4.4576m-5.8731 1.0162s-13.342 5.6559-11.434 23.614c0 0-13.765-22.435-29.005-3.5871 0 0-14.378-16.533-32.253 1.8386 0 0 1.5982-15.435-12.04-9.512m-3.4182 7.8025 0.9084 1.231"/>
    <path d="m51.622 159.94s1.7136-9.2027 1.2354-14.273c0 0 25.278 10.443 54.838-1.7988 0 0 9.8255-5.1005 8.4756-14.359 0 0 0.1759-2.2113-3.039-1.6397 0 0-39.346 4.248-58.524 0.49 0 0-3.0785-1.1182-3.9092 1.1736"/>
    <path d="m50.698 129.53s-1.402 2.985 5.786 3.3839c-0.0538 0.3764 28.44 3.7066 49.829-0.0463 0 0 9.27-1.8409 1.5676 5.8822"/>
    <path d="m107.88 138.75s-7.4403 6.379-21.04 6.9217c-16.554 0.6605-30.365-3.164-30.188-3.1904"/>
    <path d="m56.653 142.48s-2.7654-1.7022-4.5275-1.301c-1.762 0.401-1.2516 2.0412-1.2516 2.0412s0.4471 1.7267 1.9831 2.443m56.496-8.0811s-21.425 4.7548-49.589 1.0925c0 0 0.104 4.5393-1.5035 4.1723m2.226-9.3967s0.6357 3.4426 0.3013 5.4435m-6.103-6.1021s0.4498 5.4374-0.286 8.4667m-3.3364-17.264s-0.1438 2.8484 0.131 4.4292m-0.131-4.4292s24.122-2.5025 30.582-0.0512"/>
    <path d="m51.063 124c-0.0451 0.1044-9.1656-4.3002-0.2967-12.343 0 0 13.255-11.353 31.211 3.1564m-0.3323 9.1354 0.749-1.1909"/>
    <path d="m84.345 123.92s-7.1128-6.3104 1.4759-12.572 21.146-2.3658 21.146-2.3658 8.368 2.482 11.245 8.0034c-0.1644 0.3127 0.0948 4.977 0.0948 4.977s-22.893-0.2577-33.961 1.957zm-33.887-12.108s9.3112-19.006 31.666-3.8242m24.745-3.9608s5.6735 0.5605 10.999 6.2474m-22.909-7.143s-5.4261 0.343-10.026 3.8804m30.463-3.743s2.0833 1.0912 3.881 3.7395m-53.456-9.9457s-4.8535 1.6226-5.5874 6.1512m0.1055 4.618s5.1243 5.7742-0.2653 15.369m36.822-15.469s5.5685 6.6689 1.1288 14.639"/>
   </g>
   <ellipse cx="52.481" cy="115.71" rx="1.5131" ry="1.472" stroke-width=".19"/>
   <ellipse cx="57.611" cy="118.81" rx="1.2597" ry="1.1934" stroke-width=".1561"/>
   <ellipse cx="57.983" cy="112.58" rx="3.1451" ry="2.0996" stroke-width=".3272"/>
   <ellipse cx="88.683" cy="115.99" rx="1.1282" ry="1.1626" stroke-width=".1458"/>
   <ellipse transform="matrix(.13934 -.99025 .99988 -.0156 0 0)" cx="-121.46" cy="111.32" rx="1.4369" ry="1.6671" stroke-width=".1971"/>
   <ellipse transform="matrix(.15763 -.9875 .9999 -.01375 0 0)" cx="-114.98" cy="112.38" rx="2.1979" ry="2.8847" stroke-width=".3207"/>
  </g>
  <path d="m120.78 96.344c-2.9327 3.1394-6.4957 5.7466-10.633 7.019-2.0816 0.3006-0.968 1.0586 0.4063 1.3891 2.9056 1.258 5.699 3.0987 7.6298 5.6236-0.2828 0.5005-1.0828-0.4578-1.36-0.6288-2.87-2.802-6.618-4.9495-10.646-5.392-3.6855 0.3605-7.444 0.332-11.018-0.7655-3.52 0.0418-6.7814 1.7-9.7866 3.3908-0.2328 0.2767-1.1708 0.2228-0.668-0.2307 2.5125-1.927 5.5784-2.9747 8.5896-3.8094 0.0312-0.8586-1.3437-1.0892-1.7787-1.7474-0.8187-0.5-1.1655-2.214-2.296-1.229-3.9635 1.5181-8.0982 2.8809-12.403 2.8563-0.6066 0.1903-3.7724-0.2575-2.5403 0.5497 2.8122 1.2902 5.7162 2.5912 8.1337 4.525 0.1558 0.9519-1.023-0.0251-1.37-0.1892-5.5497-3.5567-12.366-6.3685-19.043-4.7705-3.7229 1.232-7.3386 3.379-9.5888 6.6543 0.1857 0.6507 1.143-0.1713 1.5678-0.2826 5.7482-2.7613 12.568-2.9213 18.458-0.4955 3.4929 1.3257 6.6643 3.3716 9.6395 5.6237 1.4625-1.3888 2.8615-3.0984 4.7184-4.1178 5.719-3.4016 12.788-3.2981 19.095-1.9454 4.574 1.295 9.2257 3.5715 12.053 7.5395 1.0182 1.7421 0.4222 3.917 0.6987 5.8324-0.0438 1.2784-2.4379 0.2854-3.4791 0.5997-9.7948 0.0368-19.636 0.2536-29.343 1.6531-0.762 0.2178-1.6931 0.478-2.1918-0.335-0.2768-0.5224-1.0407-0.9011-1.2602-0.1242-0.2474 0.842-1.0914 0.8685-1.7667 0.4908-5.4896-1.175-11.172-0.724-16.742-0.589-3.975 0.258-8.0045 0.2647-11.93 0.9435-1.1048 0.6791-0.2996 2.2979-0.3952 3.3084 2.8483 0.363 5.845 0.6975 8.7467 1.1336 9.2124 0.978 18.504 0.656 27.749 0.4662 8.5905-0.2171 17.157-1.1237 25.71-1.7362 1.0962-0.134 2.6823 0.1856 2.7125 1.604 0.7906 4.3759-1.164 8.8664-4.3924 11.808-2.2728 2.4196-5.2946 3.8639-8.424 4.8104-15.331 5.2961-32.288 5.794-47.866 1.234-0.7171-0.0847-1.5896-0.8073-2.265-0.4913-0.5514 2.8575-0.3374 5.836-0.8232 8.7166-0.075 1.3212-0.5969 2.757-0.4146 3.9977 2.476-0.2283 5.2769 0.481 6.6329 2.7436 1.2623 2.1248 1.7282 4.656 1.7667 7.1044 0.9497-0.1214 1.7441-1.3626 2.642-1.9166 5.0986-4.3415 12.133-6.9357 18.777-5.1462 3.8784 0.9435 7.3475 3.17 10.302 5.83 1.8544-1.5882 3.5396-3.6508 5.7482-4.9195 4.0296-2.7098 9.388-2.887 13.604-0.528 3.4534 1.8008 6.2727 4.6862 8.684 7.6785 0.9726 1.378 0.4555-1.8171 0.6663-2.4494-0.0235-7.335 3.819-14.563 10.05-18.474 1.4136-0.623-0.6137-1.5153-1.04-2.2591-3.5086-4.1741-3.722-10.002-3.4355-15.181 0.4793-5.34 1.4954-10.678 2.964-15.809 0.4628-0.6355-0.3223-0.9349-0.8633-0.7902-2.306-0.3236-4.6899-1.5762-5.4809-3.9102-1.9616-4.7025-1.9643-9.9018-2.3408-14.88l-0.1217-0.0098zm-5.4193 6.5816c1.745 0.8551 3.1646 2.4101 4.2023 4.035 0.0723 0.6814-0.8634-0.1544-1.0166-0.391-0.9483-1.2415-2.2736-2.1213-3.3092-3.2493-0.0948-0.1398-0.1635-0.457 0.1235-0.3947z" fill="#4c8e34"/>
  <path d="m65.184 97.764c-1.863 0.8094-3.4126 2.4617-4.269 4.2886-0.1101 0.8596 1.0939 6e-3 1.4835 0.088 2.4595-0.4666 5.0246-0.1867 7.5047-0.2059-0.8942-0.8304-2.38-1.3325-3.2716-2.3711-0.695-0.3964-0.739-1.4535-1.395-1.803z" fill="#4c8e34"/>
  <path d="m95.895 67.542c-5.6844 0.151-10.329 4.2049-13.442 8.642-1.8889 2.4148-3.0629 5.2951-3.4666 8.328 0.0163 0.4383-0.4405 0.7752-0.4754 0.1709-0.2412-1.6527 0.6912-3.2609 0.6907-4.8465-3.9724-2.9013-8.908-4.5415-13.847-4.1114-4.3135 0.1992-8.6683 2.608-10.731 6.459-1.4326 3.2297 0.8302 6.6788 3.1366 8.8352 0.9386 1.0922 2.5976 1.7158 3.1345 3.0744-1.093-0.1142-1.8837-1.2673-2.7705-1.8599-1.1857-1.0515-2.4419-2.1807-3.2913-3.48-2.8026-0.3672-5.8934 0.7664-7.3821 3.2771-1.7925 2.9054-1.5505 6.5452-1.2165 9.8007 0.098 1.313 1.1045 2.2644 1.5616 3.4057-2.8464 4.7854-4.8369 10.577-3.4005 16.161 0.5968 2.1745 1.4892 4.3838 2.934 6.1186 0.4239 0.232 1.1092-0.77 1.3-0.0453-0.663 1.1583-1.7619 2.0647-2.2072 3.3793-1.628 3.1774-1.174 6.8624-1.0247 10.295 0.2588 2.1953 0.9687 4.3007 1.5313 6.4291-2.9254 3.2326-3.6433 7.7876-3.4228 12.001 0.1228 3.086 0.4845 6.2845 1.7821 9.1126 0.1898 0.3089 1.0855 1.4757 0.3238 1.5284-0.3827-0.3445-0.9203-1.0352-1.2678-0.1893-1.3138 2.8553-0.923 6.1665-0.7052 9.2125 0.0618 0.8966 1.3832 0.2857 1.941 0.5027 33.15 0.3078 66.302 0.158 99.452 1e-4l20.699-0.1265c1.251-4.4281 1.6271-9.239 1.3134-13.877-0.3456-5.1694-2.0098-10.189-4.6072-14.658 3.1098-2.3759 5.4286-6.164 4.967-10.19 0.0642-4.4703-2.0429-8.6043-4.1743-12.406-0.9093-1.7785-2.4372-3.2074-3.239-5.0197 0.687-4.3757-0.2543-8.918-2.4507-12.757-0.7342-1.1316-1.2101-2.6357-2.2835-3.4557-3.289 1.0774-6.6792 1.8982-10.161 1.8278-3.2087-0.0598-6.5486 0.2327-9.626-0.7864-0.606-0.4644 0.667-0.4317 0.8915-0.3412 6.5022 0.7862 13.482 0.9769 19.543-1.9167 5.748-2.602 9.5234-8.6282 9.9993-14.83-0.4704-2.489-2.401-4.395-3.846-6.3788-5.4574-6.6937-13.743-11.594-22.554-11.409-5.2344 0.2405-9.4972 4.134-11.89 8.5474-1.4461 2.365-2.2616 5.0285-3.3583 7.5419-0.1354 0.3196-0.6246 0.553-0.4648 0.0072 1.0194-4.2016 3.0387-8.2158 5.7453-11.577 0.6752-0.7756 2.1789-1.821 0.3677-2.1952-5.0802-2.9752-11.896-3.1775-16.849 0.1706-0.8885 0.4394-1.6686 1.5082-2.6718 1.5475-0.0601-0.9498 2.2054-1.3655 0.8695-2.1736-4.1453-4.0072-9.3016-7.9063-15.358-7.7441zm-2.8248 24.343c0.3235 0.659-0.7051 1.3142-1.02 1.8808-1.4484 1.6063-2.3367 4.2028-0.806 6.0575 1.8095 2.098 4.51 3.4573 7.2466 3.812 5.4466 0.457 11.231 0.0205 15.954-2.991 3.069-1.798 5.6275-4.3523 7.6353-7.2646 0.2017-0.2874 0.6815-0.4667 0.4357 0.097-0.5946 1.2209-1.0052 2.5199-0.7829 3.901 0.3008 4.7447 0.3757 9.7274 2.4582 14.098 1.3521 2.455 4.9478 3.8932 7.4266 2.273 0.274-0.341 1.1661-1.2695 0.9786-0.2162-0.3846 1.2506-2.2299 1.1636-2.3186 2.6138-2.0552 7.5231-3.7275 15.418-2.682 23.239 0.576 3.3396 2.0567 6.9459 5.1309 8.6957 1.8697 1.0691 4.002 0.2356 5.7426-0.6612 0.4777-0.3788 1.0323 0.1364 0.4144 0.4523-1.5874 1.3068-3.6729 1.3549-5.6205 1.3003-2.1387 0.2025-3.6896 2.0153-5.2084 3.3617-4.0995 4.0581-6.4949 9.7846-6.2446 15.573-0.0755 1.4318 0.122 3.0612-0.225 4.3746-2.1194-2.2393-3.8314-4.9259-6.3275-6.8384-3.5765-3.0908-8.5789-5.2616-13.312-3.7389-3.8623 1.2028-6.8982 4.103-9.4038 7.1668-3.354-3.2852-7.557-6.1164-12.321-6.694-3.7755-0.416-7.7353-0.1066-11.096 1.8154-3.4794 1.7568-6.4872 4.2957-9.2595 7.0059 0.0031-3.4613 0.1689-7.6974-2.7154-10.168-2.5337-1.9081-5.9526-0.83-8.6678 0.0627-0.39 0.2418-0.9005-0.1373-0.396-0.4203 0.9785-0.8014 2.671-0.5955 3.331-1.7488 0.6648-4.0742 1.2878-8.2162 1.1486-12.352-0.435-1.347-2.0004-2.1928-2.058-3.7176-0.2485-1.6028 1.7454-2.3157 3.0349-1.9974 1.1284-0.167 0.6729-1.7795 0.8177-2.5543-0.0524-1.7252 0.1379-3.5372-0.0852-5.2084-1.609-0.3654-3.869-1.145-4.0528-3.0644 0.4322-1.1764 0.6483-2.4193 0.4793-3.6893-0.097-0.9384 0.1618-2.3182-0.9842-2.698-2.1559-1.5425-3.8142-4.2767-2.8966-6.9686 0.8202-2.7826 3.2906-4.5933 4.6333-7.0824 2.085-2.9054 4.9917-5.096 8.1703-6.6904 0.8417-0.7918 0.8442-2.1118 1.6954-2.943 0.9608-1.3914 2.4837-2.2324 3.8427-3.1205 0.2515-1.429 0.6693-2.976 1.7138-4.0652 0.846-0.3626 0.2515 0.8654-0.0274 1.1375-1.2721 1.738-1.0437 4.3545 0.7586 5.6453 4.2109 3.3936 10.094 3.0014 15.048 1.8133 2.44-0.6124 4.952-1.3128 7.1455-2.4997-0.2766-2.1097 0.411-4.2279 1.8752-5.7692 0.4112-0.4288 0.7876-1.0658 1.3942-1.2153z" fill="#e7e7e7"/>
  <path d="m57.825 77.138c-5.0105 0.7708-9.96 2.5985-13.805 5.99-1.0787 0.989-2.4062 1.9982-3.0355 3.2686-0.3352 5.0665 1.3948 10.043 4.0448 14.296 0.6278-0.2577 0.077-1.4549 0.2783-2.0328-0.1244-3.6772 0.9078-8.0778 4.5695-9.7512 1.3254-0.6296 2.844-0.9406 4.3284-0.8573-0.0617-1.2106-0.8698-2.557-0.6984-3.9196 0.045-2.8839 2.2221-5.0794 4.3967-6.6768 0.158-0.0814 0.1261-0.3492-0.079-0.3174z" fill="#e7e7e7"/>
  <path d="m59.858 108.15c-3.0002 0.5395-5.9214 1.693-8.4008 3.4796-1.7031 1.3882-3.2635 3.1182-3.9636 5.238-0.345 1.3097-0.2674 2.7838 0.4853 3.9446 0.7466 1.1621 1.8079 2.1682 3.069 2.745 0.7518 0.093 1.5077-0.1346 2.2642-0.1454 2.144-0.208 4.2983-0.3154 6.4387-0.5457 0.4273-0.462 0.6064-1.1258 0.9026-1.6798 1.5812-3.4519 2.1146-7.6083 0.544-11.161-0.3227-0.6223-0.5955-1.32-1.0966-1.8181-0.0727-0.0434-0.1588-0.0603-0.2428-0.057zm-1.8872 2.3219c1.1505 0.0165 2.5102 0.4153 3.039 1.5338 0.3099 0.7642-0.0847 1.6455-0.791 2.0409-1.2976 0.854-3.0813 0.8102-4.4156 0.0533-0.7927-0.4384-1.2702-1.5265-0.7125-2.3294 0.6143-0.9401 1.8308-1.2933 2.8801-1.2986zm-5.4586 3.8382c0.8751-0.0204 1.621 0.8862 1.3591 1.742-0.1588 0.7251-0.9423 1.1652-1.655 1.0143-1.0843-0.0808-1.6226-1.648-0.7615-2.345 0.2853-0.2615 0.67-0.4135 1.0574-0.4113zm5.14 3.394c0.811-2e-3 1.4802 1.0085 0.9367 1.696-0.3984 0.6948-1.5629 0.6995-1.9537-0.015-0.5724-0.7048 0.1928-1.7462 1.017-1.681zm38.854-9.5018c-3.3983 0.2507-6.8418 1.0663-9.7196 2.958-1.9527 1.2916-3.8588 2.9834-4.5705 5.2884-0.6996 2.2806 0.2152 4.742 1.7224 6.4857 0.2416 0.299 0.5522 0.6755 0.9837 0.4838 4.069-0.7205 8.1992-1.0064 12.315-1.3537 0.3074-9e-3 0.666-0.0532 0.74-0.4158 0.8064-1.7058 1.4224-3.5593 1.3184-5.4706 0.0513-1.465-0.1142-2.942-0.6498-4.315-0.4741-1.243-0.996-2.5113-1.8374-3.5534-0.0791-0.0795-0.1874-0.1318-0.3022-0.1074zm-1.8223 1.6525c0.9983-0.0446 2.2191 0.4405 2.4197 1.542 0.2063 1.1937-0.867 2.1564-1.901 2.515-1.0759 0.36-2.4289 0.3924-3.3251-0.4006-0.7707-0.6634-0.6216-1.9085 0.0773-2.5686 0.6882-0.7556 1.7251-1.0968 2.7291-1.0878zm-5.995 5.0695c0.6621-0.041 1.1391 0.6762 0.9761 1.2938-0.0689 0.7086-0.9975 1.109-1.5572 0.6543-0.7327-0.4516-0.5055-1.7705 0.3537-1.9272 0.075-0.014 0.1512-0.021 0.2274-0.0209zm5.8916 2.2684c0.7044-0.0614 1.5453 0.4951 1.3935 1.2769-0.1758 1.232-1.8683 1.8288-2.8316 1.0833-0.6723-0.5405-0.3528-1.5947 0.3045-1.9985 0.3287-0.2335 0.7314-0.3567 1.1336-0.3617z"/>
  <path d="m98.492 108.15c-0.757-0.1504-0.6963 0.5659-0.2588 1.0021 1.3844 2.5833 2.1043 5.5162 1.6766 8.439-0.1143 1.4648-0.6234 2.8338-1.1123 4.2147 1.5421 0.3774 3.467-0.0233 5.1572 0.0532 4.606-0.1134 9.2125-0.2 13.82-0.2463 0.1532-1.5477 0.1587-3.3611-0.2324-4.9554-1.897-3.2833-5.4852-5.1626-8.8547-6.6235-3.2223-1.327-6.7347-1.7838-10.195-1.8838zm-35.386-0.3498c-0.5898 0.1376-1.676-0.2113-1.9939 0.4036 2.165 3.6831 2.1726 8.2385 0.6012 12.144-0.0437 0.6915-0.915 1.5258-0.5662 2.1489 3.472 0.4495 7.0292 0.1252 10.531 0.2463 3.1808 0.0762 6.4068-0.1735 9.4991 0.6687 0.975-0.0902 1.4231-1.4543 0.8017-2.1985-0.8737-1.9157-0.8279-4.1689-0.1455-6.0862-5.331-4.2398-11.765-7.4689-18.727-7.3266zm45.022 25.284c-4.8664 0.4997-9.6956 1.3496-14.594 1.5451-10.792 0.686-21.645 0.2218-32.4-0.6424-0.5224 0.4784 0.2095 1.4211 0.0132 2.041 0.2333 0.9577-0.4322 2.7348 1.091 2.582 5.997 0.6653 12.021 1.1505 18.06 0.9546 9.132 0.0323 18.321-0.2705 27.304-2.0305 1.6538-0.2928 2.8472-1.9757 2.932-3.5753-0.3158-0.9383-1.6171-0.8586-2.4057-0.8744z" fill="#e7e7e7"/>
  <path d="m107.25 138.41c-9.0076 1.3057-18.092 2.1251-27.204 1.9449-6.6232-0.078-13.239-0.5399-19.825-1.2248-0.3 1.064-0.4118 2.3526-0.5485 3.5002 1.1108 0.801 2.7139 0.671 4.0128 1.0486 7.186 1.231 14.477 1.8831 21.77 1.603 7.7078 0.0347 15.536-2.1215 21.887-6.546 0.191-0.0947 0.1542-0.371-0.0926-0.326z" fill="#e7e7e7"/>
  <path d="m113.94 128.19c-11.186 0.9133-22.384 1.9948-33.622 1.8935-8.7957-0.013-17.677 0.2967-26.336-1.489-1.1172-0.3087-2.8298-0.1183-2.9474 1.338 0.1877 1.9459 2.633 2.27 4.173 2.5018 12.464 1.9101 25.138 1.9914 37.713 1.5334 4.7979-0.1457 9.5523-0.9096 14.295-1.4852 1.288 0.0166 2.9598-0.2591 3.8483 0.8821 0.558 1.6771-0.9612 3.1255-1.5301 4.509-1.214 0.7528-2.1454 1.9779-3.488 2.5964-6.13 3.6706-13.278 5.4463-20.397 5.5454-9.093 0.1801-18.241-0.659-27.103-2.6707-2.2963-0.2825-4.3138-2.287-6.7003-1.6702-1.287 0.5632-0.3644 2.2025 0.2802 2.9333 2.3395 1.7372 5.3862 2.1248 8.1369 2.8755 6.7642 1.5467 13.718 2.2457 20.654 1.8474 8.9633-0.2544 17.889-2.2202 26.163-5.661 3.524-1.7058 6.481-4.7214 8.0472-8.315 0.7444-2.0792 1.1132-4.491 0.4169-6.6217-0.3064-0.5823-1.0356-0.5907-1.604-0.543z" fill="#b15128"/>
  <path d="m55.09 133.41c0.0392 2.5375-0.0295 5.114-0.1747 7.6192 0.8822 0.8039 2.1618 1.3594 3.369 1.4254 1.2483-0.375 0.8815-2.132 1.097-3.1076-0.0929-0.7065 0.244-1.0961 0.9042-1.096 0.4393-1.1624 0.0978-2.5577-0.012-3.7825-0.3083-1.1033-1.8785-0.6956-2.7051-1.0009-0.7909-0.0208-1.766-0.3733-2.4784-0.0576z" fill="#8f4222"/>
  <path d="m57.796 110.53c-1.328-0.059-3.41 0.9322-2.8432 2.5459 1.158 2.2097 5.1886 2.1857 6.1058-0.1965 0.2453-1.6856-1.944-2.437-3.2627-2.3494zm-5.3346 3.6828c-1.0205-0.0202-1.8505 1.0895-1.4064 2.0525 0.4229 1.2396 2.3922 1.2236 2.8461 0.0143 0.4604-0.9661-0.4231-2.0899-1.4397-2.0668zm5.1378 3.3514c-0.8737 0.0256-1.7268 1.1174-1.0634 1.889 0.4346 0.7318 1.5371 0.8097 2.0506 0.1264 0.5026-0.4847 0.401-1.3042-0.1745-1.687-0.222-0.1987-0.5046-0.3584-0.8127-0.3284zm36.833-7.6879c-1.4353-0.0139-3.1655 1.0053-3.0285 2.6159 0.1823 1.2866 1.7044 1.8147 2.8479 1.6266 1.3293-0.108 2.9491-1.043 2.8534-2.5535-0.1598-1.2488-1.5557-1.7952-2.6728-1.689zm0.0915 7.2151c-1.0646-7e-3 -2.1567 1.0239-1.7381 2.1283 0.758 1.397 3.248 0.6863 3.2982-0.8592 0.0088-0.8237-0.7942-1.3432-1.5601-1.2691zm-5.8788-2.2958c-0.7267 0.0764-1.2913 0.809-1.042 1.5348 0.1285 0.7128 1.0952 1.1588 1.6828 0.667 0.758-0.4225 0.6981-1.7527-0.138-2.067-0.1554-0.0768-0.3261-0.1454-0.5028-0.1348z" fill="#e8e8e8"/>
 </g>
</svg>
