<?xml version="1.0" encoding="UTF-8"?><svg clip-rule="evenodd" fill-rule="evenodd" stroke-linejoin="round" stroke-miterlimit="2" xmlns="http://www.w3.org/2000/svg" viewBox="0 0 156.71 156.71"><circle cx="120" cy="120" r="120" fill="#5cbff2" stroke="#000" stroke-width="7.91" transform="translate(2.5 2.5) scale(.63211)"/><g fill-rule="nonzero"><path d="M65.02138 111.97015c-2.45764 0-2.03982-.92794-2.88748-3.268l-7.22628-23.78188L110.5333 51.9197" fill="#c8daea"/><path d="M65.02138 111.97015c1.89633 0 2.73388-.86725 3.79266-1.89633l10.11376-9.83437-12.61565-7.60744" fill="#a9c9dd"/><path d="M100.04 144.41l48.36 35.729c5.519 3.045 9.501 1.468 10.876-5.123l19.685-92.763c2.015-8.08-3.08-11.746-8.36-9.349l-115.59 44.571c-7.89 3.165-7.843 7.567-1.438 9.528l29.663 9.259 68.673-43.325c3.242-1.966 6.218-.91 3.776 1.258" fill="url(#_Linear1)" transform="translate(3.0746 1.3509) scale(.63211)"/></g><defs><linearGradient id="_Linear1" x2="1" gradientTransform="scale(47.086) rotate(58.04 -.86315 3.85916)" gradientUnits="userSpaceOnUse"><stop stop-color="#eff7fc" offset="0"/><stop stop-color="#fff" offset="1"/></linearGradient></defs></svg>