<?xml version="1.0" encoding="UTF-8"?><svg clip-rule="evenodd" fill-rule="evenodd" stroke-linejoin="round" stroke-miterlimit="2" xmlns="http://www.w3.org/2000/svg" viewBox="0 0 163.37 133.52"><path d="M52.11972 131.519c60.1436 0 93.0338-49.82625 93.0338-93.03382 0-1.41561-.02887-2.82427-.09251-4.22706 6.38444-4.61532 11.93352-10.37458 16.31033-16.93123-5.85874 2.60394-12.1635 4.35702-18.77736 5.14745 6.75078-4.0479 11.93352-10.4516 14.37863-18.08533-6.3176 3.7452-13.31438 6.46734-20.76308 7.93643-5.96676-6.35556-14.46152-10.3302-23.86759-10.3302-18.05698 0-32.6998 14.64283-32.6998 32.6934 0 2.56597.28665 5.06188.84765 7.45565-27.17586-1.36749-51.27341-14.37864-67.3955-34.16303-2.80823 4.83192-4.4276 10.44518-4.4276 16.4344 0 11.34418 5.77263 21.35885 14.55083 27.21758-5.36458-.16579-10.404-1.63863-14.80914-4.08961-.00482.13744-.00482.27114-.00482.41768 0 15.83489 11.27091 29.05675 26.23301 32.0527-2.7478.74925-5.63893 1.15089-8.62204 1.15089-2.1039 0-4.15326-.20697-6.14539-.58989 4.16235 12.9919 16.23332 22.4461 30.5451 22.71082-11.19122 8.77179-25.28908 13.99572-40.6111 13.99572-2.63603 0-5.24051-.14975-7.80006-.45244 14.47115 9.27557 31.6548 14.68774 50.12252 14.68774" fill="#5cbff2" fill-rule="nonzero" stroke="#000" stroke-width="4.000304000000001"/></svg>