<?xml version="1.0" encoding="UTF-8"?>
<svg width="299" height="243.19" clip-rule="evenodd" fill-rule="evenodd" stroke-linejoin="round" stroke-miterlimit="2" version="1.1" viewBox="0 0 299 243.19" xml:space="preserve" xmlns="http://www.w3.org/2000/svg" xmlns:cc="http://creativecommons.org/ns#" xmlns:dc="http://purl.org/dc/elements/1.1/" xmlns:rdf="http://www.w3.org/1999/02/22-rdf-syntax-ns#"><metadata><rdf:RDF><cc:Work rdf:about=""><dc:format>image/svg+xml</dc:format><dc:type rdf:resource="http://purl.org/dc/dcmitype/StillImage"/><dc:title/></cc:Work></rdf:RDF></metadata>
    <g transform="translate(-539.68 -569.36)">
        <path d="m633.9 812.04c112.46 0 173.96-93.168 173.96-173.96 0-2.647-0.054-5.281-0.173-7.904 11.938-8.63 22.314-19.399 30.498-31.659-10.955 4.869-22.744 8.147-35.111 9.625 12.623-7.569 22.314-19.543 26.886-33.817-11.813 7.003-24.896 12.093-38.824 14.84-11.157-11.884-27.041-19.316-44.629-19.316-33.764 0-61.144 27.38-61.144 61.132 0 4.798 0.536 9.465 1.585 13.941-50.815-2.557-95.874-26.886-126.02-63.88-5.251 9.035-8.279 19.531-8.279 30.73 0 21.212 10.794 39.938 27.208 50.893-10.031-0.31-19.454-3.064-27.691-7.647-9e-3 0.257-9e-3 0.507-9e-3 0.781 0 29.609 21.075 54.332 49.052 59.934-5.138 1.401-10.544 2.152-16.122 2.152-3.934 0-7.766-0.387-11.491-1.103 7.783 24.293 30.354 41.971 57.115 42.466-20.926 16.402-47.287 26.17-75.937 26.17-4.929 0-9.799-0.28-14.585-0.846 27.059 17.344 59.19 27.464 93.722 27.464" fill="#5cbff2" fill-rule="nonzero" stroke="#b1e4fe" stroke-width="1px"/>
    </g>
</svg>
