<?xml version="1.0" encoding="UTF-8"?>
<svg width="543.96" height="198.12" version="1.1" viewBox="0 0 543.96 198.12" xmlns="http://www.w3.org/2000/svg" xmlns:cc="http://creativecommons.org/ns#" xmlns:dc="http://purl.org/dc/elements/1.1/" xmlns:rdf="http://www.w3.org/1999/02/22-rdf-syntax-ns#">
 <metadata>
  <rdf:RDF>
   <cc:Work rdf:about="">
    <dc:format>image/svg+xml</dc:format>
    <dc:type rdf:resource="http://purl.org/dc/dcmitype/StillImage"/>
    <dc:title/>
   </cc:Work>
  </rdf:RDF>
 </metadata>
 <defs>
  <style>.cls-1{fill:#fff;stroke-miterlimit:10;}.cls-1,.cls-2{stroke:#000;}</style>
 </defs>
 <g transform="translate(-.0051352 -.00089109)" data-name="Layer 2">
  <g data-name="Layer 1">
   <path class="cls-1" d="m147.83 147a4.05 4.05 0 0 1-0.71 0.44 3.23 3.23 0 0 1 2.35 2.12 5.23 5.23 0 0 1-3.78 6.62 6.56 6.56 0 0 1-3.39-0.18 9 9 0 0 1 0.48 1.77 10.09 10.09 0 0 1-0.37 4.57c-1.29 3.69-3.62 6-7 6.92a8.31 8.31 0 0 1-4.8-0.26 8.62 8.62 0 0 1-4-2.81 11.12 11.12 0 0 1-2.19-4.94 7.58 7.58 0 0 1-1.7 1.09 7 7 0 0 1-6.6-0.12c-4.06-1.73-6.22-5-6.5-10a9.87 9.87 0 0 1-5.6-0.53l0.32 0.37a14.25 14.25 0 0 1 1.75 4.68 8.13 8.13 0 0 1-1 6 7.69 7.69 0 0 1 3.23 1.13 11.63 11.63 0 0 1 4.61 6.13 8 8 0 0 1-0.48 6.66 4.65 4.65 0 0 1-2.84 2.56l0.79 0.63a8.93 8.93 0 0 1 1.45 1.38 7.24 7.24 0 0 1 2.17 3.39q0.51 3.32-2.35 6.57a7.79 7.79 0 0 1-5.63 2.93 8.76 8.76 0 0 1-6.09-1.8 8.58 8.58 0 0 1-5.49 4.71 9.54 9.54 0 0 1-7.42-0.46 11.22 11.22 0 0 1-4.66-4.32 8.9 8.9 0 0 1-1.5-6 1.64 1.64 0 0 1-1 0.42 6 6 0 0 1-5.83-0.78 7.53 7.53 0 0 1-3.14-5 1 1 0 0 0-0.07-0.6c-1.41 1.11-2.93 1.07-4.59-0.13a4.19 4.19 0 0 1-1.66-4.09 12.28 12.28 0 0 1-6.57 0.77 15.38 15.38 0 0 1-6.27-2.17 13.61 13.61 0 0 1-5.17-7 14.65 14.65 0 0 1-0.81-4.61 6.33 6.33 0 0 1-2.53 1.38 8.3 8.3 0 0 1-6.18-0.92 9.75 9.75 0 0 1-4.06-4.52 7.66 7.66 0 0 1-0.78-2.88 0.37 0.37 0 0 1-0.09-0.35v-0.48a4.37 4.37 0 0 1-1.45 0.88 4.09 4.09 0 0 1-3.86-0.58 4.69 4.69 0 0 1-2.07-3 9.24 9.24 0 0 1-3 1.13 10.93 10.93 0 0 1-7.33-1.46 13 13 0 0 1-5.74-6.26 9 9 0 0 1-1-5.58 0.37 0.37 0 0 1-0.25 0.09 0.29 0.29 0 0 0-0.23 0.12 6.5 6.5 0 0 1-1.53-0.21 13.81 13.81 0 0 1-2.38-1.42 7.74 7.74 0 0 1-2.59-4.1 6 6 0 0 1 1-5.11 7.9 7.9 0 0 1 5.14-3.74 5.7 5.7 0 0 1 3-0.18 1.45 1.45 0 0 0 0.69 0.27v-0.71-0.46a10.93 10.93 0 0 1 3.27-6 7.61 7.61 0 0 1 5.79-3 6.75 6.75 0 0 1 5.63 2.56 8.73 8.73 0 0 1 1.61 3 8.23 8.23 0 0 1 0.14 1.4 9.57 9.57 0 0 1 4.82-2.07 11.84 11.84 0 0 1 7.86 0.53 11.17 11.17 0 0 1 6.07 5.28 9.68 9.68 0 0 1 1 4.4 7.26 7.26 0 0 1 1-0.41 4.87 4.87 0 0 1 5.35 1 5.5 5.5 0 0 1 2.24 4.24 3.69 3.69 0 0 1 1.34-0.53 11.1 11.1 0 0 1 3.32-0.5 12 12 0 0 1 6.6 1.63 10.74 10.74 0 0 1 5.71 9.37 12.15 12.15 0 0 1 4-1.32 8 8 0 0 1-1.6-3.55 9.73 9.73 0 0 1 0.58-6.32 7.46 7.46 0 0 1-7-3.55 7.59 7.59 0 0 1-1.26-2.13 8.34 8.34 0 0 1 0.09-5.88 9.75 9.75 0 0 1 3.9-4.85 7.54 7.54 0 0 1 6.2-1.77 10.9 10.9 0 0 1 2.31 1.06 5.82 5.82 0 0 1 1.91-2.84 6.11 6.11 0 0 1 5.35-1.22 7.57 7.57 0 0 1 4.8 2.84 9.1 9.1 0 0 1 1.71 4.66 6.3 6.3 0 0 1 3.2-0.19l0.1 0.14a10.76 10.76 0 0 1-1.41-4.08 8.39 8.39 0 0 1 0.76-5.6l1.32-2.27a5.06 5.06 0 0 1 0.48-0.43 8.53 8.53 0 0 1-3.72-1.41 12.47 12.47 0 0 1-4.63-5.16 12.7 12.7 0 0 1-1.37-6.81 9.53 9.53 0 0 1 0.87-3.25v-0.23l0.13-0.11a10.06 10.06 0 0 1 0.53-1.39 4.66 4.66 0 0 1-2.07-0.34 13 13 0 0 1-3-1.57 11.3 11.3 0 0 1-3.69-5.84 13 13 0 0 1 0.1-6 7.59 7.59 0 0 1 3-4.77 11.89 11.89 0 0 1-3-2.4c-2.19-2.63-2.72-5.38-1.54-8.21a8.36 8.36 0 0 1 6.67-5.39 6.21 6.21 0 0 1 3.85 0.81 5.68 5.68 0 0 1 1.56 1.27 0.6 0.6 0 0 1 0.21 0.46 9.46 9.46 0 0 1 4.13-6.6c2.93-1.87 6.25-1.89 10 0a11.75 11.75 0 0 1 6.66 9.37 13.89 13.89 0 0 1-0.51 5.14 5.86 5.86 0 0 1-0.55 1.38 5.27 5.27 0 0 1 4.59 2.36 6.29 6.29 0 0 1 1.13 3v1.52a0.29 0.29 0 0 0-0.14 0.23 0.35 0.35 0 0 1-0.11 0.23 10.44 10.44 0 0 1 6.43 2.7 11.92 11.92 0 0 1 4.75 6.98 7.87 7.87 0 0 1-2.28 7.4 11.37 11.37 0 0 1-1.84 1.43 4.84 4.84 0 0 1 1.86 1.63 8.09 8.09 0 0 1 0.67 2.74 3.13 3.13 0 0 1-0.07 1.18 9.66 9.66 0 0 1 5.9 4.08 11.47 11.47 0 0 1 1.82 7.27 12.69 12.69 0 0 1-2.51 5.39 9.71 9.71 0 0 1 7.36 7.45c0.62 2.86 0.5 5.21-0.4 7a5.78 5.78 0 0 1 1.09-0.3 6.49 6.49 0 0 1 3.62 0.33 11 11 0 0 1 5.9 4.08 10.72 10.72 0 0 1 2.22 6.71 7.65 7.65 0 0 1-0.9 3.48 12 12 0 0 1-2.61 2.59z"/>
   <path class="cls-1" d="m244.13 73.77a8.63 8.63 0 0 0-4.06-3.37 10.82 10.82 0 0 0 2.36-5.92 16.41 16.41 0 0 0-1.53-9.07 11.41 11.41 0 0 0-6.2-6.11 8.6 8.6 0 0 0-4.43-0.9 5 5 0 0 0 0.51-1.2 13.1 13.1 0 0 0-0.11-9.52 14.24 14.24 0 0 0-5.67-7.82 10.64 10.64 0 0 0-7.4-2.1 6 6 0 0 0-0.85-4.24 7 7 0 0 0-3.42-2.95 9.29 9.29 0 0 0-5.92-0.12 11.72 11.72 0 0 0-3.53 2.13 8.52 8.52 0 0 0-0.51-4.55 10.88 10.88 0 0 0-7.54-6 15.56 15.56 0 0 0-10 0.6 14 14 0 0 0-7.75 6.18 12 12 0 0 0-7.24-1.29 12.93 12.93 0 0 0-6.84 2.91 11.74 11.74 0 0 0-3.55 5.49 10.67 10.67 0 0 0-0.14 6.39 6 6 0 0 0-2.26-0.53 5.34 5.34 0 0 0-4.59 2.6 6.27 6.27 0 0 0-1 5.33 5.63 5.63 0 0 0 1.27 3.09l1.08 0.69a12.67 12.67 0 0 0-6 4.64 17.75 17.75 0 0 0-4.1 9.38 16.8 16.8 0 0 0 1.36 9.64 17.15 17.15 0 0 0 6.27 7.47c-3.55 3.16-4.45 8.47-2.65 15.92a11.86 11.86 0 0 0 4.38 7 16.76 16.76 0 0 0 8 3.32q-3.15 9.1 2.51 15.2a10.1 10.1 0 0 0 7.26 3.35c0 0.11 0.14 0.13 0.3 0.09a1.57 1.57 0 0 1 0.49-0.07 1.79 1.79 0 0 0 0.58-0.09 9.15 9.15 0 0 0 0.25 6 10.62 10.62 0 0 0 6.09 6.32 9.51 9.51 0 0 0 8.41-0.3 8.93 8.93 0 0 0 4.55-4.5h0.14c0.78 2.19 2.79 3.64 6 4.33a18.67 18.67 0 0 0 8.67 0c3.46-0.81 5.72-2.54 6.78-5.17a10.54 10.54 0 0 0 0.65-3 6.74 6.74 0 0 0 1.18 1 4.69 4.69 0 0 0 4.1-0.21 6 6 0 0 0 2.52-3.18 5.5 5.5 0 0 0 0.29-1.85 10.18 10.18 0 0 0 4.87 1.13 16.72 16.72 0 0 0 11.19-3.73q4.27-3 4.24-8.93a8.92 8.92 0 0 0-1-4.91 8.3 8.3 0 0 0-2.14-3 7.56 7.56 0 0 0 4.26-6q0.55-4.5-2.28-6.94a5.75 5.75 0 0 0 2.37-1.94 8.53 8.53 0 0 0 1.39-2.84 9.17 9.17 0 0 0 0.34-2.88 11 11 0 0 0-1.95-4.97zm-33 16.7a17.83 17.83 0 0 0-2.19 1.36 13.79 13.79 0 0 0-3.41 3.64 8.5 8.5 0 0 0-1.18 3 26.17 26.17 0 0 0-1.25-2.4 12 12 0 0 0-6.34-4.84 10.23 10.23 0 0 0-7.72 0.26 1.66 1.66 0 0 0-0.51 0.27 18 18 0 0 0 2.75-11.76 16.47 16.47 0 0 0-3-8.81 7 7 0 0 0-3.9-3.14 12.76 12.76 0 0 0 2.28-3.3 11.38 11.38 0 0 0 0.63-7.12 9 9 0 0 0-2.29-4.63 8.73 8.73 0 0 0 2.22-0.7 15 15 0 0 0 2.78-2.12 9.75 9.75 0 0 0 0.14 3.27 12.67 12.67 0 0 0 3.9 7.13 11.78 11.78 0 0 0 11.96 2.81 10.62 10.62 0 0 0 0.28 9.46 10.19 10.19 0 0 0 6.42 5.15 7.49 7.49 0 0 0-3.37 6 8.19 8.19 0 0 0 1.78 6.47z"/>
   <path class="cls-1" d="m348.32 71a16.56 16.56 0 0 0 1.92-9 11.53 11.53 0 0 0-3.53-8 8.76 8.76 0 0 0-3.78-2.46 4.88 4.88 0 0 0 0.89-0.93 12.86 12.86 0 0 0 3.39-8.87 14.13 14.13 0 0 0-2.39-9.37 10.74 10.74 0 0 0-6.11-4.68 5.93 5.93 0 0 0 0.76-4.26 7 7 0 0 0-2.08-4 9.24 9.24 0 0 0-5.49-2.29 11.56 11.56 0 0 0-4 0.67 8.62 8.62 0 0 0 1.1-4.41 10.86 10.86 0 0 0-4.75-8.4 15.51 15.51 0 0 0-9.5-3.11 14 14 0 0 0-9.48 2.91 11.8 11.8 0 0 0-6.27-3.86 12.74 12.74 0 0 0-7.42 0.24 11.66 11.66 0 0 0-5.3 3.8 10.59 10.59 0 0 0-2.5 5.88 6.46 6.46 0 0 0-1.89-1.34 5.4 5.4 0 0 0-5.23 0.74 6.38 6.38 0 0 0-2.86 4.61 5.58 5.58 0 0 0 0 3.32l0.76 1.07a12.93 12.93 0 0 0-7.34 2.07 18.06 18.06 0 0 0-7.22 7.24 16.7 16.7 0 0 0-2.28 9.48 17.25 17.25 0 0 0 3.09 9.25c-4.48 1.63-7.24 6.22-8.31 13.81a11.93 11.93 0 0 0 1.5 8.12 17.17 17.17 0 0 0 6.18 6q-6.26 7.34-3.23 15.06a10 10 0 0 0 5.52 5.79c0 0.12 0.07 0.18 0.23 0.18a4.54 4.54 0 0 1 0.5 0.12 1.44 1.44 0 0 0 0.56 0.14 9.08 9.08 0 0 0-2 5.67 10.55 10.55 0 0 0 3.34 8.1 9.5 9.5 0 0 0 7.93 2.81 7.55 7.55 0 0 0 4.09-1.15 6.87 6.87 0 0 0 1.77-1.36h0.19c-0.1 2.33 1.24 4.4 4 6.23a18.85 18.85 0 0 0 8.07 3.25c3.51 0.5 6.25-0.28 8.19-2.33a10.13 10.13 0 0 0 1.71-2.52 4.86 4.86 0 0 0 0.71 1.39 4.58 4.58 0 0 0 3.9 1.31 5.77 5.77 0 0 0 3.5-2.05 5.65 5.65 0 0 0 0.95-1.57 10.5 10.5 0 0 0 4.1 2.81 16.66 16.66 0 0 0 11.79 0.65c3.39-0.83 5.81-3.09 7.22-6.73a9 9 0 0 0 0.9-4.94 7.94 7.94 0 0 0-0.88-3.57 7.66 7.66 0 0 0 6.16-4c1.45-2.65 1.59-5.1 0.44-7.29a5.82 5.82 0 0 0 2.9-0.92 8.6 8.6 0 0 0 2.33-2.15 9.57 9.57 0 0 0 1.38-2.56 10.66 10.66 0 0 0 0-5.42 8.44 8.44 0 0 0-2.54-4.61 10.94 10.94 0 0 0 4.41-4.57zm-38 6a8.18 8.18 0 0 0-0.71 6.62 17 17 0 0 0-2.52 0.44 14.2 14.2 0 0 0-4.52 2.14 8.92 8.92 0 0 0-2.19 2.33 16.49 16.49 0 0 0-0.28-2.7 11.7 11.7 0 0 0-4.1-6.83 10.27 10.27 0 0 0-7.29-2.61 1.08 1.08 0 0 0-0.67 0.11 17.67 17.67 0 0 0 7-9.93 16.17 16.17 0 0 0 0.44-9.3 7 7 0 0 0-2.48-4.35 13.08 13.08 0 0 0 3.34-2.21 11.54 11.54 0 0 0 3.19-6.41 9.15 9.15 0 0 0-0.4-5.19 8.58 8.58 0 0 0 2.31 0.18 17.4 17.4 0 0 0 3.41-0.89 9.47 9.47 0 0 0-1.08 3.09 12.61 12.61 0 0 0 1 8.07 11.8 11.8 0 0 0 10.1 7 10.56 10.56 0 0 0-3.23 8.91 10.08 10.08 0 0 0 4.08 7.17 7.44 7.44 0 0 0-5.38 4.36z"/>
   <path class="cls-1" d="m429.59 133.15c0.25 2.08-0.72 3.88-2.93 5.42a7.57 7.57 0 0 1-2.56 1.18 2.09 2.09 0 0 0-0.44 0.16 0.52 0.52 0 0 1-0.39 0 2.09 2.09 0 0 1 0.55 0.81 7 7 0 0 1-0.83 6.78 9.59 9.59 0 0 1-6.13 4.05 8.2 8.2 0 0 1-5.07-0.18 6.76 6.76 0 0 1-5.93 4 19.94 19.94 0 0 1-10.08-2.37 18.56 18.56 0 0 1-7.56-6.89 14 14 0 0 1-1.73-4.5 7.63 7.63 0 0 1-3.65 2.24 5.73 5.73 0 0 1-4-0.37 5.18 5.18 0 0 1-2.93-3.3 7.63 7.63 0 0 1 0-4.49 15.45 15.45 0 0 1-4.43 1.56 15.81 15.81 0 0 1-8.42-0.85 14.46 14.46 0 0 1-5.6-3.67c-1.64-1.7-2.28-3.43-1.94-5.23a7.61 7.61 0 0 1-3.52 1.27 6.72 6.72 0 0 1-6.46-3.44 6.62 6.62 0 0 1-0.88-6.27 7.75 7.75 0 0 1 4-5.44 11.36 11.36 0 0 1 2.35-1.09c-1.15-2.76-1-5.14 0.44-7.15a8.19 8.19 0 0 1 5.05-3.29 24.77 24.77 0 0 1-0.58-13.52c1-4.42 4.11-8.46 9.39-12.08q-3.12-6.61-0.56-12a12.47 12.47 0 0 1 9.57-7 5.94 5.94 0 0 1 0.23-6.32 5.58 5.58 0 0 1 5.38-2.42 7.07 7.07 0 0 1-1-5.26 7.31 7.31 0 0 1 4.75-6.2c-0.9-1.15-1.48-1.91-1.69-2.26a8.17 8.17 0 0 1-0.6-4.15 8.31 8.31 0 0 1 4.39-6.92 8.44 8.44 0 0 1 8.3-0.85c2.28 0.85 3.71 2.12 4.24 3.85a9.31 9.31 0 0 1 6-2.22 11.34 11.34 0 0 1 6.45 1.5 7 7 0 0 1 3.79 6.76 8.38 8.38 0 0 1-1.11 3.87 6 6 0 0 1-1.22 1.83 4 4 0 0 1-0.42 0.53q3 1 4.5 5.6a15.72 15.72 0 0 1 0.41 9.2 17.91 17.91 0 0 1-3.41 6.64 14.14 14.14 0 0 1-5.93 4.57 9.54 9.54 0 0 1 1.78 4.76 13.15 13.15 0 0 1-1 7.08q-2.54 6.51-9.94 8.14a8.16 8.16 0 0 1 0.16 7.43 8.68 8.68 0 0 1-6.07 4.66 9.24 9.24 0 0 1-1.7 9.48 8 8 0 0 1-4.18 3 4.28 4.28 0 0 1 1.53 1.46 4.83 4.83 0 0 1 0.85 2.42 1.49 1.49 0 0 1 0 0.53 7.11 7.11 0 0 1 6.23-0.37c3.18 1.27 5 3.76 5.28 7.47a14.87 14.87 0 0 1 11.85-1.38 12.35 12.35 0 0 1 5.83 4.28 7.49 7.49 0 0 1 1.16 5 5.64 5.64 0 0 1 1-0.62 7.22 7.22 0 0 1 6 0.09 5.45 5.45 0 0 1 3.43 4.48z"/>
   <path class="cls-1" d="m543.46 128.91a5.45 5.45 0 0 1-1 3.46 4.82 4.82 0 0 1-3.09 2 11.14 11.14 0 0 1-4-0.53 0.83 0.83 0 0 0-0.41-0.13 0.94 0.94 0 0 1-0.42-0.17c0.26 0.53 0.42 0.93 0.51 1.16a7.5 7.5 0 0 1-1.45 7 11.83 11.83 0 0 1-6.37 4.76 15.55 15.55 0 0 1-8-0.12 12.71 12.71 0 0 1-3.11-1.5l0.11 0.12a6 6 0 0 1-2.72 4.93 9.7 9.7 0 0 1-5 1.92 7.8 7.8 0 0 1-5-1 9.4 9.4 0 0 1-4.48 5.6 9 9 0 0 1-7 1 9.58 9.58 0 0 1-6.94-5.21 1.46 1.46 0 0 1-0.26-0.46 5.8 5.8 0 0 1-0.21-0.63 0.88 0.88 0 0 0-0.32-0.53 0.9 0.9 0 0 1-0.21 0.49 4.21 4.21 0 0 1-3.11 1.43 3.47 3.47 0 0 1-2.86-0.81 0.46 0.46 0 0 0-0.34-0.12q0.3 4.37-3 8.95a13.51 13.51 0 0 1-4.79 4.41 10.35 10.35 0 0 1-5.88 1.36 7.56 7.56 0 0 1-0.67 5.67 14.61 14.61 0 0 1-6.53 6.87c-3.06 1.71-5.92 2.08-8.65 1.09a6.76 6.76 0 0 1-2.39-1.06c-0.28 0.78-0.49 1.33-0.63 1.66a8.9 8.9 0 0 1-5.55 4.61 6.16 6.16 0 0 1-6.23-2.33 6.32 6.32 0 0 1-1.66-6 7.35 7.35 0 0 1 0.62-1.91 7.7 7.7 0 0 1-2.95 0 10.5 10.5 0 0 1-4.24-2 6.55 6.55 0 0 1-2.59-3.8 9.79 9.79 0 0 1 2.47-8c2.08-2.52 4.5-3.56 7.27-3.14q-2.94-7.6 2.14-12.43a10.49 10.49 0 0 1 7.17-2.91 11.5 11.5 0 0 1 1.52 0 7.48 7.48 0 0 1-0.13-4.29 8.49 8.49 0 0 1 1.89-3.78 7.41 7.41 0 0 1 7.43-2.54 4.26 4.26 0 0 1-0.86-1 11.18 11.18 0 0 1-0.81-2.32 7.48 7.48 0 0 1 0.51-4.48 7.73 7.73 0 0 1 4.5-4.43 2.35 2.35 0 0 1-0.85-0.55 6.21 6.21 0 0 1-1.73-4.75 6.33 6.33 0 0 1 4.88-6.32 11.36 11.36 0 0 1-4-5.88 13.21 13.21 0 0 1-0.26-7.22 15.5 15.5 0 0 1 5.22-7.65 13.08 13.08 0 0 1 3.88-2.51c0.09-0.1 0.16-0.14 0.23-0.14a8.83 8.83 0 0 1-3.76-3.88 9.3 9.3 0 0 1-1-5.78 9.81 9.81 0 0 1 3.83-6.62 6.8 6.8 0 0 1 5.33-1.66 5.49 5.49 0 0 1 1.18-5.45q2.2-2.94 6.36-2.28a5.58 5.58 0 0 1 5 4.59 8 8 0 0 1-0.21 3.41 2.34 2.34 0 0 1-0.32 0.6 7.36 7.36 0 0 1 3 0.95 6.56 6.56 0 0 1 3.58 3.94 1.47 1.47 0 0 0 0.14 0.58c2.09-0.79 4.35-0.44 6.8 1.06a11 11 0 0 1 4.89 5.37 7.83 7.83 0 0 1-0.63 7.31 7.6 7.6 0 0 1-2.92 3 10.56 10.56 0 0 1-2.66 0.7c1.32 1.82 1.71 4.26 1.13 7.35a10.82 10.82 0 0 1-2.49 4.71 7.47 7.47 0 0 1-2.63 1.63 7.31 7.31 0 0 1-3.34 12 9.39 9.39 0 0 1 1.08 6.18 9.27 9.27 0 0 1-1.1 3.69 20.67 20.67 0 0 1 2.33-0.35 13.6 13.6 0 0 1 5.78 0.81 10.48 10.48 0 0 1 1.57 0.76 15.15 15.15 0 0 1-0.37-3 9.15 9.15 0 0 1 2.86-7.06 10.07 10.07 0 0 1 7.27-3 7.6 7.6 0 0 1 4.75 1.2 4.75 4.75 0 0 0 0.21-1 8.6 8.6 0 0 1 4.24-4.89 8.71 8.71 0 0 1 5.63-0.48 9.08 9.08 0 0 1 4.93 3 5.81 5.81 0 0 1 4.57-1.57 7.67 7.67 0 0 1 4.86 2.1 6.65 6.65 0 0 1 2.35 5.54 6 6 0 0 1-0.57 2.83l-0.23 0.26a8.19 8.19 0 0 1 5.88 2.33 8 8 0 0 1 3.03 5.28z"/>
   <path class="cls-2" d="m150.44 144.45a7.65 7.65 0 0 0 0.9-3.48 10.72 10.72 0 0 0-2.22-6.71 11 11 0 0 0-5.9-4.08 6.49 6.49 0 0 0-3.62-0.33 5.78 5.78 0 0 0-1.09 0.3c0.9-1.82 1-4.17 0.4-7a9.71 9.71 0 0 0-7.36-7.45 12.69 12.69 0 0 0 2.51-5.39 11.47 11.47 0 0 0-1.82-7.27 9.66 9.66 0 0 0-5.9-4.08 3.13 3.13 0 0 0 0.07-1.18 8.09 8.09 0 0 0-0.67-2.74 4.84 4.84 0 0 0-1.91-1.64 11.37 11.37 0 0 0 1.84-1.43 7.87 7.87 0 0 0 2.28-7.4 11.92 11.92 0 0 0-4.68-6.94 10.44 10.44 0 0 0-6.43-2.7 0.35 0.35 0 0 0 0.11-0.23 0.29 0.29 0 0 1 0.14-0.23v-1.52a6.29 6.29 0 0 0-1.13-3 5.27 5.27 0 0 0-4.59-2.36 5.86 5.86 0 0 0 0.55-1.38 13.89 13.89 0 0 0 0.51-5.14 11.75 11.75 0 0 0-6.66-9.41c-3.74-1.87-7.06-1.85-10 0a9.46 9.46 0 0 0-4.13 6.6 0.6 0.6 0 0 0-0.21-0.46 5.68 5.68 0 0 0-1.56-1.27 6.21 6.21 0 0 0-3.87-0.84 8.36 8.36 0 0 0-6.76 5.4c-1.18 2.83-0.65 5.58 1.54 8.21a11.89 11.89 0 0 0 3 2.4 7.59 7.59 0 0 0-3 4.77 13 13 0 0 0-0.1 6 11.3 11.3 0 0 0 3.69 5.84 13 13 0 0 0 3 1.57 4.66 4.66 0 0 0 2.07 0.34 10.06 10.06 0 0 0-0.44 1.38l-0.14 0.11v0.23a9.53 9.53 0 0 0-0.86 3.25 12.7 12.7 0 0 0 1.37 6.81 12.47 12.47 0 0 0 4.63 5.16 8.53 8.53 0 0 0 3.69 1.39 5.06 5.06 0 0 0-0.48 0.43l-1.32 2.29a8.39 8.39 0 0 0-0.76 5.6 10.76 10.76 0 0 0 1.44 4.13l-0.1-0.14a6.3 6.3 0 0 0-3.2 0.19 9.1 9.1 0 0 0-1.73-4.68 7.57 7.57 0 0 0-4.8-2.84 6.11 6.11 0 0 0-5.35 1.22 5.82 5.82 0 0 0-1.91 2.84 10.9 10.9 0 0 0-2.31-1.06 7.54 7.54 0 0 0-6.2 1.77 9.75 9.75 0 0 0-3.9 4.85 8.34 8.34 0 0 0-0.07 5.85 7.59 7.59 0 0 0 1.29 2.19 7.46 7.46 0 0 0 7 3.55 9.73 9.73 0 0 0-0.58 6.32 8 8 0 0 0 1.57 3.48 12.15 12.15 0 0 0-4 1.32 10.74 10.74 0 0 0-5.71-9.37 12 12 0 0 0-6.6-1.63 11.1 11.1 0 0 0-3.32 0.5 3.69 3.69 0 0 0-1.34 0.53 5.5 5.5 0 0 0-2.24-4.24 4.87 4.87 0 0 0-5.35-1 7.26 7.26 0 0 0-1 0.41 9.68 9.68 0 0 0-1-4.4 11.17 11.17 0 0 0-6.07-5.28 11.84 11.84 0 0 0-7.86-0.53 9.57 9.57 0 0 0-4.79 2.06 8.23 8.23 0 0 0-0.14-1.4 8.73 8.73 0 0 0-1.61-3 6.75 6.75 0 0 0-5.63-2.56 7.61 7.61 0 0 0-5.79 3 10.93 10.93 0 0 0-3.27 6v0.46 0.71a1.45 1.45 0 0 1-0.69-0.27 5.7 5.7 0 0 0-3 0.18 7.9 7.9 0 0 0-5.14 3.74 6 6 0 0 0-1 5.11 7.74 7.74 0 0 0 2.56 4.12 13.81 13.81 0 0 0 2.39 1.43 6.5 6.5 0 0 0 1.53 0.21 0.29 0.29 0 0 1 0.23-0.12 0.37 0.37 0 0 0 0.25-0.09 9 9 0 0 0 1 5.58 13 13 0 0 0 5.77 6.18 10.93 10.93 0 0 0 7.33 1.46 9.24 9.24 0 0 0 3-1.13 4.69 4.69 0 0 0 2.07 3 4.09 4.09 0 0 0 3.86 0.58 4.37 4.37 0 0 0 1.45-0.88v0.48a0.37 0.37 0 0 0 0.09 0.35 7.66 7.66 0 0 0 0.74 2.95 9.75 9.75 0 0 0 4.11 4.57 8.3 8.3 0 0 0 6.18 0.92 6.33 6.33 0 0 0 2.53-1.38 14.65 14.65 0 0 0 0.81 4.61 13.61 13.61 0 0 0 5.17 7 15.38 15.38 0 0 0 6.27 2.17 12.28 12.28 0 0 0 6.57-0.77 4.19 4.19 0 0 0 1.66 4.09c1.66 1.2 3.18 1.24 4.59 0.13a1 1 0 0 1 0.07 0.6 7.53 7.53 0 0 0 3.14 5 6 6 0 0 0 5.83 0.78 1.64 1.64 0 0 0 1-0.42 8.9 8.9 0 0 0 1.5 6 11.22 11.22 0 0 0 4.66 4.32 9.54 9.54 0 0 0 7.42 0.46 8.58 8.58 0 0 0 5.49-4.71 8.76 8.76 0 0 0 6.09 1.8 7.79 7.79 0 0 0 5.63-2.93q2.86-3.26 2.35-6.57a7.24 7.24 0 0 0-2.17-3.39 8.93 8.93 0 0 0-1.45-1.38l-0.79-0.63a4.65 4.65 0 0 0 2.84-2.56 8 8 0 0 0 0.48-6.66 11.63 11.63 0 0 0-4.61-6.13 7.69 7.69 0 0 0-3.23-1.13 8.13 8.13 0 0 0 1-6 14.25 14.25 0 0 0-1.75-4.68l-0.32-0.37a9.87 9.87 0 0 0 5.6 0.53c0.28 5 2.44 8.28 6.5 10a7 7 0 0 0 6.6 0.12 7.58 7.58 0 0 0 1.7-1.09 11.12 11.12 0 0 0 2.19 4.94 8.62 8.62 0 0 0 4 2.81 8.31 8.31 0 0 0 4.8 0.26c3.34-0.93 5.67-3.23 7-6.92a10.09 10.09 0 0 0 0.37-4.57 9 9 0 0 0-0.48-1.77 6.56 6.56 0 0 0 3.39 0.18 5.23 5.23 0 0 0 3.78-6.62 3.23 3.23 0 0 0-2.35-2.12 4.05 4.05 0 0 0 0.71-0.44 12 12 0 0 0 2.56-2.6zm-8.4 3.3c0.81 0.76 2 0.85 3.62 0.32a2.93 2.93 0 0 1 1.76 2.33 2.81 2.81 0 0 1-0.88 2.88c-1.57 1.57-3.51 1.3-5.83-0.78a0.64 0.64 0 0 0-0.77 0 0.59 0.59 0 0 0-0.2 0.63 8.94 8.94 0 0 0 0.76 1.33c0.18 0.72 0.37 1.59 0.55 2.63a9.34 9.34 0 0 1-0.32 3.85 7.1 7.1 0 0 1-5.35 5.47c-2.7 0.64-4.87 0.07-6.5-1.75a9.61 9.61 0 0 1-1.92-3.39c-0.07-0.42-0.16-0.93-0.28-1.55a6.79 6.79 0 0 1-0.16-1.2 2.94 2.94 0 0 0 0.19-1.27 1.09 1.09 0 0 0-0.44-0.62 0.54 0.54 0 0 0-0.72 0.07c-1.91 2-3.18 3.09-3.82 3.21a5.48 5.48 0 0 1-5-0.14 9.31 9.31 0 0 1-3.6-3.78 8 8 0 0 1-1-5 0.87 0.87 0 0 0-0.41-1 1.09 1.09 0 0 0-1.07-0.19 12 12 0 0 1-9.75-1.93c-0.23-0.26-0.46-0.21-0.72 0.06a0.65 0.65 0 0 0 0.07 0.95 32.58 32.58 0 0 1 2 3.76 14.17 14.17 0 0 1 1.78 4 10.55 10.55 0 0 1-0.46 6.43l-1.8 0.49a0.7 0.7 0 0 0-0.14 0.34c0.07 0.39 0.21 0.58 0.46 0.51s0.79-0.12 1.18-0.18a0.4 0.4 0 0 0 0.34 0.13 7.49 7.49 0 0 1 3 1.11 10.48 10.48 0 0 1 3.62 4.54 6.48 6.48 0 0 1 0.67 5c-0.37 1.09-1.47 2.24-3.34 3.46a0.69 0.69 0 0 0-0.21 0.42c0 0.18 0 0.28 0.16 0.3a20.41 20.41 0 0 1 2.56 2.6 6.32 6.32 0 0 1 1.71 3.14c0.39 1.75-0.26 3.44-1.92 5.07a5.93 5.93 0 0 1-4.59 2.1 6.84 6.84 0 0 1-5-1.8c-0.44-0.48-0.9-0.43-1.41 0.17a9.62 9.62 0 0 1-4.86 3.82 7.25 7.25 0 0 1-6-0.33c-2.88-1.4-4.47-4.59-4.77-9.54l0.62-0.56a2.43 2.43 0 0 0 0.51-0.67 2.71 2.71 0 0 1 0.16-0.6c0.09-0.36 0-0.53-0.44-0.48a10.12 10.12 0 0 0-1.2 0.42 12.07 12.07 0 0 1-1.1 0.76 7.13 7.13 0 0 1-2.17 0.8 4.38 4.38 0 0 1-4-0.2 4.94 4.94 0 0 1-2.4-3.19 6.75 6.75 0 0 1-0.37-1.91 4.89 4.89 0 0 1 0.46-2.21 0.45 0.45 0 0 0-0.09-0.35c-0.07-0.09-0.18 0-0.37 0.09a3.3 3.3 0 0 0-1.24 1.34 1.17 1.17 0 0 0-0.49 0.23 3.18 3.18 0 0 1-1.68 0.72 2.32 2.32 0 0 1-1.64-0.21c-1.43-0.79-1.64-2.17-0.58-4.15a0.71 0.71 0 0 0-0.13-0.88 1 1 0 0 0-1-0.35q-7.87 2.88-13.14-0.48a12.31 12.31 0 0 1-4.47-6.25 9 9 0 0 1-0.3-1.82c-0.1-0.76-0.19-1.48-0.3-2.19s-0.26-1.32-0.37-1.8v-0.23a0.35 0.35 0 0 0-0.21-0.37 0.43 0.43 0 0 0-0.48 0.09c-0.14 0-0.49 0.26-1 0.79s-0.83 0.78-1 0.76a6 6 0 0 1-2.6 0.55 6.93 6.93 0 0 1-4.49-1.07 10.26 10.26 0 0 1-3-3.34 7.06 7.06 0 0 1-0.71-2 18.7 18.7 0 0 1-0.58-2.38 0.61 0.61 0 0 0-0.39-0.44 0.59 0.59 0 0 0-0.53 0.14 3.37 3.37 0 0 1-2.12 1.13 3.49 3.49 0 0 1-2.4-0.41 3 3 0 0 1-1.25-2.7 3.65 3.65 0 0 0 0.81-1.59 0.81 0.81 0 0 0-0.53-1.08c-0.17-0.17-0.44-0.14-0.83 0.07a2.86 2.86 0 0 0-0.77 0.89 8.39 8.39 0 0 1-4.45 2 10 10 0 0 1-5.55-1.71 12.28 12.28 0 0 1-4.57-4.84c-0.14-0.32-0.25-0.67-0.39-1.06s-0.26-0.79-0.37-1.16a5.43 5.43 0 0 1-0.16-1.06 8.79 8.79 0 0 0-0.19-1.17c-0.09-0.44-0.16-0.86-0.2-1.25a0.74 0.74 0 0 0-0.58-0.5 0.56 0.56 0 0 0-0.72 0.3 1.06 1.06 0 0 1-0.2 0.53 1 1 0 0 0-0.21 0.5 1.68 1.68 0 0 0-0.35-0.25 0.3 0.3 0 0 0-0.34 0 2.77 2.77 0 0 0-0.56-0.49 3.83 3.83 0 0 1-0.46-0.39 15.53 15.53 0 0 1-1.52-2 5.83 5.83 0 0 1-1.22-3.6 4 4 0 0 1 0.81-2.05 5.46 5.46 0 0 1 2-1.78 5.33 5.33 0 0 1 2.65-1.26l1.2-0.19a1.43 1.43 0 0 0 0.69 0.28 4.45 4.45 0 0 0 1.94 2.93 0.16 0.16 0 0 0 0.25 0 0.57 0.57 0 0 0 0.14-0.35 9.2 9.2 0 0 1-0.37-6.36 9.41 9.41 0 0 1 4.41-5.3 4.76 4.76 0 0 1 5.16 0.27 8.39 8.39 0 0 1 2.45 2.26 4.15 4.15 0 0 1 0.5 0.67 4.66 4.66 0 0 0 0.37 0.55 2.89 2.89 0 0 0 0.67 1 3.49 3.49 0 0 0-0.78 1.39c-0.09 0.23-0.07 0.39 0.09 0.46s0.28 0 0.37-0.21c0.51-0.76 1.71-1.41 3.62-1.91a7.38 7.38 0 0 1 3.23-0.88 11.6 11.6 0 0 1 6.41 0.92 9.77 9.77 0 0 1 4.36 4.36 28.34 28.34 0 0 1 1.13 3 4.72 4.72 0 0 0 0.5 1.54 16 16 0 0 0-1.52 2.06c-0.09 0.07-0.07 0.16 0 0.27a0.51 0.51 0 0 0 0.41 0.21 14.52 14.52 0 0 1 4.11-2.12 2.68 2.68 0 0 1 1.77 0 2.8 2.8 0 0 1 1.36 0.78 4.54 4.54 0 0 1 1.48 3.14c0 0.85 0.07 1.56 0.11 2.12v0.92c0.14 0.18 0.18 0.3 0.09 0.37 0.07 0.07 0 0.28-0.14 0.58 0.07 0.09 0.12 0.13 0.16 0.18s0.09 0 0.19-0.05a1.75 1.75 0 0 1 0.32-0.5s0.11-0.07 0.23-0.12a0.47 0.47 0 0 0 0.3-0.16 2.37 2.37 0 0 0 0.39-0.55 3.08 3.08 0 0 1 0.37-0.58 3.33 3.33 0 0 0 0.3-0.92 15.69 15.69 0 0 0 1.89-0.11c0.88-0.19 1.78-0.32 2.72-0.44a11.25 11.25 0 0 1 5.47 1.13 9.25 9.25 0 0 1 3.92 3.74 7.32 7.32 0 0 1 1 5.23 1.32 1.32 0 0 0 0.6 0.9 0.69 0.69 0 0 0 0.9 0 9.22 9.22 0 0 1 6.2-1.77 6.9 6.9 0 0 0 3.09 1.45 0.52 0.52 0 0 0 0.6-0.09c0.16-0.14 0.14-0.35-0.09-0.58a21.61 21.61 0 0 0-2.08-3.07 12.23 12.23 0 0 1-2-3.76 11.05 11.05 0 0 1 0.62-7 0.82 0.82 0 0 0-0.14-0.76c-0.18-0.3-0.39-0.39-0.62-0.34-3.14 0.16-5.45-0.93-6.88-3.19a6.53 6.53 0 0 1-0.66-5.21 7.3 7.3 0 0 1 1-1.82 7.8 7.8 0 0 1 4.78-3.16 6.27 6.27 0 0 1 2.67 0.28 6.38 6.38 0 0 1 2.88 1l0.14-0.12c-0.27-0.78-0.48-1.36-0.62-1.68a5.22 5.22 0 0 1 2-2.24 5.09 5.09 0 0 1 3.92-0.6 7.1 7.1 0 0 1 5.28 6.39 1.19 1.19 0 0 0 0.32 0.85 0.66 0.66 0 0 0 0.81 0.16c0.87-0.18 1.5-0.32 1.89-0.37l1.18 0.07a2.59 2.59 0 0 0 0.57 0.37 12.8 12.8 0 0 1 3 2 16.1 16.1 0 0 1 2.66 2.73 6.7 6.7 0 0 1 0.62 0.8 1.76 1.76 0 0 1 0.37 0.79l0.64 0.73a2.82 2.82 0 0 1 0.3 0.3 2.51 2.51 0 0 0 0.28 0.33c0.21 0.23 0.32 0.21 0.35-0.12a5.64 5.64 0 0 0-1-3.8 9.69 9.69 0 0 0-2.75-3.81c-0.07-0.07-0.16-0.18-0.32-0.37a2.4 2.4 0 0 1-0.37-0.53 7.11 7.11 0 0 0-0.39-0.67 2.82 2.82 0 0 0-0.44-0.62 12.53 12.53 0 0 1-1.64-4.56 11.37 11.37 0 0 1 0.35-4.09 5.46 5.46 0 0 1 0.83-2.07 0.67 0.67 0 0 0 0.14-0.35 1.41 1.41 0 0 0 0.37-0.57c0.32-0.28 0.5-0.51 0.5-0.67l0.51-0.44a1.17 1.17 0 0 0 0.39-0.69 0.68 0.68 0 0 0-0.43-0.6 20.53 20.53 0 0 1-5-2 10.76 10.76 0 0 1-3.3-4.2 12.93 12.93 0 0 1-1.48-5.12l0.21-1.77a30 30 0 0 1 0.92-4.2 0.56 0.56 0 0 0-0.13-0.64 1.64 1.64 0 0 0-0.63-0.44c-0.14 0-1.08-0.3-2.76-0.88q-1.15-0.77-1.92-1.38a9.33 9.33 0 0 1-2.7-4.5 9.64 9.64 0 0 1-0.09-5 9.65 9.65 0 0 1 1.68-4.96 3.39 3.39 0 0 0 2.52-0.93c0.09-0.07 0.09-0.18 0-0.34s-0.14-0.21-0.23-0.14c-1.8 0-3.44-1-4.89-3-1.61-2-1.91-4-0.85-5.93a5.61 5.61 0 0 1 4.43-3.53 4 4 0 0 1 2.53 0.6l1 0.42c1.22 0.85 1.85 1.4 1.91 1.63a0.9 0.9 0 0 0 0.77 0.33 0.47 0.47 0 0 0 0.43-0.51c0-3.44 1.41-5.88 4.15-7.29 2.5-1.2 5.19-0.92 8.08 0.79a10.45 10.45 0 0 1 4.91 7.49 9.3 9.3 0 0 1-0.11 4.34 24.11 24.11 0 0 1-1.29 4.29c-0.09 0.07-0.07 0.16 0 0.3s0.21 0.14 0.28 0.07a9.13 9.13 0 0 0 1.75-2 6.43 6.43 0 0 1 3.6 2.41 3.14 3.14 0 0 1 0.83 1.94 5.34 5.34 0 0 1 0 2.47c-0.25 0.53-0.16 0.89 0.3 1.08a17.29 17.29 0 0 0 3 1.34 11 11 0 0 1 2.75 1.54 8.87 8.87 0 0 1 3.73 4.91 7.19 7.19 0 0 1-0.9 5.72c-0.62 1.13-2.42 2.45-5.39 3.92a0.78 0.78 0 0 0-0.14 0.35c0 0.16 0.11 0.3 0.35 0.39a6.06 6.06 0 0 0 3.43-0.41c0.21 0.09 0.49 0.23 0.79 0.39a4.27 4.27 0 0 1 1.1 1.24 3.75 3.75 0 0 1 0.63 1.69 1.67 1.67 0 0 1-0.17 0.8v0.23l-0.11 0.12a8 8 0 0 0-4.09 1.66 0.51 0.51 0 0 0-0.16 0.69 0.47 0.47 0 0 0 0.58 0.28 9.14 9.14 0 0 1 3.6-0.23 10.07 10.07 0 0 1 3.41 1.2 7 7 0 0 1 2.56 2.49 8.44 8.44 0 0 1 1.15 5.65 7.66 7.66 0 0 1-2.44 5.09 1.23 1.23 0 0 0-0.19 1.16 0.9 0.9 0 0 0 0.9 0.64 8.49 8.49 0 0 1 6.87 5.68 12.21 12.21 0 0 1 0.49 4.24c0 2.51-0.62 4.06-1.92 4.61l0.12 0.35a3.37 3.37 0 0 0 2.14-0.58 11.51 11.51 0 0 1 2.36 0.12 23.28 23.28 0 0 1 3.36 0.78 8.61 8.61 0 0 1 4.92 4.73c1.31 3 1.26 5.25-0.14 6.82a14.16 14.16 0 0 1-2.84 2.31 1.57 1.57 0 0 1-0.71 0.32l-0.79 0.12a4.18 4.18 0 0 0-0.71 0.2l-0.76 0.26a0.27 0.27 0 0 0-0.14 0.23 0.3 0.3 0 0 0 0 0.21z"/>
   <path class="cls-2" d="m216.78 76.61a22.78 22.78 0 0 1-4.84-1.13 7.57 7.57 0 0 1-3.48-3.48 7.8 7.8 0 0 1-1-2.4 8.91 8.91 0 0 1-0.21-2.7 9.65 9.65 0 0 1 0.6-2.63 9.87 9.87 0 0 1 1.34-2.4 1 1 0 0 0 0.09-1.15c-0.21-0.46-0.56-0.55-1-0.3a12.17 12.17 0 0 1-6.62 0.81 11.1 11.1 0 0 1-5.79-2.77 10.83 10.83 0 0 1-3.2-5.44c-0.35-1.52-0.23-4 0.32-7.56 0-0.58-0.18-0.93-0.67-1a0.86 0.86 0 0 0-1 0.67c-0.69 1.94-2.42 3.67-5.19 5.21-1.13 0.46-2.21 0.85-3.28 1.18a0.67 0.67 0 0 0-0.53 0c-2.19-0.36-3.62 0.3-4.26 2a0.21 0.21 0 0 0 0.11 0.32c0.14 0.07 0.19 0.07 0.14 0 1.87-1.13 3.46-0.87 4.78 0.81a8.17 8.17 0 0 1 1.84 5.51 10.22 10.22 0 0 1-1.34 4.75 6.64 6.64 0 0 1-1.31 2 11.36 11.36 0 0 0-1.28 1.46c-0.55 0.51-0.39 0.88 0.49 1.07a8.5 8.5 0 0 1 5.3 4.28 18.63 18.63 0 0 1 1.89 7.43 23.15 23.15 0 0 1-0.78 7.17 17 17 0 0 1-1.22 4.52 11 11 0 0 0-2.17 2.58c-0.12 0-0.14 0.1-0.12 0.21-0.14 0.28-0.34 0.74-0.6 1.39 0.16 0.18 0.3 0.25 0.42 0.23a11.24 11.24 0 0 1 5.49-3.58 10 10 0 0 1 6.45 0.12 10.51 10.51 0 0 1 5.05 4 20.34 20.34 0 0 1 2.52 5.47c0.14 0.78 0.23 1.34 0.32 1.64a1 1 0 0 0 1 0.48 0.69 0.69 0 0 0 0.62-0.81 13.1 13.1 0 0 1 1.75-8 10.33 10.33 0 0 1 7-5.07q0.81-0.24 0.54-1.11c-0.19-0.57-0.54-0.8-1.07-0.62-0.94 0.28-1.68-0.78-2.16-3.16a6.9 6.9 0 0 1-0.07-3.64 7.09 7.09 0 0 1 3.48-4.52 3.71 3.71 0 0 0 1.68-0.16 0.8 0.8 0 0 0 0.63-0.88 0.83 0.83 0 0 0-0.66-0.8zm-7.45 7.45a8.19 8.19 0 0 0 1.78 6.41 17.83 17.83 0 0 0-2.19 1.36 13.79 13.79 0 0 0-3.41 3.64 8.5 8.5 0 0 0-1.18 3 26.17 26.17 0 0 0-1.25-2.4 12 12 0 0 0-6.34-4.84 10.23 10.23 0 0 0-7.72 0.26 1.66 1.66 0 0 0-0.51 0.27 18 18 0 0 0 2.77-11.76 16.47 16.47 0 0 0-3-8.81 7 7 0 0 0-3.9-3.14 12.76 12.76 0 0 0 2.28-3.3 11.38 11.38 0 0 0 0.63-7.12 9 9 0 0 0-2.29-4.63 8.73 8.73 0 0 0 2.22-0.7 15 15 0 0 0 2.78-2.12 9.75 9.75 0 0 0 0.14 3.27 12.67 12.67 0 0 0 3.9 7.13 11.78 11.78 0 0 0 11.96 2.81 10.62 10.62 0 0 0 0.28 9.46 10.19 10.19 0 0 0 6.42 5.15 7.49 7.49 0 0 0-3.37 6.06zm7.45-7.45a22.78 22.78 0 0 1-4.84-1.13 7.57 7.57 0 0 1-3.48-3.48 7.8 7.8 0 0 1-1-2.4 8.91 8.91 0 0 1-0.21-2.7 9.65 9.65 0 0 1 0.6-2.63 9.87 9.87 0 0 1 1.34-2.4 1 1 0 0 0 0.09-1.15c-0.21-0.46-0.56-0.55-1-0.3a12.17 12.17 0 0 1-6.62 0.81 11.1 11.1 0 0 1-5.79-2.77 10.83 10.83 0 0 1-3.2-5.44c-0.35-1.52-0.23-4 0.32-7.56 0-0.58-0.18-0.93-0.67-1a0.86 0.86 0 0 0-1 0.67c-0.69 1.94-2.42 3.67-5.19 5.21-1.13 0.46-2.21 0.85-3.28 1.18a0.67 0.67 0 0 0-0.53 0c-2.19-0.36-3.62 0.3-4.26 2a0.21 0.21 0 0 0 0.11 0.32c0.14 0.07 0.19 0.07 0.14 0 1.87-1.13 3.46-0.87 4.78 0.81a8.17 8.17 0 0 1 1.84 5.51 10.22 10.22 0 0 1-1.34 4.75 6.64 6.64 0 0 1-1.31 2 11.36 11.36 0 0 0-1.28 1.46c-0.55 0.51-0.39 0.88 0.49 1.07a8.5 8.5 0 0 1 5.3 4.28 18.63 18.63 0 0 1 1.89 7.43 23.15 23.15 0 0 1-0.78 7.17 17 17 0 0 1-1.22 4.52 11 11 0 0 0-2.17 2.58c-0.12 0-0.14 0.1-0.12 0.21-0.14 0.28-0.34 0.74-0.6 1.39 0.16 0.18 0.3 0.25 0.42 0.23a11.24 11.24 0 0 1 5.49-3.58 10 10 0 0 1 6.45 0.12 10.51 10.51 0 0 1 5.05 4 20.34 20.34 0 0 1 2.52 5.47c0.14 0.78 0.23 1.34 0.32 1.64a1 1 0 0 0 1 0.48 0.69 0.69 0 0 0 0.62-0.81 13.1 13.1 0 0 1 1.75-8 10.33 10.33 0 0 1 7-5.07q0.81-0.24 0.54-1.11c-0.19-0.57-0.54-0.8-1.07-0.62-0.94 0.28-1.68-0.78-2.16-3.16a6.9 6.9 0 0 1-0.07-3.64 7.09 7.09 0 0 1 3.48-4.52 3.71 3.71 0 0 0 1.68-0.16 0.8 0.8 0 0 0 0.63-0.88 0.83 0.83 0 0 0-0.66-0.8zm-7.45 7.45a8.19 8.19 0 0 0 1.78 6.41 17.83 17.83 0 0 0-2.19 1.36 13.79 13.79 0 0 0-3.41 3.64 8.5 8.5 0 0 0-1.18 3 26.17 26.17 0 0 0-1.25-2.4 12 12 0 0 0-6.34-4.84 10.23 10.23 0 0 0-7.72 0.26 1.66 1.66 0 0 0-0.51 0.27 18 18 0 0 0 2.77-11.76 16.47 16.47 0 0 0-3-8.81 7 7 0 0 0-3.9-3.14 12.76 12.76 0 0 0 2.28-3.3 11.38 11.38 0 0 0 0.63-7.12 9 9 0 0 0-2.29-4.63 8.73 8.73 0 0 0 2.22-0.7 15 15 0 0 0 2.78-2.12 9.75 9.75 0 0 0 0.14 3.27 12.67 12.67 0 0 0 3.9 7.13 11.78 11.78 0 0 0 11.96 2.81 10.62 10.62 0 0 0 0.28 9.46 10.19 10.19 0 0 0 6.42 5.15 7.49 7.49 0 0 0-3.37 6.06zm7.45-7.45a22.78 22.78 0 0 1-4.84-1.13 7.57 7.57 0 0 1-3.48-3.48 7.8 7.8 0 0 1-1-2.4 8.91 8.91 0 0 1-0.21-2.7 9.65 9.65 0 0 1 0.6-2.63 9.87 9.87 0 0 1 1.34-2.4 1 1 0 0 0 0.09-1.15c-0.21-0.46-0.56-0.55-1-0.3a12.17 12.17 0 0 1-6.62 0.81 11.1 11.1 0 0 1-5.79-2.77 10.83 10.83 0 0 1-3.2-5.44c-0.35-1.52-0.23-4 0.32-7.56 0-0.58-0.18-0.93-0.67-1a0.86 0.86 0 0 0-1 0.67c-0.69 1.94-2.42 3.67-5.19 5.21-1.13 0.46-2.21 0.85-3.28 1.18a0.67 0.67 0 0 0-0.53 0c-2.19-0.36-3.62 0.3-4.26 2a0.21 0.21 0 0 0 0.11 0.32c0.14 0.07 0.19 0.07 0.14 0 1.87-1.13 3.46-0.87 4.78 0.81a8.17 8.17 0 0 1 1.84 5.51 10.22 10.22 0 0 1-1.34 4.75 6.64 6.64 0 0 1-1.31 2 11.36 11.36 0 0 0-1.28 1.46c-0.55 0.51-0.39 0.88 0.49 1.07a8.5 8.5 0 0 1 5.3 4.28 18.63 18.63 0 0 1 1.89 7.43 23.15 23.15 0 0 1-0.78 7.17 17 17 0 0 1-1.22 4.52 11 11 0 0 0-2.17 2.58c-0.12 0-0.14 0.1-0.12 0.21-0.14 0.28-0.34 0.74-0.6 1.39 0.16 0.18 0.3 0.25 0.42 0.23a11.24 11.24 0 0 1 5.49-3.58 10 10 0 0 1 6.45 0.12 10.51 10.51 0 0 1 5.05 4 20.34 20.34 0 0 1 2.52 5.47c0.14 0.78 0.23 1.34 0.32 1.64a1 1 0 0 0 1 0.48 0.69 0.69 0 0 0 0.62-0.81 13.1 13.1 0 0 1 1.75-8 10.33 10.33 0 0 1 7-5.07q0.81-0.24 0.54-1.11c-0.19-0.57-0.54-0.8-1.07-0.62-0.94 0.28-1.68-0.78-2.16-3.16a6.9 6.9 0 0 1-0.07-3.64 7.09 7.09 0 0 1 3.48-4.52 3.71 3.71 0 0 0 1.68-0.16 0.8 0.8 0 0 0 0.63-0.88 0.83 0.83 0 0 0-0.66-0.8zm-7.45 7.45a8.19 8.19 0 0 0 1.78 6.41 17.83 17.83 0 0 0-2.19 1.36 13.79 13.79 0 0 0-3.41 3.64 8.5 8.5 0 0 0-1.18 3 26.17 26.17 0 0 0-1.25-2.4 12 12 0 0 0-6.34-4.84 10.23 10.23 0 0 0-7.72 0.26 1.66 1.66 0 0 0-0.51 0.27 18 18 0 0 0 2.77-11.76 16.47 16.47 0 0 0-3-8.81 7 7 0 0 0-3.9-3.14 12.76 12.76 0 0 0 2.28-3.3 11.38 11.38 0 0 0 0.63-7.12 9 9 0 0 0-2.29-4.63 8.73 8.73 0 0 0 2.22-0.7 15 15 0 0 0 2.78-2.12 9.75 9.75 0 0 0 0.14 3.27 12.67 12.67 0 0 0 3.9 7.13 11.78 11.78 0 0 0 11.96 2.81 10.62 10.62 0 0 0 0.28 9.46 10.19 10.19 0 0 0 6.42 5.15 7.49 7.49 0 0 0-3.37 6.06zm7.45-7.45a22.78 22.78 0 0 1-4.84-1.13 7.57 7.57 0 0 1-3.48-3.48 7.8 7.8 0 0 1-1-2.4 8.91 8.91 0 0 1-0.21-2.7 9.65 9.65 0 0 1 0.6-2.63 9.87 9.87 0 0 1 1.34-2.4 1 1 0 0 0 0.09-1.15c-0.21-0.46-0.56-0.55-1-0.3a12.17 12.17 0 0 1-6.62 0.81 11.1 11.1 0 0 1-5.79-2.77 10.83 10.83 0 0 1-3.2-5.44c-0.35-1.52-0.23-4 0.32-7.56 0-0.58-0.18-0.93-0.67-1a0.86 0.86 0 0 0-1 0.67c-0.69 1.94-2.42 3.67-5.19 5.21-1.13 0.46-2.21 0.85-3.28 1.18a0.67 0.67 0 0 0-0.53 0c-2.19-0.36-3.62 0.3-4.26 2a0.21 0.21 0 0 0 0.11 0.32c0.14 0.07 0.19 0.07 0.14 0 1.87-1.13 3.46-0.87 4.78 0.81a8.17 8.17 0 0 1 1.84 5.51 10.22 10.22 0 0 1-1.34 4.75 6.64 6.64 0 0 1-1.31 2 11.36 11.36 0 0 0-1.28 1.46c-0.55 0.51-0.39 0.88 0.49 1.07a8.5 8.5 0 0 1 5.3 4.28 18.63 18.63 0 0 1 1.89 7.43 23.15 23.15 0 0 1-0.78 7.17 17 17 0 0 1-1.22 4.52 11 11 0 0 0-2.17 2.58c-0.12 0-0.14 0.1-0.12 0.21-0.14 0.28-0.34 0.74-0.6 1.39 0.16 0.18 0.3 0.25 0.42 0.23a11.24 11.24 0 0 1 5.49-3.58 10 10 0 0 1 6.45 0.12 10.51 10.51 0 0 1 5.05 4 20.34 20.34 0 0 1 2.52 5.47c0.14 0.78 0.23 1.34 0.32 1.64a1 1 0 0 0 1 0.48 0.69 0.69 0 0 0 0.62-0.81 13.1 13.1 0 0 1 1.75-8 10.33 10.33 0 0 1 7-5.07q0.81-0.24 0.54-1.11c-0.19-0.57-0.54-0.8-1.07-0.62-0.94 0.28-1.68-0.78-2.16-3.16a6.9 6.9 0 0 1-0.07-3.64 7.09 7.09 0 0 1 3.48-4.52 3.71 3.71 0 0 0 1.68-0.16 0.8 0.8 0 0 0 0.63-0.88 0.83 0.83 0 0 0-0.66-0.8zm-7.45 7.45a8.19 8.19 0 0 0 1.78 6.41 17.83 17.83 0 0 0-2.19 1.36 13.79 13.79 0 0 0-3.41 3.64 8.5 8.5 0 0 0-1.18 3 26.17 26.17 0 0 0-1.25-2.4 12 12 0 0 0-6.34-4.84 10.23 10.23 0 0 0-7.72 0.26 1.66 1.66 0 0 0-0.51 0.27 18 18 0 0 0 2.77-11.76 16.47 16.47 0 0 0-3-8.81 7 7 0 0 0-3.9-3.14 12.76 12.76 0 0 0 2.28-3.3 11.38 11.38 0 0 0 0.63-7.12 9 9 0 0 0-2.29-4.63 8.73 8.73 0 0 0 2.22-0.7 15 15 0 0 0 2.78-2.12 9.75 9.75 0 0 0 0.14 3.27 12.67 12.67 0 0 0 3.9 7.13 11.78 11.78 0 0 0 11.96 2.81 10.62 10.62 0 0 0 0.28 9.46 10.19 10.19 0 0 0 6.42 5.15 7.49 7.49 0 0 0-3.37 6.06zm34.8-10.29a8.63 8.63 0 0 0-4.06-3.37 10.82 10.82 0 0 0 2.36-5.92 16.41 16.41 0 0 0-1.53-9.07 11.41 11.41 0 0 0-6.2-6.11 8.6 8.6 0 0 0-4.43-0.9 5 5 0 0 0 0.51-1.2 13.1 13.1 0 0 0-0.11-9.52 14.24 14.24 0 0 0-5.67-7.82 10.64 10.64 0 0 0-7.4-2.1 6 6 0 0 0-0.85-4.24 7 7 0 0 0-3.42-2.95 9.29 9.29 0 0 0-5.92-0.12 11.72 11.72 0 0 0-3.53 2.13 8.52 8.52 0 0 0-0.51-4.55 10.88 10.88 0 0 0-7.54-6 15.56 15.56 0 0 0-10 0.6 14 14 0 0 0-7.75 6.18 12 12 0 0 0-7.24-1.29 12.93 12.93 0 0 0-6.84 2.91 11.74 11.74 0 0 0-3.55 5.49 10.67 10.67 0 0 0-0.14 6.39 6 6 0 0 0-2.26-0.53 5.34 5.34 0 0 0-4.59 2.6 6.27 6.27 0 0 0-1 5.33 5.63 5.63 0 0 0 1.27 3.09l1.08 0.69a12.67 12.67 0 0 0-6 4.64 17.75 17.75 0 0 0-4.1 9.38 16.8 16.8 0 0 0 1.36 9.64 17.15 17.15 0 0 0 6.27 7.47c-3.55 3.16-4.45 8.47-2.65 15.92a11.86 11.86 0 0 0 4.38 7 16.76 16.76 0 0 0 8 3.32q-3.15 9.1 2.51 15.2a10.1 10.1 0 0 0 7.26 3.35c0 0.11 0.14 0.13 0.3 0.09a1.57 1.57 0 0 1 0.49-0.07 1.79 1.79 0 0 0 0.58-0.09 9.15 9.15 0 0 0 0.25 6 10.62 10.62 0 0 0 6.09 6.32 9.51 9.51 0 0 0 8.41-0.3 8.93 8.93 0 0 0 4.55-4.5h0.14c0.78 2.19 2.79 3.64 6 4.33a18.67 18.67 0 0 0 8.67 0c3.46-0.81 5.72-2.54 6.78-5.17a10.54 10.54 0 0 0 0.65-3 6.74 6.74 0 0 0 1.18 1 4.69 4.69 0 0 0 4.1-0.21 6 6 0 0 0 2.52-3.18 5.5 5.5 0 0 0 0.29-1.85 10.18 10.18 0 0 0 4.87 1.13 16.72 16.72 0 0 0 11.19-3.73q4.27-3 4.24-8.93a8.92 8.92 0 0 0-1-4.91 8.3 8.3 0 0 0-2.14-3 7.56 7.56 0 0 0 4.26-6q0.55-4.5-2.28-6.94a5.75 5.75 0 0 0 2.37-1.94 8.53 8.53 0 0 0 1.39-2.84 9.17 9.17 0 0 0 0.34-2.88 11 11 0 0 0-1.95-4.97zm-4.47 11.85c-0.58 0.42-0.62 0.83-0.14 1.27 0.19 0.28 0.51 0.72 0.9 1.27 1.11 2.1 1.55 3.76 1.34 5a7 7 0 0 1-4.18 5.1 0.67 0.67 0 0 0-0.48 0.74 0.89 0.89 0 0 0 0.44 0.83c1.84 1.52 2.74 3.92 2.7 7.17a8.19 8.19 0 0 1-3.53 7.31 18 18 0 0 1-8.63 2.95 10.36 10.36 0 0 1-8-2.26c-0.16-0.18-0.37-0.18-0.6 0s-0.27 0.37-0.09 0.53a9 9 0 0 0 2.58 2.86 3.44 3.44 0 0 1-0.55 1.57 6.28 6.28 0 0 1-2.37 1.94 2.48 2.48 0 0 1-2.26 0.51l-0.63-0.35a1 1 0 0 0-0.57-0.16l-0.93-0.76a14.93 14.93 0 0 0-1.19-2.77 0.31 0.31 0 0 0-0.51 0c-0.23 0-0.28 0.25-0.19 0.55a5.05 5.05 0 0 1-0.76 6.32 10.43 10.43 0 0 1-6.27 3.65 12.44 12.44 0 0 1-7.08-0.47c-1.89-0.48-3.8-1.86-5.79-4.15a0.54 0.54 0 0 0-0.44 0 0.59 0.59 0 0 0-0.34 0.27c-0.05 0.26-0.39 0.65-1 1.18a4.27 4.27 0 0 1-0.9 1 14.89 14.89 0 0 1-2.74 1.87 8.61 8.61 0 0 1-6.67 0.28 8.14 8.14 0 0 1-5-4.38 10.1 10.1 0 0 1-0.74-3.6 2 2 0 0 1 0-0.86 1.8 1.8 0 0 0 0-0.87c1.8-0.56 2.93-1.41 3.39-2.58l-0.09-0.33a16.65 16.65 0 0 1-2 0.44c-0.93 0.19-1.73 0.3-2.4 0.39a6.51 6.51 0 0 1-2.1-0.07 9 9 0 0 1-5.42-3q-4.95-5.46-2.26-13.72c0.18-0.53 0-0.85-0.65-1a18 18 0 0 1-7.08-2.72 11.09 11.09 0 0 1-4.05-7.11 20.11 20.11 0 0 1-0.42-7.68 16.56 16.56 0 0 1 2.74-6.78 1.53 1.53 0 0 1 0-0.53v-0.16a1.48 1.48 0 0 0-0.35-0.6 20.36 20.36 0 0 1-5.35-7.25 16.86 16.86 0 0 1 2-16.4 24.25 24.25 0 0 1 3.18-3.22 10.42 10.42 0 0 1 0.92-0.72l1.2-0.88a7.5 7.5 0 0 0 1-0.92 0.63 0.63 0 0 0 0-1 7.54 7.54 0 0 1-1.75-3.46 4.3 4.3 0 0 1 0-3.48c0.9-2 2.79-2.59 5.72-1.73a2.18 2.18 0 0 1 0.34 0.6 0.75 0.75 0 0 0 0.74 0.11 0.42 0.42 0 0 0 0.32-0.62 14.89 14.89 0 0 1-0.11-7 9.22 9.22 0 0 1 3.3-5.42 10.1 10.1 0 0 1 6-2.32 10.85 10.85 0 0 1 6.41 1.68 0.86 0.86 0 0 0 1 0.14 1.23 1.23 0 0 0 0.73-0.82c0.72-2.63 2.7-4.56 6-5.79s6.11-1.5 8.51-0.85a9.61 9.61 0 0 1 6.22 4.54 8.63 8.63 0 0 1 1.06 5.75l0.05 0.16c-0.11 0-0.14 0.16-0.07 0.37a2.58 2.58 0 0 1-0.51 1.19 0.48 0.48 0 0 0 0.26 0.54c0.21 0.11 0.34 0.09 0.41-0.05 0.42-0.58 0.93-1.38 1.55-2.38 3-1.84 5.65-2.51 7.86-2.05a5.44 5.44 0 0 1 3.41 2.35 3.6 3.6 0 0 1 0 3.9 1 1 0 0 0 0.12 1.18 1.18 1.18 0 0 0 1.1 0.53c3.65-0.16 6.25 0.41 7.82 1.8a15.23 15.23 0 0 1 4.45 6.64 13.58 13.58 0 0 1 0.53 7.47 14.4 14.4 0 0 1-1.13 3.11 8.08 8.08 0 0 1-1.13 1.48 8.51 8.51 0 0 0-1.11 1.45 0.57 0.57 0 0 0 0.07 0.51 0.44 0.44 0 0 0 0.49 0.21 6.33 6.33 0 0 0 3-2.66 5.51 5.51 0 0 0 1.61 0.19 11.79 11.79 0 0 1 3.28 1.11 9.89 9.89 0 0 1 4.59 5.3 18.29 18.29 0 0 1 1.29 7.06c0 3-0.67 5.11-1.92 6.31-0.46 0.37-0.46 0.76 0 1.2a8.56 8.56 0 0 0 1.68 1.32 6.84 6.84 0 0 1 1.75 1.45 7.75 7.75 0 0 1 2.15 4.22c0.4 2.8-0.85 5.15-3.73 7.06zm-22.88-9a22.78 22.78 0 0 1-4.84-1.13 7.57 7.57 0 0 1-3.48-3.49 7.8 7.8 0 0 1-1-2.4 8.91 8.91 0 0 1-0.21-2.7 9.65 9.65 0 0 1 0.6-2.63 9.87 9.87 0 0 1 1.34-2.4 1 1 0 0 0 0.09-1.15c-0.21-0.46-0.56-0.55-1-0.3a12.17 12.17 0 0 1-6.62 0.81 11.1 11.1 0 0 1-5.79-2.77 10.83 10.83 0 0 1-3.2-5.44c-0.35-1.52-0.23-4 0.32-7.56 0-0.58-0.18-0.93-0.67-1a0.86 0.86 0 0 0-1 0.67c-0.69 1.94-2.42 3.67-5.19 5.21-1.13 0.46-2.21 0.85-3.28 1.18a0.67 0.67 0 0 0-0.53 0c-2.19-0.36-3.62 0.3-4.26 2a0.21 0.21 0 0 0 0.11 0.32c0.14 0.07 0.19 0.07 0.14 0 1.87-1.13 3.46-0.87 4.78 0.81a8.17 8.17 0 0 1 1.84 5.51 10.22 10.22 0 0 1-1.34 4.75 6.64 6.64 0 0 1-1.31 2 11.36 11.36 0 0 0-1.28 1.46c-0.55 0.51-0.39 0.88 0.49 1.07a8.5 8.5 0 0 1 5.3 4.28 18.63 18.63 0 0 1 1.89 7.43 23.15 23.15 0 0 1-0.78 7.17 17 17 0 0 1-1.22 4.52 11 11 0 0 0-2.17 2.58c-0.12 0-0.14 0.1-0.12 0.21-0.14 0.28-0.34 0.74-0.6 1.39 0.16 0.18 0.3 0.25 0.42 0.23a11.24 11.24 0 0 1 5.49-3.58 10 10 0 0 1 6.45 0.12 10.51 10.51 0 0 1 5.05 4 20.34 20.34 0 0 1 2.52 5.47c0.14 0.78 0.23 1.34 0.32 1.64a1 1 0 0 0 1 0.48 0.69 0.69 0 0 0 0.62-0.81 13.1 13.1 0 0 1 1.75-8 10.33 10.33 0 0 1 7-5.07q0.81-0.24 0.54-1.11c-0.19-0.57-0.54-0.8-1.07-0.62-0.94 0.28-1.68-0.78-2.16-3.16a6.9 6.9 0 0 1-0.07-3.64 7.09 7.09 0 0 1 3.48-4.52 3.71 3.71 0 0 0 1.68-0.16 0.8 0.8 0 0 0 0.63-0.88 0.83 0.83 0 0 0-0.66-0.8zm-7.45 7.45a8.19 8.19 0 0 0 1.78 6.41 17.83 17.83 0 0 0-2.19 1.36 13.79 13.79 0 0 0-3.41 3.64 8.5 8.5 0 0 0-1.18 3 26.17 26.17 0 0 0-1.25-2.4 12 12 0 0 0-6.34-4.84 10.23 10.23 0 0 0-7.72 0.26 1.66 1.66 0 0 0-0.51 0.27 18 18 0 0 0 2.77-11.77 16.47 16.47 0 0 0-3-8.81 7 7 0 0 0-3.9-3.14 12.76 12.76 0 0 0 2.28-3.3 11.38 11.38 0 0 0 0.63-7.12 9 9 0 0 0-2.29-4.63 8.73 8.73 0 0 0 2.22-0.7 15 15 0 0 0 2.78-2.12 9.75 9.75 0 0 0 0.14 3.27 12.67 12.67 0 0 0 3.9 7.13 11.78 11.78 0 0 0 11.96 2.81 10.62 10.62 0 0 0 0.28 9.46 10.19 10.19 0 0 0 6.42 5.15 7.49 7.49 0 0 0-3.37 6.06zm7.45-7.45a22.78 22.78 0 0 1-4.84-1.13 7.57 7.57 0 0 1-3.48-3.49 7.8 7.8 0 0 1-1-2.4 8.91 8.91 0 0 1-0.21-2.7 9.65 9.65 0 0 1 0.6-2.63 9.87 9.87 0 0 1 1.34-2.4 1 1 0 0 0 0.09-1.15c-0.21-0.46-0.56-0.55-1-0.3a12.17 12.17 0 0 1-6.62 0.81 11.1 11.1 0 0 1-5.79-2.77 10.83 10.83 0 0 1-3.2-5.44c-0.35-1.52-0.23-4 0.32-7.56 0-0.58-0.18-0.93-0.67-1a0.86 0.86 0 0 0-1 0.67c-0.69 1.94-2.42 3.67-5.19 5.21-1.13 0.46-2.21 0.85-3.28 1.18a0.67 0.67 0 0 0-0.53 0c-2.19-0.36-3.62 0.3-4.26 2a0.21 0.21 0 0 0 0.11 0.32c0.14 0.07 0.19 0.07 0.14 0 1.87-1.13 3.46-0.87 4.78 0.81a8.17 8.17 0 0 1 1.84 5.51 10.22 10.22 0 0 1-1.34 4.75 6.64 6.64 0 0 1-1.31 2 11.36 11.36 0 0 0-1.28 1.46c-0.55 0.51-0.39 0.88 0.49 1.07a8.5 8.5 0 0 1 5.3 4.28 18.63 18.63 0 0 1 1.89 7.43 23.15 23.15 0 0 1-0.78 7.17 17 17 0 0 1-1.22 4.52 11 11 0 0 0-2.17 2.58c-0.12 0-0.14 0.1-0.12 0.21-0.14 0.28-0.34 0.74-0.6 1.39 0.16 0.18 0.3 0.25 0.42 0.23a11.24 11.24 0 0 1 5.49-3.58 10 10 0 0 1 6.45 0.12 10.51 10.51 0 0 1 5.05 4 20.34 20.34 0 0 1 2.52 5.47c0.14 0.78 0.23 1.34 0.32 1.64a1 1 0 0 0 1 0.48 0.69 0.69 0 0 0 0.62-0.81 13.1 13.1 0 0 1 1.75-8 10.33 10.33 0 0 1 7-5.07q0.81-0.24 0.54-1.11c-0.19-0.57-0.54-0.8-1.07-0.62-0.94 0.28-1.68-0.78-2.16-3.16a6.9 6.9 0 0 1-0.07-3.64 7.09 7.09 0 0 1 3.48-4.52 3.71 3.71 0 0 0 1.68-0.16 0.8 0.8 0 0 0 0.63-0.88 0.83 0.83 0 0 0-0.66-0.8zm-7.45 7.45a8.19 8.19 0 0 0 1.78 6.41 17.83 17.83 0 0 0-2.19 1.36 13.79 13.79 0 0 0-3.41 3.64 8.5 8.5 0 0 0-1.18 3 26.17 26.17 0 0 0-1.25-2.4 12 12 0 0 0-6.34-4.84 10.23 10.23 0 0 0-7.72 0.26 1.66 1.66 0 0 0-0.51 0.27 18 18 0 0 0 2.77-11.77 16.47 16.47 0 0 0-3-8.81 7 7 0 0 0-3.9-3.14 12.76 12.76 0 0 0 2.28-3.3 11.38 11.38 0 0 0 0.63-7.12 9 9 0 0 0-2.29-4.63 8.73 8.73 0 0 0 2.22-0.7 15 15 0 0 0 2.78-2.12 9.75 9.75 0 0 0 0.14 3.27 12.67 12.67 0 0 0 3.9 7.13 11.78 11.78 0 0 0 11.96 2.81 10.62 10.62 0 0 0 0.28 9.46 10.19 10.19 0 0 0 6.42 5.15 7.49 7.49 0 0 0-3.37 6.06zm7.45-7.45a22.78 22.78 0 0 1-4.84-1.13 7.57 7.57 0 0 1-3.48-3.49 7.8 7.8 0 0 1-1-2.4 8.91 8.91 0 0 1-0.21-2.7 9.65 9.65 0 0 1 0.6-2.63 9.87 9.87 0 0 1 1.34-2.4 1 1 0 0 0 0.09-1.15c-0.21-0.46-0.56-0.55-1-0.3a12.17 12.17 0 0 1-6.62 0.81 11.1 11.1 0 0 1-5.79-2.77 10.83 10.83 0 0 1-3.2-5.44c-0.35-1.52-0.23-4 0.32-7.56 0-0.58-0.18-0.93-0.67-1a0.86 0.86 0 0 0-1 0.67c-0.69 1.94-2.42 3.67-5.19 5.21-1.13 0.46-2.21 0.85-3.28 1.18a0.67 0.67 0 0 0-0.53 0c-2.19-0.36-3.62 0.3-4.26 2a0.21 0.21 0 0 0 0.11 0.32c0.14 0.07 0.19 0.07 0.14 0 1.87-1.13 3.46-0.87 4.78 0.81a8.17 8.17 0 0 1 1.84 5.51 10.22 10.22 0 0 1-1.34 4.75 6.64 6.64 0 0 1-1.31 2 11.36 11.36 0 0 0-1.28 1.46c-0.55 0.51-0.39 0.88 0.49 1.07a8.5 8.5 0 0 1 5.3 4.28 18.63 18.63 0 0 1 1.89 7.43 23.15 23.15 0 0 1-0.78 7.17 17 17 0 0 1-1.22 4.52 11 11 0 0 0-2.17 2.58c-0.12 0-0.14 0.1-0.12 0.21-0.14 0.28-0.34 0.74-0.6 1.39 0.16 0.18 0.3 0.25 0.42 0.23a11.24 11.24 0 0 1 5.49-3.58 10 10 0 0 1 6.45 0.12 10.51 10.51 0 0 1 5.05 4 20.34 20.34 0 0 1 2.52 5.47c0.14 0.78 0.23 1.34 0.32 1.64a1 1 0 0 0 1 0.48 0.69 0.69 0 0 0 0.62-0.81 13.1 13.1 0 0 1 1.75-8 10.33 10.33 0 0 1 7-5.07q0.81-0.24 0.54-1.11c-0.19-0.57-0.54-0.8-1.07-0.62-0.94 0.28-1.68-0.78-2.16-3.16a6.9 6.9 0 0 1-0.07-3.64 7.09 7.09 0 0 1 3.48-4.52 3.71 3.71 0 0 0 1.68-0.16 0.8 0.8 0 0 0 0.63-0.88 0.83 0.83 0 0 0-0.66-0.8zm-7.45 7.45a8.19 8.19 0 0 0 1.78 6.41 17.83 17.83 0 0 0-2.19 1.36 13.79 13.79 0 0 0-3.41 3.64 8.5 8.5 0 0 0-1.18 3 26.17 26.17 0 0 0-1.25-2.4 12 12 0 0 0-6.34-4.84 10.23 10.23 0 0 0-7.72 0.26 1.66 1.66 0 0 0-0.51 0.27 18 18 0 0 0 2.77-11.77 16.47 16.47 0 0 0-3-8.81 7 7 0 0 0-3.9-3.14 12.76 12.76 0 0 0 2.28-3.3 11.38 11.38 0 0 0 0.63-7.12 9 9 0 0 0-2.29-4.63 8.73 8.73 0 0 0 2.22-0.7 15 15 0 0 0 2.78-2.12 9.75 9.75 0 0 0 0.14 3.27 12.67 12.67 0 0 0 3.9 7.13 11.78 11.78 0 0 0 11.96 2.81 10.62 10.62 0 0 0 0.28 9.46 10.19 10.19 0 0 0 6.42 5.15 7.49 7.49 0 0 0-3.37 6.06zm7.45-7.45a22.78 22.78 0 0 1-4.84-1.13 7.57 7.57 0 0 1-3.48-3.49 7.8 7.8 0 0 1-1-2.4 8.91 8.91 0 0 1-0.21-2.7 9.65 9.65 0 0 1 0.6-2.63 9.87 9.87 0 0 1 1.34-2.4 1 1 0 0 0 0.09-1.15c-0.21-0.46-0.56-0.55-1-0.3a12.17 12.17 0 0 1-6.62 0.81 11.1 11.1 0 0 1-5.79-2.77 10.83 10.83 0 0 1-3.2-5.44c-0.35-1.52-0.23-4 0.32-7.56 0-0.58-0.18-0.93-0.67-1a0.86 0.86 0 0 0-1 0.67c-0.69 1.94-2.42 3.67-5.19 5.21-1.13 0.46-2.21 0.85-3.28 1.18a0.67 0.67 0 0 0-0.53 0c-2.19-0.36-3.62 0.3-4.26 2a0.21 0.21 0 0 0 0.11 0.32c0.14 0.07 0.19 0.07 0.14 0 1.87-1.13 3.46-0.87 4.78 0.81a8.17 8.17 0 0 1 1.84 5.51 10.22 10.22 0 0 1-1.34 4.75 6.64 6.64 0 0 1-1.31 2 11.36 11.36 0 0 0-1.28 1.46c-0.55 0.51-0.39 0.88 0.49 1.07a8.5 8.5 0 0 1 5.3 4.28 18.63 18.63 0 0 1 1.89 7.43 23.15 23.15 0 0 1-0.78 7.17 17 17 0 0 1-1.22 4.52 11 11 0 0 0-2.17 2.58c-0.12 0-0.14 0.1-0.12 0.21-0.14 0.28-0.34 0.74-0.6 1.39 0.16 0.18 0.3 0.25 0.42 0.23a11.24 11.24 0 0 1 5.49-3.58 10 10 0 0 1 6.45 0.12 10.51 10.51 0 0 1 5.05 4 20.34 20.34 0 0 1 2.52 5.47c0.14 0.78 0.23 1.34 0.32 1.64a1 1 0 0 0 1 0.48 0.69 0.69 0 0 0 0.62-0.81 13.1 13.1 0 0 1 1.75-8 10.33 10.33 0 0 1 7-5.07q0.81-0.24 0.54-1.11c-0.19-0.57-0.54-0.8-1.07-0.62-0.94 0.28-1.68-0.78-2.16-3.16a6.9 6.9 0 0 1-0.07-3.64 7.09 7.09 0 0 1 3.48-4.52 3.71 3.71 0 0 0 1.68-0.16 0.8 0.8 0 0 0 0.63-0.88 0.83 0.83 0 0 0-0.66-0.8zm-7.45 7.45a8.19 8.19 0 0 0 1.78 6.41 17.83 17.83 0 0 0-2.19 1.36 13.79 13.79 0 0 0-3.41 3.64 8.5 8.5 0 0 0-1.18 3 26.17 26.17 0 0 0-1.25-2.4 12 12 0 0 0-6.34-4.84 10.23 10.23 0 0 0-7.72 0.26 1.66 1.66 0 0 0-0.51 0.27 18 18 0 0 0 2.77-11.77 16.47 16.47 0 0 0-3-8.81 7 7 0 0 0-3.9-3.14 12.76 12.76 0 0 0 2.28-3.3 11.38 11.38 0 0 0 0.63-7.12 9 9 0 0 0-2.29-4.63 8.73 8.73 0 0 0 2.22-0.7 15 15 0 0 0 2.78-2.12 9.75 9.75 0 0 0 0.14 3.27 12.67 12.67 0 0 0 3.9 7.13 11.78 11.78 0 0 0 11.96 2.81 10.62 10.62 0 0 0 0.28 9.46 10.19 10.19 0 0 0 6.42 5.15 7.49 7.49 0 0 0-3.37 6.06zm7.45-7.45a22.78 22.78 0 0 1-4.84-1.13 7.57 7.57 0 0 1-3.48-3.49 7.8 7.8 0 0 1-1-2.4 8.91 8.91 0 0 1-0.21-2.7 9.65 9.65 0 0 1 0.6-2.63 9.87 9.87 0 0 1 1.34-2.4 1 1 0 0 0 0.09-1.15c-0.21-0.46-0.56-0.55-1-0.3a12.17 12.17 0 0 1-6.62 0.81 11.1 11.1 0 0 1-5.79-2.77 10.83 10.83 0 0 1-3.2-5.44c-0.35-1.52-0.23-4 0.32-7.56 0-0.58-0.18-0.93-0.67-1a0.86 0.86 0 0 0-1 0.67c-0.69 1.94-2.42 3.67-5.19 5.21-1.13 0.46-2.21 0.85-3.28 1.18a0.67 0.67 0 0 0-0.53 0c-2.19-0.36-3.62 0.3-4.26 2a0.21 0.21 0 0 0 0.11 0.32c0.14 0.07 0.19 0.07 0.14 0 1.87-1.13 3.46-0.87 4.78 0.81a8.17 8.17 0 0 1 1.84 5.51 10.22 10.22 0 0 1-1.34 4.75 6.64 6.64 0 0 1-1.31 2 11.36 11.36 0 0 0-1.28 1.46c-0.55 0.51-0.39 0.88 0.49 1.07a8.5 8.5 0 0 1 5.3 4.28 18.63 18.63 0 0 1 1.89 7.43 23.15 23.15 0 0 1-0.78 7.17 17 17 0 0 1-1.22 4.52 11 11 0 0 0-2.17 2.58c-0.12 0-0.14 0.1-0.12 0.21-0.14 0.28-0.34 0.74-0.6 1.39 0.16 0.18 0.3 0.25 0.42 0.23a11.24 11.24 0 0 1 5.49-3.58 10 10 0 0 1 6.45 0.12 10.51 10.51 0 0 1 5.05 4 20.34 20.34 0 0 1 2.52 5.47c0.14 0.78 0.23 1.34 0.32 1.64a1 1 0 0 0 1 0.48 0.69 0.69 0 0 0 0.62-0.81 13.1 13.1 0 0 1 1.75-8 10.33 10.33 0 0 1 7-5.07q0.81-0.24 0.54-1.11c-0.19-0.57-0.54-0.8-1.07-0.62-0.94 0.28-1.68-0.78-2.16-3.16a6.9 6.9 0 0 1-0.07-3.64 7.09 7.09 0 0 1 3.48-4.52 3.71 3.71 0 0 0 1.68-0.16 0.8 0.8 0 0 0 0.63-0.88 0.83 0.83 0 0 0-0.66-0.8zm-7.45 7.45a8.19 8.19 0 0 0 1.78 6.41 17.83 17.83 0 0 0-2.19 1.36 13.79 13.79 0 0 0-3.41 3.64 8.5 8.5 0 0 0-1.18 3 26.17 26.17 0 0 0-1.25-2.4 12 12 0 0 0-6.34-4.84 10.23 10.23 0 0 0-7.72 0.26 1.66 1.66 0 0 0-0.51 0.27 18 18 0 0 0 2.77-11.77 16.47 16.47 0 0 0-3-8.81 7 7 0 0 0-3.9-3.14 12.76 12.76 0 0 0 2.28-3.3 11.38 11.38 0 0 0 0.63-7.12 9 9 0 0 0-2.29-4.63 8.73 8.73 0 0 0 2.22-0.7 15 15 0 0 0 2.78-2.12 9.75 9.75 0 0 0 0.14 3.27 12.67 12.67 0 0 0 3.9 7.13 11.78 11.78 0 0 0 11.96 2.81 10.62 10.62 0 0 0 0.28 9.46 10.19 10.19 0 0 0 6.42 5.15 7.49 7.49 0 0 0-3.37 6.06z"/>
   <path class="cls-2" d="m320 72.8a21.86 21.86 0 0 1-4.08-2.8 7.49 7.49 0 0 1-2-4.5 7.4 7.4 0 0 1 0-2.58 8.78 8.78 0 0 1 0.78-2.61 11.59 11.59 0 0 1 1.52-2.21 9.55 9.55 0 0 1 2.15-1.73 1.07 1.07 0 0 0 0.5-1c0-0.51-0.3-0.72-0.87-0.67a12 12 0 0 1-6.44-1.7 10.89 10.89 0 0 1-5.35-11c0.23-1.55 1.27-3.86 3.07-6.92 0.25-0.53 0.18-0.92-0.23-1.18a0.88 0.88 0 0 0-1.2 0.23c-1.34 1.55-3.6 2.54-6.73 3-1.23 0-2.38 0-3.49-0.11a0.64 0.64 0 0 0-0.48-0.21c-1.91-1.15-3.48-1.06-4.68 0.28a0.19 0.19 0 0 0-0.05 0.32c0.12 0.12 0.16 0.14 0.19 0a3.25 3.25 0 0 1 4.12 2.49 8.24 8.24 0 0 1-0.32 5.82 10.14 10.14 0 0 1-3 3.92 7 7 0 0 1-2 1.33 13 13 0 0 0-1.76 1c-0.66 0.28-0.64 0.67 0.1 1.15a8.46 8.46 0 0 1 3.34 6 18.47 18.47 0 0 1-1 7.59 23.08 23.08 0 0 1-3.34 6.39 16.79 16.79 0 0 1-2.75 3.74 11.77 11.77 0 0 0-2.95 1.59c-0.11 0-0.18 0-0.18 0.16a11.58 11.58 0 0 0-1.09 1.08c0.07 0.23 0.19 0.35 0.3 0.35a11.36 11.36 0 0 1 6.44-1.31 10 10 0 0 1 5.95 2.49 10.33 10.33 0 0 1 3.2 5.6 19.41 19.41 0 0 1 0.35 6 14.74 14.74 0 0 0-0.3 1.64 0.91 0.91 0 0 0 0.76 0.83 0.7 0.7 0 0 0 0.88-0.53 13.12 13.12 0 0 1 4.64-6.74 10.18 10.18 0 0 1 8.33-2.15c0.55 0 0.85-0.23 0.92-0.85s-0.21-0.92-0.76-1c-1-0.09-1.29-1.34-0.85-3.74a6.44 6.44 0 0 1 1.26-3.39 7.08 7.08 0 0 1 4.87-2.87 3.93 3.93 0 0 0 1.61 0.46 0.83 0.83 0 0 0 0.9-0.6 0.87 0.87 0 0 0-0.28-1.06zm-9.66 4.2a8.18 8.18 0 0 0-0.71 6.62 17 17 0 0 0-2.52 0.44 14.2 14.2 0 0 0-4.52 2.14 8.92 8.92 0 0 0-2.19 2.33 16.49 16.49 0 0 0-0.28-2.7 11.7 11.7 0 0 0-4.12-6.83 10.27 10.27 0 0 0-7.29-2.61 1.08 1.08 0 0 0-0.67 0.11 17.67 17.67 0 0 0 7-9.93 16.17 16.17 0 0 0 0.44-9.3 7 7 0 0 0-2.48-4.35 13.08 13.08 0 0 0 3.34-2.21 11.54 11.54 0 0 0 3.19-6.41 9.15 9.15 0 0 0-0.4-5.19 8.58 8.58 0 0 0 2.31 0.18 17.4 17.4 0 0 0 3.41-0.89 9.47 9.47 0 0 0-1.08 3.09 12.61 12.61 0 0 0 1 8.07 11.8 11.8 0 0 0 10.1 7 10.56 10.56 0 0 0-3.23 8.91 10.08 10.08 0 0 0 4.08 7.17 7.44 7.44 0 0 0-5.38 4.36zm9.66-4.2a21.86 21.86 0 0 1-4.08-2.8 7.49 7.49 0 0 1-2-4.5 7.4 7.4 0 0 1 0-2.58 8.78 8.78 0 0 1 0.78-2.61 11.59 11.59 0 0 1 1.52-2.21 9.55 9.55 0 0 1 2.15-1.73 1.07 1.07 0 0 0 0.5-1c0-0.51-0.3-0.72-0.87-0.67a12 12 0 0 1-6.44-1.7 10.89 10.89 0 0 1-5.35-11c0.23-1.55 1.27-3.86 3.07-6.92 0.25-0.53 0.18-0.92-0.23-1.18a0.88 0.88 0 0 0-1.2 0.23c-1.34 1.55-3.6 2.54-6.73 3-1.23 0-2.38 0-3.49-0.11a0.64 0.64 0 0 0-0.48-0.21c-1.91-1.15-3.48-1.06-4.68 0.28a0.19 0.19 0 0 0-0.05 0.32c0.12 0.12 0.16 0.14 0.19 0a3.25 3.25 0 0 1 4.12 2.49 8.24 8.24 0 0 1-0.32 5.82 10.14 10.14 0 0 1-3 3.92 7 7 0 0 1-2 1.33 13 13 0 0 0-1.76 1c-0.66 0.28-0.64 0.67 0.1 1.15a8.46 8.46 0 0 1 3.34 6 18.47 18.47 0 0 1-1 7.59 23.08 23.08 0 0 1-3.34 6.39 16.79 16.79 0 0 1-2.75 3.74 11.77 11.77 0 0 0-2.95 1.59c-0.11 0-0.18 0-0.18 0.16a11.58 11.58 0 0 0-1.09 1.08c0.07 0.23 0.19 0.35 0.3 0.35a11.36 11.36 0 0 1 6.44-1.31 10 10 0 0 1 5.95 2.49 10.33 10.33 0 0 1 3.2 5.6 19.41 19.41 0 0 1 0.35 6 14.74 14.74 0 0 0-0.3 1.64 0.91 0.91 0 0 0 0.76 0.83 0.7 0.7 0 0 0 0.88-0.53 13.12 13.12 0 0 1 4.64-6.74 10.18 10.18 0 0 1 8.33-2.15c0.55 0 0.85-0.23 0.92-0.85s-0.21-0.92-0.76-1c-1-0.09-1.29-1.34-0.85-3.74a6.44 6.44 0 0 1 1.26-3.39 7.08 7.08 0 0 1 4.87-2.87 3.93 3.93 0 0 0 1.61 0.46 0.83 0.83 0 0 0 0.9-0.6 0.87 0.87 0 0 0-0.28-1.06zm-9.66 4.2a8.18 8.18 0 0 0-0.71 6.62 17 17 0 0 0-2.52 0.44 14.2 14.2 0 0 0-4.52 2.14 8.92 8.92 0 0 0-2.19 2.33 16.49 16.49 0 0 0-0.28-2.7 11.7 11.7 0 0 0-4.12-6.83 10.27 10.27 0 0 0-7.29-2.61 1.08 1.08 0 0 0-0.67 0.11 17.67 17.67 0 0 0 7-9.93 16.17 16.17 0 0 0 0.44-9.3 7 7 0 0 0-2.48-4.35 13.08 13.08 0 0 0 3.34-2.21 11.54 11.54 0 0 0 3.19-6.41 9.15 9.15 0 0 0-0.4-5.19 8.58 8.58 0 0 0 2.31 0.18 17.4 17.4 0 0 0 3.41-0.89 9.47 9.47 0 0 0-1.08 3.09 12.61 12.61 0 0 0 1 8.07 11.8 11.8 0 0 0 10.1 7 10.56 10.56 0 0 0-3.23 8.91 10.08 10.08 0 0 0 4.08 7.17 7.44 7.44 0 0 0-5.38 4.36zm9.66-4.2a21.86 21.86 0 0 1-4.08-2.8 7.49 7.49 0 0 1-2-4.5 7.4 7.4 0 0 1 0-2.58 8.78 8.78 0 0 1 0.78-2.61 11.59 11.59 0 0 1 1.52-2.21 9.55 9.55 0 0 1 2.15-1.73 1.07 1.07 0 0 0 0.5-1c0-0.51-0.3-0.72-0.87-0.67a12 12 0 0 1-6.44-1.7 10.89 10.89 0 0 1-5.35-11c0.23-1.55 1.27-3.86 3.07-6.92 0.25-0.53 0.18-0.92-0.23-1.18a0.88 0.88 0 0 0-1.2 0.23c-1.34 1.55-3.6 2.54-6.73 3-1.23 0-2.38 0-3.49-0.11a0.64 0.64 0 0 0-0.48-0.21c-1.91-1.15-3.48-1.06-4.68 0.28a0.19 0.19 0 0 0-0.05 0.32c0.12 0.12 0.16 0.14 0.19 0a3.25 3.25 0 0 1 4.12 2.49 8.24 8.24 0 0 1-0.32 5.82 10.14 10.14 0 0 1-3 3.92 7 7 0 0 1-2 1.33 13 13 0 0 0-1.76 1c-0.66 0.28-0.64 0.67 0.1 1.15a8.46 8.46 0 0 1 3.34 6 18.47 18.47 0 0 1-1 7.59 23.08 23.08 0 0 1-3.34 6.39 16.79 16.79 0 0 1-2.75 3.74 11.77 11.77 0 0 0-2.95 1.59c-0.11 0-0.18 0-0.18 0.16a11.58 11.58 0 0 0-1.09 1.08c0.07 0.23 0.19 0.35 0.3 0.35a11.36 11.36 0 0 1 6.44-1.31 10 10 0 0 1 5.95 2.49 10.33 10.33 0 0 1 3.2 5.6 19.41 19.41 0 0 1 0.35 6 14.74 14.74 0 0 0-0.3 1.64 0.91 0.91 0 0 0 0.76 0.83 0.7 0.7 0 0 0 0.88-0.53 13.12 13.12 0 0 1 4.64-6.74 10.18 10.18 0 0 1 8.33-2.15c0.55 0 0.85-0.23 0.92-0.85s-0.21-0.92-0.76-1c-1-0.09-1.29-1.34-0.85-3.74a6.44 6.44 0 0 1 1.26-3.39 7.08 7.08 0 0 1 4.87-2.87 3.93 3.93 0 0 0 1.61 0.46 0.83 0.83 0 0 0 0.9-0.6 0.87 0.87 0 0 0-0.28-1.06zm-9.66 4.2a8.18 8.18 0 0 0-0.71 6.62 17 17 0 0 0-2.52 0.44 14.2 14.2 0 0 0-4.52 2.14 8.92 8.92 0 0 0-2.19 2.33 16.49 16.49 0 0 0-0.28-2.7 11.7 11.7 0 0 0-4.12-6.83 10.27 10.27 0 0 0-7.29-2.61 1.08 1.08 0 0 0-0.67 0.11 17.67 17.67 0 0 0 7-9.93 16.17 16.17 0 0 0 0.44-9.3 7 7 0 0 0-2.48-4.35 13.08 13.08 0 0 0 3.34-2.21 11.54 11.54 0 0 0 3.19-6.41 9.15 9.15 0 0 0-0.4-5.19 8.58 8.58 0 0 0 2.31 0.18 17.4 17.4 0 0 0 3.41-0.89 9.47 9.47 0 0 0-1.08 3.09 12.61 12.61 0 0 0 1 8.07 11.8 11.8 0 0 0 10.1 7 10.56 10.56 0 0 0-3.23 8.91 10.08 10.08 0 0 0 4.08 7.17 7.44 7.44 0 0 0-5.38 4.36zm9.66-4.2a21.86 21.86 0 0 1-4.08-2.8 7.49 7.49 0 0 1-2-4.5 7.4 7.4 0 0 1 0-2.58 8.78 8.78 0 0 1 0.78-2.61 11.59 11.59 0 0 1 1.52-2.21 9.55 9.55 0 0 1 2.15-1.73 1.07 1.07 0 0 0 0.5-1c0-0.51-0.3-0.72-0.87-0.67a12 12 0 0 1-6.44-1.7 10.89 10.89 0 0 1-5.35-11c0.23-1.55 1.27-3.86 3.07-6.92 0.25-0.53 0.18-0.92-0.23-1.18a0.88 0.88 0 0 0-1.2 0.23c-1.34 1.55-3.6 2.54-6.73 3-1.23 0-2.38 0-3.49-0.11a0.64 0.64 0 0 0-0.48-0.21c-1.91-1.15-3.48-1.06-4.68 0.28a0.19 0.19 0 0 0-0.05 0.32c0.12 0.12 0.16 0.14 0.19 0a3.25 3.25 0 0 1 4.12 2.49 8.24 8.24 0 0 1-0.32 5.82 10.14 10.14 0 0 1-3 3.92 7 7 0 0 1-2 1.33 13 13 0 0 0-1.76 1c-0.66 0.28-0.64 0.67 0.1 1.15a8.46 8.46 0 0 1 3.34 6 18.47 18.47 0 0 1-1 7.59 23.08 23.08 0 0 1-3.34 6.39 16.79 16.79 0 0 1-2.75 3.74 11.77 11.77 0 0 0-2.95 1.59c-0.11 0-0.18 0-0.18 0.16a11.58 11.58 0 0 0-1.09 1.08c0.07 0.23 0.19 0.35 0.3 0.35a11.36 11.36 0 0 1 6.44-1.31 10 10 0 0 1 5.95 2.49 10.33 10.33 0 0 1 3.2 5.6 19.41 19.41 0 0 1 0.35 6 14.74 14.74 0 0 0-0.3 1.64 0.91 0.91 0 0 0 0.76 0.83 0.7 0.7 0 0 0 0.88-0.53 13.12 13.12 0 0 1 4.64-6.74 10.18 10.18 0 0 1 8.33-2.15c0.55 0 0.85-0.23 0.92-0.85s-0.21-0.92-0.76-1c-1-0.09-1.29-1.34-0.85-3.74a6.44 6.44 0 0 1 1.26-3.39 7.08 7.08 0 0 1 4.87-2.87 3.93 3.93 0 0 0 1.61 0.46 0.83 0.83 0 0 0 0.9-0.6 0.87 0.87 0 0 0-0.28-1.06zm-9.66 4.2a8.18 8.18 0 0 0-0.71 6.62 17 17 0 0 0-2.52 0.44 14.2 14.2 0 0 0-4.52 2.14 8.92 8.92 0 0 0-2.19 2.33 16.49 16.49 0 0 0-0.28-2.7 11.7 11.7 0 0 0-4.12-6.83 10.27 10.27 0 0 0-7.29-2.61 1.08 1.08 0 0 0-0.67 0.11 17.67 17.67 0 0 0 7-9.93 16.17 16.17 0 0 0 0.44-9.3 7 7 0 0 0-2.48-4.35 13.08 13.08 0 0 0 3.34-2.21 11.54 11.54 0 0 0 3.19-6.41 9.15 9.15 0 0 0-0.4-5.19 8.58 8.58 0 0 0 2.31 0.18 17.4 17.4 0 0 0 3.41-0.89 9.47 9.47 0 0 0-1.08 3.09 12.61 12.61 0 0 0 1 8.07 11.8 11.8 0 0 0 10.1 7 10.56 10.56 0 0 0-3.23 8.91 10.08 10.08 0 0 0 4.08 7.17 7.44 7.44 0 0 0-5.38 4.36zm38-6a16.56 16.56 0 0 0 1.92-9 11.53 11.53 0 0 0-3.53-8 8.76 8.76 0 0 0-3.78-2.46 4.88 4.88 0 0 0 0.89-0.93 12.86 12.86 0 0 0 3.39-8.87 14.13 14.13 0 0 0-2.39-9.37 10.74 10.74 0 0 0-6.11-4.68 5.93 5.93 0 0 0 0.76-4.26 7 7 0 0 0-2.08-4 9.24 9.24 0 0 0-5.49-2.29 11.56 11.56 0 0 0-4 0.67 8.62 8.62 0 0 0 1.08-4.41 10.86 10.86 0 0 0-4.75-8.4 15.51 15.51 0 0 0-9.5-3.11 14 14 0 0 0-9.48 2.91 11.8 11.8 0 0 0-6.27-3.86 12.74 12.74 0 0 0-7.42 0.24 11.66 11.66 0 0 0-5.3 3.8 10.59 10.59 0 0 0-2.5 5.88 6.46 6.46 0 0 0-1.89-1.34 5.4 5.4 0 0 0-5.23 0.74 6.38 6.38 0 0 0-2.86 4.61 5.58 5.58 0 0 0 0 3.32l0.76 1.07a12.93 12.93 0 0 0-7.34 2.07 18.06 18.06 0 0 0-7.22 7.24 16.7 16.7 0 0 0-2.28 9.48 17.25 17.25 0 0 0 3.09 9.25c-4.48 1.63-7.24 6.22-8.31 13.81a11.93 11.93 0 0 0 1.5 8.12 17.17 17.17 0 0 0 6.18 6q-6.26 7.34-3.23 15.06a10 10 0 0 0 5.52 5.79c0 0.12 0.07 0.18 0.23 0.18a4.54 4.54 0 0 1 0.5 0.12 1.44 1.44 0 0 0 0.56 0.14 9.08 9.08 0 0 0-2 5.67 10.55 10.55 0 0 0 3.34 8.1 9.5 9.5 0 0 0 7.93 2.81 7.55 7.55 0 0 0 4.09-1.15 6.87 6.87 0 0 0 1.77-1.36h0.19c-0.1 2.33 1.24 4.4 4 6.23a18.85 18.85 0 0 0 8.07 3.25c3.51 0.5 6.25-0.28 8.19-2.33a10.13 10.13 0 0 0 1.71-2.52 4.86 4.86 0 0 0 0.71 1.39 4.58 4.58 0 0 0 3.9 1.31 5.77 5.77 0 0 0 3.5-2.05 5.65 5.65 0 0 0 0.95-1.57 10.5 10.5 0 0 0 4.1 2.81 16.66 16.66 0 0 0 11.79 0.65c3.39-0.83 5.81-3.09 7.22-6.73a9 9 0 0 0 0.9-4.94 7.94 7.94 0 0 0-0.88-3.57 7.66 7.66 0 0 0 6.16-4c1.45-2.65 1.59-5.1 0.44-7.29a5.82 5.82 0 0 0 2.9-0.92 8.6 8.6 0 0 0 2.33-2.15 9.57 9.57 0 0 0 1.38-2.56 10.66 10.66 0 0 0 0-5.42 8.44 8.44 0 0 0-2.54-4.61 10.94 10.94 0 0 0 4.41-4.57zm-6.48 3.8c-0.55 0.16-0.71 0.56-0.41 1.13a9.88 9.88 0 0 0 1.08 1.82 8.73 8.73 0 0 1 1.11 2 8 8 0 0 1 0.44 4.7c-0.67 2.73-2.7 4.46-6.09 5.17-0.69 0.16-0.88 0.55-0.6 1.13 0.09 0.32 0.21 0.83 0.39 1.52 0.23 2.35 0.05 4.06-0.6 5.12a6.88 6.88 0 0 1-5.76 3.18 0.69 0.69 0 0 0-0.7 0.53 0.86 0.86 0 0 0 0.1 0.93c1.15 2.1 1.1 4.66-0.14 7.65a8.09 8.09 0 0 1-6 5.51 18 18 0 0 1-9.13-0.41 10.34 10.34 0 0 1-6.58-5c-0.09-0.23-0.27-0.3-0.57-0.23s-0.37 0.26-0.28 0.49a9.08 9.08 0 0 0 1.36 3.62 4 4 0 0 1-1.11 1.22 5.88 5.88 0 0 1-2.9 0.94 2.45 2.45 0 0 1-2.31-0.36c-0.09-0.12-0.25-0.3-0.44-0.53s-0.37-0.37-0.48-0.37l-0.58-1.06a12.58 12.58 0 0 0-0.09-3 0.33 0.33 0 0 0-0.48-0.21c-0.21 0-0.35 0.14-0.37 0.48 0.37 2.47-0.65 4.32-3.05 5.58a10.2 10.2 0 0 1-7.15 1.07 12.4 12.4 0 0 1-6.43-3c-1.57-1.13-2.84-3.11-3.83-6a0.7 0.7 0 0 0-0.41-0.21 0.68 0.68 0 0 0-0.42 0.14 3 3 0 0 1-1.38 0.72 4.72 4.72 0 0 1-1.22 0.57 16.32 16.32 0 0 1-3.23 0.74 8.66 8.66 0 0 1-6.32-2.19 8.22 8.22 0 0 1-3-5.9 10.63 10.63 0 0 1 0.64-3.62 1.81 1.81 0 0 1 0.3-0.81 1.91 1.91 0 0 0 0.33-0.81c1.86 0.16 3.25-0.23 4.1-1.17v-0.33a15 15 0 0 1-2.05-0.32c-0.94-0.18-1.73-0.37-2.37-0.53a7.05 7.05 0 0 1-1.94-0.83 9 9 0 0 1-3.91-4.87q-2.6-6.88 2.95-13.58c0.37-0.42 0.3-0.81-0.23-1.2a17.82 17.82 0 0 1-5.58-5.12 10.92 10.92 0 0 1-1.18-8.1 19.74 19.74 0 0 1 2.45-7.29 16.4 16.4 0 0 1 5.09-5.26 1.2 1.2 0 0 1 0.21-0.48v-0.17a1.35 1.35 0 0 0-0.12-0.66 20.16 20.16 0 0 1-2.28-8.7 16.66 16.66 0 0 1 7.86-14.5 22.14 22.14 0 0 1 4.13-1.83 8.39 8.39 0 0 1 1.13-0.32c0.51-0.14 1-0.25 1.43-0.39a6.37 6.37 0 0 0 1.29-0.48c0.42-0.19 0.51-0.51 0.33-1a7.86 7.86 0 0 1-0.35-3.85 4.24 4.24 0 0 1 1.27-3.23q2.36-2.32 6 0.48a1.84 1.84 0 0 1 0.11 0.67 0.67 0.67 0 0 0 0.65 0.39 0.43 0.43 0 0 0 0.46-0.38 14.92 14.92 0 0 1 2.44-6.55 9.43 9.43 0 0 1 5.08-3.83 10 10 0 0 1 6.5 0.05 10.76 10.76 0 0 1 5.33 3.92 0.86 0.86 0 0 0 0.87 0.48 1.25 1.25 0 0 0 1-0.5q2.43-3.28 7.68-3.19c3.48 0 6.23 0.83 8.21 2.33a9.63 9.63 0 0 1 4.13 6.51 8.73 8.73 0 0 1-1.13 5.74v0.16c-0.1 0-0.17 0.09-0.19 0.32a2.44 2.44 0 0 1-0.9 0.93 0.44 0.44 0 0 0 0 0.57c0.16 0.19 0.3 0.23 0.41 0.12 0.58-0.39 1.34-1 2.31-1.64 3.48-0.6 6.18-0.28 8.07 1a5.28 5.28 0 0 1 2.3 3.44 3.58 3.58 0 0 1-1.38 3.64 1 1 0 0 0-0.35 1.13 1.26 1.26 0 0 0 0.86 0.9c3.46 1.18 5.65 2.7 6.62 4.54a15.53 15.53 0 0 1 1.68 7.82 13.51 13.51 0 0 1-2.24 7.11 13.74 13.74 0 0 1-2.21 2.49 8.23 8.23 0 0 1-1.57 1 7.73 7.73 0 0 0-1.59 0.94 0.48 0.48 0 0 0-0.12 0.49 0.42 0.42 0 0 0 0.4 0.37 6.11 6.11 0 0 0 3.79-1.44 6.38 6.38 0 0 0 1.45 0.79 13.12 13.12 0 0 1 2.65 2.21 10.1 10.1 0 0 1 2.28 6.69 18 18 0 0 1-1.38 7.06c-1.18 2.79-2.54 4.52-4.16 5.16zm-25.94-4.8a7.49 7.49 0 0 1-2-4.5 7.4 7.4 0 0 1 0-2.58 8.78 8.78 0 0 1 0.78-2.61 11.59 11.59 0 0 1 1.52-2.21 9.55 9.55 0 0 1 2.15-1.73 1.07 1.07 0 0 0 0.5-1c0-0.51-0.3-0.72-0.87-0.67a12 12 0 0 1-6.44-1.7 10.89 10.89 0 0 1-5.35-11c0.23-1.55 1.27-3.86 3.07-6.92 0.25-0.53 0.18-0.92-0.23-1.18a0.88 0.88 0 0 0-1.2 0.23c-1.34 1.55-3.6 2.54-6.73 3-1.23 0-2.38 0-3.49-0.11a0.64 0.64 0 0 0-0.48-0.21c-1.91-1.15-3.48-1.06-4.68 0.28a0.19 0.19 0 0 0-0.05 0.32c0.12 0.12 0.16 0.14 0.19 0a3.25 3.25 0 0 1 4.12 2.49 8.24 8.24 0 0 1-0.32 5.82 10.14 10.14 0 0 1-3 3.92 7 7 0 0 1-2 1.33 13 13 0 0 0-1.76 1c-0.66 0.28-0.64 0.67 0.1 1.15a8.46 8.46 0 0 1 3.34 6 18.47 18.47 0 0 1-1 7.59 23.08 23.08 0 0 1-3.34 6.39 16.79 16.79 0 0 1-2.75 3.74 11.77 11.77 0 0 0-2.95 1.59c-0.11 0-0.18 0-0.18 0.16a11.58 11.58 0 0 0-1.09 1.08c0.07 0.23 0.19 0.35 0.3 0.35a11.36 11.36 0 0 1 6.44-1.31 10 10 0 0 1 5.95 2.49 10.33 10.33 0 0 1 3.2 5.6 19.41 19.41 0 0 1 0.35 6 14.74 14.74 0 0 0-0.3 1.64 0.91 0.91 0 0 0 0.76 0.83 0.7 0.7 0 0 0 0.88-0.53 13.12 13.12 0 0 1 4.64-6.74 10.18 10.18 0 0 1 8.33-2.15c0.55 0 0.85-0.23 0.92-0.85s-0.21-0.92-0.76-1c-1-0.09-1.29-1.34-0.85-3.74a6.44 6.44 0 0 1 1.26-3.39 7.08 7.08 0 0 1 4.87-2.87 3.93 3.93 0 0 0 1.61 0.46 0.83 0.83 0 0 0 0.9-0.6 0.87 0.87 0 0 0-0.25-1 21.86 21.86 0 0 1-4.11-2.86zm-5.58 7a8.18 8.18 0 0 0-0.71 6.62 17 17 0 0 0-2.52 0.44 14.2 14.2 0 0 0-4.52 2.14 8.92 8.92 0 0 0-2.19 2.33 16.49 16.49 0 0 0-0.28-2.7 11.7 11.7 0 0 0-4.12-6.83 10.27 10.27 0 0 0-7.29-2.61 1.08 1.08 0 0 0-0.67 0.11 17.67 17.67 0 0 0 7-9.93 16.17 16.17 0 0 0 0.44-9.3 7 7 0 0 0-2.48-4.35 13.08 13.08 0 0 0 3.34-2.21 11.54 11.54 0 0 0 3.19-6.41 9.15 9.15 0 0 0-0.4-5.19 8.58 8.58 0 0 0 2.31 0.18 17.4 17.4 0 0 0 3.41-0.89 9.47 9.47 0 0 0-1.08 3.09 12.61 12.61 0 0 0 1 8.07 11.8 11.8 0 0 0 10.1 7 10.56 10.56 0 0 0-3.23 8.91 10.08 10.08 0 0 0 4.08 7.17 7.44 7.44 0 0 0-5.38 4.36zm9.66-4.2a21.86 21.86 0 0 1-4.08-2.8 7.49 7.49 0 0 1-2-4.5 7.4 7.4 0 0 1 0-2.58 8.78 8.78 0 0 1 0.78-2.61 11.59 11.59 0 0 1 1.52-2.21 9.55 9.55 0 0 1 2.15-1.73 1.07 1.07 0 0 0 0.5-1c0-0.51-0.3-0.72-0.87-0.67a12 12 0 0 1-6.44-1.7 10.89 10.89 0 0 1-5.35-11c0.23-1.55 1.27-3.86 3.07-6.92 0.25-0.53 0.18-0.92-0.23-1.18a0.88 0.88 0 0 0-1.2 0.23c-1.34 1.55-3.6 2.54-6.73 3-1.23 0-2.38 0-3.49-0.11a0.64 0.64 0 0 0-0.48-0.21c-1.91-1.15-3.48-1.06-4.68 0.28a0.19 0.19 0 0 0-0.05 0.32c0.12 0.12 0.16 0.14 0.19 0a3.25 3.25 0 0 1 4.12 2.49 8.24 8.24 0 0 1-0.32 5.82 10.14 10.14 0 0 1-3 3.92 7 7 0 0 1-2 1.33 13 13 0 0 0-1.76 1c-0.66 0.28-0.64 0.67 0.1 1.15a8.46 8.46 0 0 1 3.34 6 18.47 18.47 0 0 1-1 7.59 23.08 23.08 0 0 1-3.34 6.39 16.79 16.79 0 0 1-2.75 3.74 11.77 11.77 0 0 0-2.95 1.59c-0.11 0-0.18 0-0.18 0.16a11.58 11.58 0 0 0-1.09 1.08c0.07 0.23 0.19 0.35 0.3 0.35a11.36 11.36 0 0 1 6.44-1.31 10 10 0 0 1 5.95 2.49 10.33 10.33 0 0 1 3.2 5.6 19.41 19.41 0 0 1 0.35 6 14.74 14.74 0 0 0-0.3 1.64 0.91 0.91 0 0 0 0.76 0.83 0.7 0.7 0 0 0 0.88-0.53 13.12 13.12 0 0 1 4.64-6.74 10.18 10.18 0 0 1 8.33-2.15c0.55 0 0.85-0.23 0.92-0.85s-0.21-0.92-0.76-1c-1-0.09-1.29-1.34-0.85-3.74a6.44 6.44 0 0 1 1.26-3.39 7.08 7.08 0 0 1 4.87-2.87 3.93 3.93 0 0 0 1.61 0.46 0.83 0.83 0 0 0 0.9-0.6 0.87 0.87 0 0 0-0.28-1.06zm-9.66 4.2a8.18 8.18 0 0 0-0.71 6.62 17 17 0 0 0-2.52 0.44 14.2 14.2 0 0 0-4.52 2.14 8.92 8.92 0 0 0-2.19 2.33 16.49 16.49 0 0 0-0.28-2.7 11.7 11.7 0 0 0-4.12-6.83 10.27 10.27 0 0 0-7.29-2.61 1.08 1.08 0 0 0-0.67 0.11 17.67 17.67 0 0 0 7-9.93 16.17 16.17 0 0 0 0.44-9.3 7 7 0 0 0-2.48-4.35 13.08 13.08 0 0 0 3.34-2.21 11.54 11.54 0 0 0 3.19-6.41 9.15 9.15 0 0 0-0.4-5.19 8.58 8.58 0 0 0 2.31 0.18 17.4 17.4 0 0 0 3.41-0.89 9.47 9.47 0 0 0-1.08 3.09 12.61 12.61 0 0 0 1 8.07 11.8 11.8 0 0 0 10.1 7 10.56 10.56 0 0 0-3.23 8.91 10.08 10.08 0 0 0 4.08 7.17 7.44 7.44 0 0 0-5.38 4.36zm9.66-4.2a21.86 21.86 0 0 1-4.08-2.8 7.49 7.49 0 0 1-2-4.5 7.4 7.4 0 0 1 0-2.58 8.78 8.78 0 0 1 0.78-2.61 11.59 11.59 0 0 1 1.52-2.21 9.55 9.55 0 0 1 2.15-1.73 1.07 1.07 0 0 0 0.5-1c0-0.51-0.3-0.72-0.87-0.67a12 12 0 0 1-6.44-1.7 10.89 10.89 0 0 1-5.35-11c0.23-1.55 1.27-3.86 3.07-6.92 0.25-0.53 0.18-0.92-0.23-1.18a0.88 0.88 0 0 0-1.2 0.23c-1.34 1.55-3.6 2.54-6.73 3-1.23 0-2.38 0-3.49-0.11a0.64 0.64 0 0 0-0.48-0.21c-1.91-1.15-3.48-1.06-4.68 0.28a0.19 0.19 0 0 0-0.05 0.32c0.12 0.12 0.16 0.14 0.19 0a3.25 3.25 0 0 1 4.12 2.49 8.24 8.24 0 0 1-0.32 5.82 10.14 10.14 0 0 1-3 3.92 7 7 0 0 1-2 1.33 13 13 0 0 0-1.76 1c-0.66 0.28-0.64 0.67 0.1 1.15a8.46 8.46 0 0 1 3.34 6 18.47 18.47 0 0 1-1 7.59 23.08 23.08 0 0 1-3.34 6.39 16.79 16.79 0 0 1-2.75 3.74 11.77 11.77 0 0 0-2.95 1.59c-0.11 0-0.18 0-0.18 0.16a11.58 11.58 0 0 0-1.09 1.08c0.07 0.23 0.19 0.35 0.3 0.35a11.36 11.36 0 0 1 6.44-1.31 10 10 0 0 1 5.95 2.49 10.33 10.33 0 0 1 3.2 5.6 19.41 19.41 0 0 1 0.35 6 14.74 14.74 0 0 0-0.3 1.64 0.91 0.91 0 0 0 0.76 0.83 0.7 0.7 0 0 0 0.88-0.53 13.12 13.12 0 0 1 4.64-6.74 10.18 10.18 0 0 1 8.33-2.15c0.55 0 0.85-0.23 0.92-0.85s-0.21-0.92-0.76-1c-1-0.09-1.29-1.34-0.85-3.74a6.44 6.44 0 0 1 1.26-3.39 7.08 7.08 0 0 1 4.87-2.87 3.93 3.93 0 0 0 1.61 0.46 0.83 0.83 0 0 0 0.9-0.6 0.87 0.87 0 0 0-0.28-1.06zm-9.66 4.2a8.18 8.18 0 0 0-0.71 6.62 17 17 0 0 0-2.52 0.44 14.2 14.2 0 0 0-4.52 2.14 8.92 8.92 0 0 0-2.19 2.33 16.49 16.49 0 0 0-0.28-2.7 11.7 11.7 0 0 0-4.12-6.83 10.27 10.27 0 0 0-7.29-2.61 1.08 1.08 0 0 0-0.67 0.11 17.67 17.67 0 0 0 7-9.93 16.17 16.17 0 0 0 0.44-9.3 7 7 0 0 0-2.48-4.35 13.08 13.08 0 0 0 3.34-2.21 11.54 11.54 0 0 0 3.19-6.41 9.15 9.15 0 0 0-0.4-5.19 8.58 8.58 0 0 0 2.31 0.18 17.4 17.4 0 0 0 3.41-0.89 9.47 9.47 0 0 0-1.08 3.09 12.61 12.61 0 0 0 1 8.07 11.8 11.8 0 0 0 10.1 7 10.56 10.56 0 0 0-3.23 8.91 10.08 10.08 0 0 0 4.08 7.17 7.44 7.44 0 0 0-5.38 4.36zm9.66-4.2a21.86 21.86 0 0 1-4.08-2.8 7.49 7.49 0 0 1-2-4.5 7.4 7.4 0 0 1 0-2.58 8.78 8.78 0 0 1 0.78-2.61 11.59 11.59 0 0 1 1.52-2.21 9.55 9.55 0 0 1 2.15-1.73 1.07 1.07 0 0 0 0.5-1c0-0.51-0.3-0.72-0.87-0.67a12 12 0 0 1-6.44-1.7 10.89 10.89 0 0 1-5.35-11c0.23-1.55 1.27-3.86 3.07-6.92 0.25-0.53 0.18-0.92-0.23-1.18a0.88 0.88 0 0 0-1.2 0.23c-1.34 1.55-3.6 2.54-6.73 3-1.23 0-2.38 0-3.49-0.11a0.64 0.64 0 0 0-0.48-0.21c-1.91-1.15-3.48-1.06-4.68 0.28a0.19 0.19 0 0 0-0.05 0.32c0.12 0.12 0.16 0.14 0.19 0a3.25 3.25 0 0 1 4.12 2.49 8.24 8.24 0 0 1-0.32 5.82 10.14 10.14 0 0 1-3 3.92 7 7 0 0 1-2 1.33 13 13 0 0 0-1.76 1c-0.66 0.28-0.64 0.67 0.1 1.15a8.46 8.46 0 0 1 3.34 6 18.47 18.47 0 0 1-1 7.59 23.08 23.08 0 0 1-3.34 6.39 16.79 16.79 0 0 1-2.75 3.74 11.77 11.77 0 0 0-2.95 1.59c-0.11 0-0.18 0-0.18 0.16a11.58 11.58 0 0 0-1.09 1.08c0.07 0.23 0.19 0.35 0.3 0.35a11.36 11.36 0 0 1 6.44-1.31 10 10 0 0 1 5.95 2.49 10.33 10.33 0 0 1 3.2 5.6 19.41 19.41 0 0 1 0.35 6 14.74 14.74 0 0 0-0.3 1.64 0.91 0.91 0 0 0 0.76 0.83 0.7 0.7 0 0 0 0.88-0.53 13.12 13.12 0 0 1 4.64-6.74 10.18 10.18 0 0 1 8.33-2.15c0.55 0 0.85-0.23 0.92-0.85s-0.21-0.92-0.76-1c-1-0.09-1.29-1.34-0.85-3.74a6.44 6.44 0 0 1 1.26-3.39 7.08 7.08 0 0 1 4.87-2.87 3.93 3.93 0 0 0 1.61 0.46 0.83 0.83 0 0 0 0.9-0.6 0.87 0.87 0 0 0-0.28-1.06zm-9.66 4.2a8.18 8.18 0 0 0-0.71 6.62 17 17 0 0 0-2.52 0.44 14.2 14.2 0 0 0-4.52 2.14 8.92 8.92 0 0 0-2.19 2.33 16.49 16.49 0 0 0-0.28-2.7 11.7 11.7 0 0 0-4.12-6.83 10.27 10.27 0 0 0-7.29-2.61 1.08 1.08 0 0 0-0.67 0.11 17.67 17.67 0 0 0 7-9.93 16.17 16.17 0 0 0 0.44-9.3 7 7 0 0 0-2.48-4.35 13.08 13.08 0 0 0 3.34-2.21 11.54 11.54 0 0 0 3.19-6.41 9.15 9.15 0 0 0-0.4-5.19 8.58 8.58 0 0 0 2.31 0.18 17.4 17.4 0 0 0 3.41-0.89 9.47 9.47 0 0 0-1.08 3.09 12.61 12.61 0 0 0 1 8.07 11.8 11.8 0 0 0 10.1 7 10.56 10.56 0 0 0-3.23 8.91 10.08 10.08 0 0 0 4.08 7.17 7.44 7.44 0 0 0-5.38 4.36zm9.66-4.2a21.86 21.86 0 0 1-4.08-2.8 7.49 7.49 0 0 1-2-4.5 7.4 7.4 0 0 1 0-2.58 8.78 8.78 0 0 1 0.78-2.61 11.59 11.59 0 0 1 1.52-2.21 9.55 9.55 0 0 1 2.15-1.73 1.07 1.07 0 0 0 0.5-1c0-0.51-0.3-0.72-0.87-0.67a12 12 0 0 1-6.44-1.7 10.89 10.89 0 0 1-5.35-11c0.23-1.55 1.27-3.86 3.07-6.92 0.25-0.53 0.18-0.92-0.23-1.18a0.88 0.88 0 0 0-1.2 0.23c-1.34 1.55-3.6 2.54-6.73 3-1.23 0-2.38 0-3.49-0.11a0.64 0.64 0 0 0-0.48-0.21c-1.91-1.15-3.48-1.06-4.68 0.28a0.19 0.19 0 0 0-0.05 0.32c0.12 0.12 0.16 0.14 0.19 0a3.25 3.25 0 0 1 4.12 2.49 8.24 8.24 0 0 1-0.32 5.82 10.14 10.14 0 0 1-3 3.92 7 7 0 0 1-2 1.33 13 13 0 0 0-1.76 1c-0.66 0.28-0.64 0.67 0.1 1.15a8.46 8.46 0 0 1 3.34 6 18.47 18.47 0 0 1-1 7.59 23.08 23.08 0 0 1-3.34 6.39 16.79 16.79 0 0 1-2.75 3.74 11.77 11.77 0 0 0-2.95 1.59c-0.11 0-0.18 0-0.18 0.16a11.58 11.58 0 0 0-1.09 1.08c0.07 0.23 0.19 0.35 0.3 0.35a11.36 11.36 0 0 1 6.44-1.31 10 10 0 0 1 5.95 2.49 10.33 10.33 0 0 1 3.2 5.6 19.41 19.41 0 0 1 0.35 6 14.74 14.74 0 0 0-0.3 1.64 0.91 0.91 0 0 0 0.76 0.83 0.7 0.7 0 0 0 0.88-0.53 13.12 13.12 0 0 1 4.64-6.74 10.18 10.18 0 0 1 8.33-2.15c0.55 0 0.85-0.23 0.92-0.85s-0.21-0.92-0.76-1c-1-0.09-1.29-1.34-0.85-3.74a6.44 6.44 0 0 1 1.26-3.39 7.08 7.08 0 0 1 4.87-2.87 3.93 3.93 0 0 0 1.61 0.46 0.83 0.83 0 0 0 0.9-0.6 0.87 0.87 0 0 0-0.28-1.06zm-9.66 4.2a8.18 8.18 0 0 0-0.71 6.62 17 17 0 0 0-2.52 0.44 14.2 14.2 0 0 0-4.52 2.14 8.92 8.92 0 0 0-2.19 2.33 16.49 16.49 0 0 0-0.28-2.7 11.7 11.7 0 0 0-4.12-6.83 10.27 10.27 0 0 0-7.29-2.61 1.08 1.08 0 0 0-0.67 0.11 17.67 17.67 0 0 0 7-9.93 16.17 16.17 0 0 0 0.44-9.3 7 7 0 0 0-2.48-4.35 13.08 13.08 0 0 0 3.34-2.21 11.54 11.54 0 0 0 3.19-6.41 9.15 9.15 0 0 0-0.4-5.19 8.58 8.58 0 0 0 2.31 0.18 17.4 17.4 0 0 0 3.41-0.89 9.47 9.47 0 0 0-1.08 3.09 12.61 12.61 0 0 0 1 8.07 11.8 11.8 0 0 0 10.1 7 10.56 10.56 0 0 0-3.23 8.91 10.08 10.08 0 0 0 4.08 7.17 7.44 7.44 0 0 0-5.38 4.36z"/>
   <path class="cls-2" d="m426.22 128.63a7.22 7.22 0 0 0-6-0.09 5.64 5.64 0 0 0-1 0.62 7.49 7.49 0 0 0-1.16-5 12.35 12.35 0 0 0-5.88-4.26 14.87 14.87 0 0 0-11.85 1.38c-0.32-3.71-2.1-6.2-5.28-7.47a7.11 7.11 0 0 0-6.23 0.37 1.49 1.49 0 0 0 0-0.53 4.83 4.83 0 0 0-0.85-2.42 4.28 4.28 0 0 0-1.53-1.46 8 8 0 0 0 4.18-3 9.24 9.24 0 0 0 1.7-9.48 8.68 8.68 0 0 0 6.07-4.66 8.16 8.16 0 0 0-0.16-7.43q7.39-1.62 9.94-8.14a13.15 13.15 0 0 0 1-7.08 9.54 9.54 0 0 0-1.76-4.86 14.14 14.14 0 0 0 5.93-4.57 17.91 17.91 0 0 0 3.4-6.55 15.72 15.72 0 0 0-0.41-9.2q-1.53-4.56-4.5-5.6a4 4 0 0 0 0.42-0.53 6 6 0 0 0 1.22-1.83 8.38 8.38 0 0 0 1.11-3.87 7 7 0 0 0-3.79-6.76 11.34 11.34 0 0 0-6.45-1.5 9.31 9.31 0 0 0-6 2.22c-0.53-1.73-2-3-4.24-3.85a8.44 8.44 0 0 0-8.3 0.85 8.31 8.31 0 0 0-4.39 6.92 8.17 8.17 0 0 0 0.59 4.15c0.21 0.35 0.79 1.11 1.69 2.26a7.31 7.31 0 0 0-4.75 6.2 7.07 7.07 0 0 0 1 5.26 5.58 5.58 0 0 0-5.38 2.42 5.94 5.94 0 0 0-0.23 6.32 12.47 12.47 0 0 0-9.57 7q-2.55 5.4 0.56 12c-5.28 3.62-8.4 7.66-9.39 12.08a24.77 24.77 0 0 0 0.58 13.52 8.19 8.19 0 0 0-5.05 3.29c-1.45 2-1.59 4.39-0.44 7.15a11.36 11.36 0 0 0-2.35 1.09 7.75 7.75 0 0 0-4 5.44 6.62 6.62 0 0 0 0.88 6.27 6.72 6.72 0 0 0 6.46 3.44 7.61 7.61 0 0 0 3.52-1.27c-0.34 1.8 0.3 3.53 1.94 5.23a14.46 14.46 0 0 0 5.6 3.67 15.81 15.81 0 0 0 8.42 0.85 15.45 15.45 0 0 0 4.43-1.56 7.63 7.63 0 0 0 0 4.49 5.18 5.18 0 0 0 2.93 3.3 5.73 5.73 0 0 0 4 0.37 7.63 7.63 0 0 0 3.65-2.24 14 14 0 0 0 1.73 4.5 18.56 18.56 0 0 0 7.56 6.89 19.94 19.94 0 0 0 10.08 2.38 6.76 6.76 0 0 0 5.93-4 8.2 8.2 0 0 0 5.07 0.18 9.59 9.59 0 0 0 6.13-4.03 7 7 0 0 0 0.83-6.78 2.09 2.09 0 0 0-0.55-0.81 0.52 0.52 0 0 0 0.39 0 2.09 2.09 0 0 1 0.44-0.16 7.57 7.57 0 0 0 2.56-1.18c2.21-1.54 3.18-3.34 2.93-5.42a5.45 5.45 0 0 0-3.38-4.52zm-0.64 7.59a6.14 6.14 0 0 1-2.06 1.22c-0.39 0.07-0.71 0.09-1 0.12s-0.32 0.14-0.57 0.25a3.65 3.65 0 0 1-0.6 0.28 3.59 3.59 0 0 0-2.54-0.83 0.45 0.45 0 0 0-0.57 0.46 0.67 0.67 0 0 0 0.39 0.74c1.75 0.94 2.72 2.09 2.95 3.41a5.07 5.07 0 0 1-0.95 4.33 6.77 6.77 0 0 1-3.43 2.61c-2.49 0.88-4.29 0.9-5.33 0a1 1 0 0 0-1.24-0.11 1.24 1.24 0 0 0-0.6 0.9c0 1.24-1 2.17-3.14 2.74a13.88 13.88 0 0 1-4 0 19.56 19.56 0 0 1-7.2-2.49 17.8 17.8 0 0 1-5.6-5.06c-0.92-1.15-1.62-3.15-2.12-5.94l0.2-0.47c0.14-0.3 0.05-0.46-0.3-0.5-0.36-0.56-0.73-0.53-1.13 0a1.62 1.62 0 0 1 0 0.51 23.51 23.51 0 0 1-2.86 2.14 5.63 5.63 0 0 1-3.65 0.3q-3.29-1.17-1.4-7.47c0.07-0.44-0.07-0.72-0.44-0.83a0.82 0.82 0 0 0-0.92 0.21 8.76 8.76 0 0 1-5.65 2.81 15.34 15.34 0 0 1-6.85-0.48 16.54 16.54 0 0 1-6.16-3.46 5.61 5.61 0 0 1-2.12-5.42 2 2 0 0 0 0.69-1.5l-0.14-0.07c0 0.12-0.25 0.25-0.57 0.46-0.12 0-0.21 0-0.3 0.23l-1.18 0.56a5.73 5.73 0 0 1-2.35 0.71 5.28 5.28 0 0 1-4.66-2.21 5.35 5.35 0 0 1-0.92-4.48 6.47 6.47 0 0 1 2.51-3.94 30.12 30.12 0 0 1 5.31-2.65 0.27 0.27 0 0 0 0.2-0.26c0-0.11-0.11-0.23-0.3-0.32a7.11 7.11 0 0 0-2-0.41 5.39 5.39 0 0 1 1-5.15 6.14 6.14 0 0 1 4.82-2.4 1 1 0 0 0 1.11-0.57 1.18 1.18 0 0 0 0.11-1.25q-3.74-8-1.63-13.63c1.27-3.92 4.54-7.63 9.87-11.11 0.71-0.51 0.8-1.22 0.25-2.1q-3.56-5.71-1.27-10.52a9.94 9.94 0 0 1 9.46-6 0.93 0.93 0 0 0 1.08-0.76 1.54 1.54 0 0 0-0.39-1.48 3.81 3.81 0 0 1-0.72-4.93 4.65 4.65 0 0 1 4.71-2.36 5.47 5.47 0 0 0 1.43 0.49c0.21 0.09 0.32 0 0.37-0.39-0.12-0.53-0.33-1.2-0.6-2a18.57 18.57 0 0 1-0.69-2.24 6.35 6.35 0 0 1-0.19-1.94c0.35-2 1.82-3.85 4.41-5.44a0.83 0.83 0 0 0 0.32-0.67 1 1 0 0 0-0.43-0.86c-1.27-1-1.86-2.79-1.82-5.46a6.65 6.65 0 0 1 2.56-5 6.77 6.77 0 0 1 5.65-1.27 7 7 0 0 1 4.71 3.05l-0.56 1.2a0.41 0.41 0 0 0 0.19 0.55c0.23 0.19 0.39 0.16 0.48-0.05a9.36 9.36 0 0 1 5.88-3.27 8 8 0 0 1 6.41 1.38 5.27 5.27 0 0 1 2.05 5.38 11.42 11.42 0 0 1-1 2.83l-0.44 1.36c-0.25 0.79-0.46 1.23-0.6 1.27a1.69 1.69 0 0 0-0.18 0.92c0.05 0.33 0.18 0.49 0.42 0.49 2.14 0.64 3.52 2.77 4.15 6.36a16.38 16.38 0 0 1-0.21 7.45 15.73 15.73 0 0 1-3.88 6.25 29 29 0 0 1-6.15 4.06 0.64 0.64 0 0 0-0.3 0.85c0.11 0.37 0.34 0.51 0.62 0.4a13.59 13.59 0 0 0 1.94-0.19 9.85 9.85 0 0 1 0.41 1.48c0.09 0.55 0.26 1.54 0.42 3a11.16 11.16 0 0 1-1 5.95 12.21 12.21 0 0 1-3.69 4.87 11 11 0 0 1-5.51 2.53c-1.09 0.23-1.36 0.79-0.79 1.66a6.67 6.67 0 0 1 0.37 6.6c-1.2 2.51-3 3.8-5.35 3.9-0.87 0.07-1.17 0.55-0.85 1.43q1.45 5.11-1.36 8.74a16.53 16.53 0 0 1-3.14 2.72 8.23 8.23 0 0 1-2.19 0.71c-0.94 0.23-1.59 0.39-1.87 0.49s-0.2 0.27 0 0.39a3.22 3.22 0 0 0 2.47 0.23l0.07 0.23 0.44 0.21 0.46 0.21 0.16 0.06 0.14 0.07a6.38 6.38 0 0 1 0.6 0.67l0.16 0.07 0.14 0.07-0.01 0.15a0.43 0.43 0 0 1 0.21 0.18c0 0.1 0.07 0.14 0.18 0.19l-0.07 0.16 0.07 0.21c0.16 0.2 0.21 0.34 0.16 0.46l0.14 0.07c0 0.09 0 0.16 0.09 0.21a1.4 1.4 0 0 1-0.07 0.53l0.1 0.2-0.1 0.16a1 1 0 0 1 0 0.51c-0.09 0.21-0.16 0.37-0.21 0.46a0.58 0.58 0 0 0-0.07 0.53 9.8 9.8 0 0 0-2 2.19c-0.21 0.14-0.18 0.35 0 0.56s0.42 0.25 0.6 0.09c0.35-0.21 1.2-0.71 2.58-1.55a1 1 0 0 0 0.58-0.43 5.79 5.79 0 0 1 5.49-0.72 5.87 5.87 0 0 1 3.32 3 8.42 8.42 0 0 1 0.69 4.72 1.25 1.25 0 0 0 0.79 1.29 1.2 1.2 0 0 0 1.47-0.23 11.29 11.29 0 0 1 10.79-2.6 8.92 8.92 0 0 1 4.66 3 8.47 8.47 0 0 1 1.82 5.47l0.1 0.2a5.24 5.24 0 0 0-1.16 2 0.51 0.51 0 0 0 0.33 0.51 0.27 0.27 0 0 0 0.43-0.14 9.59 9.59 0 0 1 3.44-2.6 6.31 6.31 0 0 1 4.22-0.4 3.17 3.17 0 0 1 2.42 2.63 3.29 3.29 0 0 1-1.42 3.36z"/>
   <path class="cls-2" d="m540.42 123.54a8.19 8.19 0 0 0-5.88-2.33l0.23-0.26a6 6 0 0 0 0.57-2.83 6.65 6.65 0 0 0-2.35-5.54 7.67 7.67 0 0 0-4.86-2.1 5.81 5.81 0 0 0-4.57 1.57 9.08 9.08 0 0 0-4.93-3 8.71 8.71 0 0 0-5.63 0.48 8.6 8.6 0 0 0-4.24 4.89 4.75 4.75 0 0 1-0.21 1 7.6 7.6 0 0 0-4.75-1.2 10.07 10.07 0 0 0-7.27 3 9.15 9.15 0 0 0-2.86 7.06 15.15 15.15 0 0 0 0.37 3 10.48 10.48 0 0 0-1.57-0.76 13.6 13.6 0 0 0-5.78-0.81 20.67 20.67 0 0 0-2.33 0.35 9.27 9.27 0 0 0 1.1-3.69 9.39 9.39 0 0 0-1.08-6.18 7.31 7.31 0 0 0 3.34-12 7.47 7.47 0 0 0 2.63-1.63 10.82 10.82 0 0 0 2.49-4.71c0.58-3.09 0.19-5.53-1.13-7.35a10.56 10.56 0 0 0 2.66-0.7 7.6 7.6 0 0 0 2.92-3 7.83 7.83 0 0 0 0.63-7.31 11 11 0 0 0-4.92-5.28c-2.45-1.5-4.71-1.85-6.8-1.06a1.47 1.47 0 0 1-0.14-0.58 6.56 6.56 0 0 0-3.58-3.94 7.36 7.36 0 0 0-3-0.95 2.34 2.34 0 0 0 0.32-0.6 8 8 0 0 0 0.21-3.41 5.58 5.58 0 0 0-5-4.59q-4.16-0.66-6.36 2.28a5.49 5.49 0 0 0-1.18 5.45 6.8 6.8 0 0 0-5.33 1.66 9.81 9.81 0 0 0-3.83 6.62 9.3 9.3 0 0 0 1 5.78 8.83 8.83 0 0 0 3.76 3.88c-0.07 0-0.14 0-0.23 0.14a13.08 13.08 0 0 0-3.84 2.51 15.5 15.5 0 0 0-5.18 7.6 13.21 13.21 0 0 0 0.26 7.22 11.36 11.36 0 0 0 4 5.88 6.33 6.33 0 0 0-4.88 6.32 6.21 6.21 0 0 0 1.73 4.75 2.35 2.35 0 0 0 0.85 0.55 7.73 7.73 0 0 0-4.5 4.43 7.48 7.48 0 0 0-0.51 4.48 11.18 11.18 0 0 0 0.81 2.32 4.26 4.26 0 0 0 0.86 1 7.41 7.41 0 0 0-7.52 2.56 8.49 8.49 0 0 0-1.89 3.78 7.48 7.48 0 0 0 0.13 4.29 11.5 11.5 0 0 0-1.52 0 10.49 10.49 0 0 0-7.17 2.91q-5.08 4.81-2.14 12.43c-2.77-0.42-5.19 0.62-7.27 3.14a9.79 9.79 0 0 0-2.47 8 6.55 6.55 0 0 0 2.59 3.8 10.5 10.5 0 0 0 4.24 2 7.7 7.7 0 0 0 2.95 0 7.35 7.35 0 0 0-0.62 1.91 6.32 6.32 0 0 0 1.66 6 6.16 6.16 0 0 0 6.23 2.33 8.9 8.9 0 0 0 5.55-4.61c0.14-0.33 0.35-0.88 0.63-1.66a6.76 6.76 0 0 0 2.39 1.06c2.73 1 5.59 0.62 8.65-1.09a14.61 14.61 0 0 0 6.53-6.87 7.56 7.56 0 0 0 0.67-5.67 10.35 10.35 0 0 0 5.88-1.36 13.51 13.51 0 0 0 4.79-4.41q3.33-4.59 3-8.95a0.46 0.46 0 0 1 0.34 0.12 3.47 3.47 0 0 0 2.86 0.81 4.21 4.21 0 0 0 3.11-1.43 0.9 0.9 0 0 0 0.21-0.49 0.88 0.88 0 0 1 0.32 0.53 5.8 5.8 0 0 0 0.21 0.63 1.46 1.46 0 0 0 0.26 0.46 9.58 9.58 0 0 0 6.94 5.21 9 9 0 0 0 7-1 9.4 9.4 0 0 0 4.48-5.6 7.8 7.8 0 0 0 5 1 9.7 9.7 0 0 0 5-1.92 6 6 0 0 0 2.72-4.93l-0.11-0.12a12.71 12.71 0 0 0 3.11 1.5 15.55 15.55 0 0 0 8 0.12 11.83 11.83 0 0 0 6.37-4.76 7.5 7.5 0 0 0 1.45-7c-0.09-0.23-0.25-0.63-0.51-1.16a0.94 0.94 0 0 0 0.42 0.17 0.83 0.83 0 0 1 0.41 0.13 11.14 11.14 0 0 0 4 0.53 4.82 4.82 0 0 0 3.09-2 5.45 5.45 0 0 0 1-3.46 8 8 0 0 0-2.99-5.34zm-2.42 8.67a16.76 16.76 0 0 1-2.56 0.57 4.76 4.76 0 0 1-1.66-0.39 2.65 2.65 0 0 1-0.32-0.39 1.89 1.89 0 0 0-0.3-0.39c-1.06-1-2-1.29-2.74-1l-0.12 0.14a3 3 0 0 0 0.76 1.25c0.42 0.46 0.74 0.78 1 1a7.66 7.66 0 0 1 1.06 3c0.26 2.17-0.89 4.27-3.48 6.25a8.47 8.47 0 0 1-3.66 2 17.53 17.53 0 0 1-4 0.19 10 10 0 0 1-7.45-3.69 0.52 0.52 0 0 0-0.42 0c-0.18 0.05-0.27 0.14-0.27 0.3a0.59 0.59 0 0 0-0.12 0.35v0.6a2.76 2.76 0 0 0 0.07 0.65 4.37 4.37 0 0 0 0.2 0.62 2.16 2.16 0 0 1 0.16 0.71 3.33 3.33 0 0 0 0 0.58 5.69 5.69 0 0 1-2.45 3.39 12.18 12.18 0 0 1-4.4 1.38 3.83 3.83 0 0 1-3.81-1.24 1.17 1.17 0 0 0-1.15-0.49 0.9 0.9 0 0 0-0.83 0.93 6.75 6.75 0 0 1-2.88 5.12 7.57 7.57 0 0 1-5.83 1.35 9.07 9.07 0 0 1-5.68-3.5 8.69 8.69 0 0 1-2.16-6.14l-0.23-0.23a4.16 4.16 0 0 0-0.93 3.21l-0.23 0.25-0.11 0.12-0.12 0.14-0.09 0.11c-0.09 0.07-0.23 0.26-0.46 0.49l-0.23 0.25-0.09 0.12-0.35 0.13-0.11 0.12a1.52 1.52 0 0 1-0.47 0.25l-0.11 0.12h-0.23l-0.12 0.12c-0.09-0.07-0.16-0.07-0.23 0h-0.48a0.3 0.3 0 0 1-0.28 0.07 0.26 0.26 0 0 0-0.3 0.07l-0.11-0.11h-0.23a5 5 0 0 1-0.86-0.3 3.17 3.17 0 0 1-1.06-0.56 6.72 6.72 0 0 0-2.28-3.41c-0.07-0.07-0.14-0.09-0.19 0s0 0.1 0.07 0.16a7.34 7.34 0 0 1 0.63 6.21 19.36 19.36 0 0 1-3.35 6.62 11.82 11.82 0 0 1-10.61 4.69 0.49 0.49 0 0 0-0.66 0.48 0.93 0.93 0 0 0 0.27 0.93 2.59 2.59 0 0 1 1.36 1.93 11 11 0 0 1-1.73 3.37 14.72 14.72 0 0 1-4.7 5.17 12 12 0 0 1-6.14 2 5.49 5.49 0 0 1-3-0.7c-0.16-0.16-0.44-0.41-0.85-0.78s-0.7-0.65-0.86-0.78-0.2-0.28-0.14-0.35l-0.73-0.67-0.49-0.46c-0.16-0.14-0.3-0.16-0.41 0s-0.12 0.23-0.05 0.3a0.14 0.14 0 0 1 0 0.23 3.76 3.76 0 0 0 0.21 2 9.64 9.64 0 0 1-0.48 2.24 7.8 7.8 0 0 1-3.85 3.46 3.36 3.36 0 0 1-4-0.76 5.27 5.27 0 0 1-1.94-4 5.1 5.1 0 0 1 1.13-3.46 4.52 4.52 0 0 0 0.81-0.62 3.75 3.75 0 0 0 0.6-0.92 2.65 2.65 0 0 1 0.39-0.65c0.14-0.18 0.16-0.3 0-0.41a0.48 0.48 0 0 0-0.54-0.05 6.43 6.43 0 0 1-2.35 1 7.35 7.35 0 0 1-3.57 0.33 6.55 6.55 0 0 1-3.53-1.55 5.07 5.07 0 0 1-1.84-3.13 7.79 7.79 0 0 1 2.53-6.23 9.1 9.1 0 0 1 6.25-2.4c0.69 0.05 0.92-0.28 0.67-1a6.74 6.74 0 0 1-1.06-3.66 8.47 8.47 0 0 1 0.9-3.86 13.84 13.84 0 0 1 2.21-3.27 11 11 0 0 1 5.05-2.56 14.14 14.14 0 0 1 3.19 0l1.43 0.39a15.5 15.5 0 0 0 1.66 0.41c0.23 0.07 0.34-0.07 0.32-0.36a3.65 3.65 0 0 0-1.73-2.06c-0.21-1.24-0.32-2.1-0.35-2.56a10.58 10.58 0 0 1 0.21-2.07 5.88 5.88 0 0 1 1-2.45c1.27-1.54 3.55-2.3 6.85-2.3 0.39 0.07 0.62-0.07 0.69-0.37a0.92 0.92 0 0 0-0.27-0.83 1.8 1.8 0 0 1-0.53-1c-0.1-0.48-0.26-1.4-0.46-2.81a7.17 7.17 0 0 1 0.29-3.76c0.56-1.75 2-3.39 4.48-4.91a4.5 4.5 0 0 0 1.87-0.32 0.21 0.21 0 0 0 0.23-0.23c0-0.17-0.14-0.28-0.37-0.35a4.56 4.56 0 0 1-3.39-2.19 6.3 6.3 0 0 1-0.72-2.91 4.64 4.64 0 0 1 1.57-3.43 5.81 5.81 0 0 1 3.51-1.62c0.39 0.07 0.62-0.11 0.73-0.55a0.83 0.83 0 0 0-0.46-1c-0.32-0.14-1.1-1.25-2.37-3.3a23.54 23.54 0 0 1-1.66-2.86 10.91 10.91 0 0 1-0.28-6.34 12.9 12.9 0 0 1 3.85-5.93q3.39-3.42 6-4.15a2.12 2.12 0 0 1 0.6 0.09 0.6 0.6 0 0 0 0.4-0.41c0-0.21-0.05-0.3-0.19-0.3a10.94 10.94 0 0 1-4.56-3.37 7.37 7.37 0 0 1-1.8-5.4 7.09 7.09 0 0 1 2.38-4.8 5.65 5.65 0 0 1 4.84-1.87 0.92 0.92 0 0 0 1.11-0.35 0.9 0.9 0 0 0 0-1.1c-0.58-0.86-0.21-2.24 1.13-4.18a4.68 4.68 0 0 1 3.92-1.56 3.42 3.42 0 0 1 3 2.32 4.36 4.36 0 0 1 0.33 2.1 4.61 4.61 0 0 1-0.3 1.32 5.42 5.42 0 0 0-3.62 3c-0.17 0.33-0.07 0.39 0.23 0.21a6.83 6.83 0 0 1 2.3-1.27 6.41 6.41 0 0 1 2.7-0.23 5.14 5.14 0 0 1 2.49 1 4.91 4.91 0 0 1 2.24 2.72 4.18 4.18 0 0 1 0.25 1.67 8.41 8.41 0 0 1-0.28 2c0.18 0.3 0.37 0.41 0.6 0.32a4.15 4.15 0 0 0 1.59-1.71 7.31 7.31 0 0 0 0.3-0.83 8.59 8.59 0 0 1 5.53 1.46 8.71 8.71 0 0 1 3.56 4.35 5.42 5.42 0 0 1-0.28 4.73c-1.22 2.47-2.95 3.88-5.21 4.22a0.67 0.67 0 0 0-0.42 1.2 5.05 5.05 0 0 1 1.09 3.23 11.38 11.38 0 0 1-0.54 4 7.3 7.3 0 0 1-1.75 2.88 13.59 13.59 0 0 1-1.17 1.06 11.48 11.48 0 0 0-1.09 0.92c-0.23 0.09-0.34 0.21-0.34 0.37a0.56 0.56 0 0 0 0 0.65 0.86 0.86 0 0 0 0.56 0.5 0.88 0.88 0 0 0 0.6 0.1 6.49 6.49 0 0 1 0.71 5.83 7.17 7.17 0 0 1-2 2.93c-0.37 0.23-1 0.55-1.78 0.94s-1.34 0.63-1.57 0.72a0.74 0.74 0 0 0-0.41 0.74 0.94 0.94 0 0 0 0.25 0.69c1.32 1.5 1.78 3.64 1.34 6.39a13.69 13.69 0 0 1-0.81 2.86 3.4 3.4 0 0 0-0.27 0.43 1 1 0 0 0-0.16 0.53 0.74 0.74 0 0 1-0.21 0.49 0.83 0.83 0 0 1-0.39 0.18 0.91 0.91 0 0 0-0.42 0.19 8.19 8.19 0 0 0-2.26 1.75l-0.9 1a2.23 2.23 0 0 0-0.44 0.72 2.37 2.37 0 0 1-0.34 0.6c-0.07 0.09-0.05 0.18 0.09 0.3s0.21 0.11 0.28 0l0.71-0.27a1.36 1.36 0 0 0 0.44-0.26 5.22 5.22 0 0 0 1.15-0.51 11.67 11.67 0 0 1 2.33-0.8 13.5 13.5 0 0 1 4.64-1.39 11.43 11.43 0 0 1 4.7 0 16.81 16.81 0 0 1 2.72 0.69 6.58 6.58 0 0 0 1.34 0.76l0.6 0.58a7.63 7.63 0 0 1 0.62 0.55c0.09 0.07 0.19 0.05 0.3-0.07a0.59 0.59 0 0 0 0.14-0.41 3.42 3.42 0 0 0-0.53-1.39 1.59 1.59 0 0 0-0.37-0.34 5.54 5.54 0 0 1-0.16-1.3l-0.39-2.48a7.78 7.78 0 0 1 2.22-5.39 8.42 8.42 0 0 1 5.42-2.7 10.83 10.83 0 0 1 5.07 0.6 7 7 0 0 0 0.95 2.65c0 0.16 0.06 0.21 0.18 0.19a0.67 0.67 0 0 0 0.28-0.21 9 9 0 0 1 1.2-4.75 6.31 6.31 0 0 1 3-3.3 6.45 6.45 0 0 1 4.63-0.39 7.61 7.61 0 0 1 4.06 2.47c0.42 0.69 0.88 0.73 1.41 0.18a5.2 5.2 0 0 1 2.4-1.52 4.56 4.56 0 0 1 2.76 0 5 5 0 0 1 2.24 1.5 4.62 4.62 0 0 1 1.71 3.81c-0.3 2.12-0.76 3.34-1.39 3.69a0.56 0.56 0 0 0-0.3 0.71 0.54 0.54 0 0 0 0.6 0.46 7.68 7.68 0 0 1 5.19 0.7c2.42 1.15 3.69 2.69 3.85 4.65s-0.81 3.21-3.18 3.86z"/>
  </g>
 </g>
</svg>
