<?xml version="1.0" encoding="UTF-8"?>
<svg width="441.03" height="101.63" version="1.1" viewBox="0 0 441.03 101.63" xmlns="http://www.w3.org/2000/svg" xmlns:cc="http://creativecommons.org/ns#" xmlns:dc="http://purl.org/dc/elements/1.1/" xmlns:rdf="http://www.w3.org/1999/02/22-rdf-syntax-ns#">
 <metadata>
  <rdf:RDF>
   <cc:Work rdf:about="">
    <dc:format>image/svg+xml</dc:format>
    <dc:type rdf:resource="http://purl.org/dc/dcmitype/StillImage"/>
    <dc:title/>
   </cc:Work>
  </rdf:RDF>
 </metadata>
 <defs>
  <style>.cls-1{fill:#fff;}.cls-1,.cls-2{stroke:#000;stroke-miterlimit:10;}</style>
 </defs>
 <g transform="translate(.0049537 .022847)" data-name="Layer 2">
  <g data-name="Layer 1">
   <path class="cls-1" d="m113.28 10.16a9.79 9.79 0 0 1-1.1 9.52 11.84 11.84 0 0 1-3.18 2.89 7.39 7.39 0 0 1-1.1 0.56 4.28 4.28 0 0 1 1.52 4 4.89 4.89 0 0 1-1 2.49c-0.37 0.44-0.63 0.77-0.82 1a0.33 0.33 0 0 0-0.21 0.06 0.25 0.25 0 0 1-0.21 0.07 8.84 8.84 0 0 1 2.5 5.24 10.11 10.11 0 0 1-1 6.9 6.6 6.6 0 0 1-5.52 3.3 9.41 9.41 0 0 1-1.91-0.14 4 4 0 0 1 0.28 2 6.34 6.34 0 0 1-1.12 2.07 2.64 2.64 0 0 1-0.67 0.7 8.09 8.09 0 0 1 1.37 5.78 9.46 9.46 0 0 1-2.89 5.51 11.12 11.12 0 0 1-4.5 1.89 8 8 0 0 1 0.42 8.66 8.91 8.91 0 0 1-4.14 4.18 6.71 6.71 0 0 1 0.81 0.4 5.42 5.42 0 0 1 2.07 2.21 9.09 9.09 0 0 1 1.38 5.8 8.65 8.65 0 0 1-2.35 5.35 6.47 6.47 0 0 1-2.47 1.66 10.71 10.71 0 0 1-3 0.14 2.45 2.45 0 0 1-0.7-0.14 2.65 2.65 0 0 1 0.26 2.63 3.69 3.69 0 0 1-3.3 2.47 3.82 3.82 0 0 1-2.7-0.47 5.26 5.26 0 0 1-2-2 9.45 9.45 0 0 1-0.7 1.37 8.24 8.24 0 0 1-2.75 2.61 8.35 8.35 0 0 1-8.13 0.42 7.3 7.3 0 0 1-3.72-6.75 9.45 9.45 0 0 1 1.37-4.26 6.51 6.51 0 0 1-1.62-0.28 5.81 5.81 0 0 1-4-3.73c-1.54-3.27-1.05-6.56 1.55-9.78a8.18 8.18 0 0 1-3.17-3.44v0.42a12.09 12.09 0 0 1-1.51 3.86 6.84 6.84 0 0 1-4 3.17 5.8 5.8 0 0 1 1.35 2.5 9.62 9.62 0 0 1-0.54 6.33 6.64 6.64 0 0 1-4 3.86 3.74 3.74 0 0 1-3.17 0l0.14 0.82a6.93 6.93 0 0 1 0.14 1.65 5.76 5.76 0 0 1-0.56 3.31 6.56 6.56 0 0 1-5.1 2.77 6.47 6.47 0 0 1-5.09-1.31 7.39 7.39 0 0 1-2.75-4.49 7.1 7.1 0 0 1-6-0.14 8 8 0 0 1-4.35-4.4 9.59 9.59 0 0 1-0.47-5.24 7.38 7.38 0 0 1 2.4-4.54 1.39 1.39 0 0 1-0.81-0.28 4.94 4.94 0 0 1-3.17-3.7 6.25 6.25 0 0 1 0.82-4.84c0.18-0.17 0.27-0.31 0.27-0.4a2.89 2.89 0 0 1-2.74-2.63 3.51 3.51 0 0 1 1.23-3.45 9.91 9.91 0 0 1-4.47-3.16 12.93 12.93 0 0 1-2.7-4.82 12.16 12.16 0 0 1 2.77-10.46 5 5 0 0 1-2.35-0.56 6.87 6.87 0 0 1-3.31-4 7.89 7.89 0 0 1 0-5.08 6.62 6.62 0 0 1 1.14-2.24 0.38 0.38 0 0 1 0.14-0.28l0.28-0.28a3.58 3.58 0 0 1-1.42-0.28 3.35 3.35 0 0 1-2.07-2.47 4 4 0 0 1 0.42-3 7.18 7.18 0 0 1-2.47-1 9 9 0 0 1-3.72-5 10.63 10.63 0 0 1-0.14-7 7.6 7.6 0 0 1 2.46-4 0.23 0.23 0 0 1-0.18-0.07 0.28 0.28 0 0 0-0.21-0.07 4.2 4.2 0 0 1-0.84-1 11.07 11.07 0 0 1-0.68-2.21 6.58 6.58 0 0 1 0.68-4 5 5 0 0 1 3.46-2.54 6.58 6.58 0 0 1 5.23 0.56 4.7 4.7 0 0 1 1.94 1.51 1.41 1.41 0 0 0 0.28 0.56c0.07-0.09 0.21-0.23 0.39-0.42l0.28-0.28a9.23 9.23 0 0 1 5.38-1.93 6.38 6.38 0 0 1 5.24 1.37 5.64 5.64 0 0 1 2.05 4.68 7.28 7.28 0 0 1-0.68 2.77 5.13 5.13 0 0 1-0.7 1 8 8 0 0 1 4.15 1.38 10 10 0 0 1 4.54 4.7 9.17 9.17 0 0 1 0.81 6.59 7.43 7.43 0 0 1-1.79 3.31 4.51 4.51 0 0 1 0.84 0.28 4.07 4.07 0 0 1 2.75 3.59 4.62 4.62 0 0 1-1 3.86 2.87 2.87 0 0 1 1.1 0.42 8.69 8.69 0 0 1 2.35 1.51 10 10 0 0 1 3.17 4.68 8.89 8.89 0 0 1-1.66 8.94 10 10 0 0 1 3.17 1.38 7.23 7.23 0 0 1 0.95-3 8.27 8.27 0 0 1 3.87-3.58 6.18 6.18 0 0 1-2.35-6.06 5.92 5.92 0 0 1 0.42-2.07 6.89 6.89 0 0 1 3.3-3.56 8 8 0 0 1 5.1-0.84 6.26 6.26 0 0 1 4.82 2.35 8.56 8.56 0 0 1 0.84 1.93 4.65 4.65 0 0 1 2.75-0.7 5 5 0 0 1 4 2.22 6.37 6.37 0 0 1 1.4 4.4 7.8 7.8 0 0 1-1.52 3.86 4.79 4.79 0 0 1 2 1.66v0.11a9.38 9.38 0 0 1 1.38-3.3 7 7 0 0 1 3.58-3l2.07-0.68h0.56a6.56 6.56 0 0 1-1.44-3 10.22 10.22 0 0 1 0-5.8 10.4 10.4 0 0 1 2.89-5 7.79 7.79 0 0 1 2.32-1.51l0.14-0.14h0.14a5.81 5.81 0 0 1 1.12-0.55 3.92 3.92 0 0 1-1.12-1.38 11.66 11.66 0 0 1-1-2.6 9.52 9.52 0 0 1 1-5.66 10.65 10.65 0 0 1 3.38-3.64 6.25 6.25 0 0 1 4.47-1.32 9.5 9.5 0 0 1-0.53-3.17 6.21 6.21 0 0 1 3.58-5.91 6.89 6.89 0 0 1 7.15 0.42 4.93 4.93 0 0 1 1.93 2.6 5.08 5.08 0 0 1 0.25 1.66 0.61 0.61 0 0 1-0.14 0.42 7.83 7.83 0 0 1 6.2-1.8c2.87 0.51 4.94 2.32 6.22 5.54z"/>
   <path class="cls-1" d="m198.13 55.49a13.5 13.5 0 0 0 1-7.59 9.5 9.5 0 0 0-3.44-6.33 7.44 7.44 0 0 0-3.31-1.79 3.42 3.42 0 0 0 0.7-0.82 10.79 10.79 0 0 0 2.19-7.57 11.82 11.82 0 0 0-2.61-7.59 8.85 8.85 0 0 0-5.38-3.44 5 5 0 0 0 0.35-3.59 5.82 5.82 0 0 0-2-3.17 7.74 7.74 0 0 0-4.68-1.51 9.44 9.44 0 0 0-3.31 0.84 7.32 7.32 0 0 0 0.7-3.73 9 9 0 0 0-4.56-6.61 12.74 12.74 0 0 0-8.09-1.93 11.73 11.73 0 0 0-7.64 3 9.79 9.79 0 0 0-5.44-2.72 10.57 10.57 0 0 0-6.13 0.7 9.64 9.64 0 0 0-4.12 3.51 8.64 8.64 0 0 0-1.65 5 6 6 0 0 0-1.66-1 4.43 4.43 0 0 0-4.28 1 5.27 5.27 0 0 0-2.07 4 4.57 4.57 0 0 0 0.28 2.75l0.7 0.84a10.47 10.47 0 0 0-5.94 2.26 14.87 14.87 0 0 0-5.5 6.47 14 14 0 0 0-1.23 8 14.15 14.15 0 0 0 3.17 7.43c-3.59 1.65-5.57 5.66-5.94 12a9.8 9.8 0 0 0 1.76 6.55 13.9 13.9 0 0 0 5.55 4.55c-3.12 4.31-3.68 8.55-1.65 12.67a8.3 8.3 0 0 0 5 4.42c0 0.07 0.07 0.12 0.21 0.12a2.92 2.92 0 0 1 0.39 0.07 1.45 1.45 0 0 0 0.49 0.07 7.5 7.5 0 0 0-1.23 4.82 8.74 8.74 0 0 0 3.3 6.47 7.91 7.91 0 0 0 6.75 1.79 7.2 7.2 0 0 0 4.64-2.43h0.14c0.1 1.93 1.33 3.56 3.73 4.89a15.56 15.56 0 0 0 6.87 2.14c2.93 0.16 5.14-0.65 6.61-2.49a8.45 8.45 0 0 0 1.26-2.22 4.05 4.05 0 0 0 0.67 1.12 3.83 3.83 0 0 0 3.31 0.82 4.72 4.72 0 0 0 2.75-1.94 4.66 4.66 0 0 0 0.7-1.37 8.41 8.41 0 0 0 3.58 2.05 13.91 13.91 0 0 0 9.78-0.28 8.33 8.33 0 0 0 5.5-6 8.61 8.61 0 0 0-0.54-7 6.4 6.4 0 0 0 4.82-3.73 6.16 6.16 0 0 0-0.14-6 4.74 4.74 0 0 0 2.33-1 6.55 6.55 0 0 0 1.79-1.99 7.65 7.65 0 0 0 1-2.21 8.84 8.84 0 0 0-0.35-4.47 7 7 0 0 0-2.42-3.66 8.68 8.68 0 0 0 3.29-4.17zm-31.13 13.09a16.22 16.22 0 0 0-2.07 0.53 11.78 11.78 0 0 0-3.59 2.08 7.15 7.15 0 0 0-1.65 2.07 21 21 0 0 0-0.42-2.21 9.83 9.83 0 0 0-3.84-5.36 8.47 8.47 0 0 0-6.2-1.69 0.76 0.76 0 0 0-0.54 0.14 14.81 14.81 0 0 0 5.1-8.69 13.53 13.53 0 0 0-0.28-7.7 5.67 5.67 0 0 0-2.35-3.45 10.81 10.81 0 0 0 2.63-2.07 9.51 9.51 0 0 0 2.21-5.48 7.42 7.42 0 0 0-0.67-4.26 6.64 6.64 0 0 0 1.91 0 14 14 0 0 0 2.77-1 8.19 8.19 0 0 0-0.7 2.63 10.59 10.59 0 0 0 1.37 6.61 9.82 9.82 0 0 0 8.83 5.1 8.82 8.82 0 0 0-2.08 7.57 8.49 8.49 0 0 0 3.87 5.66 6.17 6.17 0 0 0-4.15 4 6.81 6.81 0 0 0-0.15 5.52z"/>
   <path class="cls-1" d="m284.91 55.49a13.5 13.5 0 0 0 1-7.59 9.5 9.5 0 0 0-3.44-6.33 7.6 7.6 0 0 0-3.31-1.79 4.33 4.33 0 0 0 0.7-0.82 10.89 10.89 0 0 0 2.14-7.57 11.82 11.82 0 0 0-2.61-7.59 8.85 8.85 0 0 0-5.39-3.44 5 5 0 0 0 0.35-3.59 5.93 5.93 0 0 0-2-3.17 7.74 7.74 0 0 0-4.68-1.51 9.44 9.44 0 0 0-3.31 0.84 7.32 7.32 0 0 0 0.7-3.73 9 9 0 0 0-4.56-6.61 12.74 12.74 0 0 0-8.03-1.93 11.73 11.73 0 0 0-7.64 3 9.79 9.79 0 0 0-5.44-2.72 10.55 10.55 0 0 0-6.13 0.7 9.81 9.81 0 0 0-4.14 3.51 8.8 8.8 0 0 0-1.66 5 5.29 5.29 0 0 0-1.65-1 4.4 4.4 0 0 0-4.26 1 5.27 5.27 0 0 0-2.07 4 4.42 4.42 0 0 0 0.28 2.75l0.7 0.84a10.47 10.47 0 0 0-5.94 2.26 14.87 14.87 0 0 0-5.5 6.47 14 14 0 0 0-1.23 8 14.15 14.15 0 0 0 3.21 7.38c-3.59 1.65-5.57 5.66-5.94 12a9.8 9.8 0 0 0 1.79 6.61 13.9 13.9 0 0 0 5.48 4.54c-3.12 4.31-3.68 8.55-1.65 12.67a8.3 8.3 0 0 0 5 4.42c0 0.07 0.07 0.12 0.2 0.12a2.79 2.79 0 0 1 0.4 0.07 1.45 1.45 0 0 0 0.49 0.07 7.5 7.5 0 0 0-1.23 4.82 8.74 8.74 0 0 0 3.3 6.47 7.91 7.91 0 0 0 6.75 1.79 7.2 7.2 0 0 0 4.64-2.43h0.14c0.1 1.93 1.33 3.56 3.71 4.89a15.72 15.72 0 0 0 6.92 2.11c2.93 0.16 5.14-0.65 6.61-2.49a7.84 7.84 0 0 0 1.24-2.22 4.52 4.52 0 0 0 0.69 1.12 3.83 3.83 0 0 0 3.31 0.82 4.72 4.72 0 0 0 2.75-1.94 4.66 4.66 0 0 0 0.7-1.37 8.41 8.41 0 0 0 3.55 2.08 13.91 13.91 0 0 0 9.78-0.28 8.33 8.33 0 0 0 5.5-6 8.61 8.61 0 0 0-0.54-7 6.4 6.4 0 0 0 4.82-3.73 6.16 6.16 0 0 0-0.14-6 4.74 4.74 0 0 0 2.33-1 6.55 6.55 0 0 0 1.79-1.99 7.65 7.65 0 0 0 1-2.21 9.07 9.07 0 0 0-0.35-4.47 7 7 0 0 0-2.42-3.66 8.8 8.8 0 0 0 3.29-4.17zm-31.14 13.09a17.34 17.34 0 0 0-2 0.53 11.78 11.78 0 0 0-3.59 2.08 7.15 7.15 0 0 0-1.65 2.07 21 21 0 0 0-0.42-2.21 9.83 9.83 0 0 0-3.87-5.36 8.36 8.36 0 0 0-6.24-1.69 0.73 0.73 0 0 0-0.54 0.14 14.68 14.68 0 0 0 5.08-8.69 13.37 13.37 0 0 0-0.26-7.7 5.67 5.67 0 0 0-2.35-3.45 10.67 10.67 0 0 0 2.61-2.07 9.41 9.41 0 0 0 2.21-5.52 7.5 7.5 0 0 0-0.67-4.26 6.64 6.64 0 0 0 1.91 0 14 14 0 0 0 2.77-1 8.19 8.19 0 0 0-0.7 2.63 10.59 10.59 0 0 0 1.37 6.61 9.82 9.82 0 0 0 8.83 5.1 8.82 8.82 0 0 0-2.08 7.57 8.49 8.49 0 0 0 3.87 5.66 6.17 6.17 0 0 0-4.15 4 6.93 6.93 0 0 0-0.13 5.56z"/>
   <path class="cls-1" d="m364.54 81.38a0.39 0.39 0 0 1-0.28 0.14 1.74 1.74 0 0 1 0.67 0.42 5.75 5.75 0 0 1 1.8 5.36 8 8 0 0 1-3.17 5.24 6.87 6.87 0 0 1-3.84 1.65 5.64 5.64 0 0 1-3.05 5.1 16.34 16.34 0 0 1-8.39 1.79 15.28 15.28 0 0 1-8.12-2.49 11.15 11.15 0 0 1-2.91-2.75 6.05 6.05 0 0 1-1.91 3 4.77 4.77 0 0 1-3.19 1.19 4.41 4.41 0 0 1-3.38-1.45 6.39 6.39 0 0 1-1.58-3.37 13.45 13.45 0 0 1-2.75 2.75 13 13 0 0 1-6.61 2.32 12.17 12.17 0 0 1-5.5-0.74 4.74 4.74 0 0 1-3.3-3.24 6.43 6.43 0 0 1-2.21 2.19 5.56 5.56 0 0 1-6.06-0.25 5.7 5.7 0 0 1-2.91-4.43 6.52 6.52 0 0 1 1.15-5.53 8.86 8.86 0 0 1 1.37-1.66 5.77 5.77 0 0 1-2.21-5.52 6.8 6.8 0 0 1 2.63-4.26 20.65 20.65 0 0 1-5.24-9.92c-0.83-3.67 0.1-7.8 2.75-12.41q-4.68-3.84-4.68-8.8a10.36 10.36 0 0 1 4.65-8.71 4.94 4.94 0 0 1-2.07-4.82 4.72 4.72 0 0 1 3.17-3.73 5.87 5.87 0 0 1-2.61-3.58 6.08 6.08 0 0 1 1.37-6.34 22 22 0 0 1-2.07-1.09 6.55 6.55 0 0 1-1.91-2.89 6.91 6.91 0 0 1 0.85-6.72 7 7 0 0 1 5.94-3.59 5.22 5.22 0 0 1 4.54 1.38 7.54 7.54 0 0 1 3.7-3.77 9.22 9.22 0 0 1 5.34-1.19 5.83 5.83 0 0 1 5.24 3.72 6.92 6.92 0 0 1 0.56 3.31 4.7 4.7 0 0 1-0.32 1.79 2.39 2.39 0 0 1-0.14 0.56c1.75-0.18 3.54 0.68 5.38 2.61a13.06 13.06 0 0 1 3.56 6.75 15 15 0 0 1-0.18 6.2 11.85 11.85 0 0 1-2.84 5.51 7.73 7.73 0 0 1 3 3 10.74 10.74 0 0 1 1.8 5.64c0.28 3.86-1.24 7.07-4.54 9.66a6.77 6.77 0 0 1 2.74 5.49 7.3 7.3 0 0 1-2.78 5.69 7.7 7.7 0 0 1 2 7.71 6.58 6.58 0 0 1-2 3.7 3.6 3.6 0 0 1 1.65 0.54 4.05 4.05 0 0 1 1.51 1.51 1 1 0 0 1 0.14 0.42 5.89 5.89 0 0 1 4.5-2.47 6.72 6.72 0 0 1 6.61 3.71 12.34 12.34 0 0 1 8.41-5.22 10.41 10.41 0 0 1 5.94 1.09 6.25 6.25 0 0 1 2.61 3.31 7.87 7.87 0 0 1 0.55-0.84 6 6 0 0 1 4.55-2 4.54 4.54 0 0 1 4.12 2.19c0.93 1.47 0.83 3.17-0.26 5.1a6.13 6.13 0 0 1-1.51 1.79z"/>
   <path class="cls-1" d="m440.28 19.4a9.89 9.89 0 0 1-1.23 6.47 12.89 12.89 0 0 1-5 4.41 11.13 11.13 0 0 1-2.75 0.83h0.14a5 5 0 0 1 1.09 4.54 8.14 8.14 0 0 1-2 4 6.44 6.44 0 0 1-3.63 2.21 7.8 7.8 0 0 1 0.39 5.94 7.7 7.7 0 0 1-3.7 4.54 7.93 7.93 0 0 1-7.17 0.67 1.17 1.17 0 0 1-0.42-0.14 2.72 2.72 0 0 1-0.46-0.25 0.83 0.83 0 0 0-0.49-0.14 1 1 0 0 1 0.14 0.39 3.58 3.58 0 0 1-1.12 2.63 2.88 2.88 0 0 1-2.19 1.1 0.38 0.38 0 0 0-0.28 0.14 11.32 11.32 0 0 1 3.17 7.17 11 11 0 0 1-0.49 5.35 8.71 8.71 0 0 1-2.82 4.15 6.19 6.19 0 0 1 2.75 3.84 12 12 0 0 1-0.14 7.87 8.31 8.31 0 0 1-4.68 5.49 5.19 5.19 0 0 1-2.07 0.7c0.28 0.63 0.46 1.1 0.56 1.38a7.29 7.29 0 0 1-0.82 5.91 5.08 5.08 0 0 1-5.1 2.07 5.28 5.28 0 0 1-4.42-2.74 10 10 0 0 1-0.68-1.52 6.51 6.51 0 0 1-1.79 1.66 9.49 9.49 0 0 1-3.73 1.16 5.53 5.53 0 0 1-3.7-0.88 8.17 8.17 0 0 1-3-6.29 6.28 6.28 0 0 1 2.7-6q-6.07-3-5.66-8.82a8.67 8.67 0 0 1 2.75-5.77 7.45 7.45 0 0 1 1-0.82 6.47 6.47 0 0 1-2.43-2.56 7 7 0 0 1-1-3.38 6.12 6.12 0 0 1 3.17-5.77 3.52 3.52 0 0 1-1.09-0.14 9.7 9.7 0 0 1-1.8-1 6.2 6.2 0 0 1-2.21-3 6.49 6.49 0 0 1 0.28-5.24 1.87 1.87 0 0 1-0.84 0.14 5.11 5.11 0 0 1-3.7-1.9 5.28 5.28 0 0 1-0.56-6.62 9.33 9.33 0 0 1-5.7-1.39 10.75 10.75 0 0 1-4.22-4.27 12.94 12.94 0 0 1-1.07-7.52 11.38 11.38 0 0 1 0.95-3.73 0.25 0.25 0 0 1 0.28-0.28 7 7 0 0 1-4.68-0.21 7.59 7.59 0 0 1-3.81-3 8.2 8.2 0 0 1-1.38-6.2 5.64 5.64 0 0 1 2.35-4 4.53 4.53 0 0 1-2.35-4 5.15 5.15 0 0 1 2.63-5 4.62 4.62 0 0 1 5.64 0 6 6 0 0 1 1.79 2.18 2.51 2.51 0 0 1 0.14 0.56 5.91 5.91 0 0 1 2.33-1.09 5.47 5.47 0 0 1 4.42 0.4 1.91 1.91 0 0 0 0.42 0.27q1.23-2.47 4.75-3.16a9.24 9.24 0 0 1 6 0.56 6.51 6.51 0 0 1 3.72 4.82 6.09 6.09 0 0 1-0.14 3.44 9.39 9.39 0 0 1-1.32 2c1.81 0.34 3.42 1.65 4.82 3.84a9.13 9.13 0 0 1 1.09 4.28 5.82 5.82 0 0 1-0.7 2.47 5.67 5.67 0 0 1 4.71 2.85 5.62 5.62 0 0 1 0 6.35 7.8 7.8 0 0 1 4.15 3.17 7.52 7.52 0 0 1 1.37 2.89 15.34 15.34 0 0 1 1.24-1.52 11.53 11.53 0 0 1 4-2.77 13.46 13.46 0 0 1 1.38-0.39 15.1 15.1 0 0 1-1.94-1.66 7.6 7.6 0 0 1-2.19-5.93 8.43 8.43 0 0 1 2.75-5.92 6.28 6.28 0 0 1 3.59-1.93 3.5 3.5 0 0 0-0.42-0.68 7.12 7.12 0 0 1-0.14-5.37 7.16 7.16 0 0 1 3.17-3.45 7.66 7.66 0 0 1 4.68-1 4.76 4.76 0 0 1 1.93-3.49 6.28 6.28 0 0 1 4.14-1.44 5.54 5.54 0 0 1 4.54 2 5.39 5.39 0 0 1 1.24 2.14v0.28a6.83 6.83 0 0 1 4.89-1.87 6.72 6.72 0 0 1 4.89 1.59 4.51 4.51 0 0 1 1.3 2.67 4.16 4.16 0 0 1-0.75 3 9.5 9.5 0 0 1-2.74 1.93 0.64 0.64 0 0 0-0.32 0.14 0.63 0.63 0 0 1-0.35 0.14c0.44 0.19 0.77 0.33 0.95 0.42a6.23 6.23 0 0 1 3 5.1z"/>
   <path class="cls-2" d="m113.28 10.16c-1.28-3.22-3.35-5-6.19-5.5a7.83 7.83 0 0 0-6.2 1.8 0.61 0.61 0 0 0 0.11-0.46 5.08 5.08 0 0 0-0.28-1.66 4.93 4.93 0 0 0-1.93-2.6 6.89 6.89 0 0 0-7.15-0.42 6.21 6.21 0 0 0-3.58 5.91 9.5 9.5 0 0 0 0.53 3.17 6.25 6.25 0 0 0-4.47 1.32 10.65 10.65 0 0 0-3.38 3.64 9.52 9.52 0 0 0-1 5.66 11.66 11.66 0 0 0 1 2.6 3.92 3.92 0 0 0 1.15 1.38 5.81 5.81 0 0 0-1.12 0.56h-0.14l-0.14 0.14a7.79 7.79 0 0 0-2.32 1.51 10.4 10.4 0 0 0-2.89 5 10.22 10.22 0 0 0 0 5.8 6.56 6.56 0 0 0 1.51 2.88h-0.56l-2.07 0.68a7 7 0 0 0-3.58 3 9.38 9.38 0 0 0-1.38 3.3v-0.11a4.79 4.79 0 0 0-2-1.66 7.8 7.8 0 0 0 1.52-3.86 6.37 6.37 0 0 0-1.4-4.4 5 5 0 0 0-4-2.22 4.65 4.65 0 0 0-2.75 0.7 8.56 8.56 0 0 0-0.84-1.93 6.26 6.26 0 0 0-4.82-2.35 8 8 0 0 0-5.1 0.84 6.89 6.89 0 0 0-3.3 3.56 5.92 5.92 0 0 0-0.42 2.07 6.18 6.18 0 0 0 2.35 6.06 8.27 8.27 0 0 0-3.87 3.58 7.23 7.23 0 0 0-0.95 3 10 10 0 0 0-3.17-1.38 8.89 8.89 0 0 0 1.66-8.94 10 10 0 0 0-3.17-4.68 8.69 8.69 0 0 0-2.35-1.51 2.87 2.87 0 0 0-1.1-0.42 4.62 4.62 0 0 0 1-3.86 4.07 4.07 0 0 0-2.75-3.59 4.51 4.51 0 0 0-0.84-0.28 7.43 7.43 0 0 0 1.79-3.31 9.17 9.17 0 0 0-0.81-6.59 10 10 0 0 0-4.61-4.59 8 8 0 0 0-4.15-1.37 5.13 5.13 0 0 0 0.7-1 7.28 7.28 0 0 0 0.68-2.77 5.64 5.64 0 0 0-2.05-4.68 6.38 6.38 0 0 0-5.24-1.38 9.23 9.23 0 0 0-5.38 1.93l-0.28 0.27c-0.18 0.19-0.32 0.33-0.39 0.42a1.41 1.41 0 0 1-0.28-0.56 4.7 4.7 0 0 0-1.94-1.51 6.58 6.58 0 0 0-5.23-0.55 5 5 0 0 0-3.45 2.63 6.58 6.58 0 0 0-0.68 4 11.07 11.07 0 0 0 0.68 2.21 4.2 4.2 0 0 0 0.84 1 0.28 0.28 0 0 1 0.21 0.07 0.23 0.23 0 0 0 0.18 0.07 7.6 7.6 0 0 0-2.46 4 10.63 10.63 0 0 0 0.14 7 9 9 0 0 0 3.72 5 7.18 7.18 0 0 0 2.47 1 4 4 0 0 0-0.42 3 3.35 3.35 0 0 0 2.06 2.38 3.58 3.58 0 0 0 1.38 0.28l-0.28 0.28a0.38 0.38 0 0 0-0.1 0.28 6.62 6.62 0 0 0-1.1 2.21 7.89 7.89 0 0 0 0 5.08 6.87 6.87 0 0 0 3.31 4 5 5 0 0 0 2.35 0.56 12.16 12.16 0 0 0-2.77 10.46 12.93 12.93 0 0 0 2.7 4.82 9.91 9.91 0 0 0 4.47 3.16 3.51 3.51 0 0 0-1.23 3.45 2.89 2.89 0 0 0 2.74 2.63c0 0.09-0.09 0.23-0.27 0.4a6.25 6.25 0 0 0-0.82 4.84 4.94 4.94 0 0 0 3.17 3.7 1.39 1.39 0 0 0 0.81 0.28 7.38 7.38 0 0 0-2.4 4.54 9.59 9.59 0 0 0 0.47 5.24 8 8 0 0 0 4.35 4.4 7.1 7.1 0 0 0 6 0.14 7.39 7.39 0 0 0 2.75 4.49 6.47 6.47 0 0 0 5.09 1.31 6.56 6.56 0 0 0 5.1-2.77 5.76 5.76 0 0 0 0.56-3.31 6.93 6.93 0 0 0-0.18-1.63l-0.1-0.84a3.74 3.74 0 0 0 3.17 0 6.64 6.64 0 0 0 4-3.86 9.62 9.62 0 0 0 0.5-6.3 5.8 5.8 0 0 0-1.37-2.5 6.84 6.84 0 0 0 4-3.17 12.09 12.09 0 0 0 1.51-3.86v-0.42a8.18 8.18 0 0 0 3.19 3.44c-2.58 3.22-3.07 6.48-1.51 9.78a5.81 5.81 0 0 0 4 3.73 6.51 6.51 0 0 0 1.65 0.28 9.45 9.45 0 0 0-1.37 4.26 7.3 7.3 0 0 0 3.72 6.75 8.35 8.35 0 0 0 8.13-0.42 8.24 8.24 0 0 0 2.75-2.61 9.45 9.45 0 0 0 0.7-1.37 5.26 5.26 0 0 0 2 2 3.82 3.82 0 0 0 2.68 0.47 3.69 3.69 0 0 0 3.25-2.47 2.65 2.65 0 0 0-0.28-2.63 2.45 2.45 0 0 0 0.7 0.14 10.71 10.71 0 0 0 3-0.14 6.47 6.47 0 0 0 2.47-1.66 8.65 8.65 0 0 0 2.35-5.35 9.09 9.09 0 0 0-1.38-5.8 5.42 5.42 0 0 0-2.07-2.21 6.71 6.71 0 0 0-0.81-0.4 8.91 8.91 0 0 0 4.12-4.14 8 8 0 0 0-0.38-8.7 11.12 11.12 0 0 0 4.56-1.94 9.46 9.46 0 0 0 2.89-5.51 8.09 8.09 0 0 0-1.37-5.78 2.64 2.64 0 0 0 0.67-0.7 6.34 6.34 0 0 0 1.12-2.07 4 4 0 0 0-0.28-2 9.41 9.41 0 0 0 1.91 0.14 6.6 6.6 0 0 0 5.52-3.3 10.11 10.11 0 0 0 1-6.9 8.84 8.84 0 0 0-2.5-5.24 0.25 0.25 0 0 0 0.21-0.07 0.33 0.33 0 0 1 0.21-0.06c0.19-0.19 0.45-0.52 0.82-1a4.89 4.89 0 0 0 1-2.49 4.28 4.28 0 0 0-1.52-4 7.39 7.39 0 0 0 1.1-0.56 11.84 11.84 0 0 0 3.16-2.89 9.79 9.79 0 0 0 1.06-9.47zm-2.89 8.54a7.42 7.42 0 0 1-2.47 2.63 19.75 19.75 0 0 1-3.16 1.91c-0.1 0-0.14 0.07-0.14 0.21s0 0.21 0.14 0.21a7.71 7.71 0 0 0 2.19-0.28 5.15 5.15 0 0 1 0.83 3.45 2.45 2.45 0 0 1-0.56 1.65c-0.65 0.93-1.09 1.42-1.37 1.52-0.46 0.18-0.6 0.46-0.42 0.83a13.61 13.61 0 0 0 1.1 2.47 9.72 9.72 0 0 1 0.83 2.49 7.22 7.22 0 0 1-0.41 5.1 6 6 0 0 1-3.73 3c-1 0.37-2.84 0.19-5.5-0.56a0.4 0.4 0 0 0-0.27 0.14q-0.15 0.14 0 0.42a5 5 0 0 0 2.35 1.65 7.21 7.21 0 0 1 0.25 0.68 3.27 3.27 0 0 1 0 1.4 3.1 3.1 0 0 1-0.53 1.38c-0.28 0.28-0.47 0.42-0.56 0.42l-0.14 0.11h-0.14a6.54 6.54 0 0 0-3.45-1.23 0.42 0.42 0 0 0-0.46 0.35 0.39 0.39 0 0 0 0.21 0.49 7.18 7.18 0 0 1 2.33 1.86 8.13 8.13 0 0 1 1.44 2.63 5.72 5.72 0 0 1 0.21 3 7.24 7.24 0 0 1-2.4 4.14 6.46 6.46 0 0 1-4.35 1.79 1 1 0 0 0-0.75 0.61 0.77 0.77 0 0 0 0.21 0.91 7.08 7.08 0 0 1 1.1 7.29 9.69 9.69 0 0 1-2.08 2.88c-1.37 1.56-2.6 2.17-3.72 1.8l-0.14 0.28a2.87 2.87 0 0 0 1.65 0.83 8.61 8.61 0 0 1 1.4 1.38 21.69 21.69 0 0 1 1.65 2.33 7.08 7.08 0 0 1 0.4 5.65c-0.82 2.56-2.1 3.94-3.84 4.12a11.25 11.25 0 0 1-3-0.13 1.41 1.41 0 0 1-0.63-0.19l-0.56-0.35a4.26 4.26 0 0 0-0.53-0.28 6.48 6.48 0 0 1-0.63-0.28 0.25 0.25 0 0 0-0.21 0.07 0.28 0.28 0 0 0-0.07 0.21c0.09 0.91 0.79 1.65 2.07 2.21a2.39 2.39 0 0 1-0.21 2.4 2.32 2.32 0 0 1-2.14 1.3c-1.84 0.1-2.89-1.14-3.17-3.7-0.09-0.28-0.25-0.42-0.46-0.42a0.5 0.5 0 0 0-0.49 0.28 6.91 6.91 0 0 0-0.31 1.24c-0.28 0.56-0.65 1.18-1.1 1.93a7.54 7.54 0 0 1-2.35 2.19 5.92 5.92 0 0 1-6.3 0.38 5.11 5.11 0 0 1-3-4.68 8.38 8.38 0 0 1 0.68-3.17c0.18-0.28 0.42-0.65 0.69-1.09a5.83 5.83 0 0 1 0.56-0.84 2.28 2.28 0 0 0 0.82-0.7 0.93 0.93 0 0 0 0.07-0.61 0.44 0.44 0 0 0-0.49-0.35c-2.28 0.19-3.66 0.14-4.12-0.14a4.47 4.47 0 0 1-3-2.88 7.66 7.66 0 0 1-0.21-4.33 6.6 6.6 0 0 1 2.21-3.66 0.73 0.73 0 0 0 0.26-0.84 0.85 0.85 0 0 0-0.54-0.67 9.93 9.93 0 0 1-5-6.62c0-0.27-0.16-0.39-0.48-0.34s-0.49 0.25-0.49 0.62a24.73 24.73 0 0 1-0.82 3.45 12.06 12.06 0 0 1-1.09 3.42 9 9 0 0 1-3.85 3.73l-1.37-0.68a0.49 0.49 0 0 0-0.28 0.12c-0.19 0.28-0.19 0.47 0 0.56s0.56 0.37 0.81 0.56a0.44 0.44 0 0 0 0.14 0.28 5.77 5.77 0 0 1 1.26 2.36 9 9 0 0 1-0.28 4.82 5.34 5.34 0 0 1-2.35 3.44 6.45 6.45 0 0 1-4 0.28 0.69 0.69 0 0 0-0.35 0.14c-0.14 0.09-0.16 0.19-0.07 0.28a20.33 20.33 0 0 1 0.14 3 5.25 5.25 0 0 1-0.7 2.88 4.48 4.48 0 0 1-4 2.08 5.06 5.06 0 0 1-4-1.24 5.88 5.88 0 0 1-2.07-3.86c0-0.56-0.32-0.79-1-0.7a8.06 8.06 0 0 1-5.08-0.33 6.09 6.09 0 0 1-3.52-3.51c-1-2.49-0.23-5.34 2.35-8.55h0.68a2.45 2.45 0 0 0 0.7-0.14 1.78 1.78 0 0 1 0.42-0.28c0.28-0.18 0.28-0.37 0-0.53a7.16 7.16 0 0 0-1-0.42 6.18 6.18 0 0 1-1.1-0.14 5.74 5.74 0 0 1-1.79-0.7 3.71 3.71 0 0 1-2.35-2.33 4.24 4.24 0 0 1 0.28-3.31 5 5 0 0 1 0.84-1.37 4 4 0 0 1 1.49-1.12 0.4 0.4 0 0 0 0.14-0.28c0-0.07-0.09-0.11-0.28-0.11a2.74 2.74 0 0 0-1.51 0.11 1.43 1.43 0 0 0-0.35-0.11 2.76 2.76 0 0 1-1.45-0.49 1.76 1.76 0 0 1-0.88-1.05c-0.47-1.28 0.16-2.23 1.91-2.89a0.56 0.56 0 0 0 0.42-0.57 0.88 0.88 0 0 0-0.42-0.77c-4.31-1.75-6.92-4.26-7.85-7.57a10.16 10.16 0 0 1 0.7-6.33 12.86 12.86 0 0 1 0.78-1.33c0.37-0.49 0.72-1 1-1.51s0.56-0.93 0.75-1.31l0.14-0.14a0.32 0.32 0 0 0 0.07-0.34c-0.05-0.14-0.16-0.19-0.35-0.19s-0.42-0.12-1-0.07-0.95 0-1-0.07a5.07 5.07 0 0 1-1.93-1.12 5.77 5.77 0 0 1-2.21-3.16 8.3 8.3 0 0 1 0-3.71 6.16 6.16 0 0 1 0.69-1.65 13.87 13.87 0 0 1 1-1.79 0.48 0.48 0 0 0 0-0.49 0.46 0.46 0 0 0-0.42-0.21 2.78 2.78 0 0 1-1.95-0.52 2.78 2.78 0 0 1-1.24-1.58 2.42 2.42 0 0 1 0.7-2.33 3.29 3.29 0 0 0 1.38-0.56q0.55-0.29 0.27-1c0-0.18-0.18-0.32-0.55-0.42a2.35 2.35 0 0 0-1 0.14 7.22 7.22 0 0 1-3.86-1.23 8.24 8.24 0 0 1-2.47-4.14 10.1 10.1 0 0 1-0.14-5.52c0.09-0.26 0.21-0.56 0.32-0.89s0.28-0.63 0.42-0.88a4.59 4.59 0 0 1 0.49-0.77 7.28 7.28 0 0 0 0.56-0.82 7.94 7.94 0 0 1 0.54-0.9 0.64 0.64 0 0 0-0.07-0.63 0.48 0.48 0 0 0-0.6-0.19 0.82 0.82 0 0 1-0.42 0.19 0.83 0.83 0 0 0-0.42 0.21 0.85 0.85 0 0 0-0.07-0.33q-0.06-0.21-0.21-0.21a3.1 3.1 0 0 0-0.07-0.63 3.69 3.69 0 0 1-0.07-0.49 12.68 12.68 0 0 1 0.14-2 5 5 0 0 1 1.26-2.92 3.68 3.68 0 0 1 1.65-0.82 4.26 4.26 0 0 1 2.19 0 4.42 4.42 0 0 1 2.35 0.68l0.82 0.55a1.35 1.35 0 0 0 0.28 0.56 3.7 3.7 0 0 0-0.42 2.89 0.13 0.13 0 0 0 0.14 0.14 0.42 0.42 0 0 0 0.28-0.14 7.66 7.66 0 0 1 3.31-4.14 7.75 7.75 0 0 1 5.65-0.82 4 4 0 0 1 3 3 6.67 6.67 0 0 1 0.28 2.75 4 4 0 0 1-0.07 0.69 3.81 3.81 0 0 0-0.07 0.56 2.35 2.35 0 0 0-0.14 1 2.86 2.86 0 0 0-1.23 0.42c-0.19 0.09-0.26 0.21-0.21 0.35s0.16 0.16 0.32 0.07a5.35 5.35 0 0 1 3.31 0.81 6.68 6.68 0 0 1 2.49 1.23 10 10 0 0 1 3.45 4.15 8.22 8.22 0 0 1 0.28 5.1 20.91 20.91 0 0 1-1 2.47 5 5 0 0 0-0.54 1.23 12.42 12.42 0 0 0-2.01 0.45c-0.09 0-0.14 0.07-0.14 0.21a0.48 0.48 0 0 0 0.14 0.35 13.17 13.17 0 0 1 3.73 0.95 2.47 2.47 0 0 1 1.09 1 2.35 2.35 0 0 1 0.42 1.23 3.74 3.74 0 0 1-0.84 2.75c-0.46 0.56-0.81 1-1.09 1.38l-0.56 0.55c0 0.19 0 0.28-0.14 0.28s-0.14 0.19-0.4 0.28v0.21s0 0.07 0.12 0.07a3.23 3.23 0 0 1 0.49-0.14 0.82 0.82 0 0 1 0.21 0.07 0.55 0.55 0 0 0 0.28 0.07 1.7 1.7 0 0 0 0.53-0.14 2.51 2.51 0 0 1 0.56-0.14 2.76 2.76 0 0 0 0.7-0.42 8.67 8.67 0 0 0 1.23 1 21.28 21.28 0 0 1 1.94 1.26 9.61 9.61 0 0 1 2.73 3.61 7.65 7.65 0 0 1 0.35 4.49 5.94 5.94 0 0 1-2.28 3.77 1.05 1.05 0 0 0-0.14 0.91 0.56 0.56 0 0 0 0.56 0.49 7.62 7.62 0 0 1 4.82 2.33 5.83 5.83 0 0 0 1.09 2.58 0.47 0.47 0 0 0 0.42 0.28c0.19 0 0.28-0.14 0.28-0.4a17.58 17.58 0 0 0 0.42-3 9.55 9.55 0 0 1 0.82-3.42 9.17 9.17 0 0 1 4.28-4 0.76 0.76 0 0 0 0.33-0.56 0.46 0.46 0 0 0-0.19-0.53 5.94 5.94 0 0 1-2.49-5.8 5.39 5.39 0 0 1 2.49-3.57 6.13 6.13 0 0 1 1.65-0.54 6.41 6.41 0 0 1 4.68 0.68 5.84 5.84 0 0 1 1.52 1.65 5.63 5.63 0 0 1 1.23 2.21h0.16c0.28-0.65 0.47-1.09 0.56-1.37a4 4 0 0 1 2.44-0.32 4.15 4.15 0 0 1 2.75 1.79 5.2 5.2 0 0 1 1 3.59 5.46 5.46 0 0 1-1.25 3.31 0.9 0.9 0 0 0-0.28 0.68 0.56 0.56 0 0 0 0.4 0.56c0.65 0.37 1.11 0.63 1.39 0.81l0.68 0.7a2 2 0 0 0 0.14 0.56 10.19 10.19 0 0 1 0.7 2.89 15.79 15.79 0 0 1 0.14 3.16c0 0.19 0 0.47-0.07 0.82a1.46 1.46 0 0 1-0.21 0.7v1.51c0 0.28 0.09 0.33 0.28 0.14a4.69 4.69 0 0 0 1.51-2.89 8.25 8.25 0 0 0 0.4-3.86v-0.42a2 2 0 0 1 0.07-0.54c0-0.18 0.09-0.39 0.14-0.63a3.7 3.7 0 0 0 0.06-0.63 10.56 10.56 0 0 1 1.52-3.7 9 9 0 0 1 2.49-2.35 4.55 4.55 0 0 1 1.65-0.81 0.4 0.4 0 0 0 0.28-0.14 1.21 1.21 0 0 0 0.54-0.14 1.15 1.15 0 0 0 0.7-0.14h0.56a0.83 0.83 0 0 0 0.6-0.21 0.59 0.59 0 0 0 0.07-0.63 16.48 16.48 0 0 1-1.93-4 8.79 8.79 0 0 1 0.28-4.4 10.82 10.82 0 0 1 1.93-4l1.09-0.95a22.91 22.91 0 0 1 2.91-2.09 0.5 0.5 0 0 0 0.26-0.48 1.39 1.39 0 0 0-0.14-0.63 23.84 23.84 0 0 1-1.23-2c-0.19-0.75-0.33-1.38-0.42-1.93a8 8 0 0 1 0.84-4.27 8.28 8.28 0 0 1 2.74-3.19 8 8 0 0 1 3.73-2 2.88 2.88 0 0 0 2.07 0.81q0.14 0 0.21-0.21c0.05-0.14 0-0.21-0.07-0.21-1.12-1-1.56-2.51-1.4-4.54a4.18 4.18 0 0 1 2.77-4.2 4.64 4.64 0 0 1 4.69 0.28 3.23 3.23 0 0 1 1.23 1.77q0.29 0.56 0.42 0.84a5.42 5.42 0 0 1 0.28 2.07 0.67 0.67 0 0 0 0.28 0.6c0.16 0.14 0.35 0.12 0.53-0.07 1.94-2.09 4.15-2.84 6.62-2.18 2.21 0.62 3.72 2.28 4.54 5a8.63 8.63 0 0 1-1.1 7.24z"/>
   <path class="cls-2" d="m174.87 58.94a20 20 0 0 1-3.59-2.07 6.15 6.15 0 0 1-1.93-3.59 6.09 6.09 0 0 1-0.21-2.14 6.6 6.6 0 0 1 0.49-2.19 7.67 7.67 0 0 1 1.09-1.95 8.58 8.58 0 0 1 1.65-1.59 0.86 0.86 0 0 0 0.35-0.9c0-0.4-0.3-0.56-0.77-0.47a9.84 9.84 0 0 1-5.42-1 9 9 0 0 1-3.94-3.56 9.12 9.12 0 0 1-1.23-5.1 18.67 18.67 0 0 1 2.07-5.94c0.19-0.44 0.1-0.77-0.28-0.95a0.71 0.71 0 0 0-1 0.28q-1.52 2.06-5.36 2.88c-1 0.1-2 0.14-2.91 0.14a0.52 0.52 0 0 0-0.4-0.14c-1.65-0.83-2.95-0.65-3.86 0.56-0.09 0.1-0.09 0.19 0 0.26s0.14 0.09 0.14 0a2.71 2.71 0 0 1 3.58 1.79 6.86 6.86 0 0 1 0.14 4.82 8.4 8.4 0 0 1-2.21 3.45 5.81 5.81 0 0 1-1.51 1.26 7.8 7.8 0 0 0-1.38 1c-0.55 0.28-0.51 0.61 0.14 1a7 7 0 0 1 3.17 4.7 15 15 0 0 1-0.28 6.33 18.78 18.78 0 0 1-2.35 5.5 13.68 13.68 0 0 1-2.05 3.3 9.93 9.93 0 0 0-2.35 1.52 0.12 0.12 0 0 0-0.14 0.14 8.87 8.87 0 0 0-0.82 1c0.1 0.19 0.19 0.26 0.28 0.26a9.5 9.5 0 0 1 5.25-1.54 8.35 8.35 0 0 1 5.1 1.65 8.7 8.7 0 0 1 3 4.42 16.48 16.48 0 0 1 0.69 5 11.4 11.4 0 0 0-0.14 1.38 0.72 0.72 0 0 0 0.7 0.6 0.55 0.55 0 0 0 0.68-0.46 10.88 10.88 0 0 1 3.3-5.94 8.51 8.51 0 0 1 6.76-2.33c0.46 0 0.7-0.25 0.7-0.77s-0.24-0.74-0.7-0.74c-0.82 0-1.14-1-1-3a5.51 5.51 0 0 1 0.82-2.91 6 6 0 0 1 3.93-2.9 2.92 2.92 0 0 0 1.38 0.28 0.65 0.65 0 0 0 0.69-0.56 0.7 0.7 0 0 0-0.27-0.78zm-7.74 4.12a6.81 6.81 0 0 0-0.11 5.52 16.22 16.22 0 0 0-2.07 0.53 11.78 11.78 0 0 0-3.59 2.08 7.15 7.15 0 0 0-1.65 2.07 21 21 0 0 0-0.42-2.21 9.83 9.83 0 0 0-3.84-5.36 8.47 8.47 0 0 0-6.22-1.69 0.76 0.76 0 0 0-0.54 0.14 14.81 14.81 0 0 0 5.1-8.69 13.53 13.53 0 0 0-0.28-7.7 5.67 5.67 0 0 0-2.35-3.45 10.81 10.81 0 0 0 2.63-2.07 9.51 9.51 0 0 0 2.21-5.48 7.42 7.42 0 0 0-0.67-4.26 6.64 6.64 0 0 0 1.91 0 14 14 0 0 0 2.77-1 8.19 8.19 0 0 0-0.7 2.63 10.59 10.59 0 0 0 1.37 6.61 9.82 9.82 0 0 0 8.83 5.1 8.82 8.82 0 0 0-2.08 7.57 8.49 8.49 0 0 0 3.87 5.66 6.17 6.17 0 0 0-4.17 4zm7.74-4.12a20 20 0 0 1-3.59-2.07 6.15 6.15 0 0 1-1.93-3.59 6.09 6.09 0 0 1-0.21-2.14 6.6 6.6 0 0 1 0.49-2.19 7.67 7.67 0 0 1 1.09-1.95 8.58 8.58 0 0 1 1.65-1.59 0.86 0.86 0 0 0 0.35-0.9c0-0.4-0.3-0.56-0.77-0.47a9.84 9.84 0 0 1-5.42-1 9 9 0 0 1-3.94-3.56 9.12 9.12 0 0 1-1.23-5.1 18.67 18.67 0 0 1 2.07-5.94c0.19-0.44 0.1-0.77-0.28-0.95a0.71 0.71 0 0 0-1 0.28q-1.52 2.06-5.36 2.88c-1 0.1-2 0.14-2.91 0.14a0.52 0.52 0 0 0-0.4-0.14c-1.65-0.83-2.95-0.65-3.86 0.56-0.09 0.1-0.09 0.19 0 0.26s0.14 0.09 0.14 0a2.71 2.71 0 0 1 3.58 1.79 6.86 6.86 0 0 1 0.14 4.82 8.4 8.4 0 0 1-2.21 3.45 5.81 5.81 0 0 1-1.51 1.26 7.8 7.8 0 0 0-1.38 1c-0.55 0.28-0.51 0.61 0.14 1a7 7 0 0 1 3.17 4.7 15 15 0 0 1-0.28 6.33 18.78 18.78 0 0 1-2.35 5.5 13.68 13.68 0 0 1-2.05 3.3 9.93 9.93 0 0 0-2.35 1.52 0.12 0.12 0 0 0-0.14 0.14 8.87 8.87 0 0 0-0.82 1c0.1 0.19 0.19 0.26 0.28 0.26a9.5 9.5 0 0 1 5.25-1.54 8.35 8.35 0 0 1 5.1 1.65 8.7 8.7 0 0 1 3 4.42 16.48 16.48 0 0 1 0.69 5 11.4 11.4 0 0 0-0.14 1.38 0.72 0.72 0 0 0 0.7 0.6 0.55 0.55 0 0 0 0.68-0.46 10.88 10.88 0 0 1 3.3-5.94 8.51 8.51 0 0 1 6.76-2.33c0.46 0 0.7-0.25 0.7-0.77s-0.24-0.74-0.7-0.74c-0.82 0-1.14-1-1-3a5.51 5.51 0 0 1 0.82-2.91 6 6 0 0 1 3.93-2.9 2.92 2.92 0 0 0 1.38 0.28 0.65 0.65 0 0 0 0.69-0.56 0.7 0.7 0 0 0-0.27-0.78zm-7.74 4.12a6.81 6.81 0 0 0-0.11 5.52 16.22 16.22 0 0 0-2.07 0.53 11.78 11.78 0 0 0-3.59 2.08 7.15 7.15 0 0 0-1.65 2.07 21 21 0 0 0-0.42-2.21 9.83 9.83 0 0 0-3.84-5.36 8.47 8.47 0 0 0-6.22-1.69 0.76 0.76 0 0 0-0.54 0.14 14.81 14.81 0 0 0 5.1-8.69 13.53 13.53 0 0 0-0.28-7.7 5.67 5.67 0 0 0-2.35-3.45 10.81 10.81 0 0 0 2.63-2.07 9.51 9.51 0 0 0 2.21-5.48 7.42 7.42 0 0 0-0.67-4.26 6.64 6.64 0 0 0 1.91 0 14 14 0 0 0 2.77-1 8.19 8.19 0 0 0-0.7 2.63 10.59 10.59 0 0 0 1.37 6.61 9.82 9.82 0 0 0 8.83 5.1 8.82 8.82 0 0 0-2.08 7.57 8.49 8.49 0 0 0 3.87 5.66 6.17 6.17 0 0 0-4.17 4zm7.74-4.12a20 20 0 0 1-3.59-2.07 6.15 6.15 0 0 1-1.93-3.59 6.09 6.09 0 0 1-0.21-2.14 6.6 6.6 0 0 1 0.49-2.19 7.67 7.67 0 0 1 1.09-1.95 8.58 8.58 0 0 1 1.65-1.59 0.86 0.86 0 0 0 0.35-0.9c0-0.4-0.3-0.56-0.77-0.47a9.84 9.84 0 0 1-5.42-1 9 9 0 0 1-3.94-3.56 9.12 9.12 0 0 1-1.23-5.1 18.67 18.67 0 0 1 2.07-5.94c0.19-0.44 0.1-0.77-0.28-0.95a0.71 0.71 0 0 0-1 0.28q-1.52 2.06-5.36 2.88c-1 0.1-2 0.14-2.91 0.14a0.52 0.52 0 0 0-0.4-0.14c-1.65-0.83-2.95-0.65-3.86 0.56-0.09 0.1-0.09 0.19 0 0.26s0.14 0.09 0.14 0a2.71 2.71 0 0 1 3.58 1.79 6.86 6.86 0 0 1 0.14 4.82 8.4 8.4 0 0 1-2.21 3.45 5.81 5.81 0 0 1-1.51 1.26 7.8 7.8 0 0 0-1.38 1c-0.55 0.28-0.51 0.61 0.14 1a7 7 0 0 1 3.17 4.7 15 15 0 0 1-0.28 6.33 18.78 18.78 0 0 1-2.35 5.5 13.68 13.68 0 0 1-2.05 3.3 9.93 9.93 0 0 0-2.35 1.52 0.12 0.12 0 0 0-0.14 0.14 8.87 8.87 0 0 0-0.82 1c0.1 0.19 0.19 0.26 0.28 0.26a9.5 9.5 0 0 1 5.25-1.54 8.35 8.35 0 0 1 5.1 1.65 8.7 8.7 0 0 1 3 4.42 16.48 16.48 0 0 1 0.69 5 11.4 11.4 0 0 0-0.14 1.38 0.72 0.72 0 0 0 0.7 0.6 0.55 0.55 0 0 0 0.68-0.46 10.88 10.88 0 0 1 3.3-5.94 8.51 8.51 0 0 1 6.76-2.33c0.46 0 0.7-0.25 0.7-0.77s-0.24-0.74-0.7-0.74c-0.82 0-1.14-1-1-3a5.51 5.51 0 0 1 0.82-2.91 6 6 0 0 1 3.93-2.9 2.92 2.92 0 0 0 1.38 0.28 0.65 0.65 0 0 0 0.69-0.56 0.7 0.7 0 0 0-0.27-0.78zm-7.74 4.12a6.81 6.81 0 0 0-0.11 5.52 16.22 16.22 0 0 0-2.07 0.53 11.78 11.78 0 0 0-3.59 2.08 7.15 7.15 0 0 0-1.65 2.07 21 21 0 0 0-0.42-2.21 9.83 9.83 0 0 0-3.84-5.36 8.47 8.47 0 0 0-6.22-1.69 0.76 0.76 0 0 0-0.54 0.14 14.81 14.81 0 0 0 5.1-8.69 13.53 13.53 0 0 0-0.28-7.7 5.67 5.67 0 0 0-2.35-3.45 10.81 10.81 0 0 0 2.63-2.07 9.51 9.51 0 0 0 2.21-5.48 7.42 7.42 0 0 0-0.67-4.26 6.64 6.64 0 0 0 1.91 0 14 14 0 0 0 2.77-1 8.19 8.19 0 0 0-0.7 2.63 10.59 10.59 0 0 0 1.37 6.61 9.82 9.82 0 0 0 8.83 5.1 8.82 8.82 0 0 0-2.08 7.57 8.49 8.49 0 0 0 3.87 5.66 6.17 6.17 0 0 0-4.17 4zm7.74-4.12a20 20 0 0 1-3.59-2.07 6.15 6.15 0 0 1-1.93-3.59 6.09 6.09 0 0 1-0.21-2.14 6.6 6.6 0 0 1 0.49-2.19 7.67 7.67 0 0 1 1.09-1.95 8.58 8.58 0 0 1 1.65-1.59 0.86 0.86 0 0 0 0.35-0.9c0-0.4-0.3-0.56-0.77-0.47a9.84 9.84 0 0 1-5.42-1 9 9 0 0 1-3.94-3.56 9.12 9.12 0 0 1-1.23-5.1 18.67 18.67 0 0 1 2.07-5.94c0.19-0.44 0.1-0.77-0.28-0.95a0.71 0.71 0 0 0-1 0.28q-1.52 2.06-5.36 2.88c-1 0.1-2 0.14-2.91 0.14a0.52 0.52 0 0 0-0.4-0.14c-1.65-0.83-2.95-0.65-3.86 0.56-0.09 0.1-0.09 0.19 0 0.26s0.14 0.09 0.14 0a2.71 2.71 0 0 1 3.58 1.79 6.86 6.86 0 0 1 0.14 4.82 8.4 8.4 0 0 1-2.21 3.45 5.81 5.81 0 0 1-1.51 1.26 7.8 7.8 0 0 0-1.38 1c-0.55 0.28-0.51 0.61 0.14 1a7 7 0 0 1 3.17 4.7 15 15 0 0 1-0.28 6.33 18.78 18.78 0 0 1-2.35 5.5 13.68 13.68 0 0 1-2.05 3.3 9.93 9.93 0 0 0-2.35 1.52 0.12 0.12 0 0 0-0.14 0.14 8.87 8.87 0 0 0-0.82 1c0.1 0.19 0.19 0.26 0.28 0.26a9.5 9.5 0 0 1 5.25-1.54 8.35 8.35 0 0 1 5.1 1.65 8.7 8.7 0 0 1 3 4.42 16.48 16.48 0 0 1 0.69 5 11.4 11.4 0 0 0-0.14 1.38 0.72 0.72 0 0 0 0.7 0.6 0.55 0.55 0 0 0 0.68-0.46 10.88 10.88 0 0 1 3.3-5.94 8.51 8.51 0 0 1 6.76-2.33c0.46 0 0.7-0.25 0.7-0.77s-0.24-0.74-0.7-0.74c-0.82 0-1.14-1-1-3a5.51 5.51 0 0 1 0.82-2.91 6 6 0 0 1 3.93-2.9 2.92 2.92 0 0 0 1.38 0.28 0.65 0.65 0 0 0 0.69-0.56 0.7 0.7 0 0 0-0.27-0.78zm-7.74 4.12a6.81 6.81 0 0 0-0.11 5.52 16.22 16.22 0 0 0-2.07 0.53 11.78 11.78 0 0 0-3.59 2.08 7.15 7.15 0 0 0-1.65 2.07 21 21 0 0 0-0.42-2.21 9.83 9.83 0 0 0-3.84-5.36 8.47 8.47 0 0 0-6.22-1.69 0.76 0.76 0 0 0-0.54 0.14 14.81 14.81 0 0 0 5.1-8.69 13.53 13.53 0 0 0-0.28-7.7 5.67 5.67 0 0 0-2.35-3.45 10.81 10.81 0 0 0 2.63-2.07 9.51 9.51 0 0 0 2.21-5.48 7.42 7.42 0 0 0-0.67-4.26 6.64 6.64 0 0 0 1.91 0 14 14 0 0 0 2.77-1 8.19 8.19 0 0 0-0.7 2.63 10.59 10.59 0 0 0 1.37 6.61 9.82 9.82 0 0 0 8.83 5.1 8.82 8.82 0 0 0-2.08 7.57 8.49 8.49 0 0 0 3.87 5.66 6.17 6.17 0 0 0-4.17 4zm31-7.57a13.5 13.5 0 0 0 1-7.59 9.5 9.5 0 0 0-3.44-6.33 7.44 7.44 0 0 0-3.31-1.79 3.42 3.42 0 0 0 0.7-0.82 10.79 10.79 0 0 0 2.19-7.57 11.82 11.82 0 0 0-2.61-7.59 8.85 8.85 0 0 0-5.38-3.44 5 5 0 0 0 0.35-3.59 5.82 5.82 0 0 0-2-3.17 7.74 7.74 0 0 0-4.68-1.51 9.44 9.44 0 0 0-3.31 0.84 7.32 7.32 0 0 0 0.7-3.73 9 9 0 0 0-4.56-6.61 12.74 12.74 0 0 0-8.09-1.93 11.73 11.73 0 0 0-7.64 3 9.79 9.79 0 0 0-5.44-2.72 10.57 10.57 0 0 0-6.13 0.7 9.64 9.64 0 0 0-4.12 3.51 8.64 8.64 0 0 0-1.65 5 6 6 0 0 0-1.66-1 4.43 4.43 0 0 0-4.28 1 5.27 5.27 0 0 0-2.07 4 4.57 4.57 0 0 0 0.28 2.75l0.7 0.84a10.47 10.47 0 0 0-5.94 2.26 14.87 14.87 0 0 0-5.5 6.47 14 14 0 0 0-1.23 8 14.15 14.15 0 0 0 3.17 7.43c-3.59 1.65-5.57 5.66-5.94 12a9.8 9.8 0 0 0 1.76 6.55 13.9 13.9 0 0 0 5.55 4.55c-3.12 4.31-3.68 8.55-1.65 12.67a8.3 8.3 0 0 0 5 4.42c0 0.07 0.07 0.12 0.21 0.12a2.92 2.92 0 0 1 0.39 0.07 1.45 1.45 0 0 0 0.49 0.07 7.5 7.5 0 0 0-1.23 4.82 8.74 8.74 0 0 0 3.3 6.47 7.91 7.91 0 0 0 6.75 1.79 7.2 7.2 0 0 0 4.64-2.43h0.14c0.1 1.93 1.33 3.56 3.73 4.89a15.56 15.56 0 0 0 6.87 2.14c2.93 0.16 5.14-0.65 6.61-2.49a8.45 8.45 0 0 0 1.26-2.22 4.05 4.05 0 0 0 0.67 1.12 3.83 3.83 0 0 0 3.31 0.82 4.72 4.72 0 0 0 2.75-1.94 4.66 4.66 0 0 0 0.7-1.37 8.41 8.41 0 0 0 3.58 2.05 13.91 13.91 0 0 0 9.78-0.28 8.33 8.33 0 0 0 5.5-6 8.61 8.61 0 0 0-0.54-7 6.4 6.4 0 0 0 4.82-3.73 6.16 6.16 0 0 0-0.14-6 4.74 4.74 0 0 0 2.33-1 6.55 6.55 0 0 0 1.79-1.99 7.65 7.65 0 0 0 1-2.21 8.84 8.84 0 0 0-0.35-4.47 7 7 0 0 0-2.42-3.66 8.68 8.68 0 0 0 3.29-4.17zm-5.36 4.51a7.29 7.29 0 0 0 1 1.45 5.11 5.11 0 0 1 1 1.58 6.43 6.43 0 0 1 0.7 3.86q-0.56 3.43-4.68 4.68c-0.56 0.19-0.7 0.52-0.42 1q0.14 0.42 0.42 1.26a7 7 0 0 1-0.14 4.26 5.76 5.76 0 0 1-4.54 3 0.57 0.57 0 0 0-0.56 0.49 0.7 0.7 0 0 0 0.14 0.75c1.09 1.65 1.23 3.77 0.42 6.33a6.74 6.74 0 0 1-4.54 5 14.9 14.9 0 0 1-7.59 0.28 8.61 8.61 0 0 1-5.78-3.7c-0.09-0.19-0.25-0.23-0.49-0.14s-0.3 0.23-0.21 0.4a8.08 8.08 0 0 0 1.38 2.91 3 3 0 0 1-0.82 1.09 4.85 4.85 0 0 1-2.35 1 2 2 0 0 1-1.93-0.14 4.26 4.26 0 0 1-0.4-0.39c-0.18-0.19-0.32-0.28-0.42-0.28l-0.56-0.84a11.6 11.6 0 0 0-0.27-2.47c-0.1-0.18-0.21-0.23-0.4-0.14s-0.28 0.14-0.28 0.42a4.19 4.19 0 0 1-2.14 4.82 8.53 8.53 0 0 1-5.85 1.38 10.41 10.41 0 0 1-5.46-2.16 9.76 9.76 0 0 1-3.59-4.7 0.47 0.47 0 0 0-0.33-0.14 0.5 0.5 0 0 0-0.35 0.14c-0.09 0.19-0.46 0.42-1.11 0.7a3.83 3.83 0 0 1-1 0.54 13 13 0 0 1-2.61 0.84 7.14 7.14 0 0 1-5.37-1.38 6.72 6.72 0 0 1-2.89-4.7 9.22 9.22 0 0 1 0.25-3 1.57 1.57 0 0 1 0.21-0.67 1.68 1.68 0 0 0 0.21-0.7 4 4 0 0 0 3.31-1.24v-0.29a16.5 16.5 0 0 1-1.72-0.13c-0.77-0.1-1.45-0.19-2-0.28a6.23 6.23 0 0 1-1.65-0.54 7.39 7.39 0 0 1-3.56-3.73c-1.75-3.67-1.26-7.47 1.51-11.43 0.28-0.37 0.19-0.7-0.28-0.95a15.26 15.26 0 0 1-5-3.87 9.19 9.19 0 0 1-1.51-6.61 16.27 16.27 0 0 1 1.51-6.19 13.83 13.83 0 0 1 3.97-4.68 1.63 1.63 0 0 1 0.11-0.42v-0.14a1.55 1.55 0 0 0-0.11-0.56 16.27 16.27 0 0 1-2.49-7 13.81 13.81 0 0 1 5.49-12.57 19.38 19.38 0 0 1 3.3-1.79 4.77 4.77 0 0 1 0.89-0.33c0.42-0.14 0.81-0.28 1.16-0.42a7.2 7.2 0 0 0 1.05-0.46 0.54 0.54 0 0 0 0.21-0.81 6.23 6.23 0 0 1-0.56-3.17 3.57 3.57 0 0 1 0.84-2.77c1.18-1.37 2.84-1.37 4.93 0a2 2 0 0 1 0.14 0.56 0.57 0.57 0 0 0 0.56 0.28 0.37 0.37 0 0 0 0.42-0.42 12.18 12.18 0 0 1 1.58-5.59 7.62 7.62 0 0 1 3.92-3.51 8.28 8.28 0 0 1 5.38-0.4 9.1 9.1 0 0 1 4.68 2.83 0.73 0.73 0 0 0 0.76 0.35 1 1 0 0 0 0.74-0.45c1.21-1.94 3.24-3 6.15-3.17a11.45 11.45 0 0 1 6.93 1.37 8.05 8.05 0 0 1 3.92 5.1 7.06 7.06 0 0 1-0.6 4.8v0.14c-0.09 0-0.14 0.1-0.14 0.28a1.93 1.93 0 0 1-0.67 0.82 0.38 0.38 0 0 0 0.07 0.49c0.14 0.14 0.25 0.16 0.34 0.07 0.45-0.38 1.05-0.87 1.8-1.52 2.84-0.74 5.07-0.65 6.73 0.28a4.4 4.4 0 0 1 2.14 2.68 3 3 0 0 1-0.89 3.1 0.84 0.84 0 0 0-0.21 1 1 1 0 0 0 0.75 0.68c2.93 0.74 4.87 1.84 5.8 3.31a13 13 0 0 1 1.93 6.33 11.45 11.45 0 0 1-1.4 6.08 10.41 10.41 0 0 1-1.65 2.18 5.84 5.84 0 0 1-1.23 0.9 6.92 6.92 0 0 0-1.24 0.89 0.44 0.44 0 0 0-0.07 0.42 0.34 0.34 0 0 0 0.35 0.28 5.22 5.22 0 0 0 3-1.38 5.26 5.26 0 0 0 1.23 0.54 11.12 11.12 0 0 1 2.35 1.65 8.27 8.27 0 0 1 2.33 5.38 14.76 14.76 0 0 1-0.67 5.91c-0.75 2.4-1.75 3.92-3 4.57-0.47 0.18-0.56 0.49-0.28 0.92zm-21.49-3.16a6.15 6.15 0 0 1-1.93-3.59 6.09 6.09 0 0 1-0.21-2.14 6.6 6.6 0 0 1 0.49-2.19 7.67 7.67 0 0 1 1.09-1.92 8.58 8.58 0 0 1 1.65-1.59 0.86 0.86 0 0 0 0.35-0.9c0-0.4-0.3-0.56-0.77-0.47a9.84 9.84 0 0 1-5.42-1 9 9 0 0 1-3.94-3.56 9.12 9.12 0 0 1-1.23-5.1 18.67 18.67 0 0 1 2.07-5.94c0.19-0.44 0.1-0.77-0.28-0.95a0.71 0.71 0 0 0-1 0.28q-1.52 2.06-5.36 2.88c-1 0.1-2 0.14-2.91 0.14a0.52 0.52 0 0 0-0.4-0.14c-1.65-0.83-2.95-0.65-3.86 0.56-0.09 0.1-0.09 0.19 0 0.26s0.14 0.09 0.14 0a2.71 2.71 0 0 1 3.58 1.79 6.86 6.86 0 0 1 0.14 4.82 8.4 8.4 0 0 1-2.21 3.45 5.81 5.81 0 0 1-1.51 1.26 7.8 7.8 0 0 0-1.38 1c-0.55 0.28-0.51 0.61 0.14 1a7 7 0 0 1 3.17 4.7 15 15 0 0 1-0.28 6.33 18.78 18.78 0 0 1-2.35 5.5 13.68 13.68 0 0 1-2.05 3.3 9.93 9.93 0 0 0-2.35 1.52 0.12 0.12 0 0 0-0.14 0.14 8.87 8.87 0 0 0-0.82 1c0.1 0.19 0.19 0.26 0.28 0.26a9.5 9.5 0 0 1 5.25-1.54 8.35 8.35 0 0 1 5.1 1.65 8.7 8.7 0 0 1 3 4.42 16.48 16.48 0 0 1 0.69 5 11.4 11.4 0 0 0-0.14 1.38 0.72 0.72 0 0 0 0.7 0.6 0.55 0.55 0 0 0 0.68-0.46 10.88 10.88 0 0 1 3.3-5.94 8.51 8.51 0 0 1 6.76-2.33c0.46 0 0.7-0.25 0.7-0.77s-0.24-0.74-0.7-0.74c-0.82 0-1.14-1-1-3a5.51 5.51 0 0 1 0.82-2.91 6 6 0 0 1 3.93-2.9 2.92 2.92 0 0 0 1.38 0.28 0.65 0.65 0 0 0 0.69-0.56 0.7 0.7 0 0 0-0.27-0.81 20 20 0 0 1-3.59-2.04zm-4.15 6.19a6.81 6.81 0 0 0-0.11 5.52 16.22 16.22 0 0 0-2.07 0.53 11.78 11.78 0 0 0-3.59 2.08 7.15 7.15 0 0 0-1.65 2.07 21 21 0 0 0-0.42-2.21 9.83 9.83 0 0 0-3.84-5.36 8.47 8.47 0 0 0-6.22-1.66 0.76 0.76 0 0 0-0.54 0.14 14.81 14.81 0 0 0 5.1-8.69 13.53 13.53 0 0 0-0.28-7.7 5.67 5.67 0 0 0-2.35-3.45 10.81 10.81 0 0 0 2.63-2.07 9.51 9.51 0 0 0 2.21-5.48 7.42 7.42 0 0 0-0.67-4.26 6.64 6.64 0 0 0 1.91 0 14 14 0 0 0 2.77-1 8.19 8.19 0 0 0-0.7 2.63 10.59 10.59 0 0 0 1.37 6.61 9.82 9.82 0 0 0 8.83 5.1 8.82 8.82 0 0 0-2.08 7.57 8.49 8.49 0 0 0 3.87 5.66 6.17 6.17 0 0 0-4.17 4zm7.74-4.12a20 20 0 0 1-3.59-2.07 6.15 6.15 0 0 1-1.93-3.59 6.09 6.09 0 0 1-0.21-2.14 6.6 6.6 0 0 1 0.49-2.19 7.67 7.67 0 0 1 1.09-1.92 8.58 8.58 0 0 1 1.65-1.59 0.86 0.86 0 0 0 0.35-0.9c0-0.4-0.3-0.56-0.77-0.47a9.84 9.84 0 0 1-5.42-1 9 9 0 0 1-3.94-3.56 9.12 9.12 0 0 1-1.23-5.1 18.67 18.67 0 0 1 2.07-5.94c0.19-0.44 0.1-0.77-0.28-0.95a0.71 0.71 0 0 0-1 0.28q-1.52 2.06-5.36 2.88c-1 0.1-2 0.14-2.91 0.14a0.52 0.52 0 0 0-0.4-0.14c-1.65-0.83-2.95-0.65-3.86 0.56-0.09 0.1-0.09 0.19 0 0.26s0.14 0.09 0.14 0a2.71 2.71 0 0 1 3.58 1.79 6.86 6.86 0 0 1 0.14 4.82 8.4 8.4 0 0 1-2.21 3.45 5.81 5.81 0 0 1-1.51 1.26 7.8 7.8 0 0 0-1.38 1c-0.55 0.28-0.51 0.61 0.14 1a7 7 0 0 1 3.17 4.7 15 15 0 0 1-0.28 6.33 18.78 18.78 0 0 1-2.35 5.5 13.68 13.68 0 0 1-2.05 3.3 9.93 9.93 0 0 0-2.35 1.52 0.12 0.12 0 0 0-0.14 0.14 8.87 8.87 0 0 0-0.82 1c0.1 0.19 0.19 0.26 0.28 0.26a9.5 9.5 0 0 1 5.25-1.54 8.35 8.35 0 0 1 5.1 1.65 8.7 8.7 0 0 1 3 4.42 16.48 16.48 0 0 1 0.69 5 11.4 11.4 0 0 0-0.14 1.38 0.72 0.72 0 0 0 0.7 0.6 0.55 0.55 0 0 0 0.68-0.46 10.88 10.88 0 0 1 3.3-5.94 8.51 8.51 0 0 1 6.76-2.33c0.46 0 0.7-0.25 0.7-0.77s-0.24-0.74-0.7-0.74c-0.82 0-1.14-1-1-3a5.51 5.51 0 0 1 0.82-2.91 6 6 0 0 1 3.93-2.9 2.92 2.92 0 0 0 1.38 0.28 0.65 0.65 0 0 0 0.69-0.56 0.7 0.7 0 0 0-0.27-0.78zm-7.74 4.12a6.81 6.81 0 0 0-0.11 5.52 16.22 16.22 0 0 0-2.07 0.53 11.78 11.78 0 0 0-3.59 2.08 7.15 7.15 0 0 0-1.65 2.07 21 21 0 0 0-0.42-2.21 9.83 9.83 0 0 0-3.84-5.36 8.47 8.47 0 0 0-6.22-1.66 0.76 0.76 0 0 0-0.54 0.14 14.81 14.81 0 0 0 5.1-8.69 13.53 13.53 0 0 0-0.28-7.7 5.67 5.67 0 0 0-2.35-3.45 10.81 10.81 0 0 0 2.63-2.07 9.51 9.51 0 0 0 2.21-5.48 7.42 7.42 0 0 0-0.67-4.26 6.64 6.64 0 0 0 1.91 0 14 14 0 0 0 2.77-1 8.19 8.19 0 0 0-0.7 2.63 10.59 10.59 0 0 0 1.37 6.61 9.82 9.82 0 0 0 8.83 5.1 8.82 8.82 0 0 0-2.08 7.57 8.49 8.49 0 0 0 3.87 5.66 6.17 6.17 0 0 0-4.17 4zm7.74-4.12a20 20 0 0 1-3.59-2.07 6.15 6.15 0 0 1-1.93-3.59 6.09 6.09 0 0 1-0.21-2.14 6.6 6.6 0 0 1 0.49-2.19 7.67 7.67 0 0 1 1.09-1.92 8.58 8.58 0 0 1 1.65-1.59 0.86 0.86 0 0 0 0.35-0.9c0-0.4-0.3-0.56-0.77-0.47a9.84 9.84 0 0 1-5.42-1 9 9 0 0 1-3.94-3.56 9.12 9.12 0 0 1-1.23-5.1 18.67 18.67 0 0 1 2.07-5.94c0.19-0.44 0.1-0.77-0.28-0.95a0.71 0.71 0 0 0-1 0.28q-1.52 2.06-5.36 2.88c-1 0.1-2 0.14-2.91 0.14a0.52 0.52 0 0 0-0.4-0.14c-1.65-0.83-2.95-0.65-3.86 0.56-0.09 0.1-0.09 0.19 0 0.26s0.14 0.09 0.14 0a2.71 2.71 0 0 1 3.58 1.79 6.86 6.86 0 0 1 0.14 4.82 8.4 8.4 0 0 1-2.21 3.45 5.81 5.81 0 0 1-1.51 1.26 7.8 7.8 0 0 0-1.38 1c-0.55 0.28-0.51 0.61 0.14 1a7 7 0 0 1 3.17 4.7 15 15 0 0 1-0.28 6.33 18.78 18.78 0 0 1-2.35 5.5 13.68 13.68 0 0 1-2.05 3.3 9.93 9.93 0 0 0-2.35 1.52 0.12 0.12 0 0 0-0.14 0.14 8.87 8.87 0 0 0-0.82 1c0.1 0.19 0.19 0.26 0.28 0.26a9.5 9.5 0 0 1 5.25-1.54 8.35 8.35 0 0 1 5.1 1.65 8.7 8.7 0 0 1 3 4.42 16.48 16.48 0 0 1 0.69 5 11.4 11.4 0 0 0-0.14 1.38 0.72 0.72 0 0 0 0.7 0.6 0.55 0.55 0 0 0 0.68-0.46 10.88 10.88 0 0 1 3.3-5.94 8.51 8.51 0 0 1 6.76-2.33c0.46 0 0.7-0.25 0.7-0.77s-0.24-0.74-0.7-0.74c-0.82 0-1.14-1-1-3a5.51 5.51 0 0 1 0.82-2.91 6 6 0 0 1 3.93-2.9 2.92 2.92 0 0 0 1.38 0.28 0.65 0.65 0 0 0 0.69-0.56 0.7 0.7 0 0 0-0.27-0.78zm-7.74 4.12a6.81 6.81 0 0 0-0.11 5.52 16.22 16.22 0 0 0-2.07 0.53 11.78 11.78 0 0 0-3.59 2.08 7.15 7.15 0 0 0-1.65 2.07 21 21 0 0 0-0.42-2.21 9.83 9.83 0 0 0-3.84-5.36 8.47 8.47 0 0 0-6.22-1.66 0.76 0.76 0 0 0-0.54 0.14 14.81 14.81 0 0 0 5.1-8.69 13.53 13.53 0 0 0-0.28-7.7 5.67 5.67 0 0 0-2.35-3.45 10.81 10.81 0 0 0 2.63-2.07 9.51 9.51 0 0 0 2.21-5.48 7.42 7.42 0 0 0-0.67-4.26 6.64 6.64 0 0 0 1.91 0 14 14 0 0 0 2.77-1 8.19 8.19 0 0 0-0.7 2.63 10.59 10.59 0 0 0 1.37 6.61 9.82 9.82 0 0 0 8.83 5.1 8.82 8.82 0 0 0-2.08 7.57 8.49 8.49 0 0 0 3.87 5.66 6.17 6.17 0 0 0-4.17 4z"/>
   <path class="cls-2" d="m261.64 58.94a20.17 20.17 0 0 1-3.58-2.07 6.15 6.15 0 0 1-1.93-3.59 6.09 6.09 0 0 1-0.21-2.14 6.6 6.6 0 0 1 0.49-2.19 7.67 7.67 0 0 1 1.09-1.95 7.8 7.8 0 0 1 1.65-1.59 0.86 0.86 0 0 0 0.35-0.9c0-0.4-0.3-0.56-0.77-0.47a9.84 9.84 0 0 1-5.42-1 9 9 0 0 1-3.94-3.56 9.12 9.12 0 0 1-1.23-5.1 18.67 18.67 0 0 1 2.07-5.94c0.17-0.44 0.1-0.77-0.28-0.95a0.71 0.71 0 0 0-1 0.28q-1.52 2.06-5.36 2.88c-1 0.1-2 0.14-2.91 0.14a0.56 0.56 0 0 0-0.4-0.14c-1.65-0.83-2.95-0.65-3.86 0.56-0.09 0.1-0.09 0.19 0 0.26s0.14 0.09 0.14 0a2.71 2.71 0 0 1 3.58 1.79 6.86 6.86 0 0 1 0.14 4.82 8.4 8.4 0 0 1-2.21 3.45 6.18 6.18 0 0 1-1.51 1.26 7.8 7.8 0 0 0-1.38 1c-0.55 0.28-0.51 0.61 0.14 1a7 7 0 0 1 3.17 4.7 15 15 0 0 1-0.28 6.33 18.78 18.78 0 0 1-2.35 5.5 13.68 13.68 0 0 1-2.05 3.3 9.93 9.93 0 0 0-2.35 1.52 0.12 0.12 0 0 0-0.14 0.14 8.87 8.87 0 0 0-0.82 1c0.07 0.19 0.19 0.26 0.26 0.26a9.52 9.52 0 0 1 5.26-1.54 8.35 8.35 0 0 1 5.1 1.65 8.7 8.7 0 0 1 3 4.42 16.48 16.48 0 0 1 0.69 5 11.4 11.4 0 0 0-0.14 1.38 0.72 0.72 0 0 0 0.7 0.6 0.55 0.55 0 0 0 0.68-0.46 10.88 10.88 0 0 1 3.3-5.94 8.51 8.51 0 0 1 6.76-2.33c0.46 0 0.7-0.25 0.7-0.77s-0.24-0.74-0.7-0.74c-0.84 0-1.14-1-1-3a5.51 5.51 0 0 1 0.82-2.91 5.91 5.91 0 0 1 3.94-2.9 2.92 2.92 0 0 0 1.38 0.28 0.63 0.63 0 0 0 0.67-0.56 0.69 0.69 0 0 0-0.26-0.78zm-7.73 4.12a6.93 6.93 0 0 0-0.14 5.52 17.34 17.34 0 0 0-2 0.53 11.78 11.78 0 0 0-3.59 2.08 7.15 7.15 0 0 0-1.65 2.07 21 21 0 0 0-0.42-2.21 9.83 9.83 0 0 0-3.87-5.36 8.36 8.36 0 0 0-6.24-1.69 0.73 0.73 0 0 0-0.54 0.14 14.68 14.68 0 0 0 5.08-8.69 13.37 13.37 0 0 0-0.26-7.7 5.67 5.67 0 0 0-2.35-3.45 10.67 10.67 0 0 0 2.61-2.07 9.41 9.41 0 0 0 2.21-5.52 7.5 7.5 0 0 0-0.67-4.26 6.64 6.64 0 0 0 1.91 0 14 14 0 0 0 2.77-1 8.19 8.19 0 0 0-0.7 2.63 10.59 10.59 0 0 0 1.37 6.61 9.82 9.82 0 0 0 8.83 5.1 8.82 8.82 0 0 0-2.08 7.57 8.49 8.49 0 0 0 3.87 5.66 6.17 6.17 0 0 0-4.14 4.04zm7.73-4.12a20.17 20.17 0 0 1-3.58-2.07 6.15 6.15 0 0 1-1.93-3.59 6.09 6.09 0 0 1-0.21-2.14 6.6 6.6 0 0 1 0.49-2.19 7.67 7.67 0 0 1 1.09-1.95 7.8 7.8 0 0 1 1.65-1.59 0.86 0.86 0 0 0 0.35-0.9c0-0.4-0.3-0.56-0.77-0.47a9.84 9.84 0 0 1-5.42-1 9 9 0 0 1-3.94-3.56 9.12 9.12 0 0 1-1.23-5.1 18.67 18.67 0 0 1 2.07-5.94c0.17-0.44 0.1-0.77-0.28-0.95a0.71 0.71 0 0 0-1 0.28q-1.52 2.06-5.36 2.88c-1 0.1-2 0.14-2.91 0.14a0.56 0.56 0 0 0-0.4-0.14c-1.65-0.83-2.95-0.65-3.86 0.56-0.09 0.1-0.09 0.19 0 0.26s0.14 0.09 0.14 0a2.71 2.71 0 0 1 3.58 1.79 6.86 6.86 0 0 1 0.14 4.82 8.4 8.4 0 0 1-2.21 3.45 6.18 6.18 0 0 1-1.51 1.26 7.8 7.8 0 0 0-1.38 1c-0.55 0.28-0.51 0.61 0.14 1a7 7 0 0 1 3.17 4.7 15 15 0 0 1-0.28 6.33 18.78 18.78 0 0 1-2.35 5.5 13.68 13.68 0 0 1-2.05 3.3 9.93 9.93 0 0 0-2.35 1.52 0.12 0.12 0 0 0-0.14 0.14 8.87 8.87 0 0 0-0.82 1c0.07 0.19 0.19 0.26 0.26 0.26a9.52 9.52 0 0 1 5.26-1.54 8.35 8.35 0 0 1 5.1 1.65 8.7 8.7 0 0 1 3 4.42 16.48 16.48 0 0 1 0.69 5 11.4 11.4 0 0 0-0.14 1.38 0.72 0.72 0 0 0 0.7 0.6 0.55 0.55 0 0 0 0.68-0.46 10.88 10.88 0 0 1 3.3-5.94 8.51 8.51 0 0 1 6.76-2.33c0.46 0 0.7-0.25 0.7-0.77s-0.24-0.74-0.7-0.74c-0.84 0-1.14-1-1-3a5.51 5.51 0 0 1 0.82-2.91 5.91 5.91 0 0 1 3.94-2.9 2.92 2.92 0 0 0 1.38 0.28 0.63 0.63 0 0 0 0.67-0.56 0.69 0.69 0 0 0-0.26-0.78zm-7.73 4.12a6.93 6.93 0 0 0-0.14 5.52 17.34 17.34 0 0 0-2 0.53 11.78 11.78 0 0 0-3.59 2.08 7.15 7.15 0 0 0-1.65 2.07 21 21 0 0 0-0.42-2.21 9.83 9.83 0 0 0-3.87-5.36 8.36 8.36 0 0 0-6.24-1.69 0.73 0.73 0 0 0-0.54 0.14 14.68 14.68 0 0 0 5.08-8.69 13.37 13.37 0 0 0-0.26-7.7 5.67 5.67 0 0 0-2.35-3.45 10.67 10.67 0 0 0 2.61-2.07 9.41 9.41 0 0 0 2.21-5.52 7.5 7.5 0 0 0-0.67-4.26 6.64 6.64 0 0 0 1.91 0 14 14 0 0 0 2.77-1 8.19 8.19 0 0 0-0.7 2.63 10.59 10.59 0 0 0 1.37 6.61 9.82 9.82 0 0 0 8.83 5.1 8.82 8.82 0 0 0-2.08 7.57 8.49 8.49 0 0 0 3.87 5.66 6.17 6.17 0 0 0-4.14 4.04zm7.73-4.12a20.17 20.17 0 0 1-3.58-2.07 6.15 6.15 0 0 1-1.93-3.59 6.09 6.09 0 0 1-0.21-2.14 6.6 6.6 0 0 1 0.49-2.19 7.67 7.67 0 0 1 1.09-1.95 7.8 7.8 0 0 1 1.65-1.59 0.86 0.86 0 0 0 0.35-0.9c0-0.4-0.3-0.56-0.77-0.47a9.84 9.84 0 0 1-5.42-1 9 9 0 0 1-3.94-3.56 9.12 9.12 0 0 1-1.23-5.1 18.67 18.67 0 0 1 2.07-5.94c0.17-0.44 0.1-0.77-0.28-0.95a0.71 0.71 0 0 0-1 0.28q-1.52 2.06-5.36 2.88c-1 0.1-2 0.14-2.91 0.14a0.56 0.56 0 0 0-0.4-0.14c-1.65-0.83-2.95-0.65-3.86 0.56-0.09 0.1-0.09 0.19 0 0.26s0.14 0.09 0.14 0a2.71 2.71 0 0 1 3.58 1.79 6.86 6.86 0 0 1 0.14 4.82 8.4 8.4 0 0 1-2.21 3.45 6.18 6.18 0 0 1-1.51 1.26 7.8 7.8 0 0 0-1.38 1c-0.55 0.28-0.51 0.61 0.14 1a7 7 0 0 1 3.17 4.7 15 15 0 0 1-0.28 6.33 18.78 18.78 0 0 1-2.35 5.5 13.68 13.68 0 0 1-2.05 3.3 9.93 9.93 0 0 0-2.35 1.52 0.12 0.12 0 0 0-0.14 0.14 8.87 8.87 0 0 0-0.82 1c0.07 0.19 0.19 0.26 0.26 0.26a9.52 9.52 0 0 1 5.26-1.54 8.35 8.35 0 0 1 5.1 1.65 8.7 8.7 0 0 1 3 4.42 16.48 16.48 0 0 1 0.69 5 11.4 11.4 0 0 0-0.14 1.38 0.72 0.72 0 0 0 0.7 0.6 0.55 0.55 0 0 0 0.68-0.46 10.88 10.88 0 0 1 3.3-5.94 8.51 8.51 0 0 1 6.76-2.33c0.46 0 0.7-0.25 0.7-0.77s-0.24-0.74-0.7-0.74c-0.84 0-1.14-1-1-3a5.51 5.51 0 0 1 0.82-2.91 5.91 5.91 0 0 1 3.94-2.9 2.92 2.92 0 0 0 1.38 0.28 0.63 0.63 0 0 0 0.67-0.56 0.69 0.69 0 0 0-0.26-0.78zm-7.73 4.12a6.93 6.93 0 0 0-0.14 5.52 17.34 17.34 0 0 0-2 0.53 11.78 11.78 0 0 0-3.59 2.08 7.15 7.15 0 0 0-1.65 2.07 21 21 0 0 0-0.42-2.21 9.83 9.83 0 0 0-3.87-5.36 8.36 8.36 0 0 0-6.24-1.69 0.73 0.73 0 0 0-0.54 0.14 14.68 14.68 0 0 0 5.08-8.69 13.37 13.37 0 0 0-0.26-7.7 5.67 5.67 0 0 0-2.35-3.45 10.67 10.67 0 0 0 2.61-2.07 9.41 9.41 0 0 0 2.21-5.52 7.5 7.5 0 0 0-0.67-4.26 6.64 6.64 0 0 0 1.91 0 14 14 0 0 0 2.77-1 8.19 8.19 0 0 0-0.7 2.63 10.59 10.59 0 0 0 1.37 6.61 9.82 9.82 0 0 0 8.83 5.1 8.82 8.82 0 0 0-2.08 7.57 8.49 8.49 0 0 0 3.87 5.66 6.17 6.17 0 0 0-4.14 4.04zm7.73-4.12a20.17 20.17 0 0 1-3.58-2.07 6.15 6.15 0 0 1-1.93-3.59 6.09 6.09 0 0 1-0.21-2.14 6.6 6.6 0 0 1 0.49-2.19 7.67 7.67 0 0 1 1.09-1.95 7.8 7.8 0 0 1 1.65-1.59 0.86 0.86 0 0 0 0.35-0.9c0-0.4-0.3-0.56-0.77-0.47a9.84 9.84 0 0 1-5.42-1 9 9 0 0 1-3.94-3.56 9.12 9.12 0 0 1-1.23-5.1 18.67 18.67 0 0 1 2.07-5.94c0.17-0.44 0.1-0.77-0.28-0.95a0.71 0.71 0 0 0-1 0.28q-1.52 2.06-5.36 2.88c-1 0.1-2 0.14-2.91 0.14a0.56 0.56 0 0 0-0.4-0.14c-1.65-0.83-2.95-0.65-3.86 0.56-0.09 0.1-0.09 0.19 0 0.26s0.14 0.09 0.14 0a2.71 2.71 0 0 1 3.58 1.79 6.86 6.86 0 0 1 0.14 4.82 8.4 8.4 0 0 1-2.21 3.45 6.18 6.18 0 0 1-1.51 1.26 7.8 7.8 0 0 0-1.38 1c-0.55 0.28-0.51 0.61 0.14 1a7 7 0 0 1 3.17 4.7 15 15 0 0 1-0.28 6.33 18.78 18.78 0 0 1-2.35 5.5 13.68 13.68 0 0 1-2.05 3.3 9.93 9.93 0 0 0-2.35 1.52 0.12 0.12 0 0 0-0.14 0.14 8.87 8.87 0 0 0-0.82 1c0.07 0.19 0.19 0.26 0.26 0.26a9.52 9.52 0 0 1 5.26-1.54 8.35 8.35 0 0 1 5.1 1.65 8.7 8.7 0 0 1 3 4.42 16.48 16.48 0 0 1 0.69 5 11.4 11.4 0 0 0-0.14 1.38 0.72 0.72 0 0 0 0.7 0.6 0.55 0.55 0 0 0 0.68-0.46 10.88 10.88 0 0 1 3.3-5.94 8.51 8.51 0 0 1 6.76-2.33c0.46 0 0.7-0.25 0.7-0.77s-0.24-0.74-0.7-0.74c-0.84 0-1.14-1-1-3a5.51 5.51 0 0 1 0.82-2.91 5.91 5.91 0 0 1 3.94-2.9 2.92 2.92 0 0 0 1.38 0.28 0.63 0.63 0 0 0 0.67-0.56 0.69 0.69 0 0 0-0.26-0.78zm-7.73 4.12a6.93 6.93 0 0 0-0.14 5.52 17.34 17.34 0 0 0-2 0.53 11.78 11.78 0 0 0-3.59 2.08 7.15 7.15 0 0 0-1.65 2.07 21 21 0 0 0-0.42-2.21 9.83 9.83 0 0 0-3.87-5.36 8.36 8.36 0 0 0-6.24-1.69 0.73 0.73 0 0 0-0.54 0.14 14.68 14.68 0 0 0 5.08-8.69 13.37 13.37 0 0 0-0.26-7.7 5.67 5.67 0 0 0-2.35-3.45 10.67 10.67 0 0 0 2.61-2.07 9.41 9.41 0 0 0 2.21-5.52 7.5 7.5 0 0 0-0.67-4.26 6.64 6.64 0 0 0 1.91 0 14 14 0 0 0 2.77-1 8.19 8.19 0 0 0-0.7 2.63 10.59 10.59 0 0 0 1.37 6.61 9.82 9.82 0 0 0 8.83 5.1 8.82 8.82 0 0 0-2.08 7.57 8.49 8.49 0 0 0 3.87 5.66 6.17 6.17 0 0 0-4.14 4.04zm31-7.57a13.5 13.5 0 0 0 1-7.59 9.5 9.5 0 0 0-3.44-6.33 7.6 7.6 0 0 0-3.31-1.79 4.33 4.33 0 0 0 0.7-0.82 10.89 10.89 0 0 0 2.14-7.57 11.82 11.82 0 0 0-2.61-7.59 8.85 8.85 0 0 0-5.39-3.44 5 5 0 0 0 0.35-3.59 5.93 5.93 0 0 0-2-3.17 7.74 7.74 0 0 0-4.68-1.51 9.44 9.44 0 0 0-3.31 0.84 7.32 7.32 0 0 0 0.7-3.73 9 9 0 0 0-4.56-6.61 12.74 12.74 0 0 0-8.03-1.93 11.73 11.73 0 0 0-7.64 3 9.79 9.79 0 0 0-5.44-2.72 10.55 10.55 0 0 0-6.13 0.7 9.81 9.81 0 0 0-4.14 3.51 8.8 8.8 0 0 0-1.66 5 5.29 5.29 0 0 0-1.65-1 4.4 4.4 0 0 0-4.26 1 5.27 5.27 0 0 0-2.07 4 4.42 4.42 0 0 0 0.28 2.75l0.7 0.84a10.47 10.47 0 0 0-5.94 2.26 14.87 14.87 0 0 0-5.5 6.47 14 14 0 0 0-1.23 8 14.15 14.15 0 0 0 3.21 7.38c-3.59 1.65-5.57 5.66-5.94 12a9.8 9.8 0 0 0 1.79 6.61 13.9 13.9 0 0 0 5.48 4.54c-3.12 4.31-3.68 8.55-1.65 12.67a8.3 8.3 0 0 0 5 4.42c0 0.07 0.07 0.12 0.2 0.12a2.79 2.79 0 0 1 0.4 0.07 1.45 1.45 0 0 0 0.49 0.07 7.5 7.5 0 0 0-1.23 4.82 8.74 8.74 0 0 0 3.3 6.47 7.91 7.91 0 0 0 6.75 1.79 7.2 7.2 0 0 0 4.64-2.43h0.14c0.1 1.93 1.33 3.56 3.71 4.89a15.72 15.72 0 0 0 6.92 2.11c2.93 0.16 5.14-0.65 6.61-2.49a7.84 7.84 0 0 0 1.24-2.22 4.52 4.52 0 0 0 0.69 1.12 3.83 3.83 0 0 0 3.31 0.82 4.72 4.72 0 0 0 2.75-1.94 4.66 4.66 0 0 0 0.7-1.37 8.41 8.41 0 0 0 3.55 2.08 13.91 13.91 0 0 0 9.78-0.28 8.33 8.33 0 0 0 5.5-6 8.61 8.61 0 0 0-0.54-7 6.4 6.4 0 0 0 4.82-3.73 6.16 6.16 0 0 0-0.14-6 4.74 4.74 0 0 0 2.33-1 6.55 6.55 0 0 0 1.79-1.99 7.65 7.65 0 0 0 1-2.21 9.07 9.07 0 0 0-0.35-4.47 7 7 0 0 0-2.42-3.66 8.8 8.8 0 0 0 3.29-4.17zm-5.36 4.51a6.21 6.21 0 0 0 1 1.45 5.73 5.73 0 0 1 1 1.58 6.43 6.43 0 0 1 0.7 3.86q-0.56 3.43-4.68 4.68c-0.56 0.19-0.7 0.52-0.42 1l0.42 1.26a7 7 0 0 1-0.14 4.26 5.79 5.79 0 0 1-4.54 3 0.57 0.57 0 0 0-0.56 0.49 0.7 0.7 0 0 0 0.14 0.75c1.09 1.65 1.23 3.77 0.42 6.33a6.74 6.74 0 0 1-4.54 5 14.91 14.91 0 0 1-7.59 0.28 8.61 8.61 0 0 1-5.78-3.7c-0.09-0.19-0.25-0.23-0.49-0.14s-0.3 0.23-0.21 0.4a8.08 8.08 0 0 0 1.38 2.91 3.43 3.43 0 0 1-0.82 1.09 4.85 4.85 0 0 1-2.35 1 2 2 0 0 1-1.93-0.14 2.69 2.69 0 0 1-0.4-0.39c-0.18-0.19-0.32-0.28-0.42-0.28l-0.56-0.84a11.6 11.6 0 0 0-0.18-2.55c-0.1-0.18-0.24-0.23-0.4-0.14s-0.28 0.14-0.28 0.42a4.23 4.23 0 0 1-2.14 4.82 8.53 8.53 0 0 1-5.85 1.38 10.47 10.47 0 0 1-5.52-2.08 9.81 9.81 0 0 1-3.62-4.7 0.48 0.48 0 0 0-0.35-0.14 0.44 0.44 0 0 0-0.33 0.14c-0.09 0.19-0.46 0.42-1.11 0.7a4.43 4.43 0 0 1-1 0.54 12.81 12.81 0 0 1-2.63 0.84 7.11 7.11 0 0 1-5.35-1.38 6.72 6.72 0 0 1-2.89-4.7 9 9 0 0 1 0.25-3 1.57 1.57 0 0 1 0.21-0.67 1.68 1.68 0 0 0 0.21-0.7 4 4 0 0 0 3.31-1.24v-0.29a16.5 16.5 0 0 1-1.72-0.13c-0.77-0.1-1.45-0.19-2-0.28a6.23 6.23 0 0 1-1.65-0.54 7.39 7.39 0 0 1-3.56-3.73c-1.75-3.67-1.26-7.47 1.51-11.43 0.26-0.37 0.16-0.7-0.28-0.95a15.26 15.26 0 0 1-5-3.87 9.19 9.19 0 0 1-1.51-6.61 16.27 16.27 0 0 1 1.51-6.19 14.05 14.05 0 0 1 3.84-4.68 1.07 1.07 0 0 1 0.14-0.42v-0.14a1.14 1.14 0 0 0-0.14-0.56 16.62 16.62 0 0 1-2.46-7 13.81 13.81 0 0 1 5.59-12.57 19.38 19.38 0 0 1 3.3-1.79 4.77 4.77 0 0 1 0.89-0.33c0.42-0.14 0.81-0.28 1.16-0.42a7.2 7.2 0 0 0 1.05-0.49 0.57 0.57 0 0 0 0.21-0.81 6.23 6.23 0 0 1-0.56-3.17 3.68 3.68 0 0 1 0.81-2.77c1.21-1.37 2.87-1.37 5 0a2 2 0 0 1 0.14 0.56 0.57 0.57 0 0 0 0.56 0.28 0.37 0.37 0 0 0 0.42-0.42 12.18 12.18 0 0 1 1.58-5.59 7.62 7.62 0 0 1 3.92-3.51 8.26 8.26 0 0 1 5.37-0.4 9 9 0 0 1 4.64 2.86 0.76 0.76 0 0 0 0.77 0.35 1.08 1.08 0 0 0 0.75-0.49c1.21-1.86 3.21-2.94 6.12-3.13a11.5 11.5 0 0 1 7 1.37 8.05 8.05 0 0 1 3.87 5.1 7.06 7.06 0 0 1-0.56 4.82v0.14c-0.09 0-0.14 0.1-0.14 0.28a2 2 0 0 1-0.67 0.82 0.38 0.38 0 0 0 0.07 0.49c0.13 0.14 0.25 0.16 0.34 0.07 0.45-0.38 1.05-0.87 1.77-1.52 2.87-0.74 5.1-0.65 6.76 0.28a4.4 4.4 0 0 1 2.14 2.68 3 3 0 0 1-0.91 3.1 0.87 0.87 0 0 0-0.19 1 1 1 0 0 0 0.75 0.68c2.93 0.74 4.87 1.84 5.8 3.31a13.29 13.29 0 0 1 1.93 6.33 11.45 11.45 0 0 1-1.4 6.08 10.41 10.41 0 0 1-1.65 2.19 5.84 5.84 0 0 1-1.23 0.9 6.25 6.25 0 0 0-1.24 0.89 0.44 0.44 0 0 0-0.07 0.42 0.34 0.34 0 0 0 0.35 0.28 5.22 5.22 0 0 0 3-1.38 5.26 5.26 0 0 0 1.23 0.54 12 12 0 0 1 2.35 1.65 8.27 8.27 0 0 1 2.33 5.38 14.76 14.76 0 0 1-0.67 5.91c-0.75 2.4-1.75 3.92-3 4.57-0.51 0.15-0.6 0.46-0.32 0.89zm-21.49-3.16a6.15 6.15 0 0 1-1.93-3.59 6.09 6.09 0 0 1-0.21-2.14 6.6 6.6 0 0 1 0.49-2.19 7.67 7.67 0 0 1 1.09-1.92 7.8 7.8 0 0 1 1.65-1.59 0.86 0.86 0 0 0 0.35-0.9c0-0.4-0.3-0.56-0.77-0.47a9.84 9.84 0 0 1-5.42-1 9 9 0 0 1-3.94-3.56 9.12 9.12 0 0 1-1.23-5.1 18.67 18.67 0 0 1 2.07-5.94c0.17-0.44 0.1-0.77-0.28-0.95a0.71 0.71 0 0 0-1 0.28q-1.52 2.06-5.36 2.88c-1 0.1-2 0.14-2.91 0.14a0.56 0.56 0 0 0-0.4-0.14c-1.65-0.83-2.95-0.65-3.86 0.56-0.09 0.1-0.09 0.19 0 0.26s0.14 0.09 0.14 0a2.71 2.71 0 0 1 3.58 1.79 6.86 6.86 0 0 1 0.14 4.82 8.4 8.4 0 0 1-2.21 3.45 6.18 6.18 0 0 1-1.51 1.26 7.8 7.8 0 0 0-1.38 1c-0.55 0.28-0.51 0.61 0.14 1a7 7 0 0 1 3.17 4.7 15 15 0 0 1-0.28 6.33 18.78 18.78 0 0 1-2.35 5.5 13.68 13.68 0 0 1-2.05 3.3 9.93 9.93 0 0 0-2.35 1.52 0.12 0.12 0 0 0-0.14 0.14 8.87 8.87 0 0 0-0.82 1c0.07 0.19 0.19 0.26 0.26 0.26a9.52 9.52 0 0 1 5.26-1.54 8.35 8.35 0 0 1 5.1 1.65 8.7 8.7 0 0 1 3 4.42 16.48 16.48 0 0 1 0.69 5 11.4 11.4 0 0 0-0.14 1.38 0.72 0.72 0 0 0 0.7 0.6 0.55 0.55 0 0 0 0.68-0.46 10.88 10.88 0 0 1 3.3-5.94 8.51 8.51 0 0 1 6.76-2.33c0.46 0 0.7-0.25 0.7-0.77s-0.24-0.74-0.7-0.74c-0.84 0-1.14-1-1-3a5.51 5.51 0 0 1 0.82-2.91 5.91 5.91 0 0 1 3.94-2.9 2.92 2.92 0 0 0 1.38 0.28 0.63 0.63 0 0 0 0.67-0.56 0.69 0.69 0 0 0-0.26-0.81 20.17 20.17 0 0 1-3.58-2.04zm-4.15 6.19a6.93 6.93 0 0 0-0.14 5.52 17.34 17.34 0 0 0-2 0.53 11.78 11.78 0 0 0-3.59 2.08 7.15 7.15 0 0 0-1.65 2.07 21 21 0 0 0-0.42-2.21 9.83 9.83 0 0 0-3.87-5.36 8.36 8.36 0 0 0-6.24-1.66 0.73 0.73 0 0 0-0.54 0.14 14.68 14.68 0 0 0 5.08-8.69 13.37 13.37 0 0 0-0.26-7.7 5.67 5.67 0 0 0-2.35-3.45 10.67 10.67 0 0 0 2.61-2.07 9.41 9.41 0 0 0 2.21-5.52 7.5 7.5 0 0 0-0.67-4.26 6.64 6.64 0 0 0 1.91 0 14 14 0 0 0 2.77-1 8.19 8.19 0 0 0-0.7 2.63 10.59 10.59 0 0 0 1.37 6.61 9.82 9.82 0 0 0 8.83 5.1 8.82 8.82 0 0 0-2.08 7.57 8.49 8.49 0 0 0 3.87 5.66 6.17 6.17 0 0 0-4.14 4.04zm7.73-4.12a20.17 20.17 0 0 1-3.58-2.07 6.15 6.15 0 0 1-1.93-3.59 6.09 6.09 0 0 1-0.21-2.14 6.6 6.6 0 0 1 0.49-2.19 7.67 7.67 0 0 1 1.09-1.92 7.8 7.8 0 0 1 1.65-1.59 0.86 0.86 0 0 0 0.35-0.9c0-0.4-0.3-0.56-0.77-0.47a9.84 9.84 0 0 1-5.42-1 9 9 0 0 1-3.94-3.56 9.12 9.12 0 0 1-1.23-5.1 18.67 18.67 0 0 1 2.07-5.94c0.17-0.44 0.1-0.77-0.28-0.95a0.71 0.71 0 0 0-1 0.28q-1.52 2.06-5.36 2.88c-1 0.1-2 0.14-2.91 0.14a0.56 0.56 0 0 0-0.4-0.14c-1.65-0.83-2.95-0.65-3.86 0.56-0.09 0.1-0.09 0.19 0 0.26s0.14 0.09 0.14 0a2.71 2.71 0 0 1 3.58 1.79 6.86 6.86 0 0 1 0.14 4.82 8.4 8.4 0 0 1-2.21 3.45 6.18 6.18 0 0 1-1.51 1.26 7.8 7.8 0 0 0-1.38 1c-0.55 0.28-0.51 0.61 0.14 1a7 7 0 0 1 3.17 4.7 15 15 0 0 1-0.28 6.33 18.78 18.78 0 0 1-2.35 5.5 13.68 13.68 0 0 1-2.05 3.3 9.93 9.93 0 0 0-2.35 1.52 0.12 0.12 0 0 0-0.14 0.14 8.87 8.87 0 0 0-0.82 1c0.07 0.19 0.19 0.26 0.26 0.26a9.52 9.52 0 0 1 5.26-1.54 8.35 8.35 0 0 1 5.1 1.65 8.7 8.7 0 0 1 3 4.42 16.48 16.48 0 0 1 0.69 5 11.4 11.4 0 0 0-0.14 1.38 0.72 0.72 0 0 0 0.7 0.6 0.55 0.55 0 0 0 0.68-0.46 10.88 10.88 0 0 1 3.3-5.94 8.51 8.51 0 0 1 6.76-2.33c0.46 0 0.7-0.25 0.7-0.77s-0.24-0.74-0.7-0.74c-0.84 0-1.14-1-1-3a5.51 5.51 0 0 1 0.82-2.91 5.91 5.91 0 0 1 3.94-2.9 2.92 2.92 0 0 0 1.38 0.28 0.63 0.63 0 0 0 0.67-0.56 0.69 0.69 0 0 0-0.26-0.78zm-7.73 4.12a6.93 6.93 0 0 0-0.14 5.52 17.34 17.34 0 0 0-2 0.53 11.78 11.78 0 0 0-3.59 2.08 7.15 7.15 0 0 0-1.65 2.07 21 21 0 0 0-0.42-2.21 9.83 9.83 0 0 0-3.87-5.36 8.36 8.36 0 0 0-6.24-1.66 0.73 0.73 0 0 0-0.54 0.14 14.68 14.68 0 0 0 5.08-8.69 13.37 13.37 0 0 0-0.26-7.7 5.67 5.67 0 0 0-2.35-3.45 10.67 10.67 0 0 0 2.61-2.07 9.41 9.41 0 0 0 2.21-5.52 7.5 7.5 0 0 0-0.67-4.26 6.64 6.64 0 0 0 1.91 0 14 14 0 0 0 2.77-1 8.19 8.19 0 0 0-0.7 2.63 10.59 10.59 0 0 0 1.37 6.61 9.82 9.82 0 0 0 8.83 5.1 8.82 8.82 0 0 0-2.08 7.57 8.49 8.49 0 0 0 3.87 5.66 6.17 6.17 0 0 0-4.14 4.04zm7.73-4.12a20.17 20.17 0 0 1-3.58-2.07 6.15 6.15 0 0 1-1.93-3.59 6.09 6.09 0 0 1-0.21-2.14 6.6 6.6 0 0 1 0.49-2.19 7.67 7.67 0 0 1 1.09-1.92 7.8 7.8 0 0 1 1.65-1.59 0.86 0.86 0 0 0 0.35-0.9c0-0.4-0.3-0.56-0.77-0.47a9.84 9.84 0 0 1-5.42-1 9 9 0 0 1-3.94-3.56 9.12 9.12 0 0 1-1.23-5.1 18.67 18.67 0 0 1 2.07-5.94c0.17-0.44 0.1-0.77-0.28-0.95a0.71 0.71 0 0 0-1 0.28q-1.52 2.06-5.36 2.88c-1 0.1-2 0.14-2.91 0.14a0.56 0.56 0 0 0-0.4-0.14c-1.65-0.83-2.95-0.65-3.86 0.56-0.09 0.1-0.09 0.19 0 0.26s0.14 0.09 0.14 0a2.71 2.71 0 0 1 3.58 1.79 6.86 6.86 0 0 1 0.14 4.82 8.4 8.4 0 0 1-2.21 3.45 6.18 6.18 0 0 1-1.51 1.26 7.8 7.8 0 0 0-1.38 1c-0.55 0.28-0.51 0.61 0.14 1a7 7 0 0 1 3.17 4.7 15 15 0 0 1-0.28 6.33 18.78 18.78 0 0 1-2.35 5.5 13.68 13.68 0 0 1-2.05 3.3 9.93 9.93 0 0 0-2.35 1.52 0.12 0.12 0 0 0-0.14 0.14 8.87 8.87 0 0 0-0.82 1c0.07 0.19 0.19 0.26 0.26 0.26a9.52 9.52 0 0 1 5.26-1.54 8.35 8.35 0 0 1 5.1 1.65 8.7 8.7 0 0 1 3 4.42 16.48 16.48 0 0 1 0.69 5 11.4 11.4 0 0 0-0.14 1.38 0.72 0.72 0 0 0 0.7 0.6 0.55 0.55 0 0 0 0.68-0.46 10.88 10.88 0 0 1 3.3-5.94 8.51 8.51 0 0 1 6.76-2.33c0.46 0 0.7-0.25 0.7-0.77s-0.24-0.74-0.7-0.74c-0.84 0-1.14-1-1-3a5.51 5.51 0 0 1 0.82-2.91 5.91 5.91 0 0 1 3.94-2.9 2.92 2.92 0 0 0 1.38 0.28 0.63 0.63 0 0 0 0.67-0.56 0.69 0.69 0 0 0-0.26-0.78zm-7.73 4.12a6.93 6.93 0 0 0-0.14 5.52 17.34 17.34 0 0 0-2 0.53 11.78 11.78 0 0 0-3.59 2.08 7.15 7.15 0 0 0-1.65 2.07 21 21 0 0 0-0.42-2.21 9.83 9.83 0 0 0-3.87-5.36 8.36 8.36 0 0 0-6.24-1.66 0.73 0.73 0 0 0-0.54 0.14 14.68 14.68 0 0 0 5.08-8.69 13.37 13.37 0 0 0-0.26-7.7 5.67 5.67 0 0 0-2.35-3.45 10.67 10.67 0 0 0 2.61-2.07 9.41 9.41 0 0 0 2.21-5.52 7.5 7.5 0 0 0-0.67-4.26 6.64 6.64 0 0 0 1.91 0 14 14 0 0 0 2.77-1 8.19 8.19 0 0 0-0.7 2.63 10.59 10.59 0 0 0 1.37 6.61 9.82 9.82 0 0 0 8.83 5.1 8.82 8.82 0 0 0-2.08 7.57 8.49 8.49 0 0 0 3.87 5.66 6.17 6.17 0 0 0-4.14 4.04z"/>
   <path class="cls-2" d="m364.26 81.52a0.39 0.39 0 0 0 0.28-0.14l0.28-0.28a6.13 6.13 0 0 0 1.51-1.79c1.09-1.93 1.19-3.63 0.26-5.1a4.54 4.54 0 0 0-4.12-2.21 6 6 0 0 0-4.55 2 7.87 7.87 0 0 0-0.55 0.84 6.25 6.25 0 0 0-2.61-3.31 10.41 10.41 0 0 0-5.94-1.09 12.34 12.34 0 0 0-8.41 5.22 6.72 6.72 0 0 0-6.61-3.66 5.89 5.89 0 0 0-4.54 2.47 1 1 0 0 0-0.14-0.42 4.05 4.05 0 0 0-1.51-1.51 3.6 3.6 0 0 0-1.61-0.54 6.58 6.58 0 0 0 2-3.7 7.7 7.7 0 0 0-2-7.71 7.3 7.3 0 0 0 2.88-5.66 6.77 6.77 0 0 0-2.74-5.49c3.3-2.59 4.82-5.8 4.54-9.66a10.74 10.74 0 0 0-1.8-5.64 7.73 7.73 0 0 0-3-3 11.85 11.85 0 0 0 2.84-5.51 15 15 0 0 0 0.18-6.2 13.06 13.06 0 0 0-3.56-6.75c-1.84-1.93-3.63-2.79-5.38-2.61a2.39 2.39 0 0 0 0.14-0.56 4.7 4.7 0 0 0 0.28-1.79 6.92 6.92 0 0 0-0.56-3.31 5.83 5.83 0 0 0-5.3-3.75 9.22 9.22 0 0 0-5.38 1.19 7.54 7.54 0 0 0-3.7 3.77 5.22 5.22 0 0 0-4.54-1.38 7 7 0 0 0-5.9 3.59 6.91 6.91 0 0 0-0.81 6.75 6.55 6.55 0 0 0 1.91 2.89 22 22 0 0 0 2.07 1.09 6.08 6.08 0 0 0-1.37 6.34 5.87 5.87 0 0 0 2.61 3.58 4.72 4.72 0 0 0-3.17 3.73 4.94 4.94 0 0 0 2.03 4.79 10.36 10.36 0 0 0-4.68 8.68q0 5 4.68 8.8c-2.65 4.61-3.58 8.74-2.75 12.41a20.65 20.65 0 0 0 5.24 9.92 6.8 6.8 0 0 0-2.63 4.26 5.77 5.77 0 0 0 2.21 5.52 8.86 8.86 0 0 0-1.34 1.69 6.52 6.52 0 0 0-1.12 5.49 5.7 5.7 0 0 0 2.91 4.43 5.56 5.56 0 0 0 6.06 0.25 6.43 6.43 0 0 0 2.15-2.19 4.74 4.74 0 0 0 3.3 3.24 12.17 12.17 0 0 0 5.5 0.74 13 13 0 0 0 6.61-2.32 13.45 13.45 0 0 0 2.75-2.75 6.39 6.39 0 0 0 1.58 3.37 4.41 4.41 0 0 0 3.38 1.45 4.77 4.77 0 0 0 3.19-1.19 6.05 6.05 0 0 0 1.91-3 11.15 11.15 0 0 0 2.91 2.75 15.28 15.28 0 0 0 8.12 2.49 16.34 16.34 0 0 0 8.39-1.79 5.64 5.64 0 0 0 3.05-5.1 6.87 6.87 0 0 0 3.84-1.65 8 8 0 0 0 3.17-5.24 5.75 5.75 0 0 0-1.8-5.36 1.74 1.74 0 0 0-0.64-0.38zm0.28 5.64a5.64 5.64 0 0 1-1.66 3.17c-1.56 1.58-2.91 2.21-4 1.93a0.79 0.79 0 0 0-1 0.35 1.13 1.13 0 0 0-0.14 0.91c0.47 0.9 0 2-1.37 3.16a12.73 12.73 0 0 1-3 1.38 16.36 16.36 0 0 1-6.28 0.67 15 15 0 0 1-6-1.79 11.47 11.47 0 0 1-3.72-3.7v-0.42c0-0.28-0.14-0.38-0.4-0.28q-0.69-0.42-0.84 0.42a0.92 0.92 0 0 1 0.14 0.42 19.26 19.26 0 0 1-1.37 2.6 4.75 4.75 0 0 1-2.63 1.52c-1.91 0.18-3.17-1.52-3.7-5.1-0.1-0.37-0.31-0.51-0.63-0.47a0.69 0.69 0 0 0-0.63 0.47 7.22 7.22 0 0 1-3.24 4.14 13 13 0 0 1-5.28 2 14.26 14.26 0 0 1-5.87-0.39 4.73 4.73 0 0 1-3.52-3.31 1.72 1.72 0 0 0 0-1.37h-0.14a1.86 1.86 0 0 1-0.25 0.53c-0.1 0-0.14 0.09-0.14 0.28l-0.7 0.84a4.91 4.91 0 0 1-1.51 1.37 4.47 4.47 0 0 1-4.26 0 4.4 4.4 0 0 1-2.29-3 5.31 5.31 0 0 1 0.49-3.87 24.7 24.7 0 0 1 3-3.86c0.09-0.1 0.12-0.19 0.07-0.28a0.41 0.41 0 0 0-0.35-0.12 5 5 0 0 0-1.65 0.4 4.4 4.4 0 0 1-1.1-4.2 5 5 0 0 1 2.75-3.51 0.86 0.86 0 0 0 0.63-0.84 0.92 0.92 0 0 0-0.35-0.95c-3.77-3.13-5.8-6.34-6-9.64q-0.71-5.1 3.42-11.86c0.37-0.62 0.18-1.18-0.54-1.65-3.12-2-4.68-4.49-4.68-7.43a8.22 8.22 0 0 1 5-7.84 0.81 0.81 0 0 0 0.54-1 1.27 1.27 0 0 0-0.82-1 3.16 3.16 0 0 1-2.28-3.44 3.87 3.87 0 0 1 2.66-3.4 4 4 0 0 0 1.24-0.14c0.18 0 0.23-0.14 0.14-0.42a16.59 16.59 0 0 0-1.19-1.3c-0.49-0.51-0.93-1-1.31-1.44a5.52 5.52 0 0 1-0.81-1.38c-0.47-1.65 0-3.54 1.37-5.66a0.64 0.64 0 0 0 0-0.6 0.84 0.84 0 0 0-0.56-0.49c-1.28-0.28-2.37-1.42-3.3-3.45a5.67 5.67 0 0 1 0.14-4.68 5.57 5.57 0 0 1 3.79-2.95 5.94 5.94 0 0 1 4.61 0.6v1.16c0 0.19 0.12 0.28 0.35 0.32s0.35 0 0.35-0.18a7.8 7.8 0 0 1 3.28-4.57 6.64 6.64 0 0 1 5.28-1.23 4.42 4.42 0 0 1 3.45 3.31 10 10 0 0 1 0.27 2.49c0 0.09 0 0.46 0.14 1.16s0.09 1.07 0 1.17a1.49 1.49 0 0 0 0.21 0.77c0.14 0.23 0.3 0.3 0.49 0.2 1.81-0.27 3.61 0.82 5.35 3.31a13.57 13.57 0 0 1 2.49 5.64 12.83 12.83 0 0 1-0.69 6.05 23 23 0 0 1-3.17 5.24 0.55 0.55 0 0 0 0.07 0.77c0.23 0.23 0.44 0.25 0.63 0.07 0.35-0.19 0.81-0.47 1.37-0.84a6.71 6.71 0 0 1 0.82 1c0.28 0.35 0.74 1 1.39 2.05a9.45 9.45 0 0 1 1.38 4.82 10.13 10.13 0 0 1-1.05 5 9.15 9.15 0 0 1-3.24 3.86c-0.72 0.56-0.72 1 0 1.51a5.56 5.56 0 0 1 2.63 4.82 5 5 0 0 1-2.63 4.82c-0.63 0.38-0.67 0.84-0.14 1.38a7.73 7.73 0 0 1 2.08 7 14.2 14.2 0 0 1-1.38 3.17 7.62 7.62 0 0 1-1.37 1.3 12.42 12.42 0 0 0-1.24 1.05c-0.09 0.18-0.07 0.28 0.14 0.28a2.66 2.66 0 0 0 1.91-0.7l0.14 0.14h1.12a5 5 0 0 1 0.68 0.28h0.27v0.14a0.25 0.25 0 0 1 0.21 0.07 0.33 0.33 0 0 0 0.21 0.07v0.11l0.14 0.14c0.17 0.1 0.26 0.19 0.26 0.28h0.14a0.12 0.12 0 0 0 0.14 0.14 1.17 1.17 0 0 1 0.14 0.42l0.14 0.14v0.14a1.05 1.05 0 0 1 0.14 0.4v0.42a0.53 0.53 0 0 0 0.14 0.41 9.18 9.18 0 0 0-0.7 2.33q-0.13 0.28 0.21 0.42a0.33 0.33 0 0 0 0.49-0.14c0.18-0.28 0.63-1 1.37-2a0.78 0.78 0 0 0 0.28-0.56 4.84 4.84 0 0 1 3.87-2.49 4.92 4.92 0 0 1 3.56 1.12 7 7 0 0 1 2.21 3.31 1 1 0 0 0 1 0.67 1 1 0 0 0 1-0.67 9.32 9.32 0 0 1 7.15-5.8 7.36 7.36 0 0 1 4.56 0.56 7.19 7.19 0 0 1 3.31 3.44l0.14 0.14a4.32 4.32 0 0 0-0.14 1.94 0.41 0.41 0 0 0 0.4 0.25c0.18 0 0.28-0.09 0.28-0.25a7.94 7.94 0 0 1 1.65-3.17 5.23 5.23 0 0 1 3-1.79 2.63 2.63 0 0 1 2.77 1.09 2.82 2.82 0 0 1 0.14 3 5.07 5.07 0 0 1-1.12 1.65 5.56 5.56 0 0 1-0.68 0.42 3.81 3.81 0 0 0-0.35 0.42l-0.34 0.4a3 3 0 0 0-2.22 0.27 0.39 0.39 0 0 0-0.25 0.56 0.5 0.5 0 0 0 0.53 0.42 4.09 4.09 0 0 1 3.45 1.52 4.15 4.15 0 0 1 0.91 3.51z"/>
   <path class="cls-2" d="m437.25 14.3c-0.18-0.09-0.51-0.23-0.95-0.42a0.63 0.63 0 0 0 0.35-0.14 0.64 0.64 0 0 1 0.32-0.14 9.5 9.5 0 0 0 2.77-1.91 4.16 4.16 0 0 0 0.75-3 4.51 4.51 0 0 0-1.3-2.69 6.72 6.72 0 0 0-4.89-1.59 6.83 6.83 0 0 0-4.89 1.87v-0.28a5.39 5.39 0 0 0-1.24-2 5.54 5.54 0 0 0-4.54-2 6.28 6.28 0 0 0-4.14 1.44 4.76 4.76 0 0 0-1.93 3.49 7.66 7.66 0 0 0-4.68 1 7.16 7.16 0 0 0-3.17 3.45 7.12 7.12 0 0 0 0.14 5.37 3.5 3.5 0 0 1 0.42 0.68 6.28 6.28 0 0 0-3.59 1.93 8.43 8.43 0 0 0-2.75 5.92 7.6 7.6 0 0 0 2.19 5.93 15.1 15.1 0 0 0 1.94 1.66 13.46 13.46 0 0 0-1.38 0.39 11.53 11.53 0 0 0-4 2.77 15.34 15.34 0 0 0-1.24 1.52 7.52 7.52 0 0 0-1.37-2.89 7.8 7.8 0 0 0-4.15-3.17 5.62 5.62 0 0 0 0-6.35 5.67 5.67 0 0 0-4.68-2.89 5.82 5.82 0 0 0 0.7-2.47 9.13 9.13 0 0 0-1.09-4.28c-1.4-2.19-3-3.5-4.82-3.84a9.39 9.39 0 0 0 1.23-1.94 6.09 6.09 0 0 0 0.14-3.44 6.51 6.51 0 0 0-3.72-4.82 9.24 9.24 0 0 0-6-0.56q-3.53 0.69-4.75 3.16a1.91 1.91 0 0 1-0.42-0.27 5.47 5.47 0 0 0-4.42-0.4 5.91 5.91 0 0 0-2.33 1.09 2.51 2.51 0 0 0-0.14-0.56 6 6 0 0 0-1.79-2.18 4.62 4.62 0 0 0-5.64 0 5.15 5.15 0 0 0-2.63 5 4.53 4.53 0 0 0 2.35 4 5.64 5.64 0 0 0-2.35 4 8.2 8.2 0 0 0 1.38 6.2 7.59 7.59 0 0 0 3.86 2.95 7 7 0 0 0 4.68 0.21 0.25 0.25 0 0 0-0.28 0.28 11.38 11.38 0 0 0-0.95 3.73 12.94 12.94 0 0 0 1.09 7.56 10.75 10.75 0 0 0 4.22 4.27 9.33 9.33 0 0 0 5.7 1.39 5.28 5.28 0 0 0 0.56 6.62 5.11 5.11 0 0 0 3.7 1.9 1.87 1.87 0 0 0 0.84-0.14 6.49 6.49 0 0 0-0.28 5.24 6.2 6.2 0 0 0 2.21 3 9.7 9.7 0 0 0 1.8 1 3.52 3.52 0 0 0 1.09 0.14 6.12 6.12 0 0 0-3.18 5.62 7 7 0 0 0 1 3.38 6.47 6.47 0 0 0 2.49 2.56 7.45 7.45 0 0 0-1 0.82 8.67 8.67 0 0 0-2.75 5.77q-0.42 5.79 5.66 8.82a6.28 6.28 0 0 0-2.7 6 8.17 8.17 0 0 0 3 6.29 5.53 5.53 0 0 0 3.7 0.88 9.49 9.49 0 0 0 3.73-1.16 6.51 6.51 0 0 0 1.79-1.66 10 10 0 0 0 0.68 1.52 5.28 5.28 0 0 0 4.42 2.74 5.08 5.08 0 0 0 5.1-2.07 7.29 7.29 0 0 0 0.82-5.91c-0.1-0.28-0.28-0.75-0.56-1.38a5.19 5.19 0 0 0 2.07-0.7 8.31 8.31 0 0 0 4.68-5.49 12 12 0 0 0 0.14-7.87 6.19 6.19 0 0 0-2.75-3.84 8.71 8.71 0 0 0 2.82-4.15 11 11 0 0 0 0.49-5.35 11.32 11.32 0 0 0-3.17-7.17 0.38 0.38 0 0 1 0.28-0.14 2.88 2.88 0 0 0 2.19-1.1 3.58 3.58 0 0 0 1.12-2.63 1 1 0 0 0-0.14-0.39 0.83 0.83 0 0 1 0.49 0.14 2.72 2.72 0 0 0 0.46 0.25 1.17 1.17 0 0 0 0.42 0.14 7.93 7.93 0 0 0 7.17-0.67 7.7 7.7 0 0 0 3.7-4.54 7.8 7.8 0 0 0-0.39-5.94 6.44 6.44 0 0 0 3.63-2.21 8.14 8.14 0 0 0 2-4 5 5 0 0 0-1.09-4.54h-0.14a11.13 11.13 0 0 0 2.75-0.83 12.89 12.89 0 0 0 5-4.41 9.89 9.89 0 0 0 1.23-6.47 6.23 6.23 0 0 0-3.09-5.1zm1 7.71a6.83 6.83 0 0 1-1.12 3.31 13.42 13.42 0 0 1-2.32 2.35 8.42 8.42 0 0 1-6.62 1.93c-0.09 0-0.18 0.07-0.28 0.19a0.26 0.26 0 0 0 0 0.35 0.44 0.44 0 0 0 0.14 0.28l0.35 0.34a3.84 3.84 0 0 0 0.4 0.35 3.17 3.17 0 0 0 0.49 0.28 2.11 2.11 0 0 1 0.49 0.33c0.14 0.14 0.25 0.26 0.35 0.35a4.81 4.81 0 0 1 0.39 3.44 9.74 9.74 0 0 1-1.93 3.31 3.14 3.14 0 0 1-3 1.37 0.91 0.91 0 0 0-1 0.35 0.74 0.74 0 0 0 0 1 5.64 5.64 0 0 1 1.09 4.75 6.29 6.29 0 0 1-2.89 4.07 7.59 7.59 0 0 1-5.44 1 7.35 7.35 0 0 1-4.75-2.54h-0.28a3.57 3.57 0 0 0 1.25 2.47v1.71l-0.14 0.28v0.14a1 1 0 0 1-0.14 0.42v0.16l-0.14 0.14v0.14c-0.09 0-0.14 0-0.14 0.11l-0.27 0.28a0.22 0.22 0 0 1-0.14 0.21 0.22 0.22 0 0 0-0.14 0.21h-0.14l-0.14 0.14a3.5 3.5 0 0 1-0.68 0.28 2.23 2.23 0 0 1-0.95 0.28 5.6 5.6 0 0 0-3.31-0.84c-0.09 0-0.14 0-0.14 0.07s0 0.07 0.14 0.07a6.14 6.14 0 0 1 3.84 3.45 16.25 16.25 0 0 1 1.66 5.91 9.83 9.83 0 0 1-3.85 8.83 0.45 0.45 0 0 0-0.14 0.7 0.8 0.8 0 0 0 0.68 0.39 2.19 2.19 0 0 1 1.93 0.42 9.85 9.85 0 0 1 0.82 3 12.35 12.35 0 0 1 0 5.8 9.76 9.76 0 0 1-2.61 4.68 4.56 4.56 0 0 1-2.21 1.23h-1.91c-0.19 0-0.28-0.05-0.28-0.14h-1.38q-0.27 0-0.27 0.21c0 0.14 0 0.21 0.13 0.21a0.12 0.12 0 0 1 0.14 0.14 3 3 0 0 0 1.21 1.08 8.12 8.12 0 0 1 1 1.66 6.38 6.38 0 0 1-0.39 4.26 2.8 2.8 0 0 1-2.91 1.79 4.38 4.38 0 0 1-3.45-1.37 4.3 4.3 0 0 1-1.25-2.73 4 4 0 0 0 0.14-0.84 3.4 3.4 0 0 0-0.14-0.88 2.79 2.79 0 0 1-0.14-0.63c0-0.19-0.07-0.28-0.21-0.28s-0.24 0.09-0.33 0.28a5.62 5.62 0 0 1-0.91 1.93 6.05 6.05 0 0 1-2 2.21 5.65 5.65 0 0 1-3 1 4.36 4.36 0 0 1-2.88-0.89 6.51 6.51 0 0 1-1.94-5.24 7.66 7.66 0 0 1 2.5-5c0.44-0.37 0.39-0.69-0.14-1a6 6 0 0 1-2.71-1.65 7.47 7.47 0 0 1-1.65-2.84 11.69 11.69 0 0 1-0.46-3.24 9 9 0 0 1 1.65-4.4 10.72 10.72 0 0 1 1.93-1.79c0.16-0.1 0.54-0.28 1.1-0.56a9.31 9.31 0 0 0 1.23-0.68q0.28-0.14 0-0.42a3 3 0 0 0-2.21-0.28 19.91 19.91 0 0 1-1.66-1.37 11.16 11.16 0 0 1-1-1.37 4.58 4.58 0 0 1-0.74-2.08q-0.15-2.47 2.88-5.24c0.28-0.18 0.35-0.37 0.21-0.6a0.69 0.69 0 0 0-0.63-0.35 1.48 1.48 0 0 1-0.88-0.35c-0.33-0.23-1-0.7-1.86-1.44a6.05 6.05 0 0 1-1.94-2.47c-0.65-1.4-0.65-3.21 0-5.52a3.79 3.79 0 0 0 1-1.23 0.18 0.18 0 0 0 0-0.28c-0.1-0.1-0.23-0.1-0.4 0a3.94 3.94 0 0 1-3.3 0.56 5.13 5.13 0 0 1-2.08-1.4 3.73 3.73 0 0 1-1-3 4.89 4.89 0 0 1 1.25-3c0.28-0.18 0.31-0.44 0.14-0.76a0.69 0.69 0 0 0-0.84-0.33 11.1 11.1 0 0 1-3.3-0.7 18.49 18.49 0 0 1-2.61-0.81 9.18 9.18 0 0 1-3.73-3.73 10.85 10.85 0 0 1-0.95-5.8 11.65 11.65 0 0 1 1.37-5.91 2.3 2.3 0 0 1 0.4-0.28 0.48 0.48 0 0 0 0-0.49c-0.07-0.12-0.16-0.14-0.26-0.05a9.33 9.33 0 0 1-4.68 0.47 6 6 0 0 1-5.38-6.54 4.65 4.65 0 0 1 1.94-3.85 0.76 0.76 0 0 0 0.46-0.83 0.75 0.75 0 0 0-0.6-0.7c-0.84-0.16-1.38-1.24-1.66-3.17a3.89 3.89 0 0 1 1.52-3.17 2.89 2.89 0 0 1 3.16-0.27 4 4 0 0 1 1.94 2.07 4.48 4.48 0 0 0-0.6 4.06c0.09 0.28 0.18 0.28 0.28 0a5.79 5.79 0 0 1 0.67-2.07 5.48 5.48 0 0 1 1.54-1.65 4.72 4.72 0 0 1 2-0.82 4.28 4.28 0 0 1 2.89 0.4 3.37 3.37 0 0 1 1.11 1 7.45 7.45 0 0 1 1 1.37c0.28 0.09 0.46 0 0.56-0.14a3.5 3.5 0 0 0 0-1.93 7.15 7.15 0 0 0-0.28-0.68 7.12 7.12 0 0 1 4.23-2.23 7.06 7.06 0 0 1 4.63 0.7 4.44 4.44 0 0 1 2.47 3 5.71 5.71 0 0 1-0.81 5.49 0.56 0.56 0 0 0 0.39 1 4.19 4.19 0 0 1 2.49 1.37 9.76 9.76 0 0 1 1.94 2.75 6.61 6.61 0 0 1 0.53 2.77 10.62 10.62 0 0 1-0.14 1.31 8.59 8.59 0 0 0-0.12 1.16q-0.13 0.29 0 0.42a0.45 0.45 0 0 0 0.33 0.42 0.77 0.77 0 0 0 0.63 0c0.09 0 0.23-0.1 0.42-0.28a5.31 5.31 0 0 1 3.7 3.16 5.83 5.83 0 0 1 0.42 2.89 13.25 13.25 0 0 1-0.56 1.59c-0.26 0.69-0.44 1.11-0.53 1.3a0.62 0.62 0 0 0 0.14 0.7 0.76 0.76 0 0 0 0.53 0.28q2.47 0.27 4.42 3.16a13.39 13.39 0 0 1 1.1 2.19 1.64 1.64 0 0 0 0.07 0.42 0.92 0.92 0 0 0 0.21 0.42 0.57 0.57 0 0 1 0.14 0.42 0.67 0.67 0 0 1-0.14 0.33 0.69 0.69 0 0 0-0.14 0.35 6.53 6.53 0 0 0-0.42 2.35v1.1a2.39 2.39 0 0 0 0.14 0.7 2.31 2.31 0 0 1 0.14 0.54c0 0.09 0.07 0.13 0.21 0.13s0.21 0 0.21-0.13l0.28-0.54a1.17 1.17 0 0 0 0.14-0.42 5.68 5.68 0 0 0 0.39-1 9.3 9.3 0 0 1 1-1.8 11.25 11.25 0 0 1 2.05-3.44 9.66 9.66 0 0 1 2.84-2.54 16.8 16.8 0 0 1 2-1.1 6 6 0 0 0 1.26-0.28h1.37c0.09 0 0.14-0.07 0.14-0.21a0.42 0.42 0 0 0-0.14-0.32 3 3 0 0 0-1.12-0.56h-0.39a4.15 4.15 0 0 1-0.84-0.7l-1.65-1.37a6.45 6.45 0 0 1-1.66-4.55 7 7 0 0 1 1.8-4.68 9.11 9.11 0 0 1 3.44-2.49 5.68 5.68 0 0 0 2.07 1.12q0.15 0.13 0.21 0a0.58 0.58 0 0 0 0.07-0.28 7.54 7.54 0 0 1-1.88-3.58 5.11 5.11 0 0 1 0-3.73 5.35 5.35 0 0 1 2.61-2.82 6.28 6.28 0 0 1 3.86-0.77c0.63 0.19 1 0 1-0.67a4.3 4.3 0 0 1 0.63-2.28 3.74 3.74 0 0 1 1.72-1.52 4.44 4.44 0 0 1 2.19-0.35 3.88 3.88 0 0 1 3.19 1.38c1 1.49 1.42 2.49 1.23 3.05a0.46 0.46 0 0 0 0.21 0.6 0.44 0.44 0 0 0 0.61-0.07 6.5 6.5 0 0 1 3.58-2.46c2.12-0.66 3.78-0.42 5 0.67s1.24 2.4 0.14 4.15a19.76 19.76 0 0 1-1.23 1.79 4 4 0 0 1-1.26 0.67 1.52 1.52 0 0 1-0.39-0.07 2.54 2.54 0 0 0-0.42-0.07c-1.19 0-1.94 0.33-2.22 1v0.14a2.58 2.58 0 0 0 1.19 0.35c0.49 0.05 0.89 0.07 1.17 0.07a5.89 5.89 0 0 1 2.32 1.24c1.32 1.12 1.76 3.06 1.32 5.7z"/>
  </g>
 </g>
</svg>
