<?xml version="1.0" encoding="UTF-8"?>
<svg version="1.1" viewBox="0 0 441.03 101.63" xmlns="http://www.w3.org/2000/svg" xmlns:cc="http://creativecommons.org/ns#" xmlns:dc="http://purl.org/dc/elements/1.1/" xmlns:rdf="http://www.w3.org/1999/02/22-rdf-syntax-ns#">
 <metadata>
  <rdf:RDF>
   <cc:Work rdf:about="">
    <dc:format>image/svg+xml</dc:format>
    <dc:type rdf:resource="http://purl.org/dc/dcmitype/StillImage"/>
    <dc:title/>
   </cc:Work>
  </rdf:RDF>
 </metadata>
 <defs>
  <style>.cls-1{fill:#fff}.cls-1,.cls-2{stroke:#000;stroke-miterlimit:10}</style>
 </defs>
 <g data-name="Layer 2">
  <g data-name="Layer 1">
   <path class="cls-1" d="M113.28495 10.18285a9.79 9.79 0 01-1.1 9.52 11.84 11.84 0 01-3.18 2.89 7.39 7.39 0 01-1.1.56 4.28 4.28 0 011.52 4 4.89 4.89 0 01-1 2.49c-.37.44-.63.77-.82 1a.33.33 0 00-.21.06.25.25 0 01-.21.07 8.84 8.84 0 012.5 5.24 10.11 10.11 0 01-1 6.9 6.6 6.6 0 01-5.52 3.3 9.41 9.41 0 01-1.91-.14 4 4 0 01.28 2 6.34 6.34 0 01-1.12 2.07 2.64 2.64 0 01-.67.7 8.09 8.09 0 011.37 5.78 9.46 9.46 0 01-2.89 5.51 11.12 11.12 0 01-4.5 1.89 8 8 0 01.42 8.66 8.91 8.91 0 01-4.14 4.18 6.71 6.71 0 01.81.4 5.42 5.42 0 012.07 2.21 9.09 9.09 0 011.38 5.8 8.65 8.65 0 01-2.35 5.35 6.47 6.47 0 01-2.47 1.66 10.71 10.71 0 01-3 .14 2.45 2.45 0 01-.7-.14 2.65 2.65 0 01.26 2.63 3.69 3.69 0 01-3.3 2.47 3.82 3.82 0 01-2.7-.47 5.26 5.26 0 01-2-2 9.45 9.45 0 01-.7 1.37 8.24 8.24 0 01-2.75 2.61 8.35 8.35 0 01-8.13.42 7.3 7.3 0 01-3.72-6.75 9.45 9.45 0 011.37-4.26 6.51 6.51 0 01-1.62-.28 5.81 5.81 0 01-4-3.73c-1.54-3.27-1.05-6.56 1.55-9.78a8.18 8.18 0 01-3.17-3.44v.42a12.09 12.09 0 01-1.51 3.86 6.84 6.84 0 01-4 3.17 5.8 5.8 0 011.35 2.5 9.62 9.62 0 01-.54 6.33 6.64 6.64 0 01-4 3.86 3.74 3.74 0 01-3.17 0l.14.82a6.93 6.93 0 01.14 1.65 5.76 5.76 0 01-.56 3.31 6.56 6.56 0 01-5.1 2.77 6.47 6.47 0 01-5.09-1.31 7.39 7.39 0 01-2.75-4.49 7.1 7.1 0 01-6-.14 8 8 0 01-4.35-4.4 9.59 9.59 0 01-.47-5.24 7.38 7.38 0 012.4-4.54 1.39 1.39 0 01-.81-.28 4.94 4.94 0 01-3.17-3.7 6.25 6.25 0 01.82-4.84c.18-.17.27-.31.27-.4a2.89 2.89 0 01-2.74-2.63 3.51 3.51 0 011.23-3.45 9.91 9.91 0 01-4.47-3.16 12.93 12.93 0 01-2.7-4.82 12.16 12.16 0 012.77-10.46 5 5 0 01-2.35-.56 6.87 6.87 0 01-3.31-4 7.89 7.89 0 010-5.08 6.62 6.62 0 011.14-2.24.38.38 0 01.14-.28l.28-.28a3.58 3.58 0 01-1.42-.28 3.35 3.35 0 01-2.07-2.47 4 4 0 01.42-3 7.18 7.18 0 01-2.47-1 9 9 0 01-3.72-5 10.63 10.63 0 01-.14-7 7.6 7.6 0 012.46-4 .23.23 0 01-.18-.07.28.28 0 00-.21-.07 4.2 4.2 0 01-.84-1 11.07 11.07 0 01-.68-2.21 6.58 6.58 0 01.68-4 5 5 0 013.46-2.54 6.58 6.58 0 015.23.56 4.7 4.7 0 011.94 1.51 1.41 1.41 0 00.28.56c.07-.09.21-.23.39-.42l.28-.28a9.23 9.23 0 015.38-1.93 6.38 6.38 0 015.24 1.37 5.64 5.64 0 012.05 4.68 7.28 7.28 0 01-.68 2.77 5.13 5.13 0 01-.7 1 8 8 0 014.15 1.38 10 10 0 014.54 4.7 9.17 9.17 0 01.81 6.59 7.43 7.43 0 01-1.79 3.31 4.51 4.51 0 01.84.28 4.07 4.07 0 012.75 3.59 4.62 4.62 0 01-1 3.86 2.87 2.87 0 011.1.42 8.69 8.69 0 012.35 1.51 10 10 0 013.17 4.68 8.89 8.89 0 01-1.66 8.94 10 10 0 013.17 1.38 7.23 7.23 0 01.95-3 8.27 8.27 0 013.87-3.58 6.18 6.18 0 01-2.35-6.06 5.92 5.92 0 01.42-2.07 6.89 6.89 0 013.3-3.56 8 8 0 015.1-.84 6.26 6.26 0 014.82 2.35 8.56 8.56 0 01.84 1.93 4.65 4.65 0 012.75-.7 5 5 0 014 2.22 6.37 6.37 0 011.4 4.4 7.8 7.8 0 01-1.52 3.86 4.79 4.79 0 012 1.66v.11a9.38 9.38 0 011.38-3.3 7 7 0 013.58-3l2.07-.68h.56a6.56 6.56 0 01-1.44-3 10.22 10.22 0 010-5.8 10.4 10.4 0 012.89-5 7.79 7.79 0 012.32-1.51l.14-.14h.14a5.81 5.81 0 011.12-.55 3.92 3.92 0 01-1.12-1.38 11.66 11.66 0 01-1-2.6 9.52 9.52 0 011-5.66 10.65 10.65 0 013.38-3.64 6.25 6.25 0 014.47-1.32 9.5 9.5 0 01-.53-3.17 6.21 6.21 0 013.58-5.91 6.89 6.89 0 017.15.42 4.93 4.93 0 011.93 2.6 5.08 5.08 0 01.25 1.66.61.61 0 01-.14.42 7.83 7.83 0 016.2-1.8c2.87.51 4.94 2.32 6.22 5.54zM198.13495 55.51285a13.5 13.5 0 001-7.59 9.5 9.5 0 00-3.44-6.33 7.44 7.44 0 00-3.31-1.79 3.42 3.42 0 00.7-.82 10.79 10.79 0 002.19-7.57 11.82 11.82 0 00-2.61-7.59 8.85 8.85 0 00-5.38-3.44 5 5 0 00.35-3.59 5.82 5.82 0 00-2-3.17 7.74 7.74 0 00-4.68-1.51 9.44 9.44 0 00-3.31.84 7.32 7.32 0 00.7-3.73 9 9 0 00-4.56-6.61 12.74 12.74 0 00-8.09-1.93 11.73 11.73 0 00-7.64 3 9.79 9.79 0 00-5.44-2.72 10.57 10.57 0 00-6.13.7 9.64 9.64 0 00-4.12 3.51 8.64 8.64 0 00-1.65 5 6 6 0 00-1.66-1 4.43 4.43 0 00-4.28 1 5.27 5.27 0 00-2.07 4 4.57 4.57 0 00.28 2.75l.7.84a10.47 10.47 0 00-5.94 2.26 14.87 14.87 0 00-5.5 6.47 14 14 0 00-1.23 8 14.15 14.15 0 003.17 7.43c-3.59 1.65-5.57 5.66-5.94 12a9.8 9.8 0 001.76 6.55 13.9 13.9 0 005.55 4.55c-3.12 4.31-3.68 8.55-1.65 12.67a8.3 8.3 0 005 4.42c0 .07.07.12.21.12a2.92 2.92 0 01.39.07 1.45 1.45 0 00.49.07 7.5 7.5 0 00-1.23 4.82 8.74 8.74 0 003.3 6.47 7.91 7.91 0 006.75 1.79 7.2 7.2 0 004.64-2.43h.14c.1 1.93 1.33 3.56 3.73 4.89a15.56 15.56 0 006.87 2.14c2.93.16 5.14-.65 6.61-2.49a8.45 8.45 0 001.26-2.22 4.05 4.05 0 00.67 1.12 3.83 3.83 0 003.31.82 4.72 4.72 0 002.75-1.94 4.66 4.66 0 00.7-1.37 8.41 8.41 0 003.58 2.05 13.91 13.91 0 009.78-.28 8.33 8.33 0 005.5-6 8.61 8.61 0 00-.54-7 6.4 6.4 0 004.82-3.73 6.16 6.16 0 00-.14-6 4.74 4.74 0 002.33-1 6.55 6.55 0 001.79-1.99 7.65 7.65 0 001-2.21 8.84 8.84 0 00-.35-4.47 7 7 0 00-2.42-3.66 8.68 8.68 0 003.29-4.17zm-31.13 13.09a16.22 16.22 0 00-2.07.53 11.78 11.78 0 00-3.59 2.08 7.15 7.15 0 00-1.65 2.07 21 21 0 00-.42-2.21 9.83 9.83 0 00-3.84-5.36 8.47 8.47 0 00-6.2-1.69.76.76 0 00-.54.14 14.81 14.81 0 005.1-8.69 13.53 13.53 0 00-.28-7.7 5.67 5.67 0 00-2.35-3.45 10.81 10.81 0 002.63-2.07 9.51 9.51 0 002.21-5.48 7.42 7.42 0 00-.67-4.26 6.64 6.64 0 001.91 0 14 14 0 002.77-1 8.19 8.19 0 00-.7 2.63 10.59 10.59 0 001.37 6.61 9.82 9.82 0 008.83 5.1 8.82 8.82 0 00-2.08 7.57 8.49 8.49 0 003.87 5.66 6.17 6.17 0 00-4.15 4 6.81 6.81 0 00-.15 5.52zM284.91495 55.51285a13.5 13.5 0 001-7.59 9.5 9.5 0 00-3.44-6.33 7.6 7.6 0 00-3.31-1.79 4.33 4.33 0 00.7-.82 10.89 10.89 0 002.14-7.57 11.82 11.82 0 00-2.61-7.59 8.85 8.85 0 00-5.39-3.44 5 5 0 00.35-3.59 5.93 5.93 0 00-2-3.17 7.74 7.74 0 00-4.68-1.51 9.44 9.44 0 00-3.31.84 7.32 7.32 0 00.7-3.73 9 9 0 00-4.56-6.61 12.74 12.74 0 00-8.03-1.93 11.73 11.73 0 00-7.64 3 9.79 9.79 0 00-5.44-2.72 10.55 10.55 0 00-6.13.7 9.81 9.81 0 00-4.14 3.51 8.8 8.8 0 00-1.66 5 5.29 5.29 0 00-1.65-1 4.4 4.4 0 00-4.26 1 5.27 5.27 0 00-2.07 4 4.42 4.42 0 00.28 2.75l.7.84a10.47 10.47 0 00-5.94 2.26 14.87 14.87 0 00-5.5 6.47 14 14 0 00-1.23 8 14.15 14.15 0 003.21 7.38c-3.59 1.65-5.57 5.66-5.94 12a9.8 9.8 0 001.79 6.61 13.9 13.9 0 005.48 4.54c-3.12 4.31-3.68 8.55-1.65 12.67a8.3 8.3 0 005 4.42c0 .07.07.12.2.12a2.79 2.79 0 01.4.07 1.45 1.45 0 00.49.07 7.5 7.5 0 00-1.23 4.82 8.74 8.74 0 003.3 6.47 7.91 7.91 0 006.75 1.79 7.2 7.2 0 004.64-2.43h.14c.1 1.93 1.33 3.56 3.71 4.89a15.72 15.72 0 006.92 2.11c2.93.16 5.14-.65 6.61-2.49a7.84 7.84 0 001.24-2.22 4.52 4.52 0 00.69 1.12 3.83 3.83 0 003.31.82 4.72 4.72 0 002.75-1.94 4.66 4.66 0 00.7-1.37 8.41 8.41 0 003.55 2.08 13.91 13.91 0 009.78-.28 8.33 8.33 0 005.5-6 8.61 8.61 0 00-.54-7 6.4 6.4 0 004.82-3.73 6.16 6.16 0 00-.14-6 4.74 4.74 0 002.33-1 6.55 6.55 0 001.79-1.99 7.65 7.65 0 001-2.21 9.07 9.07 0 00-.35-4.47 7 7 0 00-2.42-3.66 8.8 8.8 0 003.29-4.17zm-31.14 13.09a17.34 17.34 0 00-2 .53 11.78 11.78 0 00-3.59 2.08 7.15 7.15 0 00-1.65 2.07 21 21 0 00-.42-2.21 9.83 9.83 0 00-3.87-5.36 8.36 8.36 0 00-6.24-1.69.73.73 0 00-.54.14 14.68 14.68 0 005.08-8.69 13.37 13.37 0 00-.26-7.7 5.67 5.67 0 00-2.35-3.45 10.67 10.67 0 002.61-2.07 9.41 9.41 0 002.21-5.52 7.5 7.5 0 00-.67-4.26 6.64 6.64 0 001.91 0 14 14 0 002.77-1 8.19 8.19 0 00-.7 2.63 10.59 10.59 0 001.37 6.61 9.82 9.82 0 008.83 5.1 8.82 8.82 0 00-2.08 7.57 8.49 8.49 0 003.87 5.66 6.17 6.17 0 00-4.15 4 6.93 6.93 0 00-.13 5.56zM364.54495 81.40285a.39.39 0 01-.28.14 1.74 1.74 0 01.67.42 5.75 5.75 0 011.8 5.36 8 8 0 01-3.17 5.24 6.87 6.87 0 01-3.84 1.65 5.64 5.64 0 01-3.05 5.1 16.34 16.34 0 01-8.39 1.79 15.28 15.28 0 01-8.12-2.49 11.15 11.15 0 01-2.91-2.75 6.05 6.05 0 01-1.91 3 4.77 4.77 0 01-3.19 1.19 4.41 4.41 0 01-3.38-1.45 6.39 6.39 0 01-1.58-3.37 13.45 13.45 0 01-2.75 2.75 13 13 0 01-6.61 2.32 12.17 12.17 0 01-5.5-.74 4.74 4.74 0 01-3.3-3.24 6.43 6.43 0 01-2.21 2.19 5.56 5.56 0 01-6.06-.25 5.7 5.7 0 01-2.91-4.43 6.52 6.52 0 011.15-5.53 8.86 8.86 0 011.37-1.66 5.77 5.77 0 01-2.21-5.52 6.8 6.8 0 012.63-4.26 20.65 20.65 0 01-5.24-9.92c-.83-3.67.1-7.8 2.75-12.41q-4.68-3.84-4.68-8.8a10.36 10.36 0 014.65-8.71 4.94 4.94 0 01-2.07-4.82 4.72 4.72 0 013.17-3.73 5.87 5.87 0 01-2.61-3.58 6.08 6.08 0 011.37-6.34 22 22 0 01-2.07-1.09 6.55 6.55 0 01-1.91-2.89 6.91 6.91 0 01.85-6.72 7 7 0 015.94-3.59 5.22 5.22 0 014.54 1.38 7.54 7.54 0 013.7-3.77 9.22 9.22 0 015.34-1.19 5.83 5.83 0 015.24 3.72 6.92 6.92 0 01.56 3.31 4.7 4.7 0 01-.32 1.79 2.39 2.39 0 01-.14.56c1.75-.18 3.54.68 5.38 2.61a13.06 13.06 0 013.56 6.75 15 15 0 01-.18 6.2 11.85 11.85 0 01-2.84 5.51 7.73 7.73 0 013 3 10.74 10.74 0 011.8 5.64c.28 3.86-1.24 7.07-4.54 9.66a6.77 6.77 0 012.74 5.49 7.3 7.3 0 01-2.78 5.69 7.7 7.7 0 012 7.71 6.58 6.58 0 01-2 3.7 3.6 3.6 0 011.65.54 4.05 4.05 0 011.51 1.51 1 1 0 01.14.42 5.89 5.89 0 014.5-2.47 6.72 6.72 0 016.61 3.71 12.34 12.34 0 018.41-5.22 10.41 10.41 0 015.94 1.09 6.25 6.25 0 012.61 3.31 7.87 7.87 0 01.55-.84 6 6 0 014.55-2 4.54 4.54 0 014.12 2.19c.93 1.47.83 3.17-.26 5.1a6.13 6.13 0 01-1.51 1.79zM440.28495 19.42285a9.89 9.89 0 01-1.23 6.47 12.89 12.89 0 01-5 4.41 11.13 11.13 0 01-2.75.83h.14a5 5 0 011.09 4.54 8.14 8.14 0 01-2 4 6.44 6.44 0 01-3.63 2.21 7.8 7.8 0 01.39 5.94 7.7 7.7 0 01-3.7 4.54 7.93 7.93 0 01-7.17.67 1.17 1.17 0 01-.42-.14 2.72 2.72 0 01-.46-.25.83.83 0 00-.49-.14 1 1 0 01.14.39 3.58 3.58 0 01-1.12 2.63 2.88 2.88 0 01-2.19 1.1.38.38 0 00-.28.14 11.32 11.32 0 013.17 7.17 11 11 0 01-.49 5.35 8.71 8.71 0 01-2.82 4.15 6.19 6.19 0 012.75 3.84 12 12 0 01-.14 7.87 8.31 8.31 0 01-4.68 5.49 5.19 5.19 0 01-2.07.7c.28.63.46 1.1.56 1.38a7.29 7.29 0 01-.82 5.91 5.08 5.08 0 01-5.1 2.07 5.28 5.28 0 01-4.42-2.74 10 10 0 01-.68-1.52 6.51 6.51 0 01-1.79 1.66 9.49 9.49 0 01-3.73 1.16 5.53 5.53 0 01-3.7-.88 8.17 8.17 0 01-3-6.29 6.28 6.28 0 012.7-6q-6.07-3-5.66-8.82a8.67 8.67 0 012.75-5.77 7.45 7.45 0 011-.82 6.47 6.47 0 01-2.43-2.56 7 7 0 01-1-3.38 6.12 6.12 0 013.17-5.77 3.52 3.52 0 01-1.09-.14 9.7 9.7 0 01-1.8-1 6.2 6.2 0 01-2.21-3 6.49 6.49 0 01.28-5.24 1.87 1.87 0 01-.84.14 5.11 5.11 0 01-3.7-1.9 5.28 5.28 0 01-.56-6.62 9.33 9.33 0 01-5.7-1.39 10.75 10.75 0 01-4.22-4.27 12.94 12.94 0 01-1.07-7.52 11.38 11.38 0 01.95-3.73.25.25 0 01.28-.28 7 7 0 01-4.68-.21 7.59 7.59 0 01-3.81-3 8.2 8.2 0 01-1.38-6.2 5.64 5.64 0 012.35-4 4.53 4.53 0 01-2.35-4 5.15 5.15 0 012.63-5 4.62 4.62 0 015.64 0 6 6 0 011.79 2.18 2.51 2.51 0 01.14.56 5.91 5.91 0 012.33-1.09 5.47 5.47 0 014.42.4 1.91 1.91 0 00.42.27q1.23-2.47 4.75-3.16a9.24 9.24 0 016 .56 6.51 6.51 0 013.72 4.82 6.09 6.09 0 01-.14 3.44 9.39 9.39 0 01-1.32 2c1.81.34 3.42 1.65 4.82 3.84a9.13 9.13 0 011.09 4.28 5.82 5.82 0 01-.7 2.47 5.67 5.67 0 014.71 2.85 5.62 5.62 0 010 6.35 7.8 7.8 0 014.15 3.17 7.52 7.52 0 011.37 2.89 15.34 15.34 0 011.24-1.52 11.53 11.53 0 014-2.77 13.46 13.46 0 011.38-.39 15.1 15.1 0 01-1.94-1.66 7.6 7.6 0 01-2.19-5.93 8.43 8.43 0 012.75-5.92 6.28 6.28 0 013.59-1.93 3.5 3.5 0 00-.42-.68 7.12 7.12 0 01-.14-5.37 7.16 7.16 0 013.17-3.45 7.66 7.66 0 014.68-1 4.76 4.76 0 011.93-3.49 6.28 6.28 0 014.14-1.44 5.54 5.54 0 014.54 2 5.39 5.39 0 011.24 2.14v.28a6.83 6.83 0 014.89-1.87 6.72 6.72 0 014.89 1.59 4.51 4.51 0 011.3 2.67 4.16 4.16 0 01-.75 3 9.5 9.5 0 01-2.74 1.93.64.64 0 00-.32.14.63.63 0 01-.35.14c.44.19.77.33.95.42a6.23 6.23 0 013 5.1z"/>
   <path class="cls-2" d="M113.28495 10.18285c-1.28-3.22-3.35-5-6.19-5.5a7.83 7.83 0 00-6.2 1.8.61.61 0 00.11-.46 5.08 5.08 0 00-.28-1.66 4.93 4.93 0 00-1.93-2.6 6.89 6.89 0 00-7.15-.42 6.21 6.21 0 00-3.58 5.91 9.5 9.5 0 00.53 3.17 6.25 6.25 0 00-4.47 1.32 10.65 10.65 0 00-3.38 3.64 9.52 9.52 0 00-1 5.66 11.66 11.66 0 001 2.6 3.92 3.92 0 001.15 1.38 5.81 5.81 0 00-1.12.56h-.14l-.14.14a7.79 7.79 0 00-2.32 1.51 10.4 10.4 0 00-2.89 5 10.22 10.22 0 000 5.8 6.56 6.56 0 001.51 2.88h-.56l-2.07.68a7 7 0 00-3.58 3 9.38 9.38 0 00-1.38 3.3v-.11a4.79 4.79 0 00-2-1.66 7.8 7.8 0 001.52-3.86 6.37 6.37 0 00-1.4-4.4 5 5 0 00-4-2.22 4.65 4.65 0 00-2.75.7 8.56 8.56 0 00-.84-1.93 6.26 6.26 0 00-4.82-2.35 8 8 0 00-5.1.84 6.89 6.89 0 00-3.3 3.56 5.92 5.92 0 00-.42 2.07 6.18 6.18 0 002.35 6.06 8.27 8.27 0 00-3.87 3.58 7.23 7.23 0 00-.95 3 10 10 0 00-3.17-1.38 8.89 8.89 0 001.66-8.94 10 10 0 00-3.17-4.68 8.69 8.69 0 00-2.35-1.51 2.87 2.87 0 00-1.1-.42 4.62 4.62 0 001-3.86 4.07 4.07 0 00-2.75-3.59 4.51 4.51 0 00-.84-.28 7.43 7.43 0 001.79-3.31 9.17 9.17 0 00-.81-6.59 10 10 0 00-4.61-4.59 8 8 0 00-4.15-1.37 5.13 5.13 0 00.7-1 7.28 7.28 0 00.68-2.77 5.64 5.64 0 00-2.05-4.68 6.38 6.38 0 00-5.24-1.38 9.23 9.23 0 00-5.38 1.93l-.28.27c-.18.19-.32.33-.39.42a1.41 1.41 0 01-.28-.56 4.7 4.7 0 00-1.94-1.51 6.58 6.58 0 00-5.23-.55 5 5 0 00-3.45 2.63 6.58 6.58 0 00-.68 4 11.07 11.07 0 00.68 2.21 4.2 4.2 0 00.84 1 .28.28 0 01.21.07.23.23 0 00.18.07 7.6 7.6 0 00-2.46 4 10.63 10.63 0 00.14 7 9 9 0 003.72 5 7.18 7.18 0 002.47 1 4 4 0 00-.42 3 3.35 3.35 0 002.06 2.38 3.58 3.58 0 001.38.28l-.28.28a.38.38 0 00-.1.28 6.62 6.62 0 00-1.1 2.21 7.89 7.89 0 000 5.08 6.87 6.87 0 003.31 4 5 5 0 002.35.56 12.16 12.16 0 00-2.77 10.46 12.93 12.93 0 002.7 4.82 9.91 9.91 0 004.47 3.16 3.51 3.51 0 00-1.23 3.45 2.89 2.89 0 002.74 2.63c0 .09-.09.23-.27.4a6.25 6.25 0 00-.82 4.84 4.94 4.94 0 003.17 3.7 1.39 1.39 0 00.81.28 7.38 7.38 0 00-2.4 4.54 9.59 9.59 0 00.47 5.24 8 8 0 004.35 4.4 7.1 7.1 0 006 .14 7.39 7.39 0 002.75 4.49 6.47 6.47 0 005.09 1.31 6.56 6.56 0 005.1-2.77 5.76 5.76 0 00.56-3.31 6.93 6.93 0 00-.18-1.63l-.1-.84a3.74 3.74 0 003.17 0 6.64 6.64 0 004-3.86 9.62 9.62 0 00.5-6.3 5.8 5.8 0 00-1.37-2.5 6.84 6.84 0 004-3.17 12.09 12.09 0 001.51-3.86v-.42a8.18 8.18 0 003.19 3.44c-2.58 3.22-3.07 6.48-1.51 9.78a5.81 5.81 0 004 3.73 6.51 6.51 0 001.65.28 9.45 9.45 0 00-1.37 4.26 7.3 7.3 0 003.72 6.75 8.35 8.35 0 008.13-.42 8.24 8.24 0 002.75-2.61 9.45 9.45 0 00.7-1.37 5.26 5.26 0 002 2 3.82 3.82 0 002.68.47 3.69 3.69 0 003.25-2.47 2.65 2.65 0 00-.28-2.63 2.45 2.45 0 00.7.14 10.71 10.71 0 003-.14 6.47 6.47 0 002.47-1.66 8.65 8.65 0 002.35-5.35 9.09 9.09 0 00-1.38-5.8 5.42 5.42 0 00-2.07-2.21 6.71 6.71 0 00-.81-.4 8.91 8.91 0 004.12-4.14 8 8 0 00-.38-8.7 11.12 11.12 0 004.56-1.94 9.46 9.46 0 002.89-5.51 8.09 8.09 0 00-1.37-5.78 2.64 2.64 0 00.67-.7 6.34 6.34 0 001.12-2.07 4 4 0 00-.28-2 9.41 9.41 0 001.91.14 6.6 6.6 0 005.52-3.3 10.11 10.11 0 001-6.9 8.84 8.84 0 00-2.5-5.24.25.25 0 00.21-.07.33.33 0 01.21-.06c.19-.19.45-.52.82-1a4.89 4.89 0 001-2.49 4.28 4.28 0 00-1.52-4 7.39 7.39 0 001.1-.56 11.84 11.84 0 003.16-2.89 9.79 9.79 0 001.06-9.47zm-2.89 8.54a7.42 7.42 0 01-2.47 2.63 19.75 19.75 0 01-3.16 1.91c-.1 0-.14.07-.14.21s0 .21.14.21a7.71 7.71 0 002.19-.28 5.15 5.15 0 01.83 3.45 2.45 2.45 0 01-.56 1.65c-.65.93-1.09 1.42-1.37 1.52-.46.18-.6.46-.42.83a13.61 13.61 0 001.1 2.47 9.72 9.72 0 01.83 2.49 7.22 7.22 0 01-.41 5.1 6 6 0 01-3.73 3c-1 .37-2.84.19-5.5-.56a.4.4 0 00-.27.14q-.15.14 0 .42a5 5 0 002.35 1.65 7.21 7.21 0 01.25.68 3.27 3.27 0 010 1.4 3.1 3.1 0 01-.53 1.38c-.28.28-.47.42-.56.42l-.14.11h-.14a6.54 6.54 0 00-3.45-1.23.42.42 0 00-.46.35.39.39 0 00.21.49 7.18 7.18 0 012.33 1.86 8.13 8.13 0 011.44 2.63 5.72 5.72 0 01.21 3 7.24 7.24 0 01-2.4 4.14 6.46 6.46 0 01-4.35 1.79 1 1 0 00-.75.61.77.77 0 00.21.91 7.08 7.08 0 011.1 7.29 9.69 9.69 0 01-2.08 2.88c-1.37 1.56-2.6 2.17-3.72 1.8l-.14.28a2.87 2.87 0 001.65.83 8.61 8.61 0 011.4 1.38 21.69 21.69 0 011.65 2.33 7.08 7.08 0 01.4 5.65c-.82 2.56-2.1 3.94-3.84 4.12a11.25 11.25 0 01-3-.13 1.41 1.41 0 01-.63-.19l-.56-.35a4.26 4.26 0 00-.53-.28 6.48 6.48 0 01-.63-.28.25.25 0 00-.21.07.28.28 0 00-.07.21c.09.91.79 1.65 2.07 2.21a2.39 2.39 0 01-.21 2.4 2.32 2.32 0 01-2.14 1.3c-1.84.1-2.89-1.14-3.17-3.7-.09-.28-.25-.42-.46-.42a.5.5 0 00-.49.28 6.91 6.91 0 00-.31 1.24c-.28.56-.65 1.18-1.1 1.93a7.54 7.54 0 01-2.35 2.19 5.92 5.92 0 01-6.3.38 5.11 5.11 0 01-3-4.68 8.38 8.38 0 01.68-3.17c.18-.28.42-.65.69-1.09a5.83 5.83 0 01.56-.84 2.28 2.28 0 00.82-.7.93.93 0 00.07-.61.44.44 0 00-.49-.35c-2.28.19-3.66.14-4.12-.14a4.47 4.47 0 01-3-2.88 7.66 7.66 0 01-.21-4.33 6.6 6.6 0 012.21-3.66.73.73 0 00.26-.84.85.85 0 00-.54-.67 9.93 9.93 0 01-5-6.62c0-.27-.16-.39-.48-.34s-.49.25-.49.62a24.73 24.73 0 01-.82 3.45 12.06 12.06 0 01-1.09 3.42 9 9 0 01-3.85 3.73l-1.37-.68a.49.49 0 00-.28.12c-.19.28-.19.47 0 .56s.56.37.81.56a.44.44 0 00.14.28 5.77 5.77 0 011.26 2.36 9 9 0 01-.28 4.82 5.34 5.34 0 01-2.35 3.44 6.45 6.45 0 01-4 .28.69.69 0 00-.35.14c-.14.09-.16.19-.07.28a20.33 20.33 0 01.14 3 5.25 5.25 0 01-.7 2.88 4.48 4.48 0 01-4 2.08 5.06 5.06 0 01-4-1.24 5.88 5.88 0 01-2.07-3.86c0-.56-.32-.79-1-.7a8.06 8.06 0 01-5.08-.33 6.09 6.09 0 01-3.52-3.51c-1-2.49-.23-5.34 2.35-8.55h.68a2.45 2.45 0 00.7-.14 1.78 1.78 0 01.42-.28c.28-.18.28-.37 0-.53a7.16 7.16 0 00-1-.42 6.18 6.18 0 01-1.1-.14 5.74 5.74 0 01-1.79-.7 3.71 3.71 0 01-2.35-2.33 4.24 4.24 0 01.28-3.31 5 5 0 01.84-1.37 4 4 0 011.49-1.12.4.4 0 00.14-.28c0-.07-.09-.11-.28-.11a2.74 2.74 0 00-1.51.11 1.43 1.43 0 00-.35-.11 2.76 2.76 0 01-1.45-.49 1.76 1.76 0 01-.88-1.05c-.47-1.28.16-2.23 1.91-2.89a.56.56 0 00.42-.57.88.88 0 00-.42-.77c-4.31-1.75-6.92-4.26-7.85-7.57a10.16 10.16 0 01.7-6.33 12.86 12.86 0 01.78-1.33c.37-.49.72-1 1-1.51s.56-.93.75-1.31l.14-.14a.32.32 0 00.07-.34c-.05-.14-.16-.19-.35-.19s-.42-.12-1-.07-.95 0-1-.07a5.07 5.07 0 01-1.93-1.12 5.77 5.77 0 01-2.21-3.16 8.3 8.3 0 010-3.71 6.16 6.16 0 01.69-1.65 13.87 13.87 0 011-1.79.48.48 0 000-.49.46.46 0 00-.42-.21 2.78 2.78 0 01-1.95-.52 2.78 2.78 0 01-1.24-1.58 2.42 2.42 0 01.7-2.33 3.29 3.29 0 001.38-.56q.55-.29.27-1c0-.18-.18-.32-.55-.42a2.35 2.35 0 00-1 .14 7.22 7.22 0 01-3.86-1.23 8.24 8.24 0 01-2.47-4.14 10.1 10.1 0 01-.14-5.52c.09-.26.21-.56.32-.89s.28-.63.42-.88a4.59 4.59 0 01.49-.77 7.28 7.28 0 00.56-.82 7.94 7.94 0 01.54-.9.64.64 0 00-.07-.63.48.48 0 00-.6-.19.82.82 0 01-.42.19.83.83 0 00-.42.21.85.85 0 00-.07-.33q-.06-.21-.21-.21a3.1 3.1 0 00-.07-.63 3.69 3.69 0 01-.07-.49 12.68 12.68 0 01.14-2 5 5 0 011.26-2.92 3.68 3.68 0 011.65-.82 4.26 4.26 0 012.19 0 4.42 4.42 0 012.35.68l.82.55a1.35 1.35 0 00.28.56 3.7 3.7 0 00-.42 2.89.13.13 0 00.14.14.42.42 0 00.28-.14 7.66 7.66 0 013.31-4.14 7.75 7.75 0 015.65-.82 4 4 0 013 3 6.67 6.67 0 01.28 2.75 4 4 0 01-.07.69 3.81 3.81 0 00-.07.56 2.35 2.35 0 00-.14 1 2.86 2.86 0 00-1.23.42c-.19.09-.26.21-.21.35s.16.16.32.07a5.35 5.35 0 013.31.81 6.68 6.68 0 012.49 1.23 10 10 0 013.45 4.15 8.22 8.22 0 01.28 5.1 20.91 20.91 0 01-1 2.47 5 5 0 00-.54 1.23 12.42 12.42 0 00-2.01.45c-.09 0-.14.07-.14.21a.48.48 0 00.14.35 13.17 13.17 0 013.73.95 2.47 2.47 0 011.09 1 2.35 2.35 0 01.42 1.23 3.74 3.74 0 01-.84 2.75c-.46.56-.81 1-1.09 1.38l-.56.55c0 .19 0 .28-.14.28s-.14.19-.4.28v.21s0 .07.12.07a3.23 3.23 0 01.49-.14.82.82 0 01.21.07.55.55 0 00.28.07 1.7 1.7 0 00.53-.14 2.51 2.51 0 01.56-.14 2.76 2.76 0 00.7-.42 8.67 8.67 0 001.23 1 21.28 21.28 0 011.94 1.26 9.61 9.61 0 012.73 3.61 7.65 7.65 0 01.35 4.49 5.94 5.94 0 01-2.28 3.77 1.05 1.05 0 00-.14.91.56.56 0 00.56.49 7.62 7.62 0 014.82 2.33 5.83 5.83 0 001.09 2.58.47.47 0 00.42.28c.19 0 .28-.14.28-.4a17.58 17.58 0 00.42-3 9.55 9.55 0 01.82-3.42 9.17 9.17 0 014.28-4 .76.76 0 00.33-.56.46.46 0 00-.19-.53 5.94 5.94 0 01-2.49-5.8 5.39 5.39 0 012.49-3.57 6.13 6.13 0 011.65-.54 6.41 6.41 0 014.68.68 5.84 5.84 0 011.52 1.65 5.63 5.63 0 011.23 2.21h.16c.28-.65.47-1.09.56-1.37a4 4 0 012.44-.32 4.15 4.15 0 012.75 1.79 5.2 5.2 0 011 3.59 5.46 5.46 0 01-1.25 3.31.9.9 0 00-.28.68.56.56 0 00.4.56c.65.37 1.11.63 1.39.81l.68.7a2 2 0 00.14.56 10.19 10.19 0 01.7 2.89 15.79 15.79 0 01.14 3.16c0 .19 0 .47-.07.82a1.46 1.46 0 01-.21.7v1.51c0 .28.09.33.28.14a4.69 4.69 0 001.51-2.89 8.25 8.25 0 00.4-3.86v-.42a2 2 0 01.07-.54c0-.18.09-.39.14-.63a3.7 3.7 0 00.06-.63 10.56 10.56 0 011.52-3.7 9 9 0 012.49-2.35 4.55 4.55 0 011.65-.81.4.4 0 00.28-.14 1.21 1.21 0 00.54-.14 1.15 1.15 0 00.7-.14h.56a.83.83 0 00.6-.21.59.59 0 00.07-.63 16.48 16.48 0 01-1.93-4 8.79 8.79 0 01.28-4.4 10.82 10.82 0 011.93-4l1.09-.95a22.91 22.91 0 012.91-2.09.5.5 0 00.26-.48 1.39 1.39 0 00-.14-.63 23.84 23.84 0 01-1.23-2c-.19-.75-.33-1.38-.42-1.93a8 8 0 01.84-4.27 8.28 8.28 0 012.74-3.19 8 8 0 013.73-2 2.88 2.88 0 002.07.81q.14 0 .21-.21c.05-.14 0-.21-.07-.21-1.12-1-1.56-2.51-1.4-4.54a4.18 4.18 0 012.77-4.2 4.64 4.64 0 014.69.28 3.23 3.23 0 011.23 1.77q.29.56.42.84a5.42 5.42 0 01.28 2.07.67.67 0 00.28.6c.16.14.35.12.53-.07 1.94-2.09 4.15-2.84 6.62-2.18 2.21.62 3.72 2.28 4.54 5a8.63 8.63 0 01-1.1 7.24zM174.87495 58.96285a20 20 0 01-3.59-2.07 6.15 6.15 0 01-1.93-3.59 6.09 6.09 0 01-.21-2.14 6.6 6.6 0 01.49-2.19 7.67 7.67 0 011.09-1.95 8.58 8.58 0 011.65-1.59.86.86 0 00.35-.9c0-.4-.3-.56-.77-.47a9.84 9.84 0 01-5.42-1 9 9 0 01-3.94-3.56 9.12 9.12 0 01-1.23-5.1 18.67 18.67 0 012.07-5.94c.19-.44.1-.77-.28-.95a.71.71 0 00-1 .28q-1.52 2.06-5.36 2.88c-1 .1-2 .14-2.91.14a.52.52 0 00-.4-.14c-1.65-.83-2.95-.65-3.86.56-.09.1-.09.19 0 .26s.14.09.14 0a2.71 2.71 0 013.58 1.79 6.86 6.86 0 01.14 4.82 8.4 8.4 0 01-2.21 3.45 5.81 5.81 0 01-1.51 1.26 7.8 7.8 0 00-1.38 1c-.55.28-.51.61.14 1a7 7 0 013.17 4.7 15 15 0 01-.28 6.33 18.78 18.78 0 01-2.35 5.5 13.68 13.68 0 01-2.05 3.3 9.93 9.93 0 00-2.35 1.52.12.12 0 00-.14.14 8.87 8.87 0 00-.82 1c.1.19.19.26.28.26a9.5 9.5 0 015.25-1.54 8.35 8.35 0 015.1 1.65 8.7 8.7 0 013 4.42 16.48 16.48 0 01.69 5 11.4 11.4 0 00-.14 1.38.72.72 0 00.7.6.55.55 0 00.68-.46 10.88 10.88 0 013.3-5.94 8.51 8.51 0 016.76-2.33c.46 0 .7-.25.7-.77s-.24-.74-.7-.74c-.82 0-1.14-1-1-3a5.51 5.51 0 01.82-2.91 6 6 0 013.93-2.9 2.92 2.92 0 001.38.28.65.65 0 00.69-.56.7.7 0 00-.27-.78zm-7.74 4.12a6.81 6.81 0 00-.11 5.52 16.22 16.22 0 00-2.07.53 11.78 11.78 0 00-3.59 2.08 7.15 7.15 0 00-1.65 2.07 21 21 0 00-.42-2.21 9.83 9.83 0 00-3.84-5.36 8.47 8.47 0 00-6.22-1.69.76.76 0 00-.54.14 14.81 14.81 0 005.1-8.69 13.53 13.53 0 00-.28-7.7 5.67 5.67 0 00-2.35-3.45 10.81 10.81 0 002.63-2.07 9.51 9.51 0 002.21-5.48 7.42 7.42 0 00-.67-4.26 6.64 6.64 0 001.91 0 14 14 0 002.77-1 8.19 8.19 0 00-.7 2.63 10.59 10.59 0 001.37 6.61 9.82 9.82 0 008.83 5.1 8.82 8.82 0 00-2.08 7.57 8.49 8.49 0 003.87 5.66 6.17 6.17 0 00-4.17 4zm7.74-4.12a20 20 0 01-3.59-2.07 6.15 6.15 0 01-1.93-3.59 6.09 6.09 0 01-.21-2.14 6.6 6.6 0 01.49-2.19 7.67 7.67 0 011.09-1.95 8.58 8.58 0 011.65-1.59.86.86 0 00.35-.9c0-.4-.3-.56-.77-.47a9.84 9.84 0 01-5.42-1 9 9 0 01-3.94-3.56 9.12 9.12 0 01-1.23-5.1 18.67 18.67 0 012.07-5.94c.19-.44.1-.77-.28-.95a.71.71 0 00-1 .28q-1.52 2.06-5.36 2.88c-1 .1-2 .14-2.91.14a.52.52 0 00-.4-.14c-1.65-.83-2.95-.65-3.86.56-.09.1-.09.19 0 .26s.14.09.14 0a2.71 2.71 0 013.58 1.79 6.86 6.86 0 01.14 4.82 8.4 8.4 0 01-2.21 3.45 5.81 5.81 0 01-1.51 1.26 7.8 7.8 0 00-1.38 1c-.55.28-.51.61.14 1a7 7 0 013.17 4.7 15 15 0 01-.28 6.33 18.78 18.78 0 01-2.35 5.5 13.68 13.68 0 01-2.05 3.3 9.93 9.93 0 00-2.35 1.52.12.12 0 00-.14.14 8.87 8.87 0 00-.82 1c.1.19.19.26.28.26a9.5 9.5 0 015.25-1.54 8.35 8.35 0 015.1 1.65 8.7 8.7 0 013 4.42 16.48 16.48 0 01.69 5 11.4 11.4 0 00-.14 1.38.72.72 0 00.7.6.55.55 0 00.68-.46 10.88 10.88 0 013.3-5.94 8.51 8.51 0 016.76-2.33c.46 0 .7-.25.7-.77s-.24-.74-.7-.74c-.82 0-1.14-1-1-3a5.51 5.51 0 01.82-2.91 6 6 0 013.93-2.9 2.92 2.92 0 001.38.28.65.65 0 00.69-.56.7.7 0 00-.27-.78zm-7.74 4.12a6.81 6.81 0 00-.11 5.52 16.22 16.22 0 00-2.07.53 11.78 11.78 0 00-3.59 2.08 7.15 7.15 0 00-1.65 2.07 21 21 0 00-.42-2.21 9.83 9.83 0 00-3.84-5.36 8.47 8.47 0 00-6.22-1.69.76.76 0 00-.54.14 14.81 14.81 0 005.1-8.69 13.53 13.53 0 00-.28-7.7 5.67 5.67 0 00-2.35-3.45 10.81 10.81 0 002.63-2.07 9.51 9.51 0 002.21-5.48 7.42 7.42 0 00-.67-4.26 6.64 6.64 0 001.91 0 14 14 0 002.77-1 8.19 8.19 0 00-.7 2.63 10.59 10.59 0 001.37 6.61 9.82 9.82 0 008.83 5.1 8.82 8.82 0 00-2.08 7.57 8.49 8.49 0 003.87 5.66 6.17 6.17 0 00-4.17 4zm7.74-4.12a20 20 0 01-3.59-2.07 6.15 6.15 0 01-1.93-3.59 6.09 6.09 0 01-.21-2.14 6.6 6.6 0 01.49-2.19 7.67 7.67 0 011.09-1.95 8.58 8.58 0 011.65-1.59.86.86 0 00.35-.9c0-.4-.3-.56-.77-.47a9.84 9.84 0 01-5.42-1 9 9 0 01-3.94-3.56 9.12 9.12 0 01-1.23-5.1 18.67 18.67 0 012.07-5.94c.19-.44.1-.77-.28-.95a.71.71 0 00-1 .28q-1.52 2.06-5.36 2.88c-1 .1-2 .14-2.91.14a.52.52 0 00-.4-.14c-1.65-.83-2.95-.65-3.86.56-.09.1-.09.19 0 .26s.14.09.14 0a2.71 2.71 0 013.58 1.79 6.86 6.86 0 01.14 4.82 8.4 8.4 0 01-2.21 3.45 5.81 5.81 0 01-1.51 1.26 7.8 7.8 0 00-1.38 1c-.55.28-.51.61.14 1a7 7 0 013.17 4.7 15 15 0 01-.28 6.33 18.78 18.78 0 01-2.35 5.5 13.68 13.68 0 01-2.05 3.3 9.93 9.93 0 00-2.35 1.52.12.12 0 00-.14.14 8.87 8.87 0 00-.82 1c.1.19.19.26.28.26a9.5 9.5 0 015.25-1.54 8.35 8.35 0 015.1 1.65 8.7 8.7 0 013 4.42 16.48 16.48 0 01.69 5 11.4 11.4 0 00-.14 1.38.72.72 0 00.7.6.55.55 0 00.68-.46 10.88 10.88 0 013.3-5.94 8.51 8.51 0 016.76-2.33c.46 0 .7-.25.7-.77s-.24-.74-.7-.74c-.82 0-1.14-1-1-3a5.51 5.51 0 01.82-2.91 6 6 0 013.93-2.9 2.92 2.92 0 001.38.28.65.65 0 00.69-.56.7.7 0 00-.27-.78zm-7.74 4.12a6.81 6.81 0 00-.11 5.52 16.22 16.22 0 00-2.07.53 11.78 11.78 0 00-3.59 2.08 7.15 7.15 0 00-1.65 2.07 21 21 0 00-.42-2.21 9.83 9.83 0 00-3.84-5.36 8.47 8.47 0 00-6.22-1.69.76.76 0 00-.54.14 14.81 14.81 0 005.1-8.69 13.53 13.53 0 00-.28-7.7 5.67 5.67 0 00-2.35-3.45 10.81 10.81 0 002.63-2.07 9.51 9.51 0 002.21-5.48 7.42 7.42 0 00-.67-4.26 6.64 6.64 0 001.91 0 14 14 0 002.77-1 8.19 8.19 0 00-.7 2.63 10.59 10.59 0 001.37 6.61 9.82 9.82 0 008.83 5.1 8.82 8.82 0 00-2.08 7.57 8.49 8.49 0 003.87 5.66 6.17 6.17 0 00-4.17 4zm7.74-4.12a20 20 0 01-3.59-2.07 6.15 6.15 0 01-1.93-3.59 6.09 6.09 0 01-.21-2.14 6.6 6.6 0 01.49-2.19 7.67 7.67 0 011.09-1.95 8.58 8.58 0 011.65-1.59.86.86 0 00.35-.9c0-.4-.3-.56-.77-.47a9.84 9.84 0 01-5.42-1 9 9 0 01-3.94-3.56 9.12 9.12 0 01-1.23-5.1 18.67 18.67 0 012.07-5.94c.19-.44.1-.77-.28-.95a.71.71 0 00-1 .28q-1.52 2.06-5.36 2.88c-1 .1-2 .14-2.91.14a.52.52 0 00-.4-.14c-1.65-.83-2.95-.65-3.86.56-.09.1-.09.19 0 .26s.14.09.14 0a2.71 2.71 0 013.58 1.79 6.86 6.86 0 01.14 4.82 8.4 8.4 0 01-2.21 3.45 5.81 5.81 0 01-1.51 1.26 7.8 7.8 0 00-1.38 1c-.55.28-.51.61.14 1a7 7 0 013.17 4.7 15 15 0 01-.28 6.33 18.78 18.78 0 01-2.35 5.5 13.68 13.68 0 01-2.05 3.3 9.93 9.93 0 00-2.35 1.52.12.12 0 00-.14.14 8.87 8.87 0 00-.82 1c.1.19.19.26.28.26a9.5 9.5 0 015.25-1.54 8.35 8.35 0 015.1 1.65 8.7 8.7 0 013 4.42 16.48 16.48 0 01.69 5 11.4 11.4 0 00-.14 1.38.72.72 0 00.7.6.55.55 0 00.68-.46 10.88 10.88 0 013.3-5.94 8.51 8.51 0 016.76-2.33c.46 0 .7-.25.7-.77s-.24-.74-.7-.74c-.82 0-1.14-1-1-3a5.51 5.51 0 01.82-2.91 6 6 0 013.93-2.9 2.92 2.92 0 001.38.28.65.65 0 00.69-.56.7.7 0 00-.27-.78zm-7.74 4.12a6.81 6.81 0 00-.11 5.52 16.22 16.22 0 00-2.07.53 11.78 11.78 0 00-3.59 2.08 7.15 7.15 0 00-1.65 2.07 21 21 0 00-.42-2.21 9.83 9.83 0 00-3.84-5.36 8.47 8.47 0 00-6.22-1.69.76.76 0 00-.54.14 14.81 14.81 0 005.1-8.69 13.53 13.53 0 00-.28-7.7 5.67 5.67 0 00-2.35-3.45 10.81 10.81 0 002.63-2.07 9.51 9.51 0 002.21-5.48 7.42 7.42 0 00-.67-4.26 6.64 6.64 0 001.91 0 14 14 0 002.77-1 8.19 8.19 0 00-.7 2.63 10.59 10.59 0 001.37 6.61 9.82 9.82 0 008.83 5.1 8.82 8.82 0 00-2.08 7.57 8.49 8.49 0 003.87 5.66 6.17 6.17 0 00-4.17 4zm31-7.57a13.5 13.5 0 001-7.59 9.5 9.5 0 00-3.44-6.33 7.44 7.44 0 00-3.31-1.79 3.42 3.42 0 00.7-.82 10.79 10.79 0 002.19-7.57 11.82 11.82 0 00-2.61-7.59 8.85 8.85 0 00-5.38-3.44 5 5 0 00.35-3.59 5.82 5.82 0 00-2-3.17 7.74 7.74 0 00-4.68-1.51 9.44 9.44 0 00-3.31.84 7.32 7.32 0 00.7-3.73 9 9 0 00-4.56-6.61 12.74 12.74 0 00-8.09-1.93 11.73 11.73 0 00-7.64 3 9.79 9.79 0 00-5.44-2.72 10.57 10.57 0 00-6.13.7 9.64 9.64 0 00-4.12 3.51 8.64 8.64 0 00-1.65 5 6 6 0 00-1.66-1 4.43 4.43 0 00-4.28 1 5.27 5.27 0 00-2.07 4 4.57 4.57 0 00.28 2.75l.7.84a10.47 10.47 0 00-5.94 2.26 14.87 14.87 0 00-5.5 6.47 14 14 0 00-1.23 8 14.15 14.15 0 003.17 7.43c-3.59 1.65-5.57 5.66-5.94 12a9.8 9.8 0 001.76 6.55 13.9 13.9 0 005.55 4.55c-3.12 4.31-3.68 8.55-1.65 12.67a8.3 8.3 0 005 4.42c0 .07.07.12.21.12a2.92 2.92 0 01.39.07 1.45 1.45 0 00.49.07 7.5 7.5 0 00-1.23 4.82 8.74 8.74 0 003.3 6.47 7.91 7.91 0 006.75 1.79 7.2 7.2 0 004.64-2.43h.14c.1 1.93 1.33 3.56 3.73 4.89a15.56 15.56 0 006.87 2.14c2.93.16 5.14-.65 6.61-2.49a8.45 8.45 0 001.26-2.22 4.05 4.05 0 00.67 1.12 3.83 3.83 0 003.31.82 4.72 4.72 0 002.75-1.94 4.66 4.66 0 00.7-1.37 8.41 8.41 0 003.58 2.05 13.91 13.91 0 009.78-.28 8.33 8.33 0 005.5-6 8.61 8.61 0 00-.54-7 6.4 6.4 0 004.82-3.73 6.16 6.16 0 00-.14-6 4.74 4.74 0 002.33-1 6.55 6.55 0 001.79-1.99 7.65 7.65 0 001-2.21 8.84 8.84 0 00-.35-4.47 7 7 0 00-2.42-3.66 8.68 8.68 0 003.29-4.17zm-5.36 4.51a7.29 7.29 0 001 1.45 5.11 5.11 0 011 1.58 6.43 6.43 0 01.7 3.86q-.56 3.43-4.68 4.68c-.56.19-.7.52-.42 1l.42 1.26a7 7 0 01-.14 4.26 5.76 5.76 0 01-4.54 3 .57.57 0 00-.56.49.7.7 0 00.14.75c1.09 1.65 1.23 3.77.42 6.33a6.74 6.74 0 01-4.54 5 14.9 14.9 0 01-7.59.28 8.61 8.61 0 01-5.78-3.7c-.09-.19-.25-.23-.49-.14s-.3.23-.21.4a8.08 8.08 0 001.38 2.91 3 3 0 01-.82 1.09 4.85 4.85 0 01-2.35 1 2 2 0 01-1.93-.14 4.26 4.26 0 01-.4-.39c-.18-.19-.32-.28-.42-.28l-.56-.84a11.6 11.6 0 00-.27-2.47c-.1-.18-.21-.23-.4-.14s-.28.14-.28.42a4.19 4.19 0 01-2.14 4.82 8.53 8.53 0 01-5.85 1.38 10.41 10.41 0 01-5.46-2.16 9.76 9.76 0 01-3.59-4.7.47.47 0 00-.33-.14.5.5 0 00-.35.14c-.09.19-.46.42-1.11.7a3.83 3.83 0 01-1 .54 13 13 0 01-2.61.84 7.14 7.14 0 01-5.37-1.38 6.72 6.72 0 01-2.89-4.7 9.22 9.22 0 01.25-3 1.57 1.57 0 01.21-.67 1.68 1.68 0 00.21-.7 4 4 0 003.31-1.24v-.29a16.5 16.5 0 01-1.72-.13c-.77-.1-1.45-.19-2-.28a6.23 6.23 0 01-1.65-.54 7.39 7.39 0 01-3.56-3.73c-1.75-3.67-1.26-7.47 1.51-11.43.28-.37.19-.7-.28-.95a15.26 15.26 0 01-5-3.87 9.19 9.19 0 01-1.51-6.61 16.27 16.27 0 011.51-6.19 13.83 13.83 0 013.97-4.68 1.63 1.63 0 01.11-.42v-.14a1.55 1.55 0 00-.11-.56 16.27 16.27 0 01-2.49-7 13.81 13.81 0 015.49-12.57 19.38 19.38 0 013.3-1.79 4.77 4.77 0 01.89-.33c.42-.14.81-.28 1.16-.42a7.2 7.2 0 001.05-.46.54.54 0 00.21-.81 6.23 6.23 0 01-.56-3.17 3.57 3.57 0 01.84-2.77c1.18-1.37 2.84-1.37 4.93 0a2 2 0 01.14.56.57.57 0 00.56.28.37.37 0 00.42-.42 12.18 12.18 0 011.58-5.59 7.62 7.62 0 013.92-3.51 8.28 8.28 0 015.38-.4 9.1 9.1 0 014.68 2.83.73.73 0 00.76.35 1 1 0 00.74-.45c1.21-1.94 3.24-3 6.15-3.17a11.45 11.45 0 016.93 1.37 8.05 8.05 0 013.92 5.1 7.06 7.06 0 01-.6 4.8v.14c-.09 0-.14.1-.14.28a1.93 1.93 0 01-.67.82.38.38 0 00.07.49c.14.14.25.16.34.07.45-.38 1.05-.87 1.8-1.52 2.84-.74 5.07-.65 6.73.28a4.4 4.4 0 012.14 2.68 3 3 0 01-.89 3.1.84.84 0 00-.21 1 1 1 0 00.75.68c2.93.74 4.87 1.84 5.8 3.31a13 13 0 011.93 6.33 11.45 11.45 0 01-1.4 6.08 10.41 10.41 0 01-1.65 2.18 5.84 5.84 0 01-1.23.9 6.92 6.92 0 00-1.24.89.44.44 0 00-.07.42.34.34 0 00.35.28 5.22 5.22 0 003-1.38 5.26 5.26 0 001.23.54 11.12 11.12 0 012.35 1.65 8.27 8.27 0 012.33 5.38 14.76 14.76 0 01-.67 5.91c-.75 2.4-1.75 3.92-3 4.57-.47.18-.56.49-.28.92zm-21.49-3.16a6.15 6.15 0 01-1.93-3.59 6.09 6.09 0 01-.21-2.14 6.6 6.6 0 01.49-2.19 7.67 7.67 0 011.09-1.92 8.58 8.58 0 011.65-1.59.86.86 0 00.35-.9c0-.4-.3-.56-.77-.47a9.84 9.84 0 01-5.42-1 9 9 0 01-3.94-3.56 9.12 9.12 0 01-1.23-5.1 18.67 18.67 0 012.07-5.94c.19-.44.1-.77-.28-.95a.71.71 0 00-1 .28q-1.52 2.06-5.36 2.88c-1 .1-2 .14-2.91.14a.52.52 0 00-.4-.14c-1.65-.83-2.95-.65-3.86.56-.09.1-.09.19 0 .26s.14.09.14 0a2.71 2.71 0 013.58 1.79 6.86 6.86 0 01.14 4.82 8.4 8.4 0 01-2.21 3.45 5.81 5.81 0 01-1.51 1.26 7.8 7.8 0 00-1.38 1c-.55.28-.51.61.14 1a7 7 0 013.17 4.7 15 15 0 01-.28 6.33 18.78 18.78 0 01-2.35 5.5 13.68 13.68 0 01-2.05 3.3 9.93 9.93 0 00-2.35 1.52.12.12 0 00-.14.14 8.87 8.87 0 00-.82 1c.1.19.19.26.28.26a9.5 9.5 0 015.25-1.54 8.35 8.35 0 015.1 1.65 8.7 8.7 0 013 4.42 16.48 16.48 0 01.69 5 11.4 11.4 0 00-.14 1.38.72.72 0 00.7.6.55.55 0 00.68-.46 10.88 10.88 0 013.3-5.94 8.51 8.51 0 016.76-2.33c.46 0 .7-.25.7-.77s-.24-.74-.7-.74c-.82 0-1.14-1-1-3a5.51 5.51 0 01.82-2.91 6 6 0 013.93-2.9 2.92 2.92 0 001.38.28.65.65 0 00.69-.56.7.7 0 00-.27-.81 20 20 0 01-3.59-2.04zm-4.15 6.19a6.81 6.81 0 00-.11 5.52 16.22 16.22 0 00-2.07.53 11.78 11.78 0 00-3.59 2.08 7.15 7.15 0 00-1.65 2.07 21 21 0 00-.42-2.21 9.83 9.83 0 00-3.84-5.36 8.47 8.47 0 00-6.22-1.66.76.76 0 00-.54.14 14.81 14.81 0 005.1-8.69 13.53 13.53 0 00-.28-7.7 5.67 5.67 0 00-2.35-3.45 10.81 10.81 0 002.63-2.07 9.51 9.51 0 002.21-5.48 7.42 7.42 0 00-.67-4.26 6.64 6.64 0 001.91 0 14 14 0 002.77-1 8.19 8.19 0 00-.7 2.63 10.59 10.59 0 001.37 6.61 9.82 9.82 0 008.83 5.1 8.82 8.82 0 00-2.08 7.57 8.49 8.49 0 003.87 5.66 6.17 6.17 0 00-4.17 4zm7.74-4.12a20 20 0 01-3.59-2.07 6.15 6.15 0 01-1.93-3.59 6.09 6.09 0 01-.21-2.14 6.6 6.6 0 01.49-2.19 7.67 7.67 0 011.09-1.92 8.58 8.58 0 011.65-1.59.86.86 0 00.35-.9c0-.4-.3-.56-.77-.47a9.84 9.84 0 01-5.42-1 9 9 0 01-3.94-3.56 9.12 9.12 0 01-1.23-5.1 18.67 18.67 0 012.07-5.94c.19-.44.1-.77-.28-.95a.71.71 0 00-1 .28q-1.52 2.06-5.36 2.88c-1 .1-2 .14-2.91.14a.52.52 0 00-.4-.14c-1.65-.83-2.95-.65-3.86.56-.09.1-.09.19 0 .26s.14.09.14 0a2.71 2.71 0 013.58 1.79 6.86 6.86 0 01.14 4.82 8.4 8.4 0 01-2.21 3.45 5.81 5.81 0 01-1.51 1.26 7.8 7.8 0 00-1.38 1c-.55.28-.51.61.14 1a7 7 0 013.17 4.7 15 15 0 01-.28 6.33 18.78 18.78 0 01-2.35 5.5 13.68 13.68 0 01-2.05 3.3 9.93 9.93 0 00-2.35 1.52.12.12 0 00-.14.14 8.87 8.87 0 00-.82 1c.1.19.19.26.28.26a9.5 9.5 0 015.25-1.54 8.35 8.35 0 015.1 1.65 8.7 8.7 0 013 4.42 16.48 16.48 0 01.69 5 11.4 11.4 0 00-.14 1.38.72.72 0 00.7.6.55.55 0 00.68-.46 10.88 10.88 0 013.3-5.94 8.51 8.51 0 016.76-2.33c.46 0 .7-.25.7-.77s-.24-.74-.7-.74c-.82 0-1.14-1-1-3a5.51 5.51 0 01.82-2.91 6 6 0 013.93-2.9 2.92 2.92 0 001.38.28.65.65 0 00.69-.56.7.7 0 00-.27-.78zm-7.74 4.12a6.81 6.81 0 00-.11 5.52 16.22 16.22 0 00-2.07.53 11.78 11.78 0 00-3.59 2.08 7.15 7.15 0 00-1.65 2.07 21 21 0 00-.42-2.21 9.83 9.83 0 00-3.84-5.36 8.47 8.47 0 00-6.22-1.66.76.76 0 00-.54.14 14.81 14.81 0 005.1-8.69 13.53 13.53 0 00-.28-7.7 5.67 5.67 0 00-2.35-3.45 10.81 10.81 0 002.63-2.07 9.51 9.51 0 002.21-5.48 7.42 7.42 0 00-.67-4.26 6.64 6.64 0 001.91 0 14 14 0 002.77-1 8.19 8.19 0 00-.7 2.63 10.59 10.59 0 001.37 6.61 9.82 9.82 0 008.83 5.1 8.82 8.82 0 00-2.08 7.57 8.49 8.49 0 003.87 5.66 6.17 6.17 0 00-4.17 4zm7.74-4.12a20 20 0 01-3.59-2.07 6.15 6.15 0 01-1.93-3.59 6.09 6.09 0 01-.21-2.14 6.6 6.6 0 01.49-2.19 7.67 7.67 0 011.09-1.92 8.58 8.58 0 011.65-1.59.86.86 0 00.35-.9c0-.4-.3-.56-.77-.47a9.84 9.84 0 01-5.42-1 9 9 0 01-3.94-3.56 9.12 9.12 0 01-1.23-5.1 18.67 18.67 0 012.07-5.94c.19-.44.1-.77-.28-.95a.71.71 0 00-1 .28q-1.52 2.06-5.36 2.88c-1 .1-2 .14-2.91.14a.52.52 0 00-.4-.14c-1.65-.83-2.95-.65-3.86.56-.09.1-.09.19 0 .26s.14.09.14 0a2.71 2.71 0 013.58 1.79 6.86 6.86 0 01.14 4.82 8.4 8.4 0 01-2.21 3.45 5.81 5.81 0 01-1.51 1.26 7.8 7.8 0 00-1.38 1c-.55.28-.51.61.14 1a7 7 0 013.17 4.7 15 15 0 01-.28 6.33 18.78 18.78 0 01-2.35 5.5 13.68 13.68 0 01-2.05 3.3 9.93 9.93 0 00-2.35 1.52.12.12 0 00-.14.14 8.87 8.87 0 00-.82 1c.1.19.19.26.28.26a9.5 9.5 0 015.25-1.54 8.35 8.35 0 015.1 1.65 8.7 8.7 0 013 4.42 16.48 16.48 0 01.69 5 11.4 11.4 0 00-.14 1.38.72.72 0 00.7.6.55.55 0 00.68-.46 10.88 10.88 0 013.3-5.94 8.51 8.51 0 016.76-2.33c.46 0 .7-.25.7-.77s-.24-.74-.7-.74c-.82 0-1.14-1-1-3a5.51 5.51 0 01.82-2.91 6 6 0 013.93-2.9 2.92 2.92 0 001.38.28.65.65 0 00.69-.56.7.7 0 00-.27-.78zm-7.74 4.12a6.81 6.81 0 00-.11 5.52 16.22 16.22 0 00-2.07.53 11.78 11.78 0 00-3.59 2.08 7.15 7.15 0 00-1.65 2.07 21 21 0 00-.42-2.21 9.83 9.83 0 00-3.84-5.36 8.47 8.47 0 00-6.22-1.66.76.76 0 00-.54.14 14.81 14.81 0 005.1-8.69 13.53 13.53 0 00-.28-7.7 5.67 5.67 0 00-2.35-3.45 10.81 10.81 0 002.63-2.07 9.51 9.51 0 002.21-5.48 7.42 7.42 0 00-.67-4.26 6.64 6.64 0 001.91 0 14 14 0 002.77-1 8.19 8.19 0 00-.7 2.63 10.59 10.59 0 001.37 6.61 9.82 9.82 0 008.83 5.1 8.82 8.82 0 00-2.08 7.57 8.49 8.49 0 003.87 5.66 6.17 6.17 0 00-4.17 4zM261.64495 58.96285a20.17 20.17 0 01-3.58-2.07 6.15 6.15 0 01-1.93-3.59 6.09 6.09 0 01-.21-2.14 6.6 6.6 0 01.49-2.19 7.67 7.67 0 011.09-1.95 7.8 7.8 0 011.65-1.59.86.86 0 00.35-.9c0-.4-.3-.56-.77-.47a9.84 9.84 0 01-5.42-1 9 9 0 01-3.94-3.56 9.12 9.12 0 01-1.23-5.1 18.67 18.67 0 012.07-5.94c.17-.44.1-.77-.28-.95a.71.71 0 00-1 .28q-1.52 2.06-5.36 2.88c-1 .1-2 .14-2.91.14a.56.56 0 00-.4-.14c-1.65-.83-2.95-.65-3.86.56-.09.1-.09.19 0 .26s.14.09.14 0a2.71 2.71 0 013.58 1.79 6.86 6.86 0 01.14 4.82 8.4 8.4 0 01-2.21 3.45 6.18 6.18 0 01-1.51 1.26 7.8 7.8 0 00-1.38 1c-.55.28-.51.61.14 1a7 7 0 013.17 4.7 15 15 0 01-.28 6.33 18.78 18.78 0 01-2.35 5.5 13.68 13.68 0 01-2.05 3.3 9.93 9.93 0 00-2.35 1.52.12.12 0 00-.14.14 8.87 8.87 0 00-.82 1c.07.19.19.26.26.26a9.52 9.52 0 015.26-1.54 8.35 8.35 0 015.1 1.65 8.7 8.7 0 013 4.42 16.48 16.48 0 01.69 5 11.4 11.4 0 00-.14 1.38.72.72 0 00.7.6.55.55 0 00.68-.46 10.88 10.88 0 013.3-5.94 8.51 8.51 0 016.76-2.33c.46 0 .7-.25.7-.77s-.24-.74-.7-.74c-.84 0-1.14-1-1-3a5.51 5.51 0 01.82-2.91 5.91 5.91 0 013.94-2.9 2.92 2.92 0 001.38.28.63.63 0 00.67-.56.69.69 0 00-.26-.78zm-7.73 4.12a6.93 6.93 0 00-.14 5.52 17.34 17.34 0 00-2 .53 11.78 11.78 0 00-3.59 2.08 7.15 7.15 0 00-1.65 2.07 21 21 0 00-.42-2.21 9.83 9.83 0 00-3.87-5.36 8.36 8.36 0 00-6.24-1.69.73.73 0 00-.54.14 14.68 14.68 0 005.08-8.69 13.37 13.37 0 00-.26-7.7 5.67 5.67 0 00-2.35-3.45 10.67 10.67 0 002.61-2.07 9.41 9.41 0 002.21-5.52 7.5 7.5 0 00-.67-4.26 6.64 6.64 0 001.91 0 14 14 0 002.77-1 8.19 8.19 0 00-.7 2.63 10.59 10.59 0 001.37 6.61 9.82 9.82 0 008.83 5.1 8.82 8.82 0 00-2.08 7.57 8.49 8.49 0 003.87 5.66 6.17 6.17 0 00-4.14 4.04zm7.73-4.12a20.17 20.17 0 01-3.58-2.07 6.15 6.15 0 01-1.93-3.59 6.09 6.09 0 01-.21-2.14 6.6 6.6 0 01.49-2.19 7.67 7.67 0 011.09-1.95 7.8 7.8 0 011.65-1.59.86.86 0 00.35-.9c0-.4-.3-.56-.77-.47a9.84 9.84 0 01-5.42-1 9 9 0 01-3.94-3.56 9.12 9.12 0 01-1.23-5.1 18.67 18.67 0 012.07-5.94c.17-.44.1-.77-.28-.95a.71.71 0 00-1 .28q-1.52 2.06-5.36 2.88c-1 .1-2 .14-2.91.14a.56.56 0 00-.4-.14c-1.65-.83-2.95-.65-3.86.56-.09.1-.09.19 0 .26s.14.09.14 0a2.71 2.71 0 013.58 1.79 6.86 6.86 0 01.14 4.82 8.4 8.4 0 01-2.21 3.45 6.18 6.18 0 01-1.51 1.26 7.8 7.8 0 00-1.38 1c-.55.28-.51.61.14 1a7 7 0 013.17 4.7 15 15 0 01-.28 6.33 18.78 18.78 0 01-2.35 5.5 13.68 13.68 0 01-2.05 3.3 9.93 9.93 0 00-2.35 1.52.12.12 0 00-.14.14 8.87 8.87 0 00-.82 1c.07.19.19.26.26.26a9.52 9.52 0 015.26-1.54 8.35 8.35 0 015.1 1.65 8.7 8.7 0 013 4.42 16.48 16.48 0 01.69 5 11.4 11.4 0 00-.14 1.38.72.72 0 00.7.6.55.55 0 00.68-.46 10.88 10.88 0 013.3-5.94 8.51 8.51 0 016.76-2.33c.46 0 .7-.25.7-.77s-.24-.74-.7-.74c-.84 0-1.14-1-1-3a5.51 5.51 0 01.82-2.91 5.91 5.91 0 013.94-2.9 2.92 2.92 0 001.38.28.63.63 0 00.67-.56.69.69 0 00-.26-.78zm-7.73 4.12a6.93 6.93 0 00-.14 5.52 17.34 17.34 0 00-2 .53 11.78 11.78 0 00-3.59 2.08 7.15 7.15 0 00-1.65 2.07 21 21 0 00-.42-2.21 9.83 9.83 0 00-3.87-5.36 8.36 8.36 0 00-6.24-1.69.73.73 0 00-.54.14 14.68 14.68 0 005.08-8.69 13.37 13.37 0 00-.26-7.7 5.67 5.67 0 00-2.35-3.45 10.67 10.67 0 002.61-2.07 9.41 9.41 0 002.21-5.52 7.5 7.5 0 00-.67-4.26 6.64 6.64 0 001.91 0 14 14 0 002.77-1 8.19 8.19 0 00-.7 2.63 10.59 10.59 0 001.37 6.61 9.82 9.82 0 008.83 5.1 8.82 8.82 0 00-2.08 7.57 8.49 8.49 0 003.87 5.66 6.17 6.17 0 00-4.14 4.04zm7.73-4.12a20.17 20.17 0 01-3.58-2.07 6.15 6.15 0 01-1.93-3.59 6.09 6.09 0 01-.21-2.14 6.6 6.6 0 01.49-2.19 7.67 7.67 0 011.09-1.95 7.8 7.8 0 011.65-1.59.86.86 0 00.35-.9c0-.4-.3-.56-.77-.47a9.84 9.84 0 01-5.42-1 9 9 0 01-3.94-3.56 9.12 9.12 0 01-1.23-5.1 18.67 18.67 0 012.07-5.94c.17-.44.1-.77-.28-.95a.71.71 0 00-1 .28q-1.52 2.06-5.36 2.88c-1 .1-2 .14-2.91.14a.56.56 0 00-.4-.14c-1.65-.83-2.95-.65-3.86.56-.09.1-.09.19 0 .26s.14.09.14 0a2.71 2.71 0 013.58 1.79 6.86 6.86 0 01.14 4.82 8.4 8.4 0 01-2.21 3.45 6.18 6.18 0 01-1.51 1.26 7.8 7.8 0 00-1.38 1c-.55.28-.51.61.14 1a7 7 0 013.17 4.7 15 15 0 01-.28 6.33 18.78 18.78 0 01-2.35 5.5 13.68 13.68 0 01-2.05 3.3 9.93 9.93 0 00-2.35 1.52.12.12 0 00-.14.14 8.87 8.87 0 00-.82 1c.07.19.19.26.26.26a9.52 9.52 0 015.26-1.54 8.35 8.35 0 015.1 1.65 8.7 8.7 0 013 4.42 16.48 16.48 0 01.69 5 11.4 11.4 0 00-.14 1.38.72.72 0 00.7.6.55.55 0 00.68-.46 10.88 10.88 0 013.3-5.94 8.51 8.51 0 016.76-2.33c.46 0 .7-.25.7-.77s-.24-.74-.7-.74c-.84 0-1.14-1-1-3a5.51 5.51 0 01.82-2.91 5.91 5.91 0 013.94-2.9 2.92 2.92 0 001.38.28.63.63 0 00.67-.56.69.69 0 00-.26-.78zm-7.73 4.12a6.93 6.93 0 00-.14 5.52 17.34 17.34 0 00-2 .53 11.78 11.78 0 00-3.59 2.08 7.15 7.15 0 00-1.65 2.07 21 21 0 00-.42-2.21 9.83 9.83 0 00-3.87-5.36 8.36 8.36 0 00-6.24-1.69.73.73 0 00-.54.14 14.68 14.68 0 005.08-8.69 13.37 13.37 0 00-.26-7.7 5.67 5.67 0 00-2.35-3.45 10.67 10.67 0 002.61-2.07 9.41 9.41 0 002.21-5.52 7.5 7.5 0 00-.67-4.26 6.64 6.64 0 001.91 0 14 14 0 002.77-1 8.19 8.19 0 00-.7 2.63 10.59 10.59 0 001.37 6.61 9.82 9.82 0 008.83 5.1 8.82 8.82 0 00-2.08 7.57 8.49 8.49 0 003.87 5.66 6.17 6.17 0 00-4.14 4.04zm7.73-4.12a20.17 20.17 0 01-3.58-2.07 6.15 6.15 0 01-1.93-3.59 6.09 6.09 0 01-.21-2.14 6.6 6.6 0 01.49-2.19 7.67 7.67 0 011.09-1.95 7.8 7.8 0 011.65-1.59.86.86 0 00.35-.9c0-.4-.3-.56-.77-.47a9.84 9.84 0 01-5.42-1 9 9 0 01-3.94-3.56 9.12 9.12 0 01-1.23-5.1 18.67 18.67 0 012.07-5.94c.17-.44.1-.77-.28-.95a.71.71 0 00-1 .28q-1.52 2.06-5.36 2.88c-1 .1-2 .14-2.91.14a.56.56 0 00-.4-.14c-1.65-.83-2.95-.65-3.86.56-.09.1-.09.19 0 .26s.14.09.14 0a2.71 2.71 0 013.58 1.79 6.86 6.86 0 01.14 4.82 8.4 8.4 0 01-2.21 3.45 6.18 6.18 0 01-1.51 1.26 7.8 7.8 0 00-1.38 1c-.55.28-.51.61.14 1a7 7 0 013.17 4.7 15 15 0 01-.28 6.33 18.78 18.78 0 01-2.35 5.5 13.68 13.68 0 01-2.05 3.3 9.93 9.93 0 00-2.35 1.52.12.12 0 00-.14.14 8.87 8.87 0 00-.82 1c.07.19.19.26.26.26a9.52 9.52 0 015.26-1.54 8.35 8.35 0 015.1 1.65 8.7 8.7 0 013 4.42 16.48 16.48 0 01.69 5 11.4 11.4 0 00-.14 1.38.72.72 0 00.7.6.55.55 0 00.68-.46 10.88 10.88 0 013.3-5.94 8.51 8.51 0 016.76-2.33c.46 0 .7-.25.7-.77s-.24-.74-.7-.74c-.84 0-1.14-1-1-3a5.51 5.51 0 01.82-2.91 5.91 5.91 0 013.94-2.9 2.92 2.92 0 001.38.28.63.63 0 00.67-.56.69.69 0 00-.26-.78zm-7.73 4.12a6.93 6.93 0 00-.14 5.52 17.34 17.34 0 00-2 .53 11.78 11.78 0 00-3.59 2.08 7.15 7.15 0 00-1.65 2.07 21 21 0 00-.42-2.21 9.83 9.83 0 00-3.87-5.36 8.36 8.36 0 00-6.24-1.69.73.73 0 00-.54.14 14.68 14.68 0 005.08-8.69 13.37 13.37 0 00-.26-7.7 5.67 5.67 0 00-2.35-3.45 10.67 10.67 0 002.61-2.07 9.41 9.41 0 002.21-5.52 7.5 7.5 0 00-.67-4.26 6.64 6.64 0 001.91 0 14 14 0 002.77-1 8.19 8.19 0 00-.7 2.63 10.59 10.59 0 001.37 6.61 9.82 9.82 0 008.83 5.1 8.82 8.82 0 00-2.08 7.57 8.49 8.49 0 003.87 5.66 6.17 6.17 0 00-4.14 4.04zm31-7.57a13.5 13.5 0 001-7.59 9.5 9.5 0 00-3.44-6.33 7.6 7.6 0 00-3.31-1.79 4.33 4.33 0 00.7-.82 10.89 10.89 0 002.14-7.57 11.82 11.82 0 00-2.61-7.59 8.85 8.85 0 00-5.39-3.44 5 5 0 00.35-3.59 5.93 5.93 0 00-2-3.17 7.74 7.74 0 00-4.68-1.51 9.44 9.44 0 00-3.31.84 7.32 7.32 0 00.7-3.73 9 9 0 00-4.56-6.61 12.74 12.74 0 00-8.03-1.93 11.73 11.73 0 00-7.64 3 9.79 9.79 0 00-5.44-2.72 10.55 10.55 0 00-6.13.7 9.81 9.81 0 00-4.14 3.51 8.8 8.8 0 00-1.66 5 5.29 5.29 0 00-1.65-1 4.4 4.4 0 00-4.26 1 5.27 5.27 0 00-2.07 4 4.42 4.42 0 00.28 2.75l.7.84a10.47 10.47 0 00-5.94 2.26 14.87 14.87 0 00-5.5 6.47 14 14 0 00-1.23 8 14.15 14.15 0 003.21 7.38c-3.59 1.65-5.57 5.66-5.94 12a9.8 9.8 0 001.79 6.61 13.9 13.9 0 005.48 4.54c-3.12 4.31-3.68 8.55-1.65 12.67a8.3 8.3 0 005 4.42c0 .07.07.12.2.12a2.79 2.79 0 01.4.07 1.45 1.45 0 00.49.07 7.5 7.5 0 00-1.23 4.82 8.74 8.74 0 003.3 6.47 7.91 7.91 0 006.75 1.79 7.2 7.2 0 004.64-2.43h.14c.1 1.93 1.33 3.56 3.71 4.89a15.72 15.72 0 006.92 2.11c2.93.16 5.14-.65 6.61-2.49a7.84 7.84 0 001.24-2.22 4.52 4.52 0 00.69 1.12 3.83 3.83 0 003.31.82 4.72 4.72 0 002.75-1.94 4.66 4.66 0 00.7-1.37 8.41 8.41 0 003.55 2.08 13.91 13.91 0 009.78-.28 8.33 8.33 0 005.5-6 8.61 8.61 0 00-.54-7 6.4 6.4 0 004.82-3.73 6.16 6.16 0 00-.14-6 4.74 4.74 0 002.33-1 6.55 6.55 0 001.79-1.99 7.65 7.65 0 001-2.21 9.07 9.07 0 00-.35-4.47 7 7 0 00-2.42-3.66 8.8 8.8 0 003.29-4.17zm-5.36 4.51a6.21 6.21 0 001 1.45 5.73 5.73 0 011 1.58 6.43 6.43 0 01.7 3.86q-.56 3.43-4.68 4.68c-.56.19-.7.52-.42 1l.42 1.26a7 7 0 01-.14 4.26 5.79 5.79 0 01-4.54 3 .57.57 0 00-.56.49.7.7 0 00.14.75c1.09 1.65 1.23 3.77.42 6.33a6.74 6.74 0 01-4.54 5 14.91 14.91 0 01-7.59.28 8.61 8.61 0 01-5.78-3.7c-.09-.19-.25-.23-.49-.14s-.3.23-.21.4a8.08 8.08 0 001.38 2.91 3.43 3.43 0 01-.82 1.09 4.85 4.85 0 01-2.35 1 2 2 0 01-1.93-.14 2.69 2.69 0 01-.4-.39c-.18-.19-.32-.28-.42-.28l-.56-.84a11.6 11.6 0 00-.18-2.55c-.1-.18-.24-.23-.4-.14s-.28.14-.28.42a4.23 4.23 0 01-2.14 4.82 8.53 8.53 0 01-5.85 1.38 10.47 10.47 0 01-5.52-2.08 9.81 9.81 0 01-3.62-4.7.48.48 0 00-.35-.14.44.44 0 00-.33.14c-.09.19-.46.42-1.11.7a4.43 4.43 0 01-1 .54 12.81 12.81 0 01-2.63.84 7.11 7.11 0 01-5.35-1.38 6.72 6.72 0 01-2.89-4.7 9 9 0 01.25-3 1.57 1.57 0 01.21-.67 1.68 1.68 0 00.21-.7 4 4 0 003.31-1.24v-.29a16.5 16.5 0 01-1.72-.13c-.77-.1-1.45-.19-2-.28a6.23 6.23 0 01-1.65-.54 7.39 7.39 0 01-3.56-3.73c-1.75-3.67-1.26-7.47 1.51-11.43.26-.37.16-.7-.28-.95a15.26 15.26 0 01-5-3.87 9.19 9.19 0 01-1.51-6.61 16.27 16.27 0 011.51-6.19 14.05 14.05 0 013.84-4.68 1.07 1.07 0 01.14-.42v-.14a1.14 1.14 0 00-.14-.56 16.62 16.62 0 01-2.46-7 13.81 13.81 0 015.59-12.57 19.38 19.38 0 013.3-1.79 4.77 4.77 0 01.89-.33c.42-.14.81-.28 1.16-.42a7.2 7.2 0 001.05-.49.57.57 0 00.21-.81 6.23 6.23 0 01-.56-3.17 3.68 3.68 0 01.81-2.77c1.21-1.37 2.87-1.37 5 0a2 2 0 01.14.56.57.57 0 00.56.28.37.37 0 00.42-.42 12.18 12.18 0 011.58-5.59 7.62 7.62 0 013.92-3.51 8.26 8.26 0 015.37-.4 9 9 0 014.64 2.86.76.76 0 00.77.35 1.08 1.08 0 00.75-.49c1.21-1.86 3.21-2.94 6.12-3.13a11.5 11.5 0 017 1.37 8.05 8.05 0 013.87 5.1 7.06 7.06 0 01-.56 4.82v.14c-.09 0-.14.1-.14.28a2 2 0 01-.67.82.38.38 0 00.07.49c.13.14.25.16.34.07.45-.38 1.05-.87 1.77-1.52 2.87-.74 5.1-.65 6.76.28a4.4 4.4 0 012.14 2.68 3 3 0 01-.91 3.1.87.87 0 00-.19 1 1 1 0 00.75.68c2.93.74 4.87 1.84 5.8 3.31a13.29 13.29 0 011.93 6.33 11.45 11.45 0 01-1.4 6.08 10.41 10.41 0 01-1.65 2.19 5.84 5.84 0 01-1.23.9 6.25 6.25 0 00-1.24.89.44.44 0 00-.07.42.34.34 0 00.35.28 5.22 5.22 0 003-1.38 5.26 5.26 0 001.23.54 12 12 0 012.35 1.65 8.27 8.27 0 012.33 5.38 14.76 14.76 0 01-.67 5.91c-.75 2.4-1.75 3.92-3 4.57-.51.15-.6.46-.32.89zm-21.49-3.16a6.15 6.15 0 01-1.93-3.59 6.09 6.09 0 01-.21-2.14 6.6 6.6 0 01.49-2.19 7.67 7.67 0 011.09-1.92 7.8 7.8 0 011.65-1.59.86.86 0 00.35-.9c0-.4-.3-.56-.77-.47a9.84 9.84 0 01-5.42-1 9 9 0 01-3.94-3.56 9.12 9.12 0 01-1.23-5.1 18.67 18.67 0 012.07-5.94c.17-.44.1-.77-.28-.95a.71.71 0 00-1 .28q-1.52 2.06-5.36 2.88c-1 .1-2 .14-2.91.14a.56.56 0 00-.4-.14c-1.65-.83-2.95-.65-3.86.56-.09.1-.09.19 0 .26s.14.09.14 0a2.71 2.71 0 013.58 1.79 6.86 6.86 0 01.14 4.82 8.4 8.4 0 01-2.21 3.45 6.18 6.18 0 01-1.51 1.26 7.8 7.8 0 00-1.38 1c-.55.28-.51.61.14 1a7 7 0 013.17 4.7 15 15 0 01-.28 6.33 18.78 18.78 0 01-2.35 5.5 13.68 13.68 0 01-2.05 3.3 9.93 9.93 0 00-2.35 1.52.12.12 0 00-.14.14 8.87 8.87 0 00-.82 1c.07.19.19.26.26.26a9.52 9.52 0 015.26-1.54 8.35 8.35 0 015.1 1.65 8.7 8.7 0 013 4.42 16.48 16.48 0 01.69 5 11.4 11.4 0 00-.14 1.38.72.72 0 00.7.6.55.55 0 00.68-.46 10.88 10.88 0 013.3-5.94 8.51 8.51 0 016.76-2.33c.46 0 .7-.25.7-.77s-.24-.74-.7-.74c-.84 0-1.14-1-1-3a5.51 5.51 0 01.82-2.91 5.91 5.91 0 013.94-2.9 2.92 2.92 0 001.38.28.63.63 0 00.67-.56.69.69 0 00-.26-.81 20.17 20.17 0 01-3.58-2.04zm-4.15 6.19a6.93 6.93 0 00-.14 5.52 17.34 17.34 0 00-2 .53 11.78 11.78 0 00-3.59 2.08 7.15 7.15 0 00-1.65 2.07 21 21 0 00-.42-2.21 9.83 9.83 0 00-3.87-5.36 8.36 8.36 0 00-6.24-1.66.73.73 0 00-.54.14 14.68 14.68 0 005.08-8.69 13.37 13.37 0 00-.26-7.7 5.67 5.67 0 00-2.35-3.45 10.67 10.67 0 002.61-2.07 9.41 9.41 0 002.21-5.52 7.5 7.5 0 00-.67-4.26 6.64 6.64 0 001.91 0 14 14 0 002.77-1 8.19 8.19 0 00-.7 2.63 10.59 10.59 0 001.37 6.61 9.82 9.82 0 008.83 5.1 8.82 8.82 0 00-2.08 7.57 8.49 8.49 0 003.87 5.66 6.17 6.17 0 00-4.14 4.04zm7.73-4.12a20.17 20.17 0 01-3.58-2.07 6.15 6.15 0 01-1.93-3.59 6.09 6.09 0 01-.21-2.14 6.6 6.6 0 01.49-2.19 7.67 7.67 0 011.09-1.92 7.8 7.8 0 011.65-1.59.86.86 0 00.35-.9c0-.4-.3-.56-.77-.47a9.84 9.84 0 01-5.42-1 9 9 0 01-3.94-3.56 9.12 9.12 0 01-1.23-5.1 18.67 18.67 0 012.07-5.94c.17-.44.1-.77-.28-.95a.71.71 0 00-1 .28q-1.52 2.06-5.36 2.88c-1 .1-2 .14-2.91.14a.56.56 0 00-.4-.14c-1.65-.83-2.95-.65-3.86.56-.09.1-.09.19 0 .26s.14.09.14 0a2.71 2.71 0 013.58 1.79 6.86 6.86 0 01.14 4.82 8.4 8.4 0 01-2.21 3.45 6.18 6.18 0 01-1.51 1.26 7.8 7.8 0 00-1.38 1c-.55.28-.51.61.14 1a7 7 0 013.17 4.7 15 15 0 01-.28 6.33 18.78 18.78 0 01-2.35 5.5 13.68 13.68 0 01-2.05 3.3 9.93 9.93 0 00-2.35 1.52.12.12 0 00-.14.14 8.87 8.87 0 00-.82 1c.07.19.19.26.26.26a9.52 9.52 0 015.26-1.54 8.35 8.35 0 015.1 1.65 8.7 8.7 0 013 4.42 16.48 16.48 0 01.69 5 11.4 11.4 0 00-.14 1.38.72.72 0 00.7.6.55.55 0 00.68-.46 10.88 10.88 0 013.3-5.94 8.51 8.51 0 016.76-2.33c.46 0 .7-.25.7-.77s-.24-.74-.7-.74c-.84 0-1.14-1-1-3a5.51 5.51 0 01.82-2.91 5.91 5.91 0 013.94-2.9 2.92 2.92 0 001.38.28.63.63 0 00.67-.56.69.69 0 00-.26-.78zm-7.73 4.12a6.93 6.93 0 00-.14 5.52 17.34 17.34 0 00-2 .53 11.78 11.78 0 00-3.59 2.08 7.15 7.15 0 00-1.65 2.07 21 21 0 00-.42-2.21 9.83 9.83 0 00-3.87-5.36 8.36 8.36 0 00-6.24-1.66.73.73 0 00-.54.14 14.68 14.68 0 005.08-8.69 13.37 13.37 0 00-.26-7.7 5.67 5.67 0 00-2.35-3.45 10.67 10.67 0 002.61-2.07 9.41 9.41 0 002.21-5.52 7.5 7.5 0 00-.67-4.26 6.64 6.64 0 001.91 0 14 14 0 002.77-1 8.19 8.19 0 00-.7 2.63 10.59 10.59 0 001.37 6.61 9.82 9.82 0 008.83 5.1 8.82 8.82 0 00-2.08 7.57 8.49 8.49 0 003.87 5.66 6.17 6.17 0 00-4.14 4.04zm7.73-4.12a20.17 20.17 0 01-3.58-2.07 6.15 6.15 0 01-1.93-3.59 6.09 6.09 0 01-.21-2.14 6.6 6.6 0 01.49-2.19 7.67 7.67 0 011.09-1.92 7.8 7.8 0 011.65-1.59.86.86 0 00.35-.9c0-.4-.3-.56-.77-.47a9.84 9.84 0 01-5.42-1 9 9 0 01-3.94-3.56 9.12 9.12 0 01-1.23-5.1 18.67 18.67 0 012.07-5.94c.17-.44.1-.77-.28-.95a.71.71 0 00-1 .28q-1.52 2.06-5.36 2.88c-1 .1-2 .14-2.91.14a.56.56 0 00-.4-.14c-1.65-.83-2.95-.65-3.86.56-.09.1-.09.19 0 .26s.14.09.14 0a2.71 2.71 0 013.58 1.79 6.86 6.86 0 01.14 4.82 8.4 8.4 0 01-2.21 3.45 6.18 6.18 0 01-1.51 1.26 7.8 7.8 0 00-1.38 1c-.55.28-.51.61.14 1a7 7 0 013.17 4.7 15 15 0 01-.28 6.33 18.78 18.78 0 01-2.35 5.5 13.68 13.68 0 01-2.05 3.3 9.93 9.93 0 00-2.35 1.52.12.12 0 00-.14.14 8.87 8.87 0 00-.82 1c.07.19.19.26.26.26a9.52 9.52 0 015.26-1.54 8.35 8.35 0 015.1 1.65 8.7 8.7 0 013 4.42 16.48 16.48 0 01.69 5 11.4 11.4 0 00-.14 1.38.72.72 0 00.7.6.55.55 0 00.68-.46 10.88 10.88 0 013.3-5.94 8.51 8.51 0 016.76-2.33c.46 0 .7-.25.7-.77s-.24-.74-.7-.74c-.84 0-1.14-1-1-3a5.51 5.51 0 01.82-2.91 5.91 5.91 0 013.94-2.9 2.92 2.92 0 001.38.28.63.63 0 00.67-.56.69.69 0 00-.26-.78zm-7.73 4.12a6.93 6.93 0 00-.14 5.52 17.34 17.34 0 00-2 .53 11.78 11.78 0 00-3.59 2.08 7.15 7.15 0 00-1.65 2.07 21 21 0 00-.42-2.21 9.83 9.83 0 00-3.87-5.36 8.36 8.36 0 00-6.24-1.66.73.73 0 00-.54.14 14.68 14.68 0 005.08-8.69 13.37 13.37 0 00-.26-7.7 5.67 5.67 0 00-2.35-3.45 10.67 10.67 0 002.61-2.07 9.41 9.41 0 002.21-5.52 7.5 7.5 0 00-.67-4.26 6.64 6.64 0 001.91 0 14 14 0 002.77-1 8.19 8.19 0 00-.7 2.63 10.59 10.59 0 001.37 6.61 9.82 9.82 0 008.83 5.1 8.82 8.82 0 00-2.08 7.57 8.49 8.49 0 003.87 5.66 6.17 6.17 0 00-4.14 4.04zM364.26495 81.54285a.39.39 0 00.28-.14l.28-.28a6.13 6.13 0 001.51-1.79c1.09-1.93 1.19-3.63.26-5.1a4.54 4.54 0 00-4.12-2.21 6 6 0 00-4.55 2 7.87 7.87 0 00-.55.84 6.25 6.25 0 00-2.61-3.31 10.41 10.41 0 00-5.94-1.09 12.34 12.34 0 00-8.41 5.22 6.72 6.72 0 00-6.61-3.66 5.89 5.89 0 00-4.54 2.47 1 1 0 00-.14-.42 4.05 4.05 0 00-1.51-1.51 3.6 3.6 0 00-1.61-.54 6.58 6.58 0 002-3.7 7.7 7.7 0 00-2-7.71 7.3 7.3 0 002.88-5.66 6.77 6.77 0 00-2.74-5.49c3.3-2.59 4.82-5.8 4.54-9.66a10.74 10.74 0 00-1.8-5.64 7.73 7.73 0 00-3-3 11.85 11.85 0 002.84-5.51 15 15 0 00.18-6.2 13.06 13.06 0 00-3.56-6.75c-1.84-1.93-3.63-2.79-5.38-2.61a2.39 2.39 0 00.14-.56 4.7 4.7 0 00.28-1.79 6.92 6.92 0 00-.56-3.31 5.83 5.83 0 00-5.3-3.75 9.22 9.22 0 00-5.38 1.19 7.54 7.54 0 00-3.7 3.77 5.22 5.22 0 00-4.54-1.38 7 7 0 00-5.9 3.59 6.91 6.91 0 00-.81 6.75 6.55 6.55 0 001.91 2.89 22 22 0 002.07 1.09 6.08 6.08 0 00-1.37 6.34 5.87 5.87 0 002.61 3.58 4.72 4.72 0 00-3.17 3.73 4.94 4.94 0 002.03 4.79 10.36 10.36 0 00-4.68 8.68q0 5 4.68 8.8c-2.65 4.61-3.58 8.74-2.75 12.41a20.65 20.65 0 005.24 9.92 6.8 6.8 0 00-2.63 4.26 5.77 5.77 0 002.21 5.52 8.86 8.86 0 00-1.34 1.69 6.52 6.52 0 00-1.12 5.49 5.7 5.7 0 002.91 4.43 5.56 5.56 0 006.06.25 6.43 6.43 0 002.15-2.19 4.74 4.74 0 003.3 3.24 12.17 12.17 0 005.5.74 13 13 0 006.61-2.32 13.45 13.45 0 002.75-2.75 6.39 6.39 0 001.58 3.37 4.41 4.41 0 003.38 1.45 4.77 4.77 0 003.19-1.19 6.05 6.05 0 001.91-3 11.15 11.15 0 002.91 2.75 15.28 15.28 0 008.12 2.49 16.34 16.34 0 008.39-1.79 5.64 5.64 0 003.05-5.1 6.87 6.87 0 003.84-1.65 8 8 0 003.17-5.24 5.75 5.75 0 00-1.8-5.36 1.74 1.74 0 00-.64-.38zm.28 5.64a5.64 5.64 0 01-1.66 3.17c-1.56 1.58-2.91 2.21-4 1.93a.79.79 0 00-1 .35 1.13 1.13 0 00-.14.91c.47.9 0 2-1.37 3.16a12.73 12.73 0 01-3 1.38 16.36 16.36 0 01-6.28.67 15 15 0 01-6-1.79 11.47 11.47 0 01-3.72-3.7v-.42c0-.28-.14-.38-.4-.28q-.69-.42-.84.42a.92.92 0 01.14.42 19.26 19.26 0 01-1.37 2.6 4.75 4.75 0 01-2.63 1.52c-1.91.18-3.17-1.52-3.7-5.1-.1-.37-.31-.51-.63-.47a.69.69 0 00-.63.47 7.22 7.22 0 01-3.24 4.14 13 13 0 01-5.28 2 14.26 14.26 0 01-5.87-.39 4.73 4.73 0 01-3.52-3.31 1.72 1.72 0 000-1.37h-.14a1.86 1.86 0 01-.25.53c-.1 0-.14.09-.14.28l-.7.84a4.91 4.91 0 01-1.51 1.37 4.47 4.47 0 01-4.26 0 4.4 4.4 0 01-2.29-3 5.31 5.31 0 01.49-3.87 24.7 24.7 0 013-3.86c.09-.1.12-.19.07-.28a.41.41 0 00-.35-.12 5 5 0 00-1.65.4 4.4 4.4 0 01-1.1-4.2 5 5 0 012.75-3.51.86.86 0 00.63-.84.92.92 0 00-.35-.95c-3.77-3.13-5.8-6.34-6-9.64q-.71-5.1 3.42-11.86c.37-.62.18-1.18-.54-1.65-3.12-2-4.68-4.49-4.68-7.43a8.22 8.22 0 015-7.84.81.81 0 00.54-1 1.27 1.27 0 00-.82-1 3.16 3.16 0 01-2.28-3.44 3.87 3.87 0 012.66-3.4 4 4 0 001.24-.14c.18 0 .23-.14.14-.42a16.59 16.59 0 00-1.19-1.3c-.49-.51-.93-1-1.31-1.44a5.52 5.52 0 01-.81-1.38c-.47-1.65 0-3.54 1.37-5.66a.64.64 0 000-.6.84.84 0 00-.56-.49c-1.28-.28-2.37-1.42-3.3-3.45a5.67 5.67 0 01.14-4.68 5.57 5.57 0 013.79-2.95 5.94 5.94 0 014.61.6v1.16c0 .19.12.28.35.32s.35 0 .35-.18a7.8 7.8 0 013.28-4.57 6.64 6.64 0 015.28-1.23 4.42 4.42 0 013.45 3.31 10 10 0 01.27 2.49c0 .09 0 .46.14 1.16s.09 1.07 0 1.17a1.49 1.49 0 00.21.77c.14.23.3.3.49.2 1.81-.27 3.61.82 5.35 3.31a13.57 13.57 0 012.49 5.64 12.83 12.83 0 01-.69 6.05 23 23 0 01-3.17 5.24.55.55 0 00.07.77c.23.23.44.25.63.07.35-.19.81-.47 1.37-.84a6.71 6.71 0 01.82 1c.28.35.74 1 1.39 2.05a9.45 9.45 0 011.38 4.82 10.13 10.13 0 01-1.05 5 9.15 9.15 0 01-3.24 3.86c-.72.56-.72 1 0 1.51a5.56 5.56 0 012.63 4.82 5 5 0 01-2.63 4.82c-.63.38-.67.84-.14 1.38a7.73 7.73 0 012.08 7 14.2 14.2 0 01-1.38 3.17 7.62 7.62 0 01-1.37 1.3 12.42 12.42 0 00-1.24 1.05c-.09.18-.07.28.14.28a2.66 2.66 0 001.91-.7l.14.14h1.12a5 5 0 01.68.28h.27v.14a.25.25 0 01.21.07.33.33 0 00.21.07v.11l.14.14c.17.1.26.19.26.28h.14a.12.12 0 00.14.14 1.17 1.17 0 01.14.42l.14.14v.14a1.05 1.05 0 01.14.4v.42a.53.53 0 00.14.41 9.18 9.18 0 00-.7 2.33q-.13.28.21.42a.33.33 0 00.49-.14c.18-.28.63-1 1.37-2a.78.78 0 00.28-.56 4.84 4.84 0 013.87-2.49 4.92 4.92 0 013.56 1.12 7 7 0 012.21 3.31 1 1 0 001 .67 1 1 0 001-.67 9.32 9.32 0 017.15-5.8 7.36 7.36 0 014.56.56 7.19 7.19 0 013.31 3.44l.14.14a4.32 4.32 0 00-.14 1.94.41.41 0 00.4.25c.18 0 .28-.09.28-.25a7.94 7.94 0 011.65-3.17 5.23 5.23 0 013-1.79 2.63 2.63 0 012.77 1.09 2.82 2.82 0 01.14 3 5.07 5.07 0 01-1.12 1.65 5.56 5.56 0 01-.68.42 3.81 3.81 0 00-.35.42l-.34.4a3 3 0 00-2.22.27.39.39 0 00-.25.56.5.5 0 00.53.42 4.09 4.09 0 013.45 1.52 4.15 4.15 0 01.91 3.51zM437.25495 14.32285c-.18-.09-.51-.23-.95-.42a.63.63 0 00.35-.14.64.64 0 01.32-.14 9.5 9.5 0 002.77-1.91 4.16 4.16 0 00.75-3 4.51 4.51 0 00-1.3-2.69 6.72 6.72 0 00-4.89-1.59 6.83 6.83 0 00-4.89 1.87v-.28a5.39 5.39 0 00-1.24-2 5.54 5.54 0 00-4.54-2 6.28 6.28 0 00-4.14 1.44 4.76 4.76 0 00-1.93 3.49 7.66 7.66 0 00-4.68 1 7.16 7.16 0 00-3.17 3.45 7.12 7.12 0 00.14 5.37 3.5 3.5 0 01.42.68 6.28 6.28 0 00-3.59 1.93 8.43 8.43 0 00-2.75 5.92 7.6 7.6 0 002.19 5.93 15.1 15.1 0 001.94 1.66 13.46 13.46 0 00-1.38.39 11.53 11.53 0 00-4 2.77 15.34 15.34 0 00-1.24 1.52 7.52 7.52 0 00-1.37-2.89 7.8 7.8 0 00-4.15-3.17 5.62 5.62 0 000-6.35 5.67 5.67 0 00-4.68-2.89 5.82 5.82 0 00.7-2.47 9.13 9.13 0 00-1.09-4.28c-1.4-2.19-3-3.5-4.82-3.84a9.39 9.39 0 001.23-1.94 6.09 6.09 0 00.14-3.44 6.51 6.51 0 00-3.72-4.82 9.24 9.24 0 00-6-.56q-3.53.69-4.75 3.16a1.91 1.91 0 01-.42-.27 5.47 5.47 0 00-4.42-.4 5.91 5.91 0 00-2.33 1.09 2.51 2.51 0 00-.14-.56 6 6 0 00-1.79-2.18 4.62 4.62 0 00-5.64 0 5.15 5.15 0 00-2.63 5 4.53 4.53 0 002.35 4 5.64 5.64 0 00-2.35 4 8.2 8.2 0 001.38 6.2 7.59 7.59 0 003.86 2.95 7 7 0 004.68.21.25.25 0 00-.28.28 11.38 11.38 0 00-.95 3.73 12.94 12.94 0 001.09 7.56 10.75 10.75 0 004.22 4.27 9.33 9.33 0 005.7 1.39 5.28 5.28 0 00.56 6.62 5.11 5.11 0 003.7 1.9 1.87 1.87 0 00.84-.14 6.49 6.49 0 00-.28 5.24 6.2 6.2 0 002.21 3 9.7 9.7 0 001.8 1 3.52 3.52 0 001.09.14 6.12 6.12 0 00-3.18 5.62 7 7 0 001 3.38 6.47 6.47 0 002.49 2.56 7.45 7.45 0 00-1 .82 8.67 8.67 0 00-2.75 5.77q-.42 5.79 5.66 8.82a6.28 6.28 0 00-2.7 6 8.17 8.17 0 003 6.29 5.53 5.53 0 003.7.88 9.49 9.49 0 003.73-1.16 6.51 6.51 0 001.79-1.66 10 10 0 00.68 1.52 5.28 5.28 0 004.42 2.74 5.08 5.08 0 005.1-2.07 7.29 7.29 0 00.82-5.91c-.1-.28-.28-.75-.56-1.38a5.19 5.19 0 002.07-.7 8.31 8.31 0 004.68-5.49 12 12 0 00.14-7.87 6.19 6.19 0 00-2.75-3.84 8.71 8.71 0 002.82-4.15 11 11 0 00.49-5.35 11.32 11.32 0 00-3.17-7.17.38.38 0 01.28-.14 2.88 2.88 0 002.19-1.1 3.58 3.58 0 001.12-2.63 1 1 0 00-.14-.39.83.83 0 01.49.14 2.72 2.72 0 00.46.25 1.17 1.17 0 00.42.14 7.93 7.93 0 007.17-.67 7.7 7.7 0 003.7-4.54 7.8 7.8 0 00-.39-5.94 6.44 6.44 0 003.63-2.21 8.14 8.14 0 002-4 5 5 0 00-1.09-4.54h-.14a11.13 11.13 0 002.75-.83 12.89 12.89 0 005-4.41 9.89 9.89 0 001.23-6.47 6.23 6.23 0 00-3.09-5.1zm1 7.71a6.83 6.83 0 01-1.12 3.31 13.42 13.42 0 01-2.32 2.35 8.42 8.42 0 01-6.62 1.93c-.09 0-.18.07-.28.19a.26.26 0 000 .35.44.44 0 00.14.28l.35.34a3.84 3.84 0 00.4.35 3.17 3.17 0 00.49.28 2.11 2.11 0 01.49.33c.14.14.25.26.35.35a4.81 4.81 0 01.39 3.44 9.74 9.74 0 01-1.93 3.31 3.14 3.14 0 01-3 1.37.91.91 0 00-1 .35.74.74 0 000 1 5.64 5.64 0 011.09 4.75 6.29 6.29 0 01-2.89 4.07 7.59 7.59 0 01-5.44 1 7.35 7.35 0 01-4.75-2.54h-.28a3.57 3.57 0 001.25 2.47v1.71l-.14.28v.14a1 1 0 01-.14.42v.16l-.14.14v.14c-.09 0-.14 0-.14.11l-.27.28a.22.22 0 01-.14.21.22.22 0 00-.14.21h-.14l-.14.14a3.5 3.5 0 01-.68.28 2.23 2.23 0 01-.95.28 5.6 5.6 0 00-3.31-.84c-.09 0-.14 0-.14.07s0 .07.14.07a6.14 6.14 0 013.84 3.45 16.25 16.25 0 011.66 5.91 9.83 9.83 0 01-3.85 8.83.45.45 0 00-.14.7.8.8 0 00.68.39 2.19 2.19 0 011.93.42 9.85 9.85 0 01.82 3 12.35 12.35 0 010 5.8 9.76 9.76 0 01-2.61 4.68 4.56 4.56 0 01-2.21 1.23h-1.91c-.19 0-.28-.05-.28-.14h-1.38q-.27 0-.27.21c0 .14 0 .21.13.21a.12.12 0 01.14.14 3 3 0 001.21 1.08 8.12 8.12 0 011 1.66 6.38 6.38 0 01-.39 4.26 2.8 2.8 0 01-2.91 1.79 4.38 4.38 0 01-3.45-1.37 4.3 4.3 0 01-1.25-2.73 4 4 0 00.14-.84 3.4 3.4 0 00-.14-.88 2.79 2.79 0 01-.14-.63c0-.19-.07-.28-.21-.28s-.24.09-.33.28a5.62 5.62 0 01-.91 1.93 6.05 6.05 0 01-2 2.21 5.65 5.65 0 01-3 1 4.36 4.36 0 01-2.88-.89 6.51 6.51 0 01-1.94-5.24 7.66 7.66 0 012.5-5c.44-.37.39-.69-.14-1a6 6 0 01-2.71-1.65 7.47 7.47 0 01-1.65-2.84 11.69 11.69 0 01-.46-3.24 9 9 0 011.65-4.4 10.72 10.72 0 011.93-1.79c.16-.1.54-.28 1.1-.56a9.31 9.31 0 001.23-.68q.28-.14 0-.42a3 3 0 00-2.21-.28 19.91 19.91 0 01-1.66-1.37 11.16 11.16 0 01-1-1.37 4.58 4.58 0 01-.74-2.08q-.15-2.47 2.88-5.24c.28-.18.35-.37.21-.6a.69.69 0 00-.63-.35 1.48 1.48 0 01-.88-.35c-.33-.23-1-.7-1.86-1.44a6.05 6.05 0 01-1.94-2.47c-.65-1.4-.65-3.21 0-5.52a3.79 3.79 0 001-1.23.18.18 0 000-.28c-.1-.1-.23-.1-.4 0a3.94 3.94 0 01-3.3.56 5.13 5.13 0 01-2.08-1.4 3.73 3.73 0 01-1-3 4.89 4.89 0 011.25-3c.28-.18.31-.44.14-.76a.69.69 0 00-.84-.33 11.1 11.1 0 01-3.3-.7 18.49 18.49 0 01-2.61-.81 9.18 9.18 0 01-3.73-3.73 10.85 10.85 0 01-.95-5.8 11.65 11.65 0 011.37-5.91 2.3 2.3 0 01.4-.28.48.48 0 000-.49c-.07-.12-.16-.14-.26-.05a9.33 9.33 0 01-4.68.47 6 6 0 01-5.38-6.54 4.65 4.65 0 011.94-3.85.76.76 0 00.46-.83.75.75 0 00-.6-.7c-.84-.16-1.38-1.24-1.66-3.17a3.89 3.89 0 011.52-3.17 2.89 2.89 0 013.16-.27 4 4 0 011.94 2.07 4.48 4.48 0 00-.6 4.06c.09.28.18.28.28 0a5.79 5.79 0 01.67-2.07 5.48 5.48 0 011.54-1.65 4.72 4.72 0 012-.82 4.28 4.28 0 012.89.4 3.37 3.37 0 011.11 1 7.45 7.45 0 011 1.37c.28.09.46 0 .56-.14a3.5 3.5 0 000-1.93 7.15 7.15 0 00-.28-.68 7.12 7.12 0 014.23-2.23 7.06 7.06 0 014.63.7 4.44 4.44 0 012.47 3 5.71 5.71 0 01-.81 5.49.56.56 0 00.39 1 4.19 4.19 0 012.49 1.37 9.76 9.76 0 011.94 2.75 6.61 6.61 0 01.53 2.77 10.62 10.62 0 01-.14 1.31 8.59 8.59 0 00-.12 1.16q-.13.29 0 .42a.45.45 0 00.33.42.77.77 0 00.63 0c.09 0 .23-.1.42-.28a5.31 5.31 0 013.7 3.16 5.83 5.83 0 01.42 2.89 13.25 13.25 0 01-.56 1.59c-.26.69-.44 1.11-.53 1.3a.62.62 0 00.14.7.76.76 0 00.53.28q2.47.27 4.42 3.16a13.39 13.39 0 011.1 2.19 1.64 1.64 0 00.07.42.92.92 0 00.21.42.57.57 0 01.14.42.67.67 0 01-.14.33.69.69 0 00-.14.35 6.53 6.53 0 00-.42 2.35v1.1a2.39 2.39 0 00.14.7 2.31 2.31 0 01.14.54c0 .09.07.13.21.13s.21 0 .21-.13l.28-.54a1.17 1.17 0 00.14-.42 5.68 5.68 0 00.39-1 9.3 9.3 0 011-1.8 11.25 11.25 0 012.05-3.44 9.66 9.66 0 012.84-2.54 16.8 16.8 0 012-1.1 6 6 0 001.26-.28h1.37c.09 0 .14-.07.14-.21a.42.42 0 00-.14-.32 3 3 0 00-1.12-.56h-.39a4.15 4.15 0 01-.84-.7l-1.65-1.37a6.45 6.45 0 01-1.66-4.55 7 7 0 011.8-4.68 9.11 9.11 0 013.44-2.49 5.68 5.68 0 002.07 1.12q.15.13.21 0a.58.58 0 00.07-.28 7.54 7.54 0 01-1.88-3.58 5.11 5.11 0 010-3.73 5.35 5.35 0 012.61-2.82 6.28 6.28 0 013.86-.77c.63.19 1 0 1-.67a4.3 4.3 0 01.63-2.28 3.74 3.74 0 011.72-1.52 4.44 4.44 0 012.19-.35 3.88 3.88 0 013.19 1.38c1 1.49 1.42 2.49 1.23 3.05a.46.46 0 00.21.6.44.44 0 00.61-.07 6.5 6.5 0 013.58-2.46c2.12-.66 3.78-.42 5 .67s1.24 2.4.14 4.15a19.76 19.76 0 01-1.23 1.79 4 4 0 01-1.26.67 1.52 1.52 0 01-.39-.07 2.54 2.54 0 00-.42-.07c-1.19 0-1.94.33-2.22 1v.14a2.58 2.58 0 001.19.35c.49.05.89.07 1.17.07a5.89 5.89 0 012.32 1.24c1.32 1.12 1.76 3.06 1.32 5.7z"/>
  </g>
 </g>
</svg>
