<?xml version="1.0" encoding="UTF-8"?>
<svg version="1.1" viewBox="0 0 543.96 198.12" xmlns="http://www.w3.org/2000/svg" xmlns:cc="http://creativecommons.org/ns#" xmlns:dc="http://purl.org/dc/elements/1.1/" xmlns:rdf="http://www.w3.org/1999/02/22-rdf-syntax-ns#">
 <metadata>
  <rdf:RDF>
   <cc:Work rdf:about="">
    <dc:format>image/svg+xml</dc:format>
    <dc:type rdf:resource="http://purl.org/dc/dcmitype/StillImage"/>
    <dc:title/>
   </cc:Work>
  </rdf:RDF>
 </metadata>
 <defs>
  <style>.cls-1{fill:#fff;stroke-miterlimit:10}.cls-1,.cls-2{stroke:#000}</style>
 </defs>
 <g data-name="Layer 2">
  <g data-name="Layer 1">
   <path class="cls-1" d="M147.82486 146.9991a4.05 4.05 0 01-.71.44 3.23 3.23 0 012.35 2.12 5.23 5.23 0 01-3.78 6.62 6.56 6.56 0 01-3.39-.18 9 9 0 01.48 1.77 10.09 10.09 0 01-.37 4.57c-1.29 3.69-3.62 6-7 6.92a8.31 8.31 0 01-4.8-.26 8.62 8.62 0 01-4-2.81 11.12 11.12 0 01-2.19-4.94 7.58 7.58 0 01-1.7 1.09 7 7 0 01-6.6-.12c-4.06-1.73-6.22-5-6.5-10a9.87 9.87 0 01-5.6-.53l.32.37a14.25 14.25 0 011.75 4.68 8.13 8.13 0 01-1 6 7.69 7.69 0 013.23 1.13 11.63 11.63 0 014.61 6.13 8 8 0 01-.48 6.66 4.65 4.65 0 01-2.84 2.56l.79.63a8.93 8.93 0 011.45 1.38 7.24 7.24 0 012.17 3.39q.51 3.32-2.35 6.57a7.79 7.79 0 01-5.63 2.93 8.76 8.76 0 01-6.09-1.8 8.58 8.58 0 01-5.49 4.71 9.54 9.54 0 01-7.42-.46 11.22 11.22 0 01-4.66-4.32 8.9 8.9 0 01-1.5-6 1.64 1.64 0 01-1 .42 6 6 0 01-5.83-.78 7.53 7.53 0 01-3.14-5 1 1 0 00-.07-.6c-1.41 1.11-2.93 1.07-4.59-.13a4.19 4.19 0 01-1.66-4.09 12.28 12.28 0 01-6.57.77 15.38 15.38 0 01-6.27-2.17 13.61 13.61 0 01-5.17-7 14.65 14.65 0 01-.81-4.61 6.33 6.33 0 01-2.53 1.38 8.3 8.3 0 01-6.18-.92 9.75 9.75 0 01-4.06-4.52 7.66 7.66 0 01-.78-2.88.37.37 0 01-.09-.35v-.48a4.37 4.37 0 01-1.45.88 4.09 4.09 0 01-3.86-.58 4.69 4.69 0 01-2.07-3 9.24 9.24 0 01-3 1.13 10.93 10.93 0 01-7.33-1.46 13 13 0 01-5.74-6.26 9 9 0 01-1-5.58.37.37 0 01-.25.09.29.29 0 00-.23.12 6.5 6.5 0 01-1.53-.21 13.81 13.81 0 01-2.38-1.42 7.74 7.74 0 01-2.59-4.1 6 6 0 011-5.11 7.9 7.9 0 015.14-3.74 5.7 5.7 0 013-.18 1.45 1.45 0 00.69.27v-1.17a10.93 10.93 0 013.27-6 7.61 7.61 0 015.79-3 6.75 6.75 0 015.63 2.56 8.73 8.73 0 011.61 3 8.23 8.23 0 01.14 1.4 9.57 9.57 0 014.82-2.07 11.84 11.84 0 017.86.53 11.17 11.17 0 016.07 5.28 9.68 9.68 0 011 4.4 7.26 7.26 0 011-.41 4.87 4.87 0 015.35 1 5.5 5.5 0 012.24 4.24 3.69 3.69 0 011.34-.53 11.1 11.1 0 013.32-.5 12 12 0 016.6 1.63 10.74 10.74 0 015.71 9.37 12.15 12.15 0 014-1.32 8 8 0 01-1.6-3.55 9.73 9.73 0 01.58-6.32 7.46 7.46 0 01-7-3.55 7.59 7.59 0 01-1.26-2.13 8.34 8.34 0 01.09-5.88 9.75 9.75 0 013.9-4.85 7.54 7.54 0 016.2-1.77 10.9 10.9 0 012.31 1.06 5.82 5.82 0 011.91-2.84 6.11 6.11 0 015.35-1.22 7.57 7.57 0 014.8 2.84 9.1 9.1 0 011.71 4.66 6.3 6.3 0 013.2-.19l.1.14a10.76 10.76 0 01-1.41-4.08 8.39 8.39 0 01.76-5.6l1.32-2.27a5.06 5.06 0 01.48-.43 8.53 8.53 0 01-3.72-1.41 12.47 12.47 0 01-4.63-5.16 12.7 12.7 0 01-1.37-6.81 9.53 9.53 0 01.87-3.25v-.23l.13-.11a10.06 10.06 0 01.53-1.39 4.66 4.66 0 01-2.07-.34 13 13 0 01-3-1.57 11.3 11.3 0 01-3.69-5.84 13 13 0 01.1-6 7.59 7.59 0 013-4.77 11.89 11.89 0 01-3-2.4c-2.19-2.63-2.72-5.38-1.54-8.21a8.36 8.36 0 016.67-5.39 6.21 6.21 0 013.85.81 5.68 5.68 0 011.56 1.27.6.6 0 01.21.46 9.46 9.46 0 014.13-6.6c2.93-1.87 6.25-1.89 10 0a11.75 11.75 0 016.66 9.37 13.89 13.89 0 01-.51 5.14 5.86 5.86 0 01-.55 1.38 5.27 5.27 0 014.59 2.36 6.29 6.29 0 011.13 3v1.52a.29.29 0 00-.14.23.35.35 0 01-.11.23 10.44 10.44 0 016.43 2.7 11.92 11.92 0 014.75 6.98 7.87 7.87 0 01-2.28 7.4 11.37 11.37 0 01-1.84 1.43 4.84 4.84 0 011.86 1.63 8.09 8.09 0 01.67 2.74 3.13 3.13 0 01-.07 1.18 9.66 9.66 0 015.9 4.08 11.47 11.47 0 011.82 7.27 12.69 12.69 0 01-2.51 5.39 9.71 9.71 0 017.36 7.45c.62 2.86.5 5.21-.4 7a5.78 5.78 0 011.09-.3 6.49 6.49 0 013.62.33 11 11 0 015.9 4.08 10.72 10.72 0 012.22 6.71 7.65 7.65 0 01-.9 3.48 12 12 0 01-2.61 2.59zM244.12486 73.7691a8.63 8.63 0 00-4.06-3.37 10.82 10.82 0 002.36-5.92 16.41 16.41 0 00-1.53-9.07 11.41 11.41 0 00-6.2-6.11 8.6 8.6 0 00-4.43-.9 5 5 0 00.51-1.2 13.1 13.1 0 00-.11-9.52 14.24 14.24 0 00-5.67-7.82 10.64 10.64 0 00-7.4-2.1 6 6 0 00-.85-4.24 7 7 0 00-3.42-2.95 9.29 9.29 0 00-5.92-.12 11.72 11.72 0 00-3.53 2.13 8.52 8.52 0 00-.51-4.55 10.88 10.88 0 00-7.54-6 15.56 15.56 0 00-10 .6 14 14 0 00-7.75 6.18 12 12 0 00-7.24-1.29 12.93 12.93 0 00-6.84 2.91 11.74 11.74 0 00-3.55 5.49 10.67 10.67 0 00-.14 6.39 6 6 0 00-2.26-.53 5.34 5.34 0 00-4.59 2.6 6.27 6.27 0 00-1 5.33 5.63 5.63 0 001.27 3.09l1.08.69a12.67 12.67 0 00-6 4.64 17.75 17.75 0 00-4.1 9.38 16.8 16.8 0 001.36 9.64 17.15 17.15 0 006.27 7.47c-3.55 3.16-4.45 8.47-2.65 15.92a11.86 11.86 0 004.38 7 16.76 16.76 0 008 3.32q-3.15 9.1 2.51 15.2a10.1 10.1 0 007.26 3.35c0 .11.14.13.3.09a1.57 1.57 0 01.49-.07 1.79 1.79 0 00.58-.09 9.15 9.15 0 00.25 6 10.62 10.62 0 006.09 6.32 9.51 9.51 0 008.41-.3 8.93 8.93 0 004.55-4.5h.14c.78 2.19 2.79 3.64 6 4.33a18.67 18.67 0 008.67 0c3.46-.81 5.72-2.54 6.78-5.17a10.54 10.54 0 00.65-3 6.74 6.74 0 001.18 1 4.69 4.69 0 004.1-.21 6 6 0 002.52-3.18 5.5 5.5 0 00.29-1.85 10.18 10.18 0 004.87 1.13 16.72 16.72 0 0011.19-3.73q4.27-3 4.24-8.93a8.92 8.92 0 00-1-4.91 8.3 8.3 0 00-2.14-3 7.56 7.56 0 004.26-6q.55-4.5-2.28-6.94a5.75 5.75 0 002.37-1.94 8.53 8.53 0 001.39-2.84 9.17 9.17 0 00.34-2.88 11 11 0 00-1.95-4.97zm-33 16.7a17.83 17.83 0 00-2.19 1.36 13.79 13.79 0 00-3.41 3.64 8.5 8.5 0 00-1.18 3 26.17 26.17 0 00-1.25-2.4 12 12 0 00-6.34-4.84 10.23 10.23 0 00-7.72.26 1.66 1.66 0 00-.51.27 18 18 0 002.75-11.76 16.47 16.47 0 00-3-8.81 7 7 0 00-3.9-3.14 12.76 12.76 0 002.28-3.3 11.38 11.38 0 00.63-7.12 9 9 0 00-2.29-4.63 8.73 8.73 0 002.22-.7 15 15 0 002.78-2.12 9.75 9.75 0 00.14 3.27 12.67 12.67 0 003.9 7.13 11.78 11.78 0 0011.96 2.81 10.62 10.62 0 00.28 9.46 10.19 10.19 0 006.42 5.15 7.49 7.49 0 00-3.37 6 8.19 8.19 0 001.78 6.47zM348.31486 70.9991a16.56 16.56 0 001.92-9 11.53 11.53 0 00-3.53-8 8.76 8.76 0 00-3.78-2.46 4.88 4.88 0 00.89-.93 12.86 12.86 0 003.39-8.87 14.13 14.13 0 00-2.39-9.37 10.74 10.74 0 00-6.11-4.68 5.93 5.93 0 00.76-4.26 7 7 0 00-2.08-4 9.24 9.24 0 00-5.49-2.29 11.56 11.56 0 00-4 .67 8.62 8.62 0 001.1-4.41 10.86 10.86 0 00-4.75-8.4 15.51 15.51 0 00-9.5-3.11 14 14 0 00-9.48 2.91 11.8 11.8 0 00-6.27-3.86 12.74 12.74 0 00-7.42.24 11.66 11.66 0 00-5.3 3.8 10.59 10.59 0 00-2.5 5.88 6.46 6.46 0 00-1.89-1.34 5.4 5.4 0 00-5.23.74 6.38 6.38 0 00-2.86 4.61 5.58 5.58 0 000 3.32l.76 1.07a12.93 12.93 0 00-7.34 2.07 18.06 18.06 0 00-7.22 7.24 16.7 16.7 0 00-2.28 9.48 17.25 17.25 0 003.09 9.25c-4.48 1.63-7.24 6.22-8.31 13.81a11.93 11.93 0 001.5 8.12 17.17 17.17 0 006.18 6q-6.26 7.34-3.23 15.06a10 10 0 005.52 5.79c0 .12.07.18.23.18a4.54 4.54 0 01.5.12 1.44 1.44 0 00.56.14 9.08 9.08 0 00-2 5.67 10.55 10.55 0 003.34 8.1 9.5 9.5 0 007.93 2.81 7.55 7.55 0 004.09-1.15 6.87 6.87 0 001.77-1.36h.19c-.1 2.33 1.24 4.4 4 6.23a18.85 18.85 0 008.07 3.25c3.51.5 6.25-.28 8.19-2.33a10.13 10.13 0 001.71-2.52 4.86 4.86 0 00.71 1.39 4.58 4.58 0 003.9 1.31 5.77 5.77 0 003.5-2.05 5.65 5.65 0 00.95-1.57 10.5 10.5 0 004.1 2.81 16.66 16.66 0 0011.79.65c3.39-.83 5.81-3.09 7.22-6.73a9 9 0 00.9-4.94 7.94 7.94 0 00-.88-3.57 7.66 7.66 0 006.16-4c1.45-2.65 1.59-5.1.44-7.29a5.82 5.82 0 002.9-.92 8.6 8.6 0 002.33-2.15 9.57 9.57 0 001.38-2.56 10.66 10.66 0 000-5.42 8.44 8.44 0 00-2.54-4.61 10.94 10.94 0 004.41-4.57zm-38 6a8.18 8.18 0 00-.71 6.62 17 17 0 00-2.52.44 14.2 14.2 0 00-4.52 2.14 8.92 8.92 0 00-2.19 2.33 16.49 16.49 0 00-.28-2.7 11.7 11.7 0 00-4.1-6.83 10.27 10.27 0 00-7.29-2.61 1.08 1.08 0 00-.67.11 17.67 17.67 0 007-9.93 16.17 16.17 0 00.44-9.3 7 7 0 00-2.48-4.35 13.08 13.08 0 003.34-2.21 11.54 11.54 0 003.19-6.41 9.15 9.15 0 00-.4-5.19 8.58 8.58 0 002.31.18 17.4 17.4 0 003.41-.89 9.47 9.47 0 00-1.08 3.09 12.61 12.61 0 001 8.07 11.8 11.8 0 0010.1 7 10.56 10.56 0 00-3.23 8.91 10.08 10.08 0 004.08 7.17 7.44 7.44 0 00-5.38 4.36zM429.58486 133.1491c.25 2.08-.72 3.88-2.93 5.42a7.57 7.57 0 01-2.56 1.18 2.09 2.09 0 00-.44.16.52.52 0 01-.39 0 2.09 2.09 0 01.55.81 7 7 0 01-.83 6.78 9.59 9.59 0 01-6.13 4.05 8.2 8.2 0 01-5.07-.18 6.76 6.76 0 01-5.93 4 19.94 19.94 0 01-10.08-2.37 18.56 18.56 0 01-7.56-6.89 14 14 0 01-1.73-4.5 7.63 7.63 0 01-3.65 2.24 5.73 5.73 0 01-4-.37 5.18 5.18 0 01-2.93-3.3 7.63 7.63 0 010-4.49 15.45 15.45 0 01-4.43 1.56 15.81 15.81 0 01-8.42-.85 14.46 14.46 0 01-5.6-3.67c-1.64-1.7-2.28-3.43-1.94-5.23a7.61 7.61 0 01-3.52 1.27 6.72 6.72 0 01-6.46-3.44 6.62 6.62 0 01-.88-6.27 7.75 7.75 0 014-5.44 11.36 11.36 0 012.35-1.09c-1.15-2.76-1-5.14.44-7.15a8.19 8.19 0 015.05-3.29 24.77 24.77 0 01-.58-13.52c1-4.42 4.11-8.46 9.39-12.08q-3.12-6.61-.56-12a12.47 12.47 0 019.57-7 5.94 5.94 0 01.23-6.32 5.58 5.58 0 015.38-2.42 7.07 7.07 0 01-1-5.26 7.31 7.31 0 014.75-6.2c-.9-1.15-1.48-1.91-1.69-2.26a8.17 8.17 0 01-.6-4.15 8.31 8.31 0 014.39-6.92 8.44 8.44 0 018.3-.85c2.28.85 3.71 2.12 4.24 3.85a9.31 9.31 0 016-2.22 11.34 11.34 0 016.45 1.5 7 7 0 013.79 6.76 8.38 8.38 0 01-1.11 3.87 6 6 0 01-1.22 1.83 4 4 0 01-.42.53q3 1 4.5 5.6a15.72 15.72 0 01.41 9.2 17.91 17.91 0 01-3.41 6.64 14.14 14.14 0 01-5.93 4.57 9.54 9.54 0 011.78 4.76 13.15 13.15 0 01-1 7.08q-2.54 6.51-9.94 8.14a8.16 8.16 0 01.16 7.43 8.68 8.68 0 01-6.07 4.66 9.24 9.24 0 01-1.7 9.48 8 8 0 01-4.18 3 4.28 4.28 0 011.53 1.46 4.83 4.83 0 01.85 2.42 1.49 1.49 0 010 .53 7.11 7.11 0 016.23-.37c3.18 1.27 5 3.76 5.28 7.47a14.87 14.87 0 0111.85-1.38 12.35 12.35 0 015.83 4.28 7.49 7.49 0 011.16 5 5.64 5.64 0 011-.62 7.22 7.22 0 016 .09 5.45 5.45 0 013.43 4.48zM543.45486 128.9091a5.45 5.45 0 01-1 3.46 4.82 4.82 0 01-3.09 2 11.14 11.14 0 01-4-.53.83.83 0 00-.41-.13.94.94 0 01-.42-.17c.26.53.42.93.51 1.16a7.5 7.5 0 01-1.45 7 11.83 11.83 0 01-6.37 4.76 15.55 15.55 0 01-8-.12 12.71 12.71 0 01-3.11-1.5l.11.12a6 6 0 01-2.72 4.93 9.7 9.7 0 01-5 1.92 7.8 7.8 0 01-5-1 9.4 9.4 0 01-4.48 5.6 9 9 0 01-7 1 9.58 9.58 0 01-6.94-5.21 1.46 1.46 0 01-.26-.46 5.8 5.8 0 01-.21-.63.88.88 0 00-.32-.53.9.9 0 01-.21.49 4.21 4.21 0 01-3.11 1.43 3.47 3.47 0 01-2.86-.81.46.46 0 00-.34-.12q.3 4.37-3 8.95a13.51 13.51 0 01-4.79 4.41 10.35 10.35 0 01-5.88 1.36 7.56 7.56 0 01-.67 5.67 14.61 14.61 0 01-6.53 6.87c-3.06 1.71-5.92 2.08-8.65 1.09a6.76 6.76 0 01-2.39-1.06c-.28.78-.49 1.33-.63 1.66a8.9 8.9 0 01-5.55 4.61 6.16 6.16 0 01-6.23-2.33 6.32 6.32 0 01-1.66-6 7.35 7.35 0 01.62-1.91 7.7 7.7 0 01-2.95 0 10.5 10.5 0 01-4.24-2 6.55 6.55 0 01-2.59-3.8 9.79 9.79 0 012.47-8c2.08-2.52 4.5-3.56 7.27-3.14q-2.94-7.6 2.14-12.43a10.49 10.49 0 017.17-2.91 11.5 11.5 0 011.52 0 7.48 7.48 0 01-.13-4.29 8.49 8.49 0 011.89-3.78 7.41 7.41 0 017.43-2.54 4.26 4.26 0 01-.86-1 11.18 11.18 0 01-.81-2.32 7.48 7.48 0 01.51-4.48 7.73 7.73 0 014.5-4.43 2.35 2.35 0 01-.85-.55 6.21 6.21 0 01-1.73-4.75 6.33 6.33 0 014.88-6.32 11.36 11.36 0 01-4-5.88 13.21 13.21 0 01-.26-7.22 15.5 15.5 0 015.22-7.65 13.08 13.08 0 013.88-2.51c.09-.1.16-.14.23-.14a8.83 8.83 0 01-3.76-3.88 9.3 9.3 0 01-1-5.78 9.81 9.81 0 013.83-6.62 6.8 6.8 0 015.33-1.66 5.49 5.49 0 011.18-5.45q2.2-2.94 6.36-2.28a5.58 5.58 0 015 4.59 8 8 0 01-.21 3.41 2.34 2.34 0 01-.32.6 7.36 7.36 0 013 .95 6.56 6.56 0 013.58 3.94 1.47 1.47 0 00.14.58c2.09-.79 4.35-.44 6.8 1.06a11 11 0 014.89 5.37 7.83 7.83 0 01-.63 7.31 7.6 7.6 0 01-2.92 3 10.56 10.56 0 01-2.66.7c1.32 1.82 1.71 4.26 1.13 7.35a10.82 10.82 0 01-2.49 4.71 7.47 7.47 0 01-2.63 1.63 7.31 7.31 0 01-3.34 12 9.39 9.39 0 011.08 6.18 9.27 9.27 0 01-1.1 3.69 20.67 20.67 0 012.33-.35 13.6 13.6 0 015.78.81 10.48 10.48 0 011.57.76 15.15 15.15 0 01-.37-3 9.15 9.15 0 012.86-7.06 10.07 10.07 0 017.27-3 7.6 7.6 0 014.75 1.2 4.75 4.75 0 00.21-1 8.6 8.6 0 014.24-4.89 8.71 8.71 0 015.63-.48 9.08 9.08 0 014.93 3 5.81 5.81 0 014.57-1.57 7.67 7.67 0 014.86 2.1 6.65 6.65 0 012.35 5.54 6 6 0 01-.57 2.83l-.23.26a8.19 8.19 0 015.88 2.33 8 8 0 013.03 5.28z"/>
   <path class="cls-2" d="M150.43486 144.4491a7.65 7.65 0 00.9-3.48 10.72 10.72 0 00-2.22-6.71 11 11 0 00-5.9-4.08 6.49 6.49 0 00-3.62-.33 5.78 5.78 0 00-1.09.3c.9-1.82 1-4.17.4-7a9.71 9.71 0 00-7.36-7.45 12.69 12.69 0 002.51-5.39 11.47 11.47 0 00-1.82-7.27 9.66 9.66 0 00-5.9-4.08 3.13 3.13 0 00.07-1.18 8.09 8.09 0 00-.67-2.74 4.84 4.84 0 00-1.91-1.64 11.37 11.37 0 001.84-1.43 7.87 7.87 0 002.28-7.4 11.92 11.92 0 00-4.68-6.94 10.44 10.44 0 00-6.43-2.7.35.35 0 00.11-.23.29.29 0 01.14-.23v-1.52a6.29 6.29 0 00-1.13-3 5.27 5.27 0 00-4.59-2.36 5.86 5.86 0 00.55-1.38 13.89 13.89 0 00.51-5.14 11.75 11.75 0 00-6.66-9.41c-3.74-1.87-7.06-1.85-10 0a9.46 9.46 0 00-4.13 6.6.6.6 0 00-.21-.46 5.68 5.68 0 00-1.56-1.27 6.21 6.21 0 00-3.87-.84 8.36 8.36 0 00-6.76 5.4c-1.18 2.83-.65 5.58 1.54 8.21a11.89 11.89 0 003 2.4 7.59 7.59 0 00-3 4.77 13 13 0 00-.1 6 11.3 11.3 0 003.69 5.84 13 13 0 003 1.57 4.66 4.66 0 002.07.34 10.06 10.06 0 00-.44 1.38l-.14.11v.23a9.53 9.53 0 00-.86 3.25 12.7 12.7 0 001.37 6.81 12.47 12.47 0 004.63 5.16 8.53 8.53 0 003.69 1.39 5.06 5.06 0 00-.48.43l-1.32 2.29a8.39 8.39 0 00-.76 5.6 10.76 10.76 0 001.44 4.13l-.1-.14a6.3 6.3 0 00-3.2.19 9.1 9.1 0 00-1.73-4.68 7.57 7.57 0 00-4.8-2.84 6.11 6.11 0 00-5.35 1.22 5.82 5.82 0 00-1.91 2.84 10.9 10.9 0 00-2.31-1.06 7.54 7.54 0 00-6.2 1.77 9.75 9.75 0 00-3.9 4.85 8.34 8.34 0 00-.07 5.85 7.59 7.59 0 001.29 2.19 7.46 7.46 0 007 3.55 9.73 9.73 0 00-.58 6.32 8 8 0 001.57 3.48 12.15 12.15 0 00-4 1.32 10.74 10.74 0 00-5.71-9.37 12 12 0 00-6.6-1.63 11.1 11.1 0 00-3.32.5 3.69 3.69 0 00-1.34.53 5.5 5.5 0 00-2.24-4.24 4.87 4.87 0 00-5.35-1 7.26 7.26 0 00-1 .41 9.68 9.68 0 00-1-4.4 11.17 11.17 0 00-6.07-5.28 11.84 11.84 0 00-7.86-.53 9.57 9.57 0 00-4.79 2.06 8.23 8.23 0 00-.14-1.4 8.73 8.73 0 00-1.61-3 6.75 6.75 0 00-5.63-2.56 7.61 7.61 0 00-5.79 3 10.93 10.93 0 00-3.27 6v1.17a1.45 1.45 0 01-.69-.27 5.7 5.7 0 00-3 .18 7.9 7.9 0 00-5.14 3.74 6 6 0 00-1 5.11 7.74 7.74 0 002.56 4.12 13.81 13.81 0 002.39 1.43 6.5 6.5 0 001.53.21.29.29 0 01.23-.12.37.37 0 00.25-.09 9 9 0 001 5.58 13 13 0 005.77 6.18 10.93 10.93 0 007.33 1.46 9.24 9.24 0 003-1.13 4.69 4.69 0 002.07 3 4.09 4.09 0 003.86.58 4.37 4.37 0 001.45-.88v.48a.37.37 0 00.09.35 7.66 7.66 0 00.74 2.95 9.75 9.75 0 004.11 4.57 8.3 8.3 0 006.18.92 6.33 6.33 0 002.53-1.38 14.65 14.65 0 00.81 4.61 13.61 13.61 0 005.17 7 15.38 15.38 0 006.27 2.17 12.28 12.28 0 006.57-.77 4.19 4.19 0 001.66 4.09c1.66 1.2 3.18 1.24 4.59.13a1 1 0 01.07.6 7.53 7.53 0 003.14 5 6 6 0 005.83.78 1.64 1.64 0 001-.42 8.9 8.9 0 001.5 6 11.22 11.22 0 004.66 4.32 9.54 9.54 0 007.42.46 8.58 8.58 0 005.49-4.71 8.76 8.76 0 006.09 1.8 7.79 7.79 0 005.63-2.93q2.86-3.26 2.35-6.57a7.24 7.24 0 00-2.17-3.39 8.93 8.93 0 00-1.45-1.38l-.79-.63a4.65 4.65 0 002.84-2.56 8 8 0 00.48-6.66 11.63 11.63 0 00-4.61-6.13 7.69 7.69 0 00-3.23-1.13 8.13 8.13 0 001-6 14.25 14.25 0 00-1.75-4.68l-.32-.37a9.87 9.87 0 005.6.53c.28 5 2.44 8.28 6.5 10a7 7 0 006.6.12 7.58 7.58 0 001.7-1.09 11.12 11.12 0 002.19 4.94 8.62 8.62 0 004 2.81 8.31 8.31 0 004.8.26c3.34-.93 5.67-3.23 7-6.92a10.09 10.09 0 00.37-4.57 9 9 0 00-.48-1.77 6.56 6.56 0 003.39.18 5.23 5.23 0 003.78-6.62 3.23 3.23 0 00-2.35-2.12 4.05 4.05 0 00.71-.44 12 12 0 002.56-2.6zm-8.4 3.3c.81.76 2 .85 3.62.32a2.93 2.93 0 011.76 2.33 2.81 2.81 0 01-.88 2.88c-1.57 1.57-3.51 1.3-5.83-.78a.64.64 0 00-.77 0 .59.59 0 00-.2.63 8.94 8.94 0 00.76 1.33c.18.72.37 1.59.55 2.63a9.34 9.34 0 01-.32 3.85 7.1 7.1 0 01-5.35 5.47c-2.7.64-4.87.07-6.5-1.75a9.61 9.61 0 01-1.92-3.39c-.07-.42-.16-.93-.28-1.55a6.79 6.79 0 01-.16-1.2 2.94 2.94 0 00.19-1.27 1.09 1.09 0 00-.44-.62.54.54 0 00-.72.07c-1.91 2-3.18 3.09-3.82 3.21a5.48 5.48 0 01-5-.14 9.31 9.31 0 01-3.6-3.78 8 8 0 01-1-5 .87.87 0 00-.41-1 1.09 1.09 0 00-1.07-.19 12 12 0 01-9.75-1.93c-.23-.26-.46-.21-.72.06a.65.65 0 00.07.95 32.58 32.58 0 012 3.76 14.17 14.17 0 011.78 4 10.55 10.55 0 01-.46 6.43l-1.8.49a.7.7 0 00-.14.34c.07.39.21.58.46.51s.79-.12 1.18-.18a.4.4 0 00.34.13 7.49 7.49 0 013 1.11 10.48 10.48 0 013.62 4.54 6.48 6.48 0 01.67 5c-.37 1.09-1.47 2.24-3.34 3.46a.69.69 0 00-.21.42c0 .18 0 .28.16.3a20.41 20.41 0 012.56 2.6 6.32 6.32 0 011.71 3.14c.39 1.75-.26 3.44-1.92 5.07a5.93 5.93 0 01-4.59 2.1 6.84 6.84 0 01-5-1.8c-.44-.48-.9-.43-1.41.17a9.62 9.62 0 01-4.86 3.82 7.25 7.25 0 01-6-.33c-2.88-1.4-4.47-4.59-4.77-9.54l.62-.56a2.43 2.43 0 00.51-.67 2.71 2.71 0 01.16-.6c.09-.36 0-.53-.44-.48a10.12 10.12 0 00-1.2.42 12.07 12.07 0 01-1.1.76 7.13 7.13 0 01-2.17.8 4.38 4.38 0 01-4-.2 4.94 4.94 0 01-2.4-3.19 6.75 6.75 0 01-.37-1.91 4.89 4.89 0 01.46-2.21.45.45 0 00-.09-.35c-.07-.09-.18 0-.37.09a3.3 3.3 0 00-1.24 1.34 1.17 1.17 0 00-.49.23 3.18 3.18 0 01-1.68.72 2.32 2.32 0 01-1.64-.21c-1.43-.79-1.64-2.17-.58-4.15a.71.71 0 00-.13-.88 1 1 0 00-1-.35q-7.87 2.88-13.14-.48a12.31 12.31 0 01-4.47-6.25 9 9 0 01-.3-1.82c-.1-.76-.19-1.48-.3-2.19s-.26-1.32-.37-1.8v-.23a.35.35 0 00-.21-.37.43.43 0 00-.48.09c-.14 0-.49.26-1 .79s-.83.78-1 .76a6 6 0 01-2.6.55 6.93 6.93 0 01-4.49-1.07 10.26 10.26 0 01-3-3.34 7.06 7.06 0 01-.71-2 18.7 18.7 0 01-.58-2.38.61.61 0 00-.39-.44.59.59 0 00-.53.14 3.37 3.37 0 01-2.12 1.13 3.49 3.49 0 01-2.4-.41 3 3 0 01-1.25-2.7 3.65 3.65 0 00.81-1.59.81.81 0 00-.53-1.08c-.17-.17-.44-.14-.83.07a2.86 2.86 0 00-.77.89 8.39 8.39 0 01-4.45 2 10 10 0 01-5.55-1.71 12.28 12.28 0 01-4.57-4.84c-.14-.32-.25-.67-.39-1.06s-.26-.79-.37-1.16a5.43 5.43 0 01-.16-1.06 8.79 8.79 0 00-.19-1.17c-.09-.44-.16-.86-.2-1.25a.74.74 0 00-.58-.5.56.56 0 00-.72.3 1.06 1.06 0 01-.2.53 1 1 0 00-.21.5 1.68 1.68 0 00-.35-.25.3.3 0 00-.34 0 2.77 2.77 0 00-.56-.49 3.83 3.83 0 01-.46-.39 15.53 15.53 0 01-1.52-2 5.83 5.83 0 01-1.22-3.6 4 4 0 01.81-2.05 5.46 5.46 0 012-1.78 5.33 5.33 0 012.65-1.26l1.2-.19a1.43 1.43 0 00.69.28 4.45 4.45 0 001.94 2.93.16.16 0 00.25 0 .57.57 0 00.14-.35 9.2 9.2 0 01-.37-6.36 9.41 9.41 0 014.41-5.3 4.76 4.76 0 015.16.27 8.39 8.39 0 012.45 2.26 4.15 4.15 0 01.5.67 4.66 4.66 0 00.37.55 2.89 2.89 0 00.67 1 3.49 3.49 0 00-.78 1.39c-.09.23-.07.39.09.46s.28 0 .37-.21c.51-.76 1.71-1.41 3.62-1.91a7.38 7.38 0 013.23-.88 11.6 11.6 0 016.41.92 9.77 9.77 0 014.36 4.36 28.34 28.34 0 011.13 3 4.72 4.72 0 00.5 1.54 16 16 0 00-1.52 2.06c-.09.07-.07.16 0 .27a.51.51 0 00.41.21 14.52 14.52 0 014.11-2.12 2.68 2.68 0 011.77 0 2.8 2.8 0 011.36.78 4.54 4.54 0 011.48 3.14c0 .85.07 1.56.11 2.12v.92c.14.18.18.3.09.37.07.07 0 .28-.14.58.07.09.12.13.16.18s.09 0 .19-.05a1.75 1.75 0 01.32-.5s.11-.07.23-.12a.47.47 0 00.3-.16 2.37 2.37 0 00.39-.55 3.08 3.08 0 01.37-.58 3.33 3.33 0 00.3-.92 15.69 15.69 0 001.89-.11c.88-.19 1.78-.32 2.72-.44a11.25 11.25 0 015.47 1.13 9.25 9.25 0 013.92 3.74 7.32 7.32 0 011 5.23 1.32 1.32 0 00.6.9.69.69 0 00.9 0 9.22 9.22 0 016.2-1.77 6.9 6.9 0 003.09 1.45.52.52 0 00.6-.09c.16-.14.14-.35-.09-.58a21.61 21.61 0 00-2.08-3.07 12.23 12.23 0 01-2-3.76 11.05 11.05 0 01.62-7 .82.82 0 00-.14-.76c-.18-.3-.39-.39-.62-.34-3.14.16-5.45-.93-6.88-3.19a6.53 6.53 0 01-.66-5.21 7.3 7.3 0 011-1.82 7.8 7.8 0 014.78-3.16 6.27 6.27 0 012.67.28 6.38 6.38 0 012.88 1l.14-.12c-.27-.78-.48-1.36-.62-1.68a5.22 5.22 0 012-2.24 5.09 5.09 0 013.92-.6 7.1 7.1 0 015.28 6.39 1.19 1.19 0 00.32.85.66.66 0 00.81.16c.87-.18 1.5-.32 1.89-.37l1.18.07a2.59 2.59 0 00.57.37 12.8 12.8 0 013 2 16.1 16.1 0 012.66 2.73 6.7 6.7 0 01.62.8 1.76 1.76 0 01.37.79l.64.73a2.82 2.82 0 01.3.3 2.51 2.51 0 00.28.33c.21.23.32.21.35-.12a5.64 5.64 0 00-1-3.8 9.69 9.69 0 00-2.75-3.81c-.07-.07-.16-.18-.32-.37a2.4 2.4 0 01-.37-.53 7.11 7.11 0 00-.39-.67 2.82 2.82 0 00-.44-.62 12.53 12.53 0 01-1.64-4.56 11.37 11.37 0 01.35-4.09 5.46 5.46 0 01.83-2.07.67.67 0 00.14-.35 1.41 1.41 0 00.37-.57c.32-.28.5-.51.5-.67l.51-.44a1.17 1.17 0 00.39-.69.68.68 0 00-.43-.6 20.53 20.53 0 01-5-2 10.76 10.76 0 01-3.3-4.2 12.93 12.93 0 01-1.48-5.12l.21-1.77a30 30 0 01.92-4.2.56.56 0 00-.13-.64 1.64 1.64 0 00-.63-.44c-.14 0-1.08-.3-2.76-.88q-1.15-.77-1.92-1.38a9.33 9.33 0 01-2.7-4.5 9.64 9.64 0 01-.09-5 9.65 9.65 0 011.68-4.96 3.39 3.39 0 002.52-.93c.09-.07.09-.18 0-.34s-.14-.21-.23-.14c-1.8 0-3.44-1-4.89-3-1.61-2-1.91-4-.85-5.93a5.61 5.61 0 014.43-3.53 4 4 0 012.53.6l1 .42c1.22.85 1.85 1.4 1.91 1.63a.9.9 0 00.77.33.47.47 0 00.43-.51c0-3.44 1.41-5.88 4.15-7.29 2.5-1.2 5.19-.92 8.08.79a10.45 10.45 0 014.91 7.49 9.3 9.3 0 01-.11 4.34 24.11 24.11 0 01-1.29 4.29c-.09.07-.07.16 0 .3s.21.14.28.07a9.13 9.13 0 001.75-2 6.43 6.43 0 013.6 2.41 3.14 3.14 0 01.83 1.94 5.34 5.34 0 010 2.47c-.25.53-.16.89.3 1.08a17.29 17.29 0 003 1.34 11 11 0 012.75 1.54 8.87 8.87 0 013.73 4.91 7.19 7.19 0 01-.9 5.72c-.62 1.13-2.42 2.45-5.39 3.92a.78.78 0 00-.14.35c0 .16.11.3.35.39a6.06 6.06 0 003.43-.41c.21.09.49.23.79.39a4.27 4.27 0 011.1 1.24 3.75 3.75 0 01.63 1.69 1.67 1.67 0 01-.17.8v.23l-.11.12a8 8 0 00-4.09 1.66.51.51 0 00-.16.69.47.47 0 00.58.28 9.14 9.14 0 013.6-.23 10.07 10.07 0 013.41 1.2 7 7 0 012.56 2.49 8.44 8.44 0 011.15 5.65 7.66 7.66 0 01-2.44 5.09 1.23 1.23 0 00-.19 1.16.9.9 0 00.9.64 8.49 8.49 0 016.87 5.68 12.21 12.21 0 01.49 4.24c0 2.51-.62 4.06-1.92 4.61l.12.35a3.37 3.37 0 002.14-.58 11.51 11.51 0 012.36.12 23.28 23.28 0 013.36.78 8.61 8.61 0 014.92 4.73c1.31 3 1.26 5.25-.14 6.82a14.16 14.16 0 01-2.84 2.31 1.57 1.57 0 01-.71.32l-.79.12a4.18 4.18 0 00-.71.2l-.76.26a.27.27 0 00-.14.23.3.3 0 000 .21zM216.77486 76.6091a22.78 22.78 0 01-4.84-1.13 7.57 7.57 0 01-3.48-3.48 7.8 7.8 0 01-1-2.4 8.91 8.91 0 01-.21-2.7 9.65 9.65 0 01.6-2.63 9.87 9.87 0 011.34-2.4 1 1 0 00.09-1.15c-.21-.46-.56-.55-1-.3a12.17 12.17 0 01-6.62.81 11.1 11.1 0 01-5.79-2.77 10.83 10.83 0 01-3.2-5.44c-.35-1.52-.23-4 .32-7.56 0-.58-.18-.93-.67-1a.86.86 0 00-1 .67c-.69 1.94-2.42 3.67-5.19 5.21-1.13.46-2.21.85-3.28 1.18a.67.67 0 00-.53 0c-2.19-.36-3.62.3-4.26 2a.21.21 0 00.11.32c.14.07.19.07.14 0 1.87-1.13 3.46-.87 4.78.81a8.17 8.17 0 011.84 5.51 10.22 10.22 0 01-1.34 4.75 6.64 6.64 0 01-1.31 2 11.36 11.36 0 00-1.28 1.46c-.55.51-.39.88.49 1.07a8.5 8.5 0 015.3 4.28 18.63 18.63 0 011.89 7.43 23.15 23.15 0 01-.78 7.17 17 17 0 01-1.22 4.52 11 11 0 00-2.17 2.58c-.12 0-.14.1-.12.21-.14.28-.34.74-.6 1.39.16.18.3.25.42.23a11.24 11.24 0 015.49-3.58 10 10 0 016.45.12 10.51 10.51 0 015.05 4 20.34 20.34 0 012.52 5.47c.14.78.23 1.34.32 1.64a1 1 0 001 .48.69.69 0 00.62-.81 13.1 13.1 0 011.75-8 10.33 10.33 0 017-5.07q.81-.24.54-1.11c-.19-.57-.54-.8-1.07-.62-.94.28-1.68-.78-2.16-3.16a6.9 6.9 0 01-.07-3.64 7.09 7.09 0 013.48-4.52 3.71 3.71 0 001.68-.16.8.8 0 00.63-.88.83.83 0 00-.66-.8zm-7.45 7.45a8.19 8.19 0 001.78 6.41 17.83 17.83 0 00-2.19 1.36 13.79 13.79 0 00-3.41 3.64 8.5 8.5 0 00-1.18 3 26.17 26.17 0 00-1.25-2.4 12 12 0 00-6.34-4.84 10.23 10.23 0 00-7.72.26 1.66 1.66 0 00-.51.27 18 18 0 002.77-11.76 16.47 16.47 0 00-3-8.81 7 7 0 00-3.9-3.14 12.76 12.76 0 002.28-3.3 11.38 11.38 0 00.63-7.12 9 9 0 00-2.29-4.63 8.73 8.73 0 002.22-.7 15 15 0 002.78-2.12 9.75 9.75 0 00.14 3.27 12.67 12.67 0 003.9 7.13 11.78 11.78 0 0011.96 2.81 10.62 10.62 0 00.28 9.46 10.19 10.19 0 006.42 5.15 7.49 7.49 0 00-3.37 6.06zm7.45-7.45a22.78 22.78 0 01-4.84-1.13 7.57 7.57 0 01-3.48-3.48 7.8 7.8 0 01-1-2.4 8.91 8.91 0 01-.21-2.7 9.65 9.65 0 01.6-2.63 9.87 9.87 0 011.34-2.4 1 1 0 00.09-1.15c-.21-.46-.56-.55-1-.3a12.17 12.17 0 01-6.62.81 11.1 11.1 0 01-5.79-2.77 10.83 10.83 0 01-3.2-5.44c-.35-1.52-.23-4 .32-7.56 0-.58-.18-.93-.67-1a.86.86 0 00-1 .67c-.69 1.94-2.42 3.67-5.19 5.21-1.13.46-2.21.85-3.28 1.18a.67.67 0 00-.53 0c-2.19-.36-3.62.3-4.26 2a.21.21 0 00.11.32c.14.07.19.07.14 0 1.87-1.13 3.46-.87 4.78.81a8.17 8.17 0 011.84 5.51 10.22 10.22 0 01-1.34 4.75 6.64 6.64 0 01-1.31 2 11.36 11.36 0 00-1.28 1.46c-.55.51-.39.88.49 1.07a8.5 8.5 0 015.3 4.28 18.63 18.63 0 011.89 7.43 23.15 23.15 0 01-.78 7.17 17 17 0 01-1.22 4.52 11 11 0 00-2.17 2.58c-.12 0-.14.1-.12.21-.14.28-.34.74-.6 1.39.16.18.3.25.42.23a11.24 11.24 0 015.49-3.58 10 10 0 016.45.12 10.51 10.51 0 015.05 4 20.34 20.34 0 012.52 5.47c.14.78.23 1.34.32 1.64a1 1 0 001 .48.69.69 0 00.62-.81 13.1 13.1 0 011.75-8 10.33 10.33 0 017-5.07q.81-.24.54-1.11c-.19-.57-.54-.8-1.07-.62-.94.28-1.68-.78-2.16-3.16a6.9 6.9 0 01-.07-3.64 7.09 7.09 0 013.48-4.52 3.71 3.71 0 001.68-.16.8.8 0 00.63-.88.83.83 0 00-.66-.8zm-7.45 7.45a8.19 8.19 0 001.78 6.41 17.83 17.83 0 00-2.19 1.36 13.79 13.79 0 00-3.41 3.64 8.5 8.5 0 00-1.18 3 26.17 26.17 0 00-1.25-2.4 12 12 0 00-6.34-4.84 10.23 10.23 0 00-7.72.26 1.66 1.66 0 00-.51.27 18 18 0 002.77-11.76 16.47 16.47 0 00-3-8.81 7 7 0 00-3.9-3.14 12.76 12.76 0 002.28-3.3 11.38 11.38 0 00.63-7.12 9 9 0 00-2.29-4.63 8.73 8.73 0 002.22-.7 15 15 0 002.78-2.12 9.75 9.75 0 00.14 3.27 12.67 12.67 0 003.9 7.13 11.78 11.78 0 0011.96 2.81 10.62 10.62 0 00.28 9.46 10.19 10.19 0 006.42 5.15 7.49 7.49 0 00-3.37 6.06zm7.45-7.45a22.78 22.78 0 01-4.84-1.13 7.57 7.57 0 01-3.48-3.48 7.8 7.8 0 01-1-2.4 8.91 8.91 0 01-.21-2.7 9.65 9.65 0 01.6-2.63 9.87 9.87 0 011.34-2.4 1 1 0 00.09-1.15c-.21-.46-.56-.55-1-.3a12.17 12.17 0 01-6.62.81 11.1 11.1 0 01-5.79-2.77 10.83 10.83 0 01-3.2-5.44c-.35-1.52-.23-4 .32-7.56 0-.58-.18-.93-.67-1a.86.86 0 00-1 .67c-.69 1.94-2.42 3.67-5.19 5.21-1.13.46-2.21.85-3.28 1.18a.67.67 0 00-.53 0c-2.19-.36-3.62.3-4.26 2a.21.21 0 00.11.32c.14.07.19.07.14 0 1.87-1.13 3.46-.87 4.78.81a8.17 8.17 0 011.84 5.51 10.22 10.22 0 01-1.34 4.75 6.64 6.64 0 01-1.31 2 11.36 11.36 0 00-1.28 1.46c-.55.51-.39.88.49 1.07a8.5 8.5 0 015.3 4.28 18.63 18.63 0 011.89 7.43 23.15 23.15 0 01-.78 7.17 17 17 0 01-1.22 4.52 11 11 0 00-2.17 2.58c-.12 0-.14.1-.12.21-.14.28-.34.74-.6 1.39.16.18.3.25.42.23a11.24 11.24 0 015.49-3.58 10 10 0 016.45.12 10.51 10.51 0 015.05 4 20.34 20.34 0 012.52 5.47c.14.78.23 1.34.32 1.64a1 1 0 001 .48.69.69 0 00.62-.81 13.1 13.1 0 011.75-8 10.33 10.33 0 017-5.07q.81-.24.54-1.11c-.19-.57-.54-.8-1.07-.62-.94.28-1.68-.78-2.16-3.16a6.9 6.9 0 01-.07-3.64 7.09 7.09 0 013.48-4.52 3.71 3.71 0 001.68-.16.8.8 0 00.63-.88.83.83 0 00-.66-.8zm-7.45 7.45a8.19 8.19 0 001.78 6.41 17.83 17.83 0 00-2.19 1.36 13.79 13.79 0 00-3.41 3.64 8.5 8.5 0 00-1.18 3 26.17 26.17 0 00-1.25-2.4 12 12 0 00-6.34-4.84 10.23 10.23 0 00-7.72.26 1.66 1.66 0 00-.51.27 18 18 0 002.77-11.76 16.47 16.47 0 00-3-8.81 7 7 0 00-3.9-3.14 12.76 12.76 0 002.28-3.3 11.38 11.38 0 00.63-7.12 9 9 0 00-2.29-4.63 8.73 8.73 0 002.22-.7 15 15 0 002.78-2.12 9.75 9.75 0 00.14 3.27 12.67 12.67 0 003.9 7.13 11.78 11.78 0 0011.96 2.81 10.62 10.62 0 00.28 9.46 10.19 10.19 0 006.42 5.15 7.49 7.49 0 00-3.37 6.06zm7.45-7.45a22.78 22.78 0 01-4.84-1.13 7.57 7.57 0 01-3.48-3.48 7.8 7.8 0 01-1-2.4 8.91 8.91 0 01-.21-2.7 9.65 9.65 0 01.6-2.63 9.87 9.87 0 011.34-2.4 1 1 0 00.09-1.15c-.21-.46-.56-.55-1-.3a12.17 12.17 0 01-6.62.81 11.1 11.1 0 01-5.79-2.77 10.83 10.83 0 01-3.2-5.44c-.35-1.52-.23-4 .32-7.56 0-.58-.18-.93-.67-1a.86.86 0 00-1 .67c-.69 1.94-2.42 3.67-5.19 5.21-1.13.46-2.21.85-3.28 1.18a.67.67 0 00-.53 0c-2.19-.36-3.62.3-4.26 2a.21.21 0 00.11.32c.14.07.19.07.14 0 1.87-1.13 3.46-.87 4.78.81a8.17 8.17 0 011.84 5.51 10.22 10.22 0 01-1.34 4.75 6.64 6.64 0 01-1.31 2 11.36 11.36 0 00-1.28 1.46c-.55.51-.39.88.49 1.07a8.5 8.5 0 015.3 4.28 18.63 18.63 0 011.89 7.43 23.15 23.15 0 01-.78 7.17 17 17 0 01-1.22 4.52 11 11 0 00-2.17 2.58c-.12 0-.14.1-.12.21-.14.28-.34.74-.6 1.39.16.18.3.25.42.23a11.24 11.24 0 015.49-3.58 10 10 0 016.45.12 10.51 10.51 0 015.05 4 20.34 20.34 0 012.52 5.47c.14.78.23 1.34.32 1.64a1 1 0 001 .48.69.69 0 00.62-.81 13.1 13.1 0 011.75-8 10.33 10.33 0 017-5.07q.81-.24.54-1.11c-.19-.57-.54-.8-1.07-.62-.94.28-1.68-.78-2.16-3.16a6.9 6.9 0 01-.07-3.64 7.09 7.09 0 013.48-4.52 3.71 3.71 0 001.68-.16.8.8 0 00.63-.88.83.83 0 00-.66-.8zm-7.45 7.45a8.19 8.19 0 001.78 6.41 17.83 17.83 0 00-2.19 1.36 13.79 13.79 0 00-3.41 3.64 8.5 8.5 0 00-1.18 3 26.17 26.17 0 00-1.25-2.4 12 12 0 00-6.34-4.84 10.23 10.23 0 00-7.72.26 1.66 1.66 0 00-.51.27 18 18 0 002.77-11.76 16.47 16.47 0 00-3-8.81 7 7 0 00-3.9-3.14 12.76 12.76 0 002.28-3.3 11.38 11.38 0 00.63-7.12 9 9 0 00-2.29-4.63 8.73 8.73 0 002.22-.7 15 15 0 002.78-2.12 9.75 9.75 0 00.14 3.27 12.67 12.67 0 003.9 7.13 11.78 11.78 0 0011.96 2.81 10.62 10.62 0 00.28 9.46 10.19 10.19 0 006.42 5.15 7.49 7.49 0 00-3.37 6.06zm34.8-10.29a8.63 8.63 0 00-4.06-3.37 10.82 10.82 0 002.36-5.92 16.41 16.41 0 00-1.53-9.07 11.41 11.41 0 00-6.2-6.11 8.6 8.6 0 00-4.43-.9 5 5 0 00.51-1.2 13.1 13.1 0 00-.11-9.52 14.24 14.24 0 00-5.67-7.82 10.64 10.64 0 00-7.4-2.1 6 6 0 00-.85-4.24 7 7 0 00-3.42-2.95 9.29 9.29 0 00-5.92-.12 11.72 11.72 0 00-3.53 2.13 8.52 8.52 0 00-.51-4.55 10.88 10.88 0 00-7.54-6 15.56 15.56 0 00-10 .6 14 14 0 00-7.75 6.18 12 12 0 00-7.24-1.29 12.93 12.93 0 00-6.84 2.91 11.74 11.74 0 00-3.55 5.49 10.67 10.67 0 00-.14 6.39 6 6 0 00-2.26-.53 5.34 5.34 0 00-4.59 2.6 6.27 6.27 0 00-1 5.33 5.63 5.63 0 001.27 3.09l1.08.69a12.67 12.67 0 00-6 4.64 17.75 17.75 0 00-4.1 9.38 16.8 16.8 0 001.36 9.64 17.15 17.15 0 006.27 7.47c-3.55 3.16-4.45 8.47-2.65 15.92a11.86 11.86 0 004.38 7 16.76 16.76 0 008 3.32q-3.15 9.1 2.51 15.2a10.1 10.1 0 007.26 3.35c0 .11.14.13.3.09a1.57 1.57 0 01.49-.07 1.79 1.79 0 00.58-.09 9.15 9.15 0 00.25 6 10.62 10.62 0 006.09 6.32 9.51 9.51 0 008.41-.3 8.93 8.93 0 004.55-4.5h.14c.78 2.19 2.79 3.64 6 4.33a18.67 18.67 0 008.67 0c3.46-.81 5.72-2.54 6.78-5.17a10.54 10.54 0 00.65-3 6.74 6.74 0 001.18 1 4.69 4.69 0 004.1-.21 6 6 0 002.52-3.18 5.5 5.5 0 00.29-1.85 10.18 10.18 0 004.87 1.13 16.72 16.72 0 0011.19-3.73q4.27-3 4.24-8.93a8.92 8.92 0 00-1-4.91 8.3 8.3 0 00-2.14-3 7.56 7.56 0 004.26-6q.55-4.5-2.28-6.94a5.75 5.75 0 002.37-1.94 8.53 8.53 0 001.39-2.84 9.17 9.17 0 00.34-2.88 11 11 0 00-1.95-4.97zm-4.47 11.85c-.58.42-.62.83-.14 1.27.19.28.51.72.9 1.27 1.11 2.1 1.55 3.76 1.34 5a7 7 0 01-4.18 5.1.67.67 0 00-.48.74.89.89 0 00.44.83c1.84 1.52 2.74 3.92 2.7 7.17a8.19 8.19 0 01-3.53 7.31 18 18 0 01-8.63 2.95 10.36 10.36 0 01-8-2.26c-.16-.18-.37-.18-.6 0s-.27.37-.09.53a9 9 0 002.58 2.86 3.44 3.44 0 01-.55 1.57 6.28 6.28 0 01-2.37 1.94 2.48 2.48 0 01-2.26.51l-.63-.35a1 1 0 00-.57-.16l-.93-.76a14.93 14.93 0 00-1.19-2.77.31.31 0 00-.51 0c-.23 0-.28.25-.19.55a5.05 5.05 0 01-.76 6.32 10.43 10.43 0 01-6.27 3.65 12.44 12.44 0 01-7.08-.47c-1.89-.48-3.8-1.86-5.79-4.15a.54.54 0 00-.44 0 .59.59 0 00-.34.27c-.05.26-.39.65-1 1.18a4.27 4.27 0 01-.9 1 14.89 14.89 0 01-2.74 1.87 8.61 8.61 0 01-6.67.28 8.14 8.14 0 01-5-4.38 10.1 10.1 0 01-.74-3.6 2 2 0 010-.86 1.8 1.8 0 000-.87c1.8-.56 2.93-1.41 3.39-2.58l-.09-.33a16.65 16.65 0 01-2 .44c-.93.19-1.73.3-2.4.39a6.51 6.51 0 01-2.1-.07 9 9 0 01-5.42-3q-4.95-5.46-2.26-13.72c.18-.53 0-.85-.65-1a18 18 0 01-7.08-2.72 11.09 11.09 0 01-4.05-7.11 20.11 20.11 0 01-.42-7.68 16.56 16.56 0 012.74-6.78 1.53 1.53 0 010-.53v-.16a1.48 1.48 0 00-.35-.6 20.36 20.36 0 01-5.35-7.25 16.86 16.86 0 012-16.4 24.25 24.25 0 013.18-3.22 10.42 10.42 0 01.92-.72l1.2-.88a7.5 7.5 0 001-.92.63.63 0 000-1 7.54 7.54 0 01-1.75-3.46 4.3 4.3 0 010-3.48c.9-2 2.79-2.59 5.72-1.73a2.18 2.18 0 01.34.6.75.75 0 00.74.11.42.42 0 00.32-.62 14.89 14.89 0 01-.11-7 9.22 9.22 0 013.3-5.42 10.1 10.1 0 016-2.32 10.85 10.85 0 016.41 1.68.86.86 0 001 .14 1.23 1.23 0 00.73-.82c.72-2.63 2.7-4.56 6-5.79s6.11-1.5 8.51-.85a9.61 9.61 0 016.22 4.54 8.63 8.63 0 011.06 5.75l.05.16c-.11 0-.14.16-.07.37a2.58 2.58 0 01-.51 1.19.48.48 0 00.26.54c.21.11.34.09.41-.05.42-.58.93-1.38 1.55-2.38 3-1.84 5.65-2.51 7.86-2.05a5.44 5.44 0 013.41 2.35 3.6 3.6 0 010 3.9 1 1 0 00.12 1.18 1.18 1.18 0 001.1.53c3.65-.16 6.25.41 7.82 1.8a15.23 15.23 0 014.45 6.64 13.58 13.58 0 01.53 7.47 14.4 14.4 0 01-1.13 3.11 8.08 8.08 0 01-1.13 1.48 8.51 8.51 0 00-1.11 1.45.57.57 0 00.07.51.44.44 0 00.49.21 6.33 6.33 0 003-2.66 5.51 5.51 0 001.61.19 11.79 11.79 0 013.28 1.11 9.89 9.89 0 014.59 5.3 18.29 18.29 0 011.29 7.06c0 3-.67 5.11-1.92 6.31-.46.37-.46.76 0 1.2a8.56 8.56 0 001.68 1.32 6.84 6.84 0 011.75 1.45 7.75 7.75 0 012.15 4.22c.4 2.8-.85 5.15-3.73 7.06zm-22.88-9a22.78 22.78 0 01-4.84-1.13 7.57 7.57 0 01-3.48-3.49 7.8 7.8 0 01-1-2.4 8.91 8.91 0 01-.21-2.7 9.65 9.65 0 01.6-2.63 9.87 9.87 0 011.34-2.4 1 1 0 00.09-1.15c-.21-.46-.56-.55-1-.3a12.17 12.17 0 01-6.62.81 11.1 11.1 0 01-5.79-2.77 10.83 10.83 0 01-3.2-5.44c-.35-1.52-.23-4 .32-7.56 0-.58-.18-.93-.67-1a.86.86 0 00-1 .67c-.69 1.94-2.42 3.67-5.19 5.21-1.13.46-2.21.85-3.28 1.18a.67.67 0 00-.53 0c-2.19-.36-3.62.3-4.26 2a.21.21 0 00.11.32c.14.07.19.07.14 0 1.87-1.13 3.46-.87 4.78.81a8.17 8.17 0 011.84 5.51 10.22 10.22 0 01-1.34 4.75 6.64 6.64 0 01-1.31 2 11.36 11.36 0 00-1.28 1.46c-.55.51-.39.88.49 1.07a8.5 8.5 0 015.3 4.28 18.63 18.63 0 011.89 7.43 23.15 23.15 0 01-.78 7.17 17 17 0 01-1.22 4.52 11 11 0 00-2.17 2.58c-.12 0-.14.1-.12.21-.14.28-.34.74-.6 1.39.16.18.3.25.42.23a11.24 11.24 0 015.49-3.58 10 10 0 016.45.12 10.51 10.51 0 015.05 4 20.34 20.34 0 012.52 5.47c.14.78.23 1.34.32 1.64a1 1 0 001 .48.69.69 0 00.62-.81 13.1 13.1 0 011.75-8 10.33 10.33 0 017-5.07q.81-.24.54-1.11c-.19-.57-.54-.8-1.07-.62-.94.28-1.68-.78-2.16-3.16a6.9 6.9 0 01-.07-3.64 7.09 7.09 0 013.48-4.52 3.71 3.71 0 001.68-.16.8.8 0 00.63-.88.83.83 0 00-.66-.8zm-7.45 7.45a8.19 8.19 0 001.78 6.41 17.83 17.83 0 00-2.19 1.36 13.79 13.79 0 00-3.41 3.64 8.5 8.5 0 00-1.18 3 26.17 26.17 0 00-1.25-2.4 12 12 0 00-6.34-4.84 10.23 10.23 0 00-7.72.26 1.66 1.66 0 00-.51.27 18 18 0 002.77-11.77 16.47 16.47 0 00-3-8.81 7 7 0 00-3.9-3.14 12.76 12.76 0 002.28-3.3 11.38 11.38 0 00.63-7.12 9 9 0 00-2.29-4.63 8.73 8.73 0 002.22-.7 15 15 0 002.78-2.12 9.75 9.75 0 00.14 3.27 12.67 12.67 0 003.9 7.13 11.78 11.78 0 0011.96 2.81 10.62 10.62 0 00.28 9.46 10.19 10.19 0 006.42 5.15 7.49 7.49 0 00-3.37 6.06zm7.45-7.45a22.78 22.78 0 01-4.84-1.13 7.57 7.57 0 01-3.48-3.49 7.8 7.8 0 01-1-2.4 8.91 8.91 0 01-.21-2.7 9.65 9.65 0 01.6-2.63 9.87 9.87 0 011.34-2.4 1 1 0 00.09-1.15c-.21-.46-.56-.55-1-.3a12.17 12.17 0 01-6.62.81 11.1 11.1 0 01-5.79-2.77 10.83 10.83 0 01-3.2-5.44c-.35-1.52-.23-4 .32-7.56 0-.58-.18-.93-.67-1a.86.86 0 00-1 .67c-.69 1.94-2.42 3.67-5.19 5.21-1.13.46-2.21.85-3.28 1.18a.67.67 0 00-.53 0c-2.19-.36-3.62.3-4.26 2a.21.21 0 00.11.32c.14.07.19.07.14 0 1.87-1.13 3.46-.87 4.78.81a8.17 8.17 0 011.84 5.51 10.22 10.22 0 01-1.34 4.75 6.64 6.64 0 01-1.31 2 11.36 11.36 0 00-1.28 1.46c-.55.51-.39.88.49 1.07a8.5 8.5 0 015.3 4.28 18.63 18.63 0 011.89 7.43 23.15 23.15 0 01-.78 7.17 17 17 0 01-1.22 4.52 11 11 0 00-2.17 2.58c-.12 0-.14.1-.12.21-.14.28-.34.74-.6 1.39.16.18.3.25.42.23a11.24 11.24 0 015.49-3.58 10 10 0 016.45.12 10.51 10.51 0 015.05 4 20.34 20.34 0 012.52 5.47c.14.78.23 1.34.32 1.64a1 1 0 001 .48.69.69 0 00.62-.81 13.1 13.1 0 011.75-8 10.33 10.33 0 017-5.07q.81-.24.54-1.11c-.19-.57-.54-.8-1.07-.62-.94.28-1.68-.78-2.16-3.16a6.9 6.9 0 01-.07-3.64 7.09 7.09 0 013.48-4.52 3.71 3.71 0 001.68-.16.8.8 0 00.63-.88.83.83 0 00-.66-.8zm-7.45 7.45a8.19 8.19 0 001.78 6.41 17.83 17.83 0 00-2.19 1.36 13.79 13.79 0 00-3.41 3.64 8.5 8.5 0 00-1.18 3 26.17 26.17 0 00-1.25-2.4 12 12 0 00-6.34-4.84 10.23 10.23 0 00-7.72.26 1.66 1.66 0 00-.51.27 18 18 0 002.77-11.77 16.47 16.47 0 00-3-8.81 7 7 0 00-3.9-3.14 12.76 12.76 0 002.28-3.3 11.38 11.38 0 00.63-7.12 9 9 0 00-2.29-4.63 8.73 8.73 0 002.22-.7 15 15 0 002.78-2.12 9.75 9.75 0 00.14 3.27 12.67 12.67 0 003.9 7.13 11.78 11.78 0 0011.96 2.81 10.62 10.62 0 00.28 9.46 10.19 10.19 0 006.42 5.15 7.49 7.49 0 00-3.37 6.06zm7.45-7.45a22.78 22.78 0 01-4.84-1.13 7.57 7.57 0 01-3.48-3.49 7.8 7.8 0 01-1-2.4 8.91 8.91 0 01-.21-2.7 9.65 9.65 0 01.6-2.63 9.87 9.87 0 011.34-2.4 1 1 0 00.09-1.15c-.21-.46-.56-.55-1-.3a12.17 12.17 0 01-6.62.81 11.1 11.1 0 01-5.79-2.77 10.83 10.83 0 01-3.2-5.44c-.35-1.52-.23-4 .32-7.56 0-.58-.18-.93-.67-1a.86.86 0 00-1 .67c-.69 1.94-2.42 3.67-5.19 5.21-1.13.46-2.21.85-3.28 1.18a.67.67 0 00-.53 0c-2.19-.36-3.62.3-4.26 2a.21.21 0 00.11.32c.14.07.19.07.14 0 1.87-1.13 3.46-.87 4.78.81a8.17 8.17 0 011.84 5.51 10.22 10.22 0 01-1.34 4.75 6.64 6.64 0 01-1.31 2 11.36 11.36 0 00-1.28 1.46c-.55.51-.39.88.49 1.07a8.5 8.5 0 015.3 4.28 18.63 18.63 0 011.89 7.43 23.15 23.15 0 01-.78 7.17 17 17 0 01-1.22 4.52 11 11 0 00-2.17 2.58c-.12 0-.14.1-.12.21-.14.28-.34.74-.6 1.39.16.18.3.25.42.23a11.24 11.24 0 015.49-3.58 10 10 0 016.45.12 10.51 10.51 0 015.05 4 20.34 20.34 0 012.52 5.47c.14.78.23 1.34.32 1.64a1 1 0 001 .48.69.69 0 00.62-.81 13.1 13.1 0 011.75-8 10.33 10.33 0 017-5.07q.81-.24.54-1.11c-.19-.57-.54-.8-1.07-.62-.94.28-1.68-.78-2.16-3.16a6.9 6.9 0 01-.07-3.64 7.09 7.09 0 013.48-4.52 3.71 3.71 0 001.68-.16.8.8 0 00.63-.88.83.83 0 00-.66-.8zm-7.45 7.45a8.19 8.19 0 001.78 6.41 17.83 17.83 0 00-2.19 1.36 13.79 13.79 0 00-3.41 3.64 8.5 8.5 0 00-1.18 3 26.17 26.17 0 00-1.25-2.4 12 12 0 00-6.34-4.84 10.23 10.23 0 00-7.72.26 1.66 1.66 0 00-.51.27 18 18 0 002.77-11.77 16.47 16.47 0 00-3-8.81 7 7 0 00-3.9-3.14 12.76 12.76 0 002.28-3.3 11.38 11.38 0 00.63-7.12 9 9 0 00-2.29-4.63 8.73 8.73 0 002.22-.7 15 15 0 002.78-2.12 9.75 9.75 0 00.14 3.27 12.67 12.67 0 003.9 7.13 11.78 11.78 0 0011.96 2.81 10.62 10.62 0 00.28 9.46 10.19 10.19 0 006.42 5.15 7.49 7.49 0 00-3.37 6.06zm7.45-7.45a22.78 22.78 0 01-4.84-1.13 7.57 7.57 0 01-3.48-3.49 7.8 7.8 0 01-1-2.4 8.91 8.91 0 01-.21-2.7 9.65 9.65 0 01.6-2.63 9.87 9.87 0 011.34-2.4 1 1 0 00.09-1.15c-.21-.46-.56-.55-1-.3a12.17 12.17 0 01-6.62.81 11.1 11.1 0 01-5.79-2.77 10.83 10.83 0 01-3.2-5.44c-.35-1.52-.23-4 .32-7.56 0-.58-.18-.93-.67-1a.86.86 0 00-1 .67c-.69 1.94-2.42 3.67-5.19 5.21-1.13.46-2.21.85-3.28 1.18a.67.67 0 00-.53 0c-2.19-.36-3.62.3-4.26 2a.21.21 0 00.11.32c.14.07.19.07.14 0 1.87-1.13 3.46-.87 4.78.81a8.17 8.17 0 011.84 5.51 10.22 10.22 0 01-1.34 4.75 6.64 6.64 0 01-1.31 2 11.36 11.36 0 00-1.28 1.46c-.55.51-.39.88.49 1.07a8.5 8.5 0 015.3 4.28 18.63 18.63 0 011.89 7.43 23.15 23.15 0 01-.78 7.17 17 17 0 01-1.22 4.52 11 11 0 00-2.17 2.58c-.12 0-.14.1-.12.21-.14.28-.34.74-.6 1.39.16.18.3.25.42.23a11.24 11.24 0 015.49-3.58 10 10 0 016.45.12 10.51 10.51 0 015.05 4 20.34 20.34 0 012.52 5.47c.14.78.23 1.34.32 1.64a1 1 0 001 .48.69.69 0 00.62-.81 13.1 13.1 0 011.75-8 10.33 10.33 0 017-5.07q.81-.24.54-1.11c-.19-.57-.54-.8-1.07-.62-.94.28-1.68-.78-2.16-3.16a6.9 6.9 0 01-.07-3.64 7.09 7.09 0 013.48-4.52 3.71 3.71 0 001.68-.16.8.8 0 00.63-.88.83.83 0 00-.66-.8zm-7.45 7.45a8.19 8.19 0 001.78 6.41 17.83 17.83 0 00-2.19 1.36 13.79 13.79 0 00-3.41 3.64 8.5 8.5 0 00-1.18 3 26.17 26.17 0 00-1.25-2.4 12 12 0 00-6.34-4.84 10.23 10.23 0 00-7.72.26 1.66 1.66 0 00-.51.27 18 18 0 002.77-11.77 16.47 16.47 0 00-3-8.81 7 7 0 00-3.9-3.14 12.76 12.76 0 002.28-3.3 11.38 11.38 0 00.63-7.12 9 9 0 00-2.29-4.63 8.73 8.73 0 002.22-.7 15 15 0 002.78-2.12 9.75 9.75 0 00.14 3.27 12.67 12.67 0 003.9 7.13 11.78 11.78 0 0011.96 2.81 10.62 10.62 0 00.28 9.46 10.19 10.19 0 006.42 5.15 7.49 7.49 0 00-3.37 6.06zm7.45-7.45a22.78 22.78 0 01-4.84-1.13 7.57 7.57 0 01-3.48-3.49 7.8 7.8 0 01-1-2.4 8.91 8.91 0 01-.21-2.7 9.65 9.65 0 01.6-2.63 9.87 9.87 0 011.34-2.4 1 1 0 00.09-1.15c-.21-.46-.56-.55-1-.3a12.17 12.17 0 01-6.62.81 11.1 11.1 0 01-5.79-2.77 10.83 10.83 0 01-3.2-5.44c-.35-1.52-.23-4 .32-7.56 0-.58-.18-.93-.67-1a.86.86 0 00-1 .67c-.69 1.94-2.42 3.67-5.19 5.21-1.13.46-2.21.85-3.28 1.18a.67.67 0 00-.53 0c-2.19-.36-3.62.3-4.26 2a.21.21 0 00.11.32c.14.07.19.07.14 0 1.87-1.13 3.46-.87 4.78.81a8.17 8.17 0 011.84 5.51 10.22 10.22 0 01-1.34 4.75 6.64 6.64 0 01-1.31 2 11.36 11.36 0 00-1.28 1.46c-.55.51-.39.88.49 1.07a8.5 8.5 0 015.3 4.28 18.63 18.63 0 011.89 7.43 23.15 23.15 0 01-.78 7.17 17 17 0 01-1.22 4.52 11 11 0 00-2.17 2.58c-.12 0-.14.1-.12.21-.14.28-.34.74-.6 1.39.16.18.3.25.42.23a11.24 11.24 0 015.49-3.58 10 10 0 016.45.12 10.51 10.51 0 015.05 4 20.34 20.34 0 012.52 5.47c.14.78.23 1.34.32 1.64a1 1 0 001 .48.69.69 0 00.62-.81 13.1 13.1 0 011.75-8 10.33 10.33 0 017-5.07q.81-.24.54-1.11c-.19-.57-.54-.8-1.07-.62-.94.28-1.68-.78-2.16-3.16a6.9 6.9 0 01-.07-3.64 7.09 7.09 0 013.48-4.52 3.71 3.71 0 001.68-.16.8.8 0 00.63-.88.83.83 0 00-.66-.8zm-7.45 7.45a8.19 8.19 0 001.78 6.41 17.83 17.83 0 00-2.19 1.36 13.79 13.79 0 00-3.41 3.64 8.5 8.5 0 00-1.18 3 26.17 26.17 0 00-1.25-2.4 12 12 0 00-6.34-4.84 10.23 10.23 0 00-7.72.26 1.66 1.66 0 00-.51.27 18 18 0 002.77-11.77 16.47 16.47 0 00-3-8.81 7 7 0 00-3.9-3.14 12.76 12.76 0 002.28-3.3 11.38 11.38 0 00.63-7.12 9 9 0 00-2.29-4.63 8.73 8.73 0 002.22-.7 15 15 0 002.78-2.12 9.75 9.75 0 00.14 3.27 12.67 12.67 0 003.9 7.13 11.78 11.78 0 0011.96 2.81 10.62 10.62 0 00.28 9.46 10.19 10.19 0 006.42 5.15 7.49 7.49 0 00-3.37 6.06zM319.99486 72.7991a21.86 21.86 0 01-4.08-2.8 7.49 7.49 0 01-2-4.5 7.4 7.4 0 010-2.58 8.78 8.78 0 01.78-2.61 11.59 11.59 0 011.52-2.21 9.55 9.55 0 012.15-1.73 1.07 1.07 0 00.5-1c0-.51-.3-.72-.87-.67a12 12 0 01-6.44-1.7 10.89 10.89 0 01-5.35-11c.23-1.55 1.27-3.86 3.07-6.92.25-.53.18-.92-.23-1.18a.88.88 0 00-1.2.23c-1.34 1.55-3.6 2.54-6.73 3-1.23 0-2.38 0-3.49-.11a.64.64 0 00-.48-.21c-1.91-1.15-3.48-1.06-4.68.28a.19.19 0 00-.05.32c.12.12.16.14.19 0a3.25 3.25 0 014.12 2.49 8.24 8.24 0 01-.32 5.82 10.14 10.14 0 01-3 3.92 7 7 0 01-2 1.33 13 13 0 00-1.76 1c-.66.28-.64.67.1 1.15a8.46 8.46 0 013.34 6 18.47 18.47 0 01-1 7.59 23.08 23.08 0 01-3.34 6.39 16.79 16.79 0 01-2.75 3.74 11.77 11.77 0 00-2.95 1.59c-.11 0-.18 0-.18.16a11.58 11.58 0 00-1.09 1.08c.07.23.19.35.3.35a11.36 11.36 0 016.44-1.31 10 10 0 015.95 2.49 10.33 10.33 0 013.2 5.6 19.41 19.41 0 01.35 6 14.74 14.74 0 00-.3 1.64.91.91 0 00.76.83.7.7 0 00.88-.53 13.12 13.12 0 014.64-6.74 10.18 10.18 0 018.33-2.15c.55 0 .85-.23.92-.85s-.21-.92-.76-1c-1-.09-1.29-1.34-.85-3.74a6.44 6.44 0 011.26-3.39 7.08 7.08 0 014.87-2.87 3.93 3.93 0 001.61.46.83.83 0 00.9-.6.87.87 0 00-.28-1.06zm-9.66 4.2a8.18 8.18 0 00-.71 6.62 17 17 0 00-2.52.44 14.2 14.2 0 00-4.52 2.14 8.92 8.92 0 00-2.19 2.33 16.49 16.49 0 00-.28-2.7 11.7 11.7 0 00-4.12-6.83 10.27 10.27 0 00-7.29-2.61 1.08 1.08 0 00-.67.11 17.67 17.67 0 007-9.93 16.17 16.17 0 00.44-9.3 7 7 0 00-2.48-4.35 13.08 13.08 0 003.34-2.21 11.54 11.54 0 003.19-6.41 9.15 9.15 0 00-.4-5.19 8.58 8.58 0 002.31.18 17.4 17.4 0 003.41-.89 9.47 9.47 0 00-1.08 3.09 12.61 12.61 0 001 8.07 11.8 11.8 0 0010.1 7 10.56 10.56 0 00-3.23 8.91 10.08 10.08 0 004.08 7.17 7.44 7.44 0 00-5.38 4.36zm9.66-4.2a21.86 21.86 0 01-4.08-2.8 7.49 7.49 0 01-2-4.5 7.4 7.4 0 010-2.58 8.78 8.78 0 01.78-2.61 11.59 11.59 0 011.52-2.21 9.55 9.55 0 012.15-1.73 1.07 1.07 0 00.5-1c0-.51-.3-.72-.87-.67a12 12 0 01-6.44-1.7 10.89 10.89 0 01-5.35-11c.23-1.55 1.27-3.86 3.07-6.92.25-.53.18-.92-.23-1.18a.88.88 0 00-1.2.23c-1.34 1.55-3.6 2.54-6.73 3-1.23 0-2.38 0-3.49-.11a.64.64 0 00-.48-.21c-1.91-1.15-3.48-1.06-4.68.28a.19.19 0 00-.05.32c.12.12.16.14.19 0a3.25 3.25 0 014.12 2.49 8.24 8.24 0 01-.32 5.82 10.14 10.14 0 01-3 3.92 7 7 0 01-2 1.33 13 13 0 00-1.76 1c-.66.28-.64.67.1 1.15a8.46 8.46 0 013.34 6 18.47 18.47 0 01-1 7.59 23.08 23.08 0 01-3.34 6.39 16.79 16.79 0 01-2.75 3.74 11.77 11.77 0 00-2.95 1.59c-.11 0-.18 0-.18.16a11.58 11.58 0 00-1.09 1.08c.07.23.19.35.3.35a11.36 11.36 0 016.44-1.31 10 10 0 015.95 2.49 10.33 10.33 0 013.2 5.6 19.41 19.41 0 01.35 6 14.74 14.74 0 00-.3 1.64.91.91 0 00.76.83.7.7 0 00.88-.53 13.12 13.12 0 014.64-6.74 10.18 10.18 0 018.33-2.15c.55 0 .85-.23.92-.85s-.21-.92-.76-1c-1-.09-1.29-1.34-.85-3.74a6.44 6.44 0 011.26-3.39 7.08 7.08 0 014.87-2.87 3.93 3.93 0 001.61.46.83.83 0 00.9-.6.87.87 0 00-.28-1.06zm-9.66 4.2a8.18 8.18 0 00-.71 6.62 17 17 0 00-2.52.44 14.2 14.2 0 00-4.52 2.14 8.92 8.92 0 00-2.19 2.33 16.49 16.49 0 00-.28-2.7 11.7 11.7 0 00-4.12-6.83 10.27 10.27 0 00-7.29-2.61 1.08 1.08 0 00-.67.11 17.67 17.67 0 007-9.93 16.17 16.17 0 00.44-9.3 7 7 0 00-2.48-4.35 13.08 13.08 0 003.34-2.21 11.54 11.54 0 003.19-6.41 9.15 9.15 0 00-.4-5.19 8.58 8.58 0 002.31.18 17.4 17.4 0 003.41-.89 9.47 9.47 0 00-1.08 3.09 12.61 12.61 0 001 8.07 11.8 11.8 0 0010.1 7 10.56 10.56 0 00-3.23 8.91 10.08 10.08 0 004.08 7.17 7.44 7.44 0 00-5.38 4.36zm9.66-4.2a21.86 21.86 0 01-4.08-2.8 7.49 7.49 0 01-2-4.5 7.4 7.4 0 010-2.58 8.78 8.78 0 01.78-2.61 11.59 11.59 0 011.52-2.21 9.55 9.55 0 012.15-1.73 1.07 1.07 0 00.5-1c0-.51-.3-.72-.87-.67a12 12 0 01-6.44-1.7 10.89 10.89 0 01-5.35-11c.23-1.55 1.27-3.86 3.07-6.92.25-.53.18-.92-.23-1.18a.88.88 0 00-1.2.23c-1.34 1.55-3.6 2.54-6.73 3-1.23 0-2.38 0-3.49-.11a.64.64 0 00-.48-.21c-1.91-1.15-3.48-1.06-4.68.28a.19.19 0 00-.05.32c.12.12.16.14.19 0a3.25 3.25 0 014.12 2.49 8.24 8.24 0 01-.32 5.82 10.14 10.14 0 01-3 3.92 7 7 0 01-2 1.33 13 13 0 00-1.76 1c-.66.28-.64.67.1 1.15a8.46 8.46 0 013.34 6 18.47 18.47 0 01-1 7.59 23.08 23.08 0 01-3.34 6.39 16.79 16.79 0 01-2.75 3.74 11.77 11.77 0 00-2.95 1.59c-.11 0-.18 0-.18.16a11.58 11.58 0 00-1.09 1.08c.07.23.19.35.3.35a11.36 11.36 0 016.44-1.31 10 10 0 015.95 2.49 10.33 10.33 0 013.2 5.6 19.41 19.41 0 01.35 6 14.74 14.74 0 00-.3 1.64.91.91 0 00.76.83.7.7 0 00.88-.53 13.12 13.12 0 014.64-6.74 10.18 10.18 0 018.33-2.15c.55 0 .85-.23.92-.85s-.21-.92-.76-1c-1-.09-1.29-1.34-.85-3.74a6.44 6.44 0 011.26-3.39 7.08 7.08 0 014.87-2.87 3.93 3.93 0 001.61.46.83.83 0 00.9-.6.87.87 0 00-.28-1.06zm-9.66 4.2a8.18 8.18 0 00-.71 6.62 17 17 0 00-2.52.44 14.2 14.2 0 00-4.52 2.14 8.92 8.92 0 00-2.19 2.33 16.49 16.49 0 00-.28-2.7 11.7 11.7 0 00-4.12-6.83 10.27 10.27 0 00-7.29-2.61 1.08 1.08 0 00-.67.11 17.67 17.67 0 007-9.93 16.17 16.17 0 00.44-9.3 7 7 0 00-2.48-4.35 13.08 13.08 0 003.34-2.21 11.54 11.54 0 003.19-6.41 9.15 9.15 0 00-.4-5.19 8.58 8.58 0 002.31.18 17.4 17.4 0 003.41-.89 9.47 9.47 0 00-1.08 3.09 12.61 12.61 0 001 8.07 11.8 11.8 0 0010.1 7 10.56 10.56 0 00-3.23 8.91 10.08 10.08 0 004.08 7.17 7.44 7.44 0 00-5.38 4.36zm9.66-4.2a21.86 21.86 0 01-4.08-2.8 7.49 7.49 0 01-2-4.5 7.4 7.4 0 010-2.58 8.78 8.78 0 01.78-2.61 11.59 11.59 0 011.52-2.21 9.55 9.55 0 012.15-1.73 1.07 1.07 0 00.5-1c0-.51-.3-.72-.87-.67a12 12 0 01-6.44-1.7 10.89 10.89 0 01-5.35-11c.23-1.55 1.27-3.86 3.07-6.92.25-.53.18-.92-.23-1.18a.88.88 0 00-1.2.23c-1.34 1.55-3.6 2.54-6.73 3-1.23 0-2.38 0-3.49-.11a.64.64 0 00-.48-.21c-1.91-1.15-3.48-1.06-4.68.28a.19.19 0 00-.05.32c.12.12.16.14.19 0a3.25 3.25 0 014.12 2.49 8.24 8.24 0 01-.32 5.82 10.14 10.14 0 01-3 3.92 7 7 0 01-2 1.33 13 13 0 00-1.76 1c-.66.28-.64.67.1 1.15a8.46 8.46 0 013.34 6 18.47 18.47 0 01-1 7.59 23.08 23.08 0 01-3.34 6.39 16.79 16.79 0 01-2.75 3.74 11.77 11.77 0 00-2.95 1.59c-.11 0-.18 0-.18.16a11.58 11.58 0 00-1.09 1.08c.07.23.19.35.3.35a11.36 11.36 0 016.44-1.31 10 10 0 015.95 2.49 10.33 10.33 0 013.2 5.6 19.41 19.41 0 01.35 6 14.74 14.74 0 00-.3 1.64.91.91 0 00.76.83.7.7 0 00.88-.53 13.12 13.12 0 014.64-6.74 10.18 10.18 0 018.33-2.15c.55 0 .85-.23.92-.85s-.21-.92-.76-1c-1-.09-1.29-1.34-.85-3.74a6.44 6.44 0 011.26-3.39 7.08 7.08 0 014.87-2.87 3.93 3.93 0 001.61.46.83.83 0 00.9-.6.87.87 0 00-.28-1.06zm-9.66 4.2a8.18 8.18 0 00-.71 6.62 17 17 0 00-2.52.44 14.2 14.2 0 00-4.52 2.14 8.92 8.92 0 00-2.19 2.33 16.49 16.49 0 00-.28-2.7 11.7 11.7 0 00-4.12-6.83 10.27 10.27 0 00-7.29-2.61 1.08 1.08 0 00-.67.11 17.67 17.67 0 007-9.93 16.17 16.17 0 00.44-9.3 7 7 0 00-2.48-4.35 13.08 13.08 0 003.34-2.21 11.54 11.54 0 003.19-6.41 9.15 9.15 0 00-.4-5.19 8.58 8.58 0 002.31.18 17.4 17.4 0 003.41-.89 9.47 9.47 0 00-1.08 3.09 12.61 12.61 0 001 8.07 11.8 11.8 0 0010.1 7 10.56 10.56 0 00-3.23 8.91 10.08 10.08 0 004.08 7.17 7.44 7.44 0 00-5.38 4.36zm38-6a16.56 16.56 0 001.92-9 11.53 11.53 0 00-3.53-8 8.76 8.76 0 00-3.78-2.46 4.88 4.88 0 00.89-.93 12.86 12.86 0 003.39-8.87 14.13 14.13 0 00-2.39-9.37 10.74 10.74 0 00-6.11-4.68 5.93 5.93 0 00.76-4.26 7 7 0 00-2.08-4 9.24 9.24 0 00-5.49-2.29 11.56 11.56 0 00-4 .67 8.62 8.62 0 001.08-4.41 10.86 10.86 0 00-4.75-8.4 15.51 15.51 0 00-9.5-3.11 14 14 0 00-9.48 2.91 11.8 11.8 0 00-6.27-3.86 12.74 12.74 0 00-7.42.24 11.66 11.66 0 00-5.3 3.8 10.59 10.59 0 00-2.5 5.88 6.46 6.46 0 00-1.89-1.34 5.4 5.4 0 00-5.23.74 6.38 6.38 0 00-2.86 4.61 5.58 5.58 0 000 3.32l.76 1.07a12.93 12.93 0 00-7.34 2.07 18.06 18.06 0 00-7.22 7.24 16.7 16.7 0 00-2.28 9.48 17.25 17.25 0 003.09 9.25c-4.48 1.63-7.24 6.22-8.31 13.81a11.93 11.93 0 001.5 8.12 17.17 17.17 0 006.18 6q-6.26 7.34-3.23 15.06a10 10 0 005.52 5.79c0 .12.07.18.23.18a4.54 4.54 0 01.5.12 1.44 1.44 0 00.56.14 9.08 9.08 0 00-2 5.67 10.55 10.55 0 003.34 8.1 9.5 9.5 0 007.93 2.81 7.55 7.55 0 004.09-1.15 6.87 6.87 0 001.77-1.36h.19c-.1 2.33 1.24 4.4 4 6.23a18.85 18.85 0 008.07 3.25c3.51.5 6.25-.28 8.19-2.33a10.13 10.13 0 001.71-2.52 4.86 4.86 0 00.71 1.39 4.58 4.58 0 003.9 1.31 5.77 5.77 0 003.5-2.05 5.65 5.65 0 00.95-1.57 10.5 10.5 0 004.1 2.81 16.66 16.66 0 0011.79.65c3.39-.83 5.81-3.09 7.22-6.73a9 9 0 00.9-4.94 7.94 7.94 0 00-.88-3.57 7.66 7.66 0 006.16-4c1.45-2.65 1.59-5.1.44-7.29a5.82 5.82 0 002.9-.92 8.6 8.6 0 002.33-2.15 9.57 9.57 0 001.38-2.56 10.66 10.66 0 000-5.42 8.44 8.44 0 00-2.54-4.61 10.94 10.94 0 004.41-4.57zm-6.48 3.8c-.55.16-.71.56-.41 1.13a9.88 9.88 0 001.08 1.82 8.73 8.73 0 011.11 2 8 8 0 01.44 4.7c-.67 2.73-2.7 4.46-6.09 5.17-.69.16-.88.55-.6 1.13.09.32.21.83.39 1.52.23 2.35.05 4.06-.6 5.12a6.88 6.88 0 01-5.76 3.18.69.69 0 00-.7.53.86.86 0 00.1.93c1.15 2.1 1.1 4.66-.14 7.65a8.09 8.09 0 01-6 5.51 18 18 0 01-9.13-.41 10.34 10.34 0 01-6.58-5c-.09-.23-.27-.3-.57-.23s-.37.26-.28.49a9.08 9.08 0 001.36 3.62 4 4 0 01-1.11 1.22 5.88 5.88 0 01-2.9.94 2.45 2.45 0 01-2.31-.36c-.09-.12-.25-.3-.44-.53s-.37-.37-.48-.37l-.58-1.06a12.58 12.58 0 00-.09-3 .33.33 0 00-.48-.21c-.21 0-.35.14-.37.48.37 2.47-.65 4.32-3.05 5.58a10.2 10.2 0 01-7.15 1.07 12.4 12.4 0 01-6.43-3c-1.57-1.13-2.84-3.11-3.83-6a.7.7 0 00-.41-.21.68.68 0 00-.42.14 3 3 0 01-1.38.72 4.72 4.72 0 01-1.22.57 16.32 16.32 0 01-3.23.74 8.66 8.66 0 01-6.32-2.19 8.22 8.22 0 01-3-5.9 10.63 10.63 0 01.64-3.62 1.81 1.81 0 01.3-.81 1.91 1.91 0 00.33-.81c1.86.16 3.25-.23 4.1-1.17v-.33a15 15 0 01-2.05-.32c-.94-.18-1.73-.37-2.37-.53a7.05 7.05 0 01-1.94-.83 9 9 0 01-3.91-4.87q-2.6-6.88 2.95-13.58c.37-.42.3-.81-.23-1.2a17.82 17.82 0 01-5.58-5.12 10.92 10.92 0 01-1.18-8.1 19.74 19.74 0 012.45-7.29 16.4 16.4 0 015.09-5.26 1.2 1.2 0 01.21-.48v-.17a1.35 1.35 0 00-.12-.66 20.16 20.16 0 01-2.28-8.7 16.66 16.66 0 017.86-14.5 22.14 22.14 0 014.13-1.83 8.39 8.39 0 011.13-.32c.51-.14 1-.25 1.43-.39a6.37 6.37 0 001.29-.48c.42-.19.51-.51.33-1a7.86 7.86 0 01-.35-3.85 4.24 4.24 0 011.27-3.23q2.36-2.32 6 .48a1.84 1.84 0 01.11.67.67.67 0 00.65.39.43.43 0 00.46-.38 14.92 14.92 0 012.44-6.55 9.43 9.43 0 015.08-3.83 10 10 0 016.5.05 10.76 10.76 0 015.33 3.92.86.86 0 00.87.48 1.25 1.25 0 001-.5q2.43-3.28 7.68-3.19c3.48 0 6.23.83 8.21 2.33a9.63 9.63 0 014.13 6.51 8.73 8.73 0 01-1.13 5.74v.16c-.1 0-.17.09-.19.32a2.44 2.44 0 01-.9.93.44.44 0 000 .57c.16.19.3.23.41.12.58-.39 1.34-1 2.31-1.64 3.48-.6 6.18-.28 8.07 1a5.28 5.28 0 012.3 3.44 3.58 3.58 0 01-1.38 3.64 1 1 0 00-.35 1.13 1.26 1.26 0 00.86.9c3.46 1.18 5.65 2.7 6.62 4.54a15.53 15.53 0 011.68 7.82 13.51 13.51 0 01-2.24 7.11 13.74 13.74 0 01-2.21 2.49 8.23 8.23 0 01-1.57 1 7.73 7.73 0 00-1.59.94.48.48 0 00-.12.49.42.42 0 00.4.37 6.11 6.11 0 003.79-1.44 6.38 6.38 0 001.45.79 13.12 13.12 0 012.65 2.21 10.1 10.1 0 012.28 6.69 18 18 0 01-1.38 7.06c-1.18 2.79-2.54 4.52-4.16 5.16zm-25.94-4.8a7.49 7.49 0 01-2-4.5 7.4 7.4 0 010-2.58 8.78 8.78 0 01.78-2.61 11.59 11.59 0 011.52-2.21 9.55 9.55 0 012.15-1.73 1.07 1.07 0 00.5-1c0-.51-.3-.72-.87-.67a12 12 0 01-6.44-1.7 10.89 10.89 0 01-5.35-11c.23-1.55 1.27-3.86 3.07-6.92.25-.53.18-.92-.23-1.18a.88.88 0 00-1.2.23c-1.34 1.55-3.6 2.54-6.73 3-1.23 0-2.38 0-3.49-.11a.64.64 0 00-.48-.21c-1.91-1.15-3.48-1.06-4.68.28a.19.19 0 00-.05.32c.12.12.16.14.19 0a3.25 3.25 0 014.12 2.49 8.24 8.24 0 01-.32 5.82 10.14 10.14 0 01-3 3.92 7 7 0 01-2 1.33 13 13 0 00-1.76 1c-.66.28-.64.67.1 1.15a8.46 8.46 0 013.34 6 18.47 18.47 0 01-1 7.59 23.08 23.08 0 01-3.34 6.39 16.79 16.79 0 01-2.75 3.74 11.77 11.77 0 00-2.95 1.59c-.11 0-.18 0-.18.16a11.58 11.58 0 00-1.09 1.08c.07.23.19.35.3.35a11.36 11.36 0 016.44-1.31 10 10 0 015.95 2.49 10.33 10.33 0 013.2 5.6 19.41 19.41 0 01.35 6 14.74 14.74 0 00-.3 1.64.91.91 0 00.76.83.7.7 0 00.88-.53 13.12 13.12 0 014.64-6.74 10.18 10.18 0 018.33-2.15c.55 0 .85-.23.92-.85s-.21-.92-.76-1c-1-.09-1.29-1.34-.85-3.74a6.44 6.44 0 011.26-3.39 7.08 7.08 0 014.87-2.87 3.93 3.93 0 001.61.46.83.83 0 00.9-.6.87.87 0 00-.25-1 21.86 21.86 0 01-4.11-2.86zm-5.58 7a8.18 8.18 0 00-.71 6.62 17 17 0 00-2.52.44 14.2 14.2 0 00-4.52 2.14 8.92 8.92 0 00-2.19 2.33 16.49 16.49 0 00-.28-2.7 11.7 11.7 0 00-4.12-6.83 10.27 10.27 0 00-7.29-2.61 1.08 1.08 0 00-.67.11 17.67 17.67 0 007-9.93 16.17 16.17 0 00.44-9.3 7 7 0 00-2.48-4.35 13.08 13.08 0 003.34-2.21 11.54 11.54 0 003.19-6.41 9.15 9.15 0 00-.4-5.19 8.58 8.58 0 002.31.18 17.4 17.4 0 003.41-.89 9.47 9.47 0 00-1.08 3.09 12.61 12.61 0 001 8.07 11.8 11.8 0 0010.1 7 10.56 10.56 0 00-3.23 8.91 10.08 10.08 0 004.08 7.17 7.44 7.44 0 00-5.38 4.36zm9.66-4.2a21.86 21.86 0 01-4.08-2.8 7.49 7.49 0 01-2-4.5 7.4 7.4 0 010-2.58 8.78 8.78 0 01.78-2.61 11.59 11.59 0 011.52-2.21 9.55 9.55 0 012.15-1.73 1.07 1.07 0 00.5-1c0-.51-.3-.72-.87-.67a12 12 0 01-6.44-1.7 10.89 10.89 0 01-5.35-11c.23-1.55 1.27-3.86 3.07-6.92.25-.53.18-.92-.23-1.18a.88.88 0 00-1.2.23c-1.34 1.55-3.6 2.54-6.73 3-1.23 0-2.38 0-3.49-.11a.64.64 0 00-.48-.21c-1.91-1.15-3.48-1.06-4.68.28a.19.19 0 00-.05.32c.12.12.16.14.19 0a3.25 3.25 0 014.12 2.49 8.24 8.24 0 01-.32 5.82 10.14 10.14 0 01-3 3.92 7 7 0 01-2 1.33 13 13 0 00-1.76 1c-.66.28-.64.67.1 1.15a8.46 8.46 0 013.34 6 18.47 18.47 0 01-1 7.59 23.08 23.08 0 01-3.34 6.39 16.79 16.79 0 01-2.75 3.74 11.77 11.77 0 00-2.95 1.59c-.11 0-.18 0-.18.16a11.58 11.58 0 00-1.09 1.08c.07.23.19.35.3.35a11.36 11.36 0 016.44-1.31 10 10 0 015.95 2.49 10.33 10.33 0 013.2 5.6 19.41 19.41 0 01.35 6 14.74 14.74 0 00-.3 1.64.91.91 0 00.76.83.7.7 0 00.88-.53 13.12 13.12 0 014.64-6.74 10.18 10.18 0 018.33-2.15c.55 0 .85-.23.92-.85s-.21-.92-.76-1c-1-.09-1.29-1.34-.85-3.74a6.44 6.44 0 011.26-3.39 7.08 7.08 0 014.87-2.87 3.93 3.93 0 001.61.46.83.83 0 00.9-.6.87.87 0 00-.28-1.06zm-9.66 4.2a8.18 8.18 0 00-.71 6.62 17 17 0 00-2.52.44 14.2 14.2 0 00-4.52 2.14 8.92 8.92 0 00-2.19 2.33 16.49 16.49 0 00-.28-2.7 11.7 11.7 0 00-4.12-6.83 10.27 10.27 0 00-7.29-2.61 1.08 1.08 0 00-.67.11 17.67 17.67 0 007-9.93 16.17 16.17 0 00.44-9.3 7 7 0 00-2.48-4.35 13.08 13.08 0 003.34-2.21 11.54 11.54 0 003.19-6.41 9.15 9.15 0 00-.4-5.19 8.58 8.58 0 002.31.18 17.4 17.4 0 003.41-.89 9.47 9.47 0 00-1.08 3.09 12.61 12.61 0 001 8.07 11.8 11.8 0 0010.1 7 10.56 10.56 0 00-3.23 8.91 10.08 10.08 0 004.08 7.17 7.44 7.44 0 00-5.38 4.36zm9.66-4.2a21.86 21.86 0 01-4.08-2.8 7.49 7.49 0 01-2-4.5 7.4 7.4 0 010-2.58 8.78 8.78 0 01.78-2.61 11.59 11.59 0 011.52-2.21 9.55 9.55 0 012.15-1.73 1.07 1.07 0 00.5-1c0-.51-.3-.72-.87-.67a12 12 0 01-6.44-1.7 10.89 10.89 0 01-5.35-11c.23-1.55 1.27-3.86 3.07-6.92.25-.53.18-.92-.23-1.18a.88.88 0 00-1.2.23c-1.34 1.55-3.6 2.54-6.73 3-1.23 0-2.38 0-3.49-.11a.64.64 0 00-.48-.21c-1.91-1.15-3.48-1.06-4.68.28a.19.19 0 00-.05.32c.12.12.16.14.19 0a3.25 3.25 0 014.12 2.49 8.24 8.24 0 01-.32 5.82 10.14 10.14 0 01-3 3.92 7 7 0 01-2 1.33 13 13 0 00-1.76 1c-.66.28-.64.67.1 1.15a8.46 8.46 0 013.34 6 18.47 18.47 0 01-1 7.59 23.08 23.08 0 01-3.34 6.39 16.79 16.79 0 01-2.75 3.74 11.77 11.77 0 00-2.95 1.59c-.11 0-.18 0-.18.16a11.58 11.58 0 00-1.09 1.08c.07.23.19.35.3.35a11.36 11.36 0 016.44-1.31 10 10 0 015.95 2.49 10.33 10.33 0 013.2 5.6 19.41 19.41 0 01.35 6 14.74 14.74 0 00-.3 1.64.91.91 0 00.76.83.7.7 0 00.88-.53 13.12 13.12 0 014.64-6.74 10.18 10.18 0 018.33-2.15c.55 0 .85-.23.92-.85s-.21-.92-.76-1c-1-.09-1.29-1.34-.85-3.74a6.44 6.44 0 011.26-3.39 7.08 7.08 0 014.87-2.87 3.93 3.93 0 001.61.46.83.83 0 00.9-.6.87.87 0 00-.28-1.06zm-9.66 4.2a8.18 8.18 0 00-.71 6.62 17 17 0 00-2.52.44 14.2 14.2 0 00-4.52 2.14 8.92 8.92 0 00-2.19 2.33 16.49 16.49 0 00-.28-2.7 11.7 11.7 0 00-4.12-6.83 10.27 10.27 0 00-7.29-2.61 1.08 1.08 0 00-.67.11 17.67 17.67 0 007-9.93 16.17 16.17 0 00.44-9.3 7 7 0 00-2.48-4.35 13.08 13.08 0 003.34-2.21 11.54 11.54 0 003.19-6.41 9.15 9.15 0 00-.4-5.19 8.58 8.58 0 002.31.18 17.4 17.4 0 003.41-.89 9.47 9.47 0 00-1.08 3.09 12.61 12.61 0 001 8.07 11.8 11.8 0 0010.1 7 10.56 10.56 0 00-3.23 8.91 10.08 10.08 0 004.08 7.17 7.44 7.44 0 00-5.38 4.36zm9.66-4.2a21.86 21.86 0 01-4.08-2.8 7.49 7.49 0 01-2-4.5 7.4 7.4 0 010-2.58 8.78 8.78 0 01.78-2.61 11.59 11.59 0 011.52-2.21 9.55 9.55 0 012.15-1.73 1.07 1.07 0 00.5-1c0-.51-.3-.72-.87-.67a12 12 0 01-6.44-1.7 10.89 10.89 0 01-5.35-11c.23-1.55 1.27-3.86 3.07-6.92.25-.53.18-.92-.23-1.18a.88.88 0 00-1.2.23c-1.34 1.55-3.6 2.54-6.73 3-1.23 0-2.38 0-3.49-.11a.64.64 0 00-.48-.21c-1.91-1.15-3.48-1.06-4.68.28a.19.19 0 00-.05.32c.12.12.16.14.19 0a3.25 3.25 0 014.12 2.49 8.24 8.24 0 01-.32 5.82 10.14 10.14 0 01-3 3.92 7 7 0 01-2 1.33 13 13 0 00-1.76 1c-.66.28-.64.67.1 1.15a8.46 8.46 0 013.34 6 18.47 18.47 0 01-1 7.59 23.08 23.08 0 01-3.34 6.39 16.79 16.79 0 01-2.75 3.74 11.77 11.77 0 00-2.95 1.59c-.11 0-.18 0-.18.16a11.58 11.58 0 00-1.09 1.08c.07.23.19.35.3.35a11.36 11.36 0 016.44-1.31 10 10 0 015.95 2.49 10.33 10.33 0 013.2 5.6 19.41 19.41 0 01.35 6 14.74 14.74 0 00-.3 1.64.91.91 0 00.76.83.7.7 0 00.88-.53 13.12 13.12 0 014.64-6.74 10.18 10.18 0 018.33-2.15c.55 0 .85-.23.92-.85s-.21-.92-.76-1c-1-.09-1.29-1.34-.85-3.74a6.44 6.44 0 011.26-3.39 7.08 7.08 0 014.87-2.87 3.93 3.93 0 001.61.46.83.83 0 00.9-.6.87.87 0 00-.28-1.06zm-9.66 4.2a8.18 8.18 0 00-.71 6.62 17 17 0 00-2.52.44 14.2 14.2 0 00-4.52 2.14 8.92 8.92 0 00-2.19 2.33 16.49 16.49 0 00-.28-2.7 11.7 11.7 0 00-4.12-6.83 10.27 10.27 0 00-7.29-2.61 1.08 1.08 0 00-.67.11 17.67 17.67 0 007-9.93 16.17 16.17 0 00.44-9.3 7 7 0 00-2.48-4.35 13.08 13.08 0 003.34-2.21 11.54 11.54 0 003.19-6.41 9.15 9.15 0 00-.4-5.19 8.58 8.58 0 002.31.18 17.4 17.4 0 003.41-.89 9.47 9.47 0 00-1.08 3.09 12.61 12.61 0 001 8.07 11.8 11.8 0 0010.1 7 10.56 10.56 0 00-3.23 8.91 10.08 10.08 0 004.08 7.17 7.44 7.44 0 00-5.38 4.36zm9.66-4.2a21.86 21.86 0 01-4.08-2.8 7.49 7.49 0 01-2-4.5 7.4 7.4 0 010-2.58 8.78 8.78 0 01.78-2.61 11.59 11.59 0 011.52-2.21 9.55 9.55 0 012.15-1.73 1.07 1.07 0 00.5-1c0-.51-.3-.72-.87-.67a12 12 0 01-6.44-1.7 10.89 10.89 0 01-5.35-11c.23-1.55 1.27-3.86 3.07-6.92.25-.53.18-.92-.23-1.18a.88.88 0 00-1.2.23c-1.34 1.55-3.6 2.54-6.73 3-1.23 0-2.38 0-3.49-.11a.64.64 0 00-.48-.21c-1.91-1.15-3.48-1.06-4.68.28a.19.19 0 00-.05.32c.12.12.16.14.19 0a3.25 3.25 0 014.12 2.49 8.24 8.24 0 01-.32 5.82 10.14 10.14 0 01-3 3.92 7 7 0 01-2 1.33 13 13 0 00-1.76 1c-.66.28-.64.67.1 1.15a8.46 8.46 0 013.34 6 18.47 18.47 0 01-1 7.59 23.08 23.08 0 01-3.34 6.39 16.79 16.79 0 01-2.75 3.74 11.77 11.77 0 00-2.95 1.59c-.11 0-.18 0-.18.16a11.58 11.58 0 00-1.09 1.08c.07.23.19.35.3.35a11.36 11.36 0 016.44-1.31 10 10 0 015.95 2.49 10.33 10.33 0 013.2 5.6 19.41 19.41 0 01.35 6 14.74 14.74 0 00-.3 1.64.91.91 0 00.76.83.7.7 0 00.88-.53 13.12 13.12 0 014.64-6.74 10.18 10.18 0 018.33-2.15c.55 0 .85-.23.92-.85s-.21-.92-.76-1c-1-.09-1.29-1.34-.85-3.74a6.44 6.44 0 011.26-3.39 7.08 7.08 0 014.87-2.87 3.93 3.93 0 001.61.46.83.83 0 00.9-.6.87.87 0 00-.28-1.06zm-9.66 4.2a8.18 8.18 0 00-.71 6.62 17 17 0 00-2.52.44 14.2 14.2 0 00-4.52 2.14 8.92 8.92 0 00-2.19 2.33 16.49 16.49 0 00-.28-2.7 11.7 11.7 0 00-4.12-6.83 10.27 10.27 0 00-7.29-2.61 1.08 1.08 0 00-.67.11 17.67 17.67 0 007-9.93 16.17 16.17 0 00.44-9.3 7 7 0 00-2.48-4.35 13.08 13.08 0 003.34-2.21 11.54 11.54 0 003.19-6.41 9.15 9.15 0 00-.4-5.19 8.58 8.58 0 002.31.18 17.4 17.4 0 003.41-.89 9.47 9.47 0 00-1.08 3.09 12.61 12.61 0 001 8.07 11.8 11.8 0 0010.1 7 10.56 10.56 0 00-3.23 8.91 10.08 10.08 0 004.08 7.17 7.44 7.44 0 00-5.38 4.36zM426.21486 128.6291a7.22 7.22 0 00-6-.09 5.64 5.64 0 00-1 .62 7.49 7.49 0 00-1.16-5 12.35 12.35 0 00-5.88-4.26 14.87 14.87 0 00-11.85 1.38c-.32-3.71-2.1-6.2-5.28-7.47a7.11 7.11 0 00-6.23.37 1.49 1.49 0 000-.53 4.83 4.83 0 00-.85-2.42 4.28 4.28 0 00-1.53-1.46 8 8 0 004.18-3 9.24 9.24 0 001.7-9.48 8.68 8.68 0 006.07-4.66 8.16 8.16 0 00-.16-7.43q7.39-1.62 9.94-8.14a13.15 13.15 0 001-7.08 9.54 9.54 0 00-1.76-4.86 14.14 14.14 0 005.93-4.57 17.91 17.91 0 003.4-6.55 15.72 15.72 0 00-.41-9.2q-1.53-4.56-4.5-5.6a4 4 0 00.42-.53 6 6 0 001.22-1.83 8.38 8.38 0 001.11-3.87 7 7 0 00-3.79-6.76 11.34 11.34 0 00-6.45-1.5 9.31 9.31 0 00-6 2.22c-.53-1.73-2-3-4.24-3.85a8.44 8.44 0 00-8.3.85 8.31 8.31 0 00-4.39 6.92 8.17 8.17 0 00.59 4.15c.21.35.79 1.11 1.69 2.26a7.31 7.31 0 00-4.75 6.2 7.07 7.07 0 001 5.26 5.58 5.58 0 00-5.38 2.42 5.94 5.94 0 00-.23 6.32 12.47 12.47 0 00-9.57 7q-2.55 5.4.56 12c-5.28 3.62-8.4 7.66-9.39 12.08a24.77 24.77 0 00.58 13.52 8.19 8.19 0 00-5.05 3.29c-1.45 2-1.59 4.39-.44 7.15a11.36 11.36 0 00-2.35 1.09 7.75 7.75 0 00-4 5.44 6.62 6.62 0 00.88 6.27 6.72 6.72 0 006.46 3.44 7.61 7.61 0 003.52-1.27c-.34 1.8.3 3.53 1.94 5.23a14.46 14.46 0 005.6 3.67 15.81 15.81 0 008.42.85 15.45 15.45 0 004.43-1.56 7.63 7.63 0 000 4.49 5.18 5.18 0 002.93 3.3 5.73 5.73 0 004 .37 7.63 7.63 0 003.65-2.24 14 14 0 001.73 4.5 18.56 18.56 0 007.56 6.89 19.94 19.94 0 0010.08 2.38 6.76 6.76 0 005.93-4 8.2 8.2 0 005.07.18 9.59 9.59 0 006.13-4.03 7 7 0 00.83-6.78 2.09 2.09 0 00-.55-.81.52.52 0 00.39 0 2.09 2.09 0 01.44-.16 7.57 7.57 0 002.56-1.18c2.21-1.54 3.18-3.34 2.93-5.42a5.45 5.45 0 00-3.38-4.52zm-.64 7.59a6.14 6.14 0 01-2.06 1.22c-.39.07-.71.09-1 .12s-.32.14-.57.25a3.65 3.65 0 01-.6.28 3.59 3.59 0 00-2.54-.83.45.45 0 00-.57.46.67.67 0 00.39.74c1.75.94 2.72 2.09 2.95 3.41a5.07 5.07 0 01-.95 4.33 6.77 6.77 0 01-3.43 2.61c-2.49.88-4.29.9-5.33 0a1 1 0 00-1.24-.11 1.24 1.24 0 00-.6.9c0 1.24-1 2.17-3.14 2.74a13.88 13.88 0 01-4 0 19.56 19.56 0 01-7.2-2.49 17.8 17.8 0 01-5.6-5.06c-.92-1.15-1.62-3.15-2.12-5.94l.2-.47c.14-.3.05-.46-.3-.5-.36-.56-.73-.53-1.13 0a1.62 1.62 0 010 .51 23.51 23.51 0 01-2.86 2.14 5.63 5.63 0 01-3.65.3q-3.29-1.17-1.4-7.47c.07-.44-.07-.72-.44-.83a.82.82 0 00-.92.21 8.76 8.76 0 01-5.65 2.81 15.34 15.34 0 01-6.85-.48 16.54 16.54 0 01-6.16-3.46 5.61 5.61 0 01-2.12-5.42 2 2 0 00.69-1.5l-.14-.07c0 .12-.25.25-.57.46-.12 0-.21 0-.3.23l-1.18.56a5.73 5.73 0 01-2.35.71 5.28 5.28 0 01-4.66-2.21 5.35 5.35 0 01-.92-4.48 6.47 6.47 0 012.51-3.94 30.12 30.12 0 015.31-2.65.27.27 0 00.2-.26c0-.11-.11-.23-.3-.32a7.11 7.11 0 00-2-.41 5.39 5.39 0 011-5.15 6.14 6.14 0 014.82-2.4 1 1 0 001.11-.57 1.18 1.18 0 00.11-1.25q-3.74-8-1.63-13.63c1.27-3.92 4.54-7.63 9.87-11.11.71-.51.8-1.22.25-2.1q-3.56-5.71-1.27-10.52a9.94 9.94 0 019.46-6 .93.93 0 001.08-.76 1.54 1.54 0 00-.39-1.48 3.81 3.81 0 01-.72-4.93 4.65 4.65 0 014.71-2.36 5.47 5.47 0 001.43.49c.21.09.32 0 .37-.39-.12-.53-.33-1.2-.6-2a18.57 18.57 0 01-.69-2.24 6.35 6.35 0 01-.19-1.94c.35-2 1.82-3.85 4.41-5.44a.83.83 0 00.32-.67 1 1 0 00-.43-.86c-1.27-1-1.86-2.79-1.82-5.46a6.65 6.65 0 012.56-5 6.77 6.77 0 015.65-1.27 7 7 0 014.71 3.05l-.56 1.2a.41.41 0 00.19.55c.23.19.39.16.48-.05a9.36 9.36 0 015.88-3.27 8 8 0 016.41 1.38 5.27 5.27 0 012.05 5.38 11.42 11.42 0 01-1 2.83l-.44 1.36c-.25.79-.46 1.23-.6 1.27a1.69 1.69 0 00-.18.92c.05.33.18.49.42.49 2.14.64 3.52 2.77 4.15 6.36a16.38 16.38 0 01-.21 7.45 15.73 15.73 0 01-3.88 6.25 29 29 0 01-6.15 4.06.64.64 0 00-.3.85c.11.37.34.51.62.4a13.59 13.59 0 001.94-.19 9.85 9.85 0 01.41 1.48c.09.55.26 1.54.42 3a11.16 11.16 0 01-1 5.95 12.21 12.21 0 01-3.69 4.87 11 11 0 01-5.51 2.53c-1.09.23-1.36.79-.79 1.66a6.67 6.67 0 01.37 6.6c-1.2 2.51-3 3.8-5.35 3.9-.87.07-1.17.55-.85 1.43q1.45 5.11-1.36 8.74a16.53 16.53 0 01-3.14 2.72 8.23 8.23 0 01-2.19.71c-.94.23-1.59.39-1.87.49s-.2.27 0 .39a3.22 3.22 0 002.47.23l.07.23.44.21.46.21.16.06.14.07a6.38 6.38 0 01.6.67l.16.07.14.07-.01.15a.43.43 0 01.21.18c0 .1.07.14.18.19l-.07.16.07.21c.16.2.21.34.16.46l.14.07c0 .09 0 .16.09.21a1.4 1.4 0 01-.07.53l.1.2-.1.16a1 1 0 010 .51c-.09.21-.16.37-.21.46a.58.58 0 00-.07.53 9.8 9.8 0 00-2 2.19c-.21.14-.18.35 0 .56s.42.25.6.09c.35-.21 1.2-.71 2.58-1.55a1 1 0 00.58-.43 5.79 5.79 0 015.49-.72 5.87 5.87 0 013.32 3 8.42 8.42 0 01.69 4.72 1.25 1.25 0 00.79 1.29 1.2 1.2 0 001.47-.23 11.29 11.29 0 0110.79-2.6 8.92 8.92 0 014.66 3 8.47 8.47 0 011.82 5.47l.1.2a5.24 5.24 0 00-1.16 2 .51.51 0 00.33.51.27.27 0 00.43-.14 9.59 9.59 0 013.44-2.6 6.31 6.31 0 014.22-.4 3.17 3.17 0 012.42 2.63 3.29 3.29 0 01-1.42 3.36zM540.41486 123.5391a8.19 8.19 0 00-5.88-2.33l.23-.26a6 6 0 00.57-2.83 6.65 6.65 0 00-2.35-5.54 7.67 7.67 0 00-4.86-2.1 5.81 5.81 0 00-4.57 1.57 9.08 9.08 0 00-4.93-3 8.71 8.71 0 00-5.63.48 8.6 8.6 0 00-4.24 4.89 4.75 4.75 0 01-.21 1 7.6 7.6 0 00-4.75-1.2 10.07 10.07 0 00-7.27 3 9.15 9.15 0 00-2.86 7.06 15.15 15.15 0 00.37 3 10.48 10.48 0 00-1.57-.76 13.6 13.6 0 00-5.78-.81 20.67 20.67 0 00-2.33.35 9.27 9.27 0 001.1-3.69 9.39 9.39 0 00-1.08-6.18 7.31 7.31 0 003.34-12 7.47 7.47 0 002.63-1.63 10.82 10.82 0 002.49-4.71c.58-3.09.19-5.53-1.13-7.35a10.56 10.56 0 002.66-.7 7.6 7.6 0 002.92-3 7.83 7.83 0 00.63-7.31 11 11 0 00-4.92-5.28c-2.45-1.5-4.71-1.85-6.8-1.06a1.47 1.47 0 01-.14-.58 6.56 6.56 0 00-3.58-3.94 7.36 7.36 0 00-3-.95 2.34 2.34 0 00.32-.6 8 8 0 00.21-3.41 5.58 5.58 0 00-5-4.59q-4.16-.66-6.36 2.28a5.49 5.49 0 00-1.18 5.45 6.8 6.8 0 00-5.33 1.66 9.81 9.81 0 00-3.83 6.62 9.3 9.3 0 001 5.78 8.83 8.83 0 003.76 3.88c-.07 0-.14 0-.23.14a13.08 13.08 0 00-3.84 2.51 15.5 15.5 0 00-5.18 7.6 13.21 13.21 0 00.26 7.22 11.36 11.36 0 004 5.88 6.33 6.33 0 00-4.88 6.32 6.21 6.21 0 001.73 4.75 2.35 2.35 0 00.85.55 7.73 7.73 0 00-4.5 4.43 7.48 7.48 0 00-.51 4.48 11.18 11.18 0 00.81 2.32 4.26 4.26 0 00.86 1 7.41 7.41 0 00-7.52 2.56 8.49 8.49 0 00-1.89 3.78 7.48 7.48 0 00.13 4.29 11.5 11.5 0 00-1.52 0 10.49 10.49 0 00-7.17 2.91q-5.08 4.81-2.14 12.43c-2.77-.42-5.19.62-7.27 3.14a9.79 9.79 0 00-2.47 8 6.55 6.55 0 002.59 3.8 10.5 10.5 0 004.24 2 7.7 7.7 0 002.95 0 7.35 7.35 0 00-.62 1.91 6.32 6.32 0 001.66 6 6.16 6.16 0 006.23 2.33 8.9 8.9 0 005.55-4.61c.14-.33.35-.88.63-1.66a6.76 6.76 0 002.39 1.06c2.73 1 5.59.62 8.65-1.09a14.61 14.61 0 006.53-6.87 7.56 7.56 0 00.67-5.67 10.35 10.35 0 005.88-1.36 13.51 13.51 0 004.79-4.41q3.33-4.59 3-8.95a.46.46 0 01.34.12 3.47 3.47 0 002.86.81 4.21 4.21 0 003.11-1.43.9.9 0 00.21-.49.88.88 0 01.32.53 5.8 5.8 0 00.21.63 1.46 1.46 0 00.26.46 9.58 9.58 0 006.94 5.21 9 9 0 007-1 9.4 9.4 0 004.48-5.6 7.8 7.8 0 005 1 9.7 9.7 0 005-1.92 6 6 0 002.72-4.93l-.11-.12a12.71 12.71 0 003.11 1.5 15.55 15.55 0 008 .12 11.83 11.83 0 006.37-4.76 7.5 7.5 0 001.45-7c-.09-.23-.25-.63-.51-1.16a.94.94 0 00.42.17.83.83 0 01.41.13 11.14 11.14 0 004 .53 4.82 4.82 0 003.09-2 5.45 5.45 0 001-3.46 8 8 0 00-2.99-5.34zm-2.42 8.67a16.76 16.76 0 01-2.56.57 4.76 4.76 0 01-1.66-.39 2.65 2.65 0 01-.32-.39 1.89 1.89 0 00-.3-.39c-1.06-1-2-1.29-2.74-1l-.12.14a3 3 0 00.76 1.25c.42.46.74.78 1 1a7.66 7.66 0 011.06 3c.26 2.17-.89 4.27-3.48 6.25a8.47 8.47 0 01-3.66 2 17.53 17.53 0 01-4 .19 10 10 0 01-7.45-3.69.52.52 0 00-.42 0c-.18.05-.27.14-.27.3a.59.59 0 00-.12.35v.6a2.76 2.76 0 00.07.65 4.37 4.37 0 00.2.62 2.16 2.16 0 01.16.71 3.33 3.33 0 000 .58 5.69 5.69 0 01-2.45 3.39 12.18 12.18 0 01-4.4 1.38 3.83 3.83 0 01-3.81-1.24 1.17 1.17 0 00-1.15-.49.9.9 0 00-.83.93 6.75 6.75 0 01-2.88 5.12 7.57 7.57 0 01-5.83 1.35 9.07 9.07 0 01-5.68-3.5 8.69 8.69 0 01-2.16-6.14l-.23-.23a4.16 4.16 0 00-.93 3.21l-.23.25-.11.12-.12.14-.09.11c-.09.07-.23.26-.46.49l-.23.25-.09.12-.35.13-.11.12a1.52 1.52 0 01-.47.25l-.11.12h-.23l-.12.12c-.09-.07-.16-.07-.23 0h-.48a.3.3 0 01-.28.07.26.26 0 00-.3.07l-.11-.11h-.23a5 5 0 01-.86-.3 3.17 3.17 0 01-1.06-.56 6.72 6.72 0 00-2.28-3.41c-.07-.07-.14-.09-.19 0s0 .1.07.16a7.34 7.34 0 01.63 6.21 19.36 19.36 0 01-3.35 6.62 11.82 11.82 0 01-10.61 4.69.49.49 0 00-.66.48.93.93 0 00.27.93 2.59 2.59 0 011.36 1.93 11 11 0 01-1.73 3.37 14.72 14.72 0 01-4.7 5.17 12 12 0 01-6.14 2 5.49 5.49 0 01-3-.7c-.16-.16-.44-.41-.85-.78s-.7-.65-.86-.78-.2-.28-.14-.35l-.73-.67-.49-.46c-.16-.14-.3-.16-.41 0s-.12.23-.05.3a.14.14 0 010 .23 3.76 3.76 0 00.21 2 9.64 9.64 0 01-.48 2.24 7.8 7.8 0 01-3.85 3.46 3.36 3.36 0 01-4-.76 5.27 5.27 0 01-1.94-4 5.1 5.1 0 011.13-3.46 4.52 4.52 0 00.81-.62 3.75 3.75 0 00.6-.92 2.65 2.65 0 01.39-.65c.14-.18.16-.3 0-.41a.48.48 0 00-.54-.05 6.43 6.43 0 01-2.35 1 7.35 7.35 0 01-3.57.33 6.55 6.55 0 01-3.53-1.55 5.07 5.07 0 01-1.84-3.13 7.79 7.79 0 012.53-6.23 9.1 9.1 0 016.25-2.4c.69.05.92-.28.67-1a6.74 6.74 0 01-1.06-3.66 8.47 8.47 0 01.9-3.86 13.84 13.84 0 012.21-3.27 11 11 0 015.05-2.56 14.14 14.14 0 013.19 0l1.43.39a15.5 15.5 0 001.66.41c.23.07.34-.07.32-.36a3.65 3.65 0 00-1.73-2.06c-.21-1.24-.32-2.1-.35-2.56a10.58 10.58 0 01.21-2.07 5.88 5.88 0 011-2.45c1.27-1.54 3.55-2.3 6.85-2.3.39.07.62-.07.69-.37a.92.92 0 00-.27-.83 1.8 1.8 0 01-.53-1c-.1-.48-.26-1.4-.46-2.81a7.17 7.17 0 01.29-3.76c.56-1.75 2-3.39 4.48-4.91a4.5 4.5 0 001.87-.32.21.21 0 00.23-.23c0-.17-.14-.28-.37-.35a4.56 4.56 0 01-3.39-2.19 6.3 6.3 0 01-.72-2.91 4.64 4.64 0 011.57-3.43 5.81 5.81 0 013.51-1.62c.39.07.62-.11.73-.55a.83.83 0 00-.46-1c-.32-.14-1.1-1.25-2.37-3.3a23.54 23.54 0 01-1.66-2.86 10.91 10.91 0 01-.28-6.34 12.9 12.9 0 013.85-5.93q3.39-3.42 6-4.15a2.12 2.12 0 01.6.09.6.6 0 00.4-.41c0-.21-.05-.3-.19-.3a10.94 10.94 0 01-4.56-3.37 7.37 7.37 0 01-1.8-5.4 7.09 7.09 0 012.38-4.8 5.65 5.65 0 014.84-1.87.92.92 0 001.11-.35.9.9 0 000-1.1c-.58-.86-.21-2.24 1.13-4.18a4.68 4.68 0 013.92-1.56 3.42 3.42 0 013 2.32 4.36 4.36 0 01.33 2.1 4.61 4.61 0 01-.3 1.32 5.42 5.42 0 00-3.62 3c-.17.33-.07.39.23.21a6.83 6.83 0 012.3-1.27 6.41 6.41 0 012.7-.23 5.14 5.14 0 012.49 1 4.91 4.91 0 012.24 2.72 4.18 4.18 0 01.25 1.67 8.41 8.41 0 01-.28 2c.18.3.37.41.6.32a4.15 4.15 0 001.59-1.71 7.31 7.31 0 00.3-.83 8.59 8.59 0 015.53 1.46 8.71 8.71 0 013.56 4.35 5.42 5.42 0 01-.28 4.73c-1.22 2.47-2.95 3.88-5.21 4.22a.67.67 0 00-.42 1.2 5.05 5.05 0 011.09 3.23 11.38 11.38 0 01-.54 4 7.3 7.3 0 01-1.75 2.88 13.59 13.59 0 01-1.17 1.06 11.48 11.48 0 00-1.09.92c-.23.09-.34.21-.34.37a.56.56 0 000 .65.86.86 0 00.56.5.88.88 0 00.6.1 6.49 6.49 0 01.71 5.83 7.17 7.17 0 01-2 2.93c-.37.23-1 .55-1.78.94s-1.34.63-1.57.72a.74.74 0 00-.41.74.94.94 0 00.25.69c1.32 1.5 1.78 3.64 1.34 6.39a13.69 13.69 0 01-.81 2.86 3.4 3.4 0 00-.27.43 1 1 0 00-.16.53.74.74 0 01-.21.49.83.83 0 01-.39.18.91.91 0 00-.42.19 8.19 8.19 0 00-2.26 1.75l-.9 1a2.23 2.23 0 00-.44.72 2.37 2.37 0 01-.34.6c-.07.09-.05.18.09.3s.21.11.28 0l.71-.27a1.36 1.36 0 00.44-.26 5.22 5.22 0 001.15-.51 11.67 11.67 0 012.33-.8 13.5 13.5 0 014.64-1.39 11.43 11.43 0 014.7 0 16.81 16.81 0 012.72.69 6.58 6.58 0 001.34.76l.6.58a7.63 7.63 0 01.62.55c.09.07.19.05.3-.07a.59.59 0 00.14-.41 3.42 3.42 0 00-.53-1.39 1.59 1.59 0 00-.37-.34 5.54 5.54 0 01-.16-1.3l-.39-2.48a7.78 7.78 0 012.22-5.39 8.42 8.42 0 015.42-2.7 10.83 10.83 0 015.07.6 7 7 0 00.95 2.65c0 .16.06.21.18.19a.67.67 0 00.28-.21 9 9 0 011.2-4.75 6.31 6.31 0 013-3.3 6.45 6.45 0 014.63-.39 7.61 7.61 0 014.06 2.47c.42.69.88.73 1.41.18a5.2 5.2 0 012.4-1.52 4.56 4.56 0 012.76 0 5 5 0 012.24 1.5 4.62 4.62 0 011.71 3.81c-.3 2.12-.76 3.34-1.39 3.69a.56.56 0 00-.3.71.54.54 0 00.6.46 7.68 7.68 0 015.19.7c2.42 1.15 3.69 2.69 3.85 4.65s-.81 3.21-3.18 3.86z"/>
  </g>
 </g>
</svg>
